<svg width="17" height="31" viewBox="0 0 17 31" fill="none" xmlns="http://www.w3.org/2000/svg">
<g filter="url(#filter0_d_301_102893)">
<path d="M16.0938 19.7812C16.0938 21.1979 15.7604 22.3958 15.0938 23.375C14.4375 24.3438 13.5365 25.0781 12.3906 25.5781C11.2552 26.0677 9.96354 26.3125 8.51562 26.3125C7.07812 26.3125 5.78125 26.0677 4.625 25.5781C3.47917 25.0781 2.56771 24.3438 1.89062 23.375C1.22396 22.3958 0.890625 21.1979 0.890625 19.7812C0.890625 18.8333 1.07812 17.974 1.45312 17.2031C1.83854 16.4323 2.36979 15.7708 3.04688 15.2188C3.72396 14.6562 4.52604 14.2292 5.45312 13.9375C6.38021 13.6354 7.39062 13.4844 8.48438 13.4844C9.94271 13.4844 11.2448 13.75 12.3906 14.2812C13.5469 14.8021 14.4531 15.5365 15.1094 16.4844C15.7656 17.4219 16.0938 18.5208 16.0938 19.7812ZM11.9375 19.5312C11.9375 18.8021 11.7917 18.1719 11.5 17.6406C11.2188 17.099 10.8177 16.6823 10.2969 16.3906C9.77604 16.099 9.17188 15.9531 8.48438 15.9531C7.78646 15.9531 7.17708 16.099 6.65625 16.3906C6.14583 16.6823 5.74479 17.099 5.45312 17.6406C5.17188 18.1719 5.03125 18.8021 5.03125 19.5312C5.03125 20.2708 5.17188 20.9062 5.45312 21.4375C5.74479 21.9583 6.15104 22.3594 6.67188 22.6406C7.19271 22.9219 7.80729 23.0625 8.51562 23.0625C9.22396 23.0625 9.83333 22.9219 10.3438 22.6406C10.8542 22.3594 11.2448 21.9583 11.5156 21.4375C11.7969 20.9062 11.9375 20.2708 11.9375 19.5312ZM15.5938 9.25C15.5938 10.3958 15.2917 11.4167 14.6875 12.3125C14.0833 13.1979 13.2448 13.8906 12.1719 14.3906C11.1094 14.8906 9.89062 15.1406 8.51562 15.1406C7.14062 15.1406 5.91146 14.8906 4.82812 14.3906C3.75521 13.8906 2.91146 13.1979 2.29688 12.3125C1.69271 11.4167 1.39062 10.3958 1.39062 9.25C1.39062 7.89583 1.69792 6.75 2.3125 5.8125C2.92708 4.86458 3.76562 4.14583 4.82812 3.65625C5.90104 3.16667 7.11979 2.92188 8.48438 2.92188C9.86979 2.92188 11.099 3.16667 12.1719 3.65625C13.2448 4.14583 14.0833 4.86458 14.6875 5.8125C15.2917 6.75 15.5938 7.89583 15.5938 9.25ZM11.4688 9.42188C11.4688 8.77604 11.349 8.21354 11.1094 7.73438C10.8698 7.24479 10.526 6.86458 10.0781 6.59375C9.64062 6.32292 9.10938 6.1875 8.48438 6.1875C7.88021 6.1875 7.35938 6.31771 6.92188 6.57812C6.48438 6.83854 6.14583 7.21354 5.90625 7.70312C5.66667 8.18229 5.54688 8.75521 5.54688 9.42188C5.54688 10.0781 5.66667 10.651 5.90625 11.1406C6.14583 11.6302 6.48438 12.0156 6.92188 12.2969C7.36979 12.5677 7.90104 12.7031 8.51562 12.7031C9.13021 12.7031 9.65625 12.5677 10.0938 12.2969C10.5312 12.0156 10.8698 11.6302 11.1094 11.1406C11.349 10.651 11.4688 10.0781 11.4688 9.42188Z" fill="white"/>
</g>
<defs>
<filter id="filter0_d_301_102893" x="0.890625" y="1.92188" width="15.2031" height="24.3906" filterUnits="userSpaceOnUse" color-interpolation-filters="sRGB">
<feFlood flood-opacity="0" result="BackgroundImageFix"/>
<feColorMatrix in="SourceAlpha" type="matrix" values="0 0 0 0 0 0 0 0 0 0 0 0 0 0 0 0 0 0 127 0" result="hardAlpha"/>
<feOffset dy="-1"/>
<feColorMatrix type="matrix" values="0 0 0 0 0 0 0 0 0 0 0 0 0 0 0 0 0 0 0.25 0"/>
<feBlend mode="normal" in2="BackgroundImageFix" result="effect1_dropShadow_301_102893"/>
<feBlend mode="normal" in="SourceGraphic" in2="effect1_dropShadow_301_102893" result="shape"/>
</filter>
</defs>
</svg>
