<svg width="17" height="31" viewBox="0 0 17 31" fill="none" xmlns="http://www.w3.org/2000/svg">
<g filter="url(#filter0_d_301_102897)">
<path d="M16.0625 12.6719V16.5C16.0625 18.25 15.8854 19.7448 15.5312 20.9844C15.1771 22.224 14.6667 23.2396 14 24.0312C13.3333 24.8125 12.5365 25.3906 11.6094 25.7656C10.6823 26.1302 9.65104 26.3125 8.51562 26.3125C7.60938 26.3125 6.76562 26.1979 5.98438 25.9688C5.20312 25.7292 4.5 25.3646 3.875 24.875C3.26042 24.375 2.72917 23.7396 2.28125 22.9688C1.84375 22.1979 1.50521 21.276 1.26562 20.2031C1.03646 19.1302 0.921875 17.8958 0.921875 16.5V12.6719C0.921875 10.9219 1.09896 9.43229 1.45312 8.20312C1.81771 6.97396 2.33333 5.96875 3 5.1875C3.66667 4.40625 4.46354 3.83854 5.39062 3.48438C6.31771 3.11979 7.34896 2.9375 8.48438 2.9375C9.40104 2.9375 10.2448 3.05208 11.0156 3.28125C11.7969 3.51042 12.4948 3.86979 13.1094 4.35938C13.7344 4.83854 14.2656 5.46354 14.7031 6.23438C15.1406 6.99479 15.474 7.91146 15.7031 8.98438C15.9427 10.0469 16.0625 11.276 16.0625 12.6719ZM11.9375 17.0625V12.0938C11.9375 11.2188 11.8854 10.4583 11.7812 9.8125C11.6875 9.15625 11.5469 8.59896 11.3594 8.14062C11.1719 7.68229 10.9375 7.3125 10.6562 7.03125C10.375 6.73958 10.0521 6.52604 9.6875 6.39062C9.32292 6.25521 8.92188 6.1875 8.48438 6.1875C7.94271 6.1875 7.45833 6.29688 7.03125 6.51562C6.60417 6.72396 6.24479 7.05729 5.95312 7.51562C5.66146 7.97396 5.4375 8.58333 5.28125 9.34375C5.13542 10.0938 5.0625 11.0104 5.0625 12.0938V17.0625C5.0625 17.9375 5.10938 18.7031 5.20312 19.3594C5.30729 20.0156 5.45312 20.5781 5.64062 21.0469C5.83854 21.5156 6.07292 21.901 6.34375 22.2031C6.625 22.4948 6.94792 22.7135 7.3125 22.8594C7.67708 22.9948 8.07812 23.0625 8.51562 23.0625C9.06771 23.0625 9.55208 22.9531 9.96875 22.7344C10.3958 22.5156 10.7552 22.1719 11.0469 21.7031C11.3385 21.224 11.5573 20.6042 11.7031 19.8438C11.8594 19.0729 11.9375 18.1458 11.9375 17.0625Z" fill="white"/>
</g>
<defs>
<filter id="filter0_d_301_102897" x="0.921875" y="1.9375" width="15.1406" height="24.375" filterUnits="userSpaceOnUse" color-interpolation-filters="sRGB">
<feFlood flood-opacity="0" result="BackgroundImageFix"/>
<feColorMatrix in="SourceAlpha" type="matrix" values="0 0 0 0 0 0 0 0 0 0 0 0 0 0 0 0 0 0 127 0" result="hardAlpha"/>
<feOffset dy="-1"/>
<feColorMatrix type="matrix" values="0 0 0 0 0 0 0 0 0 0 0 0 0 0 0 0 0 0 0.25 0"/>
<feBlend mode="normal" in2="BackgroundImageFix" result="effect1_dropShadow_301_102897"/>
<feBlend mode="normal" in="SourceGraphic" in2="effect1_dropShadow_301_102897" result="shape"/>
</filter>
</defs>
</svg>
