<svg width="25" height="24" viewBox="0 0 25 24" fill="none" xmlns="http://www.w3.org/2000/svg">
<path d="M22.7374 9.04536C23.2537 8.90382 23.7913 9.20762 23.8898 9.73383C24.2756 11.7961 24.0998 13.931 23.3722 15.9116C22.6445 17.8921 21.396 19.6326 19.7667 20.9545C19.351 21.2918 18.7452 21.1751 18.4435 20.7329C18.1417 20.2905 18.2589 19.6903 18.6691 19.3461C19.9673 18.2567 20.9636 16.8439 21.5519 15.2426C22.1402 13.6413 22.296 11.9193 22.0119 10.2485C21.9221 9.7206 22.2211 9.18713 22.7374 9.04536ZM12.4054 3.70454C16.922 3.70472 20.5831 7.36566 20.5831 11.8823C20.5831 16.3989 16.922 20.0608 12.4054 20.061C7.88861 20.061 4.22669 16.3991 4.22669 11.8823C4.22678 7.36555 7.88867 3.70454 12.4054 3.70454ZM1.76966 13.1918C2.30109 13.1264 2.78064 13.5055 2.89857 14.0278C3.16952 15.2281 3.66498 16.3665 4.35951 17.3823C4.66175 17.8243 4.61399 18.4341 4.20423 18.7788C3.79444 19.1234 3.17879 19.0721 2.86927 18.6352C1.9414 17.3252 1.29353 15.8376 0.965953 14.2661C0.856881 13.742 1.23834 13.2573 1.76966 13.1918ZM10.4943 9.57172L5.53529 10.0024L9.28919 13.2563L8.17005 18.0942L12.422 15.5288L16.6749 18.0942L15.5558 13.2563L19.3097 10.0024L14.3507 9.57172L12.422 5.00922L10.4943 9.57172ZM17.9913 2.73969C18.2705 2.28275 18.8706 2.13554 19.3029 2.45161C20.6131 3.40974 21.7094 4.63123 22.5216 6.03657C22.7892 6.50009 22.5789 7.08047 22.0949 7.30903C21.6106 7.53763 21.0364 7.32673 20.7609 6.86762C20.1199 5.79981 19.2803 4.86437 18.2872 4.11274C17.8603 3.78959 17.7122 3.19663 17.9913 2.73969Z" fill="white"/>
<path d="M10.1494 22.355C10.0366 22.8785 9.51927 23.2154 9.00695 23.0596C7.47095 22.5927 6.04744 21.8141 4.8257 20.7726C4.4182 20.4252 4.42278 19.8079 4.80273 19.4306V19.4306C5.18269 19.0533 5.79378 19.0597 6.20696 19.4003C7.15655 20.1831 8.246 20.779 9.41737 21.1563C9.92704 21.3205 10.2621 21.8316 10.1494 22.355V22.355Z" fill="white"/>
<path d="M17.6384 21.2301C17.8999 21.6973 17.7346 22.2921 17.2473 22.514C15.7862 23.1794 14.2035 23.5366 12.5983 23.5631C12.0629 23.572 11.6581 23.1058 11.6937 22.5715V22.5715C11.7292 22.0372 12.1919 21.638 12.7271 21.6203C13.9571 21.5796 15.1684 21.3063 16.2966 20.8148C16.7875 20.601 17.3768 20.7628 17.6384 21.2301V21.2301Z" fill="white"/>
<path d="M17.0604 2.23108C17.293 1.74878 17.0917 1.16512 16.5918 0.973284C15.0762 0.391711 13.4559 0.132318 11.8345 0.211734C11.2997 0.23793 10.9263 0.729583 10.9967 1.26039V1.26039C11.0672 1.79121 11.555 2.15932 12.0902 2.14196C13.335 2.10158 14.5763 2.30028 15.7464 2.72725C16.2494 2.91081 16.8277 2.71337 17.0604 2.23108V2.23108Z" fill="white"/>
<path d="M3.38446 6.10209C2.93357 5.81326 2.32998 5.94302 2.07952 6.4163C1.32022 7.85106 0.868197 9.42858 0.752413 11.0477C0.714219 11.5818 1.15749 12.0116 1.69292 12.0054V12.0054C2.22835 11.9992 2.65236 11.559 2.69936 11.0256C2.80871 9.78493 3.15498 8.57649 3.71932 7.46614C3.96193 6.98879 3.83535 6.39092 3.38446 6.10209V6.10209Z" fill="white"/>
<path d="M9.05634 1.70441C8.88893 1.19579 8.33886 0.915453 7.84586 1.12445C6.35133 1.75803 5.00501 2.69628 3.89321 3.87906C3.52647 4.26921 3.59904 4.88232 4.01825 5.21546V5.21546C4.43746 5.5486 5.04412 5.47487 5.41726 5.09083C6.2852 4.19751 7.31654 3.47877 8.45509 2.97376C8.94456 2.75665 9.22376 2.21303 9.05634 1.70441V1.70441Z" fill="white"/>
</svg>
