<svg width="478" height="478" viewBox="0 0 478 478" fill="none" xmlns="http://www.w3.org/2000/svg">
<path d="M321.692 354.769V420.923C321.692 429.696 318.207 438.109 312.004 444.312C305.801 450.515 297.388 454 288.615 454H57.0769C48.3044 454 39.8911 450.515 33.688 444.312C27.4849 438.109 24 429.696 24 420.923V57.0769C24 48.3044 27.4849 39.8911 33.688 33.688C39.8911 27.4849 48.3044 24 57.0769 24H288.615C297.388 24 305.801 27.4849 312.004 33.688C318.207 39.8911 321.692 48.3044 321.692 57.0769V123.231M222.462 239H454M454 239L387.846 172.846M454 239L387.846 305.154" stroke="white" stroke-width="29.0714" stroke-linecap="round" stroke-linejoin="round"/>
</svg>
