<svg width="184" height="184" viewBox="0 0 184 184" fill="none" xmlns="http://www.w3.org/2000/svg">
<rect x="1" y="1" width="182" height="182" rx="13" stroke="black" stroke-opacity="0.25" stroke-width="2"/>
<rect x="2.5" y="2.5" width="179" height="179" rx="11.5" fill="#E9E9E9" stroke="url(#paint0_linear_324_104539)"/>
<rect x="41.0449" y="30.5" width="101.909" height="123" rx="1.5" fill="#D7D5D7" stroke="#CDCFD6"/>
<g clip-path="url(#clip0_324_104539)">
<path d="M131.378 71.1081V34.8307C122.322 32.9144 113.079 31.9596 103.81 31.9833C93.112 31.7974 82.4602 33.3938 72.3184 36.7028C64.7941 39.33 60.4806 42.4606 59.54 44.4113C59.395 44.6177 59.3174 44.8617 59.3174 45.1114C59.3174 45.3612 59.395 45.6051 59.54 45.8115C61.3914 48.394 63.0966 51.0724 64.6481 53.8346L64.7454 54.0077H64.5508C62.7346 53.6616 59.2643 53.7875 56.2806 58.3811C53.9277 61.8509 52.6811 65.9165 52.6968 70.0698C52.6968 70.2585 53.5724 74.8994 51.0751 76.7557C50.54 77.149 50.3454 77.5109 50.4914 77.8098C50.9454 78.7379 54.0589 79.0368 55.3562 78.7851H55.6643C62.3292 77.5738 67.0968 71.8789 69.8049 61.8893V61.6848L69.9022 61.8735C71.3941 64.4693 72.4481 66.3571 72.4643 66.3728L73.1454 70.7777C73.1027 72.5621 73.1569 74.3475 73.3076 76.1265H73.2103C73.0319 76.3467 68.8157 81.6483 69.0103 94.2494C69.144 98.916 69.7523 103.558 70.8265 108.109C71.2842 110.021 71.6093 111.96 71.7995 113.914V114.307L71.6049 113.961C71.1793 113.162 70.5274 112.498 69.7259 112.047C68.9244 111.595 68.0066 111.375 67.0806 111.413C66.2608 111.377 65.4434 111.522 64.6904 111.838C63.9373 112.155 63.2685 112.633 62.7346 113.238C62.1002 114.001 61.6298 114.881 61.3513 115.824C61.0728 116.767 60.9918 117.754 61.113 118.728C61.3919 120.32 62.2775 121.752 63.5941 122.74L63.7076 122.834H63.5616L14.6211 143.789V165.278C14.6211 166.53 15.2799 167.506 16.135 168.547C17.1549 169.39 18.1957 169.998 19.486 169.998H126.513C127.803 169.998 128.831 169.316 129.82 168.516C130.624 167.5 131.378 164.943 131.378 163.692V73.2004C131.216 72.5239 131.037 71.8475 130.827 71.1867V71.0609H130.956L131.378 71.1081Z" fill="#E7E7E7"/>
<path d="M129.756 70.0469L131.377 73.22V70.0469H129.756Z" fill="#F4C900"/>
<path d="M96.5292 102.211C96.66 101.899 96.685 101.554 96.6004 101.227C96.5158 100.9 96.326 100.608 96.0589 100.393C95.6535 99.8559 96.0589 98.8127 96.0589 98.6388C96.1902 99.038 96.3473 99.4287 96.5292 99.8085C96.6589 100.03 97.8103 100.836 97.7292 101.832C97.6481 102.828 96.1076 103.586 95.8968 103.65C95.686 103.713 96.2049 103.096 96.5292 102.211ZM108.967 84.681C108.967 84.681 109.064 85.2026 108.756 85.1394C108.436 84.9246 108.063 84.7968 107.676 84.769C107.288 84.7412 106.9 84.8145 106.551 84.9813C105.108 85.5188 102.951 87.4156 99.1887 86.815C97.133 86.4783 95.185 85.6831 93.4968 84.4913C93.2535 84.4913 93.1562 84.3332 93.14 84.2226C92.7346 84.0487 93.7238 83.2109 93.7238 83.2109C94.1992 82.4824 94.8338 81.8652 95.5823 81.4034C96.3308 80.9416 97.1746 80.6466 98.0535 80.5395C100.04 80.6381 101.984 81.1388 103.762 82.0096C104.589 82.3257 106.908 83.5903 108.172 84.2384C108.446 84.3705 108.711 84.5183 108.967 84.681ZM96.4157 85.171C95.8288 84.5355 95.4701 83.7309 95.3941 82.879L94.8751 83.3058C94.8751 83.3058 94.4049 83.78 95.6211 84.681C95.8701 84.8676 96.1361 85.0316 96.4157 85.171ZM102.999 82.547C102.588 82.3684 102.166 82.2152 101.735 82.0886C101.743 82.2255 101.743 82.3627 101.735 82.4996C101.651 83.0076 101.386 83.4705 100.986 83.8064C100.586 84.1423 100.077 84.3296 99.5497 84.3353C99.0219 84.341 98.509 84.1646 98.1017 83.8374C97.6944 83.5102 97.4189 83.0531 97.3238 82.547C97.3069 82.3735 97.3069 82.1989 97.3238 82.0254C96.8776 82.1362 96.4472 82.3008 96.0427 82.5154C96.0427 83.4126 96.4083 84.273 97.0591 84.9074C97.7099 85.5418 98.5926 85.8982 99.513 85.8982C100.433 85.8982 101.316 85.5418 101.967 84.9074C102.618 84.273 102.983 83.4126 102.983 82.5154L102.999 82.547ZM106.243 84.2384H106.097C105.352 83.7109 104.56 83.2506 103.729 82.8632C103.642 83.832 103.205 84.7394 102.497 85.4239C102.497 85.4239 105.659 85.171 106.194 84.2384H106.243ZM98.8481 88.3325C98.9216 88.3427 98.9965 88.3304 99.0625 88.2971C99.1284 88.2639 99.1821 88.2114 99.216 88.1471C99.2499 88.0827 99.2624 88.0096 99.2517 87.938C99.241 87.8664 99.2076 87.7998 99.1562 87.7476C98.9831 87.5963 98.7561 87.5169 98.5238 87.5263C97.7369 87.4765 96.9614 87.3168 96.2211 87.0521C95.5887 86.8466 95.767 87.3524 96.0103 87.5579C96.5687 87.8552 97.1792 88.0482 97.8103 88.127C98.1445 88.1732 98.475 88.2419 98.7995 88.3325H98.8481ZM56.086 163.875L56.2643 164.286L56.4265 164.191V164.302L56.6697 163.923C57.5235 162.581 57.988 161.039 58.0137 159.461C58.0394 157.883 57.6253 156.327 56.8157 154.96L56.7346 155.055L56.4265 154.644L56.2157 154.976C55.3724 156.288 54.1562 159.275 56.086 163.875ZM125.945 46.1904L125.183 51.391C125.127 51.7557 124.755 52.503 124.98 52.7994C125.205 53.0958 126.012 53.798 126.386 53.8527C127.716 54.0529 129.067 54.3414 130.364 54.5838C130.732 54.6407 131.067 54.783 131.378 54.5838V70.5968H130.924C131.102 71.15 131.232 71.6292 131.378 72.1983V165.124C131.378 166.382 130.865 167.588 129.953 168.477C129.041 169.367 127.772 170.004 126.481 170.004H111.127C111.54 161.559 111.169 152.956 110.021 144.575L107.994 145.381C107.994 145.381 109.209 160.498 108.853 169.998H71.472C71.472 169.556 71.5076 168.965 71.167 168.918C70.5508 168.839 68.7346 169.218 68.4265 166.626C68.1909 165.256 68.3948 163.848 69.0103 162.595C68.9268 161.799 68.6169 161.041 68.1156 160.407C67.6142 159.773 66.9412 159.288 66.1724 159.007C65.4692 162.748 66.3067 166.805 68.4265 169.998H58.3035C58.2004 168.586 57.8048 167.006 57.2211 165.709C58.6104 163.995 59.4165 161.901 59.5269 159.719C59.6374 157.537 59.0467 155.376 57.8373 153.537C59.0047 151.673 59.5477 149.502 59.3908 147.323C59.2339 145.145 58.3848 143.068 56.9616 141.382C57.9776 139.245 58.2294 136.838 57.6768 134.546C57.1241 132.253 55.7989 130.208 53.913 128.736L53.313 128.388L52.8589 129.036C52.6968 129.257 49.0319 134.616 54.7238 141.492C53.6697 143.073 51.8535 147.388 55.6157 153.348C54.367 154.833 52.0481 158.801 55.0481 165.219C53.7085 166.503 52.8205 168.196 52.4822 169.998H35.9682H19.4606C18.1704 169.998 16.9583 169.461 16.046 168.572C15.1336 167.683 14.6211 166.477 14.6211 165.219V142.615L62.2157 122.239C61.2679 121.198 60.6288 119.924 60.367 118.556C60.2188 117.465 60.296 116.356 60.594 115.295C60.892 114.233 61.4048 113.241 62.1022 112.375C63.1936 111.222 64.6686 110.484 66.2656 110.29C67.8625 110.096 69.4783 110.46 70.8265 111.316C70.6481 110.257 70.4049 109.103 70.1454 107.854C69.0657 103.229 68.4466 98.5119 68.2968 93.7702C68.1346 82.057 71.7022 76.3822 72.5292 75.2599C72.3995 73.9163 72.3833 71.7665 72.3995 70.1383L71.7346 65.8862L70.113 63.0093C67.2427 72.3355 62.4427 77.6626 55.8265 78.8955H55.5346C54.1724 79.1801 50.5076 78.8955 49.8103 77.4729C49.6157 77.0777 49.486 76.2874 50.6373 75.418C52.3562 74.1218 52.1454 70.6758 51.9022 69.4902V69.4112C51.8677 65.0888 53.1611 60.8553 55.6157 57.2554C58.2103 53.2404 61.2589 52.4026 63.2535 52.371C61.9458 50.0208 60.5002 47.7461 58.9238 45.5581C58.6693 45.2387 58.5206 44.8514 58.4974 44.4476C58.4742 44.0438 58.5777 43.6427 58.7941 43.2977C60.886 38.9349 76.713 30.3831 103.81 30.3831C113.077 30.3623 122.319 31.3109 131.378 33.2126V45.7548C130.145 45.4703 128.893 45.2181 127.628 44.9494C127.435 44.9108 127.126 44.8243 126.975 44.9184C126.782 44.9579 126.703 45.1236 126.541 45.2347C126.38 45.3458 126.244 45.4879 126.142 45.6523C126.039 45.8167 125.972 45.9998 125.945 46.1904ZM66.513 135.359C66.8399 135.568 67.2058 135.712 67.5899 135.782C67.9739 135.853 68.3684 135.848 68.7508 135.77C68.8726 135.761 68.9914 135.729 69.1001 135.675C69.2088 135.62 69.3051 135.545 69.3833 135.454C69.6914 134.948 69.3833 133.304 68.767 133.478C68.1508 133.652 66.6103 134.695 65.3616 132.419C64.6245 131.232 64.2845 129.851 64.3887 128.467C64.0086 127.765 63.4318 127.183 62.7256 126.789C62.0194 126.394 61.2127 126.203 60.3995 126.238C61.1463 129.936 63.3384 133.207 66.513 135.359ZM68.6373 146.74C69.2425 147.238 70.0195 147.492 70.8103 147.452C71.0222 147.428 71.221 147.339 71.3779 147.199C71.7346 146.74 71.6211 145.08 71.0049 145.159C70.6906 145.315 70.3431 145.397 69.9904 145.399C69.6377 145.4 69.2896 145.32 68.9742 145.167C68.6587 145.013 68.3846 144.789 68.1741 144.513C67.9635 144.238 67.8222 143.917 67.7616 143.579C67.1961 142.311 67.0378 140.905 67.3076 139.548C67.0263 138.803 66.5344 138.151 65.8887 137.667C65.243 137.183 64.4699 136.887 63.6589 136.813C63.8946 140.62 65.653 144.184 68.5562 146.74H68.6373ZM71.9616 157.062C71.3292 157.062 69.5779 157.695 68.9454 155.15C68.5247 153.827 68.5247 152.41 68.9454 151.087C68.761 150.318 68.3596 149.614 67.7865 149.055C67.2134 148.497 66.4914 148.105 65.7022 147.926C65.4611 151.718 66.7402 155.452 69.2697 158.343C69.7972 158.921 70.5372 159.273 71.3292 159.323C71.4504 159.343 71.5745 159.339 71.6942 159.312C71.8139 159.285 71.9269 159.235 72.0265 159.165C72.3995 158.738 72.4968 157.062 71.8806 157.062H71.9616ZM126.854 156.398L129.059 153.98L128.297 135.754L125.767 137.335C125.67 137.73 126.772 156.398 126.772 156.398H126.854ZM99.286 44.5538L100.053 50.4961C100.094 50.8425 100.355 51.1626 100.625 51.391C100.895 51.6193 101.387 51.5899 101.745 51.5797C102.864 51.5797 103.973 51.4982 105.092 51.4982C105.437 51.5009 105.657 51.2729 105.917 51.0515C106.177 50.8301 106.345 50.5234 106.389 50.1896L107.264 44.2145C107.292 44.0192 107.277 43.8204 107.219 43.6313C107.162 43.4422 107.064 43.2671 106.933 43.1177C106.801 42.9682 106.638 42.8477 106.455 42.7643C106.271 42.6809 106.12 42.4941 105.917 42.4914C104.182 42.4914 102.562 42.4914 100.875 42.4914C100.667 42.4849 100.399 42.4819 100.208 42.5613C100.017 42.6408 99.6788 42.6747 99.5623 43.0039C99.4233 43.1544 99.2683 43.4377 99.2074 43.6313C99.1464 43.8249 99.2575 44.0139 99.286 44.2145V44.5538ZM76.34 48.6879C77.0049 49.9209 77.9616 51.5806 78.5941 52.7504C78.7379 53.003 78.9588 53.2056 79.2261 53.3303C79.4935 53.4549 79.7894 53.6233 80.0814 53.5738C80.4525 53.5155 80.9303 53.306 81.1519 53.01C81.3736 52.7141 81.474 52.1704 81.418 51.8081L80.8162 47.0187C80.7877 46.8173 80.6689 46.4466 80.5565 46.2753C80.444 46.1039 80.1874 45.9681 80.0117 45.8584C79.836 45.7487 79.6122 45.839 79.4055 45.8111C79.1988 45.7832 78.9883 45.7994 78.7887 45.8584C78.0914 46.0797 77.4103 46.301 76.7454 46.5381C76.3887 46.712 75.5616 47.2495 76.34 48.6879ZM99.8697 122.871C103.616 121.401 109.34 118.777 111.221 117.892C110.893 116.74 110.756 115.545 110.816 114.351V114.161C110.816 113.118 111.156 111 111.61 107.839C112.786 101.319 113.485 94.7269 113.702 88.1112C113.47 81.7101 112.092 75.3977 109.632 69.4586C88.5508 69.0634 77.1995 71.1816 74.2481 71.8613C74.379 73.1491 74.379 74.4463 74.2481 75.7341C74.2866 75.8524 74.2866 75.9794 74.2481 76.0977C74.0697 77.1093 74.2481 77.6784 75.0914 76.7616C77.2968 74.4537 79.1454 74.5486 82.2427 76.5561C85.34 78.5636 86.6373 83.1161 86.6373 83.1161C86.8169 84.7765 86.8169 86.4507 86.6373 88.1112C86.3292 90.6087 84.2535 97.7852 85.0157 100.662C85.3478 101.116 85.7729 101.499 86.2643 101.784C87.14 102.322 89.5076 104.25 87.886 105.863C87.9434 105.314 87.8659 104.759 87.6601 104.245C87.4543 103.731 87.1259 103.273 86.7022 102.907C85.3076 102.006 84.5292 101.784 84.0752 100.567C83.2643 98.3701 85.0806 92.221 85.5508 90.0238C86.1796 87.5484 86.3227 84.9794 85.9724 82.4522C85.3 80.7754 84.1216 79.3369 82.5929 78.3265C81.0643 77.3162 79.2572 76.7815 77.4103 76.7932C74.4265 76.9355 74.0697 78.1368 74.3616 79.2117C74.4041 79.3545 74.4775 79.4867 74.5767 79.5996C74.6759 79.7125 74.7987 79.8034 74.9369 79.8663C75.0751 79.9292 75.2255 79.9625 75.378 79.9641C75.5305 79.9657 75.6815 79.9355 75.8211 79.8756C76.1482 79.7217 76.4987 79.6202 76.8589 79.5753C78.8659 79.3046 80.9088 79.6762 82.6806 80.6343C83.2087 80.9852 83.5843 81.5147 83.7346 82.1202C82.0878 80.957 80.1237 80.2968 78.0914 80.2234C75.513 80.2234 75.3833 81.567 75.3833 81.8041C76.0779 81.5517 76.815 81.4283 77.5562 81.4405C79.7791 81.5978 81.9053 82.3894 83.6697 83.7168C84.2039 84.0367 84.6582 84.4687 84.9995 84.9813C85.1941 85.2975 84.8373 85.8349 84.4968 86.1353C82.6609 87.026 80.6276 87.4604 78.5778 87.3998C77.5644 87.4449 76.5515 87.3001 75.5941 86.973C75.4806 88.9964 75.2211 93.5489 75.0103 95.9357C74.703 99.6957 75.2569 103.475 76.6319 107.001C76.6991 107.074 76.7489 107.16 76.7779 107.254C76.7779 107.254 76.7779 107.364 76.7779 107.491C77.4337 109.091 78.2144 110.639 79.113 112.122C82.1074 117.044 86.3664 121.119 91.4697 123.946C92.1833 124.262 94.7454 124.863 99.8697 122.871ZM75.886 83.2583C75.886 83.2583 75.886 83.1793 75.886 83.1477C75.5898 83.2174 75.2976 83.3018 75.0103 83.4006V83.5745C75.1592 84.2892 75.5569 84.9317 76.1362 85.3932C76.7154 85.8547 77.4405 86.1068 78.1887 86.1068C78.9368 86.1068 79.6619 85.8547 80.2412 85.3932C80.8204 84.9317 81.2182 84.2892 81.367 83.5745C80.9969 83.4213 80.6178 83.2894 80.2319 83.1793C80.2398 83.2264 80.2398 83.2745 80.2319 83.3216C80.2319 83.8875 80.0013 84.4303 79.5907 84.8305C79.1802 85.2307 78.6233 85.4555 78.0427 85.4555C77.4621 85.4555 76.9053 85.2307 76.4947 84.8305C76.0842 84.4303 75.8535 83.8875 75.8535 83.3216L75.886 83.2583ZM80.2643 86.7043L81.3833 86.5621C82.3851 86.4601 83.3277 86.0505 84.0752 85.3923C83.4743 84.7607 82.7736 84.227 81.9995 83.8116C81.9605 84.392 81.7834 84.9555 81.4822 85.4576C81.181 85.9597 80.7641 86.3865 80.2643 86.7043ZM116.686 122.571C115.586 122.449 114.538 122.046 113.649 121.402C112.761 120.758 112.063 119.896 111.626 118.904C109.616 119.836 103.989 122.429 100.275 123.867L99.8211 124.041C101.423 125.588 103.332 126.798 105.432 127.598C105.432 127.598 113.54 124.752 116.686 122.571ZM96.3184 110.51C95.2806 110.178 93.6265 107.728 92.0049 107.491C91.5477 107.409 91.0768 107.44 90.635 107.581C90.1932 107.722 89.7945 107.968 89.4751 108.297C88.7789 107.761 87.9137 107.476 87.0265 107.491C85.4049 107.491 84.6589 110.241 83.3779 110.478C83.0144 110.526 82.6457 110.439 82.3452 110.234C82.0447 110.029 81.8344 109.721 81.7562 109.372C81.886 111.696 83.5076 111.506 83.5076 111.506C84.6275 111.023 85.7887 110.637 86.9778 110.352C87.4626 110.283 87.9575 110.342 88.4109 110.523C88.8644 110.703 89.2599 110.999 89.5562 111.379C89.686 111.379 91.34 110.241 92.5076 110.32C93.6751 110.399 95.3616 111.585 97.3724 111.49C99.3833 111.395 99.4643 109.245 99.4643 109.245C99.32 109.61 99.1115 109.947 98.8481 110.241C98.487 110.497 98.0636 110.656 97.6199 110.703C97.1762 110.751 96.7275 110.684 96.3184 110.51ZM93.9346 80.824C94.5406 80.2552 95.2576 79.811 96.0432 79.5177C96.8288 79.2244 97.6669 79.0881 98.5076 79.1169C101.751 79.1169 107.751 83.1003 107.962 83.1319C108.172 83.1635 107.654 82.2941 107.345 82.057C105.089 80.3246 102.471 79.0945 99.6751 78.4529C97.8311 78.1052 95.9587 77.92 94.0806 77.8997C93.3833 77.8997 95.0373 78.9114 95.313 78.9746C95.5887 79.0378 93.7238 79.7175 93.9346 80.824ZM55.8265 140.117L55.9076 140.212L56.0373 139.801C56.5481 138.306 56.6307 136.703 56.2764 135.166C55.9221 133.628 55.1442 132.214 54.0265 131.075L53.54 130.633L53.3454 131.217C52.8103 132.798 52.3562 135.96 55.34 139.911L55.6157 140.275L55.8265 140.117ZM56.8192 169.998C56.7421 169.014 56.4879 167.914 56.1346 166.989L56.0535 167.084L55.8103 166.626L55.5508 166.926C54.8208 167.797 54.3153 168.903 54.0531 169.998H56.8192ZM56.7833 152.257L56.9454 152.13V152.241L57.14 151.83C57.8268 150.401 58.102 148.816 57.9364 147.246C57.7707 145.675 57.1704 144.178 56.1995 142.915V143.025L55.7454 142.615L55.567 142.978C54.8373 144.448 53.9454 147.562 56.4751 151.862L56.7833 152.257ZM92.7995 102.132C94.1616 102.859 94.113 103.428 94.0481 103.586L94.1292 103.492C94.3094 103.277 94.4285 103.02 94.4746 102.747C94.5208 102.473 94.4923 102.193 94.3921 101.933C94.2919 101.674 94.1234 101.445 93.9037 101.269C93.6839 101.093 93.4205 100.976 93.14 100.931C92.6198 100.788 92.0751 100.751 91.5396 100.822C91.0041 100.893 90.4892 101.07 90.0265 101.342C90.0265 101.342 90.7238 101.026 92.7995 102.132ZM94.0806 76.4296C96.3508 76.3348 98.1346 75.0386 100.437 75.3073C103.465 75.9976 106.403 77.0211 109.194 78.3581C109.826 78.7691 109.648 77.6784 108.772 77.0619C107.897 76.4454 101.816 73.4737 101.264 73.1575C100.713 72.8414 100.162 72.6991 98.5562 73.3314C96.698 73.9884 94.765 74.4236 92.7995 74.6276C92.468 74.5944 92.1334 74.6433 91.8265 74.7699C91.8265 74.7699 91.7778 76.5245 94.0806 76.4296ZM91.3887 113.087C92.1508 112.818 91.5995 112.597 91.5995 112.597C90.7332 112.712 89.8549 112.712 88.9887 112.597C87.0265 112.454 87.2373 111.506 87.2373 111.506C87.1249 111.652 87.0509 111.823 87.0217 112.004C86.9925 112.184 87.009 112.369 87.0698 112.542C87.1305 112.715 87.2336 112.871 87.3702 112.996C87.5068 113.121 87.6727 113.212 87.8535 113.26C89.0257 113.523 90.2496 113.463 91.3887 113.087ZM91.7941 114.241C90.8673 114.413 89.9155 114.413 88.9887 114.241C89.2112 114.518 89.5012 114.737 89.8325 114.878C90.1638 115.019 90.5259 115.077 90.886 115.047C92.3616 115.11 93.14 113.94 91.7941 114.241ZM84.2373 87.3682C83.1987 87.8018 82.1095 88.1097 80.9941 88.2851C79.3724 88.4905 80.9941 88.8857 82.2265 88.7118C83.4589 88.538 84.0427 88.1902 84.2373 87.4156V87.3682Z" fill="#24242E"/>
<path d="M131.377 128.747V124.541C131.076 124.208 130.707 123.941 130.295 123.757C129.883 123.573 129.436 123.477 128.983 123.474C128.125 123.474 127.302 123.809 126.695 124.407C126.089 125.004 125.748 125.815 125.748 126.66C125.748 127.505 126.089 128.315 126.695 128.913C127.302 129.51 128.125 129.846 128.983 129.846C129.438 129.839 129.887 129.737 130.299 129.548C130.712 129.358 131.079 129.085 131.377 128.747ZM128.983 128.428C128.625 128.428 128.274 128.323 127.977 128.127C127.679 127.931 127.446 127.653 127.309 127.327C127.172 127.001 127.136 126.642 127.206 126.296C127.276 125.95 127.449 125.632 127.702 125.382C127.955 125.133 128.278 124.963 128.63 124.894C128.981 124.825 129.345 124.86 129.676 124.995C130.007 125.13 130.29 125.359 130.489 125.653C130.688 125.946 130.795 126.291 130.795 126.644C130.795 127.117 130.604 127.571 130.264 127.905C129.924 128.24 129.464 128.428 128.983 128.428ZM125.958 45.7331L125.198 50.9742C125.142 51.3418 125.237 51.716 125.462 52.0147C125.686 52.3135 126.022 52.5122 126.395 52.5672C127.721 52.769 129.032 52.9921 130.326 53.2363C130.692 53.2937 131.067 53.2141 131.377 53.0133V56.0401C128.352 55.4347 125.263 54.925 122.092 54.5426L124.001 41.2885C126.67 41.7345 129.129 42.2443 131.377 42.77V45.3189C130.148 45.0321 128.935 44.7295 127.673 44.4587C127.474 44.4198 127.269 44.4228 127.071 44.4675C126.873 44.5121 126.688 44.5974 126.526 44.7177C126.364 44.8381 126.23 44.9907 126.132 45.1657C126.034 45.3407 125.975 45.534 125.958 45.7331ZM131.377 151.766L130.665 152.371L130.099 135.421L131.377 134.752V151.766ZM96.2595 39.8229L98.0711 53.6983C101.565 53.5231 105.027 53.4753 108.424 53.539L110.349 39.7432C105.655 39.4929 100.95 39.5195 96.2595 39.8229ZM107.243 43.7259L106.369 49.7476C106.326 50.084 106.158 50.393 105.899 50.6161C105.64 50.8393 105.306 50.961 104.962 50.9583C103.846 50.9583 102.73 50.9583 101.614 50.9583C101.257 50.9685 100.909 50.8465 100.64 50.6164C100.37 50.3863 100.198 50.0648 100.158 49.7157L99.3652 43.6781C99.3378 43.4825 99.3527 43.2835 99.4087 43.0941C99.4648 42.9046 99.5609 42.7289 99.6907 42.5785C99.8205 42.4282 99.9811 42.3065 100.162 42.2214C100.343 42.1364 100.54 42.0899 100.74 42.085C102.358 42.085 104.121 42.085 105.852 42.085C106.058 42.0867 106.262 42.1325 106.449 42.2195C106.635 42.3064 106.8 42.4323 106.933 42.5884C107.065 42.7445 107.161 42.9271 107.215 43.1235C107.269 43.3199 107.278 43.5255 107.243 43.7259ZM103.878 31.9692C88.398 31.9692 77.997 34.7889 71.8502 37.1306C64.4255 40.03 61.7242 42.9771 61.5139 43.8374C64.1667 47.119 73.484 63.9416 73.8883 64.6585C73.8883 64.6585 102.05 57.3782 131.377 63.7186V59.6722C127.556 58.8659 123.696 58.2544 119.811 57.8402C119.567 57.8128 119.331 57.7375 119.116 57.6187C118.902 57.4998 118.714 57.34 118.563 57.1485C118.412 56.957 118.302 56.7377 118.238 56.5036C118.175 56.2694 118.16 56.0252 118.194 55.7852L120.62 38.8671C120.698 38.3917 120.959 37.964 121.348 37.6723C121.543 37.5284 121.765 37.4247 122.001 37.3672C122.237 37.3097 122.483 37.2997 122.723 37.3377C125.877 37.8157 128.757 38.3732 131.377 38.9308V34.9004C122.349 32.928 113.126 31.945 103.878 31.9692ZM87.9774 57.6331C87.6728 58.0092 87.2323 58.2546 86.7481 58.3181C83.5129 58.7323 80.2778 59.2421 77.2691 59.9112C77.151 59.9269 77.0313 59.9269 76.9132 59.9112C76.5851 59.9099 76.2631 59.8239 75.9792 59.6618C75.6954 59.4997 75.4597 59.2671 75.2956 58.9872C73.1443 55.0843 70.0385 49.6679 67.6121 45.7331C67.3583 45.3168 67.2827 44.8183 67.4019 44.3471C67.4611 44.114 67.5676 43.895 67.7149 43.7034C67.8623 43.5118 68.0474 43.3514 68.2592 43.232C69.8887 42.3107 71.5866 41.5119 73.3384 40.8424C76.7744 39.5212 80.3191 38.4926 83.9335 37.7679C84.1818 37.7211 84.4372 37.7237 84.6844 37.7757C84.9317 37.8277 85.1659 37.9279 85.3732 38.0705C85.5757 38.2257 85.7436 38.4204 85.866 38.6424C85.9885 38.8645 86.063 39.1091 86.0849 39.3609L88.3495 56.295C88.4084 56.7718 88.2748 57.2524 87.9774 57.6331ZM111.837 55.6259C111.784 56.0749 111.562 56.4881 111.214 56.7832C110.867 57.0784 110.419 57.2339 109.96 57.2189C105.609 57.0915 101.096 57.2189 96.583 57.442H96.4697C96.0193 57.4449 95.5836 57.2839 95.2462 56.9899C94.9089 56.6959 94.6937 56.2896 94.6419 55.8489L92.3611 38.4051C92.3298 38.1628 92.348 37.9167 92.4147 37.6815C92.4814 37.4462 92.5951 37.2264 92.7493 37.0351C93.0684 36.6541 93.528 36.4135 94.0272 36.366C100.221 35.8578 106.446 35.8205 112.646 36.2545C112.895 36.2694 113.139 36.3352 113.362 36.4476C113.585 36.56 113.781 36.7166 113.94 36.9076C114.099 37.1026 114.217 37.3272 114.287 37.568C114.356 37.8089 114.376 38.0611 114.344 38.3095L111.837 55.6259ZM49.4071 169.989C50.6551 157.092 49.8444 144.418 47.0527 131.757L49.9967 130.403C52.8588 143.538 53.7334 156.605 52.5658 169.989H49.4071ZM74.7618 44.14C73.7104 44.5542 72.7237 44.9844 71.834 45.4145C73.8398 48.7599 76.1368 52.7584 77.9485 55.9764C80.0675 55.5781 82.2836 55.2117 84.5482 54.909L82.7365 41.7664C80.0249 42.3719 77.3601 43.1651 74.7618 44.14ZM80.3101 52.9814C80.0189 53.0312 79.7191 52.9905 79.4524 52.8649C79.1858 52.7393 78.9654 52.535 78.822 52.2805C78.1426 51.1016 77.2044 49.429 76.5735 48.1864C75.7971 46.7367 76.5735 46.1951 76.9941 46.0358C77.6573 45.7968 78.3367 45.5738 79.0322 45.3508C79.2314 45.2913 79.4413 45.275 79.6475 45.3031C79.8537 45.3312 80.0512 45.403 80.2265 45.5135C80.4018 45.6241 80.5506 45.7707 80.6628 45.9434C80.775 46.1161 80.8478 46.3106 80.8763 46.5137L81.5071 51.4043C81.5415 51.5958 81.5351 51.7923 81.4883 51.9812C81.4414 52.1702 81.3551 52.3474 81.2349 52.5018C81.1148 52.6561 80.9633 52.7841 80.7901 52.8776C80.617 52.9712 80.426 53.0282 80.2293 53.0452L80.3101 52.9814ZM113.745 134.944C113.745 134.313 113.556 133.697 113.2 133.173C112.845 132.65 112.34 132.241 111.748 132C111.157 131.759 110.507 131.696 109.879 131.819C109.252 131.942 108.675 132.245 108.223 132.691C107.77 133.136 107.462 133.704 107.337 134.322C107.212 134.94 107.277 135.581 107.521 136.163C107.766 136.745 108.181 137.243 108.713 137.593C109.245 137.943 109.87 138.13 110.51 138.13C111.368 138.13 112.191 137.794 112.798 137.196C113.405 136.599 113.745 135.789 113.745 134.944ZM108.731 134.944C108.728 134.59 108.831 134.244 109.028 133.948C109.226 133.653 109.507 133.421 109.838 133.284C110.169 133.146 110.534 133.109 110.886 133.176C111.239 133.243 111.563 133.411 111.818 133.66C112.073 133.909 112.247 134.227 112.318 134.574C112.389 134.92 112.355 135.28 112.218 135.607C112.081 135.934 111.849 136.213 111.551 136.41C111.253 136.607 110.902 136.712 110.543 136.712C110.065 136.712 109.607 136.526 109.267 136.195C108.928 135.864 108.735 135.414 108.731 134.944ZM113.4 169.998C113.686 161.341 113.281 153.113 112.338 144.502L124.033 138.48L124.907 159.445L117.015 169.998H113.4ZM123.03 131.009C123.03 130.379 122.841 129.763 122.485 129.239C122.13 128.715 121.624 128.306 121.033 128.065C120.442 127.824 119.792 127.761 119.164 127.884C118.537 128.007 117.96 128.31 117.508 128.756C117.055 129.201 116.747 129.769 116.622 130.387C116.497 131.005 116.561 131.646 116.806 132.228C117.051 132.81 117.466 133.308 117.998 133.658C118.53 134.008 119.155 134.195 119.795 134.195C120.22 134.187 120.639 134.096 121.028 133.928C121.418 133.76 121.77 133.519 122.064 133.217C122.358 132.915 122.59 132.559 122.744 132.169C122.899 131.779 122.974 131.363 122.966 130.945L123.03 131.009ZM118.016 131.009C118.013 130.655 118.116 130.309 118.313 130.013C118.51 129.718 118.792 129.487 119.123 129.349C119.454 129.212 119.818 129.174 120.171 129.241C120.523 129.308 120.848 129.477 121.103 129.726C121.358 129.974 121.532 130.292 121.603 130.639C121.674 130.985 121.639 131.345 121.503 131.672C121.366 131.999 121.134 132.278 120.836 132.475C120.537 132.672 120.187 132.777 119.828 132.777C119.58 132.786 119.333 132.745 119.103 132.656C118.872 132.567 118.663 132.433 118.487 132.261C118.311 132.089 118.173 131.884 118.08 131.658C117.988 131.431 117.944 131.189 117.951 130.945L118.016 131.009ZM131.377 64.9452V67.1117C122.432 65.3275 101.662 62.6034 74.503 68.1154L74.1795 66.0125C101.484 60.405 122.4 63.1451 131.377 64.9452ZM99.8343 169.991C101.339 160.321 99.3328 142.59 99.5108 142.335L106.402 145.394V145.856C107.049 152.547 107.065 164.08 107.113 169.991H99.8343ZM72.7075 161.101C72.7075 161.101 74.5192 165.88 69.9738 167.697C69.6137 166.455 69.6873 165.129 70.183 163.934C70.6787 162.738 71.5677 161.74 72.7075 161.101ZM104.008 134.944C104.008 134.313 103.818 133.697 103.462 133.173C103.107 132.65 102.602 132.241 102.011 132C101.419 131.759 100.769 131.696 100.141 131.819C99.5138 131.942 98.9373 132.245 98.4849 132.691C98.0324 133.136 97.7243 133.704 97.5995 134.322C97.4747 134.94 97.5387 135.581 97.7836 136.163C98.0285 136.745 98.4431 137.243 98.9751 137.593C99.5072 137.943 100.133 138.13 100.772 138.13C101.631 138.13 102.453 137.794 103.06 137.196C103.667 136.599 104.008 135.789 104.008 134.944ZM99.0255 134.944C99.0223 134.59 99.1258 134.244 99.3229 133.948C99.5201 133.653 99.8019 133.421 100.133 133.284C100.463 133.146 100.828 133.109 101.181 133.176C101.533 133.243 101.857 133.411 102.112 133.66C102.367 133.909 102.542 134.227 102.613 134.574C102.684 134.92 102.649 135.28 102.512 135.607C102.376 135.934 102.144 136.213 101.845 136.41C101.547 136.607 101.196 136.712 100.837 136.712C100.359 136.712 99.9011 136.526 99.5618 136.195C99.2225 135.864 99.0298 135.414 99.0255 134.944ZM66.9166 132.57C66.1135 131.535 65.6851 130.266 65.6998 128.964C65.7144 127.662 66.1713 126.402 66.9975 125.385C66.9975 125.385 70.4591 129.161 66.9166 132.57ZM72.3355 148.978C72.3355 148.978 74.7295 153.518 70.4591 155.892C69.9443 154.699 69.8493 153.37 70.1893 152.117C70.5293 150.865 71.2847 149.76 72.3355 148.978ZM70.4106 137.015C70.4106 137.015 73.3707 141.188 69.44 144.104C68.7765 142.984 68.5116 141.679 68.6874 140.395C68.8633 139.11 69.4697 137.921 70.4106 137.015ZM60.3858 169.989C61.5825 155.525 60.3942 141.348 56.9685 127.233L59.1522 126.469L59.314 127.233C62.7505 141.347 63.9497 155.523 62.7636 169.989H60.3858Z" fill="#C72F2A"/>
<path d="M123.913 119.302C124.307 118.491 124.485 117.596 124.433 116.7C124.381 115.804 124.1 114.935 123.615 114.172C123.13 113.409 122.457 112.776 121.657 112.33C120.857 111.885 119.956 111.641 119.034 111.621C119.296 111.44 119.58 111.291 119.88 111.178C120.502 110.987 121.158 110.926 121.805 111C122.453 111.074 123.077 111.28 123.637 111.605C124.249 111.988 124.758 112.509 125.12 113.124C125.483 113.738 125.688 114.429 125.719 115.137C125.847 115.926 125.747 116.735 125.427 117.471C125.108 118.207 124.584 118.842 123.913 119.302ZM121.62 101.058C121.62 100.757 121.62 100.472 121.62 100.171C121.62 98.112 121.783 95.9898 121.88 93.9468C122.271 85.9332 122.694 77.6504 119.522 70.1911L117.343 70.0802C118.757 73.53 119.671 77.1545 120.059 80.8495C120.439 85.1608 120.418 89.4968 119.994 93.8043C119.815 96.2591 119.636 98.793 119.62 101.279C119.388 104.128 119.816 106.991 120.872 109.657C121.356 109.303 121.909 109.049 122.498 108.913C121.684 106.375 121.385 103.707 121.62 101.058ZM123.572 127.585C123.831 127.585 124.079 127.485 124.262 127.307C124.445 127.128 124.548 126.887 124.548 126.635C124.548 126.383 124.445 126.141 124.262 125.963C124.079 125.785 123.831 125.685 123.572 125.685C123.313 125.685 123.065 125.785 122.882 125.963C122.699 126.141 122.596 126.383 122.596 126.635C122.596 126.887 122.699 127.128 122.882 127.307C123.065 127.485 123.313 127.585 123.572 127.585ZM95.9241 137.816C95.485 136.881 94.2978 137.436 94.005 138.307C93.7123 139.178 95.4199 141.062 95.4199 141.062C95.4199 141.062 96.4608 138.734 96.0054 137.816H95.9241ZM96.4771 129.644C96.2183 129.644 95.97 129.744 95.7871 129.922C95.6041 130.1 95.5012 130.342 95.5012 130.594C95.5012 130.718 95.5266 130.841 95.5758 130.955C95.625 131.07 95.6972 131.173 95.788 131.26C95.8788 131.347 95.9866 131.416 96.1049 131.462C96.2232 131.508 96.3497 131.531 96.4771 131.528C96.6037 131.531 96.7294 131.508 96.8468 131.462C96.9643 131.416 97.0709 131.347 97.1605 131.26C97.25 131.172 97.3206 131.069 97.368 130.954C97.4155 130.84 97.4388 130.717 97.4366 130.594C97.4416 130.357 97.3536 130.126 97.1905 129.95C97.0273 129.773 96.8013 129.664 96.5584 129.644H96.4771ZM92.9804 127.015C92.4275 126.16 91.3541 126.888 91.1427 127.807C90.9312 128.725 92.9804 130.388 92.9804 130.388C92.9804 130.388 93.6147 127.87 93.0617 127.015H92.9804ZM118.839 93.7568C119.267 89.4872 119.306 85.189 118.953 80.9129C118.559 77.1475 117.594 73.4597 116.091 69.9694L113.846 69.8902C119.376 81.9423 117.603 95.2297 115.863 108.01C115.668 109.499 115.456 111.019 115.261 112.54C115.911 112.03 116.694 111.707 117.522 111.605C117.925 110.903 118.588 110.376 119.376 110.132L119.75 110.006C118.675 107.223 118.237 104.245 118.465 101.279C118.563 98.7138 118.742 96.1957 118.92 93.741L118.839 93.7568ZM94.7043 132.352C94.2002 131.465 93.078 132.099 92.8341 133.001C92.5901 133.904 94.4604 135.646 94.4604 135.646C94.4604 135.646 95.2085 133.255 94.7043 132.352ZM95.5988 149.155C95.2573 149.995 96.6559 152.101 96.6559 152.101C96.6559 152.101 97.892 149.947 97.5667 148.934C97.2414 147.92 95.9241 148.316 95.5988 149.155ZM129.345 93.1233C129.345 94.707 129.183 96.1957 129.134 97.7161C129.134 98.3021 129.134 98.9039 129.036 99.5532C128.797 101.665 128.879 103.8 129.28 105.888C129.93 105.566 130.649 105.402 131.378 105.401C131.119 104.473 131.015 103.507 131.069 102.546V102.198C131.069 99.2523 131.216 96.069 131.378 93.1708V92.379V78.9174C131.155 76.1371 130.626 73.4378 129.768 70.7771L127.638 70.6028C130.126 77.8246 129.752 85.5848 129.345 93.1233ZM21.5624 169.981C22.5863 161.569 22.6033 153.454 21.7632 145.022C21.7712 144.885 21.7712 144.747 21.7632 144.61C21.7632 144.119 21.6656 143.628 21.6006 143.153L19.4863 144.072C20.4652 152.798 20.5279 161.254 19.5491 169.981H21.5624ZM39.5667 169.981H35.6964C34.9191 169.981 34.8981 169.999 34.4486 169.981C34.2328 169.951 34.0139 169.951 33.7981 169.981C34.0752 169.775 34.302 169.513 34.4623 169.211C34.6226 168.91 34.7123 168.578 34.7251 168.239C34.7316 167.922 34.6735 167.606 34.5542 167.311C34.4349 167.015 34.2567 166.745 34.03 166.517C33.8032 166.289 33.5323 166.107 33.233 165.981C32.9336 165.855 32.6116 165.788 32.2856 165.784C31.6291 165.749 30.9848 165.967 30.4919 166.391C29.999 166.815 29.6969 167.41 29.6509 168.049C29.6166 168.407 29.6678 168.767 29.8004 169.102C29.933 169.438 30.1435 169.738 30.4153 169.981C30.1934 169.913 29.9642 169.871 29.7322 169.854C29.0982 169.837 28.9889 169.854 28.6268 169.981H23.4873C24.602 160.679 24.618 151.742 23.5034 142.44L37.0508 136.39L39.1487 135.472C39.4577 137.547 39.783 139.906 40.0432 142.488C40.0512 142.62 40.0512 142.752 40.0432 142.884C40.9941 152.03 40.8417 160.873 39.5667 169.981ZM29.8786 149.646C30.2745 149.61 30.6566 149.486 30.9951 149.282C31.3336 149.079 31.6194 148.803 31.8302 148.474L30.4478 151.642L34.3998 151.277L32.432 148.427C32.7045 148.709 33.0395 148.927 33.4115 149.064C33.7834 149.201 34.1826 149.254 34.5787 149.219C35.2348 149.166 35.8432 148.864 36.2723 148.378C36.7014 147.892 36.9168 147.261 36.8719 146.621C36.8336 146.306 36.7316 146.001 36.5717 145.724C36.4118 145.447 36.1971 145.203 35.9401 145.007C35.683 144.811 35.3887 144.667 35.0741 144.583C34.7595 144.498 34.4309 144.475 34.1071 144.515C33.8788 144.53 33.6541 144.578 33.4403 144.658C33.6887 144.421 33.8791 144.133 33.9974 143.815C34.1157 143.497 34.1587 143.157 34.1233 142.82C34.0608 142.167 33.7344 141.565 33.2159 141.146C32.6974 140.727 32.0293 140.526 31.3586 140.587C30.6879 140.648 30.0695 140.966 29.6394 141.471C29.2094 141.976 29.0029 142.627 29.0654 143.28C29.103 143.619 29.2154 143.946 29.3951 144.238C29.5748 144.531 29.8174 144.782 30.1063 144.974C29.8792 144.951 29.6503 144.951 29.4232 144.974C28.7762 145.033 28.1797 145.34 27.7649 145.827C27.5596 146.068 27.405 146.346 27.31 146.646C27.215 146.945 27.1815 147.26 27.2114 147.572C27.2413 147.884 27.334 148.187 27.4843 148.464C27.6345 148.741 27.8393 148.986 28.0869 149.186C28.5871 149.59 29.2316 149.784 29.8786 149.725V149.646ZM37.7826 160.035C37.7784 159.717 37.7092 159.402 37.579 159.109C37.4488 158.817 37.2602 158.552 37.0242 158.331C36.7881 158.11 36.5093 157.937 36.204 157.822C35.8987 157.706 35.5729 157.651 35.2455 157.66C35.0239 157.636 34.8003 157.636 34.5787 157.66C34.8332 157.45 35.0398 157.191 35.1855 156.9C35.3311 156.608 35.4125 156.29 35.4244 155.965C35.4244 155.31 35.1571 154.682 34.6813 154.218C34.2055 153.755 33.5602 153.495 32.8873 153.495C32.2145 153.495 31.5691 153.755 31.0933 154.218C30.6175 154.682 30.3502 155.31 30.3502 155.965C30.3504 156.305 30.4278 156.64 30.5769 156.946C30.7259 157.253 30.9429 157.524 31.2122 157.739C30.8679 157.614 30.499 157.566 30.133 157.598C29.7669 157.63 29.4129 157.741 29.097 157.925C28.7812 158.108 28.5116 158.357 28.3081 158.656C28.1046 158.954 27.9725 159.292 27.9214 159.647C27.8703 160.001 27.9015 160.362 28.0128 160.704C28.1241 161.045 28.3127 161.357 28.5645 161.618C28.8163 161.879 29.1251 162.081 29.4679 162.21C29.8107 162.339 30.179 162.391 30.5454 162.363C30.9435 162.362 31.3362 162.273 31.6939 162.103C32.0516 161.933 32.3651 161.687 32.6109 161.382L30.8707 164.406H34.8389L33.2126 161.366C33.4499 161.677 33.759 161.929 34.115 162.103C34.4709 162.276 34.8638 162.365 35.2618 162.363C35.9096 162.368 36.5341 162.128 37.0041 161.694C37.4741 161.26 37.7532 160.666 37.7826 160.035ZM124.222 70.3811C127.003 77.7296 126.564 85.6323 126.125 93.3134C126.011 95.4197 125.881 97.6052 125.832 99.6482C125.655 102.134 125.919 104.63 126.613 107.028C127.144 106.745 127.722 106.558 128.321 106.474C128.284 106.427 128.256 106.373 128.239 106.316C127.752 104.051 127.648 101.724 127.93 99.4265C127.93 98.793 127.963 98.1912 128.028 97.6211C128.028 96.0374 128.158 94.4536 128.239 93.0125C128.63 85.4264 129.02 77.6029 126.385 70.4603L124.222 70.3811ZM115.912 136.581C116.039 136.583 116.166 136.56 116.284 136.514C116.402 136.468 116.51 136.399 116.601 136.313C116.692 136.226 116.764 136.122 116.813 136.007C116.862 135.893 116.888 135.77 116.888 135.646C116.888 135.394 116.785 135.152 116.602 134.974C116.419 134.796 116.171 134.696 115.912 134.696C115.653 134.696 115.405 134.796 115.222 134.974C115.039 135.152 114.936 135.394 114.936 135.646C114.936 135.77 114.961 135.893 115.011 136.007C115.06 136.122 115.132 136.226 115.223 136.313C115.314 136.399 115.421 136.468 115.54 136.514C115.658 136.56 115.784 136.583 115.912 136.581ZM114.285 130.04C114.159 130.038 114.033 130.06 113.916 130.107C113.798 130.153 113.692 130.221 113.602 130.309C113.512 130.396 113.442 130.5 113.394 130.614C113.347 130.728 113.324 130.851 113.326 130.974C113.324 131.098 113.347 131.221 113.394 131.337C113.441 131.452 113.512 131.557 113.601 131.645C113.69 131.734 113.797 131.804 113.914 131.852C114.032 131.9 114.158 131.924 114.285 131.924C114.414 131.924 114.54 131.9 114.659 131.852C114.777 131.804 114.885 131.734 114.975 131.646C115.066 131.558 115.138 131.453 115.187 131.338C115.236 131.223 115.261 131.099 115.261 130.974C115.262 130.737 115.17 130.508 115.004 130.335C114.837 130.161 114.61 130.056 114.367 130.04H114.285ZM122.726 100.203C122.726 100.488 122.726 100.789 122.726 101.074C122.484 103.609 122.76 106.166 123.539 108.596C123.581 108.458 123.674 108.34 123.799 108.264C124.349 107.93 124.964 107.709 125.605 107.614C124.798 105.053 124.484 102.368 124.678 99.6957C124.678 97.5577 124.857 95.3722 124.97 93.25C125.41 85.5373 125.849 77.5712 122.954 70.3019L120.807 70.2069C123.848 77.8404 123.442 86.0441 123.051 93.9627C122.954 96.0374 122.84 98.1437 122.807 100.203H122.726ZM122.466 119.603C122.892 118.888 123.14 118.085 123.188 117.26C123.236 116.434 123.083 115.609 122.742 114.852C122.259 114.086 121.562 113.47 120.733 113.075C119.903 112.68 118.976 112.521 118.059 112.619C117.419 112.635 116.799 112.835 116.275 113.192C115.752 113.55 115.348 114.05 115.115 114.63C115.115 114.63 115.115 114.709 115.115 114.757C115.115 115.248 114.985 115.755 114.936 116.246C115.02 117.026 115.369 117.756 115.928 118.32C116.342 118.762 116.881 119.075 117.476 119.221C118.072 119.368 118.698 119.341 119.278 119.144C119.663 119.063 120.017 118.882 120.304 118.62C120.59 118.357 120.798 118.024 120.905 117.655C120.969 117.315 120.961 116.965 120.881 116.627C120.8 116.29 120.649 115.972 120.437 115.694C120.225 115.416 119.956 115.184 119.648 115.012C119.339 114.84 118.998 114.731 118.644 114.694C118.403 114.641 118.151 114.677 117.935 114.794C117.719 114.91 117.555 115.1 117.473 115.327C117.339 115.589 117.298 115.886 117.356 116.173C117.415 116.46 117.571 116.72 117.798 116.911C117.919 116.993 118.001 117.118 118.027 117.259C118.053 117.4 118.021 117.545 117.937 117.663C117.852 117.781 117.724 117.861 117.579 117.886C117.434 117.911 117.285 117.88 117.164 117.798C116.742 117.467 116.444 117.01 116.315 116.498C116.185 115.986 116.232 115.446 116.448 114.963C116.624 114.509 116.958 114.129 117.392 113.892C117.827 113.654 118.333 113.573 118.823 113.664C119.32 113.72 119.8 113.873 120.235 114.114C120.67 114.355 121.051 114.679 121.354 115.066C121.658 115.453 121.878 115.896 122.002 116.368C122.126 116.84 122.151 117.332 122.076 117.813C121.952 118.38 121.671 118.902 121.264 119.323C120.857 119.745 120.339 120.05 119.766 120.205C118.965 120.505 118.088 120.557 117.255 120.353C116.422 120.148 115.675 119.699 115.115 119.065C114.534 118.476 114.124 117.749 113.927 116.956C113.73 116.163 113.753 115.333 113.993 114.551C114.253 112.35 114.546 110.101 114.855 107.915C116.579 95.0713 118.368 81.7997 112.692 69.906H110.756C113.181 75.8601 114.535 82.1765 114.757 88.578C114.548 95.2947 113.857 101.989 112.692 108.612C112.313 110.577 112.036 112.559 111.862 114.551V114.741C111.765 117.813 112.659 121.567 117.392 121.947C118.395 122.131 119.432 122.003 120.357 121.583C121.281 121.162 122.048 120.47 122.547 119.603H122.466ZM104.04 139.194C104.04 139.446 104.142 139.687 104.325 139.866C104.508 140.044 104.757 140.144 105.015 140.144C105.143 140.144 105.269 140.119 105.386 140.071C105.504 140.023 105.61 139.953 105.7 139.865C105.789 139.776 105.859 139.671 105.907 139.556C105.954 139.441 105.977 139.318 105.975 139.194C105.977 139.07 105.954 138.948 105.906 138.834C105.859 138.719 105.788 138.615 105.699 138.528C105.609 138.441 105.503 138.372 105.385 138.326C105.268 138.28 105.142 138.257 105.015 138.259C104.888 138.257 104.761 138.28 104.643 138.326C104.525 138.372 104.417 138.44 104.326 138.527C104.235 138.614 104.163 138.718 104.114 138.832C104.065 138.947 104.039 139.07 104.04 139.194ZM93.1593 169.981C93.9262 159.074 93.3983 148.496 91.0776 137.8C91.0848 137.747 91.0848 137.694 91.0776 137.642C91.085 137.563 91.085 137.483 91.0776 137.404C90.0424 132.42 88.6788 127.505 86.9955 122.691C86.8997 122.44 86.7127 122.232 86.4698 122.107C86.227 121.981 85.9453 121.947 85.6782 122.01L77.0586 124.164C76.5382 122.786 75.7413 120.997 75.6925 120.838C75.5778 120.576 75.361 120.369 75.0897 120.262C74.8184 120.155 74.5147 120.157 74.245 120.268C74.1103 120.322 73.988 120.401 73.8852 120.502C73.7825 120.602 73.7014 120.721 73.6469 120.853C73.5923 120.984 73.5653 121.125 73.5675 121.266C73.5697 121.408 73.601 121.548 73.6596 121.678C73.6596 121.678 74.9281 124.639 75.2859 125.764C75.3657 126.032 75.5494 126.26 75.7982 126.398C76.047 126.537 76.3415 126.577 76.6195 126.508L85.1578 124.354C86.5468 128.515 87.7086 132.744 88.6381 137.024C85.4993 137.515 82.2954 137.99 80.7992 138.18C80.6203 137.388 80.295 135.979 79.677 133.429L81.7587 132.97C82.0456 132.907 82.2949 132.735 82.452 132.493C82.6091 132.251 82.661 131.958 82.5963 131.679C82.5316 131.4 82.3556 131.157 82.107 131.004C81.8584 130.851 81.5576 130.8 81.2708 130.863L78.0995 131.56C77.8119 131.624 77.5612 131.795 77.4001 132.035C77.3225 132.157 77.271 132.293 77.2486 132.434C77.2262 132.576 77.2335 132.72 77.27 132.859C77.8392 135.219 78.75 139.083 78.8964 139.479C78.9379 139.752 79.0829 140.001 79.3029 140.176C79.4106 140.262 79.5355 140.327 79.6697 140.365C79.804 140.403 79.9448 140.414 80.0836 140.397C83.1237 140.128 86.1473 139.705 89.1423 139.13C90.0283 143.571 90.6744 148.054 91.0776 152.56C87.8249 152.671 84.1982 152.734 82.6044 152.734C82.6044 151.895 82.4093 150.375 82.1653 147.619L84.3121 147.429C84.465 147.428 84.6161 147.396 84.7558 147.336C84.8955 147.275 85.0208 147.187 85.1238 147.077C85.2267 146.967 85.305 146.837 85.3539 146.696C85.4027 146.555 85.4209 146.405 85.4073 146.257C85.3938 146.108 85.3488 145.964 85.2752 145.834C85.2016 145.703 85.1009 145.589 84.9797 145.498C84.8584 145.407 84.7191 145.342 84.5706 145.307C84.4221 145.271 84.2676 145.266 84.1169 145.291L80.8642 145.576C80.7209 145.588 80.5815 145.627 80.4539 145.692C80.3263 145.757 80.2131 145.845 80.1209 145.953C80.0287 146.06 79.9592 146.185 79.9165 146.318C79.8738 146.452 79.8588 146.593 79.8722 146.732C80.0836 149.25 80.4414 153.336 80.4576 153.748C80.459 154.03 80.5693 154.302 80.7667 154.508C81.0269 154.762 81.157 154.888 83.4664 154.888C84.9626 154.888 87.3533 154.888 91.2565 154.714C91.5916 159.062 91.6405 163.426 91.4029 167.78C88.1502 167.685 84.8975 167.558 83.2712 167.463C83.2712 166.624 83.2712 165.103 83.1411 162.348H85.2879C85.5601 162.316 85.8109 162.187 85.9928 161.988C86.1747 161.788 86.2752 161.53 86.2752 161.263C86.2752 160.996 86.1747 160.738 85.9928 160.538C85.8109 160.338 85.5601 160.21 85.2879 160.178L82.0352 160.289C81.8893 160.291 81.7452 160.321 81.6117 160.379C81.4781 160.436 81.3577 160.518 81.2575 160.622C81.1574 160.725 81.0797 160.847 81.0289 160.98C80.9781 161.114 80.9553 161.255 80.9618 161.397C80.9618 163.916 81.1407 168.017 81.1244 168.429C81.1112 168.713 81.2101 168.99 81.4009 169.205C81.7912 169.633 82.1328 169.728 91.533 169.981H93.1593ZM128.321 114.298C128.338 113.295 128.006 112.316 127.38 111.52C126.755 110.724 125.871 110.157 124.873 109.911C124.112 109.703 123.308 109.703 122.547 109.911C123.12 110.046 123.668 110.265 124.174 110.56C124.937 111.023 125.573 111.66 126.026 112.416C126.48 113.172 126.737 114.025 126.776 114.899C126.925 116.061 126.703 117.238 126.141 118.273C126.826 117.849 127.386 117.261 127.768 116.564C128.15 115.868 128.34 115.087 128.321 114.298ZM125.458 130.594C125.331 130.592 125.204 130.615 125.086 130.661C124.968 130.707 124.86 130.775 124.769 130.862C124.678 130.949 124.606 131.053 124.557 131.167C124.508 131.282 124.483 131.404 124.483 131.528C124.483 131.78 124.585 132.022 124.768 132.2C124.951 132.379 125.2 132.479 125.458 132.479C125.586 132.479 125.712 132.454 125.829 132.406C125.947 132.358 126.053 132.288 126.143 132.199C126.232 132.111 126.302 132.006 126.35 131.891C126.397 131.776 126.42 131.653 126.418 131.528C126.42 131.405 126.397 131.283 126.349 131.168C126.302 131.054 126.231 130.95 126.142 130.863C126.052 130.776 125.946 130.707 125.828 130.661C125.711 130.615 125.585 130.592 125.458 130.594ZM79.1403 169.997C79.4499 166.125 79.4934 162.602 79.3355 158.721C81.0919 158.721 84.9626 158.721 87.9225 158.721C88.0364 160.178 88.0526 162.474 88.0364 163.995H85.8408C85.5685 164.027 85.3178 164.155 85.1358 164.355C84.9539 164.555 84.8535 164.812 84.8535 165.08C84.8535 165.347 84.9539 165.604 85.1358 165.804C85.3178 166.004 85.5685 166.132 85.8408 166.164H89.0935C89.3827 166.16 89.6592 166.048 89.8653 165.85C90.0713 165.652 90.191 165.385 90.1994 165.103C90.281 162.557 90.205 160.008 89.9717 157.47C89.9269 157.222 89.7956 156.997 89.6 156.832C89.4045 156.668 89.1566 156.574 88.8983 156.567C84.0193 156.567 80.7667 156.567 79.1403 156.567C78.8964 152.212 78.4085 148.047 77.8067 144.23C79.986 144.056 84.5397 143.786 86.4914 143.691C86.7841 145.053 87.0443 147.334 87.1907 148.902H84.8C84.5277 148.934 84.2769 149.062 84.095 149.262C83.9131 149.462 83.8126 149.72 83.8126 149.987C83.8126 150.254 83.9131 150.512 84.095 150.711C84.2769 150.911 84.5277 151.039 84.8 151.072H88.5243C88.6772 151.071 88.8284 151.04 88.9684 150.98C89.1083 150.92 89.234 150.833 89.3374 150.723C89.4433 150.614 89.5242 150.484 89.5746 150.342C89.6251 150.2 89.644 150.049 89.6302 149.9C89.4575 147.31 89.0823 144.737 88.508 142.203C88.4337 141.991 88.2935 141.807 88.107 141.677C87.9205 141.546 87.6969 141.475 87.4672 141.474C87.1581 141.474 80.3601 141.87 77.7091 142.092C76.9448 137.768 76.0828 133.967 75.2371 130.895L83.2712 129.2C83.7327 130.674 84.1127 132.17 84.4096 133.682L81.9864 134.142C81.7114 134.188 81.4644 134.333 81.295 134.549C81.1256 134.765 81.0463 135.036 81.073 135.306C81.0998 135.577 81.2306 135.827 81.4392 136.008C81.6478 136.188 81.9188 136.286 82.1978 136.28H82.4092L85.8408 135.583C86.1249 135.525 86.3751 135.363 86.5388 135.13C86.7026 134.896 86.7672 134.61 86.719 134.332C86.3173 132.001 85.6967 129.711 84.865 127.49C84.7549 127.273 84.5737 127.097 84.3499 126.991C84.1262 126.885 83.8726 126.854 83.629 126.904L74.5378 128.804C73.4481 124.988 72.6187 122.739 72.5862 122.675C72.5372 122.541 72.461 122.416 72.3622 122.31C72.2634 122.204 72.1438 122.119 72.0106 122.058C71.8773 121.998 71.733 121.964 71.5861 121.958C71.4392 121.953 71.2926 121.976 71.155 122.026C70.8807 122.129 70.6589 122.333 70.5372 122.594C70.4156 122.854 70.4038 123.151 70.5045 123.42C70.5045 123.657 78.985 145.782 76.887 169.997H79.1403ZM130.402 106.632C130.738 106.72 131.064 106.836 131.378 106.981V106.474C131.047 106.484 130.719 106.537 130.402 106.632ZM127.8 107.741H128.044C128.747 107.948 129.399 108.294 129.958 108.758C130.518 109.221 131.055 109.844 131.378 110.487V108.21C130.995 107.982 130.497 107.817 130.061 107.709C129.316 107.531 128.536 107.532 127.8 107.741ZM127.8 108.834C126.972 108.596 126.091 108.596 125.263 108.834C126.483 109.15 127.561 109.852 128.326 110.83C129.092 111.807 129.502 113.005 129.492 114.234C129.517 115.28 129.271 116.315 128.776 117.243C129.471 116.825 130.041 116.236 130.43 115.536C130.818 114.835 131.01 114.048 130.988 113.252C131.02 112.272 130.718 111.309 130.13 110.513C129.542 109.717 128.7 109.132 127.735 108.85L127.8 108.834ZM43.7136 169.981C45.0863 160.718 45.2286 151.707 44.2879 142.393V141.981C43.9952 138.972 43.6049 136.264 43.2308 133.952C43.24 133.894 43.24 133.835 43.2308 133.777L41.1329 134.696C43.0864 146.507 43.3116 158.121 41.7032 169.981H43.7136ZM97.1113 165.832C96.9812 164.787 95.6639 164.85 95.1435 165.578C94.623 166.307 95.5988 168.746 95.5988 168.746C95.5988 168.746 97.2252 166.814 97.1113 165.832ZM97.7619 154.587C97.5016 153.574 96.1355 153.827 95.7777 154.587C95.4199 155.348 96.6397 157.612 96.6397 157.612C96.6397 157.612 98.0058 155.601 97.7619 154.587ZM66.7314 56.6978C66.7314 56.6978 67.1705 59.0259 67.3494 61.0689C67.3164 62.5178 66.7376 63.9044 65.723 64.9648C66.0624 63.4945 66.0624 61.9691 65.723 60.4987C65.4791 60.0553 63.2022 61.2431 62.6493 62.3833C61.7018 64.2062 61.1956 66.2161 61.1693 68.2589C61.1151 70.1288 60.6021 71.9588 59.6731 73.5961C59.7433 73.4782 59.7928 73.3497 59.8194 73.216C59.9077 72.0491 59.875 70.8765 59.7219 69.716C59.442 71.0582 58.859 72.3229 58.0152 73.4186C57.1713 74.5143 56.0877 75.4134 54.8429 76.0508C56.0569 74.365 56.9544 72.4829 57.4938 70.492L55.2169 71.7431C55.3847 70.9396 55.7365 70.1834 56.2462 69.5308C56.7559 68.8781 57.4103 68.3459 58.1606 67.9739C59.5267 67.1345 59.7869 64.7273 59.7869 64.7273L57.8353 66.0576C57.7052 63.3811 59.3641 62.9852 61.2831 61.734C62.2618 61.1071 63.0085 60.1913 63.4136 59.1209C61.4458 58.5507 58.1931 60.2295 58.1931 60.2295C59.1201 56.9354 66.8127 56.6978 66.8127 56.6978L64.9749 54.1797C64.9749 54.1797 59.5592 54.7182 56.3554 61.0689C53.1515 67.4196 55.6723 72.6934 52.5335 76.716C52.5335 76.716 52.2245 76.9536 53.1515 77.0803C56.5167 76.7725 59.6591 75.307 62.015 72.9467C65.3978 69.5893 68.7806 60.4987 68.7806 60.4987L66.7314 56.6978ZM95.5988 160.115C95.1272 160.891 96.2494 163.187 96.2494 163.187C96.2494 163.187 97.7456 161.255 97.5667 160.225C97.3878 159.196 96.103 159.339 95.5988 160.115ZM96.8999 143.359C96.5258 142.393 95.2736 142.836 94.9646 143.707C94.6556 144.578 96.2006 146.558 96.2006 146.558C96.2006 146.558 97.339 144.309 96.9487 143.359H96.8999ZM78.5223 117.877C78.5223 117.877 78.5223 117.877 78.5223 117.798C78.7794 116.676 78.8724 115.524 78.7988 114.377C78.5386 113.997 78.2784 113.601 78.0344 113.189C77.7905 112.777 77.5628 112.413 77.3513 112.017C77.7107 114.114 77.7107 116.255 77.3513 118.352L78.5223 117.877ZM78.6524 122.137H78.8964L82.5881 121.266C82.8726 121.198 83.118 121.024 83.2704 120.78C83.4229 120.537 83.4699 120.245 83.4013 119.967C83.3708 119.828 83.3116 119.695 83.2274 119.579C83.1431 119.462 83.0355 119.363 82.911 119.287C82.7865 119.212 82.6476 119.162 82.5027 119.14C82.3578 119.118 82.2099 119.125 82.0677 119.16L78.441 119.999C78.1558 120.067 77.9092 120.241 77.7541 120.483C77.5991 120.726 77.5479 121.019 77.6116 121.298C77.6702 121.527 77.8029 121.733 77.9902 121.884C78.1775 122.035 78.4096 122.124 78.6524 122.137ZM67.4307 123.056H67.5771C70.8297 123.056 73.0253 121.155 74.0824 117.608C74.5053 116.119 73.8872 110.845 72.7163 106.094C70.537 97.2568 70.8948 87.5645 73.6433 81.388C73.5457 80.0893 73.2692 78.5531 73.253 77.6662C72.0658 79.8359 69.8702 85.078 70.0003 94.0894C70.1399 98.7284 70.7445 103.343 71.8055 107.868C72.6024 111.669 73.2205 114.63 72.5211 116.942V117.053C72.3423 117.625 72.0616 118.161 71.6917 118.637C71.2481 119.363 70.6299 119.973 69.8904 120.414C69.151 120.855 68.3124 121.115 67.447 121.171C66.8182 121.158 66.2002 121.009 65.6376 120.735C65.0751 120.462 64.5821 120.069 64.1943 119.587C63.8598 119.037 63.6713 118.415 63.6457 117.776C63.6202 117.137 63.7584 116.503 64.0479 115.929C64.2923 115.404 64.6788 114.955 65.1659 114.628C65.6531 114.302 66.2224 114.111 66.8127 114.076C67.2629 114.011 67.7229 114.068 68.1419 114.241C68.5608 114.415 68.9226 114.697 69.1871 115.058C69.4224 115.426 69.5669 115.842 69.6092 116.273C69.6516 116.705 69.5906 117.14 69.4311 117.544C69.2946 117.883 69.075 118.184 68.7915 118.422C68.5081 118.659 68.1693 118.826 67.8048 118.906C67.6562 118.92 67.5083 118.876 67.3927 118.784C67.2771 118.692 67.2032 118.56 67.1867 118.415C67.1775 118.273 67.2246 118.133 67.3185 118.024C67.4124 117.915 67.5457 117.845 67.6909 117.829C67.8733 117.773 68.04 117.676 68.1782 117.547C68.3163 117.418 68.4222 117.26 68.4878 117.085C68.5751 116.854 68.6058 116.606 68.5776 116.361C68.5494 116.117 68.4629 115.882 68.3252 115.675C68.1646 115.475 67.9513 115.321 67.7079 115.229C67.4646 115.137 67.2002 115.11 66.9428 115.153C66.5481 115.169 66.1662 115.294 65.8411 115.513C65.516 115.731 65.2609 116.035 65.105 116.388C64.8953 116.785 64.7859 117.225 64.7859 117.671C64.7859 118.117 64.8953 118.557 65.105 118.954C65.3927 119.31 65.7577 119.6 66.1738 119.802C66.5899 120.005 67.0469 120.115 67.512 120.126C68.1993 120.063 68.8614 119.842 69.4438 119.481C70.0263 119.121 70.5124 118.63 70.8623 118.051C71.1513 117.665 71.3763 117.238 71.5291 116.784C71.538 116.21 71.4277 115.64 71.2047 115.108C70.9816 114.577 70.6505 114.094 70.2313 113.69C69.812 113.287 69.3132 112.969 68.7648 112.758C68.2165 112.547 67.6299 112.446 67.0404 112.461C66.3675 112.431 65.6965 112.55 65.0772 112.808C64.4578 113.065 63.9059 113.456 63.4624 113.949C62.4054 115.306 61.9276 117.008 62.1288 118.7C62.3405 119.92 62.9894 121.027 63.9602 121.824C64.9309 122.622 66.1607 123.058 67.4307 123.056ZM75.5624 108.264C73.9738 104.445 73.3115 100.32 73.627 96.2116C73.8873 93.3609 74.2125 85.8382 74.2613 84.6187C74.2365 84.3818 74.2365 84.143 74.2613 83.9061H73.871C71.9663 91.0839 71.9663 98.6153 73.871 105.793C74.9606 110.243 75.7738 115.961 75.2371 117.845C75.0822 118.386 74.8865 118.916 74.6516 119.429L76.5382 118.653C76.4512 118.591 76.3849 118.505 76.3473 118.406C76.3098 118.308 76.3026 118.201 76.3268 118.099C77.0261 115.185 75.9039 109.641 75.5949 108.216L75.5624 108.264ZM79.7258 117.386L80.7667 116.99L79.8884 115.866C79.8853 116.375 79.8418 116.883 79.7583 117.386H79.7258Z" fill="#F4C900"/>
</g>
<path d="M36.4608 86.537C35.5377 86.537 34.6146 86.6908 33.6916 86.9985C35.3839 85.46 36.4608 83.46 36.4608 81.1523C36.4608 76.6908 32.6146 73.1523 27.9992 73.1523C23.3839 73.1523 19.5377 76.8447 19.5377 81.1523C19.5377 83.46 20.6146 85.6139 22.3069 86.9985C21.3839 86.6908 20.6146 86.537 19.5377 86.537C14.9223 86.537 11.0762 90.0754 11.0762 94.537C11.0762 98.9985 14.9223 102.537 19.5377 102.537C22.9223 102.537 25.6916 100.691 27.0762 98.0754C26.9223 100.383 26.1531 103.922 23.8454 106.229C23.5377 106.537 23.6916 106.845 24.1531 106.845H27.9992H31.8454C32.1531 106.845 32.3069 106.383 32.1531 106.229C29.8454 103.922 29.0762 100.537 28.9223 98.0754C30.3069 100.691 33.23 102.537 36.4608 102.537C41.0762 102.537 44.9223 98.9985 44.9223 94.537C44.9223 90.2293 41.0762 86.537 36.4608 86.537Z" fill="#24242E"/>
<path d="M32.4381 11.756H38.8761V46.906C38.8761 54.528 38.5801 56.008 38.0621 57.562C35.6941 64.74 27.8501 64.74 26.0741 64.74C19.1181 64.74 16.0101 60.892 15.0481 57.34C14.4561 55.194 14.4561 53.566 14.4561 48.312H20.7461C20.7461 53.936 20.8201 54.75 21.3381 56.082C22.1521 58.08 23.9281 59.19 26.0001 59.19C31.2541 59.264 32.2161 55.416 32.3641 53.27C32.4381 52.234 32.4381 48.46 32.4381 47.276V11.756Z" fill="#24242E"/>
<defs>
<linearGradient id="paint0_linear_324_104539" x1="92" y1="2" x2="92" y2="182" gradientUnits="userSpaceOnUse">
<stop stop-color="white" stop-opacity="0.85"/>
<stop offset="1" stop-color="white" stop-opacity="0.15"/>
</linearGradient>
<clipPath id="clip0_324_104539">
<rect width="116.757" height="165" fill="white" transform="translate(14.6211 5)"/>
</clipPath>
</defs>
</svg>
