<svg width="184" height="184" viewBox="0 0 184 184" fill="none" xmlns="http://www.w3.org/2000/svg">
<rect x="1" y="1" width="182" height="182" rx="13" stroke="black" stroke-opacity="0.25" stroke-width="2"/>
<rect x="2.5" y="2.5" width="179" height="179" rx="11.5" fill="#E9E9E9" stroke="url(#paint0_linear_324_104511)"/>
<rect x="41.0449" y="30.5" width="101.909" height="123" rx="1.5" fill="#D7D5D7" stroke="#CDCFD6"/>
<path d="M101.192 94.5898C96.0002 94.5898 91.154 96.6668 87.3463 100.128C87.0002 100.474 86.654 100.474 86.3079 100.128C82.8463 96.6668 78.0002 94.5898 72.4617 94.5898C61.3848 94.5898 52.3848 103.59 52.3848 115.013C52.3848 125.051 57.2309 130.244 70.0386 140.974C75.2309 145.474 82.8463 154.821 85.6156 158.628C86.3079 159.667 87.6925 159.667 88.3848 158.628C91.5002 154.821 98.7694 145.474 103.962 140.974C116.423 129.898 121.616 125.051 121.616 115.013C121.616 103.59 112.616 94.5898 101.192 94.5898Z" fill="#BF3030"/>
<path d="M34.3076 75.5977C31.9999 75.5977 29.846 76.5207 28.1537 78.0592C27.9999 78.213 27.846 78.213 27.6922 78.0592C26.1537 76.5207 23.9999 75.5977 21.5383 75.5977C16.6152 75.5977 12.6152 79.5977 12.6152 84.6746C12.6152 89.1361 14.7691 91.4438 20.4614 96.213C22.7691 98.213 26.1537 102.367 27.3845 104.059C27.6922 104.521 28.3076 104.521 28.6152 104.059C29.9999 102.367 33.2306 98.213 35.5383 96.213C41.0768 91.29 43.3845 89.1361 43.3845 84.6746C43.3845 79.5977 39.3845 75.5977 34.3076 75.5977Z" fill="#BF3030"/>
<path d="M16.583 50.236H22.577C22.503 52.826 22.503 54.01 22.577 54.232C22.577 55.49 22.725 58.894 27.461 58.894C32.345 58.894 32.419 55.268 32.567 49.94C32.641 48.756 32.567 42.836 32.567 41.504C31.383 42.688 29.311 44.76 25.019 44.76C16.065 44.76 16.065 35.954 16.065 32.698C16.065 27.962 16.065 21.598 16.731 18.564C17.915 12.792 22.947 11.09 27.461 11.09C29.459 11.09 31.531 11.312 33.307 12.2C34.343 12.718 37.821 14.79 38.561 19.896C38.783 21.154 38.783 22.486 38.783 34.252C38.783 37.582 38.709 52.308 38.561 54.602C37.747 63.704 31.013 64.666 27.387 64.666C22.207 64.666 17.841 62.15 16.879 57.562C16.583 56.304 16.583 55.712 16.583 50.236ZM32.641 28.258C32.641 28.036 32.641 22.264 32.567 21.672C32.123 18.046 29.903 16.788 27.683 16.788C25.833 16.788 22.947 17.676 22.503 21.746C22.355 23.004 22.281 28.332 22.281 30.404L22.355 34.252C22.577 37.212 24.427 39.136 27.609 39.136C30.717 39.136 32.641 37.138 32.641 33.438V28.258Z" fill="#BF3030"/>
<defs>
<linearGradient id="paint0_linear_324_104511" x1="92" y1="2" x2="92" y2="182" gradientUnits="userSpaceOnUse">
<stop stop-color="white" stop-opacity="0.85"/>
<stop offset="1" stop-color="white" stop-opacity="0.15"/>
</linearGradient>
</defs>
</svg>
