<svg width="184" height="184" viewBox="0 0 184 184" fill="none" xmlns="http://www.w3.org/2000/svg">
<rect x="1" y="1" width="182" height="182" rx="13" stroke="black" stroke-opacity="0.25" stroke-width="2"/>
<rect x="2.5" y="2.5" width="179" height="179" rx="11.5" fill="#E9E9E9" stroke="url(#paint0_linear_324_104519)"/>
<rect x="41.0449" y="30.5" width="101.909" height="123" rx="1.5" fill="#D7D5D7" stroke="#CDCFD6"/>
<g clip-path="url(#clip0_324_104519)">
<path d="M131.378 34.6361V165.248C131.378 166.507 130.865 167.716 129.953 168.606C129.041 169.497 127.803 169.998 126.513 169.998H19.486C18.1957 169.998 16.9583 169.497 16.046 168.606C15.1336 167.716 14.6211 166.507 14.6211 165.248V147.926L74.8643 110.701C74.8643 110.701 71.086 108.943 71.6211 105.792C72.1562 102.641 73.6319 101.834 73.2427 100.662C72.947 99.7871 72.3573 99.51 72.1887 98.6034C71.849 98.5598 71.8958 97.7744 71.6789 97.5155C71.462 97.2566 71.3543 96.9267 71.3779 96.593C71.4914 95.3421 73.2103 94.6296 73.2103 94.6296L71.1995 93.3471V90.6712C71.2728 89.9999 71.1448 89.3223 70.831 88.7207C70.5172 88.1192 70.0311 87.6196 69.4319 87.2828C67.2427 85.8103 64.7941 84.3694 66.9022 81.3136C67.7905 80.558 68.4754 79.6011 68.8968 78.5268C70.2076 76.2621 71.6759 74.0878 73.2914 72.0192C73.2914 71.8767 74.1508 69.5809 74.1508 69.5809L74.913 60.4607L62.5887 42.8696C62.5887 42.8696 60.2049 39.9562 64.4373 38.6737C68.6697 37.3911 101.605 27.2576 131.378 34.6361Z" fill="#E7E7E7"/>
<path d="M131.378 117.642L122.968 114.121C108.846 106.937 104.188 92.9452 103.529 88.0622C102.871 83.1792 100.633 73.2097 100.237 71.0342C99.8425 68.8588 97.3242 62.1133 97.3242 62.1133L131.378 65.2434V117.642Z" fill="#F4C900"/>
<path d="M54.1798 169.998H43.8103C43.4265 167.968 46.7724 166.991 48.8841 166.991C51.6894 166.912 53.9919 168.069 54.0244 169.545C54.0259 169.908 53.54 169.998 54.1798 169.998ZM56.781 153.682C58.9394 159.052 60.0423 164.228 60.0265 169.998L58.6764 169.989C58.7051 163.891 57.4645 158.409 54.9973 152.81C54.4135 152.556 53.8136 152.318 53.2298 152.096C56.0103 157.865 57.5984 163.62 57.5941 169.998H56.181C56.3289 169.383 56.3763 169.998 56.181 169.998C56.2209 169.832 56.1788 169.653 56.181 169.481C56.181 167.387 52.8406 165.769 48.8517 165.865C44.8627 165.96 41.313 167.904 41.3779 169.998C40.1744 169.998 40.2732 169.998 39.7562 169.998C39.7581 164.474 37.5571 159.644 34.1752 155.221C30.7932 150.797 26.0379 147.564 20.6208 146.005L19.7776 146.528C25.1876 147.938 29.9699 151.057 33.3804 155.4C36.791 159.743 38.9481 164.521 38.9454 169.998L36.8945 169.989C36.9079 164.604 35.0075 159.938 31.509 155.78C28.0105 151.622 23.1393 148.788 17.7344 147.765L16.3237 148.654C21.7168 149.382 26.6583 151.995 30.2351 156.01C33.8119 160.025 35.7024 164.672 35.7022 169.998H34.0806C33.8588 169.481 33.6624 169.304 33.4092 169.134C32.9095 168.798 32.3186 168.615 31.7121 168.609C31.2058 168.558 30.6943 168.61 30.2091 168.76C29.7239 168.91 29.2752 169.155 28.8906 169.481C28.5987 169.735 28.8861 170.014 29.3563 169.903C29.852 169.761 30.3687 169.767 30.8851 169.751C31.1991 169.719 31.5161 169.772 31.8018 169.903C31.8977 169.947 31.6481 169.998 31.6481 169.998H19.486C18.1958 169.998 16.9582 169.995 16.0459 169.103C15.1336 168.21 14.6211 167 14.6211 165.738V152.096C14.8816 152.434 15.0186 152.847 15.0103 153.27C14.9941 153.775 14.9124 154.276 14.767 154.761C14.6535 155.157 15.0265 155.506 15.2697 155.253C15.9015 154.584 16.2493 153.705 16.2426 152.794C16.2745 152.208 16.1398 151.626 15.8536 151.11C15.5673 150.595 15.1407 150.168 14.6211 149.875L14.6211 146.576L73.1909 110.647C72.6294 110.293 72.1502 109.828 71.7842 109.282C71.4183 108.735 71.1738 108.12 71.0667 107.475C70.9081 105.79 71.2045 104.095 71.9261 102.557C72.0629 102.236 72.182 101.908 72.2828 101.574C72.3439 100.907 72.2148 100.238 71.9099 99.6387C70.3694 99.6387 70.3694 97.1958 71.0667 96.1965C71.7639 95.1972 72.3477 95.4668 72.0558 94.7054C71.0018 94.3723 70.2073 93.9599 69.9803 93.1192C69.9187 92.9528 69.9014 92.7738 69.9297 92.5991C69.9581 92.4243 70.0313 92.2594 70.1424 92.1198C70.1424 91.5646 70.1424 90.5336 70.3046 89.3439C70.3046 88.5191 69.7532 88.2018 68.3749 87.6625C67.7634 87.4532 67.1806 87.1708 66.6399 86.8218C66.2474 86.5262 65.9294 86.1467 65.7101 85.7122C65.4909 85.2778 65.3763 84.8 65.3751 84.3155C65.3164 83.7377 65.3876 83.1544 65.5836 82.6063C65.7797 82.0583 66.0959 81.5588 66.5102 81.143C67.3872 80.2503 68.0275 79.1611 68.3749 77.9705C68.456 77.7484 68.5533 77.5105 68.6668 77.2725C69.4126 75.8172 70.3563 74.4672 71.4721 73.2593C71.8601 72.825 72.2229 72.3695 72.5585 71.8952C73.045 71.1813 72.9314 70.7531 72.9152 70.7213L72.8342 70.5468V70.4358C73.126 67.4854 73.499 64.8363 73.953 62.5046C73.953 62.3142 73.8557 62.108 73.7909 61.8859C68.9263 55.0492 61.8564 44.9924 61.0132 44.0882C60.6412 43.6745 60.3858 43.1732 60.2721 42.6336C60.1583 42.094 60.1902 41.5347 60.3646 41.0109C60.5112 40.4128 60.8051 39.8588 61.2205 39.3971C61.6359 38.9354 62.1604 38.58 62.7482 38.3618L63.2671 38.3142C72.7739 34.449 82.8108 31.9743 93.0547 30.9699C105.884 29.6648 118.847 30.5395 131.372 33.5555V39.0915L130.204 38.7901H129.977C129.782 38.7917 129.591 38.8498 129.43 38.957C129.268 39.0643 129.143 39.216 129.069 39.3929L123.053 53.4788C122.998 53.6125 122.973 53.7565 122.981 53.9005C122.989 54.0445 123.029 54.1851 123.099 54.3123C123.168 54.4394 123.266 54.55 123.384 54.6363C123.502 54.7225 123.638 54.7822 123.783 54.8112C125.777 55.2078 128.793 55.8264 131.372 56.3975V68.7702L130.301 67.6281L129.361 67.4219C130.123 68.2785 130.788 69.0082 131.372 69.8013V71.6255C130.18 70.0236 128.891 68.4928 127.512 67.0412L126.507 66.8667C128.376 68.9099 130.008 71.1496 131.372 73.5448V76.0035C131.199 75.597 131.004 75.1999 130.788 74.8139C130.78 74.7879 130.78 74.7604 130.788 74.7345C129.222 71.7147 127.206 68.9401 124.804 66.5019L123.799 66.3115C125.648 68.3739 127.218 70.6611 128.469 73.1166C129.806 75.7558 130.782 78.5558 131.372 81.4444V86.4728C131.372 86.4728 131.372 86.3618 131.372 86.3142C129.409 76.5905 127.512 73.6242 127.496 73.6242V73.5448C126.058 70.7796 124.236 68.2225 122.08 65.9467L121.042 65.7564C122.672 67.6412 124.06 69.7133 125.177 71.9269C125.437 72.3393 127.269 75.5277 129.182 84.9817C129.458 86.2983 129.669 87.8052 129.896 89.4073C130.269 92.0564 130.551 94.5668 131.378 97.6917V101.695C130.1 97.6171 129.35 93.8037 128.858 89.566C128.631 87.9797 128.42 86.3935 128.161 85.2038C126.183 75.4166 124.302 72.5138 124.285 72.5138V72.4345C122.981 69.9254 121.346 67.5948 119.421 65.5026L118.188 65.2805C119.601 66.9648 120.804 68.8071 121.772 70.7689C122.031 71.1813 123.864 74.3697 125.777 83.8237C126.053 85.1403 126.264 86.6473 126.491 88.2494C127.054 94.4012 128.716 100.422 131.372 106.026V108.257L131.242 108.062C127.156 101.05 126.166 94.0392 125.372 88.408C125.161 86.8218 124.95 85.3148 124.691 84.0458C122.696 74.2587 120.815 71.3558 120.799 71.3558V71.2765C119.678 69.0323 118.26 66.9418 116.583 65.0584L115.448 64.8681C116.634 66.3406 117.651 67.9364 118.48 69.6268C118.74 70.0392 120.572 73.2276 122.502 82.6817C122.761 83.9982 122.972 85.5052 123.199 87.1073C124.123 93.6902 125.291 102.199 131.372 110.066V111.671C130.101 110.175 128.984 108.607 127.966 106.935C123.88 99.9242 122.891 92.913 122.113 87.2818C121.886 85.6955 121.675 84.1093 121.415 82.9196C119.437 73.1959 117.556 70.2296 117.524 70.2296C117.491 70.2296 117.524 70.2296 117.524 70.1503C116.529 68.1924 115.31 66.3511 113.891 64.6619L112.708 64.4874C113.649 65.7312 114.469 67.0589 115.156 68.453C115.399 68.8654 117.248 72.0538 119.161 81.5078C119.421 82.8244 119.632 84.3314 119.859 85.9335C120.929 93.5633 122.388 103.847 131.372 112.651V114.082C128.715 111.635 126.458 108.842 124.642 105.746C120.54 98.7345 119.567 91.7233 118.772 86.0921C118.545 84.5058 118.334 82.9196 118.075 81.7299C116.113 72.0062 114.216 69.0399 114.199 69.0399C113.367 67.3516 112.35 65.7561 111.167 64.2812L109.935 64.1225C110.672 65.1588 111.323 66.2515 111.881 67.3902C112.14 67.8026 113.972 70.991 115.886 80.445C116.162 81.7616 116.372 83.2686 116.599 84.8865C117.718 93.2144 119.405 104.937 131.372 114.327V135.821L128.777 135.551L124.058 143.673L131.372 144.45V165.785C131.372 167.047 131.075 168.018 130.162 168.91C129.25 169.803 127.803 169.998 126.513 169.998H119.511L123.458 163.438L113.162 162.359L108.675 169.998H89.7766L89.7305 169.862C88.9839 166.989 88.0523 164.165 86.9415 161.407C86.906 161.322 86.8519 161.245 86.7831 161.182C86.7142 161.119 86.6321 161.072 86.5426 161.043C86.4531 161.015 86.3583 161.005 86.2648 161.016C86.1712 161.027 86.0812 161.058 86.001 161.106L80.1959 164.834C80.0724 164.914 79.9809 165.034 79.9367 165.172C79.8924 165.311 79.8981 165.46 79.9527 165.595C80.5851 167.181 81.1076 169.998 81.1076 169.998H61.23C61.2338 164.779 60.5887 160.205 58.8565 155.268C58.2459 154.645 57.5469 154.111 56.781 153.682ZM29.5554 161.851C29.0684 161.995 28.6162 162.233 28.226 162.552C27.8358 162.871 27.5158 163.264 27.2853 163.707C27.1231 164.056 27.5771 164.262 27.9339 163.993C28.3328 163.679 28.7682 163.413 29.2311 163.2C29.5749 163.012 29.9795 162.962 30.3604 163.059C30.7412 163.157 31.0687 163.395 31.2742 163.723C31.3648 164.095 31.306 164.487 31.1099 164.817C30.9137 165.148 30.5952 165.392 30.2202 165.5C29.7332 165.673 29.2271 165.79 28.7122 165.849C28.2906 165.849 28.096 166.372 28.4528 166.499C29.3248 166.78 30.2722 166.735 31.1121 166.372C32.8633 165.658 33.7876 163.961 33.0255 162.708C32.6229 162.213 32.0653 161.861 31.4383 161.706C30.8114 161.552 30.1499 161.603 29.5554 161.851ZM23.572 158.996C23.572 159.377 24.0584 159.393 24.2854 158.996C24.5304 158.555 24.8299 158.145 25.1773 157.775C25.4183 157.469 25.7724 157.267 26.1635 157.214C26.5547 157.161 26.9516 157.259 27.2691 157.489C27.4951 157.8 27.5908 158.184 27.5365 158.561C27.4822 158.939 27.282 159.282 26.9772 159.52C26.6013 159.866 26.1817 160.165 25.7286 160.408C25.3556 160.614 25.3556 161.106 25.7286 161.106C26.6464 161.04 27.507 160.645 28.1447 159.995C29.4906 158.679 29.6851 156.823 28.4852 155.903C27.9235 155.591 27.2716 155.469 26.6319 155.558C25.9922 155.647 25.4007 155.941 24.9503 156.395C24.5499 156.712 24.2209 157.107 23.9837 157.555C23.7466 158.002 23.6064 158.493 23.572 158.996ZM18.2371 155.998C18.3668 156.347 18.8371 156.173 18.9019 155.76C18.9539 155.255 19.0738 154.759 19.2587 154.285C19.3095 154.097 19.3977 153.921 19.5182 153.767C19.6387 153.613 19.7891 153.483 19.9608 153.386C20.1325 153.289 20.3222 153.226 20.5189 153.2C20.7157 153.175 20.9156 153.188 21.1072 153.238C21.443 153.439 21.6863 153.759 21.786 154.132C21.8857 154.505 21.8343 154.9 21.6423 155.237C21.4336 155.696 21.1666 156.128 20.8478 156.522C20.5883 156.839 20.8478 157.299 21.1234 157.156C21.9281 156.74 22.5506 156.053 22.8747 155.221C23.5882 153.508 23.0206 151.668 21.5775 151.319C20.934 151.245 20.2837 151.381 19.7269 151.705C19.1702 152.029 18.7378 152.523 18.4966 153.111C18.2558 153.55 18.1087 154.032 18.0641 154.529C18.0195 155.025 18.0784 155.525 18.2371 155.998ZM36.674 144.117C38.9117 140.945 39.2846 137.312 37.5009 136.186C35.7172 135.06 32.458 136.662 30.2365 139.834C28.015 143.007 27.6258 146.639 29.4095 147.765C31.1932 148.892 34.4525 147.353 36.674 144.117ZM43.9546 152.429C47.0518 150.034 48.6733 146.75 47.295 145.101C45.9167 143.451 42.4304 144.022 39.1873 146.417C35.9443 148.812 34.5497 152.096 35.8632 153.762C37.1766 155.427 40.8089 154.824 43.9546 152.429ZM45.5762 155.379C41.8142 156.696 39.3657 159.361 40.0792 161.344C40.7926 163.327 44.4411 163.866 48.1868 162.549C51.9326 161.233 54.4135 158.568 53.7001 156.601C52.9866 154.634 49.3706 154.11 45.6086 155.379H45.5762ZM83.4065 153.793C82.1255 151.335 80.7472 149.034 79.3203 146.734C79.2757 146.663 79.2169 146.602 79.1474 146.553C79.0779 146.505 78.9992 146.471 78.9159 146.453C78.8325 146.435 78.7464 146.434 78.6627 146.45C78.5789 146.466 78.4992 146.498 78.4284 146.544L72.6558 150.24C72.5199 150.333 72.4246 150.473 72.3886 150.631C72.3526 150.79 72.3785 150.956 72.4612 151.097C73.8395 153.301 75.2016 155.649 76.4826 158.124C76.5211 158.205 76.5769 158.276 76.6464 158.334C76.7159 158.392 76.7973 158.434 76.8851 158.458C76.9729 158.483 77.065 158.488 77.155 158.474C77.2451 158.46 77.331 158.427 77.4069 158.377L83.1958 154.618C83.3358 154.533 83.4382 154.399 83.4832 154.244C83.5281 154.088 83.5124 153.922 83.439 153.777L83.4065 153.793ZM120.021 111.139C116.54 108.321 113.611 104.908 111.378 101.066C107.276 94.0551 106.303 87.0438 105.508 81.4126C105.281 79.8264 105.07 78.2402 104.811 77.0505C102.833 67.2633 100.952 64.3605 100.935 64.3605V64.2812C100.935 64.2812 100.725 63.8053 100.238 62.9804L98.73 62.8694C99.2327 63.7577 100.887 67.184 102.622 75.718C102.881 77.0346 103.108 78.5415 103.319 80.1595C104.503 89.0742 106.254 101.558 120.021 111.139ZM101.86 63.7736C102.103 64.186 103.951 67.3743 105.865 76.8284C106.124 78.145 106.335 79.6519 106.562 81.2699C107.811 90.1688 109.578 102.716 123.264 112.297C119.783 109.475 116.85 106.063 114.605 102.224C110.519 95.213 109.529 88.2018 108.735 82.5706C108.524 80.9844 108.313 79.4774 108.054 78.2084C106.076 68.4213 104.195 65.5184 104.162 65.5184C104.154 65.4927 104.154 65.4649 104.162 65.4391C103.782 64.6819 103.36 63.9458 102.897 63.2342L101.47 63.0915C101.697 63.4246 101.811 63.6942 101.86 63.7736ZM120.977 148.955L116.243 157.061L126.523 158.171L131.274 150.034L120.977 148.955ZM126.62 113.455C123.146 110.619 120.219 107.196 117.978 103.35C113.891 96.3393 112.902 89.328 112.108 83.6968C111.881 82.1106 111.686 80.5244 111.427 79.3347C109.448 69.611 107.551 66.6447 107.535 66.6447V66.5654C107.021 65.4872 106.408 64.4572 105.703 63.488L104.357 63.3294C104.679 63.839 104.966 64.3689 105.216 64.9157C105.427 65.2805 107.259 68.5323 109.189 77.9705C109.448 79.2871 109.659 80.794 109.886 82.412C111.135 91.3267 112.902 103.874 126.62 113.455ZM108.378 63.7894L107.049 63.6942C107.57 64.4818 108.036 65.3033 108.443 66.1529C108.702 66.5654 110.535 69.7537 112.448 79.2078C112.724 80.5244 112.935 82.0313 113.162 83.6493C114.41 92.5481 116.178 105.095 129.896 114.676C126.424 111.849 123.497 108.438 121.253 104.604C117.167 97.5924 116.178 90.5812 115.383 84.95C115.156 83.3637 114.945 81.7775 114.686 80.5878C112.724 70.8641 110.827 67.8978 110.81 67.8978C110.156 66.4455 109.34 65.0678 108.378 63.7894ZM94.0762 37.3149L96.8977 51.7815C96.9399 52.0069 97.0625 52.2103 97.2436 52.3555C97.4247 52.5007 97.6527 52.5784 97.8868 52.5746C99.1841 52.5746 101.13 52.4953 103.481 52.4953C107.05 52.4479 110.619 52.6174 114.167 53.0029C114.397 53.0339 114.631 52.9861 114.829 52.8675C115.027 52.749 115.177 52.567 115.253 52.3526L120.361 38.0763C120.42 37.9373 120.445 37.7871 120.435 37.6371C120.424 37.4872 120.379 37.3415 120.302 37.2113C120.226 37.0811 120.119 36.9699 119.992 36.8861C119.864 36.8023 119.719 36.7482 119.567 36.728C111.418 35.5997 103.164 35.3975 94.9681 36.1252C94.8302 36.1406 94.697 36.1838 94.577 36.2521C94.457 36.3204 94.3528 36.4122 94.2708 36.5218C94.1849 36.6279 94.1231 36.7507 94.0896 36.8819C94.056 37.0132 94.0515 37.15 94.0762 37.2832V37.3149ZM75.5097 52.5905C75.6008 52.7492 75.7359 52.8796 75.8994 52.9665C76.0629 53.0535 76.2482 53.0936 76.434 53.0822L87.3631 52.5905C87.5046 52.5816 87.6427 52.5434 87.7681 52.4786C87.8935 52.4138 88.0035 52.3237 88.0908 52.2143C88.178 52.105 88.2407 51.9787 88.2746 51.844C88.3085 51.7093 88.3128 51.569 88.2874 51.4325L85.7253 38.3142C85.702 38.1884 85.6526 38.0686 85.58 37.9622C85.5075 37.8558 85.4135 37.7651 85.3037 37.6956C85.0854 37.5504 84.8181 37.4936 84.5578 37.537C79.748 38.4364 75.0114 39.6769 70.3856 41.2488C70.2485 41.2943 70.1235 41.3692 70.0197 41.468C69.9159 41.5668 69.8359 41.687 69.7857 41.8199C69.726 41.9467 69.6951 42.0847 69.6951 42.2243C69.6951 42.364 69.726 42.502 69.7857 42.6288L75.5097 52.5905ZM77.5204 110.441C79.9365 110.441 91.8385 107.475 106.838 97.9096C106.856 97.9022 106.875 97.8984 106.894 97.8984C106.914 97.8984 106.933 97.9022 106.951 97.9096C104.335 92.3256 102.691 86.3531 102.087 80.2388C101.86 78.6526 101.649 77.0663 101.389 75.8766C99.4273 66.1529 97.5301 63.1866 97.5139 63.1866V63.1073C97.4692 62.987 97.415 62.8704 97.3517 62.7584C90.0374 62.1841 82.6808 62.3915 75.4124 63.377C75.007 65.4867 74.6827 67.8661 74.4233 70.5151C74.5274 71.3039 74.3248 72.1021 73.8557 72.7517C73.5963 73.1324 73.1585 73.64 72.672 74.2428C71.6467 75.3419 70.7744 76.5686 70.0775 77.8912C69.964 78.1291 69.883 78.3512 69.7857 78.5733C69.3524 79.9614 68.5786 81.2248 67.5317 82.2534C67.2825 82.516 67.0918 82.8265 66.9718 83.1652C66.8518 83.5038 66.805 83.8631 66.8345 84.2203C66.8255 84.4884 66.8793 84.755 66.9917 84.9997C67.1041 85.2443 67.2722 85.4606 67.4831 85.6321C67.9226 85.9157 68.3965 86.1448 68.8938 86.3142C70.1424 86.8059 71.8774 87.4721 71.7477 89.4867C71.6666 90.4543 71.6342 91.2474 71.6018 91.8026C72.1672 91.8833 72.7151 92.0548 73.2233 92.3102C73.9692 92.675 75.607 94.6103 76.9853 95.7365C78.3636 96.8627 78.8338 96.4662 78.8338 96.4662C79.1095 97.18 77.7636 96.9579 76.9853 96.4662C76.139 95.9531 75.2052 95.5931 74.2287 95.4034C74.2287 95.4034 71.7802 95.7365 72.1531 97.7193C72.1813 98.0129 72.3132 98.2877 72.5261 98.4966C72.6335 98.5113 72.7376 98.5434 72.8342 98.5917C73.4666 98.5917 74.2773 97.7193 74.2773 97.7193C74.1656 98.3479 73.8187 98.9133 73.3044 99.3056C73.7031 100.153 73.8384 101.096 73.6936 102.018C73.5849 102.412 73.4495 102.799 73.2882 103.176C72.6686 104.484 72.4007 105.926 72.5098 107.364C72.8342 109.331 75.3313 110.473 77.5204 110.504V110.441ZM66.5102 136.186L64.6941 137.36L63.7374 137.947C63.6608 137.995 63.5956 138.059 63.5461 138.135C63.4966 138.21 63.4639 138.294 63.4502 138.383C63.4364 138.471 63.4418 138.561 63.4662 138.647C63.4905 138.733 63.5332 138.814 63.5914 138.882C65.2129 140.754 66.8345 142.848 68.456 145.132C68.5516 145.27 68.6986 145.365 68.8654 145.398C69.0323 145.431 69.2055 145.398 69.3479 145.307L70.3532 144.641L74.0827 142.245L75.0557 141.611C75.1281 141.565 75.1901 141.505 75.2379 141.434C75.2857 141.364 75.3181 141.284 75.3333 141.201C75.3485 141.118 75.3461 141.032 75.3263 140.95C75.3064 140.868 75.2695 140.79 75.2178 140.723C73.5963 138.47 71.9747 136.376 70.3532 134.504C70.257 134.385 70.1184 134.306 69.9651 134.283C69.8118 134.259 69.6551 134.293 69.5262 134.378L66.5102 136.186ZM59.2457 134.06L63.7374 131.38L64.6778 130.777L65.6183 130.222C65.6985 130.173 65.7667 130.109 65.8179 130.031C65.8692 129.954 65.9023 129.867 65.9147 129.776C65.9271 129.685 65.9186 129.592 65.8898 129.504C65.861 129.417 65.8125 129.337 65.748 129.27C63.4779 126.843 61.6294 125.066 60.5591 124.067C60.4444 123.983 60.305 123.938 60.1619 123.938C60.0187 123.938 59.8794 123.983 59.7646 124.067L53.8298 127.874C53.7471 127.927 53.6779 127.998 53.6276 128.081C53.5772 128.164 53.5469 128.258 53.5391 128.354C53.5313 128.451 53.5461 128.547 53.5824 128.637C53.6188 128.727 53.6756 128.808 53.7487 128.873C55.1594 129.984 56.9918 131.744 59.2295 134.06H59.2457ZM45.5924 146.385C44.6681 145.212 42.1223 145.624 39.9008 147.305C37.6793 148.987 36.6577 151.303 37.5658 152.477C38.4739 153.65 41.0359 153.222 43.2574 151.541C45.4789 149.859 46.5167 147.543 45.5924 146.385ZM45.9978 156.458C43.3547 157.378 41.6358 159.25 42.1385 160.646C42.6412 162.042 45.2032 162.407 47.8301 161.487C50.457 160.567 52.2082 158.695 51.7056 157.299C51.2029 155.903 48.6733 155.522 45.9978 156.458ZM83.6498 168.91H86.6983C86.7976 168.911 86.8958 168.889 86.9852 168.847C87.0747 168.804 87.153 168.743 87.2141 168.666C87.2752 168.589 87.3175 168.5 87.3377 168.405C87.3579 168.31 87.3555 168.211 87.3307 168.117C86.9253 166.721 86.4712 165.357 85.9686 164.009C85.9352 163.92 85.8819 163.839 85.8126 163.773C85.7432 163.707 85.6596 163.657 85.5678 163.626C85.476 163.596 85.3785 163.586 85.2823 163.597C85.1861 163.608 85.0937 163.641 85.0119 163.691L82.4012 165.389C82.2766 165.464 82.1837 165.581 82.1391 165.718C82.0945 165.854 82.1012 166.002 82.158 166.134C82.4661 166.912 82.7579 167.721 83.0498 168.498C83.0956 168.618 83.1774 168.721 83.2845 168.795C83.3916 168.868 83.5189 168.909 83.6498 168.91ZM131.372 142.642V137.645L129.75 137.471L127.01 142.229L131.372 142.642ZM36.301 137.883C35.0524 137.058 32.7661 138.232 31.1932 140.5C29.6203 142.769 29.3608 145.259 30.6094 146.116C31.858 146.972 34.1606 145.767 35.7172 143.498C37.2739 141.23 37.5496 138.692 36.301 137.867V137.883ZM114.135 164.294L111.394 169.053L117.686 169.735L120.426 164.976L114.135 164.294ZM131.372 54.5099V40.9474L130.48 40.7095L125.161 53.225C126.977 53.5898 129.28 54.0498 131.372 54.5099ZM68.9263 142.642C69.0239 142.773 69.169 142.862 69.3318 142.891C69.4946 142.921 69.6628 142.888 69.8019 142.801L72.4288 141.103C72.5036 141.057 72.5678 140.996 72.6171 140.925C72.6664 140.853 72.6998 140.772 72.7151 140.686C72.7304 140.601 72.7272 140.514 72.7058 140.43C72.6844 140.346 72.6453 140.267 72.5909 140.199C71.6991 139.009 70.8072 137.883 69.9316 136.804C69.8298 136.683 69.6856 136.603 69.5268 136.579C69.3681 136.556 69.2061 136.591 69.0722 136.678L66.5102 138.375C66.4361 138.424 66.3731 138.487 66.3252 138.561C66.2773 138.635 66.2455 138.717 66.2318 138.804C66.2181 138.89 66.2228 138.978 66.2456 139.063C66.2684 139.147 66.3088 139.226 66.3642 139.295C67.1588 140.358 68.0344 141.42 68.9263 142.642ZM77.0339 67.7709H76.9366C77.488 67.9771 78.9636 68.4054 78.9636 68.4054C78.9636 67.7233 79.8878 66.9619 79.8878 66.9619C79.7419 69.6109 82.4661 70.4675 83.3741 70.8324C84.2822 71.1972 90.2819 73.8462 90.2819 73.8462H90.0548C87.6371 74.0847 85.2639 74.6451 83.0012 75.5118C81.1661 76.0643 79.6097 77.2699 78.6392 78.8905C78.6362 78.2098 78.8254 77.5416 79.1859 76.9594C79.5464 76.3772 80.0643 75.9037 80.6824 75.5911C80.5689 75.3214 80.277 74.6552 79.8392 73.4497C79.5234 72.4573 79.4842 71.4004 79.7257 70.3882C78.7078 69.6643 77.82 68.7798 77.0988 67.7709H77.0339ZM84.347 74.0366C85.3804 73.7544 86.4311 73.5372 87.4928 73.3862L84.347 72.3234C84.445 72.8905 84.445 73.4696 84.347 74.0366ZM82.5471 74.6394C82.8228 74.5125 83.1147 74.4173 83.4065 74.3063C83.5449 73.5242 83.5449 72.7248 83.4065 71.9427L82.612 71.6255C82.6565 72.6319 82.6131 73.6402 82.4823 74.6394H82.5471ZM76.6934 85.1086C76.9691 83.5224 75.7853 81.9361 76.0934 82.8561C76.2383 83.3676 76.2713 83.9032 76.1903 84.428C76.1092 84.9528 75.916 85.4549 75.6232 85.9017C75.275 86.1151 74.857 86.1911 74.4536 86.1146C74.0503 86.038 73.6917 85.8146 73.4503 85.4893C73.2182 85.1207 72.9115 84.8025 72.5489 84.5543C72.1864 84.3061 71.7758 84.133 71.3423 84.0458C71.0608 83.9989 70.7716 84.0255 70.5039 84.1229C70.2363 84.2204 69.9997 84.3854 69.8181 84.601C69.8181 85.759 71.7153 84.141 72.1693 85.4576C72.3521 85.9495 72.685 86.3747 73.123 86.6754C73.5609 86.9762 74.0828 87.138 74.6178 87.139C75.3962 87.139 76.3529 86.7742 76.6285 85.1086H76.6934ZM103.481 50.7029C106.908 50.6593 110.335 50.8023 113.745 51.1311L118.286 38.4411C110.921 37.4894 103.474 37.3139 96.0707 37.9177L98.5679 50.7822C99.8327 50.7187 101.568 50.7029 103.481 50.7029ZM84.7362 68.453C85.1893 69.2215 85.7335 69.935 86.3577 70.5786C87.4452 71.4616 88.6943 72.1345 90.0386 72.5614C90.5899 72.5614 90.0386 71.9745 90.0386 71.9745L84.7362 68.453ZM86.3577 50.7822L84.0714 39.5357C79.9645 40.3437 75.9134 41.4033 71.9423 42.7082L76.8069 51.3374L86.3577 50.7822ZM59.2619 131.491C59.3756 131.583 59.5191 131.634 59.6673 131.634C59.8155 131.634 59.959 131.583 60.0727 131.491L62.7482 129.762C62.8272 129.712 62.894 129.646 62.9437 129.568C62.9934 129.491 63.0249 129.403 63.0357 129.312C63.0466 129.221 63.0366 129.129 63.0065 129.042C62.9764 128.955 62.927 128.876 62.8617 128.81C61.8888 127.81 61.0456 126.986 60.3483 126.304C60.2346 126.211 60.0911 126.16 59.943 126.16C59.7948 126.16 59.6513 126.211 59.5376 126.304L56.781 128.064C56.7 128.116 56.632 128.186 56.582 128.267C56.532 128.348 56.5012 128.439 56.4918 128.533C56.4825 128.628 56.4949 128.723 56.5281 128.812C56.5613 128.901 56.6145 128.981 56.6837 129.048C57.4782 129.746 58.4025 130.571 59.2619 131.491ZM78.8825 65.6453C78.8825 65.6453 81.8337 65.8357 85.6605 66.2798C88.4689 66.8513 91.0913 68.0876 93.2979 69.8806H93.6709C93.8492 69.8806 92.8925 67.4061 88.5144 65.2012C83.6498 62.7742 78.7852 62.3618 77.8285 63.3929C76.8718 64.4239 78.8825 65.6453 78.8825 65.6453ZM78.7528 149.209C78.708 149.136 78.6487 149.073 78.5783 149.023C78.508 148.973 78.4281 148.937 78.3434 148.918C78.2587 148.898 78.1709 148.896 78.0852 148.911C77.9995 148.925 77.9177 148.957 77.8447 149.003L75.1529 150.732C75.0151 150.82 74.9177 150.957 74.8813 151.114C74.845 151.27 74.8726 151.435 74.9584 151.572C75.7205 152.857 76.4826 154.158 77.2123 155.522C77.2542 155.6 77.3122 155.668 77.3825 155.723C77.4529 155.778 77.5341 155.818 77.621 155.84C77.7079 155.862 77.7986 155.867 77.8873 155.853C77.9761 155.839 78.061 155.808 78.1366 155.76L80.8445 154.015C80.975 153.925 81.0681 153.793 81.1068 153.641C81.1455 153.49 81.1272 153.33 81.0553 153.19C80.3094 151.826 79.4824 150.494 78.7528 149.209ZM125.518 156.252L128.274 151.493L121.983 150.938L119.242 155.697L125.518 156.252ZM82.4823 93.6109C83.212 93.3095 83.3579 92.8019 82.9687 92.8971C82.9687 92.8971 82.3363 93.484 80.277 91.8184C78.2176 90.1529 76.0286 88.1225 74.0017 88.3446C71.9747 88.5666 72.3801 89.7405 74.2449 90.6605C76.1096 91.5805 76.3529 91.2315 78.2987 92.2467C80.2446 93.2619 81.7364 93.9282 82.4823 93.6109Z" fill="#24242E"/>
<path d="M85.567 160.338C85.4392 160.42 85.2947 160.474 85.1435 160.496C84.9923 160.518 84.838 160.507 84.6914 160.465C84.5509 160.423 84.4215 160.352 84.3122 160.256C84.203 160.16 84.1165 160.042 84.0589 159.91C83.6211 158.974 83.1833 158.038 82.713 157.102C82.6032 156.879 82.5788 156.626 82.6443 156.387C82.7098 156.148 82.8607 155.94 83.0697 155.801C83.2429 155.689 83.4457 155.628 83.6535 155.627H83.9292C84.0679 155.667 84.1968 155.734 84.3083 155.824C84.4198 155.914 84.5115 156.025 84.5778 156.15C85.0481 157.102 85.5022 158.07 85.94 159.021C86.0528 159.248 86.0771 159.506 86.0084 159.749C85.9397 159.991 85.7827 160.201 85.567 160.338ZM68.8319 141.033C69.0139 141.275 69.2832 141.438 69.5847 141.492C69.8862 141.545 70.197 141.483 70.4535 141.319L70.5995 141.224C70.7368 141.137 70.8539 141.023 70.9433 140.889C71.0327 140.755 71.0923 140.604 71.1184 140.447C71.1473 140.284 71.142 140.117 71.103 139.956C71.064 139.795 70.992 139.644 70.8914 139.511C70.5995 139.162 70.3238 138.797 70.0481 138.448C69.857 138.218 69.5859 138.065 69.2868 138.018C68.9877 137.971 68.6814 138.034 68.4265 138.194L68.2968 138.289C68.1531 138.375 68.0306 138.49 67.9381 138.627C67.8455 138.764 67.7853 138.92 67.7616 139.082C67.7123 139.401 67.7939 139.726 67.9887 139.987C68.2968 140.336 68.5562 140.684 68.8319 141.033ZM85.0481 165.382C84.9141 165.358 84.7767 165.358 84.6427 165.382C84.4073 165.384 84.177 165.45 83.9779 165.573C83.7474 165.721 83.5754 165.941 83.4899 166.198C83.4045 166.454 83.4107 166.732 83.5076 166.984L83.6373 167.333C83.7251 167.559 83.8802 167.754 84.0826 167.893C84.2851 168.031 84.5254 168.107 84.7724 168.111C84.9674 168.111 85.1597 168.066 85.3331 167.979C85.5065 167.892 85.6559 167.765 85.7688 167.61C85.8817 167.454 85.9547 167.274 85.9817 167.085C86.0086 166.897 85.9888 166.704 85.9238 166.524L85.7941 166.144C85.7327 165.962 85.6268 165.797 85.4854 165.664C85.3441 165.532 85.1717 165.435 84.9833 165.382H85.0481ZM88.8427 119.08C87.2211 120.491 85.1263 121.27 82.9562 121.269C82.3034 121.238 81.6653 121.068 81.0858 120.772C80.5064 120.477 79.9993 120.062 79.5995 119.556C78.1982 117.604 77.4452 115.278 77.4427 112.894C76.69 112.871 76.2427 112.894 75.0914 112.894C75.0326 115.89 76.0889 118.477 77.8643 120.92C78.4581 121.659 79.2067 122.265 80.0598 122.697C80.9129 123.129 81.8508 123.378 82.8103 123.426C85.5072 123.47 88.127 122.545 90.1724 120.825C89.6641 120.294 89.218 119.708 88.8427 119.08ZM74.6211 116.574H74.5238C70.0643 118.509 67.8427 117.541 67.0968 117.034C66.9736 116.944 66.8329 116.879 66.6834 116.844C66.5338 116.808 66.3785 116.803 66.2268 116.828C66.0752 116.854 65.9303 116.909 65.8011 116.99C65.6719 117.072 65.561 117.178 65.4751 117.303C65.3815 117.424 65.3144 117.562 65.2783 117.71C65.2421 117.857 65.2376 118.01 65.265 118.159C65.2925 118.308 65.3513 118.45 65.4377 118.576C65.5241 118.702 65.6362 118.808 65.767 118.89C67.0481 119.762 69.967 120.888 75.0914 118.731C74.8933 118.021 74.7363 117.301 74.6211 116.574ZM71.3779 148.806C71.5297 149.027 71.7646 149.181 72.0316 149.235C72.2986 149.288 72.5763 149.237 72.8049 149.092C72.9214 149.018 73.0217 148.922 73.0997 148.81C73.1777 148.698 73.2319 148.571 73.2592 148.438C73.2864 148.305 73.286 148.168 73.2581 148.035C73.2302 147.902 73.1754 147.776 73.0968 147.664C72.7724 147.188 72.286 146.506 71.8806 145.951C71.7848 145.81 71.6543 145.696 71.5011 145.619C71.348 145.541 71.1773 145.502 71.0049 145.507C70.7579 145.503 70.5177 145.586 70.3275 145.74C70.1373 145.894 70.0095 146.109 69.967 146.347C69.9367 146.478 69.9355 146.614 69.9634 146.745C69.9914 146.877 70.0479 147.001 70.1292 147.109C70.5995 147.632 71.0049 148.219 71.3779 148.806ZM68.6211 133.388C68.6422 133.244 68.6314 133.097 68.5894 132.957C68.5474 132.818 68.4753 132.689 68.3779 132.579L67.2265 131.31C67.1368 131.21 67.0273 131.129 66.9046 131.072C66.782 131.015 66.6488 130.982 66.513 130.977C66.3197 130.977 66.1297 131.026 65.9616 131.119C65.8294 131.199 65.7162 131.305 65.6295 131.431C65.5427 131.557 65.4846 131.699 65.4589 131.849C65.4387 131.997 65.4514 132.147 65.4962 132.289C65.541 132.432 65.6168 132.563 65.7184 132.674L66.8373 133.927C66.9979 134.111 67.2212 134.231 67.4657 134.266C67.7102 134.301 67.9593 134.248 68.167 134.117C68.2984 134.039 68.4102 133.932 68.4944 133.806C68.5785 133.68 68.6329 133.537 68.6535 133.388H68.6211ZM26.1833 143.825C25.8774 144.122 25.5465 144.392 25.1941 144.634C24.8645 144.852 24.5174 145.043 24.1562 145.205C25.0669 145.602 25.9547 146.047 26.8157 146.538C26.5664 145.378 26.5997 144.177 26.913 143.032C26.6912 143.315 26.4472 143.58 26.1833 143.825ZM76.0643 145.808C76.2162 146.029 76.451 146.183 76.718 146.237C76.985 146.29 77.2628 146.239 77.4914 146.094C77.6158 146.018 77.7231 145.919 77.8068 145.802C77.8905 145.685 77.9487 145.552 77.9778 145.411C78.0455 145.143 78.0048 144.859 77.8643 144.618C77.4589 144.016 77.0535 143.445 76.6481 142.874C76.5538 142.735 76.4259 142.623 76.2759 142.545C76.1258 142.467 75.9584 142.428 75.7887 142.429C75.5864 142.434 75.3896 142.494 75.2211 142.604C74.9796 142.763 74.8109 143.007 74.7508 143.286C74.7228 143.426 74.7242 143.569 74.7548 143.708C74.7855 143.847 74.8448 143.979 74.9292 144.095L76.0643 145.808ZM131.378 145.38C131.178 145.469 131.013 145.62 130.908 145.808L129.756 147.68C129.666 147.833 129.617 148.006 129.612 148.183C129.608 148.36 129.648 148.535 129.73 148.692C129.813 148.85 129.934 148.985 130.082 149.085C130.231 149.185 130.404 149.247 130.583 149.266C130.83 149.296 131.176 149.227 131.378 149.085V145.38ZM121.064 116.256C121.315 116.446 121.581 116.615 121.859 116.764L123.091 115.257C122.443 114.892 121.81 114.496 121.194 114.115L120.124 115.432C120.414 115.731 120.728 116.007 121.064 116.256ZM116.54 165.239C116.329 165.215 116.116 165.254 115.928 165.35C115.74 165.446 115.586 165.596 115.486 165.779L114.708 167.08C114.621 167.235 114.576 167.408 114.574 167.585C114.572 167.761 114.615 167.935 114.698 168.092C114.782 168.248 114.903 168.383 115.051 168.483C115.2 168.583 115.372 168.646 115.551 168.666C115.764 168.691 115.98 168.653 116.171 168.557C116.362 168.461 116.519 168.311 116.621 168.126L117.383 166.826C117.469 166.671 117.515 166.497 117.517 166.321C117.518 166.144 117.476 165.97 117.392 165.813C117.309 165.657 117.188 165.523 117.039 165.423C116.891 165.322 116.719 165.26 116.54 165.239ZM117.513 157.927C117.3 157.906 117.086 157.945 116.896 158.041C116.706 158.137 116.548 158.285 116.443 158.466L115.34 160.354C115.254 160.508 115.208 160.68 115.206 160.855C115.203 161.031 115.244 161.204 115.326 161.36C115.407 161.517 115.526 161.651 115.673 161.752C115.82 161.853 115.989 161.918 116.167 161.94C116.38 161.963 116.595 161.925 116.786 161.829C116.976 161.733 117.133 161.584 117.237 161.401L118.405 159.545C118.496 159.387 118.545 159.209 118.547 159.027C118.548 158.846 118.501 158.667 118.412 158.508C118.323 158.349 118.193 158.215 118.036 158.119C117.878 158.023 117.698 157.967 117.513 157.959V157.927ZM119.378 119.857C118.803 119.496 118.26 119.087 117.756 118.636C117.344 119.451 116.745 120.162 116.005 120.712C115.265 121.263 114.404 121.638 113.491 121.808C110.654 122.141 108.708 120.333 106.454 118.239C104.636 116.172 102.222 114.69 99.5292 113.988C98.1498 113.788 96.7418 113.902 95.4145 114.32C94.0871 114.738 92.8761 115.449 91.8751 116.399C91.9754 116.548 92.0571 116.707 92.1184 116.875C91.9887 116.526 92.1995 117.018 92.2481 117.097C92.3301 117.254 92.4278 117.403 92.54 117.541C92.6211 117.652 92.54 117.541 92.7184 117.732C92.834 117.876 92.9586 118.014 93.0914 118.144C93.8618 117.353 94.8134 116.752 95.8678 116.39C96.9223 116.029 98.0493 115.918 99.1562 116.066C101.408 116.72 103.415 118.005 104.929 119.762C107.054 121.761 109.437 123.997 112.81 123.997C113.118 123.997 113.443 123.997 113.767 123.997C114.968 123.804 116.109 123.348 117.106 122.665C118.102 121.981 118.929 121.086 119.524 120.048L119.378 119.857ZM123.351 155.294C123.562 155.315 123.774 155.276 123.964 155.184C124.153 155.091 124.312 154.948 124.421 154.77L125.183 153.454C125.269 153.299 125.315 153.125 125.317 152.949C125.318 152.772 125.276 152.598 125.192 152.441C125.109 152.285 124.988 152.151 124.839 152.051C124.691 151.95 124.519 151.888 124.34 151.867C124.127 151.842 123.911 151.88 123.72 151.976C123.529 152.072 123.372 152.222 123.27 152.407L122.508 153.723C122.418 153.877 122.368 154.05 122.364 154.226C122.359 154.403 122.4 154.578 122.482 154.736C122.564 154.893 122.685 155.028 122.834 155.128C122.983 155.229 123.155 155.291 123.335 155.31L123.351 155.294ZM34.6643 148.727C33.7193 149.363 32.647 149.795 31.5184 149.996C32.2319 150.598 32.913 151.249 33.5616 151.915C33.6793 150.785 34.0562 149.695 34.6643 148.727ZM122.832 162.67C123.045 162.693 123.26 162.654 123.45 162.558C123.641 162.462 123.798 162.314 123.902 162.13L124.989 160.259C125.079 160.105 125.128 159.932 125.133 159.756C125.137 159.579 125.097 159.404 125.014 159.246C124.932 159.089 124.811 158.954 124.662 158.854C124.514 158.753 124.341 158.691 124.162 158.672C123.951 158.65 123.737 158.687 123.548 158.78C123.358 158.873 123.199 159.017 123.091 159.196L122.005 161.068C121.915 161.222 121.866 161.396 121.862 161.573C121.858 161.751 121.898 161.927 121.98 162.085C122.062 162.244 122.183 162.38 122.331 162.482C122.48 162.584 122.652 162.648 122.832 162.67ZM127.372 117.478C125.856 118.021 124.212 118.126 122.637 117.779C121.432 117.358 120.328 116.7 119.394 115.844C117.432 114.353 115.567 112.735 112.729 112.894C109.891 113.052 107.832 114.559 106.097 116.558C106.632 117.05 107.183 117.525 107.718 118.001C109.34 116.225 110.508 115.098 112.486 114.987C114.464 114.876 116.281 116.241 118.016 117.557C119.221 118.659 120.678 119.464 122.264 119.905C124.859 120.365 128.07 120.19 129.675 118.493C128.881 118.16 128.135 117.827 127.372 117.478ZM125.313 144.618C125.104 144.595 124.893 144.632 124.705 144.725C124.518 144.818 124.363 144.963 124.259 145.142L123.156 147.045C123.066 147.199 123.017 147.372 123.012 147.548C123.008 147.725 123.048 147.9 123.13 148.058C123.213 148.215 123.334 148.35 123.482 148.45C123.631 148.551 123.804 148.613 123.983 148.632C124.192 148.655 124.403 148.618 124.591 148.525C124.778 148.432 124.934 148.287 125.037 148.108L126.14 146.205C126.23 146.051 126.28 145.878 126.284 145.702C126.289 145.525 126.248 145.35 126.166 145.192C126.084 145.035 125.963 144.9 125.814 144.8C125.665 144.699 125.493 144.637 125.313 144.618ZM14.6211 156.943V162.067C14.6788 162.168 14.7588 162.255 14.8554 162.322C14.9519 162.389 15.0624 162.434 15.179 162.454C15.2955 162.473 15.4151 162.467 15.529 162.436C15.6429 162.405 15.7482 162.349 15.8373 162.273L16.9562 161.29C17.0759 161.187 17.2239 161.12 17.3819 161.099C17.5399 161.078 17.7007 161.103 17.8444 161.17C17.988 161.238 18.1081 161.346 18.1895 161.48C18.2709 161.614 18.3101 161.768 18.3022 161.924L18.2049 163.384C18.2006 163.51 18.2265 163.635 18.2805 163.749C18.3346 163.864 18.4152 163.964 18.516 164.043C18.6169 164.122 18.7351 164.176 18.8613 164.202C18.9874 164.228 19.1181 164.225 19.2427 164.193L20.686 163.78C20.8389 163.74 21.0006 163.744 21.151 163.793C21.3013 163.842 21.4339 163.932 21.5322 164.054C21.6305 164.175 21.6903 164.322 21.7042 164.477C21.718 164.631 21.6854 164.786 21.6103 164.922L20.8806 166.207C20.8157 166.317 20.7792 166.44 20.7741 166.566C20.7691 166.693 20.7957 166.819 20.8516 166.933C20.9075 167.047 20.9911 167.146 21.0951 167.221C21.199 167.297 21.3202 167.346 21.4481 167.365L22.94 167.603C23.0971 167.631 23.2424 167.703 23.3575 167.812C23.4726 167.92 23.5525 168.059 23.5871 168.211C23.6218 168.364 23.6096 168.523 23.5522 168.669C23.4948 168.814 23.3946 168.94 23.2643 169.031C22.7676 169.421 21.7866 169.938 21.7786 169.998H27.2492C27.2702 166.587 25.9764 163.941 23.6427 161.406C21.309 158.871 18.0917 157.279 14.6211 156.943ZM131.378 135.101V132.88L130.924 133.657C130.854 133.781 130.81 133.917 130.795 134.057C130.78 134.197 130.794 134.339 130.836 134.474C130.879 134.609 130.949 134.734 131.042 134.841C131.135 134.949 131.249 135.037 131.378 135.101ZM131.378 141.922V138.829C131.255 138.92 131.15 139.033 131.07 139.162L130.291 140.478C130.234 140.627 130.211 140.786 130.224 140.944C130.237 141.103 130.285 141.256 130.366 141.394C130.446 141.532 130.557 141.651 130.69 141.742C130.823 141.833 130.975 141.895 131.135 141.922H131.378ZM94.1616 123.268C95.3956 124.223 96.9035 124.777 98.4751 124.854C99.4872 124.821 100.482 124.588 101.399 124.168C102.316 123.748 103.136 123.15 103.81 122.411C104.281 121.935 104.718 121.491 105.14 121.031L103.518 119.603C103.129 120.016 102.724 120.444 102.286 120.872C99.0427 124.045 96.9346 122.459 95.4914 121.57C94.688 120.848 93.9401 120.068 93.2535 119.239C91.2914 117.018 88.8427 114.274 86.767 113.592C83.6697 112.576 81.9022 113.243 78.3833 114.845C78.4703 115.583 78.6112 116.315 78.8049 117.034C82.486 115.352 83.6697 114.845 86.0697 115.638C87.5779 116.13 90.0103 118.81 91.6157 120.65C92.3623 121.613 93.2162 122.49 94.1616 123.268ZM62.0535 136.893C62.2179 137.072 62.4406 137.188 62.6834 137.223C62.9261 137.257 63.1736 137.208 63.3833 137.084C63.5141 137.003 63.6263 136.896 63.7129 136.77C63.7994 136.645 63.8583 136.503 63.886 136.354C63.906 136.209 63.8931 136.061 63.8483 135.921C63.8034 135.782 63.7277 135.653 63.6265 135.545L62.4265 134.213C62.3281 134.107 62.2079 134.022 62.0738 133.965C61.9396 133.907 61.7945 133.878 61.6481 133.88C61.46 133.88 61.2754 133.93 61.113 134.022C60.9808 134.102 60.8675 134.208 60.7808 134.334C60.6941 134.46 60.636 134.602 60.6103 134.752C60.5866 134.9 60.5976 135.051 60.6426 135.194C60.6875 135.337 60.7652 135.468 60.8697 135.577C61.2589 135.989 61.6481 136.433 62.0535 136.893ZM77.2643 153.739C77.3419 153.882 77.4501 154.008 77.5817 154.106C77.7132 154.205 77.8649 154.274 78.0265 154.31C78.1883 154.353 78.3574 154.36 78.5225 154.333C78.6876 154.305 78.8447 154.244 78.9833 154.152L79.1941 154.025C79.4503 153.856 79.6325 153.6 79.7046 153.306C79.7767 153.012 79.7334 152.703 79.5833 152.439C79.3238 151.963 79.0481 151.487 78.7562 151.011C78.6762 150.87 78.5672 150.746 78.4361 150.648C78.3049 150.549 78.1545 150.479 77.9941 150.44H77.7022C77.4641 150.44 77.2318 150.512 77.0373 150.646L76.8427 150.773C76.5865 150.942 76.4043 151.198 76.3322 151.492C76.2601 151.786 76.3034 152.095 76.4535 152.359L77.2643 153.739ZM79.486 162.876C79.5498 163.005 79.6405 163.12 79.7521 163.213C79.8638 163.305 79.9941 163.374 80.1346 163.415C80.2779 163.462 80.4305 163.475 80.5799 163.453C80.7293 163.431 80.8712 163.374 80.9941 163.288C81.2035 163.158 81.358 162.957 81.4294 162.725C81.5009 162.492 81.4845 162.241 81.3833 162.019C80.9454 161.068 80.4751 160.116 80.0049 159.18C79.9457 159.05 79.8563 158.934 79.7437 158.843C79.6311 158.753 79.4985 158.689 79.3562 158.657C79.265 158.641 79.1718 158.641 79.0806 158.657C78.8779 158.658 78.6803 158.719 78.513 158.831C78.304 158.97 78.153 159.178 78.0875 159.417C78.022 159.655 78.0464 159.909 78.1562 160.132C78.5779 161.02 79.0319 161.956 79.486 162.876ZM38.2968 156.531C37.8943 156.528 37.4928 156.491 37.0968 156.42C37.6179 157.249 38.089 158.107 38.5076 158.99C38.9597 157.904 39.665 156.937 40.567 156.166C40.2162 156.273 39.8587 156.358 39.4968 156.42C39.0892 156.485 38.6773 156.523 38.2643 156.531H38.2968ZM42.9022 165.573C43.2203 165.392 43.5509 165.233 43.8914 165.097C42.6604 165.081 41.4521 164.771 40.3724 164.193C40.6139 165.176 40.798 166.171 40.9238 167.175C41.458 166.52 42.1194 165.976 42.8697 165.573H42.9022ZM60.9508 128.264L60.5616 127.899C60.4511 127.786 60.3175 127.696 60.1696 127.636C60.0216 127.576 59.8624 127.547 59.7022 127.55C59.4668 127.552 59.2365 127.618 59.0373 127.741L58.8751 127.852C58.7309 127.957 58.6133 128.093 58.5318 128.25C58.4502 128.407 58.4068 128.58 58.4049 128.756C58.3815 128.931 58.4017 129.109 58.4638 129.275C58.5259 129.44 58.6281 129.589 58.7616 129.708L59.1184 130.073C59.3157 130.266 59.5759 130.387 59.8542 130.413C60.1325 130.439 60.4114 130.369 60.6427 130.215L60.8049 130.12C60.9569 130.025 61.0844 129.897 61.1772 129.745C61.2701 129.594 61.3258 129.424 61.34 129.248C61.3581 129.065 61.3323 128.882 61.2647 128.711C61.1971 128.54 61.0896 128.387 60.9508 128.264Z" fill="#F4C900"/>
<path d="M118.472 111.688L120.427 112.995L120.281 113.17L119.368 114.285C118.256 113.39 117.022 112.65 115.702 112.086L118.472 111.688ZM120.444 120.244V120.34C119.798 121.305 119.019 122.179 118.13 122.937C120.249 122.421 122.329 121.761 124.355 120.961C123.589 120.946 122.827 120.872 122.073 120.738C121.511 120.641 120.963 120.475 120.444 120.244ZM112.426 115.815C114.041 115.997 115.548 116.697 116.712 117.806C115.457 119.607 114.528 120.308 113.208 120.467C112.288 120.514 111.37 120.354 110.522 120.001C109.675 119.647 108.921 119.109 108.319 118.428C109.949 116.723 110.927 115.894 112.426 115.815ZM112.622 116.548C112.189 116.548 111.775 116.715 111.469 117.014C111.164 117.313 110.992 117.718 110.992 118.141C110.992 118.563 111.164 118.969 111.469 119.268C111.775 119.566 112.189 119.734 112.622 119.734C113.054 119.734 113.468 119.566 113.774 119.268C114.079 118.969 114.251 118.563 114.251 118.141C114.251 117.718 114.079 117.313 113.774 117.014C113.468 116.715 113.054 116.548 112.622 116.548ZM126.343 116.436C125.626 116.07 124.925 115.687 124.224 115.305L123.768 115.862L123.214 116.532C124.253 116.705 125.317 116.673 126.343 116.436ZM60.4737 121.216C60.3454 121.119 60.1878 121.066 60.0256 121.066C59.8634 121.066 59.7058 121.119 59.5774 121.216L49.7997 127.462C49.7026 127.525 49.6224 127.61 49.5657 127.71C49.509 127.81 49.4775 127.921 49.4738 128.035C49.494 128.15 49.5433 128.259 49.6173 128.351C49.6913 128.443 49.7876 128.515 49.8975 128.561C63.3205 139.762 73.2 153.697 78.9846 169.998H80.6527C74.8359 153.564 64.931 139.466 51.5271 128.035L59.9359 122.634C63.1952 125.534 84.2287 144.695 90.2909 169.996H91.7901C88.5309 155.927 80.8114 144.255 74.5536 136.272C70.3405 130.834 65.6276 125.783 60.4737 121.184V121.216ZM95.4127 125.135C94.7092 124.828 94.0379 124.455 93.4083 124.02C92.4415 123.26 91.5667 122.394 90.8009 121.439C88.9779 122.917 86.7834 123.891 84.4454 124.259C88.081 124.752 91.7431 125.034 95.4127 125.104V125.135ZM51.5271 169.604C51.5271 168.728 50.1419 168.011 48.496 168.106C46.8501 168.202 45.5138 168.887 45.5464 169.7C45.5584 169.859 45.5422 169.857 45.621 169.998C47.6235 169.998 48.8707 169.998 51.4002 169.998C51.5107 169.84 51.5021 169.794 51.5271 169.604ZM94.4513 113.154C92.2187 113.154 90.1002 113.026 88.1447 112.915C89.1942 113.58 90.1621 114.36 91.0291 115.241C92.0506 114.374 93.2055 113.67 94.4513 113.154ZM115.327 146.246C114.831 145.706 114.148 145.366 113.409 145.292C112.671 145.219 111.931 145.417 111.334 145.848C111.184 145.113 110.749 144.462 110.121 144.032C109.493 143.602 108.719 143.425 107.961 143.538C104.93 143.729 104.588 146.406 105.076 148.589C105.288 149.529 107.961 155.233 107.961 155.233C107.961 155.233 113.502 152.54 114.284 151.95C116.076 150.564 117.543 148.27 115.327 146.246ZM131.378 122.889C125.173 125.237 118.749 126.992 112.198 128.131C112.119 128.146 112.044 128.178 111.979 128.224C111.914 128.271 111.861 128.332 111.823 128.402L91.9417 163.613C91.8712 163.738 91.854 163.885 91.8936 164.022C91.9333 164.159 92.0267 164.276 92.1535 164.346C92.239 164.368 92.3287 164.368 92.4142 164.346C92.513 164.348 92.6105 164.323 92.6964 164.276C92.7824 164.228 92.8537 164.159 92.9031 164.075L112.67 129.15C119.052 128.019 125.314 126.318 131.378 124.068V122.889ZM105.248 169.996H107.806L131.378 129.501V125.119L105.248 169.996ZM70.6751 162.02L72.8914 160.427C72.8253 160.319 72.7655 160.207 72.7122 160.092L72.5492 159.805C72.044 158.913 71.7181 158.387 71.7181 158.387C67.2093 161.693 63.8209 165.284 60.9026 169.998H64.7435L63.6841 169.206C65.1421 167.18 66.7779 165.282 68.5729 163.534C69.73 164.665 72.1765 167.305 74.5883 169.998H77.8621C75.0429 166.827 70.8218 162.02 70.6751 162.02ZM131.378 155.647V151.233L120.537 169.998H123.096L131.378 155.647ZM123.051 132.704C122.56 132.158 121.877 131.812 121.137 131.735C120.398 131.659 119.656 131.856 119.059 132.289C118.904 131.554 118.466 130.905 117.835 130.477C117.203 130.05 116.427 129.877 115.669 129.995C112.654 130.17 112.296 132.847 112.784 135.03C112.996 135.97 115.669 141.674 115.669 141.674C115.669 141.674 121.226 138.981 121.992 138.392C123.801 136.989 125.267 134.695 123.051 132.688V132.704ZM103.675 159.407C103.517 158.673 103.078 158.027 102.447 157.6C101.817 157.173 101.043 156.999 100.285 157.113C97.2705 157.288 96.912 159.965 97.4009 162.163C97.6127 163.103 100.302 168.791 100.302 168.791C100.302 168.791 105.842 166.115 106.608 165.509C108.417 164.123 109.867 161.845 107.667 159.821C107.17 159.285 106.488 158.946 105.752 158.87C105.016 158.793 104.276 158.985 103.675 159.407ZM94.0276 118.444C94.6407 117.832 95.3921 117.369 96.2213 117.092C97.0505 116.815 97.9345 116.733 98.8024 116.85C100.126 117.169 101.34 117.823 102.322 118.746L101.312 119.782C98.7698 122.252 97.3031 121.28 95.9016 120.34C95.2433 119.74 94.6178 119.107 94.0276 118.444ZM98.3135 120.595C98.7457 120.595 99.1602 120.427 99.4658 120.128C99.7714 119.829 99.9431 119.424 99.9431 119.001C99.9431 118.579 99.7714 118.173 99.4658 117.875C99.1602 117.576 98.7457 117.408 98.3135 117.408C97.8813 117.408 97.4668 117.576 97.1612 117.875C96.8555 118.173 96.6838 118.579 96.6838 119.001C96.6838 119.424 96.8555 119.829 97.1612 120.128C97.4668 120.427 97.8813 120.595 98.3135 120.595ZM104.359 137.611L104.995 136.4C95.1133 137.189 85.1662 136.393 75.5477 134.042L76.5418 135.348C85.5699 137.893 95.0216 138.678 104.359 137.659V137.611ZM73.8203 42.9696L77.4381 49.3428L84.2987 48.8966L82.6691 40.6434C79.6543 41.3285 76.6884 42.0933 73.8203 42.9696ZM127.19 51.653L131.378 52.5293V41.8862L127.19 51.653ZM131.378 35.2422V37.0266L130.564 36.8195C129.991 36.6872 129.39 36.7569 128.865 37.0164C128.34 37.2759 127.926 37.7084 127.695 38.2375L121.601 52.3859C121.455 52.7152 121.387 53.072 121.4 53.4305C121.414 53.7889 121.509 54.1398 121.68 54.4575C121.85 54.7752 122.091 55.0517 122.384 55.2666C122.678 55.4816 123.017 55.6297 123.377 55.7C125.463 56.1142 128.738 56.7799 131.378 57.3057V60.0621C118.162 57.1657 104.59 55.7156 91.0454 55.7637C83.0113 55.7637 76.8188 56.2417 73.8529 56.5444H73.2499L72.9729 56.178C66.8944 47.5583 63.3256 42.6191 62.6411 41.8384C62.5504 41.7313 62.5039 41.5949 62.5107 41.456C62.5107 41.456 62.5107 41.3285 62.5107 41.2648C62.5107 41.2011 62.5107 41.1533 62.5107 41.0895C62.4938 40.9786 62.4938 40.8659 62.5107 40.7549C62.6087 40.4144 62.8071 40.1096 63.0811 39.8786L63.7656 39.6078C85.2701 31.2253 108.933 29.6975 131.378 35.2422ZM89.5298 50.6333L86.955 37.5365C86.906 37.214 86.7877 36.9053 86.608 36.6307C86.4282 36.3561 86.1911 36.1218 85.9121 35.9432C85.3818 35.608 84.7388 35.488 84.1195 35.6086C79.1939 36.5074 74.3412 37.7534 69.5996 39.3369C69.2598 39.4534 68.9498 39.6405 68.691 39.8853C68.4322 40.1301 68.2307 40.4267 68.1003 40.7549C67.9741 41.0881 67.9219 41.4437 67.9472 41.7981C67.9725 42.1525 68.0747 42.4975 68.247 42.8103L73.9344 52.8002C74.1547 53.1765 74.4725 53.4895 74.8559 53.7077C75.2392 53.9259 75.6745 54.0415 76.1181 54.043H76.2484L87.2321 53.4534C87.5853 53.4371 87.9307 53.3464 88.2449 53.1877C88.5591 53.0291 88.8345 52.806 89.0526 52.5339C89.2707 52.2617 89.4262 51.9468 89.5085 51.6106C89.5909 51.2744 89.5981 50.9247 89.5298 50.5855V50.6333ZM94.6631 34.1428C94.3182 34.1747 93.9837 34.2761 93.6808 34.4407C93.3779 34.6052 93.1131 34.8293 92.9031 35.0988C92.6939 35.3682 92.5451 35.6777 92.4664 36.0072C92.3878 36.3366 92.3811 36.6786 92.4468 37.0107L95.2661 51.5415C95.3758 52.097 95.6796 52.5978 96.1256 52.9583C96.5716 53.3188 97.1319 53.5163 97.7105 53.5172C103.081 53.3034 108.46 53.4418 113.811 53.9314H114.17C114.681 53.933 115.18 53.781 115.6 53.496C116.019 53.211 116.339 52.8068 116.516 52.3381L121.65 37.9986C121.77 37.6609 121.812 37.3012 121.773 36.9457C121.733 36.5902 121.613 36.2477 121.421 35.9432C121.229 35.6364 120.971 35.3746 120.664 35.1764C120.357 34.9781 120.009 34.8483 119.645 34.796C111.372 33.6357 102.988 33.4165 94.6631 34.1428ZM103.398 48.7373C107.146 48.7373 110.259 48.8329 112.654 49.056L116.223 39.0501C110.061 38.3626 103.849 38.2239 97.6616 38.6359L99.6335 48.7692C100.921 48.7373 102.192 48.7373 103.398 48.7373ZM40.1198 148.111C38.8161 149.098 38.1968 150.453 38.7346 151.138C39.2724 151.823 40.7879 151.584 42.0916 150.596C43.3953 149.608 44.0146 148.238 43.4768 147.553C42.939 146.868 41.4561 147.107 40.1198 148.111ZM47.0457 160.427C48.6753 159.869 49.6205 158.833 49.3271 157.957C49.0338 157.081 47.5183 156.906 45.9701 157.447C44.422 157.989 43.379 159.041 43.6887 159.917C43.9983 160.793 45.4812 160.968 47.0457 160.427ZM73.2499 131.955C87.1669 136.735 105.94 134.791 105.94 134.791L109.199 128.816C87.8024 131.222 66.5196 124.291 66.5196 124.291C68.0515 126.044 73.2499 131.955 73.2499 131.955ZM105.582 121.726C105.174 122.172 104.816 122.554 104.441 122.905C103.541 123.811 102.481 124.551 101.312 125.088C104.571 124.992 107.439 124.753 110.047 124.418C108.389 123.822 106.87 122.907 105.582 121.726ZM31.3036 144.303C32.0369 144.797 33.3895 144.096 34.3183 142.709C35.2472 141.323 35.3939 139.889 34.6606 139.395C33.9272 138.901 32.5747 139.602 31.6458 140.989C30.7169 142.375 30.5702 143.825 31.3036 144.303ZM67.8233 116.117C68.6055 116.468 70.447 116.834 73.8366 115.369L74.2114 115.209C74.0516 114.255 73.9536 113.292 73.9181 112.325L67.8233 116.117ZM108.173 112.835C105.891 112.995 103.659 113.09 101.475 113.138C102.866 113.705 104.15 114.496 105.272 115.48C106.089 114.481 107.036 113.592 108.091 112.835H108.173ZM107.586 98.894C101.119 103.073 94.2005 106.541 86.955 109.234C96.2693 109.65 105.603 109.288 114.854 108.151C112.152 105.648 109.84 102.771 107.993 99.611C107.765 99.372 107.635 99.133 107.505 98.894H107.586ZM85.5536 116.42C86.4155 116.838 87.1851 117.417 87.8187 118.125C86.449 119.256 84.7226 119.892 82.9299 119.925C82.4254 119.903 81.9319 119.774 81.4842 119.545C81.0366 119.317 80.6456 118.995 80.3388 118.603C80.0608 118.277 79.8254 117.918 79.638 117.535C82.7343 116.101 83.598 115.815 85.4721 116.452L85.5536 116.42ZM83.5817 116.42C83.1495 116.42 82.735 116.588 82.4294 116.887C82.1238 117.186 81.9521 117.591 81.9521 118.013C81.9521 118.436 82.1238 118.841 82.4294 119.14C82.735 119.439 83.1495 119.607 83.5817 119.607C83.7957 119.601 84.0066 119.555 84.2022 119.47C84.3979 119.385 84.5746 119.264 84.7221 119.112C84.8696 118.96 84.9852 118.782 85.0621 118.586C85.1391 118.391 85.1759 118.183 85.1706 117.974C85.1652 117.764 85.1178 117.558 85.031 117.367C84.9441 117.176 84.8196 117.003 84.6645 116.859C84.5094 116.714 84.3267 116.601 84.127 116.526C83.9272 116.451 83.7142 116.415 83.5002 116.42H83.5817ZM76.8351 121.375C76.328 120.76 75.8909 120.092 75.5314 119.384H75.3847C73.6607 120.141 71.8116 120.589 69.9255 120.706C72.9524 121.822 76.0635 122.706 79.2306 123.351C78.2796 122.859 77.4378 122.187 76.7536 121.375H76.8351ZM78.3669 112.485C78.3669 112.772 78.3669 113.042 78.3669 113.313C79.2143 112.931 79.9966 112.612 80.7136 112.357L78.2855 112.118L78.3669 112.485Z" fill="#C72F2A"/>
</g>
<path d="M34.3076 75.5977C31.9999 75.5977 29.846 76.5207 28.1537 78.0592C27.9999 78.213 27.846 78.213 27.6922 78.0592C26.1537 76.5207 23.9999 75.5977 21.5383 75.5977C16.6152 75.5977 12.6152 79.5977 12.6152 84.6746C12.6152 89.1361 14.7691 91.4438 20.4614 96.213C22.7691 98.213 26.1537 102.367 27.3845 104.059C27.6922 104.521 28.3076 104.521 28.6152 104.059C29.9999 102.367 33.2306 98.213 35.5383 96.213C41.0768 91.29 43.3845 89.1361 43.3845 84.6746C43.3845 79.5977 39.3845 75.5977 34.3076 75.5977Z" fill="#BF3030"/>
<path d="M32.4381 11.756H38.8761V46.906C38.8761 54.528 38.5801 56.008 38.0621 57.562C35.6941 64.74 27.8501 64.74 26.0741 64.74C19.1181 64.74 16.0101 60.892 15.0481 57.34C14.4561 55.194 14.4561 53.566 14.4561 48.312H20.7461C20.7461 53.936 20.8201 54.75 21.3381 56.082C22.1521 58.08 23.9281 59.19 26.0001 59.19C31.2541 59.264 32.2161 55.416 32.3641 53.27C32.4381 52.234 32.4381 48.46 32.4381 47.276V11.756Z" fill="#BF3030"/>
<defs>
<linearGradient id="paint0_linear_324_104519" x1="92" y1="2" x2="92" y2="182" gradientUnits="userSpaceOnUse">
<stop stop-color="white" stop-opacity="0.85"/>
<stop offset="1" stop-color="white" stop-opacity="0.15"/>
</linearGradient>
<clipPath id="clip0_324_104519">
<rect width="116.757" height="165" fill="white" transform="translate(14.6211 5)"/>
</clipPath>
</defs>
</svg>
