<svg width="184" height="184" viewBox="0 0 184 184" fill="none" xmlns="http://www.w3.org/2000/svg">
<rect x="1" y="1" width="182" height="182" rx="13" stroke="black" stroke-opacity="0.25" stroke-width="2"/>
<rect x="2.5" y="2.5" width="179" height="179" rx="11.5" fill="#E9E9E9" stroke="url(#paint0_linear_324_104466)"/>
<rect x="41.0449" y="30.5" width="101.909" height="123" rx="1.5" fill="#D7D5D7" stroke="#CDCFD6"/>
<path d="M85.6154 90.8257C76.2692 103.287 65.5385 115.057 53.7692 125.787C53.0769 126.48 53.0769 127.518 53.7692 128.21C65.5385 138.941 76.2692 150.71 85.6154 163.172C86.3077 164.21 87.6923 164.21 88.3846 163.172C97.7308 150.71 108.462 138.941 120.231 128.21C120.923 127.518 120.923 126.48 120.231 125.787C108.462 115.057 97.7308 103.287 88.3846 90.8257C87.6923 89.7873 86.3077 89.7873 85.6154 90.8257Z" fill="#BF3030"/>
<path d="M27.3846 73.9243C23.2308 79.4627 18.4615 84.6935 13.2308 89.4627C12.9231 89.7704 12.9231 90.232 13.2308 90.5397C18.4615 95.3089 23.2308 100.54 27.3846 106.078C27.6923 106.54 28.3077 106.54 28.6154 106.078C32.7692 100.54 37.5385 95.3089 42.7692 90.5397C43.0769 90.232 43.0769 89.7704 42.7692 89.4627C37.5385 84.6935 32.7692 79.4627 28.6154 73.9243C28.3077 73.4627 27.6923 73.4627 27.3846 73.9243Z" fill="#BF3030"/>
<path d="M16.583 50.236H22.577C22.503 52.826 22.503 54.01 22.577 54.232C22.577 55.49 22.725 58.894 27.461 58.894C32.345 58.894 32.419 55.268 32.567 49.94C32.641 48.756 32.567 42.836 32.567 41.504C31.383 42.688 29.311 44.76 25.019 44.76C16.065 44.76 16.065 35.954 16.065 32.698C16.065 27.962 16.065 21.598 16.731 18.564C17.915 12.792 22.947 11.09 27.461 11.09C29.459 11.09 31.531 11.312 33.307 12.2C34.343 12.718 37.821 14.79 38.561 19.896C38.783 21.154 38.783 22.486 38.783 34.252C38.783 37.582 38.709 52.308 38.561 54.602C37.747 63.704 31.013 64.666 27.387 64.666C22.207 64.666 17.841 62.15 16.879 57.562C16.583 56.304 16.583 55.712 16.583 50.236ZM32.641 28.258C32.641 28.036 32.641 22.264 32.567 21.672C32.123 18.046 29.903 16.788 27.683 16.788C25.833 16.788 22.947 17.676 22.503 21.746C22.355 23.004 22.281 28.332 22.281 30.404L22.355 34.252C22.577 37.212 24.427 39.136 27.609 39.136C30.717 39.136 32.641 37.138 32.641 33.438V28.258Z" fill="#BF3030"/>
<defs>
<linearGradient id="paint0_linear_324_104466" x1="92" y1="2" x2="92" y2="182" gradientUnits="userSpaceOnUse">
<stop stop-color="white" stop-opacity="0.85"/>
<stop offset="1" stop-color="white" stop-opacity="0.15"/>
</linearGradient>
</defs>
</svg>
