<svg width="184" height="184" viewBox="0 0 184 184" fill="none" xmlns="http://www.w3.org/2000/svg">
<rect x="1" y="1" width="182" height="182" rx="13" stroke="black" stroke-opacity="0.25" stroke-width="2"/>
<rect x="2.5" y="2.5" width="179" height="179" rx="11.5" fill="#E9E9E9" stroke="url(#paint0_linear_324_104577)"/>
<rect x="41.0449" y="30.5" width="101.909" height="123" rx="1.5" fill="#D7D5D7" stroke="#CDCFD6"/>
<g clip-path="url(#clip0_324_104577)">
<path d="M129.378 42.1203V165.227C129.378 166.493 128.865 167.707 127.953 168.602C127.041 169.497 125.803 170 124.513 170H17.486C16.1957 170 14.9583 169.497 14.046 168.602C13.1336 167.707 12.6211 166.493 12.6211 165.227V155.362C26.0157 143.762 53.8751 123.364 57.8319 120.723L58.0265 120.675L57.8157 120.054C57.4884 118.92 57.4884 117.72 57.8157 116.586C58.068 115.78 58.4859 115.034 59.0438 114.394C59.6017 113.754 60.2875 113.232 61.0589 112.862C61.4461 112.67 61.8541 112.52 62.2751 112.417L62.7941 112.274L62.486 111.86C61.3576 110.259 60.5234 108.476 60.0211 106.593C58.9154 102.078 59.3542 97.3311 61.2697 93.0845V92.9413V92.7981C60.0734 89.8436 59.8221 86.6018 60.5492 83.5038C61.2762 80.4057 62.9473 77.5982 65.34 75.4547L65.486 75.3274V75.1205C65.3724 74.6432 65.2751 74.1818 65.1778 73.7203C64.9995 72.9248 64.8211 72.1292 64.6103 71.3177C64.4806 70.8404 64.286 70.188 64.0427 69.4243L62.8914 65.8283C61.4567 63.1666 59.8816 60.5801 58.1724 58.0794C56.6806 55.7882 55.1076 53.4174 53.7941 50.9829L53.6481 50.6647C53.0643 49.2486 52.1887 47.1005 52.9833 45.573C53.1878 45.2034 53.4724 44.8823 53.817 44.6321C54.1616 44.382 54.5578 44.2089 54.9779 44.1251H55.0589C57.0219 43.8571 59.022 44.0703 60.8806 44.7457L61.2697 44.8729L61.367 44.4752C62.1616 40.6882 63.2481 38.2061 64.4157 37.4582C65.9076 36.5194 68.8589 38.5879 72.7346 43.2977L72.9616 43.5682L73.2373 43.3614C76.5314 40.9278 80.4749 39.4851 84.5887 39.2085C89.092 39.0093 93.561 40.0628 97.4806 42.2476L97.8211 42.4385L97.9995 42.0884C99.7508 38.3334 101.502 35.8512 102.864 35.2624C104.486 34.5464 107.032 37.1082 110.048 42.4862L110.226 42.7885L110.535 42.6294C114.161 40.8457 118.189 39.9918 122.243 40.1473V40.1473C124.717 40.4076 127.129 41.0746 129.378 42.1203V42.1203Z" fill="#E7E7E7"/>
<path d="M122.259 40.1393C118.139 39.9839 114.046 40.8459 110.356 42.646C108.054 38.537 105.054 34.2693 102.686 35.3005C100.821 36.1413 98.7616 40.06 97.7238 42.2652C93.7396 40.0526 89.1978 38.9857 84.6211 39.1874C80.4193 39.4626 76.3904 40.929 73.0265 43.4075C70.0751 39.9013 66.3292 36.1731 64.2211 37.5057C62.5995 38.5528 61.513 42.2652 60.9778 44.7243C59.0682 44.029 57.0101 43.8161 54.9941 44.1056H54.8806C54.4111 44.1924 53.9671 44.3797 53.5803 44.6539C53.1934 44.9282 52.8733 45.2827 52.6427 45.6921C51.767 47.3737 52.6427 49.5948 53.2914 51.0703L53.3887 51.2924V51.4034C54.7184 53.8466 56.2751 56.1629 57.7833 58.5109C59.4858 60.9891 61.0554 63.5521 62.486 66.1896L63.6697 69.7275C63.913 70.4731 64.1076 71.1236 64.2373 71.5996C64.5616 72.8053 64.8049 74.0904 65.113 75.3754C62.665 77.558 60.9548 80.4185 60.2102 83.576C59.4657 86.7334 59.7221 90.0378 60.9454 93.049C59.0009 97.3649 58.5565 102.186 59.6806 106.772C60.1948 108.691 61.0512 110.507 62.2103 112.135C61.7603 112.243 61.3249 112.403 60.913 112.611C60.101 113.003 59.3789 113.552 58.7907 114.226C58.2025 114.9 57.7605 115.683 57.4914 116.529C57.1505 117.728 57.1505 118.995 57.4914 120.194L57.6211 120.559C53.7616 123.177 26.2103 143.277 12.6211 154.97V165.235C12.6211 166.497 13.1336 167.708 14.046 168.6C14.9583 169.493 16.1957 169.994 17.486 169.994L64.513 170L66.6049 166.821C66.6049 166.821 66.9616 166.329 67.3833 166.567C67.4771 166.615 67.5591 166.683 67.6236 166.765C67.688 166.847 67.7334 166.942 67.7566 167.044C67.7797 167.145 67.7801 167.25 67.7576 167.351C67.7352 167.452 67.6904 167.548 67.6265 167.63L66.1346 170L70.5616 169.994L70.6914 168.408C70.6914 168.408 70.6914 167.805 71.2265 167.805C71.3314 167.797 71.4368 167.812 71.5351 167.849C71.6334 167.886 71.7221 167.943 71.7949 168.018C71.8678 168.092 71.9229 168.181 71.9564 168.279C71.9899 168.376 72.0009 168.48 71.9887 168.582L72.0817 170H124.513C125.957 170 127.041 169.572 127.953 168.679C128.865 167.787 129.378 166.576 129.378 165.314V122.399C124.075 118.687 122.616 100.426 121.805 90.225C121.61 87.8294 121.448 85.7511 121.27 84.3867C120.908 81.1552 120.312 77.9529 119.486 74.8043L121.01 74.9947C121.91 78.2393 122.539 81.5501 122.891 84.8944C123.054 86.2429 123.216 88.2895 123.41 90.6851C124.172 100.204 125.372 114.777 129.378 121.234V118.997C126.297 112.096 125.194 98.7604 124.513 90.6692C124.318 88.2736 124.156 86.2112 123.978 84.8468C123.629 81.5915 123.027 78.3669 122.178 75.2009L123.799 75.4071C124.714 78.6715 125.354 82.0037 125.713 85.3704C125.875 86.703 126.037 88.7654 126.232 91.1452C126.65 99.0405 127.702 106.891 129.378 114.625V109.453C128.259 103.107 127.756 96.0792 127.286 90.9865C127.091 88.5909 126.929 86.5126 126.751 85.1482C126.4 81.8983 125.799 78.6791 124.951 75.5182L126.572 75.7403C127.483 78.9942 128.117 82.3159 128.47 85.6718C128.648 87.0203 128.81 89.0828 129.005 91.4625C129.135 93.1442 129.199 95.0797 129.378 97.0152V84.3233C129.041 81.3715 128.58 78.8105 127.837 75.9307L129.378 76.3908C129.248 76.2321 129.378 76.5177 129.378 76.3908V42.0022C127.149 40.9838 124.978 40.4133 122.535 40.1393H122.259ZM49.3833 129.126C49.44 129.015 49.5187 128.916 49.6149 128.835C49.7111 128.754 49.8228 128.692 49.9436 128.654C50.0643 128.615 50.1917 128.601 50.3182 128.611C50.4447 128.621 50.5679 128.656 50.6806 128.713L54.1995 131.141C54.1995 131.141 54.7022 131.49 54.4589 131.902C54.4095 131.992 54.341 132.07 54.2583 132.131C54.1755 132.193 54.0803 132.236 53.9789 132.259C53.8776 132.281 53.7725 132.282 53.6707 132.262C53.5689 132.241 53.4728 132.2 53.3887 132.14L49.8049 130.332C49.5891 130.223 49.4248 130.036 49.3462 129.812C49.2676 129.587 49.2809 129.341 49.3833 129.126ZM47.567 135.805C47.556 135.682 47.5705 135.557 47.6098 135.44C47.649 135.322 47.7122 135.213 47.7955 135.12C47.8787 135.026 47.9804 134.95 48.0945 134.896C48.2085 134.842 48.3324 134.812 48.4589 134.806L52.7562 135.123C52.7562 135.123 53.3724 135.123 53.3724 135.662C53.3782 135.765 53.3607 135.868 53.321 135.964C53.2814 136.059 53.2206 136.145 53.1431 136.214C53.0656 136.284 52.9733 136.336 52.8727 136.367C52.7722 136.398 52.6659 136.406 52.5616 136.392L48.5724 136.678C48.4476 136.686 48.3222 136.67 48.2037 136.631C48.0852 136.592 47.9759 136.529 47.8823 136.448C47.7886 136.367 47.7125 136.268 47.6584 136.158C47.6043 136.047 47.5732 135.927 47.567 135.805ZM49.2697 142.151C49.2008 142.047 49.1537 141.931 49.131 141.809C49.1084 141.687 49.1107 141.562 49.1379 141.441C49.165 141.32 49.2165 141.205 49.2892 141.104C49.362 141.003 49.4546 140.916 49.5616 140.85L53.486 139.105C53.486 139.105 54.0535 138.867 54.2806 139.28C54.3359 139.366 54.3716 139.464 54.3851 139.565C54.3987 139.667 54.3898 139.77 54.359 139.868C54.3283 139.965 54.2764 140.056 54.2069 140.132C54.1374 140.208 54.0519 140.269 53.9562 140.311L50.5995 142.437C50.4939 142.506 50.375 142.554 50.25 142.578C50.125 142.601 49.9964 142.599 49.8721 142.572C49.7478 142.546 49.6303 142.495 49.5268 142.422C49.4232 142.35 49.3358 142.258 49.2697 142.151ZM57.2968 143.151L55.513 146.673C55.4566 146.784 55.3777 146.883 55.2811 146.964C55.1845 147.044 55.0722 147.105 54.9509 147.142C54.8297 147.179 54.7021 147.192 54.5757 147.179C54.4493 147.167 54.3269 147.129 54.2157 147.069C54.1021 147.014 54.0009 146.937 53.9181 146.843C53.8352 146.748 53.7723 146.639 53.7331 146.521C53.6938 146.403 53.679 146.278 53.6895 146.155C53.7 146.031 53.7355 145.91 53.7941 145.8L56.2751 142.357C56.2751 142.357 56.6319 141.866 57.0535 142.103C57.1449 142.152 57.2247 142.219 57.2875 142.3C57.3503 142.381 57.3947 142.474 57.4177 142.573C57.4407 142.672 57.4419 142.775 57.421 142.875C57.4001 142.974 57.3578 143.068 57.2968 143.151ZM57.2968 129.189C57.2088 129.246 57.1091 129.284 57.0047 129.298C56.9003 129.313 56.7939 129.305 56.6931 129.275C56.5923 129.244 56.4996 129.192 56.4217 129.123C56.3439 129.053 56.2827 128.968 56.2427 128.872L54.1184 125.572C54.0502 125.468 54.0037 125.352 53.9815 125.23C53.9593 125.108 53.9618 124.983 53.9889 124.863C54.016 124.742 54.0672 124.627 54.1395 124.526C54.2118 124.424 54.3038 124.338 54.4103 124.271C54.5168 124.205 54.6356 124.159 54.7601 124.137C54.8845 124.116 55.0121 124.118 55.1356 124.145C55.2591 124.171 55.376 124.221 55.4797 124.292C55.5834 124.363 55.6719 124.453 55.74 124.557L57.5238 128.396C57.5238 128.396 57.7833 128.967 57.3616 129.189H57.2968ZM67.3995 84.5454C67.3995 85.2752 67.3995 86.0208 67.3995 86.7665C67.0297 87.0023 66.6725 87.2565 66.3292 87.528C66.3016 86.0278 66.6058 84.5395 67.2211 83.1651C67.3995 83.6252 67.4481 84.0853 67.4643 84.5454H67.3995ZM67.1562 81.1503C65.7955 83.2749 65.1806 85.776 65.4049 88.2736C65.0803 88.5753 64.7718 88.893 64.4806 89.2255C64.0337 87.5531 64.0237 85.7976 64.4516 84.1204C64.8795 82.4432 65.7315 80.8981 66.9292 79.6272C67.0427 80.2618 67.1076 80.7378 67.1562 81.1503ZM66.4589 76.8826C66.5562 77.3744 66.6535 77.8821 66.7346 78.3739C65.1377 79.8885 64.0059 81.8101 63.4672 83.9213C62.9284 86.0325 63.0042 88.249 63.686 90.3202C63.3292 90.7962 63.0049 91.288 62.6968 91.7957C61.7352 89.2361 61.5797 86.4533 62.2503 83.8064C62.9209 81.1595 64.3868 78.77 66.4589 76.946V76.8826ZM61.7076 106.328C60.6771 102.073 61.1398 97.6025 63.0211 93.636C63.0968 93.5482 63.1522 93.4453 63.1833 93.3346C63.5939 92.5141 64.0825 91.7333 64.6427 91.0024C64.7202 90.9442 64.7816 90.8678 64.8211 90.7803C65.6003 89.788 66.5173 88.907 67.5454 88.1626V89.8601C67.4692 89.8828 67.4015 89.927 67.3508 89.9871C64.8491 92.7784 63.2886 96.257 62.8823 99.9481C62.476 103.639 63.2437 107.363 65.0806 110.612C64.8364 110.99 64.6144 111.382 64.4157 111.786C63.1335 110.171 62.211 108.312 61.7076 106.328ZM67.7562 114.578C67.5285 114.35 67.2847 114.138 67.0265 113.943C67.8593 112.313 69.1614 110.956 70.7724 110.04C70.9184 110.532 71.0806 111.008 71.2265 111.5C69.8184 112.217 68.6231 113.277 67.7562 114.578ZM71.5346 112.579C71.69 113.159 71.8144 113.747 71.9076 114.34C70.7311 114.791 69.6808 115.509 68.8427 116.434C68.7327 116.135 68.6027 115.844 68.4535 115.561C69.1836 114.295 70.2698 113.26 71.5833 112.579H71.5346ZM66.086 113.372C65.7335 113.21 65.3636 113.088 64.9833 113.007C65.9786 110.637 67.672 108.61 69.8481 107.185C69.9616 107.597 70.0914 108.026 70.2211 108.47L70.3995 108.993C68.5625 110.003 67.0769 111.528 66.1346 113.372H66.086ZM67.7076 107.407C66.3867 103.75 66.4039 99.7572 67.7562 96.1109C67.7562 96.5076 67.7562 96.8883 67.8697 97.2691C68.2546 100.244 68.8617 103.186 69.686 106.074C69.0082 106.468 68.363 106.914 67.7562 107.407H67.7076ZM67.4481 93.8422C66.3506 96.0558 65.7375 98.4692 65.6481 100.928C65.5588 103.387 65.9951 105.836 66.9292 108.121C66.5225 108.524 66.1433 108.954 65.7941 109.406C64.2963 106.533 63.6642 103.303 63.9714 100.093C64.2786 96.8819 65.5125 93.8228 67.5292 91.2721C67.5292 92.0495 67.5292 92.8586 67.5292 93.6519C67.4789 93.7032 67.45 93.7711 67.4481 93.8422ZM59.5022 117.084C59.7038 116.516 60.0182 115.992 60.4272 115.543C60.8363 115.094 61.332 114.728 61.886 114.467C62.484 114.17 63.1451 114.015 63.8157 114.015C64.4863 114.015 65.1474 114.17 65.7454 114.467C66.3335 114.753 66.8441 115.17 67.2358 115.686C67.6276 116.201 67.8892 116.8 67.9995 117.433C68.0404 118.111 67.8876 118.786 67.5582 119.383C67.2288 119.979 66.7358 120.475 66.1346 120.813C65.706 121.082 65.1981 121.205 64.6904 121.162C64.1827 121.119 63.704 120.912 63.3292 120.575C63.0293 120.302 62.7973 119.966 62.6512 119.592C62.505 119.218 62.4485 118.816 62.486 118.417C62.5093 118.17 62.5978 117.934 62.7428 117.731C62.8878 117.528 63.0843 117.365 63.313 117.259C63.4915 117.162 63.6924 117.111 63.8968 117.111C64.1011 117.111 64.302 117.162 64.4806 117.259C64.6384 117.346 64.7697 117.473 64.8609 117.626C64.9521 117.78 64.9999 117.954 64.9995 118.132C65.0079 118.276 65.0736 118.412 65.1826 118.509C65.2916 118.607 65.4354 118.659 65.5833 118.655C65.6557 118.651 65.7266 118.633 65.7919 118.602C65.8573 118.571 65.9157 118.528 65.9639 118.475C66.0121 118.422 66.0492 118.36 66.0729 118.293C66.0966 118.226 66.1066 118.155 66.1022 118.084C66.0929 117.725 65.9896 117.375 65.8022 117.067C65.6148 116.758 65.3495 116.502 65.0319 116.323C64.6932 116.144 64.3142 116.05 63.9292 116.05C63.5442 116.05 63.1652 116.144 62.8265 116.323C62.4354 116.509 62.0982 116.788 61.846 117.134C61.5938 117.481 61.4347 117.884 61.3833 118.306C61.31 118.892 61.3822 119.486 61.594 120.038C61.8057 120.591 62.1507 121.085 62.5995 121.479C63.1475 121.966 63.8428 122.265 64.5802 122.331C65.3176 122.397 66.0569 122.226 66.686 121.844C67.4256 121.437 68.0437 120.849 68.4789 120.136C68.9141 119.424 69.1514 118.612 69.167 117.782C69.2484 117.753 69.3209 117.704 69.3779 117.64C70.0844 116.708 71.0297 115.974 72.1184 115.514C72.1745 116.284 72.1254 117.057 71.9724 117.814C71.7425 119.108 71.1602 120.316 70.2869 121.313C69.4136 122.31 68.2816 123.058 67.0103 123.478C65.7306 124.008 64.2933 124.044 62.9875 123.579C61.6818 123.114 60.6045 122.182 59.9724 120.971C59.6325 120.399 59.4155 119.764 59.3347 119.107C59.2538 118.45 59.3108 117.783 59.5022 117.148V117.084ZM67.4643 147.228C67.2516 147.342 67.0028 147.372 66.768 147.313C66.5332 147.254 66.33 147.11 66.1995 146.911L64.4157 143.024C64.4157 143.024 64.1724 142.484 64.5941 142.246C64.6838 142.193 64.7844 142.158 64.8888 142.146C64.9933 142.134 65.0992 142.144 65.1994 142.176C65.2995 142.207 65.3914 142.26 65.4689 142.33C65.5463 142.399 65.6075 142.484 65.6481 142.579L66.167 143.373C66.6049 144.61 67.0427 145.911 67.4643 147.212V147.228ZM60.9778 148.814C60.8509 148.823 60.7234 148.807 60.6029 148.766C60.4824 148.726 60.3714 148.663 60.2762 148.58C60.1811 148.497 60.1038 148.397 60.0488 148.285C59.9939 148.172 59.9624 148.05 59.9562 147.926L60.2806 143.722C60.2806 143.722 60.2806 143.135 60.8319 143.135C60.9368 143.127 61.0422 143.142 61.1405 143.179C61.2388 143.216 61.3275 143.273 61.4003 143.348C61.4732 143.422 61.5283 143.511 61.5618 143.609C61.5953 143.706 61.6063 143.81 61.5941 143.912L61.8697 147.815C61.9019 148.061 61.8329 148.31 61.6778 148.506C61.5227 148.702 61.2943 148.83 61.0427 148.862L60.9778 148.814ZM57.8968 160.475C57.888 160.351 57.9046 160.226 57.9457 160.108C57.9869 159.99 58.0516 159.882 58.1362 159.789C58.2207 159.696 58.3234 159.62 58.4383 159.566C58.5531 159.512 58.6777 159.482 58.8049 159.476L63.086 159.809C63.086 159.809 63.7022 159.809 63.7022 160.332C63.7101 160.435 63.6946 160.538 63.657 160.634C63.6194 160.73 63.5605 160.817 63.4846 160.888C63.4086 160.96 63.3175 161.014 63.2178 161.046C63.118 161.079 63.0121 161.09 62.9076 161.078L58.9022 161.348C58.7768 161.359 58.6506 161.344 58.5311 161.306C58.4116 161.267 58.3014 161.205 58.2072 161.123C58.1131 161.042 58.037 160.942 57.9836 160.831C57.9303 160.719 57.9007 160.598 57.8968 160.475ZM64.286 164.981L60.9292 167.107C60.8261 167.171 60.711 167.214 60.5906 167.235C60.4702 167.255 60.3469 167.252 60.2278 167.225C60.1086 167.199 59.9961 167.149 59.8966 167.08C59.7971 167.011 59.7126 166.923 59.6481 166.821C59.5792 166.717 59.5321 166.601 59.5094 166.479C59.4868 166.357 59.4891 166.232 59.5163 166.111C59.5434 165.99 59.5949 165.875 59.6676 165.774C59.7403 165.673 59.8329 165.586 59.94 165.52L63.8157 163.648C63.8157 163.648 64.3833 163.41 64.6265 163.823C64.6906 163.912 64.7329 164.014 64.7502 164.122C64.7676 164.229 64.7595 164.34 64.7267 164.444C64.6938 164.548 64.637 164.643 64.5606 164.723C64.4842 164.802 64.3903 164.863 64.286 164.901V164.981ZM64.7887 156.572C64.7412 156.664 64.6738 156.744 64.5912 156.807C64.5086 156.87 64.4128 156.914 64.3106 156.937C64.2084 156.96 64.1024 156.96 64.0001 156.938C63.8977 156.916 63.8015 156.873 63.7184 156.81L60.1346 155.065C60.0217 155.009 59.9213 154.931 59.839 154.837C59.7568 154.743 59.6943 154.634 59.6551 154.516C59.616 154.398 59.6009 154.274 59.6109 154.15C59.6208 154.027 59.6555 153.906 59.713 153.796C59.7705 153.686 59.8496 153.587 59.946 153.507C60.0423 153.426 60.1538 153.365 60.2743 153.327C60.3948 153.289 60.5218 153.274 60.6481 153.284C60.7743 153.293 60.8974 153.327 61.0103 153.383L64.513 155.716C64.513 155.716 65.0481 156.081 64.7887 156.493V156.572ZM67.7562 153.78C67.6683 153.837 67.5685 153.874 67.4641 153.889C67.3598 153.904 67.2533 153.896 67.1525 153.865C67.0517 153.835 66.9591 153.783 66.8812 153.713C66.8033 153.644 66.7422 153.558 66.7022 153.463L64.513 150.179C64.4418 150.076 64.3929 149.959 64.369 149.837C64.3452 149.715 64.3469 149.589 64.3742 149.467C64.4015 149.346 64.4538 149.231 64.5278 149.129C64.6018 149.028 64.6961 148.942 64.8049 148.878C64.9121 148.811 65.0318 148.766 65.1571 148.745C65.2823 148.724 65.4106 148.728 65.5344 148.756C65.6581 148.784 65.775 148.836 65.878 148.908C65.9811 148.981 66.0683 149.073 66.1346 149.179L67.9184 153.003C67.9184 153.003 68.113 153.558 67.7562 153.78ZM116.259 124.414H116.113L115.675 124.541C114.413 124.866 113.07 124.701 111.929 124.081C108.994 122.494 107.583 118.179 107.064 116.148C107.012 115.971 106.968 115.791 106.935 115.609C106.905 115.504 106.848 115.409 106.768 115.334C106.688 115.258 106.589 115.205 106.481 115.181H106.27C106.161 115.198 106.062 115.254 105.994 115.339C105.892 115.441 105.834 115.577 105.832 115.72C105.832 115.72 105.832 115.72 105.832 115.815L105.929 116.259C106.594 118.909 108.102 123.177 111.281 124.938C111.787 125.225 112.333 125.439 112.902 125.572L112.481 125.731C111.365 125.909 110.22 125.707 109.237 125.16C105.994 123.351 104.599 118.274 104.243 116.751C104.227 116.683 104.198 116.619 104.157 116.562C104.116 116.505 104.064 116.456 104.004 116.42C103.943 116.383 103.876 116.358 103.806 116.347C103.735 116.336 103.663 116.338 103.594 116.355C103.523 116.368 103.455 116.395 103.395 116.434C103.335 116.474 103.284 116.524 103.245 116.584C103.205 116.643 103.179 116.71 103.166 116.779C103.154 116.849 103.156 116.92 103.172 116.989C103.643 119.083 105.135 124.128 108.702 126.096L109.221 126.365C108.416 126.414 107.61 126.414 106.805 126.365C104.599 125.271 102.848 122.399 101.81 118.068C101.779 117.93 101.694 117.809 101.572 117.732C101.451 117.655 101.303 117.627 101.162 117.656C101.019 117.69 100.895 117.776 100.817 117.898C100.738 118.019 100.711 118.165 100.74 118.306C101.243 121.276 102.631 124.036 104.729 126.239C103.734 126.123 102.755 125.899 101.81 125.572C101.81 125.474 101.776 125.379 101.713 125.302C100.535 123.443 99.7317 121.381 99.3454 119.226C99.3357 119.152 99.3101 119.08 99.2703 119.015C99.2306 118.951 99.1775 118.896 99.1144 118.852C99.0514 118.809 98.9799 118.78 98.9044 118.765C98.829 118.751 98.7513 118.752 98.6763 118.768C98.6013 118.785 98.5307 118.817 98.4691 118.862C98.4074 118.907 98.3561 118.964 98.3183 119.029C98.2805 119.095 98.2572 119.167 98.2497 119.242C98.2423 119.317 98.251 119.393 98.2751 119.464C98.662 121.288 99.306 123.05 100.189 124.7C99.9986 124.587 99.8146 124.466 99.6373 124.335H99.5238C98.2526 123.401 97.2155 122.197 96.4914 120.813C96.4007 120.637 96.2978 120.467 96.1833 120.305C96.1454 120.244 96.0951 120.191 96.0356 120.15C95.9761 120.108 95.9086 120.08 95.8372 120.065C95.7658 120.05 95.6921 120.049 95.6205 120.063C95.549 120.077 95.4811 120.106 95.4211 120.146C95.3301 120.23 95.2709 120.342 95.2532 120.463C95.2355 120.584 95.2604 120.707 95.3238 120.813C95.4182 120.956 95.5048 121.105 95.5833 121.257C96.1865 122.436 96.9867 123.508 97.9508 124.43C96.9446 124.392 95.9728 124.061 95.1607 123.479C94.3486 122.896 93.7333 122.089 93.3941 121.162C93.3529 121.037 93.2641 120.933 93.1463 120.871C93.0284 120.809 92.8906 120.794 92.7616 120.829C92.633 120.855 92.5182 120.925 92.4379 121.027C92.3576 121.129 92.3172 121.255 92.3238 121.384C92.3958 122.256 92.1423 123.124 91.6103 123.827C91.4004 124.036 91.1468 124.198 90.8669 124.302C90.587 124.406 90.2874 124.45 89.9887 124.43C89.5714 124.471 89.1503 124.413 88.7607 124.261C88.3712 124.109 88.0248 123.868 87.7508 123.557C87.2059 122.643 87.0323 121.561 87.2643 120.527C87.3511 120.214 87.4161 119.896 87.4589 119.575C87.4696 119.44 87.4293 119.306 87.3456 119.198C87.262 119.089 87.1408 119.015 87.0049 118.988C86.8699 118.963 86.7303 118.988 86.6133 119.059C86.4963 119.129 86.4104 119.24 86.3724 119.369C86.2878 119.682 86.2228 120 86.1779 120.321C85.7724 121.685 84.8157 123.494 83.9724 123.764C83.8626 123.804 83.7417 123.804 83.6319 123.764C84.3365 122.621 84.8049 121.354 85.0103 120.035C85.0103 119.892 84.9522 119.755 84.8488 119.654C84.7454 119.553 84.6052 119.496 84.4589 119.496C84.3127 119.496 84.1725 119.553 84.0691 119.654C83.9657 119.755 83.9076 119.892 83.9076 120.035C83.9076 121.114 81.9454 125.16 80.6643 125.493C80.567 125.493 80.4049 125.493 80.1778 125.191C81.1562 123.796 81.9669 122.295 82.5941 120.718C82.62 120.651 82.6322 120.58 82.6299 120.509C82.6276 120.437 82.6109 120.367 82.5808 120.302C82.5506 120.237 82.5076 120.179 82.4542 120.13C82.4008 120.082 82.3381 120.044 82.2697 120.019C82.1299 119.973 81.9771 119.982 81.8439 120.044C81.7107 120.107 81.6075 120.217 81.5562 120.353C80.8751 122.161 78.9292 125.667 77.9238 125.747C77.8103 125.747 77.6968 125.747 77.567 125.493C78.5571 124.087 79.3685 122.569 79.9833 120.971C80.0327 120.835 80.0246 120.684 79.9608 120.553C79.8969 120.422 79.7825 120.322 79.6427 120.273C79.5029 120.225 79.3492 120.233 79.2154 120.295C79.0816 120.358 78.9787 120.47 78.9292 120.606C78.2481 122.479 76.367 125.953 75.3454 126.001C75.1346 126.001 74.9562 125.778 74.8265 125.556C75.8547 124.083 76.6781 122.482 77.2751 120.797C77.3223 120.66 77.3131 120.511 77.2495 120.38C77.186 120.25 77.073 120.149 76.9346 120.099C76.797 120.053 76.6465 120.063 76.5159 120.125C76.3853 120.187 76.2852 120.298 76.2373 120.432C75.6049 122.193 74.2265 125.191 73.2049 125.62C73.0674 125.681 72.9182 125.714 72.767 125.715C72.767 125.715 72.0049 125.302 72.1833 124.684C73.3907 123.31 74.2565 121.68 74.713 119.924C74.7408 119.848 74.75 119.766 74.7401 119.686C74.7302 119.605 74.7012 119.528 74.6556 119.461C74.6101 119.393 74.549 119.337 74.4774 119.296C74.4057 119.255 74.3254 119.231 74.2427 119.226C74.1008 119.193 73.9511 119.216 73.8265 119.29C73.7018 119.364 73.6124 119.484 73.5779 119.623C73.5779 119.623 72.0535 125.429 68.2751 125.017C68.0385 125.001 67.8046 124.958 67.5778 124.89C67.576 124.772 67.5425 124.658 67.4806 124.557L67.7724 124.255C69.1284 123.726 70.3224 122.864 71.2397 121.753C72.157 120.641 72.7667 119.318 73.0103 117.909C73.3492 115.063 72.936 112.179 71.8103 109.533C71.6481 109.057 71.5022 108.581 71.3562 108.089C70.2105 104.496 69.3858 100.812 68.8914 97.0787C68.6517 94.643 68.565 92.1952 68.6319 89.7491C68.6319 88.0039 68.6319 86.2112 68.6319 84.4185C68.5171 82.4403 68.2897 80.47 67.9508 78.5167L67.6103 76.7081C81.8481 72.6149 98.6968 72.6784 113.016 73.9952C113.851 77.1948 114.442 80.4508 114.783 83.7363C114.945 85.0689 115.108 87.1314 115.302 89.5111C115.87 96.6503 116.664 106.582 118.708 113.848C118.443 113.662 118.161 113.503 117.864 113.372C117.467 113.199 117.054 113.061 116.632 112.96C116.301 112.074 116.03 111.167 115.821 110.247C115.79 110.108 115.704 109.988 115.583 109.91C115.462 109.833 115.314 109.806 115.172 109.834C115.03 109.868 114.906 109.955 114.828 110.076C114.749 110.198 114.721 110.344 114.751 110.485C114.93 111.273 115.152 112.051 115.416 112.817C114.873 112.783 114.329 112.815 113.794 112.912C113.681 112.484 113.567 112.071 113.47 111.643C113.435 111.503 113.346 111.382 113.222 111.305C113.098 111.228 112.949 111.202 112.805 111.23C112.734 111.245 112.666 111.274 112.606 111.315C112.547 111.356 112.497 111.409 112.459 111.47C112.421 111.531 112.396 111.599 112.386 111.669C112.376 111.74 112.38 111.812 112.399 111.881C112.497 112.325 112.61 112.769 112.74 113.213C112.432 113.339 112.133 113.488 111.848 113.658L111.702 113.753C111.702 113.483 111.556 113.198 111.491 112.928C111.482 112.853 111.456 112.781 111.416 112.717C111.377 112.653 111.323 112.597 111.26 112.554C111.197 112.511 111.126 112.481 111.05 112.467C110.975 112.452 110.897 112.453 110.822 112.47C110.747 112.487 110.677 112.519 110.615 112.564C110.553 112.608 110.502 112.666 110.464 112.731C110.426 112.797 110.403 112.869 110.396 112.944C110.388 113.019 110.397 113.094 110.421 113.166C110.518 113.626 110.648 114.07 110.778 114.53C110.389 114.943 110.072 115.414 109.837 115.926C109.675 115.419 109.545 114.895 109.416 114.34C109.406 114.265 109.38 114.193 109.341 114.129C109.301 114.065 109.248 114.009 109.185 113.966C109.122 113.923 109.05 113.893 108.975 113.879C108.899 113.864 108.822 113.865 108.747 113.882C108.672 113.899 108.601 113.931 108.539 113.975C108.478 114.02 108.426 114.077 108.389 114.143C108.351 114.209 108.327 114.281 108.32 114.356C108.313 114.431 108.321 114.506 108.345 114.578C108.558 115.543 108.839 116.492 109.189 117.418C109.231 117.508 109.291 117.589 109.367 117.656C109.375 117.766 109.375 117.878 109.367 117.989C109.358 119.033 109.674 120.056 110.274 120.921C110.873 121.785 111.728 122.45 112.724 122.828C113.477 123.188 114.328 123.307 115.155 123.168C115.982 123.028 116.743 122.637 117.329 122.05C117.839 121.578 118.196 120.971 118.357 120.303C118.519 119.635 118.477 118.935 118.237 118.29C117.945 117.606 117.471 117.01 116.863 116.567C116.255 116.123 115.537 115.847 114.783 115.768C114.247 115.702 113.704 115.807 113.234 116.067C112.763 116.327 112.391 116.728 112.172 117.211C111.972 117.659 111.923 118.159 112.034 118.635C112.145 119.112 112.41 119.542 112.789 119.861C113.045 120.115 113.369 120.295 113.725 120.379C114.08 120.463 114.452 120.449 114.799 120.337C115.115 120.233 115.396 120.046 115.61 119.797C115.713 119.696 115.771 119.559 115.771 119.417C115.771 119.274 115.713 119.137 115.61 119.036C115.505 118.939 115.366 118.885 115.221 118.885C115.076 118.885 114.937 118.939 114.832 119.036C114.734 119.127 114.618 119.197 114.491 119.242C114.327 119.291 114.152 119.291 113.988 119.243C113.824 119.195 113.677 119.101 113.567 118.972C113.367 118.818 113.221 118.608 113.148 118.369C113.076 118.13 113.08 117.876 113.162 117.64C113.281 117.361 113.494 117.129 113.764 116.982C114.035 116.835 114.348 116.782 114.654 116.831C115.188 116.916 115.691 117.13 116.119 117.454C116.547 117.778 116.885 118.202 117.102 118.687C117.266 119.144 117.287 119.638 117.163 120.107C117.039 120.576 116.775 120.998 116.405 121.32C115.975 121.746 115.416 122.025 114.812 122.116C114.208 122.207 113.589 122.106 113.048 121.828C112.262 121.536 111.585 121.016 111.107 120.339C110.63 119.662 110.373 118.859 110.372 118.036C110.367 117.326 110.546 116.627 110.892 116.002C111.238 115.378 111.74 114.85 112.351 114.467C113.104 114.046 113.951 113.811 114.818 113.78C115.685 113.75 116.547 113.925 117.329 114.292C118.232 114.808 118.965 115.566 119.439 116.478C119.914 117.389 120.11 118.415 120.005 119.432C120.005 120.545 119.641 121.628 118.967 122.524C118.293 123.421 117.344 124.083 116.259 124.414ZM120.751 116.878C120.751 116.672 120.605 116.482 120.524 116.291C117.897 109.073 116.924 97.0152 116.405 89.4318C116.21 87.0362 116.048 84.9579 115.87 83.5935C115.521 80.4107 114.941 77.2562 114.135 74.1538L115.659 74.3125C116.543 77.5276 117.167 80.8059 117.524 84.117C117.686 85.4655 117.848 87.5121 118.043 89.9077C118.886 100.442 120.216 117.116 125.324 122.225C123.378 121.828 121.902 119.813 120.751 116.878ZM120.183 84.5136C120.345 85.8463 120.508 87.9087 120.702 90.2885C121.545 100.839 122.875 117.497 127.983 122.605C121.497 121.273 119.875 100.839 119.064 89.8125C118.87 87.4169 118.708 85.3545 118.529 83.9901C118.178 80.7792 117.587 77.5977 116.762 74.4711L118.286 74.6456C119.185 77.8805 119.819 81.1803 120.183 84.5136ZM102.718 107.74C102.134 108.198 101.45 108.518 100.718 108.675C99.9871 108.831 99.2287 108.821 98.5022 108.644C96.4589 108.216 94.5941 106.867 92.3238 106.502C90.9779 106.296 89.6157 106.344 89.4211 105.249C89.2265 104.154 90.8157 103.218 93.313 104.043C95.8103 104.868 97.2373 106.963 99.0535 107.502C100.246 107.825 101.493 107.906 102.718 107.74ZM109.578 85.6401C108.54 85.767 105.41 84.3709 102.313 83.2444C101.416 82.8413 100.446 82.6195 99.4593 82.5922C98.4728 82.5649 97.4909 82.7328 96.5724 83.0858C95.6684 83.3197 94.7339 83.4212 93.7995 83.3872C93.9655 83.6452 94.1887 83.8632 94.4525 84.0253C94.7164 84.1873 95.0142 84.2892 95.3238 84.3233V84.7516C94.8338 85.0584 94.3961 85.4385 94.0265 85.878C94.0265 85.878 95.0968 85.878 95.4373 85.4814C95.6799 86.4473 96.2961 87.2833 97.1562 87.8136C95.3887 87.639 94.5616 87.29 94.4643 87.3535C94.367 87.4169 94.0914 87.9405 94.4643 88.0357C95.7439 88.9354 96.9576 89.9214 98.0968 90.9865C98.5346 90.9865 98.1941 90.3837 97.367 89.2097C97.2328 89.0167 97.0808 88.8362 96.913 88.6703C98.5135 89.0322 100.177 89.0322 101.778 88.6703C103.825 88.054 105.794 87.2131 107.648 86.1636C108.767 86.1001 110.454 85.5449 109.578 85.6401ZM99.3454 87.7977C98.4917 87.7775 97.6787 87.4368 97.0749 86.846C96.4711 86.2553 96.1228 85.4599 96.1022 84.6247C96.1022 84.6247 96.1022 84.4819 96.1022 84.4185C96.6095 84.3478 97.1089 84.2309 97.5941 84.0694C97.528 84.2474 97.4951 84.4354 97.4968 84.6247C97.5406 85.0894 97.7604 85.5214 98.1128 85.8358C98.4653 86.1503 98.9251 86.3246 99.4022 86.3246C99.8792 86.3246 100.339 86.1503 100.692 85.8358C101.044 85.5214 101.264 85.0894 101.308 84.6247C101.308 84.4251 101.275 84.2268 101.21 84.0377L102.718 84.5454C102.73 84.9796 102.65 85.4115 102.484 85.8143C102.318 86.2171 102.069 86.5823 101.753 86.8872C101.437 87.1921 101.06 87.4302 100.646 87.5868C100.232 87.7434 99.789 87.8152 99.3454 87.7977ZM101.81 87.6232C102.287 87.2865 102.68 86.8494 102.961 86.3441C103.241 85.8388 103.402 85.2783 103.432 84.704L106.529 85.878C105.037 86.6511 103.452 87.2374 101.81 87.6232ZM84.313 106.661C82.808 106.713 81.3272 107.047 79.9508 107.645C79.2487 108.096 78.4313 108.346 77.5914 108.365C76.7515 108.385 75.9228 108.174 75.1995 107.756C76.3605 107.802 77.5147 107.562 78.5562 107.058C79.7887 106.296 81.4103 104.361 83.713 104.408C86.0157 104.456 85.5941 106.534 84.2319 106.709L84.313 106.661ZM90.2806 80.1984C90.5076 79.2782 90.913 77.7076 91.5292 77.4855C92.5508 77.1206 94.0427 77.8821 96.3941 77.2792C98.7234 76.5882 101.144 76.2354 103.578 76.2321C105.663 76.4239 107.641 77.2255 109.254 78.5325C109.306 78.5749 109.341 78.6337 109.354 78.6989C109.367 78.7641 109.356 78.8317 109.323 78.8899C109.291 78.9481 109.238 78.9934 109.175 79.0179C109.112 79.0425 109.042 79.0447 108.978 79.0244C107.101 78.3328 105.113 77.9781 103.108 77.9773C99.8643 78.2787 97.2049 80.3094 95.5833 80.1349C93.9616 79.9604 92.34 78.9133 90.7184 80.4363C90.6786 80.4763 90.6266 80.5024 90.5702 80.5105C90.5138 80.5186 90.4562 80.5083 90.4064 80.4812C90.3566 80.4542 90.3173 80.4118 90.2945 80.3607C90.2718 80.3095 90.2669 80.2525 90.2806 80.1984ZM92.7941 100.045C92.5951 99.0119 92.302 97.9978 91.9184 97.0152C92.1941 97.4119 94.0103 98.8238 93.7833 100.188C93.5562 101.553 91.6427 101.997 91.6427 101.997C91.9974 101.804 92.2919 101.521 92.4947 101.177C92.6975 100.833 92.801 100.442 92.7941 100.045ZM86.3076 99.5219C88.74 98.8238 90.5238 101.394 90.5238 101.394C89.8532 101.073 89.1133 100.915 88.367 100.934H88.1076C87.4722 101.079 86.8075 101.04 86.1941 100.823C86.0702 100.756 85.9687 100.656 85.9019 100.534C85.8351 100.412 85.806 100.274 85.818 100.136C85.8301 99.9984 85.8827 99.867 85.9696 99.758C86.0565 99.6489 86.1739 99.5669 86.3076 99.5219ZM108.297 82.4195C109.068 82.7918 109.894 83.0434 110.745 83.1651C110.762 83.175 110.776 83.1889 110.786 83.2056C110.795 83.2223 110.8 83.2411 110.8 83.2603C110.8 83.2795 110.795 83.2983 110.786 83.315C110.776 83.3317 110.762 83.3456 110.745 83.3555C109.951 84.0536 108.118 83.4983 104.145 82.1339C102.07 81.4009 99.8587 81.1088 97.6589 81.2772C97.6331 81.2772 97.6084 81.2672 97.5901 81.2493C97.5719 81.2315 97.5616 81.2072 97.5616 81.182C97.5616 81.1568 97.5719 81.1325 97.5901 81.1147C97.6084 81.0968 97.6331 81.0868 97.6589 81.0868C100.66 80.2237 103.877 80.426 106.74 81.6579C107.419 81.5987 108.082 81.427 108.702 81.1503C109.189 80.7695 108.864 81.8483 108.297 82.4195ZM76.3022 89.7808C77.0962 89.7948 77.8724 89.5491 78.5076 89.0828C78.912 88.9827 79.3356 88.9827 79.74 89.0828C80.713 89.3683 80.1616 90.4789 80.1616 90.4789C80.1616 90.812 80.5995 90.4789 80.5995 90.4789C80.5995 90.4789 81.3292 89.3207 80.5995 88.6227C80.4217 88.4642 80.2102 88.3465 79.9803 88.2779C79.7503 88.2093 79.5076 88.1916 79.2697 88.226C79.6711 87.6392 79.8856 86.949 79.886 86.2429C79.8865 85.9704 79.8539 85.6988 79.7887 85.4338C80.2627 85.441 80.731 85.3319 81.1508 85.1165C81.7995 84.593 81.7184 84.4343 81.7184 84.4343C79.331 84.6611 76.9294 84.7088 74.5346 84.5771C73.6914 84.4819 73.1238 84.3867 72.7346 84.3233C73.7059 83.4239 74.9551 82.8659 76.286 82.7368C77.9619 82.4163 79.6985 82.6218 81.2481 83.3238C81.5076 83.4348 81.5562 83.2444 81.7184 83.1493C80.9746 82.5874 80.1247 82.1749 79.2175 81.9353C78.3103 81.6957 77.3636 81.6338 76.4319 81.7531C74.4829 81.8519 72.6477 82.6814 71.3076 84.0694C70.7438 84.1603 70.1686 84.1603 69.6049 84.0694C70.5207 84.7173 71.5559 85.186 72.6535 85.4497H72.7833V85.6559C72.3076 86.0481 71.7975 86.3985 71.2589 86.703C71.7656 86.7555 72.2766 86.7555 72.7833 86.703C72.8917 87.521 73.2941 88.2746 73.9184 88.8289C73.0005 88.9795 72.0633 88.9795 71.1454 88.8289C70.367 88.5116 72.4589 89.7808 74.3887 89.7808C74.8206 89.8102 75.254 89.8102 75.686 89.7808C75.891 89.7974 76.0971 89.7974 76.3022 89.7808ZM73.3995 86.6078L74.4535 86.3698C74.475 86.8537 74.6921 87.3094 75.0571 87.6367C75.422 87.964 75.9049 88.136 76.3995 88.115C76.8941 88.0939 77.3599 87.8816 77.6944 87.5245C78.0289 87.1675 78.2048 86.6951 78.1833 86.2112C78.185 85.966 78.1354 85.723 78.0373 85.4973C78.4103 85.4973 78.7833 85.4973 79.14 85.4973C79.2185 85.7437 79.2568 86.0007 79.2535 86.2588C79.2855 87.0061 79.0181 87.7362 78.5083 88.2936C77.9985 88.851 77.2865 89.1918 76.5237 89.2435C75.761 89.2951 75.0078 89.0536 74.4243 88.5703C73.8408 88.0869 73.4731 87.3999 73.3995 86.6554V86.6078ZM70.1562 79.8969C70.1562 79.5638 71.1941 79.2782 71.1941 79.2782C71.4697 79.2782 77.6806 77.8186 79.6751 78.1042C82.4806 78.5008 83.9238 80.4522 84.086 84.117C84.2157 86.6871 82.74 90.9072 81.5724 94.2865C80.9556 95.8291 80.4781 97.4217 80.1454 99.046C80.1078 99.3596 80.1389 99.6775 80.2368 99.9784C80.3347 100.279 80.497 100.556 80.713 100.791C81.7594 101.629 83.0745 102.078 84.4265 102.06C88.1724 102.425 86.9887 105.455 86.9562 105.233C86.8645 104.642 86.5516 104.105 86.0781 103.727C85.6047 103.349 85.0045 103.156 84.3941 103.187C82.736 103.262 81.1151 102.691 79.886 101.6C79.5783 101.247 79.3501 100.834 79.216 100.388C79.0819 99.9426 79.045 99.4746 79.1076 99.0142C79.4362 97.296 79.9303 95.6121 80.5833 93.985C81.7346 90.6851 83.1616 86.5761 83.0481 84.2122C83.1384 82.7225 82.6258 81.2578 81.6211 80.1349C79.7238 79.3258 78.167 80.4522 74.94 80.8171C73.2849 81.1489 71.5628 80.8359 70.14 79.9445L70.1562 79.8969ZM87.5076 114.467C88.7384 114.494 89.9573 114.227 91.0589 113.689C90.6708 114.306 90.1102 114.801 89.4435 115.116C88.7768 115.431 88.0318 115.553 87.2968 115.466C86.7008 115.494 86.1085 115.361 85.5849 115.081C85.0613 114.801 84.6268 114.386 84.3292 113.88C85.313 114.359 86.413 114.562 87.5076 114.467ZM95.0319 109.612C94.9403 110.12 94.6788 110.585 94.2885 110.932C93.8982 111.279 93.4011 111.49 92.8751 111.532C90.9616 111.833 89.34 110.77 87.5724 111.421C87.3887 111.484 87.1886 111.484 87.0049 111.421C86.3121 111.05 85.52 110.895 84.7346 110.976C83.8177 111.385 82.8233 111.602 81.8157 111.611C80.1941 111.611 79.886 110.485 79.9995 110.025C80.2191 110.217 80.4754 110.365 80.7536 110.46C81.0319 110.556 81.3267 110.596 81.6211 110.58C82.7724 110.58 84.2157 108.517 85.4481 108.517C85.9688 108.491 86.4877 108.595 86.9562 108.819C87.04 108.866 87.1351 108.891 87.2319 108.891C87.3287 108.891 87.4238 108.866 87.5076 108.819C88.0125 108.583 88.5711 108.479 89.1292 108.517C90.5238 108.517 91.4806 110.199 92.94 110.405C93.3331 110.49 93.7432 110.457 94.1166 110.31C94.49 110.163 94.809 109.908 95.0319 109.58V109.612Z" fill="#24242E"/>
<path d="M129.377 135.692V138.45C112.394 142.744 93.2183 139.575 79.6122 128.941C79.1901 127.8 78.8816 126.976 78.6867 126.485C78.917 126.34 79.1295 126.17 79.32 125.978C79.4527 126.146 79.6221 126.283 79.8159 126.379C80.0097 126.474 80.223 126.527 80.4403 126.532C80.5645 126.543 80.6895 126.543 80.8137 126.532C80.887 126.652 80.9802 126.759 81.0897 126.849C88.606 132.786 97.7037 136.503 107.312 137.562C109.359 137.799 111.419 137.915 113.481 137.911C118.86 137.893 124.209 137.147 129.377 135.692ZM86.6588 170.002H85.295C85.0637 168.496 84.6663 167.019 84.1097 165.596C83.4996 166.746 82.989 167.944 82.5835 169.178C83.2219 169.557 83.9179 169.835 84.6455 170.002H81.2521C81.3674 169.513 81.5138 169.031 81.6905 168.56C82.6322 166.246 83.2329 164.36 83.5577 163.283C83.5577 163.076 83.6875 162.886 83.7363 162.68C83.785 162.474 83.8337 162.3 83.8337 162.284C83.8705 162.219 83.8978 162.15 83.9149 162.078C83.9922 161.596 83.9657 161.103 83.8371 160.631C83.7085 160.159 83.4806 159.718 83.168 159.336C82.7807 158.922 82.2574 158.653 81.6883 158.574C81.1192 158.496 80.54 158.615 80.0506 158.909C79.5397 159.307 79.1883 159.868 79.0577 160.494C78.9272 161.119 79.0257 161.77 79.3362 162.332C79.3703 162.421 79.4224 162.503 79.4893 162.572C79.5563 162.641 79.6368 162.697 79.7261 162.735C79.8154 162.773 79.9116 162.794 80.0092 162.795C80.1068 162.797 80.2037 162.779 80.2941 162.744C80.476 162.673 80.6222 162.535 80.7011 162.36C80.7801 162.186 80.7855 161.987 80.7163 161.809C80.3916 161.032 80.4565 160.382 80.8949 160.097C81.0874 159.985 81.3137 159.941 81.5355 159.973C81.7574 160.005 81.9612 160.11 82.1126 160.271C82.4117 160.907 82.4748 161.624 82.2912 162.3C82.2912 162.443 82.1938 162.649 82.1126 162.886L81.9665 163.219C81.8225 163.501 81.5776 163.721 81.2782 163.838C80.9789 163.954 80.646 163.96 80.3428 163.853C79.9834 163.771 79.6452 163.617 79.3491 163.401C79.0531 163.186 78.8055 162.914 78.6218 162.601C77.6963 161.016 78.3782 158.164 78.9628 156.262L79.1901 155.533C79.4823 154.551 79.7908 153.536 80.0344 152.554C80.6026 150.24 80.7812 148.085 79.5797 146.912C79.2077 146.492 78.7074 146.199 78.1522 146.076C77.597 145.953 77.0161 146.008 76.4948 146.231C75.9357 146.488 75.4691 146.904 75.1562 147.424C74.8433 147.944 74.6987 148.545 74.7413 149.147C74.7556 149.455 74.8386 149.756 74.9844 150.03C75.1302 150.304 75.3354 150.543 75.5856 150.731C76.2559 151.146 77.066 151.288 77.8424 151.128C78.0343 151.082 78.2006 150.966 78.3066 150.804C78.4125 150.641 78.4499 150.445 78.4107 150.256C78.3644 150.07 78.2447 149.908 78.0776 149.808C77.9104 149.707 77.7093 149.674 77.5177 149.717C77.1595 149.787 76.7877 149.737 76.4623 149.575C76.4623 149.575 76.235 149.416 76.2026 148.988C76.1694 148.665 76.2389 148.339 76.4015 148.056C76.5641 147.773 76.8121 147.545 77.1118 147.403C77.3514 147.304 77.6171 147.281 77.8708 147.338C78.1245 147.395 78.3533 147.529 78.5244 147.72C79.2063 148.386 79.0439 150.018 78.638 151.777C78.2356 152.209 77.6927 152.493 77.1011 152.579C76.5095 152.666 75.9053 152.551 75.3907 152.253C74.173 151.603 73.4099 149.4 74.5627 146.231C75.407 144.028 75.959 142.205 76.1863 141.096L76.2837 140.874C76.2837 140.383 76.4623 139.939 76.5435 139.591C76.6174 139.112 76.5669 138.624 76.3967 138.17C76.2264 137.716 75.9419 137.31 75.5693 136.992L75.407 136.849C75.0103 136.471 74.4941 136.236 73.9427 136.181C73.3913 136.126 72.8372 136.256 72.3708 136.548C71.8545 136.942 71.4979 137.503 71.3642 138.129C71.2304 138.756 71.3282 139.408 71.6401 139.971C71.7126 140.148 71.8536 140.291 72.0328 140.368C72.2119 140.445 72.4149 140.451 72.5981 140.383C72.6895 140.35 72.7732 140.299 72.8441 140.234C72.9151 140.168 72.9719 140.09 73.0113 140.002C73.0506 139.915 73.0717 139.821 73.0732 139.726C73.0748 139.631 73.0567 139.536 73.0202 139.448C72.7117 138.671 72.7767 138.022 73.1988 137.736C73.3914 137.624 73.6176 137.58 73.8395 137.612C74.0613 137.644 74.2651 137.749 74.4166 137.911C74.5422 138.028 74.6513 138.162 74.7413 138.307C74.9252 138.525 75.0462 138.786 75.0919 139.065C75.1376 139.343 75.1062 139.629 75.0011 139.892L74.8062 140.589V140.716C74.6233 141.08 74.3041 141.362 73.9144 141.504C73.5247 141.645 73.0942 141.636 72.7117 141.476C72.3427 141.408 71.9927 141.263 71.6849 141.053C71.3771 140.843 71.1184 140.571 70.9257 140.256C70.0003 138.671 70.6822 135.819 71.2829 133.917L71.494 133.204C72.2503 131.167 72.6829 129.03 72.7767 126.865C73.0217 126.83 73.2615 126.766 73.4911 126.675L73.8645 126.453C73.9852 126.623 74.1332 126.773 74.3029 126.897C75.0173 128.783 76.3812 132.507 78.0373 137.641L80.3104 144.646C82.4049 151.73 84.6942 160.493 86.6588 170.002ZM75.5693 135.28C75.1212 133.772 74.5173 132.312 73.7671 130.922C73.058 131.961 72.4647 133.072 71.9973 134.234C73.1523 134.69 74.3481 135.04 75.5693 135.28ZM79.0439 145.359C78.7797 143.944 78.3718 142.559 77.8262 141.223C77.1522 142.166 76.5705 143.169 76.0889 144.218C77.0319 144.695 78.022 145.077 79.0439 145.359ZM82.5348 157.704C82.1265 156.325 81.5828 154.988 80.9111 153.711C80.3283 154.716 79.8549 155.778 79.4986 156.88C80.4629 157.254 81.464 157.53 82.4861 157.704H82.5348ZM79.7583 170.002H78.2159C73.2151 150.985 63.3271 129.052 60.8429 123.68C61.9598 124.476 63.3079 124.904 64.6909 124.9C65.0934 124.899 65.4951 124.868 65.8924 124.805C65.3338 125.396 64.9438 126.12 64.7615 126.904C64.5791 127.688 64.6108 128.505 64.8533 129.274C65.0059 129.836 65.3138 130.346 65.7433 130.748C66.1728 131.151 66.7075 131.43 67.2888 131.556H67.7921C68.5482 131.514 69.2655 131.216 69.82 130.712C70.3744 130.208 70.7311 129.532 70.8283 128.799C70.835 128.622 70.7753 128.448 70.6606 128.311C70.5458 128.174 70.3838 128.082 70.2047 128.053C70.0257 128.024 69.8419 128.059 69.6877 128.153C69.5336 128.246 69.4196 128.391 69.367 128.561C69.367 128.751 69.0098 130.415 67.4998 130.146C67.1948 130.055 66.9198 129.887 66.703 129.659C66.4862 129.43 66.3354 129.15 66.2659 128.846C66.1083 128.333 66.0867 127.789 66.2032 127.265C66.3196 126.741 66.5702 126.255 66.9316 125.851C67.3011 126.012 67.6968 126.109 68.1006 126.136H68.6202C69.4216 126.175 70.2187 125.999 70.9257 125.629C70.9715 125.747 71.0315 125.858 71.1043 125.962C71.1548 126.042 71.2147 126.117 71.2829 126.184C71.7538 127.642 70.8608 130.558 70.1789 132.776L69.9515 133.505C69.2371 135.898 68.5552 138.909 69.7405 140.985C70.0125 141.467 70.3837 141.889 70.8307 142.225C71.2778 142.56 71.791 142.802 72.3383 142.934C72.6927 143.031 73.0582 143.085 73.4261 143.093C73.6938 143.086 73.9602 143.054 74.2217 142.998C73.9457 143.838 73.621 144.789 73.2151 145.85C71.77 149.67 72.9066 152.538 74.6601 153.679C75.2553 154.07 75.956 154.28 76.6734 154.281C77.1737 154.269 77.6681 154.173 78.1347 153.996C78.0048 154.376 77.8911 154.757 77.7937 155.121L77.5664 155.85C76.8358 158.243 76.1701 161.254 77.3391 163.346C77.6195 163.813 77.992 164.222 78.4351 164.549C78.8782 164.875 79.3831 165.113 79.9207 165.248C80.2312 165.34 80.5539 165.388 80.8787 165.39C81.0355 165.399 81.1927 165.399 81.3495 165.39C81.0735 166.198 80.7325 167.133 80.3266 168.148C80.0845 168.749 79.8944 169.369 79.7583 170.002ZM67.8083 136.627C68.3483 135.724 68.7891 134.768 69.1235 133.775C68.1247 133.447 67.0977 133.208 66.0548 133.061C66.507 134.308 67.0949 135.503 67.8083 136.627ZM71.6726 146.833C72.2329 146.052 72.7115 145.219 73.1014 144.345C72.226 143.976 71.3185 143.684 70.3899 143.473C70.698 144.633 71.1279 145.759 71.6726 146.833ZM75.7967 158.291C76.2554 157.35 76.6355 156.375 76.9332 155.375C76.141 155.138 75.324 154.989 74.4977 154.931C74.8121 156.091 75.2473 157.217 75.7967 158.291ZM77.8749 165.517C78.1892 166.677 78.6245 167.803 79.1738 168.877C79.6352 167.937 80.0154 166.962 80.3104 165.961C79.523 165.727 78.7118 165.578 77.8912 165.517H77.8749ZM118.011 156.627H116.388H114.277C114.748 157.387 115.267 158.211 115.901 158.94C120.457 159.077 124.87 158.78 129.377 158.116V155.787C125.566 156.339 121.864 156.641 118.011 156.627ZM117.281 161.048C119.976 164.566 122.882 167.91 124.749 170.002C125.54 170.002 126.123 169.921 127.068 169.377C126.836 169.279 126.567 169.065 126.451 168.845C126.336 168.625 126.302 168.373 126.357 168.132L127.38 163.837C127.41 163.697 127.469 163.565 127.553 163.448C127.637 163.331 127.745 163.232 127.869 163.157C127.994 163.081 128.132 163.031 128.277 163.009C128.421 162.987 128.569 162.994 128.711 163.029C128.985 163.094 129.223 163.258 129.377 163.489V160.256C125.672 160.783 121.934 161.053 118.19 161.064L117.281 161.048ZM86.6101 64.0619C79.2501 64.6368 71.9672 65.9268 64.8695 67.9128L65.519 69.7036C69.3021 68.6894 94.3549 62.6674 129.377 68.3566V66.3123C115.298 63.6228 100.903 62.8654 86.6101 64.0619ZM119.83 58.9115C118.705 58.9682 117.611 59.2851 116.637 59.8363C115.663 60.3874 114.837 61.1568 114.228 62.081C117.622 62.3979 121.161 62.8258 124.847 63.3963C124.262 61.8116 122.882 58.9115 119.83 58.9115ZM122.087 42.4461C115.592 42.0974 109.812 45.1401 105.006 48.3096C107.668 51.2702 109.502 54.8508 110.332 58.7055C111.264 57.0384 112.647 55.653 114.331 54.7002C116.014 53.7473 117.933 53.2636 119.879 53.3015C125.09 53.4125 128.062 57.7377 129.377 61.4935C129.377 55.8839 129.377 50.2627 129.377 44.6489C127.108 43.4779 124.636 42.7308 122.087 42.4461ZM128.755 167.637C129.225 166.944 129.381 166.041 129.377 165.248V164.946L128.755 167.637ZM124.392 144.931C124.34 145.49 124.468 146.05 124.76 146.533C125.051 147.017 125.49 147.399 126.016 147.625C125.074 147.625 123.824 147.514 122.606 147.372C122.548 147.361 122.488 147.365 122.432 147.383C122.376 147.402 122.326 147.434 122.287 147.477C122.247 147.521 122.22 147.573 122.208 147.629C122.196 147.686 122.199 147.745 122.217 147.8C122.472 148.839 122.613 149.901 122.639 150.969C122.636 151.031 122.652 151.092 122.683 151.146C122.714 151.2 122.761 151.244 122.816 151.274C122.872 151.303 122.935 151.317 122.998 151.314C123.061 151.31 123.123 151.29 123.175 151.254C124.308 150.559 125.392 149.792 126.422 148.956C126.186 149.382 126.062 149.859 126.062 150.343C126.062 150.827 126.186 151.304 126.422 151.73C126.758 152.159 127.227 152.472 127.758 152.623C128.29 152.774 128.857 152.755 129.377 152.57V153.663C125.078 154.291 120.733 154.567 116.388 154.487C108.468 154.421 100.627 152.944 93.2508 150.129C90.4051 149.016 87.6846 147.619 85.1326 145.961C84.8566 145.026 84.5968 144.107 84.3208 143.236C85.3761 142.744 86.5127 142.205 87.2758 141.825C87.3882 141.775 87.4878 141.701 87.5678 141.609C87.6478 141.517 87.7061 141.409 87.7386 141.293C87.7711 141.176 87.777 141.054 87.756 140.936C87.7349 140.817 87.6874 140.704 87.6168 140.605C86.8049 139.527 85.3924 137.641 84.8403 136.833C84.5114 136.241 84.0477 135.73 83.4847 135.34C82.9218 134.949 82.2746 134.691 81.5931 134.583L80.9436 132.681C90.5185 139.056 101.826 142.494 113.416 142.554H114.423C119.466 142.538 124.488 141.921 129.377 140.716V142.919C126.925 142.126 124.603 142.76 124.392 144.931ZM103.285 145.581C102.376 144.678 100.784 143.093 100.135 142.411C98.5114 140.605 96.2383 140.034 95.0043 141.762C94.6882 142.194 94.5183 142.712 94.5183 143.243C94.5183 143.775 94.6882 144.293 95.0043 144.725C94.0646 144.168 93.1542 143.565 92.2766 142.919C92.2313 142.886 92.1783 142.864 92.1223 142.856C92.0664 142.848 92.0093 142.854 91.9561 142.873C91.903 142.891 91.8555 142.923 91.8179 142.964C91.7803 143.005 91.7538 143.055 91.7408 143.109C91.4646 144.07 91.0721 144.996 90.5718 145.866C90.5443 145.919 90.531 145.977 90.5329 146.036C90.5348 146.095 90.5519 146.152 90.5827 146.203C90.6135 146.253 90.657 146.296 90.709 146.325C90.761 146.355 90.82 146.372 90.8803 146.373C92.1594 146.301 93.4333 146.158 94.6958 145.945C94.0139 146.484 93.2021 147.34 93.3807 148.275C93.9327 151.318 97.3586 150.557 98.4464 149.86C99.242 149.384 101.824 147.673 103.155 146.69C103.322 146.56 103.43 146.37 103.454 146.162C103.478 145.954 103.418 145.745 103.285 145.581ZM119.18 146.31C117.995 145.692 115.933 144.583 115.073 144.075C112.864 142.76 110.445 142.871 109.747 144.947C109.566 145.472 109.556 146.039 109.719 146.57C109.882 147.101 110.209 147.569 110.656 147.911C109.747 147.673 108.545 147.34 107.409 146.912C107.354 146.894 107.295 146.889 107.237 146.898C107.18 146.908 107.125 146.93 107.079 146.965C107.032 146.999 106.995 147.044 106.971 147.096C106.946 147.147 106.935 147.204 106.938 147.261C106.969 148.326 106.865 149.39 106.63 150.43C106.617 150.491 106.622 150.553 106.642 150.612C106.663 150.67 106.699 150.722 106.747 150.762C106.795 150.803 106.853 150.83 106.915 150.841C106.977 150.852 107.041 150.847 107.1 150.826C108.353 150.378 109.573 149.848 110.754 149.242C110.43 149.609 110.206 150.049 110.104 150.523C110.002 150.997 110.024 151.488 110.169 151.952C111.663 154.804 114.845 153.045 115.722 152.063C116.371 151.349 118.401 148.893 119.456 147.594C119.538 147.496 119.597 147.382 119.628 147.26C119.659 147.138 119.661 147.01 119.634 146.887C119.608 146.764 119.553 146.648 119.475 146.548C119.396 146.448 119.296 146.367 119.18 146.31ZM96.3357 58.5946C97.4192 54.8128 99.3365 51.308 101.954 48.3255L101.856 48.2462C99.6515 46.0004 96.9823 44.2383 94.0261 43.0771C91.0699 41.9158 87.8943 41.382 84.7104 41.5111C81.7067 41.7554 78.7919 42.6277 76.1641 44.0687C73.5363 45.5097 71.2569 47.4858 69.4807 49.8627C72.6417 52.4115 75.0746 55.714 76.5435 59.4503C77.1573 57.5393 78.3178 55.8393 79.8884 54.5506C81.4591 53.2618 83.3743 52.4381 85.4086 52.1764C91.0589 51.4632 94.5497 55.124 96.3357 58.5946ZM101.645 170.002H91.1401C90.0035 164.36 88.7533 159.067 87.4869 154.265C94.2998 157.521 101.629 159.627 109.162 160.493C107.1 163.298 104.438 166.737 101.645 170.002ZM95.053 168.1L93.4294 161.064C93.3599 160.786 93.1816 160.546 92.9327 160.395C92.6838 160.243 92.3841 160.194 92.098 160.256C91.8133 160.323 91.5671 160.498 91.4123 160.74C91.2575 160.983 91.2064 161.276 91.27 161.555L92.8936 168.576C92.9459 168.815 93.0811 169.029 93.2763 169.182C93.4715 169.335 93.7148 169.417 93.9652 169.415H94.225C94.5029 169.348 94.7437 169.178 94.8977 168.942C95.0517 168.707 95.1073 168.422 95.053 168.148V168.1ZM99.2907 168.1L98.2841 163.805C98.2516 163.667 98.1913 163.536 98.1066 163.42C98.022 163.304 97.9147 163.206 97.7909 163.131C97.6671 163.055 97.5293 163.005 97.3855 162.982C97.2416 162.959 97.0945 162.964 96.9527 162.997C96.8112 163.027 96.6773 163.084 96.5588 163.165C96.4402 163.246 96.3395 163.35 96.2623 163.469C96.1852 163.589 96.1333 163.722 96.1097 163.862C96.086 164.001 96.0911 164.143 96.1246 164.281L97.1313 168.576C97.1896 168.814 97.3287 169.027 97.526 169.18C97.7234 169.332 97.9675 169.415 98.2191 169.415H98.5276C98.7957 169.338 99.0235 169.164 99.1651 168.928C99.3068 168.693 99.3517 168.414 99.2907 168.148V168.1ZM56.1668 151.857C53.845 155.121 55.6148 159.78 55.9882 157.863C56.8769 155.466 58.0082 153.162 59.3654 150.985C59.4265 150.878 59.4615 150.759 59.4675 150.637C59.4735 150.514 59.4505 150.393 59.4001 150.28C59.3498 150.168 59.2736 150.069 59.1774 149.991C59.0812 149.912 58.9677 149.857 58.8458 149.828C56.3802 149.166 53.9745 148.308 51.6531 147.261C51.6531 147.261 51.0686 147.974 52.5461 149.337C53.6426 150.318 54.8586 151.165 56.1668 151.857ZM112.182 156.421C105.398 156.005 98.7235 154.545 92.4065 152.094C90.2144 151.226 88.0922 150.199 86.0581 149.02C86.2854 149.844 86.5127 150.605 86.74 151.524C94.1683 155.357 102.293 157.737 110.656 158.528L112.182 156.421ZM66.4607 50.3222L66.0548 50.0211C64.7269 49.1586 63.35 48.3703 61.9308 47.6599C61.508 47.545 61.1076 47.363 60.7455 47.1211C59.0252 46.4112 57.1426 46.1596 55.2901 46.3921C55.134 46.415 54.9849 46.4708 54.8531 46.5557C54.7213 46.6405 54.61 46.7523 54.527 46.8833C54.121 47.6757 54.8679 49.4982 55.2576 50.4649V50.6392C56.5403 52.9846 58.0665 55.2983 59.544 57.5328C60.778 59.4028 62.0282 61.3045 63.181 63.2696C63.3341 58.7773 64.4515 54.3665 66.4607 50.3222ZM69.0098 64.5849C69.8866 64.3789 70.877 64.1729 71.9486 63.951C71.9689 61.5029 71.0209 59.1415 69.3021 57.3585C68.2333 59.6357 68.1283 62.2325 69.0098 64.5849ZM80.7 62.5247C82.4698 62.3029 84.337 62.0968 86.3341 61.9225C88.3312 61.7482 90.1496 61.6214 92.2766 61.5105C91.6223 60.4719 90.6896 59.6276 89.5792 59.069C88.4689 58.5103 87.2232 58.2586 85.9769 58.341C84.7566 58.4148 83.5901 58.8571 82.6388 59.6067C81.6876 60.3562 80.9987 61.376 80.6676 62.5247H80.7ZM105.055 61.4313C105.289 59.3371 104.709 57.2335 103.431 55.536C102.114 57.1919 101.462 59.26 101.596 61.352L105.055 61.4313ZM60.9079 131.16H61.5411C61.2488 130.431 60.9566 129.734 60.6968 129.068C59.6139 129.101 58.5546 129.386 57.6069 129.898C56.6591 130.411 55.8501 131.136 55.2469 132.015C54.6436 132.893 54.2635 133.899 54.138 134.95C54.0125 136 54.1453 137.065 54.5253 138.055C54.9052 139.045 55.5215 139.933 56.323 140.644C57.1246 141.356 58.0883 141.871 59.1343 142.146C60.1803 142.422 61.2786 142.45 62.3381 142.229C63.3976 142.008 64.3878 141.543 65.2268 140.874C64.967 140.145 64.7072 139.432 64.4474 138.751C63.9276 139.334 63.266 139.78 62.5233 140.049C61.7806 140.317 60.9808 140.399 60.1972 140.287C59.4137 140.174 58.6716 139.872 58.0391 139.407C57.4067 138.941 56.9042 138.328 56.5779 137.624C56.2515 136.92 56.1118 136.147 56.1715 135.376C56.2312 134.605 56.4884 133.862 56.9196 133.213C57.3507 132.565 57.9419 132.033 58.6388 131.666C59.3357 131.298 60.1159 131.108 60.9079 131.112V131.16ZM70.1139 155.882L69.5294 153.901C67.9305 154.314 66.5401 155.281 65.6169 156.62C64.6938 157.96 64.3009 159.581 64.5114 161.182C64.7219 162.783 65.5215 164.255 66.7613 165.324C68.0011 166.393 69.5965 166.985 71.2505 166.991C71.8233 167.01 72.3963 166.956 72.9553 166.832C72.7929 166.167 72.6468 165.501 72.4844 164.836C72.0757 164.937 71.6559 164.99 71.2342 164.994C70.0893 164.988 68.9861 164.574 68.1309 163.831C67.2756 163.088 66.727 162.067 66.5877 160.958C66.4484 159.848 66.7279 158.728 67.374 157.805C68.02 156.883 68.9883 156.221 70.0977 155.945L70.1139 155.882Z" fill="#F4C900"/>
<path d="M108.492 170C110.114 167.969 111.606 165.795 112.984 163.654C112.984 163.654 115.076 166.414 117.979 170H108.492ZM69.0706 55.7689C69.155 55.7566 69.241 55.7631 69.3224 55.7878C69.4038 55.8125 69.4785 55.8549 69.5409 55.9117C69.7031 56.0704 73.3355 59.4814 73.1409 63.6382C73.8869 63.4795 74.7625 63.3367 75.5085 63.2098C74.4395 58.6791 71.9302 54.5966 68.3409 51.5487C66.303 55.8429 65.3732 60.5606 65.6328 65.2882L68.0004 64.6694C67.4666 63.2578 67.2511 61.7501 67.3687 60.2494C67.4862 58.7487 67.934 57.2907 68.6814 55.9752C68.7289 55.917 68.7878 55.8688 68.8546 55.8334C68.9215 55.798 68.995 55.776 69.0706 55.7689ZM85.7571 54.1824C79.7733 54.9281 78.3301 60.4016 77.9896 62.7973L79.6112 62.5593C79.9533 61.1218 80.7533 59.8278 81.8958 58.864C83.0384 57.9002 84.4643 57.3164 85.9679 57.1968C87.5122 57.1021 89.0519 57.4416 90.4053 58.1754C91.7587 58.9091 92.8692 60.0064 93.6058 61.3377H95.2274C94.3679 58.942 91.7896 53.4209 85.7571 54.1824ZM119.649 55.3247C114.492 55.3247 112.173 59.5132 111.33 61.6708L112.952 61.7978C113.654 60.6143 114.648 59.6223 115.844 58.9127C117.039 58.203 118.398 57.7985 119.795 57.7362C123.946 57.7362 125.568 61.9882 126.006 63.4319L127.627 63.7016C127.044 61.0045 125.195 55.4833 119.827 55.3564L119.649 55.3247ZM108.638 61.4646C108.191 57.1474 106.416 53.0646 103.546 49.7559C100.303 52.929 98.5193 58.8944 97.9031 61.2266H100.514C100.411 59.9409 100.588 58.6486 101.032 57.4345C101.477 56.2204 102.179 55.1121 103.092 54.1824C103.195 54.0864 103.331 54.0328 103.473 54.0328C103.615 54.0328 103.752 54.0864 103.854 54.1824C104.731 55.1441 105.392 56.275 105.794 57.502C106.196 58.729 106.331 60.0248 106.19 61.3059L108.638 61.4646ZM108.379 43.6319C106.53 40.4588 105.865 38.317 103.473 36.7305C101.811 38.317 100.871 40.6968 99.622 43.3781C101.016 44.3045 102.309 45.3677 103.481 46.5511C105.054 45.5675 106.676 44.5521 108.379 43.6319ZM71.3085 44.7742C68.9085 41.8867 66.249 39.4752 65.3409 39.38C64.595 39.9987 63.7193 42.8704 63.0706 45.6151C64.5148 46.3512 65.912 47.1725 67.2544 48.0742L67.7896 48.4074C68.8503 47.0968 70.0279 45.881 71.3085 44.7742ZM129.379 124.434L128.844 124.196C128.563 124.395 128.214 124.481 127.871 124.434C127.245 124.337 126.644 124.122 126.103 123.8C125.968 123.906 125.811 123.982 125.643 124.023C125.475 124.064 125.3 124.069 125.13 124.038C123.646 123.753 122.326 122.931 121.433 121.737C121.079 122.761 120.485 123.69 119.7 124.45C118.915 125.21 117.959 125.781 116.908 126.116L116.26 126.306L115.433 126.465L115.092 126.687C114.935 126.971 114.674 127.186 114.363 127.29C113.939 127.427 113.505 127.533 113.065 127.607C110.438 128.385 107.664 128.558 104.957 128.115C102.853 127.873 100.83 127.174 99.0382 126.068C98.6428 126.143 98.2409 126.18 97.8382 126.18C97.025 126.181 96.22 126.02 95.4726 125.706C94.7253 125.393 94.0514 124.933 93.4923 124.355C93.3525 124.582 93.1895 124.795 93.0058 124.99C92.6272 125.384 92.1663 125.695 91.6543 125.9C91.1423 126.106 90.5911 126.201 90.0382 126.18C89.3344 126.227 88.6291 126.108 87.9826 125.832C87.336 125.556 86.7672 125.131 86.3247 124.593C86.2596 124.507 86.2 124.417 86.1463 124.323C85.7525 124.796 85.2456 125.167 84.6706 125.402C84.5571 125.451 84.4369 125.483 84.3139 125.497C83.9179 125.618 83.4937 125.618 83.0977 125.497C90.2012 130.977 98.7258 134.411 107.714 135.413C115.001 136.175 122.369 135.49 129.379 133.398V124.434ZM41.3733 135.397L38.0004 137.952C42.7071 148.403 46.8161 159.102 50.3085 170H54.8977C51.1623 158.19 46.6447 146.632 41.3733 135.397ZM24.3463 148.328L20.9896 150.961C22.7409 154.721 25.676 161.448 28.8382 170H33.4436C29.2274 158.64 25.595 150.755 24.3463 148.328ZM15.8652 154.928C17.2923 158.101 19.822 163.511 22.3517 170H26.4058C22.8382 160.861 19.449 154.705 18.4923 152.802L15.8652 154.928Z" fill="#C72F2A"/>
</g>
<path d="M33.5383 80.7311C31.2306 78.8849 27.846 75.0388 26.4614 73.5003C26.1537 73.1926 25.5383 73.1926 25.2306 73.5003C23.846 75.0388 20.6152 78.8849 18.1537 80.7311C12.7691 85.3465 10.6152 87.5003 10.6152 91.5003C10.6152 96.1157 14.6152 99.9618 19.5383 99.9618C21.3845 99.9618 23.5383 99.3465 24.9229 98.2695L25.0768 98.1157C24.7691 100.423 23.9998 103.808 21.6922 106.116C21.3845 106.423 21.5383 106.731 21.9998 106.731H25.9998H29.9998C30.3075 106.731 30.4614 106.27 30.3075 106.116C27.9998 103.808 27.2306 100.577 26.9229 98.1157L27.0768 98.2695C28.3075 99.3465 30.6152 99.9618 32.4614 99.9618C37.3845 99.9618 41.3845 96.1157 41.3845 91.5003C41.3845 87.5003 39.2306 85.3465 33.5383 80.7311Z" fill="#24242E"/>
<path d="M28.7913 31.44L41.0753 64H33.8973L24.5733 37.286L20.4293 43.576V64H13.9913V11.756H20.4293V34.252L33.8973 11.756H41.0753L28.7913 31.44Z" fill="#24242E"/>
<defs>
<linearGradient id="paint0_linear_324_104577" x1="92" y1="2" x2="92" y2="182" gradientUnits="userSpaceOnUse">
<stop stop-color="white" stop-opacity="0.85"/>
<stop offset="1" stop-color="white" stop-opacity="0.15"/>
</linearGradient>
<clipPath id="clip0_324_104577">
<rect width="116.757" height="165" fill="white" transform="translate(12.6211 5)"/>
</clipPath>
</defs>
</svg>
