<svg width="184" height="184" viewBox="0 0 184 184" fill="none" xmlns="http://www.w3.org/2000/svg">
<rect x="1" y="1" width="182" height="182" rx="13" stroke="black" stroke-opacity="0.25" stroke-width="2"/>
<rect x="2.5" y="2.5" width="179" height="179" rx="11.5" fill="#E9E9E9" stroke="url(#paint0_linear_324_104513)"/>
<rect x="41.0449" y="30.5" width="101.909" height="123" rx="1.5" fill="#D7D5D7" stroke="#CDCFD6"/>
<path d="M106.039 119.213C103.962 119.213 101.885 119.559 99.8084 120.252C103.616 116.79 106.039 112.29 106.039 107.098C106.039 97.0592 97.3854 89.0977 87.0008 89.0977C76.6161 89.0977 67.9623 97.4054 67.9623 107.098C67.9623 112.29 70.3854 117.136 74.1931 120.252C72.1161 119.559 70.3854 119.213 67.9623 119.213C57.5777 119.213 48.9238 127.175 48.9238 137.213C48.9238 147.252 57.5777 155.213 67.9623 155.213C75.5777 155.213 81.8084 151.059 84.9238 145.175C84.5777 150.367 82.8469 158.328 77.6546 163.521C76.9623 164.213 77.3084 164.905 78.3469 164.905H87.0008H95.6546C96.3469 164.905 96.6931 163.867 96.3469 163.521C91.1546 158.328 89.4238 150.713 89.0777 145.175C92.1931 151.059 98.77 155.213 106.039 155.213C116.424 155.213 125.078 147.252 125.078 137.213C125.078 127.521 116.424 119.213 106.039 119.213Z" fill="#24242E"/>
<path d="M36.4608 86.537C35.5377 86.537 34.6146 86.6908 33.6916 86.9985C35.3839 85.46 36.4608 83.46 36.4608 81.1523C36.4608 76.6908 32.6146 73.1523 27.9992 73.1523C23.3839 73.1523 19.5377 76.8447 19.5377 81.1523C19.5377 83.46 20.6146 85.6139 22.3069 86.9985C21.3839 86.6908 20.6146 86.537 19.5377 86.537C14.9223 86.537 11.0762 90.0754 11.0762 94.537C11.0762 98.9985 14.9223 102.537 19.5377 102.537C22.9223 102.537 25.6916 100.691 27.0762 98.0754C26.9223 100.383 26.1531 103.922 23.8454 106.229C23.5377 106.537 23.6916 106.845 24.1531 106.845H27.9992H31.8454C32.1531 106.845 32.3069 106.383 32.1531 106.229C29.8454 103.922 29.0762 100.537 28.9223 98.0754C30.3069 100.691 33.23 102.537 36.4608 102.537C41.0762 102.537 44.9223 98.9985 44.9223 94.537C44.9223 90.2293 41.0762 86.537 36.4608 86.537Z" fill="#24242E"/>
<path d="M38.857 23.3C38.857 30.922 38.413 34.548 34.639 35.88C34.195 36.028 33.529 36.102 33.233 36.176C33.455 36.25 34.269 36.472 34.861 36.694C39.227 38.618 39.227 43.428 39.227 48.312C39.227 52.456 39.227 55.786 38.043 58.746C35.675 64.592 28.127 64.666 27.461 64.666C22.873 64.666 19.839 62.742 18.433 60.966C16.657 58.746 16.139 55.49 16.139 52.604C16.139 41.652 16.139 37.952 22.207 36.176C17.471 35.362 16.805 32.254 16.805 23.744C16.805 20.118 16.879 11.09 27.831 11.09C32.567 11.09 35.527 13.014 36.933 14.79C38.857 17.38 38.857 21.08 38.857 23.3ZM32.715 24.41C32.789 20.858 32.937 16.27 27.905 16.27C23.243 16.27 22.799 19.97 22.799 24.78C22.799 29.738 22.799 33.438 27.979 33.438C32.493 33.438 32.567 30.034 32.715 24.41ZM32.863 49.348C32.863 44.168 32.863 39.728 27.683 39.728C26.869 39.728 25.537 39.876 24.427 40.69C22.577 42.17 22.577 44.168 22.577 49.644C22.577 55.046 22.577 58.82 27.683 58.82C32.863 58.82 32.863 54.528 32.863 49.348Z" fill="#24242E"/>
<defs>
<linearGradient id="paint0_linear_324_104513" x1="92" y1="2" x2="92" y2="182" gradientUnits="userSpaceOnUse">
<stop stop-color="white" stop-opacity="0.85"/>
<stop offset="1" stop-color="white" stop-opacity="0.15"/>
</linearGradient>
</defs>
</svg>
