<svg width="184" height="184" viewBox="0 0 184 184" fill="none" xmlns="http://www.w3.org/2000/svg">
<rect x="1" y="1" width="182" height="182" rx="13" stroke="black" stroke-opacity="0.25" stroke-width="2"/>
<rect x="2.5" y="2.5" width="179" height="179" rx="11.5" fill="#E9E9E9" stroke="url(#paint0_linear_324_104527)"/>
<rect x="41.0469" y="30.5" width="101.909" height="123" rx="1.5" fill="#D7D5D7" stroke="#CDCFD6"/>
<path d="M101.191 94.5898C95.9982 94.5898 91.1521 96.6668 87.3444 100.128C86.9982 100.474 86.6521 100.474 86.3059 100.128C82.8444 96.6668 77.9982 94.5898 72.4597 94.5898C61.3828 94.5898 52.3828 103.59 52.3828 115.013C52.3828 125.051 57.229 130.244 70.0367 140.974C75.229 145.474 82.8444 154.821 85.6136 158.628C86.3059 159.667 87.6905 159.667 88.3828 158.628C91.4982 154.821 98.7675 145.474 103.96 140.974C116.421 129.898 121.614 125.051 121.614 115.013C121.614 103.59 112.614 94.5898 101.191 94.5898Z" fill="#BF3030"/>
<path d="M34.3076 75.5977C31.9999 75.5977 29.846 76.5207 28.1537 78.0592C27.9999 78.213 27.846 78.213 27.6922 78.0592C26.1537 76.5207 23.9999 75.5977 21.5383 75.5977C16.6152 75.5977 12.6152 79.5977 12.6152 84.6746C12.6152 89.1361 14.7691 91.4438 20.4614 96.213C22.7691 98.213 26.1537 102.367 27.3845 104.059C27.6922 104.521 28.3076 104.521 28.6152 104.059C29.9999 102.367 33.2306 98.213 35.5383 96.213C41.0768 91.29 43.3845 89.1361 43.3845 84.6746C43.3845 79.5977 39.3845 75.5977 34.3076 75.5977Z" fill="#BF3030"/>
<path d="M30.8101 11.756L42.3541 64H35.5461L33.6961 53.936H21.5601L19.7841 64H13.0501L24.2981 11.756H30.8101ZM22.6701 48.312H32.5861L27.4801 21.45L22.6701 48.312Z" fill="#BF3030"/>
<defs>
<linearGradient id="paint0_linear_324_104527" x1="92" y1="2" x2="92" y2="182" gradientUnits="userSpaceOnUse">
<stop stop-color="white" stop-opacity="0.85"/>
<stop offset="1" stop-color="white" stop-opacity="0.15"/>
</linearGradient>
</defs>
</svg>
