<svg width="184" height="184" viewBox="0 0 184 184" fill="none" xmlns="http://www.w3.org/2000/svg">
<rect x="1" y="1" width="182" height="182" rx="13" stroke="black" stroke-opacity="0.25" stroke-width="2"/>
<rect x="2.5" y="2.5" width="179" height="179" rx="11.5" fill="#E9E9E9" stroke="url(#paint0_linear_324_104474)"/>
<rect x="41.0449" y="30.5" width="101.909" height="123" rx="1.5" fill="#D7D5D7" stroke="#CDCFD6"/>
<g clip-path="url(#clip0_324_104474)">
<path d="M131.378 37.4697V163.657C131.378 164.919 130.789 167.69 129.877 168.582C128.964 169.474 127.803 170.001 126.513 170.001H19.486C18.1957 170.001 16.9967 169.499 16.0844 168.606C15.172 167.714 14.6211 166.453 14.6211 165.192V130.993L57.2535 116.278H57.367V116.183C56.0758 114.049 55.6751 111.51 56.2481 109.095C56.6284 107.541 57.5613 106.169 58.8801 105.225C60.199 104.281 61.818 103.826 63.4481 103.941C64.3802 103.911 65.309 104.065 66.1786 104.395C67.0481 104.724 67.8404 105.223 68.5076 105.86C69.1488 106.617 69.6238 107.494 69.9028 108.438C70.1818 109.382 70.2589 110.372 70.1292 111.347V111.664L70.3076 111.394C71.0888 110.255 71.7208 109.024 72.1887 107.731L72.9995 95.9972C72.9022 93.4125 72.9995 90.9547 73.1292 88.9726C73.1292 87.5297 73.2751 86.277 73.2589 85.2146C73.2589 79.6964 72.1724 71.9266 72.1562 71.8473L71.913 68.3588L71.3779 66.4877C71.2775 66.1549 71.0734 65.8611 70.7941 65.6473C70.5022 65.0923 64.5022 53.168 59.9616 48.5061C59.3262 47.9701 58.8638 47.2651 58.6306 46.4769C58.3974 45.6886 58.4035 44.8511 58.6481 44.0662C59.6211 41.4815 64.713 36.7245 88.0157 34.124C103.81 32.3639 120.626 35.0595 131.378 37.4697Z" fill="#E7E7E7"/>
<path d="M32.1167 158.369C31.4544 157.949 30.9901 157.289 30.8259 156.534C30.6617 155.779 30.8111 154.991 31.2411 154.344C31.6711 153.697 32.3466 153.243 33.119 153.082C33.8914 152.922 34.6974 153.068 35.3596 153.488C36.0219 153.908 36.4862 154.569 36.6504 155.323C36.8146 156.078 36.6652 156.866 36.2352 157.513C35.8052 158.161 35.1297 158.614 34.3573 158.775C33.5849 158.935 32.7789 158.789 32.1167 158.369ZM21.6258 162.315C22.1634 162.878 22.9078 163.21 23.6954 163.236C24.483 163.263 25.2492 162.983 25.8254 162.458C26.4017 161.932 26.7408 161.205 26.7681 160.435C26.7955 159.665 26.5089 158.916 25.9713 158.353C25.4338 157.79 24.6893 157.459 23.9018 157.432C23.1142 157.405 22.348 157.685 21.7717 158.211C21.1955 158.736 20.8564 159.463 20.829 160.233C20.8017 161.003 21.0883 161.752 21.6258 162.315ZM90.3435 56.9465L93.3918 49.1179L90.1489 42.3511C87.7167 42.573 81.3605 43.1752 76.4637 43.9358L74.6152 50.0529L78.977 57.6913C81.2957 57.5011 87.3113 57.0415 90.3435 56.9465ZM52.7255 128.148C51.9949 128.321 51.3583 128.757 50.9445 129.371C50.5307 129.984 50.3703 130.728 50.4959 131.452C50.6215 132.176 51.0236 132.827 51.621 133.273C52.2184 133.718 52.9667 133.926 53.7146 133.853C54.4452 133.681 55.0817 133.244 55.4956 132.631C55.9094 132.018 56.0698 131.274 55.9442 130.55C55.8186 129.825 55.4165 129.175 54.8191 128.729C54.2217 128.283 53.4734 128.076 52.7255 128.148ZM43.2237 146.531C42.4776 146.285 41.6621 146.339 40.9566 146.681C40.2512 147.023 39.7135 147.624 39.4619 148.354C39.2103 149.083 39.2655 149.88 39.6152 150.569C39.9649 151.259 40.5805 151.784 41.3266 152.03C42.0727 152.276 42.8882 152.222 43.5937 151.88C44.2992 151.539 44.8368 150.937 45.0884 150.208C45.34 149.478 45.2848 148.681 44.9351 147.992C44.5855 147.302 43.9698 146.777 43.2237 146.531ZM49.1421 137.91C48.3572 137.849 47.5798 138.095 46.9807 138.595C46.3817 139.094 46.0101 139.805 45.9478 140.573C45.8854 141.34 46.1374 142.099 46.6482 142.685C47.1591 143.27 47.887 143.633 48.6718 143.694C49.4567 143.755 50.2341 143.509 50.8331 143.01C51.4322 142.511 51.8038 141.799 51.8661 141.032C51.9285 140.265 51.6765 139.505 51.1656 138.92C50.6548 138.334 49.9269 137.971 49.1421 137.91ZM89.0625 99.2745C90.1651 99.4964 90.0192 101.477 92.046 101.699C94.0728 101.921 94.543 99.9084 94.2674 98.5297C93.8565 97.4169 93.1781 96.4169 92.2892 95.6138C92.2956 96.1654 92.5091 96.6956 92.8891 97.1034C93.5215 97.8166 94.3971 100.748 92.6459 100.653C90.8947 100.558 91.4136 99.0685 89.6786 98.4505C89.2053 98.2681 88.6815 98.2538 88.1985 98.4102C87.7155 98.5666 87.304 98.8837 87.0357 99.3062C87.7004 99.1481 88.3929 99.1373 89.0625 99.2745ZM99.9749 83.3163C103.485 83.7091 106.866 84.8448 109.882 86.6442H109.055L108.455 86.3907C107.765 86.4944 107.11 86.7549 106.542 87.1514C105.488 87.912 106.963 87.8486 106.963 87.8486C104.54 88.745 101.937 89.0813 99.3588 88.8312C95.5483 88.3241 95.4348 87.4208 94.1701 87.4049C92.9054 87.3891 92.5486 87.4049 93.0675 86.9136C93.8773 86.0763 94.6353 85.1926 95.3376 84.2672C95.6781 83.6967 96.1969 83.0152 96.6023 83.0152C97.7336 83.0142 98.8626 83.115 99.9749 83.3163ZM102.602 84.6633C102.594 85.3432 102.4 86.0086 102.041 86.5908C101.682 87.1731 101.17 87.651 100.559 87.9754C101.817 88.2021 103.113 88.1038 104.32 87.6902C105.828 87.0087 106.201 86.3273 106.234 86.1054C106.266 85.8836 105.991 85.6776 105.764 85.4874C104.725 85.1582 103.67 84.8831 102.602 84.6633ZM100.802 84.5207C100.802 84.941 100.631 85.3441 100.327 85.6413C100.023 85.9385 99.6105 86.1054 99.1804 86.1054C98.7504 86.1054 98.338 85.9385 98.0339 85.6413C97.7298 85.3441 97.559 84.941 97.559 84.5207C97.5502 84.3994 97.5502 84.2776 97.559 84.1562H96.6996C96.5968 84.1885 96.5027 84.2426 96.4239 84.3147V84.5207C96.372 84.8991 96.4034 85.284 96.5162 85.6495C96.6289 86.015 96.8202 86.3528 97.0774 86.6401C97.3346 86.9275 97.6517 87.1578 98.0074 87.3155C98.3632 87.4733 98.7493 87.5549 99.1399 87.5549C99.5305 87.5549 99.9166 87.4733 100.272 87.3155C100.628 87.1578 100.945 86.9275 101.202 86.6401C101.46 86.3528 101.651 86.015 101.764 85.6495C101.876 85.284 101.908 84.8991 101.856 84.5207L100.737 84.3622C100.737 84.3622 100.802 84.4732 100.802 84.5207ZM115.865 57.8656L120.016 50.5125L118.395 43.6189C116.303 43.302 111.195 42.6047 106.509 42.3828L103.169 49.0387L106.412 57.1683C108.358 57.3268 113.157 57.5962 115.865 57.8656ZM131.378 61.2982V48.6307L128.934 52.5726L131.378 61.2982ZM131.366 37.4543V43.7932C131.304 43.8492 131.412 43.9131 131.366 43.9834L126.113 51.4791C126.001 51.6487 125.926 51.8389 125.893 52.0379C125.859 52.2368 125.868 52.4404 125.918 52.636L128.545 62.6198C128.617 62.8866 128.765 63.128 128.972 63.3159C129.178 63.5039 129.435 63.6307 129.713 63.6815L131.366 63.9668V165.241C131.366 166.502 130.822 167.717 129.909 168.608C128.997 169.5 127.76 170.001 126.47 170.001L128.642 167.117C128.642 167.117 130.588 163.852 127.54 162.679C126.669 162.226 125.663 162.086 124.697 162.283C123.731 162.48 122.867 163.001 122.254 163.757L117.389 170.001H69.005L58.9357 154.233C58.9109 154.193 58.878 154.158 58.8389 154.13C58.7999 154.102 58.7556 154.083 58.7086 154.073C58.6616 154.062 58.613 154.061 58.5657 154.07C58.5183 154.078 58.4732 154.096 58.433 154.122C58.3918 154.146 58.356 154.178 58.3278 154.217C58.2996 154.255 58.2796 154.298 58.269 154.344C58.2584 154.39 58.2574 154.437 58.2661 154.484C58.2748 154.53 58.293 154.574 58.3195 154.613L68.1294 170.001H55.1577C55.8806 168.634 56.2586 167.118 56.2603 165.58C56.2603 165.358 56.2603 165.12 56.2603 164.898C56.2451 164.666 56.1634 164.444 56.0246 164.255C55.8858 164.067 55.6956 163.92 55.4756 163.833C55.2556 163.745 55.0148 163.72 54.7808 163.76C54.5468 163.799 54.329 163.903 54.1524 164.058C54.0035 164.188 53.8879 164.351 53.8147 164.532C53.7415 164.714 53.7128 164.91 53.7308 165.104C53.7308 165.263 53.7308 165.421 53.7308 165.58C53.7218 167.191 53.1497 168.751 52.1093 170.001H46.1099L52.2066 164.724C52.3758 164.578 52.4975 164.387 52.5564 164.174C52.6154 163.961 52.609 163.736 52.5382 163.527C52.4674 163.317 52.3352 163.133 52.158 162.996C51.9809 162.86 51.7666 162.777 51.5418 162.759L42.0076 161.919C41.813 161.332 41.6185 160.762 41.4239 160.239C42.7525 159.05 44.4871 158.389 46.2883 158.385C47.5009 158.375 48.6972 158.659 49.7697 159.213C50.8422 159.766 51.7576 160.57 52.4336 161.554C52.5358 161.712 52.6739 161.843 52.8371 161.94C53.0003 162.036 53.1841 162.094 53.3741 162.109C53.6108 162.131 53.8491 162.088 54.0617 161.984C54.2744 161.88 54.4527 161.72 54.5763 161.521C54.6999 161.322 54.7637 161.094 54.7604 160.862C54.7571 160.629 54.6869 160.402 54.5577 160.207C53.7537 159.028 52.694 158.035 51.4539 157.301C50.2138 156.566 48.8235 156.107 47.3815 155.955C45.9396 155.804 44.4812 155.965 43.1098 156.426C41.7384 156.887 40.4875 157.637 39.4457 158.623C39.4457 158.623 38.9593 158.623 38.8944 159.383C38.8944 159.875 40.5159 164.835 41.7806 170.001H19.4855C18.3572 169.999 17.2648 169.614 16.3951 168.911C15.5255 168.209 14.9327 167.233 14.7184 166.15C15.5206 165.823 16.2073 165.273 16.6942 164.569C17.181 163.865 17.4468 163.038 17.4587 162.188L16.3561 155.58L14.6211 155.691V130.224L56.1792 116.136C55.7587 115.346 55.4166 114.518 55.1577 113.664C54.5253 111.509 54.8172 103.252 62.7137 103.046C69.7509 102.872 70.5778 107.388 70.6102 109.274C70.9533 108.811 71.2518 108.317 71.502 107.8L72.3452 96.1051C72.2479 93.5378 72.3452 91.129 72.4911 89.0847C72.4911 87.6426 72.6371 86.3907 72.6209 85.3289C72.5236 79.8141 71.5183 71.938 71.5183 71.938L71.3723 68.4199C71.252 67.5194 71.0401 66.6328 70.74 65.7734C70.74 65.7734 64.5297 53.4442 59.8599 48.6425C55.1901 43.8408 60.0221 37.2483 87.9599 34.1264C102.342 32.5258 118.281 34.5226 131.366 37.4543ZM76.8529 59.894C76.9795 60.1182 77.1649 60.3053 77.3901 60.4362C77.6152 60.5671 77.8719 60.637 78.1338 60.6389H78.2635C78.3608 60.6389 88.6085 59.799 91.365 59.799C91.6652 59.8006 91.9587 59.7117 92.2053 59.5444C92.452 59.3771 92.6398 59.1395 92.7432 58.864L96.3429 49.6409C96.4726 49.3092 96.4726 48.9424 96.3429 48.6108L92.3541 40.2117C92.2218 39.9496 92.0119 39.7323 91.7516 39.5882C91.4914 39.4441 91.1929 39.3797 90.8947 39.4035C90.5056 39.4035 81.3119 40.1959 74.9882 41.3052C74.7079 41.3555 74.4485 41.484 74.2413 41.6752C74.0342 41.8664 73.8881 42.1122 73.8207 42.3828L71.5993 49.7359C71.5327 49.9282 71.5084 50.1321 71.528 50.3341C71.5475 50.5362 71.6105 50.732 71.7128 50.9086L76.8529 59.894ZM32.5707 128.877L38.1161 132.205C39.1717 131.051 39.8691 129.628 40.1267 128.101L34.4354 126.278L33.9976 126.437L32.5707 128.877ZM26.1659 135.359L29.9277 140.557C31.3646 139.899 32.5796 138.855 33.4301 137.546L28.6954 133.489L26.1659 135.359ZM17.6694 138.877L19.0477 145.089C20.6343 145.047 22.1734 144.551 23.4743 143.663L20.7502 138.148L17.6694 138.877ZM28.063 159.225L25.339 153.06L18.1397 155.437L20.0692 162.426C20.5041 163.273 21.2279 163.946 22.1159 164.328C23.0039 164.71 24.0004 164.777 24.9336 164.518C26.0434 164.186 26.9833 163.455 27.564 162.473C28.1447 161.491 28.323 160.33 28.063 159.225ZM37.5972 153.837L33.4139 148.496L27.0253 152.521L30.6412 158.86C31.2743 159.579 32.1448 160.057 33.1015 160.214C34.0582 160.37 35.0407 160.194 35.8785 159.716C36.8787 159.136 37.614 158.203 37.9335 157.11C38.2531 156.017 38.1328 154.846 37.5972 153.837ZM45.4289 146.325L40.0456 142.157L34.9218 147.656L40.0132 152.933C40.8189 153.461 41.7876 153.697 42.7525 153.602C43.7174 153.507 44.618 153.085 45.2992 152.41C46.1034 151.6 46.5639 150.522 46.5879 149.393C46.612 148.264 46.1979 147.168 45.4289 146.325ZM51.2337 137.165L44.9749 134.408L41.278 140.905L47.5368 144.804C48.4326 145.151 49.4241 145.183 50.3412 144.893C51.2584 144.604 52.044 144.012 52.5633 143.219C53.1867 142.244 53.4031 141.072 53.1677 139.945C52.9324 138.819 52.2633 137.824 51.2986 137.165H51.2337ZM54.5577 126.896L47.7962 125.724L45.8505 132.887L52.8876 135.184C53.849 135.299 54.8209 135.081 55.6352 134.569C56.4495 134.056 57.0549 133.282 57.3467 132.379C57.683 131.298 57.5893 130.133 57.0842 129.116C56.5791 128.099 55.7 127.307 54.6226 126.896H54.5577ZM59.2924 120.811C59.3437 119.763 59.0293 118.729 58.4006 117.879L56.9251 118.402C57.2883 118.724 57.5634 119.129 57.7252 119.581C57.887 120.033 57.9304 120.518 57.8514 120.991C57.7724 121.463 57.5735 121.909 57.2729 122.287C56.9724 122.666 56.5796 122.965 56.1306 123.156C55.6516 123.351 55.1288 123.42 54.6142 123.356C54.0996 123.292 53.6112 123.097 53.1978 122.79C52.7843 122.484 52.4603 122.077 52.2579 121.61C52.0555 121.143 51.9819 120.633 52.0445 120.13L48.3638 121.429V124.076L55.7576 124.614C56.7172 124.49 57.6022 124.042 58.2596 123.347C58.9169 122.653 59.3052 121.756 59.3573 120.811H59.2924ZM62.7299 139.035C60.5409 137.815 59.2924 137.023 59.2924 137.023L61.3192 140.287C61.4258 139.967 61.6195 139.682 61.8794 139.461C62.1393 139.241 62.4558 139.094 62.7948 139.035H62.7299ZM68.1294 141.745C67.0917 141.254 66.1188 140.763 65.2432 140.319C65.3656 140.629 65.408 140.965 65.3666 141.295C65.3252 141.625 65.2014 141.94 65.0059 142.213C64.8105 142.485 64.5494 142.707 64.2458 142.857C63.9422 143.008 63.6054 143.083 63.265 143.076H63.0866C64.319 143.869 65.5837 144.661 66.8484 145.279C66.5706 144.999 66.3783 144.649 66.2932 144.269C66.2081 143.888 66.2336 143.491 66.3668 143.124C66.5 142.756 66.7356 142.432 67.047 142.189C67.3585 141.945 67.7333 141.792 68.1294 141.745ZM73.3019 144.027C72.1668 143.568 71.0967 143.108 70.0589 142.649C70.2601 142.956 70.3741 143.31 70.3894 143.674C70.4046 144.039 70.3205 144.401 70.1457 144.723C69.9709 145.046 69.7116 145.317 69.3944 145.509C69.0772 145.702 68.7134 145.808 68.3402 145.818C68.1947 145.834 68.0478 145.834 67.9024 145.818C69.1023 146.436 70.3022 147.007 71.5183 147.529C71.2315 147.239 71.0374 146.874 70.9596 146.478C70.8818 146.082 70.9237 145.672 71.0802 145.299C71.2367 144.926 71.501 144.606 71.8408 144.377C72.1807 144.148 72.5813 144.021 72.9938 144.011L73.3019 144.027ZM92.3865 149.352C91.2353 149.193 90.1002 149.003 88.9652 148.781C89.2285 148.979 89.4447 149.23 89.5987 149.517C89.7527 149.805 89.8408 150.121 89.857 150.445C89.8545 150.906 89.693 151.352 89.3987 151.711C89.1044 152.071 88.6946 152.323 88.2355 152.426C89.6949 152.696 91.0569 152.886 92.3216 153.044C91.9936 152.853 91.7226 152.581 91.5354 152.256C91.3483 151.93 91.2515 151.562 91.2548 151.189C91.2581 150.816 91.3613 150.45 91.5541 150.127C91.747 149.805 92.0227 149.538 92.3541 149.352H92.3865ZM92.5649 123.505C99.9101 123.283 114.957 115.772 119.514 111.493C116.271 104.964 116.271 96.7548 116.271 89.5918C116.271 88.4667 116.271 87.3732 116.271 86.3115C116.293 81.1876 115.544 76.0884 114.049 71.1773C101.434 69.3232 86.6627 68.5625 73.6424 71.6527V71.7637C73.6424 72.0331 73.9991 74.5686 74.291 77.7064C74.456 77.5247 74.6539 77.3743 74.8747 77.2627C76.6583 76.296 77.842 76.9616 79.4148 77.0408C80.9876 77.12 83.1766 76.708 82.9982 77.2627C82.9982 77.2627 82.8523 79.2119 80.1282 78.9583C77.4042 78.7048 76.5286 78.4987 75.3936 78.9583C75.0386 79.125 74.7194 79.3562 74.4531 79.6398C74.5828 81.3354 74.6963 83.1103 74.745 84.7109C75.8382 84.297 77.0168 84.1448 78.1825 84.2672C81.4254 84.4098 83.0469 85.8519 83.3387 86.3748C83.3512 86.427 83.3512 86.4812 83.3387 86.5333C83.436 86.9137 83.5009 87.8011 82.1713 88.6727C80.9297 89.3781 79.5024 89.709 78.069 89.6235H77.8582C76.6685 89.7643 75.4675 89.4708 74.4855 88.7995V89.1323C74.1612 95.2176 73.7234 103.537 78.7338 110.399C80.4525 112.745 81.701 114.789 82.7874 116.58C85.7709 121.445 87.1167 123.679 92.5324 123.505H92.5649ZM78.6041 85.5825C78.6041 86.6601 77.9555 87.5475 77.1447 87.5475C76.334 87.5475 75.7178 86.7235 75.6692 85.6934C75.4434 85.7548 75.2214 85.8289 75.0044 85.9153C74.8098 87.1672 75.1017 89.164 77.2582 88.8787C79.4148 88.5935 79.7066 86.4065 79.658 85.3289C79.3021 85.2964 78.9438 85.2964 78.5878 85.3289C78.5987 85.413 78.6041 85.4977 78.6041 85.5825ZM82.8199 86.7552C82.2254 86.2596 81.5443 85.873 80.8092 85.6142C80.89 86.6211 80.6522 87.6279 80.1282 88.4984C82.0578 88.0071 82.7226 87.1355 82.8199 86.7552ZM98.2724 153.567C97.9129 153.41 97.604 153.159 97.3788 152.843C97.1536 152.528 97.0206 152.158 96.994 151.773C96.9673 151.389 97.048 151.005 97.2275 150.662C97.407 150.32 97.6785 150.031 98.013 149.827C96.8617 149.827 95.6943 149.716 94.543 149.605C94.8353 149.853 95.0542 150.172 95.1768 150.53C95.2994 150.889 95.3212 151.273 95.24 151.642C95.1588 152.011 94.9775 152.352 94.7151 152.63C94.4527 152.907 94.1189 153.111 93.7485 153.219C95.5646 153.409 97.105 153.52 98.2724 153.567ZM103.802 149.669C102.553 149.78 101.288 149.843 100.04 149.859C100.372 150.077 100.637 150.38 100.804 150.735C100.972 151.091 101.036 151.484 100.989 151.873C100.942 152.261 100.786 152.629 100.538 152.937C100.291 153.244 99.9611 153.479 99.5858 153.615H100.769L103.802 149.669ZM119.027 161.919C118.597 161.919 118.185 162.086 117.881 162.383C117.577 162.68 117.406 163.083 117.406 163.504C117.406 163.924 117.577 164.327 117.881 164.624C118.185 164.921 118.597 165.088 119.027 165.088C119.457 165.088 119.87 164.921 120.174 164.624C120.478 164.327 120.649 163.924 120.649 163.504C120.649 163.083 120.478 162.68 120.174 162.383C119.87 162.086 119.457 161.919 119.027 161.919ZM100.04 49.4982L103.931 59.0066C104.036 59.2627 104.215 59.4839 104.444 59.644C104.674 59.8041 104.947 59.8964 105.228 59.9099C105.228 59.9099 113.757 60.4012 116.498 60.7498H116.773C117.04 60.7492 117.301 60.6782 117.529 60.5443C117.758 60.4104 117.945 60.2185 118.07 59.9891L122.935 51.3048C123.111 50.9907 123.163 50.624 123.081 50.2748L120.892 42.0025C120.823 41.7256 120.673 41.4744 120.459 41.2801C120.246 41.0857 119.979 40.9567 119.692 40.909C114.998 40.1797 110.267 39.6983 105.52 39.4669C105.237 39.4575 104.957 39.5271 104.713 39.6674C104.469 39.8077 104.271 40.013 104.142 40.2593L100.088 48.3414C100.001 48.521 99.9514 48.7161 99.943 48.9149C99.9347 49.1138 99.9676 49.3122 100.04 49.4982ZM15.6426 160.841C15.4036 160.401 15.0515 160.03 14.6211 159.764V164.518C15.2489 164.157 15.7073 163.57 15.8982 162.883C16.0891 162.196 15.9973 161.463 15.6426 160.841ZM126.389 164.312C125.918 164.066 125.374 163.991 124.853 164.098C124.331 164.205 123.864 164.488 123.535 164.898L119.595 170.001H124.459L126.989 166.673C126.989 166.673 128.124 164.946 126.389 164.312ZM77.3069 81.589C76.8876 81.6141 76.4785 81.726 76.1067 81.9173C75.7349 82.1085 75.409 82.3747 75.1503 82.6983C77.4604 82.1383 79.9021 82.4614 81.9767 83.6016C81.4655 82.8763 80.7581 82.304 79.9335 81.9486C79.109 81.5933 78.1996 81.4687 77.3069 81.589ZM42.6886 164.185C43.1426 165.77 43.5804 167.354 43.9858 168.939L48.8502 164.645L42.6886 164.185ZM92.6297 84.0611C92.4514 84.2513 92.6297 84.5207 92.6297 84.5207C92.6297 84.5207 94.6565 82.7141 95.3376 82.0327C96.0186 81.3513 102.115 81.7633 107.369 83.7284H107.953C105.487 82.107 102.605 81.1955 99.6344 81.0977C94.0728 80.6223 93.1486 81.3671 93.4567 81.6365C93.7647 81.9059 93.9269 82.001 93.8296 82.2387C93.477 82.8747 93.0759 83.4839 92.6297 84.0611ZM93.8296 78.4512C95.7979 78.3936 97.7544 78.1333 99.6669 77.6747C102.31 77.2407 105.025 77.5654 107.482 78.6097C108.129 78.6814 108.782 78.6814 109.428 78.6097C108.782 77.8247 107.968 77.1866 107.045 76.7397C105.569 76.0583 101.921 74.4735 100.559 74.6479C99.1966 74.8222 94.7376 75.6621 94.0728 75.7889C93.408 75.9156 91.1542 75.7889 91.3163 76.7397C91.4785 77.6905 93.3107 78.4037 93.8296 78.4512ZM82.2848 89.9563C81.5162 90.5922 80.6221 91.0669 79.658 91.3509C78.377 91.6203 80.8417 91.8105 81.474 91.3509C81.8944 90.9862 82.1795 90.4959 82.2848 89.9563ZM96.5699 108.751C96.0186 109.005 96.1321 109.765 94.4782 110.067C92.8243 110.368 91.5271 108.815 90.0516 107.816C88.5761 106.818 88.1545 107.816 87.8464 108.212C87.6389 108.481 87.3496 108.677 87.0203 108.774C86.6909 108.871 86.3385 108.863 86.0141 108.751C85.025 108.45 84.3927 107.071 83.7927 108.149C83.2114 108.877 82.5293 109.522 81.7659 110.067C82.2199 110.795 83.0144 110.843 84.49 110.605C84.2608 110.952 84.1794 111.373 84.263 111.778C84.4413 113.093 86.1276 114.092 88.8841 113.822C91.6406 113.553 91.8676 111.984 91.7379 111.841C91.6082 111.699 91.3163 112.555 89.4516 112.951C87.587 113.347 85.6736 112.824 85.5115 111.905C85.3493 110.986 86.6303 110.748 86.6303 110.748C86.9109 110.88 87.1596 111.069 87.36 111.303C88.6409 110.146 91.2839 110.431 92.7594 110.732C94.235 111.033 96.5699 110.97 97.2995 110.114C98.0292 109.258 97.1212 108.513 96.5699 108.751ZM87.0357 104.314C87.0357 102.159 83.436 101.145 82.4793 100.178C82.0612 99.8537 81.7504 99.416 81.586 98.9198C81.4215 98.4235 81.4108 97.8909 81.5551 97.3887C81.7335 96.7548 85.4304 89.8295 85.6574 86.9453C85.7451 86.1398 85.6638 85.3252 85.4185 84.5513C85.1731 83.7775 84.7689 83.0607 84.2305 82.4447C84.9115 83.1578 84.6359 85.4082 84.5873 87.1989C84.1244 89.5534 83.2699 91.8179 82.0578 93.9023C81.0816 95.3047 80.5564 96.9603 80.5498 98.6565C80.9552 100.923 84.1332 101.683 85.2358 102.365C85.98 102.872 86.5956 103.539 87.0357 104.314ZM95.2727 89.7028C94.235 88.7678 93.9269 89.1323 93.9269 89.1323C93.9269 89.1323 93.7972 89.5918 94.689 90.3684C95.4751 90.9414 96.3865 91.3283 97.3516 91.4988C98.3166 91.6693 99.309 91.6187 100.251 91.3509C100.251 91.3509 99.1804 90.9389 99.0507 90.8438C98.921 90.7487 96.3104 90.6061 95.2727 89.7028ZM90.311 114.726C88.713 114.804 87.1858 115.394 85.9655 116.405C85.2845 116.897 86.8249 116.516 86.8249 116.516C87.6305 115.831 88.6595 115.449 89.7273 115.439C91.9487 115.169 91.7703 115.835 92.5973 115.914C93.4242 115.993 92.9378 114.631 90.311 114.726Z" fill="#24242E"/>
<path d="M79.9908 115.778C79.2047 116.047 77.7309 116.505 75.8968 116.932C76.6268 115.306 77.1067 113.586 77.3215 111.827C78.3696 113.249 79.2211 114.529 79.9908 115.778ZM68.1346 156.727C68.1346 156.727 66.4971 159.224 66.4971 160.235C66.4971 161.247 67.9873 162.005 67.9873 162.005C67.9873 162.005 69.6249 159.919 69.4775 158.718C69.3043 157.915 68.825 157.204 68.1346 156.727ZM72.5398 169.844C72.5398 169.844 74.1774 167.758 74.03 166.557C73.8444 165.747 73.3469 165.035 72.638 164.565C72.638 164.565 71.0004 167.047 71.0004 168.058C71.0004 169.07 72.5398 169.844 72.5398 169.844ZM70.3945 160.646C70.3945 160.646 68.6751 163.127 68.7569 164.139C68.8388 165.15 70.2308 165.909 70.2308 165.909C70.2308 165.909 71.8684 163.823 71.721 162.637C71.5467 161.843 71.0742 161.14 70.3945 160.662V160.646ZM76.3553 110.436C75.9296 109.772 75.5202 109.093 75.1763 108.413C75.1637 111.636 74.2531 114.797 72.5398 117.564C73.2112 117.469 73.8662 117.342 74.4885 117.216C75.5979 115.114 76.234 112.808 76.3553 110.452V110.436ZM56.7043 142.361C56.7043 142.361 58.3419 140.274 58.1945 139.073C58.0051 138.269 57.508 137.563 56.8025 137.098C56.8025 137.098 55.0831 139.579 55.1649 140.59C55.2468 141.602 56.7534 142.376 56.7534 142.376L56.7043 142.361ZM118.933 89.7958C118.933 88.6737 118.933 87.5832 118.933 86.5243C118.927 81.5871 118.222 76.6739 116.837 71.9212L114.986 71.6367C116.393 76.4825 117.104 81.4918 117.099 86.5243C117.099 87.5832 117.099 88.6737 117.099 89.8116C117.099 97.1605 117.23 105.616 120.865 112.127C123.096 116.169 126.855 119.226 131.362 120.661V120.661C119.195 114.719 119.047 101.001 118.949 89.8116L118.933 89.7958ZM74.161 106.169C73.8199 105.283 73.5247 104.381 73.2767 103.466C73.1129 105.9 72.9164 108.571 72.8182 109.377C72.638 110.958 71.7701 115.699 68.2329 118.038C69.1663 118.038 70.0834 117.927 70.9677 117.832C73.6861 114.672 74.0463 110.357 74.161 106.169ZM131.362 121.42L129.118 120.946C120.601 125.549 111.04 128.057 101.279 128.247C90.9587 128.375 80.9158 125.021 72.8837 118.765L68.8552 119.65C68.8552 119.65 79.4831 131.914 100.805 131.914C109.254 132.014 117.616 130.252 125.254 126.762L109.959 144.937C103.048 145.585 79.7452 146.517 58.8986 131.645L57.6705 134.648C57.6705 134.648 82.0705 151.306 107.011 148.445L88.9484 170.002H101.885L113.627 154.988L131.362 161.657V158.892L115.33 152.76L124.369 141.207L131.362 143.83V140.986L126.105 138.978L131.362 132.262V121.42ZM62.2557 111.937C62.8099 112.102 63.4082 112.056 63.9286 111.81C64.449 111.563 64.8522 111.134 65.056 110.61C65.2037 110.315 65.2531 109.984 65.1974 109.661C65.1417 109.339 64.9835 109.041 64.7448 108.808C64.4719 108.528 64.1328 108.315 63.7564 108.189C63.3801 108.062 62.9776 108.025 62.5832 108.081C61.4938 108.428 60.5736 109.148 59.9958 110.104C59.7835 110.522 59.661 110.976 59.6357 111.441C59.6104 111.905 59.6827 112.37 59.8484 112.807C60.0033 113.362 60.3202 113.863 60.7615 114.25C61.2028 114.636 61.7498 114.892 62.3376 114.988C63.16 115.12 64.0028 115.071 64.8026 114.843C65.6024 114.616 66.3385 114.217 66.9556 113.676C67.7231 112.863 68.1738 111.818 68.2305 110.719C68.2873 109.621 67.9466 108.537 67.2667 107.655C66.4388 106.621 65.2718 105.889 63.957 105.579C62.6421 105.269 61.2571 105.399 60.0286 105.948C59.3385 106.198 58.7123 106.589 58.1924 107.093C57.6725 107.598 57.2711 108.204 57.0154 108.871C56.3289 110.91 56.4934 113.127 57.4739 115.051C58.7349 117.516 62.1083 119.397 66.4971 117.69C67.7147 117.2 68.7566 116.376 69.4938 115.32C70.6347 113.895 71.3026 112.17 71.4098 110.373C70.5411 111.765 69.4336 113.005 68.1346 114.039C68.1315 114.003 68.1315 113.966 68.1346 113.929C68.0345 114.081 67.9193 114.224 67.7908 114.355C67.0551 115.061 66.1564 115.588 65.1685 115.893C64.1806 116.198 63.1318 116.272 62.1083 116.11C61.3351 115.975 60.6171 115.632 60.0375 115.121C59.4579 114.609 59.0403 113.949 58.8331 113.218C58.6142 112.646 58.5186 112.037 58.5524 111.428C58.5862 110.819 58.7486 110.223 59.0297 109.677C59.7566 108.467 60.9239 107.56 62.3048 107.133C62.8948 107.019 63.5052 107.052 64.0784 107.229C64.6515 107.406 65.1683 107.721 65.58 108.144C65.9598 108.525 66.2139 109.007 66.3101 109.527C66.4063 110.048 66.3403 110.584 66.1204 111.068C65.8214 111.849 65.2151 112.485 64.4332 112.837C63.6513 113.189 62.757 113.23 61.9446 112.949C61.8153 112.9 61.7097 112.806 61.6486 112.685C61.5875 112.565 61.5752 112.427 61.6142 112.298C61.6531 112.169 61.7406 112.06 61.8593 111.99C61.978 111.92 62.1194 111.896 62.2557 111.922V111.937ZM131.362 80.5661V74.8924L130.412 74.6553C130.841 76.6072 131.158 78.5805 131.362 80.5661V80.5661ZM124.812 89.8116C124.812 88.6947 124.812 87.6042 124.812 86.5401C124.789 81.9897 124.201 77.4584 123.059 73.0433L121.193 72.6956C122.383 77.2158 122.994 81.8602 123.01 86.5243C123.01 87.5832 123.01 88.6737 123.01 89.8116C123.01 99.4837 123.207 111.116 131.378 117.516V116.378C124.975 109.488 124.812 98.82 124.812 89.8116ZM127.726 89.8116C127.726 88.6895 127.726 87.599 127.726 86.5401C127.675 82.2119 127.126 77.9025 126.089 73.6913L124.222 73.2962C125.285 77.6315 125.834 82.0693 125.86 86.5243C125.86 87.5832 125.86 88.6737 125.86 89.8116C125.86 98.1562 126.023 107.971 131.296 114.608V112.19C127.874 105.6 127.792 97.1447 127.726 89.8116ZM65.8584 152.807C65.8584 152.807 64.2208 155.288 64.2208 156.3C64.2208 157.311 65.6946 158.07 65.6946 158.07C65.6946 158.07 67.3322 156 67.1848 154.798C67.0158 153.998 66.5426 153.288 65.8584 152.807V152.807ZM121.864 89.8116C121.864 88.6895 121.864 87.599 121.864 86.5401C121.836 81.7844 121.175 77.0519 119.899 72.4585L118.048 72.1425C119.341 76.835 120.001 81.6688 120.013 86.5243C120.013 87.5832 120.013 88.6737 120.013 89.8116C120.112 100.511 120.259 113.518 131.313 119.365V118.875C122.11 112.333 121.962 100.021 121.88 89.8116H121.864ZM130.641 89.8116C130.641 88.6895 130.641 87.599 130.641 86.5401C130.61 82.4476 130.138 78.3693 129.233 74.3708L127.366 73.9441C128.308 78.0982 128.802 82.3353 128.84 86.5875C128.84 87.6464 128.84 88.7369 128.84 89.8748C128.84 96.1965 128.971 103.482 131.362 109.519V102.566C130.835 98.3339 130.6 94.0732 130.658 89.8116H130.641ZM61.355 144.952C61.355 144.952 59.7174 147.45 59.7174 148.461C59.7174 149.472 61.1913 150.231 61.1913 150.231C61.1913 150.231 62.8289 148.145 62.6815 146.944C62.5124 146.143 62.0393 145.433 61.355 144.952V144.952ZM74.8979 168.501C74.8979 168.501 74.423 169.196 73.9972 170.002H76.1588C75.8825 169.403 75.4476 168.886 74.8979 168.501V168.501ZM63.6149 148.888C63.6149 148.888 61.9773 151.369 61.9773 152.38C61.9773 153.392 63.4511 154.15 63.4511 154.15C63.4511 154.15 65.0887 152.064 64.9413 150.863C64.7685 150.069 64.2957 149.365 63.6149 148.888ZM59.1115 140.986C59.1115 140.986 57.3921 143.467 57.4739 144.478C57.5558 145.49 58.9642 146.248 58.9642 146.248C58.9642 146.248 60.6017 144.178 60.438 142.977C60.2563 142.195 59.7845 141.503 59.1115 141.033V140.986Z" fill="#F4C900"/>
<path d="M48.1469 153.465C48.6581 152.927 49.1346 152.358 49.5735 151.762C49.6239 151.693 49.6944 151.641 49.7756 151.613C49.8569 151.585 49.9449 151.582 50.0279 151.605C50.1109 151.627 50.1848 151.674 50.2398 151.739C50.2948 151.804 50.3282 151.884 50.3355 151.969C50.3639 152.332 50.5184 152.675 50.7732 152.939C51.6649 153.831 55.6367 157.443 53.5941 156.122C51.9495 155.226 50.1797 154.572 48.3415 154.181C48.2646 154.166 48.1935 154.129 48.1364 154.077C48.0793 154.024 48.0383 153.956 48.0181 153.882C47.9979 153.808 47.9992 153.729 48.022 153.655C48.0447 153.582 48.088 153.516 48.1469 153.465ZM35.8098 164.446C35.6665 164.054 35.3723 163.733 34.9904 163.551C34.6085 163.37 34.1693 163.343 33.7671 163.475C27.7727 165.529 21.5535 166.886 15.2371 167.518C15.6544 168.267 16.2686 168.892 17.0156 169.328C17.7626 169.765 18.6152 169.997 19.4846 170.001H37.5607C37.0722 168.121 36.4878 166.268 35.8098 164.446ZM49.0223 139.173C48.6928 139.254 48.3975 139.434 48.178 139.688C47.9586 139.943 47.826 140.259 47.7992 140.591C47.7723 140.923 47.8524 141.256 48.0283 141.541C48.2041 141.826 48.4668 142.05 48.7792 142.181C49.1702 142.186 49.5486 142.045 49.8377 141.787C50.1268 141.528 50.3048 141.171 50.3358 140.789C50.3667 140.406 50.2482 140.026 50.0043 139.726C49.7604 139.426 49.4093 139.228 49.0223 139.173ZM52.9618 129.353C52.5619 129.427 52.2083 129.654 51.9788 129.984C51.7493 130.313 51.6626 130.719 51.7378 131.112C51.8131 131.504 52.0441 131.852 52.38 132.077C52.716 132.302 53.1293 132.387 53.5292 132.313C53.9291 132.24 54.2827 132.013 54.5122 131.683C54.7418 131.353 54.8284 130.947 54.7532 130.555C54.6779 130.162 54.4469 129.815 54.111 129.59C53.775 129.364 53.3617 129.279 52.9618 129.353ZM14.6211 154.642C20.9923 153.608 30.1519 150.743 36.7825 143.311C45.5044 133.427 46.3636 125.072 46.315 121.905L42.9267 123.099C41.9865 128.605 37.1878 146.223 14.6211 151.046V154.642ZM131.378 57.0347V50.4777L130.113 52.3079L131.378 57.0347ZM77.328 44.3981L75.7068 49.4273L79.4842 56.0639C81.997 55.8729 86.5849 55.5387 89.4706 55.3955L92.1131 48.5997L89.4544 42.9657C86.7632 43.2044 81.6079 43.7296 77.328 44.3981ZM107.028 42.9498L104.207 48.5679L107.028 55.6501C109.071 55.7774 112.686 56.0002 115.134 56.239L118.652 49.8729L117.322 44.1116C115.134 43.7296 110.984 43.1885 107.028 42.9498ZM131.378 39.1141V42.0425C130.938 42.2335 130.529 42.5107 130.259 42.9021L125.185 50.4777C124.997 50.7678 124.872 51.0924 124.816 51.4317C124.76 51.7709 124.775 52.1178 124.861 52.4512L127.471 62.4936C127.601 62.9651 127.866 63.3905 128.233 63.7202C128.601 64.0499 129.056 64.2703 129.546 64.3557L131.378 64.674V66.0745C130.443 65.7908 129.482 65.5989 128.508 65.5016C117.213 63.3296 105.712 62.3532 94.2044 62.5891C87.0789 62.5668 79.9693 63.2493 72.9833 64.6263C71.3621 61.5865 65.5097 50.8278 61.4567 46.6262C61.0386 46.139 60.7988 45.5282 60.7758 44.8915C61.7972 40.658 70.7623 37.6501 88.2061 35.6925C104.337 33.8941 121.764 36.9497 131.378 39.1141ZM97.3008 47.6925L93.329 39.1779C93.1036 38.7202 92.7439 38.3392 92.296 38.0839C91.8482 37.8286 91.3328 37.7108 90.8161 37.7455C90.4271 37.7455 81.1864 38.5413 74.8152 39.6713C74.3187 39.7535 73.8576 39.9767 73.4888 40.3132C73.12 40.6498 72.8597 41.085 72.7401 41.5652L70.5353 48.8862C70.4211 49.2229 70.3794 49.5793 70.4129 49.9327C70.4464 50.2862 70.5543 50.6289 70.7298 50.9392L75.8852 60.0268C76.1087 60.4166 76.4335 60.7413 76.8265 60.9678C77.2195 61.1942 77.6667 61.3143 78.1224 61.3159H78.3331C78.4466 61.3159 88.6276 60.4724 91.3025 60.4724C91.8211 60.4745 92.3284 60.3241 92.7589 60.0404C93.1895 59.7567 93.5236 59.3528 93.718 58.8809L97.3008 49.5069C97.5277 48.9226 97.5277 48.2768 97.3008 47.6925ZM123.92 49.6023L121.943 41.1991C121.813 40.7246 121.546 40.2967 121.176 39.9665C120.805 39.6364 120.345 39.4179 119.851 39.3371C115.11 38.5975 110.331 38.1087 105.536 37.8729C105.042 37.8594 104.555 37.9839 104.13 38.2318C103.705 38.4797 103.361 38.8409 103.137 39.2734L99.0841 47.2946C98.9235 47.6089 98.8332 47.9533 98.8192 48.3046C98.8052 48.656 98.8679 49.0062 99.0031 49.3318L102.894 58.8809C103.079 59.3274 103.389 59.7136 103.787 59.9951C104.186 60.2766 104.657 60.4421 105.147 60.4724C105.488 60.4724 113.675 60.9658 116.333 61.3159H116.755C117.219 61.3169 117.675 61.1946 118.075 60.9621C118.474 60.7296 118.803 60.3954 119.025 59.9949L123.888 51.2575C124.109 50.7322 124.143 50.1491 123.985 49.6023H123.92ZM55.5557 121.634C55.8185 121.477 56.0301 121.249 56.1657 120.977C56.3013 120.705 56.3552 120.401 56.3212 120.101C56.2872 119.8 56.1666 119.515 55.9736 119.28C55.7806 119.044 55.5232 118.867 55.2314 118.77L53.7562 119.295C53.5968 119.566 53.5222 119.877 53.5418 120.189C53.5614 120.501 53.6742 120.8 53.8661 121.05C54.0581 121.3 54.3208 121.488 54.6212 121.592C54.9217 121.696 55.2467 121.711 55.5557 121.634ZM78.2521 134.828L83.1156 140.287C83.265 140.455 83.4606 140.578 83.6791 140.64C83.8976 140.702 84.1297 140.701 84.3477 140.637L90.8324 138.648C91.0117 138.594 91.1751 138.498 91.3082 138.369C91.4413 138.239 91.5401 138.079 91.596 137.904C91.6519 137.728 91.6633 137.542 91.6291 137.361C91.5949 137.18 91.5162 137.009 91.3998 136.865L86.9578 131.279C86.8147 131.093 86.6163 130.954 86.3898 130.883C86.1634 130.812 85.9201 130.811 85.6932 130.881L78.8195 132.982C78.6367 133.042 78.4715 133.144 78.3383 133.281C78.2051 133.418 78.108 133.584 78.0552 133.766C78.0025 133.948 77.9958 134.14 78.0358 134.325C78.0757 134.51 78.1611 134.683 78.2845 134.828H78.2521ZM81.4944 117.067C81.2512 116.653 80.9756 116.223 80.7163 115.778L78.1062 117.369C79.9835 118.82 82.0037 120.084 84.1369 121.141C83.1875 119.83 82.3108 118.47 81.5106 117.067H81.4944ZM85.5473 170.001H87.1685L86.8119 148.674L85.4014 148.372C85.6239 148.916 85.7162 149.504 85.6712 150.088C85.6262 150.673 85.4452 151.24 85.142 151.746C85.0414 151.879 84.9273 152.001 84.8016 152.112C84.6476 152.317 84.5645 152.565 84.5645 152.82C84.5645 153.075 84.6476 153.323 84.8016 153.528C85.288 154.038 83.7478 153.385 83.1804 152.605H82.84C82.4843 152.557 82.1425 152.437 81.8358 152.254C81.529 152.07 81.2639 151.827 81.0567 151.539C80.5217 150.743 81.6403 149.55 81.6403 149.55C81.8371 149.965 82.0591 150.369 82.305 150.759C82.5105 150.997 82.8 151.151 83.1156 151.189C83.2375 151.229 83.3697 151.227 83.4905 151.184C83.6112 151.14 83.7134 151.058 83.7803 150.95C83.9475 150.619 84.0344 150.254 84.0344 149.884C84.0344 149.514 83.9475 149.149 83.7803 148.817C83.5824 148.621 83.3441 148.468 83.0813 148.369C82.8185 148.271 82.5373 148.228 82.2564 148.245C81.8034 148.256 81.3617 148.386 80.9769 148.621C80.5922 148.856 80.2783 149.187 80.0678 149.581C79.0302 151.364 80.9108 153.178 82.8886 154.706L83.1156 154.897C84.8502 156.218 86.4714 157.475 85.9688 159.926C85.8586 160.871 85.4101 161.746 84.7034 162.396C83.9967 163.046 83.0777 163.429 82.1105 163.475C82.0434 163.61 81.9359 163.721 81.8024 163.794C81.2229 164.111 80.7383 164.572 80.397 165.13C80.0556 165.689 79.8694 166.325 79.857 166.977C79.8483 167.334 79.9129 167.689 80.0471 168.021C80.1813 168.353 80.3823 168.655 80.638 168.909C80.8937 169.163 81.199 169.364 81.5355 169.499C81.8721 169.635 82.233 169.703 82.5968 169.698C82.9629 169.716 83.3286 169.657 83.6697 169.526C84.0107 169.394 84.3192 169.192 84.5746 168.934C84.7498 168.711 84.8665 168.45 84.9146 168.172C84.9627 167.895 84.9406 167.61 84.8502 167.343C84.7893 166.96 84.6131 166.604 84.3445 166.32C84.0758 166.037 83.7269 165.839 83.3425 165.751C83.1961 165.708 83.0417 165.697 82.8903 165.719C82.739 165.741 82.5944 165.795 82.4671 165.879C82.3665 166.006 82.2943 166.152 82.2552 166.308C82.2161 166.465 82.211 166.627 82.2401 166.786C82.2579 166.84 82.2896 166.889 82.3321 166.928C82.3747 166.967 82.4268 166.995 82.4833 167.008C82.5751 167.037 82.6602 167.084 82.7337 167.145C82.8071 167.206 82.8674 167.281 82.9111 167.366C82.9548 167.45 82.9811 167.542 82.9884 167.637C82.9956 167.731 82.9838 167.826 82.9535 167.916C82.8906 168.099 82.7564 168.25 82.5803 168.337C82.4041 168.423 82.2002 168.438 82.0132 168.377C81.739 168.293 81.4896 168.144 81.2864 167.945C81.0831 167.745 80.932 167.501 80.8459 167.231C80.7405 166.863 80.7237 166.476 80.7968 166.1C80.87 165.725 81.0311 165.371 81.2675 165.067C81.5489 164.74 81.9197 164.499 82.3362 164.372C82.7527 164.245 83.1976 164.237 83.6181 164.351C84.2818 164.481 84.8903 164.804 85.3645 165.278C85.8386 165.752 86.1565 166.355 86.2769 167.008C86.4275 167.49 86.4545 168.001 86.3555 168.495C86.2565 168.989 86.0346 169.452 85.7095 169.841C85.6603 169.899 85.606 169.952 85.5473 170.001ZM77.2794 170.001H79.6949C79.275 169.62 78.9411 169.157 78.7149 168.641C78.4887 168.126 78.3752 167.57 78.3818 167.008C78.3705 166.292 78.5235 165.583 78.8294 164.933C79.1353 164.283 79.5862 163.708 80.1488 163.253C79.4888 162.954 78.9272 162.48 78.5277 161.884C78.2048 161.442 77.9987 160.929 77.9279 160.39C77.8572 159.851 77.924 159.304 78.1224 158.796C78.2611 158.397 78.4828 158.031 78.7734 157.721C79.064 157.41 79.4173 157.163 79.8106 156.994C80.204 156.824 80.6288 156.738 81.0583 156.738C81.4877 156.739 81.9123 156.827 82.305 156.998C82.7627 157.19 83.143 157.525 83.3864 157.951C83.6298 158.377 83.7227 158.87 83.6506 159.353C83.5815 159.724 83.3807 160.059 83.0838 160.298C82.7869 160.537 82.4133 160.664 82.0294 160.658C82.0294 160.658 81.4944 161.104 81.4296 160.276C81.3963 160.066 81.4297 159.851 81.5255 159.66C81.6212 159.469 81.7745 159.312 81.9646 159.21H82.1753C82.1788 159.048 82.1328 158.889 82.0432 158.753C81.9537 158.616 81.8246 158.51 81.6727 158.446C80.7973 158.064 79.9219 158.446 79.4355 159.544C79.3405 159.828 79.3174 160.129 79.3682 160.423C79.4191 160.717 79.5424 160.995 79.7273 161.231C79.9208 161.539 80.1901 161.793 80.5103 161.971C80.8305 162.149 81.1913 162.245 81.5593 162.25C81.9231 162.289 82.2913 162.256 82.6414 162.151C82.9915 162.046 83.3161 161.871 83.5953 161.639C83.8746 161.407 84.1026 161.121 84.2654 160.799C84.4282 160.477 84.5224 160.126 84.5422 159.767C84.8502 158.176 84.0072 157.523 82.2239 156.138L81.997 155.963C80.619 154.897 77.5712 152.542 78.4466 149.756C78.4466 149.756 76.9227 147.544 77.863 147.942C78.4299 148.166 79.0631 148.166 79.6301 147.942C79.9333 147.676 80.2714 147.452 80.6352 147.274C79.4646 146.926 78.3213 146.495 77.2145 145.985L77.2794 170.001ZM103.218 143.279L108.989 139.921C109.165 139.836 109.316 139.709 109.428 139.551C109.539 139.393 109.608 139.21 109.627 139.019C109.647 138.828 109.616 138.635 109.539 138.459C109.461 138.282 109.339 138.128 109.184 138.011L103.575 133.555C103.39 133.408 103.163 133.32 102.925 133.302C102.688 133.285 102.45 133.34 102.245 133.459L96.1336 137.024C95.9708 137.121 95.8346 137.256 95.737 137.417C95.6395 137.577 95.5834 137.759 95.5738 137.946C95.5642 138.133 95.6014 138.319 95.682 138.489C95.7626 138.658 95.8843 138.806 96.0363 138.918L102.002 143.168C102.18 143.309 102.397 143.395 102.625 143.415C102.853 143.435 103.082 143.388 103.283 143.279H103.218ZM120.176 112.547C115.604 116.573 103.364 122.908 95.3068 124.42C111.243 126.584 125.979 118.913 125.979 118.913C123.561 117.269 121.573 115.088 120.176 112.547ZM32.8917 157.109C33.2293 157.274 33.6169 157.309 33.9797 157.21C34.3426 157.11 34.6549 156.882 34.8564 156.569C35.0579 156.256 35.1344 155.882 35.0709 155.517C35.0075 155.152 34.8087 154.824 34.5129 154.595C34.1753 154.43 33.7877 154.395 33.4248 154.494C33.062 154.594 32.7496 154.822 32.5481 155.135C32.3466 155.447 32.2702 155.822 32.3337 156.187C32.3971 156.551 32.5959 156.88 32.8917 157.109ZM22.727 161.327C23.0249 161.481 23.3643 161.54 23.6979 161.496C24.0316 161.452 24.3431 161.307 24.589 161.081C24.835 160.855 25.0032 160.56 25.0705 160.236C25.1377 159.912 25.1005 159.576 24.9642 159.274C24.6765 159.03 24.3073 158.9 23.9275 158.907C23.5477 158.914 23.1841 159.059 22.9066 159.314C22.6291 159.569 22.4573 159.915 22.4241 160.287C22.3909 160.658 22.4988 161.029 22.727 161.327ZM75.107 130.992L71.7025 124.754C71.5901 124.548 71.417 124.38 71.2059 124.272C70.9948 124.164 70.7554 124.121 70.5191 124.149L63.467 125.088C63.2665 125.109 63.075 125.18 62.9111 125.295C62.7471 125.411 62.6163 125.565 62.5314 125.745C62.4465 125.924 62.4105 126.122 62.4267 126.32C62.4429 126.517 62.5109 126.707 62.624 126.87L66.4986 132.998C66.614 133.191 66.7846 133.347 66.9891 133.446C67.1937 133.545 67.4233 133.583 67.6496 133.555L74.2964 132.664C74.477 132.63 74.6469 132.555 74.7925 132.445C74.9381 132.335 75.0551 132.193 75.1341 132.03C75.2131 131.867 75.2518 131.688 75.2471 131.508C75.2424 131.328 75.1944 131.151 75.107 130.992ZM41.7757 150.616C42.1133 150.615 42.4421 150.51 42.7162 150.317C42.9904 150.124 43.1963 149.851 43.3052 149.538C43.4141 149.224 43.4205 148.885 43.3236 148.567C43.2267 148.25 43.0313 147.97 42.7646 147.767C42.3922 147.681 42.0004 147.734 41.6656 147.916C41.3307 148.098 41.0769 148.395 40.9534 148.751C40.83 149.107 40.8458 149.494 40.9978 149.839C41.1499 150.184 41.4271 150.461 41.7757 150.616ZM66.1743 147.751L67.9738 151.491C70.2661 152.62 72.6882 153.475 75.1881 154.038V151.316C72.0222 150.566 68.9854 149.365 66.1743 147.751ZM75.2367 158.892V156.186C73.2124 155.655 71.2424 154.941 69.3518 154.054L71.4431 157.619C72.6537 158.181 73.9268 158.603 75.2367 158.876V158.892Z" fill="#C72F2A"/>
</g>
<path d="M27.3846 73.9243C23.2308 79.4627 18.4615 84.6935 13.2308 89.4627C12.9231 89.7704 12.9231 90.232 13.2308 90.5397C18.4615 95.3089 23.2308 100.54 27.3846 106.078C27.6923 106.54 28.3077 106.54 28.6154 106.078C32.7692 100.54 37.5385 95.3089 42.7692 90.5397C43.0769 90.232 43.0769 89.7704 42.7692 89.4627C37.5385 84.6935 32.7692 79.4627 28.6154 73.9243C28.3077 73.4627 27.6923 73.4627 27.3846 73.9243Z" fill="#BF3030"/>
<path d="M32.4381 11.756H38.8761V46.906C38.8761 54.528 38.5801 56.008 38.0621 57.562C35.6941 64.74 27.8501 64.74 26.0741 64.74C19.1181 64.74 16.0101 60.892 15.0481 57.34C14.4561 55.194 14.4561 53.566 14.4561 48.312H20.7461C20.7461 53.936 20.8201 54.75 21.3381 56.082C22.1521 58.08 23.9281 59.19 26.0001 59.19C31.2541 59.264 32.2161 55.416 32.3641 53.27C32.4381 52.234 32.4381 48.46 32.4381 47.276V11.756Z" fill="#BF3030"/>
<defs>
<linearGradient id="paint0_linear_324_104474" x1="92" y1="2" x2="92" y2="182" gradientUnits="userSpaceOnUse">
<stop stop-color="white" stop-opacity="0.85"/>
<stop offset="1" stop-color="white" stop-opacity="0.15"/>
</linearGradient>
<clipPath id="clip0_324_104474">
<rect width="116.757" height="165" fill="white" transform="translate(14.6211 5)"/>
</clipPath>
</defs>
</svg>
