<svg width="186" height="184" viewBox="0 0 186 184" fill="none" xmlns="http://www.w3.org/2000/svg">
<rect x="3" y="1" width="182" height="182" rx="13" stroke="black" stroke-opacity="0.25" stroke-width="2"/>
<rect x="4.5" y="2.5" width="179" height="179" rx="11.5" fill="#E9E9E9" stroke="url(#paint0_linear_324_104507)"/>
<rect x="43.0449" y="30.5" width="101.909" height="123" rx="1.5" fill="#D7D5D7" stroke="#CDCFD6"/>
<rect x="1" y="1" width="182" height="182" rx="13" stroke="black" stroke-opacity="0.25" stroke-width="2"/>
<rect x="2.5" y="2.5" width="179" height="179" rx="11.5" fill="#E9E9E9" stroke="url(#paint1_linear_324_104507)"/>
<rect x="41.0449" y="30.5" width="101.909" height="123" rx="1.5" fill="#D7D5D7" stroke="#CDCFD6"/>
<path d="M101.192 94.5898C96.0002 94.5898 91.154 96.6668 87.3463 100.128C87.0002 100.474 86.654 100.474 86.3079 100.128C82.8463 96.6668 78.0002 94.5898 72.4617 94.5898C61.3848 94.5898 52.3848 103.59 52.3848 115.013C52.3848 125.051 57.2309 130.244 70.0386 140.974C75.2309 145.474 82.8463 154.821 85.6156 158.628C86.3079 159.667 87.6925 159.667 88.3848 158.628C91.5002 154.821 98.7694 145.474 103.962 140.974C116.423 129.898 121.616 125.051 121.616 115.013C121.616 103.59 112.616 94.5898 101.192 94.5898Z" fill="#BF3030"/>
<path d="M34.3076 75.5977C31.9999 75.5977 29.846 76.5207 28.1537 78.0592C27.9999 78.213 27.846 78.213 27.6922 78.0592C26.1537 76.5207 23.9999 75.5977 21.5383 75.5977C16.6152 75.5977 12.6152 79.5977 12.6152 84.6746C12.6152 89.1361 14.7691 91.4438 20.4614 96.213C22.7691 98.213 26.1537 102.367 27.3845 104.059C27.6922 104.521 28.3076 104.521 28.6152 104.059C29.9999 102.367 33.2306 98.213 35.5383 96.213C41.0768 91.29 43.3845 89.1361 43.3845 84.6746C43.3845 79.5977 39.3845 75.5977 34.3076 75.5977Z" fill="#BF3030"/>
<path d="M16.361 47.276V28.406C16.361 21.968 16.361 21.228 16.805 19.23C17.323 16.566 19.025 11.09 27.461 11.09C30.791 11.09 34.121 11.978 36.267 14.568C38.487 17.158 38.487 20.118 38.487 24.188H32.419C32.419 19.896 32.419 16.862 27.609 16.862C23.687 16.862 22.947 19.6 22.725 20.488C22.355 22.042 22.355 24.188 22.355 29.664V33.586C23.539 32.18 25.537 29.886 29.681 29.886C31.975 29.886 34.491 30.626 36.415 32.698C38.783 35.14 39.153 37.804 39.153 46.166C39.153 50.606 39.153 57.192 37.525 60.004C35.453 63.408 31.383 64.666 27.387 64.666C25.611 64.666 18.137 64.666 16.731 56.526C16.361 54.306 16.361 51.124 16.361 47.276ZM32.789 47.498C32.789 46.166 32.715 41.282 32.641 40.246C32.567 39.136 32.197 35.288 27.535 35.288C22.429 35.288 22.429 39.58 22.429 47.572C22.429 49.792 22.429 53.196 22.651 54.824C22.873 55.786 23.391 58.968 27.757 58.968C32.789 58.968 32.789 55.12 32.789 47.498Z" fill="#BF3030"/>
<defs>
<linearGradient id="paint0_linear_324_104507" x1="94" y1="2" x2="94" y2="182" gradientUnits="userSpaceOnUse">
<stop stop-color="white" stop-opacity="0.85"/>
<stop offset="1" stop-color="white" stop-opacity="0.15"/>
</linearGradient>
<linearGradient id="paint1_linear_324_104507" x1="92" y1="2" x2="92" y2="182" gradientUnits="userSpaceOnUse">
<stop stop-color="white" stop-opacity="0.85"/>
<stop offset="1" stop-color="white" stop-opacity="0.15"/>
</linearGradient>
</defs>
</svg>
