<svg width="478" height="478" viewBox="0 0 478 478" fill="none" xmlns="http://www.w3.org/2000/svg">
<path d="M410.268 261.07C411.228 253.867 411.707 246.423 411.707 238.5C411.707 230.817 411.228 223.133 410.028 215.93L458.722 177.994C460.82 176.263 462.254 173.857 462.779 171.186C463.304 168.515 462.887 165.745 461.601 163.347L415.545 83.6329C414.182 81.2283 412.017 79.3809 409.429 78.415C406.841 77.4491 403.996 77.4263 401.393 78.3506L344.064 101.401C332.07 92.2766 319.357 84.5933 305.204 78.8308L296.569 17.8443C296.144 15.0959 294.749 12.591 292.636 10.7847C290.523 8.97838 287.834 7.99036 285.055 8.00007H192.945C187.188 8.00007 182.63 12.0818 181.671 17.8443L173.035 78.8308C158.883 84.5933 145.93 92.5167 134.176 101.401L76.847 78.3506C71.5699 76.4297 65.5731 78.3506 62.6946 83.6329L16.8792 163.347C14.0008 168.39 14.9603 174.632 19.7577 177.994L68.4515 215.93C67.2522 223.133 66.2927 231.057 66.2927 238.5C66.2927 245.943 66.7724 253.867 67.9718 261.07L19.2779 299.006C17.1796 300.737 15.7459 303.143 15.2211 305.814C14.6962 308.485 15.1127 311.255 16.3995 313.653L62.4548 393.367C65.3332 398.65 71.33 400.33 76.6072 398.649L133.936 375.599C145.93 384.723 158.643 392.407 172.796 398.169L181.431 459.156C182.63 464.918 187.188 469 192.945 469H285.055C290.812 469 295.61 464.918 296.329 459.156L304.965 398.169C319.117 392.407 332.07 384.723 343.824 375.599L401.153 398.649C406.43 400.57 412.427 398.65 415.305 393.367L461.361 313.653C464.239 308.37 463.04 302.368 458.482 299.006L410.268 261.07ZM239 324.938C191.505 324.938 152.646 286.041 152.646 238.5C152.646 190.959 191.505 152.063 239 152.063C286.494 152.063 325.354 190.959 325.354 238.5C325.354 286.041 286.494 324.938 239 324.938Z" fill="white"/>
</svg>
