<svg width="18" height="31" viewBox="0 0 18 31" fill="none" xmlns="http://www.w3.org/2000/svg">
<g filter="url(#filter0_d_315_104061)">
<mask id="path-1-outside-1_315_104061" maskUnits="userSpaceOnUse" x="1" y="2" width="17" height="25" fill="black">
<rect fill="white" x="1" y="2" width="17" height="25"/>
<path d="M5.45312 15.5312L2.15625 14.7344L3.42188 3.25H15.9375V6.67188H6.84375L6.25 11.9844C6.57292 11.7865 7.04167 11.5885 7.65625 11.3906C8.28125 11.1823 8.98438 11.0781 9.76562 11.0781C10.849 11.0781 11.8177 11.2552 12.6719 11.6094C13.526 11.9531 14.25 12.4531 14.8438 13.1094C15.4479 13.7656 15.901 14.5677 16.2031 15.5156C16.5156 16.4531 16.6719 17.5156 16.6719 18.7031C16.6719 19.7448 16.5156 20.724 16.2031 21.6406C15.901 22.5469 15.4375 23.3542 14.8125 24.0625C14.1875 24.7604 13.401 25.3125 12.4531 25.7188C11.5052 26.1146 10.3906 26.3125 9.10938 26.3125C8.14062 26.3125 7.20833 26.1719 6.3125 25.8906C5.42708 25.599 4.63021 25.1771 3.92188 24.625C3.21354 24.0625 2.64583 23.375 2.21875 22.5625C1.80208 21.75 1.57292 20.8177 1.53125 19.7656H5.60938C5.68229 20.4635 5.86979 21.0573 6.17188 21.5469C6.47396 22.0365 6.86979 22.4115 7.35938 22.6719C7.85938 22.9323 8.4375 23.0625 9.09375 23.0625C9.6875 23.0625 10.1979 22.9531 10.625 22.7344C11.0625 22.5052 11.4219 22.1875 11.7031 21.7812C11.9844 21.375 12.1927 20.8958 12.3281 20.3438C12.4635 19.7917 12.5312 19.1875 12.5312 18.5312C12.5312 17.8958 12.4531 17.3177 12.2969 16.7969C12.1406 16.2656 11.901 15.8073 11.5781 15.4219C11.2552 15.0365 10.849 14.7396 10.3594 14.5312C9.88021 14.3229 9.31771 14.2188 8.67188 14.2188C7.80729 14.2188 7.14062 14.349 6.67188 14.6094C6.21354 14.8698 5.80729 15.1771 5.45312 15.5312Z"/>
</mask>
<path d="M5.45312 15.5312L2.15625 14.7344L3.42188 3.25H15.9375V6.67188H6.84375L6.25 11.9844C6.57292 11.7865 7.04167 11.5885 7.65625 11.3906C8.28125 11.1823 8.98438 11.0781 9.76562 11.0781C10.849 11.0781 11.8177 11.2552 12.6719 11.6094C13.526 11.9531 14.25 12.4531 14.8438 13.1094C15.4479 13.7656 15.901 14.5677 16.2031 15.5156C16.5156 16.4531 16.6719 17.5156 16.6719 18.7031C16.6719 19.7448 16.5156 20.724 16.2031 21.6406C15.901 22.5469 15.4375 23.3542 14.8125 24.0625C14.1875 24.7604 13.401 25.3125 12.4531 25.7188C11.5052 26.1146 10.3906 26.3125 9.10938 26.3125C8.14062 26.3125 7.20833 26.1719 6.3125 25.8906C5.42708 25.599 4.63021 25.1771 3.92188 24.625C3.21354 24.0625 2.64583 23.375 2.21875 22.5625C1.80208 21.75 1.57292 20.8177 1.53125 19.7656H5.60938C5.68229 20.4635 5.86979 21.0573 6.17188 21.5469C6.47396 22.0365 6.86979 22.4115 7.35938 22.6719C7.85938 22.9323 8.4375 23.0625 9.09375 23.0625C9.6875 23.0625 10.1979 22.9531 10.625 22.7344C11.0625 22.5052 11.4219 22.1875 11.7031 21.7812C11.9844 21.375 12.1927 20.8958 12.3281 20.3438C12.4635 19.7917 12.5312 19.1875 12.5312 18.5312C12.5312 17.8958 12.4531 17.3177 12.2969 16.7969C12.1406 16.2656 11.901 15.8073 11.5781 15.4219C11.2552 15.0365 10.849 14.7396 10.3594 14.5312C9.88021 14.3229 9.31771 14.2188 8.67188 14.2188C7.80729 14.2188 7.14062 14.349 6.67188 14.6094C6.21354 14.8698 5.80729 15.1771 5.45312 15.5312Z" fill="url(#paint0_linear_315_104061)"/>
<path d="M5.45312 15.5312L5.33565 16.0173L5.60832 16.0832L5.80668 15.8848L5.45312 15.5312ZM2.15625 14.7344L1.65926 14.6796L1.61106 15.117L2.03878 15.2204L2.15625 14.7344ZM3.42188 3.25V2.75H2.97395L2.92488 3.19523L3.42188 3.25ZM15.9375 3.25H16.4375V2.75H15.9375V3.25ZM15.9375 6.67188V7.17188H16.4375V6.67188H15.9375ZM6.84375 6.67188V6.17188H6.39652L6.34684 6.61634L6.84375 6.67188ZM6.25 11.9844L5.75309 11.9288L5.63953 12.945L6.51128 12.4107L6.25 11.9844ZM7.65625 11.3906L7.80952 11.8666L7.81436 11.865L7.65625 11.3906ZM12.6719 11.6094L12.4804 12.0713L12.4852 12.0732L12.6719 11.6094ZM14.8438 13.1094L14.473 13.4448L14.4759 13.448L14.8438 13.1094ZM16.2031 15.5156L15.7267 15.6675L15.7288 15.6737L16.2031 15.5156ZM16.2031 21.6406L15.7299 21.4793L15.7288 21.4825L16.2031 21.6406ZM14.8125 24.0625L15.185 24.3961L15.1874 24.3933L14.8125 24.0625ZM12.4531 25.7188L12.6458 26.1802L12.6501 26.1783L12.4531 25.7188ZM6.3125 25.8906L6.15605 26.3656L6.16273 26.3677L6.3125 25.8906ZM3.92188 24.625L3.61092 25.0166L3.6145 25.0194L3.92188 24.625ZM2.21875 22.5625L1.77382 22.7907L1.77617 22.7951L2.21875 22.5625ZM1.53125 19.7656V19.2656H1.01106L1.03164 19.7854L1.53125 19.7656ZM5.60938 19.7656L6.10667 19.7137L6.05986 19.2656H5.60938V19.7656ZM7.35938 22.6719L7.12456 23.1133L7.12841 23.1153L7.35938 22.6719ZM10.625 22.7344L10.8529 23.1794L10.857 23.1773L10.625 22.7344ZM12.2969 16.7969L11.8172 16.938L11.818 16.9405L12.2969 16.7969ZM10.3594 14.5312L10.16 14.9898L10.1636 14.9913L10.3594 14.5312ZM6.67188 14.6094L6.42904 14.1723L6.42487 14.1746L6.67188 14.6094ZM5.45312 15.5312L5.5706 15.0452L2.27372 14.2484L2.15625 14.7344L2.03878 15.2204L5.33565 16.0173L5.45312 15.5312ZM2.15625 14.7344L2.65324 14.7891L3.91887 3.30477L3.42188 3.25L2.92488 3.19523L1.65926 14.6796L2.15625 14.7344ZM3.42188 3.25V3.75H15.9375V3.25V2.75H3.42188V3.25ZM15.9375 3.25H15.4375V6.67188H15.9375H16.4375V3.25H15.9375ZM15.9375 6.67188V6.17188H6.84375V6.67188V7.17188H15.9375V6.67188ZM6.84375 6.67188L6.34684 6.61634L5.75309 11.9288L6.25 11.9844L6.74691 12.0399L7.34066 6.72741L6.84375 6.67188ZM6.25 11.9844L6.51128 12.4107C6.78477 12.2431 7.21026 12.0595 7.80952 11.8666L7.65625 11.3906L7.50299 10.9147C6.87307 11.1175 6.36106 11.3299 5.98872 11.5581L6.25 11.9844ZM7.65625 11.3906L7.81436 11.865C8.37992 11.6764 9.0284 11.5781 9.76562 11.5781V11.0781V10.5781C8.94035 10.5781 8.18258 10.6881 7.49814 10.9163L7.65625 11.3906ZM9.76562 11.0781V11.5781C10.7944 11.5781 11.6964 11.7462 12.4804 12.0712L12.6719 11.6094L12.8634 11.1475C11.939 10.7642 10.9036 10.5781 9.76562 10.5781V11.0781ZM12.6719 11.6094L12.4852 12.0732C13.272 12.3899 13.9321 12.8471 14.473 13.4448L14.8438 13.1094L15.2145 12.7739C14.5679 12.0592 13.7801 11.5164 12.8585 11.1455L12.6719 11.6094ZM14.8438 13.1094L14.4759 13.448C15.0253 14.0448 15.4442 14.7809 15.7267 15.6674L16.2031 15.5156L16.6795 15.3638C16.3579 14.3545 15.8706 13.4865 15.2116 12.7707L14.8438 13.1094ZM16.2031 15.5156L15.7288 15.6737C16.0213 16.5512 16.1719 17.5589 16.1719 18.7031H16.6719H17.1719C17.1719 17.4724 17.01 16.3551 16.6775 15.3575L16.2031 15.5156ZM16.6719 18.7031H16.1719C16.1719 19.6941 16.0234 20.6184 15.7299 21.4793L16.2031 21.6406L16.6764 21.802C17.0079 20.8296 17.1719 19.7955 17.1719 18.7031H16.6719ZM16.2031 21.6406L15.7288 21.4825C15.4477 22.3258 15.0177 23.0742 14.4376 23.7317L14.8125 24.0625L15.1874 24.3933C15.8573 23.6341 16.3544 22.7679 16.6775 21.7987L16.2031 21.6406ZM14.8125 24.0625L14.44 23.7289C13.8684 24.3673 13.1439 24.8787 12.2562 25.2592L12.4531 25.7188L12.6501 26.1783C13.6582 25.7463 14.5066 25.1535 15.185 24.3961L14.8125 24.0625ZM12.4531 25.7188L12.2605 25.2574C11.3866 25.6222 10.3403 25.8125 9.10938 25.8125V26.3125V26.8125C10.441 26.8125 11.6238 26.6069 12.6458 26.1801L12.4531 25.7188ZM9.10938 26.3125V25.8125C8.1898 25.8125 7.30811 25.6791 6.46227 25.4136L6.3125 25.8906L6.16273 26.3677C7.10856 26.6646 8.09145 26.8125 9.10938 26.8125V26.3125ZM6.3125 25.8906L6.46894 25.4157C5.63598 25.1413 4.89056 24.7461 4.22925 24.2306L3.92188 24.625L3.6145 25.0194C4.36986 25.6081 5.21818 26.0566 6.15606 26.3655L6.3125 25.8906ZM3.92188 24.625L4.23282 24.2334C3.57976 23.7148 3.05656 23.0817 2.66133 22.3299L2.21875 22.5625L1.77617 22.7951C2.23511 23.6683 2.84732 24.4102 3.61093 25.0166L3.92188 24.625ZM2.21875 22.5625L2.66366 22.3343C2.28486 21.5957 2.07009 20.7364 2.03086 19.7458L1.53125 19.7656L1.03164 19.7854C1.07575 20.899 1.3193 21.9043 1.77384 22.7907L2.21875 22.5625ZM1.53125 19.7656V20.2656H5.60938V19.7656V19.2656H1.53125V19.7656ZM5.60938 19.7656L5.11208 19.8176C5.19112 20.5741 5.39713 21.2434 5.74636 21.8094L6.17188 21.5469L6.59739 21.2843C6.34246 20.8712 6.17347 20.353 6.10667 19.7137L5.60938 19.7656ZM6.17188 21.5469L5.74636 21.8094C6.0932 22.3715 6.55367 22.8096 7.12457 23.1133L7.35938 22.6719L7.59418 22.2304C7.18592 22.0133 6.85472 21.7014 6.59739 21.2843L6.17188 21.5469ZM7.35938 22.6719L7.12841 23.1153C7.7106 23.4186 8.3703 23.5625 9.09375 23.5625V23.0625V22.5625C8.5047 22.5625 8.00815 22.446 7.59034 22.2284L7.35938 22.6719ZM9.09375 23.0625V23.5625C9.74829 23.5625 10.3405 23.4419 10.8529 23.1794L10.625 22.7344L10.3971 22.2894C10.0553 22.4644 9.62671 22.5625 9.09375 22.5625V23.0625ZM10.625 22.7344L10.857 23.1773C11.3662 22.9106 11.787 22.5385 12.1142 22.0659L11.7031 21.7812L11.292 21.4966C11.0568 21.8365 10.7588 22.0998 10.393 22.2915L10.625 22.7344ZM11.7031 21.7812L12.1142 22.0659C12.435 21.6025 12.6659 21.0654 12.8137 20.4629L12.3281 20.3438L11.8425 20.2246C11.7195 20.7263 11.5337 21.1475 11.292 21.4966L11.7031 21.7812ZM12.3281 20.3438L12.8137 20.4629C12.96 19.8663 13.0312 19.2216 13.0312 18.5312H12.5312H12.0312C12.0312 19.1534 11.967 19.717 11.8425 20.2246L12.3281 20.3438ZM12.5312 18.5312H13.0312C13.0312 17.8552 12.9481 17.2277 12.7758 16.6532L12.2969 16.7969L11.818 16.9405C11.9581 17.4077 12.0312 17.9365 12.0312 18.5312H12.5312ZM12.2969 16.7969L12.7766 16.6558C12.6029 16.0653 12.3328 15.544 11.9614 15.1008L11.5781 15.4219L11.1949 15.743C11.4693 16.0705 11.6784 16.466 11.8172 16.938L12.2969 16.7969ZM11.5781 15.4219L11.9614 15.1008C11.5849 14.6514 11.113 14.3085 10.5552 14.0712L10.3594 14.5312L10.1636 14.9913C10.5849 15.1706 10.9256 15.4215 11.1949 15.743L11.5781 15.4219ZM10.3594 14.5312L10.5587 14.0727C10.0037 13.8314 9.37057 13.7188 8.67188 13.7188V14.2188V14.7188C9.26485 14.7188 9.75674 14.8144 10.16 14.9898L10.3594 14.5312ZM8.67188 14.2188V13.7188C7.76896 13.7188 7.00431 13.8527 6.42905 14.1723L6.67188 14.6094L6.9147 15.0465C7.27694 14.8452 7.84562 14.7188 8.67188 14.7188V14.2188ZM6.67188 14.6094L6.42487 14.1746C5.92959 14.4561 5.48708 14.7902 5.09957 15.1777L5.45312 15.5312L5.80668 15.8848C6.12751 15.564 6.4975 15.2835 6.91888 15.0441L6.67188 14.6094Z" fill="#343434" mask="url(#path-1-outside-1_315_104061)"/>
</g>
<defs>
<filter id="filter0_d_315_104061" x="1.01172" y="1.75" width="16.1602" height="25.0625" filterUnits="userSpaceOnUse" color-interpolation-filters="sRGB">
<feFlood flood-opacity="0" result="BackgroundImageFix"/>
<feColorMatrix in="SourceAlpha" type="matrix" values="0 0 0 0 0 0 0 0 0 0 0 0 0 0 0 0 0 0 127 0" result="hardAlpha"/>
<feOffset dy="-1"/>
<feColorMatrix type="matrix" values="0 0 0 0 0 0 0 0 0 0 0 0 0 0 0 0 0 0 0.25 0"/>
<feBlend mode="normal" in2="BackgroundImageFix" result="effect1_dropShadow_315_104061"/>
<feBlend mode="normal" in="SourceGraphic" in2="effect1_dropShadow_315_104061" result="shape"/>
</filter>
<linearGradient id="paint0_linear_315_104061" x1="8.5" y1="-2" x2="8.5" y2="33" gradientUnits="userSpaceOnUse">
<stop stop-color="#E6CF1F"/>
<stop offset="1" stop-color="#C9E722"/>
</linearGradient>
</defs>
</svg>
