<svg width="18" height="31" viewBox="0 0 18 31" fill="none" xmlns="http://www.w3.org/2000/svg">
<g filter="url(#filter0_d_315_104057)">
<mask id="path-1-outside-1_315_104057" maskUnits="userSpaceOnUse" x="1" y="2" width="17" height="25" fill="black">
<rect fill="white" x="1" y="2" width="17" height="25"/>
<path d="M6.875 12.7969H9.20312C10.026 12.7969 10.7031 12.6562 11.2344 12.375C11.776 12.0833 12.1771 11.6875 12.4375 11.1875C12.7083 10.6771 12.8438 10.0885 12.8438 9.42188C12.8438 8.76562 12.724 8.19792 12.4844 7.71875C12.2448 7.22917 11.8802 6.85417 11.3906 6.59375C10.9115 6.32292 10.2969 6.1875 9.54688 6.1875C8.94271 6.1875 8.38542 6.30729 7.875 6.54688C7.375 6.78646 6.97396 7.13021 6.67188 7.57812C6.38021 8.01562 6.23438 8.54167 6.23438 9.15625H2.09375C2.09375 7.92708 2.41667 6.84896 3.0625 5.92188C3.71875 4.98438 4.60417 4.25 5.71875 3.71875C6.83333 3.1875 8.07812 2.92188 9.45312 2.92188C10.9531 2.92188 12.2656 3.17188 13.3906 3.67188C14.526 4.16146 15.4062 4.88542 16.0312 5.84375C16.6667 6.80208 16.9844 7.98958 16.9844 9.40625C16.9844 10.0833 16.8229 10.7604 16.5 11.4375C16.1875 12.1042 15.724 12.7083 15.1094 13.25C14.5052 13.7812 13.7604 14.2135 12.875 14.5469C12 14.8698 10.9948 15.0312 9.85938 15.0312H6.875V12.7969ZM6.875 15.9844V13.7812H9.85938C11.1406 13.7812 12.25 13.9323 13.1875 14.2344C14.1354 14.526 14.9167 14.9427 15.5312 15.4844C16.1458 16.0156 16.599 16.6354 16.8906 17.3438C17.1927 18.0521 17.3438 18.8125 17.3438 19.625C17.3438 20.6875 17.1458 21.6354 16.75 22.4688C16.3542 23.2917 15.7969 23.9896 15.0781 24.5625C14.3698 25.1354 13.5365 25.5729 12.5781 25.875C11.6198 26.1667 10.5833 26.3125 9.46875 26.3125C8.5 26.3125 7.55729 26.1823 6.64062 25.9219C5.73438 25.651 4.91667 25.25 4.1875 24.7188C3.45833 24.1771 2.88021 23.5 2.45312 22.6875C2.02604 21.8646 1.8125 20.9115 1.8125 19.8281H5.95312C5.95312 20.4531 6.10417 21.0104 6.40625 21.5C6.71875 21.9896 7.14583 22.375 7.6875 22.6562C8.23958 22.9271 8.85938 23.0625 9.54688 23.0625C10.3073 23.0625 10.9583 22.9271 11.5 22.6562C12.0521 22.375 12.474 21.9792 12.7656 21.4688C13.0573 20.9479 13.2031 20.3281 13.2031 19.6094C13.2031 18.7552 13.0417 18.0625 12.7188 17.5312C12.3958 17 11.9323 16.6094 11.3281 16.3594C10.7344 16.1094 10.026 15.9844 9.20312 15.9844H6.875Z"/>
</mask>
<path d="M6.875 12.7969H9.20312C10.026 12.7969 10.7031 12.6562 11.2344 12.375C11.776 12.0833 12.1771 11.6875 12.4375 11.1875C12.7083 10.6771 12.8438 10.0885 12.8438 9.42188C12.8438 8.76562 12.724 8.19792 12.4844 7.71875C12.2448 7.22917 11.8802 6.85417 11.3906 6.59375C10.9115 6.32292 10.2969 6.1875 9.54688 6.1875C8.94271 6.1875 8.38542 6.30729 7.875 6.54688C7.375 6.78646 6.97396 7.13021 6.67188 7.57812C6.38021 8.01562 6.23438 8.54167 6.23438 9.15625H2.09375C2.09375 7.92708 2.41667 6.84896 3.0625 5.92188C3.71875 4.98438 4.60417 4.25 5.71875 3.71875C6.83333 3.1875 8.07812 2.92188 9.45312 2.92188C10.9531 2.92188 12.2656 3.17188 13.3906 3.67188C14.526 4.16146 15.4062 4.88542 16.0312 5.84375C16.6667 6.80208 16.9844 7.98958 16.9844 9.40625C16.9844 10.0833 16.8229 10.7604 16.5 11.4375C16.1875 12.1042 15.724 12.7083 15.1094 13.25C14.5052 13.7812 13.7604 14.2135 12.875 14.5469C12 14.8698 10.9948 15.0312 9.85938 15.0312H6.875V12.7969ZM6.875 15.9844V13.7812H9.85938C11.1406 13.7812 12.25 13.9323 13.1875 14.2344C14.1354 14.526 14.9167 14.9427 15.5312 15.4844C16.1458 16.0156 16.599 16.6354 16.8906 17.3438C17.1927 18.0521 17.3438 18.8125 17.3438 19.625C17.3438 20.6875 17.1458 21.6354 16.75 22.4688C16.3542 23.2917 15.7969 23.9896 15.0781 24.5625C14.3698 25.1354 13.5365 25.5729 12.5781 25.875C11.6198 26.1667 10.5833 26.3125 9.46875 26.3125C8.5 26.3125 7.55729 26.1823 6.64062 25.9219C5.73438 25.651 4.91667 25.25 4.1875 24.7188C3.45833 24.1771 2.88021 23.5 2.45312 22.6875C2.02604 21.8646 1.8125 20.9115 1.8125 19.8281H5.95312C5.95312 20.4531 6.10417 21.0104 6.40625 21.5C6.71875 21.9896 7.14583 22.375 7.6875 22.6562C8.23958 22.9271 8.85938 23.0625 9.54688 23.0625C10.3073 23.0625 10.9583 22.9271 11.5 22.6562C12.0521 22.375 12.474 21.9792 12.7656 21.4688C13.0573 20.9479 13.2031 20.3281 13.2031 19.6094C13.2031 18.7552 13.0417 18.0625 12.7188 17.5312C12.3958 17 11.9323 16.6094 11.3281 16.3594C10.7344 16.1094 10.026 15.9844 9.20312 15.9844H6.875Z" fill="url(#paint0_linear_315_104057)"/>
<path d="M6.875 12.7969V12.2969H6.375V12.7969H6.875ZM11.2344 12.375L11.4683 12.8169L11.4714 12.8152L11.2344 12.375ZM12.4375 11.1875L11.9958 10.9531L11.994 10.9565L12.4375 11.1875ZM12.4844 7.71875L12.0353 7.93853L12.0372 7.94236L12.4844 7.71875ZM11.3906 6.59375L11.1445 7.02917L11.1558 7.03519L11.3906 6.59375ZM7.875 6.54688L7.66254 6.09424L7.65894 6.09597L7.875 6.54688ZM6.67188 7.57812L6.25733 7.29855L6.25585 7.30078L6.67188 7.57812ZM6.23438 9.15625V9.65625H6.73438V9.15625H6.23438ZM2.09375 9.15625H1.59375V9.65625H2.09375V9.15625ZM3.0625 5.92188L2.65288 5.63514L2.65224 5.63607L3.0625 5.92188ZM13.3906 3.67188L13.1875 4.12881L13.1926 4.13101L13.3906 3.67188ZM16.0312 5.84375L15.6124 6.11689L15.6145 6.12005L16.0312 5.84375ZM16.5 11.4375L16.0487 11.2223L16.0473 11.2253L16.5 11.4375ZM15.1094 13.25L15.4395 13.6255L15.44 13.6251L15.1094 13.25ZM12.875 14.5469L13.0481 15.016L13.0512 15.0148L12.875 14.5469ZM6.875 15.0312H6.375V15.5312H6.875V15.0312ZM6.875 15.9844H6.375V16.4844H6.875V15.9844ZM6.875 13.7812V13.2812H6.375V13.7812H6.875ZM13.1875 14.2344L13.0341 14.7103L13.0405 14.7123L13.1875 14.2344ZM15.5312 15.4844L15.2006 15.8595L15.2043 15.8626L15.5312 15.4844ZM16.8906 17.3438L16.4282 17.5341L16.4307 17.5399L16.8906 17.3438ZM16.75 22.4688L17.2006 22.6855L17.2016 22.6833L16.75 22.4688ZM15.0781 24.5625L14.7665 24.1715L14.7637 24.1737L15.0781 24.5625ZM12.5781 25.875L12.7237 26.3534L12.7284 26.3519L12.5781 25.875ZM6.64062 25.9219L6.49744 26.401L6.50399 26.4028L6.64062 25.9219ZM4.1875 24.7188L3.88933 25.1201L3.89307 25.1229L4.1875 24.7188ZM2.45312 22.6875L2.00933 22.9178L2.01054 22.9201L2.45312 22.6875ZM1.8125 19.8281V19.3281H1.3125V19.8281H1.8125ZM5.95312 19.8281H6.45312V19.3281H5.95312V19.8281ZM6.40625 21.5L5.98068 21.7626L5.98479 21.769L6.40625 21.5ZM7.6875 22.6562L7.45703 23.1001L7.46729 23.1051L7.6875 22.6562ZM11.5 22.6562L11.7236 23.1035L11.727 23.1018L11.5 22.6562ZM12.7656 21.4688L13.1998 21.7168L13.2019 21.7131L12.7656 21.4688ZM11.3281 16.3594L11.1341 16.8202L11.1369 16.8214L11.3281 16.3594ZM6.875 12.7969V13.2969H9.20312V12.7969V12.2969H6.875V12.7969ZM9.20312 12.7969V13.2969C10.079 13.2969 10.8434 13.1478 11.4683 12.8169L11.2344 12.375L11.0004 11.9331C10.5629 12.1647 9.97311 12.2969 9.20312 12.2969V12.7969ZM11.2344 12.375L11.4714 12.8152C12.0929 12.4806 12.57 12.0154 12.881 11.4185L12.4375 11.1875L11.994 10.9565C11.7841 11.3596 11.4592 11.6861 10.9973 11.9348L11.2344 12.375ZM12.4375 11.1875L12.8792 11.4219C13.1938 10.8289 13.3438 10.1576 13.3438 9.42188H12.8438H12.3438C12.3438 10.0195 12.2228 10.5253 11.9958 10.9531L12.4375 11.1875ZM12.8438 9.42188H13.3438C13.3438 8.70518 13.2128 8.05762 12.9316 7.49514L12.4844 7.71875L12.0372 7.94236C12.2351 8.33821 12.3438 8.82607 12.3438 9.42188H12.8438ZM12.4844 7.71875L12.9335 7.49897C12.6467 6.91302 12.2063 6.46128 11.6254 6.15231L11.3906 6.59375L11.1558 7.03519C11.5541 7.24706 11.8428 7.54531 12.0353 7.93853L12.4844 7.71875ZM11.3906 6.59375L11.6367 6.15847C11.0601 5.83258 10.3532 5.6875 9.54688 5.6875V6.1875V6.6875C10.2406 6.6875 10.7628 6.81326 11.1446 7.02903L11.3906 6.59375ZM9.54688 6.1875V5.6875C8.87462 5.6875 8.24412 5.82127 7.66255 6.09426L7.875 6.54688L8.08745 6.99949C8.52671 6.79331 9.0108 6.6875 9.54688 6.6875V6.1875ZM7.875 6.54688L7.65894 6.09597C7.08092 6.37293 6.61051 6.77489 6.25734 7.29855L6.67188 7.57812L7.08641 7.8577C7.33741 7.48553 7.66908 7.19998 8.09106 6.99778L7.875 6.54688ZM6.67188 7.57812L6.25585 7.30078C5.90068 7.83353 5.73438 8.46001 5.73438 9.15625H6.23438H6.73438C6.73438 8.62333 6.85974 8.19772 7.0879 7.85547L6.67188 7.57812ZM6.23438 9.15625V8.65625H2.09375V9.15625V9.65625H6.23438V9.15625ZM2.09375 9.15625H2.59375C2.59375 8.01985 2.89052 7.04349 3.47276 6.20768L3.0625 5.92188L2.65224 5.63607C1.94282 6.65443 1.59375 7.83431 1.59375 9.15625H2.09375ZM3.0625 5.92188L3.47212 6.20861C4.07496 5.3474 4.89091 4.66722 5.93388 4.1701L5.71875 3.71875L5.50362 3.2674C4.31742 3.83278 3.36254 4.62135 2.65288 5.63514L3.0625 5.92188ZM5.71875 3.71875L5.93388 4.1701C6.97397 3.67436 8.14403 3.42188 9.45312 3.42188V2.92188V2.42188C8.01222 2.42188 6.6927 2.70064 5.50362 3.2674L5.71875 3.71875ZM9.45312 2.92188V3.42188C10.8981 3.42188 12.1389 3.66269 13.1876 4.12878L13.3906 3.67188L13.5937 3.21497C12.3924 2.68106 11.0081 2.42188 9.45312 2.42188V2.92188ZM13.3906 3.67188L13.1926 4.13101C14.2454 4.58495 15.0455 5.24761 15.6124 6.11688L16.0312 5.84375L16.4501 5.57062C15.767 4.52323 14.8067 3.73797 13.5886 3.21274L13.3906 3.67188ZM16.0312 5.84375L15.6145 6.12005C16.1842 6.97924 16.4844 8.06493 16.4844 9.40625H16.9844H17.4844C17.4844 7.91424 17.1491 6.62492 16.448 5.56745L16.0312 5.84375ZM16.9844 9.40625H16.4844C16.4844 10.0011 16.343 10.6051 16.0487 11.2223L16.5 11.4375L16.9513 11.6527C17.3028 10.9158 17.4844 10.1655 17.4844 9.40625H16.9844ZM16.5 11.4375L16.0473 11.2253C15.767 11.8232 15.3477 12.3734 14.7788 12.8749L15.1094 13.25L15.44 13.6251C16.1002 13.0432 16.608 12.3851 16.9527 11.6497L16.5 11.4375ZM15.1094 13.25L14.7792 12.8745C14.2276 13.3596 13.5375 13.7632 12.6988 14.0789L12.875 14.5469L13.0512 15.0148C13.9833 14.6639 14.7828 14.2029 15.4395 13.6255L15.1094 13.25ZM12.875 14.5469L12.7019 14.0778C11.8929 14.3764 10.9482 14.5312 9.85938 14.5312V15.0312V15.5312C11.0414 15.5312 12.1071 15.3632 13.0481 15.016L12.875 14.5469ZM9.85938 15.0312V14.5312H6.875V15.0312V15.5312H9.85938V15.0312ZM6.875 15.0312H7.375V12.7969H6.875H6.375V15.0312H6.875ZM6.875 15.9844H7.375V13.7812H6.875H6.375V15.9844H6.875ZM6.875 13.7812V14.2812H9.85938V13.7812V13.2812H6.875V13.7812ZM9.85938 13.7812V14.2812C11.1033 14.2812 12.1585 14.4281 13.0342 14.7103L13.1875 14.2344L13.3408 13.7585C12.3415 13.4364 11.1779 13.2812 9.85938 13.2812V13.7812ZM13.1875 14.2344L13.0405 14.7123C13.9346 14.9874 14.6493 15.3735 15.2006 15.8595L15.5312 15.4844L15.8619 15.1093C15.1841 14.5119 14.3362 14.0647 13.3345 13.7565L13.1875 14.2344ZM15.5312 15.4844L15.2043 15.8626C15.7633 16.3459 16.1682 16.9025 16.4283 17.5341L16.8906 17.3438L17.353 17.1534C17.0297 16.3683 16.5283 15.6854 15.8582 15.1061L15.5312 15.4844ZM16.8906 17.3438L16.4307 17.5399C16.7049 18.1828 16.8438 18.8761 16.8438 19.625H17.3438H17.8438C17.8438 18.7489 17.6805 17.9213 17.3505 17.1476L16.8906 17.3438ZM17.3438 19.625H16.8438C16.8438 20.6245 16.6579 21.4974 16.2984 22.2542L16.75 22.4688L17.2016 22.6833C17.6338 21.7734 17.8438 20.7505 17.8438 19.625H17.3438ZM16.75 22.4688L16.2994 22.252C15.9364 23.0067 15.4268 23.6452 14.7665 24.1715L15.0781 24.5625L15.3898 24.9535C16.167 24.334 16.7719 23.5767 17.2006 22.6855L16.75 22.4688ZM15.0781 24.5625L14.7637 24.1737C14.1088 24.7034 13.3326 25.1129 12.4278 25.3981L12.5781 25.875L12.7284 26.3519C13.7404 26.0329 14.6307 25.5674 15.3926 24.9513L15.0781 24.5625ZM12.5781 25.875L12.4325 25.3967C11.5264 25.6725 10.5395 25.8125 9.46875 25.8125V26.3125V26.8125C10.6272 26.8125 11.7132 26.6609 12.7237 26.3533L12.5781 25.875ZM9.46875 26.3125V25.8125C8.54543 25.8125 7.64874 25.6885 6.77726 25.4409L6.64062 25.9219L6.50399 26.4028C7.46584 26.6761 8.45457 26.8125 9.46875 26.8125V26.3125ZM6.64062 25.9219L6.78379 25.4428C5.92919 25.1874 5.1631 24.8109 4.48193 24.3146L4.1875 24.7188L3.89307 25.1229C4.67023 25.6891 5.53956 26.1147 6.49746 26.4009L6.64062 25.9219ZM4.1875 24.7188L4.48566 24.3174C3.81733 23.8209 3.28829 23.2017 2.89571 22.4549L2.45312 22.6875L2.01054 22.9201C2.47213 23.7983 3.09934 24.5333 3.88934 25.1201L4.1875 24.7188ZM2.45312 22.6875L2.89692 22.4572C2.51252 21.7165 2.3125 20.8448 2.3125 19.8281H1.8125H1.3125C1.3125 20.9781 1.53956 22.0127 2.00933 22.9178L2.45312 22.6875ZM1.8125 19.8281V20.3281H5.95312V19.8281V19.3281H1.8125V19.8281ZM5.95312 19.8281H5.45312C5.45312 20.5375 5.62577 21.1873 5.98073 21.7626L6.40625 21.5L6.83177 21.2374C6.58257 20.8336 6.45312 20.3687 6.45312 19.8281H5.95312ZM6.40625 21.5L5.98479 21.769C6.34696 22.3364 6.84162 22.7804 7.45709 23.1L7.6875 22.6562L7.91791 22.2125C7.45004 21.9696 7.09054 21.6427 6.82771 21.231L6.40625 21.5ZM7.6875 22.6562L7.46729 23.1051C8.09563 23.4134 8.79213 23.5625 9.54688 23.5625V23.0625V22.5625C8.92662 22.5625 8.38353 22.4408 7.90771 22.2074L7.6875 22.6562ZM9.54688 23.0625V23.5625C10.3656 23.5625 11.0971 23.4167 11.7236 23.1035L11.5 22.6562L11.2764 22.209C10.8196 22.4374 10.249 22.5625 9.54688 22.5625V23.0625ZM11.5 22.6562L11.727 23.1018C12.3609 22.7788 12.8571 22.3165 13.1997 21.7168L12.7656 21.4688L12.3315 21.2207C12.0908 21.6418 11.7432 21.9712 11.273 22.2107L11.5 22.6562ZM12.7656 21.4688L13.2019 21.7131C13.5431 21.1037 13.7031 20.3963 13.7031 19.6094H13.2031H12.7031C12.7031 20.26 12.5715 20.7921 12.3294 21.2244L12.7656 21.4688ZM13.2031 19.6094H13.7031C13.7031 18.6965 13.5311 17.9051 13.146 17.2715L12.7188 17.5312L12.2915 17.791C12.5522 18.2199 12.7031 18.8139 12.7031 19.6094H13.2031ZM12.7188 17.5312L13.146 17.2715C12.7649 16.6446 12.2162 16.1858 11.5193 15.8974L11.3281 16.3594L11.1369 16.8214C11.6483 17.033 12.0267 17.3554 12.2915 17.791L12.7188 17.5312ZM11.3281 16.3594L11.5222 15.8986C10.8525 15.6166 10.0749 15.4844 9.20312 15.4844V15.9844V16.4844C9.97714 16.4844 10.6162 16.6021 11.1341 16.8202L11.3281 16.3594ZM9.20312 15.9844V15.4844H6.875V15.9844V16.4844H9.20312V15.9844Z" fill="#343434" mask="url(#path-1-outside-1_315_104057)"/>
</g>
<defs>
<filter id="filter0_d_315_104057" x="1.3125" y="1.42188" width="16.5312" height="25.3906" filterUnits="userSpaceOnUse" color-interpolation-filters="sRGB">
<feFlood flood-opacity="0" result="BackgroundImageFix"/>
<feColorMatrix in="SourceAlpha" type="matrix" values="0 0 0 0 0 0 0 0 0 0 0 0 0 0 0 0 0 0 127 0" result="hardAlpha"/>
<feOffset dy="-1"/>
<feColorMatrix type="matrix" values="0 0 0 0 0 0 0 0 0 0 0 0 0 0 0 0 0 0 0.25 0"/>
<feBlend mode="normal" in2="BackgroundImageFix" result="effect1_dropShadow_315_104057"/>
<feBlend mode="normal" in="SourceGraphic" in2="effect1_dropShadow_315_104057" result="shape"/>
</filter>
<linearGradient id="paint0_linear_315_104057" x1="9.5" y1="-2" x2="9.5" y2="33" gradientUnits="userSpaceOnUse">
<stop stop-color="#E6CF1F"/>
<stop offset="1" stop-color="#C9E722"/>
</linearGradient>
</defs>
</svg>
