<svg width="66" height="53" viewBox="0 0 66 53" fill="none" xmlns="http://www.w3.org/2000/svg">
<g filter="url(#filter0_d_315_104081)">
<mask id="path-1-outside-1_315_104081" maskUnits="userSpaceOnUse" x="1" y="1" width="64" height="52" fill="black">
<rect fill="white" x="1" y="1" width="64" height="52"/>
<path d="M23.7856 2.25V25H20.895L11.7856 7.45312V25H8.91063V2.25H11.7856L20.9419 19.8438V2.25H23.7856ZM37.1488 22.5469V25H27.2738V22.5469H37.1488ZM27.7894 2.25V25H24.9144V2.25H27.7894ZM35.8206 12.0312V14.4844H27.2738V12.0312H35.8206ZM36.9925 2.25V4.71875H27.2738V2.25H36.9925ZM39.0744 2.25L43.3869 10.9688L47.6681 2.25H51.0119L45.09 13.5156L51.1369 25H47.7619L43.3869 16.1094L38.9963 25H35.6056L41.6681 13.5156L35.7306 2.25H39.0744ZM58.1094 2.25V25H55.2656V2.25H58.1094ZM64.0938 2.25V4.71875H49.2969V2.25H64.0938ZM14.5981 39.0312V41.4844H4.73875V39.0312H14.5981ZM5.12937 29.25V52H2.25437V29.25H5.12937ZM17.145 29.25V52H14.27V29.25H17.145ZM25.9144 31.2656L19.6956 52H16.7581L24.0862 29.25H25.93L25.9144 31.2656ZM30.9456 52L24.7269 31.2656L24.6956 29.25H26.555L33.8831 52H30.9456ZM30.9456 43.5781V46.0469H19.9769V43.5781H30.9456ZM48.0431 29.25V52H45.1525L36.0431 34.4531V52H33.1681V29.25H36.0431L45.1994 46.8438V29.25H48.0431ZM54.3281 52H50.4531L50.4844 49.5469H54.3281C55.6927 49.5469 56.8021 49.2865 57.6562 48.7656C58.5104 48.2344 59.1406 47.4531 59.5469 46.4219C59.9531 45.3802 60.1562 44.0938 60.1562 42.5625V38.6719C60.1562 37.4635 60.0417 36.4219 59.8125 35.5469C59.5833 34.6719 59.2396 33.9531 58.7812 33.3906C58.3229 32.8281 57.7448 32.4115 57.0469 32.1406C56.349 31.8594 55.5312 31.7188 54.5937 31.7188H50.375V29.25H54.5937C55.875 29.25 57.0312 29.4531 58.0625 29.8594C59.0937 30.2552 59.9792 30.8542 60.7187 31.6562C61.4583 32.4479 62.0208 33.4323 62.4062 34.6094C62.8021 35.7865 63 37.151 63 38.7031V42.5625C63 44.1146 62.8021 45.4792 62.4062 46.6562C62.0208 47.8333 61.4531 48.8177 60.7031 49.6094C59.9531 50.401 59.0417 51 57.9687 51.4062C56.9062 51.8021 55.6927 52 54.3281 52ZM52.0469 29.25V52H49.1719V29.25H52.0469Z"/>
</mask>
<path d="M23.7856 2.25V25H20.895L11.7856 7.45312V25H8.91063V2.25H11.7856L20.9419 19.8438V2.25H23.7856ZM37.1488 22.5469V25H27.2738V22.5469H37.1488ZM27.7894 2.25V25H24.9144V2.25H27.7894ZM35.8206 12.0312V14.4844H27.2738V12.0312H35.8206ZM36.9925 2.25V4.71875H27.2738V2.25H36.9925ZM39.0744 2.25L43.3869 10.9688L47.6681 2.25H51.0119L45.09 13.5156L51.1369 25H47.7619L43.3869 16.1094L38.9963 25H35.6056L41.6681 13.5156L35.7306 2.25H39.0744ZM58.1094 2.25V25H55.2656V2.25H58.1094ZM64.0938 2.25V4.71875H49.2969V2.25H64.0938ZM14.5981 39.0312V41.4844H4.73875V39.0312H14.5981ZM5.12937 29.25V52H2.25437V29.25H5.12937ZM17.145 29.25V52H14.27V29.25H17.145ZM25.9144 31.2656L19.6956 52H16.7581L24.0862 29.25H25.93L25.9144 31.2656ZM30.9456 52L24.7269 31.2656L24.6956 29.25H26.555L33.8831 52H30.9456ZM30.9456 43.5781V46.0469H19.9769V43.5781H30.9456ZM48.0431 29.25V52H45.1525L36.0431 34.4531V52H33.1681V29.25H36.0431L45.1994 46.8438V29.25H48.0431ZM54.3281 52H50.4531L50.4844 49.5469H54.3281C55.6927 49.5469 56.8021 49.2865 57.6562 48.7656C58.5104 48.2344 59.1406 47.4531 59.5469 46.4219C59.9531 45.3802 60.1562 44.0938 60.1562 42.5625V38.6719C60.1562 37.4635 60.0417 36.4219 59.8125 35.5469C59.5833 34.6719 59.2396 33.9531 58.7812 33.3906C58.3229 32.8281 57.7448 32.4115 57.0469 32.1406C56.349 31.8594 55.5312 31.7188 54.5937 31.7188H50.375V29.25H54.5937C55.875 29.25 57.0312 29.4531 58.0625 29.8594C59.0937 30.2552 59.9792 30.8542 60.7187 31.6562C61.4583 32.4479 62.0208 33.4323 62.4062 34.6094C62.8021 35.7865 63 37.151 63 38.7031V42.5625C63 44.1146 62.8021 45.4792 62.4062 46.6562C62.0208 47.8333 61.4531 48.8177 60.7031 49.6094C59.9531 50.401 59.0417 51 57.9687 51.4062C56.9062 51.8021 55.6927 52 54.3281 52ZM52.0469 29.25V52H49.1719V29.25H52.0469Z" fill="url(#paint0_linear_315_104081)"/>
<path d="M23.7856 2.25H24.2856V1.75H23.7856V2.25ZM23.7856 25V25.5H24.2856V25H23.7856ZM20.895 25L20.4512 25.2304L20.5912 25.5H20.895V25ZM11.7856 7.45312L12.2294 7.22275L11.2856 7.45312H11.7856ZM11.7856 25V25.5H12.2856V25H11.7856ZM8.91063 25H8.41063V25.5H8.91063V25ZM8.91063 2.25V1.75H8.41063V2.25H8.91063ZM11.7856 2.25L12.2292 2.01917L12.0891 1.75H11.7856V2.25ZM20.9419 19.8438L20.4983 20.0746L21.4419 19.8438H20.9419ZM20.9419 2.25V1.75H20.4419V2.25H20.9419ZM23.7856 2.25H23.2856V25H23.7856H24.2856V2.25H23.7856ZM23.7856 25V24.5H20.895V25V25.5H23.7856V25ZM20.895 25L21.3388 24.7696L12.2294 7.22275L11.7856 7.45312L11.3419 7.6835L20.4512 25.2304L20.895 25ZM11.7856 7.45312H11.2856V25H11.7856H12.2856V7.45312H11.7856ZM11.7856 25V24.5H8.91063V25V25.5H11.7856V25ZM8.91063 25H9.41063V2.25H8.91063H8.41063V25H8.91063ZM8.91063 2.25V2.75H11.7856V2.25V1.75H8.91063V2.25ZM11.7856 2.25L11.3421 2.48083L20.4983 20.0746L20.9419 19.8438L21.3854 19.6129L12.2292 2.01917L11.7856 2.25ZM20.9419 19.8438H21.4419V2.25H20.9419H20.4419V19.8438H20.9419ZM20.9419 2.25V2.75H23.7856V2.25V1.75H20.9419V2.25ZM37.1488 22.5469H37.6488V22.0469H37.1488V22.5469ZM37.1488 25V25.5H37.6488V25H37.1488ZM27.2738 25H26.7738V25.5H27.2738V25ZM27.2738 22.5469V22.0469H26.7738V22.5469H27.2738ZM27.7894 2.25H28.2894V1.75H27.7894V2.25ZM27.7894 25V25.5H28.2894V25H27.7894ZM24.9144 25H24.4144V25.5H24.9144V25ZM24.9144 2.25V1.75H24.4144V2.25H24.9144ZM35.8206 12.0312H36.3206V11.5312H35.8206V12.0312ZM35.8206 14.4844V14.9844H36.3206V14.4844H35.8206ZM27.2738 14.4844H26.7738V14.9844H27.2738V14.4844ZM27.2738 12.0312V11.5312H26.7738V12.0312H27.2738ZM36.9925 2.25H37.4925V1.75H36.9925V2.25ZM36.9925 4.71875V5.21875H37.4925V4.71875H36.9925ZM27.2738 4.71875H26.7738V5.21875H27.2738V4.71875ZM27.2738 2.25V1.75H26.7738V2.25H27.2738ZM37.1488 22.5469H36.6488V25H37.1488H37.6488V22.5469H37.1488ZM37.1488 25V24.5H27.2738V25V25.5H37.1488V25ZM27.2738 25H27.7738V22.5469H27.2738H26.7738V25H27.2738ZM27.2738 22.5469V23.0469H37.1488V22.5469V22.0469H27.2738V22.5469ZM27.7894 2.25H27.2894V25H27.7894H28.2894V2.25H27.7894ZM27.7894 25V24.5H24.9144V25V25.5H27.7894V25ZM24.9144 25H25.4144V2.25H24.9144H24.4144V25H24.9144ZM24.9144 2.25V2.75H27.7894V2.25V1.75H24.9144V2.25ZM35.8206 12.0312H35.3206V14.4844H35.8206H36.3206V12.0312H35.8206ZM35.8206 14.4844V13.9844H27.2738V14.4844V14.9844H35.8206V14.4844ZM27.2738 14.4844H27.7738V12.0312H27.2738H26.7738V14.4844H27.2738ZM27.2738 12.0312V12.5312H35.8206V12.0312V11.5312H27.2738V12.0312ZM36.9925 2.25H36.4925V4.71875H36.9925H37.4925V2.25H36.9925ZM36.9925 4.71875V4.21875H27.2738V4.71875V5.21875H36.9925V4.71875ZM27.2738 4.71875H27.7738V2.25H27.2738H26.7738V4.71875H27.2738ZM27.2738 2.25V2.75H36.9925V2.25V1.75H27.2738V2.25ZM39.0744 2.25L39.5225 2.02832L39.3849 1.75H39.0744V2.25ZM43.3869 10.9688L42.9387 11.1904L43.3885 12.0998L43.8357 11.1891L43.3869 10.9688ZM47.6681 2.25V1.75H47.3566L47.2193 2.02962L47.6681 2.25ZM51.0119 2.25L51.4545 2.48265L51.8396 1.75H51.0119V2.25ZM45.09 13.5156L44.6474 13.283L44.525 13.5158L44.6476 13.7486L45.09 13.5156ZM51.1369 25V25.5H51.9652L51.5793 24.7671L51.1369 25ZM47.7619 25L47.3133 25.2208L47.4507 25.5H47.7619V25ZM43.3869 16.1094L43.8355 15.8886L43.3877 14.9786L42.9386 15.888L43.3869 16.1094ZM38.9963 25V25.5H39.307L39.4446 25.2214L38.9963 25ZM35.6056 25L35.1635 24.7666L34.7763 25.5H35.6056V25ZM41.6681 13.5156L42.1103 13.749L42.2334 13.5158L42.1105 13.2825L41.6681 13.5156ZM35.7306 2.25V1.75H34.9019L35.2883 2.48313L35.7306 2.25ZM39.0744 2.25L38.6262 2.47168L42.9387 11.1904L43.3869 10.9688L43.835 10.7471L39.5225 2.02832L39.0744 2.25ZM43.3869 10.9688L43.8357 11.1891L48.1169 2.47038L47.6681 2.25L47.2193 2.02962L42.9381 10.7484L43.3869 10.9688ZM47.6681 2.25V2.75H51.0119V2.25V1.75H47.6681V2.25ZM51.0119 2.25L50.5693 2.01735L44.6474 13.283L45.09 13.5156L45.5326 13.7483L51.4545 2.48265L51.0119 2.25ZM45.09 13.5156L44.6476 13.7486L50.6945 25.2329L51.1369 25L51.5793 24.7671L45.5324 13.2827L45.09 13.5156ZM51.1369 25V24.5H47.7619V25V25.5H51.1369V25ZM47.7619 25L48.2105 24.7792L43.8355 15.8886L43.3869 16.1094L42.9383 16.3301L47.3133 25.2208L47.7619 25ZM43.3869 16.1094L42.9386 15.888L38.5479 24.7786L38.9963 25L39.4446 25.2214L43.8352 16.3308L43.3869 16.1094ZM38.9963 25V24.5H35.6056V25V25.5H38.9963V25ZM35.6056 25L36.0478 25.2334L42.1103 13.749L41.6681 13.5156L41.226 13.2822L35.1635 24.7666L35.6056 25ZM41.6681 13.5156L42.1105 13.2825L36.173 2.01687L35.7306 2.25L35.2883 2.48313L41.2258 13.7488L41.6681 13.5156ZM35.7306 2.25V2.75H39.0744V2.25V1.75H35.7306V2.25ZM58.1094 2.25H58.6094V1.75H58.1094V2.25ZM58.1094 25V25.5H58.6094V25H58.1094ZM55.2656 25H54.7656V25.5H55.2656V25ZM55.2656 2.25V1.75H54.7656V2.25H55.2656ZM64.0938 2.25H64.5938V1.75H64.0938V2.25ZM64.0938 4.71875V5.21875H64.5938V4.71875H64.0938ZM49.2969 4.71875H48.7969V5.21875H49.2969V4.71875ZM49.2969 2.25V1.75H48.7969V2.25H49.2969ZM58.1094 2.25H57.6094V25H58.1094H58.6094V2.25H58.1094ZM58.1094 25V24.5H55.2656V25V25.5H58.1094V25ZM55.2656 25H55.7656V2.25H55.2656H54.7656V25H55.2656ZM55.2656 2.25V2.75H58.1094V2.25V1.75H55.2656V2.25ZM64.0938 2.25H63.5938V4.71875H64.0938H64.5938V2.25H64.0938ZM64.0938 4.71875V4.21875H49.2969V4.71875V5.21875H64.0938V4.71875ZM49.2969 4.71875H49.7969V2.25H49.2969H48.7969V4.71875H49.2969ZM49.2969 2.25V2.75H64.0938V2.25V1.75H49.2969V2.25ZM14.5981 39.0312H15.0981V38.5312H14.5981V39.0312ZM14.5981 41.4844V41.9844H15.0981V41.4844H14.5981ZM4.73875 41.4844H4.23875V41.9844H4.73875V41.4844ZM4.73875 39.0312V38.5312H4.23875V39.0312H4.73875ZM5.12937 29.25H5.62937V28.75H5.12937V29.25ZM5.12937 52V52.5H5.62937V52H5.12937ZM2.25437 52H1.75437V52.5H2.25437V52ZM2.25437 29.25V28.75H1.75437V29.25H2.25437ZM17.145 29.25H17.645V28.75H17.145V29.25ZM17.145 52V52.5H17.645V52H17.145ZM14.27 52H13.77V52.5H14.27V52ZM14.27 29.25V28.75H13.77V29.25H14.27ZM14.5981 39.0312H14.0981V41.4844H14.5981H15.0981V39.0312H14.5981ZM14.5981 41.4844V40.9844H4.73875V41.4844V41.9844H14.5981V41.4844ZM4.73875 41.4844H5.23875V39.0312H4.73875H4.23875V41.4844H4.73875ZM4.73875 39.0312V39.5312H14.5981V39.0312V38.5312H4.73875V39.0312ZM5.12937 29.25H4.62937V52H5.12937H5.62937V29.25H5.12937ZM5.12937 52V51.5H2.25437V52V52.5H5.12937V52ZM2.25437 52H2.75437V29.25H2.25437H1.75437V52H2.25437ZM2.25437 29.25V29.75H5.12937V29.25V28.75H2.25437V29.25ZM17.145 29.25H16.645V52H17.145H17.645V29.25H17.145ZM17.145 52V51.5H14.27V52V52.5H17.145V52ZM14.27 52H14.77V29.25H14.27H13.77V52H14.27ZM14.27 29.25V29.75H17.145V29.25V28.75H14.27V29.25ZM25.9144 31.2656L26.3933 31.4093L26.4138 31.3409L26.4144 31.2695L25.9144 31.2656ZM19.6956 52V52.5H20.0677L20.1745 52.1436L19.6956 52ZM16.7581 52L16.2822 51.8467L16.0718 52.5H16.7581V52ZM24.0862 29.25V28.75H23.722L23.6103 29.0967L24.0862 29.25ZM25.93 29.25L26.43 29.2539L26.4339 28.75H25.93V29.25ZM30.9456 52L30.4667 52.1436L30.5736 52.5H30.9456V52ZM24.7269 31.2656L24.2269 31.2734L24.228 31.3428L24.2479 31.4093L24.7269 31.2656ZM24.6956 29.25V28.75H24.1878L24.1957 29.2578L24.6956 29.25ZM26.555 29.25L27.0309 29.0967L26.9192 28.75H26.555V29.25ZM33.8831 52V52.5H34.5695L34.359 51.8467L33.8831 52ZM30.9456 43.5781H31.4456V43.0781H30.9456V43.5781ZM30.9456 46.0469V46.5469H31.4456V46.0469H30.9456ZM19.9769 46.0469H19.4769V46.5469H19.9769V46.0469ZM19.9769 43.5781V43.0781H19.4769V43.5781H19.9769ZM25.9144 31.2656L25.4354 31.122L19.2167 51.8564L19.6956 52L20.1745 52.1436L26.3933 31.4093L25.9144 31.2656ZM19.6956 52V51.5H16.7581V52V52.5H19.6956V52ZM16.7581 52L17.234 52.1533L24.5622 29.4033L24.0862 29.25L23.6103 29.0967L16.2822 51.8467L16.7581 52ZM24.0862 29.25V29.75H25.93V29.25V28.75H24.0862V29.25ZM25.93 29.25L25.43 29.2461L25.4144 31.2617L25.9144 31.2656L26.4144 31.2695L26.43 29.2539L25.93 29.25ZM30.9456 52L31.4245 51.8564L25.2058 31.122L24.7269 31.2656L24.2479 31.4093L30.4667 52.1436L30.9456 52ZM24.7269 31.2656L25.2268 31.2579L25.1956 29.2422L24.6956 29.25L24.1957 29.2578L24.2269 31.2734L24.7269 31.2656ZM24.6956 29.25V29.75H26.555V29.25V28.75H24.6956V29.25ZM26.555 29.25L26.0791 29.4033L33.4072 52.1533L33.8831 52L34.359 51.8467L27.0309 29.0967L26.555 29.25ZM33.8831 52V51.5H30.9456V52V52.5H33.8831V52ZM30.9456 43.5781H30.4456V46.0469H30.9456H31.4456V43.5781H30.9456ZM30.9456 46.0469V45.5469H19.9769V46.0469V46.5469H30.9456V46.0469ZM19.9769 46.0469H20.4769V43.5781H19.9769H19.4769V46.0469H19.9769ZM19.9769 43.5781V44.0781H30.9456V43.5781V43.0781H19.9769V43.5781ZM48.0431 29.25H48.5431V28.75H48.0431V29.25ZM48.0431 52V52.5H48.5431V52H48.0431ZM45.1525 52L44.7087 52.2304L44.8487 52.5H45.1525V52ZM36.0431 34.4531L36.4869 34.2227L35.5431 34.4531H36.0431ZM36.0431 52V52.5H36.5431V52H36.0431ZM33.1681 52H32.6681V52.5H33.1681V52ZM33.1681 29.25V28.75H32.6681V29.25H33.1681ZM36.0431 29.25L36.4867 29.0192L36.3466 28.75H36.0431V29.25ZM45.1994 46.8438L44.7558 47.0746L45.6994 46.8438H45.1994ZM45.1994 29.25V28.75H44.6994V29.25H45.1994ZM48.0431 29.25H47.5431V52H48.0431H48.5431V29.25H48.0431ZM48.0431 52V51.5H45.1525V52V52.5H48.0431V52ZM45.1525 52L45.5963 51.7696L36.4869 34.2227L36.0431 34.4531L35.5994 34.6835L44.7087 52.2304L45.1525 52ZM36.0431 34.4531H35.5431V52H36.0431H36.5431V34.4531H36.0431ZM36.0431 52V51.5H33.1681V52V52.5H36.0431V52ZM33.1681 52H33.6681V29.25H33.1681H32.6681V52H33.1681ZM33.1681 29.25V29.75H36.0431V29.25V28.75H33.1681V29.25ZM36.0431 29.25L35.5996 29.4808L44.7558 47.0746L45.1994 46.8438L45.6429 46.6129L36.4867 29.0192L36.0431 29.25ZM45.1994 46.8438H45.6994V29.25H45.1994H44.6994V46.8438H45.1994ZM45.1994 29.25V29.75H48.0431V29.25V28.75H45.1994V29.25ZM50.4531 52L49.9532 51.9936L49.9467 52.5H50.4531V52ZM50.4844 49.5469V49.0469H49.9907L49.9844 49.5405L50.4844 49.5469ZM57.6562 48.7656L57.9166 49.1925L57.9203 49.1902L57.6562 48.7656ZM59.5469 46.4219L60.0121 46.6051L60.0127 46.6035L59.5469 46.4219ZM57.0469 32.1406L56.86 32.6044L56.866 32.6068L57.0469 32.1406ZM50.375 31.7188H49.875V32.2188H50.375V31.7188ZM50.375 29.25V28.75H49.875V29.25H50.375ZM58.0625 29.8594L57.8792 30.3246L57.8833 30.3262L58.0625 29.8594ZM60.7187 31.6562L60.3512 31.9952L60.3534 31.9976L60.7187 31.6562ZM62.4062 34.6094L61.9311 34.765L61.9323 34.7687L62.4062 34.6094ZM62.4062 46.6562L61.9323 46.4969L61.9311 46.5007L62.4062 46.6562ZM57.9687 51.4062L58.1433 51.8748L58.1458 51.8739L57.9687 51.4062ZM52.0469 29.25H52.5469V28.75H52.0469V29.25ZM52.0469 52V52.5H52.5469V52H52.0469ZM49.1719 52H48.6719V52.5H49.1719V52ZM49.1719 29.25V28.75H48.6719V29.25H49.1719ZM54.3281 52V51.5H50.4531V52V52.5H54.3281V52ZM50.4531 52L50.9531 52.0064L50.9843 49.5532L50.4844 49.5469L49.9844 49.5405L49.9532 51.9936L50.4531 52ZM50.4844 49.5469V50.0469H54.3281V49.5469V49.0469H50.4844V49.5469ZM54.3281 49.5469V50.0469C55.7523 50.0469 56.9604 49.7755 57.9165 49.1925L57.6562 48.7656L57.3959 48.3387C56.6438 48.7974 55.6331 49.0469 54.3281 49.0469V49.5469ZM57.6562 48.7656L57.9203 49.1902C58.875 48.5964 59.5707 47.7256 60.0121 46.6051L59.5469 46.4219L59.0817 46.2386C58.7106 47.1806 58.1458 47.8723 57.3922 48.341L57.6562 48.7656ZM59.5469 46.4219L60.0127 46.6035C60.4482 45.4869 60.6562 44.1345 60.6562 42.5625H60.1562H59.6562C59.6562 44.053 59.458 45.2735 59.081 46.2402L59.5469 46.4219ZM60.1562 42.5625H60.6562V38.6719H60.1562H59.6562V42.5625H60.1562ZM60.1562 38.6719H60.6562C60.6562 37.4341 60.5391 36.3477 60.2962 35.4202L59.8125 35.5469L59.3288 35.6736C59.5442 36.496 59.6562 37.493 59.6562 38.6719H60.1562ZM59.8125 35.5469L60.2962 35.4202C60.0532 34.4926 59.6821 33.7047 59.1689 33.0748L58.7812 33.3906L58.3936 33.7065C58.7971 34.2016 59.1134 34.8512 59.3288 35.6736L59.8125 35.5469ZM58.7812 33.3906L59.1689 33.0748C58.654 32.4429 58.0038 31.9756 57.2278 31.6745L57.0469 32.1406L56.866 32.6068C57.4858 32.8473 57.9918 33.2133 58.3936 33.7065L58.7812 33.3906ZM57.0469 32.1406L57.2338 31.6769C56.4638 31.3666 55.5801 31.2188 54.5937 31.2188V31.7188V32.2188C55.4824 32.2188 56.2341 32.3522 56.86 32.6044L57.0469 32.1406ZM54.5937 31.7188V31.2188H50.375V31.7188V32.2188H54.5937V31.7188ZM50.375 31.7188H50.875V29.25H50.375H49.875V31.7188H50.375ZM50.375 29.25V29.75H54.5937V29.25V28.75H50.375V29.25ZM54.5937 29.25V29.75C55.8219 29.75 56.9147 29.9446 57.8792 30.3246L58.0625 29.8594L58.2458 29.3942C57.1478 28.9616 55.9281 28.75 54.5937 28.75V29.25ZM58.0625 29.8594L57.8833 30.3262C58.8437 30.6948 59.6644 31.2504 60.3512 31.9952L60.7187 31.6562L61.0863 31.3173C60.2939 30.458 59.3438 29.8156 58.2417 29.3926L58.0625 29.8594ZM60.7187 31.6562L60.3534 31.9976C61.0366 32.7289 61.5651 33.6471 61.9311 34.765L62.4062 34.6094L62.8814 34.4538C62.4766 33.2174 61.88 32.1669 61.0841 31.3149L60.7187 31.6562ZM62.4062 34.6094L61.9323 34.7687C62.3072 35.8835 62.5 37.1923 62.5 38.7031H63H63.5C63.5 37.1098 63.297 35.6894 62.8802 34.45L62.4062 34.6094ZM63 38.7031H62.5V42.5625H63H63.5V38.7031H63ZM63 42.5625H62.5C62.5 44.0733 62.3072 45.3821 61.9323 46.4969L62.4062 46.6562L62.8802 46.8156C63.297 45.5762 63.5 44.1558 63.5 42.5625H63ZM62.4062 46.6562L61.9311 46.5007C61.5655 47.617 61.0328 48.5344 60.3401 49.2655L60.7031 49.6094L61.0661 49.9532C61.8735 49.101 62.4761 48.0496 62.8814 46.8118L62.4062 46.6562ZM60.7031 49.6094L60.3401 49.2655C59.6447 49.9996 58.7979 50.5577 57.7917 50.9386L57.9687 51.4062L58.1458 51.8739C59.2855 51.4423 60.2615 50.8025 61.0661 49.9532L60.7031 49.6094ZM57.9687 51.4062L57.7942 50.9377C56.7976 51.309 55.6449 51.5 54.3281 51.5V52V52.5C55.7405 52.5 57.0149 52.2952 58.1433 51.8748L57.9687 51.4062ZM52.0469 29.25H51.5469V52H52.0469H52.5469V29.25H52.0469ZM52.0469 52V51.5H49.1719V52V52.5H52.0469V52ZM49.1719 52H49.6719V29.25H49.1719H48.6719V52H49.1719ZM49.1719 29.25V29.75H52.0469V29.25V28.75H49.1719V29.25Z" fill="#343434" mask="url(#path-1-outside-1_315_104081)"/>
</g>
<defs>
<filter id="filter0_d_315_104081" x="1.75391" y="0.75" width="62.8398" height="51.75" filterUnits="userSpaceOnUse" color-interpolation-filters="sRGB">
<feFlood flood-opacity="0" result="BackgroundImageFix"/>
<feColorMatrix in="SourceAlpha" type="matrix" values="0 0 0 0 0 0 0 0 0 0 0 0 0 0 0 0 0 0 127 0" result="hardAlpha"/>
<feOffset dy="-1"/>
<feColorMatrix type="matrix" values="0 0 0 0 0 0 0 0 0 0 0 0 0 0 0 0 0 0 0.25 0"/>
<feBlend mode="normal" in2="BackgroundImageFix" result="effect1_dropShadow_315_104081"/>
<feBlend mode="normal" in="SourceGraphic" in2="effect1_dropShadow_315_104081" result="shape"/>
</filter>
<linearGradient id="paint0_linear_315_104081" x1="32" y1="1" x2="32" y2="55" gradientUnits="userSpaceOnUse">
<stop stop-color="#E6CF1F"/>
<stop offset="1" stop-color="#C9E722"/>
</linearGradient>
</defs>
</svg>
