<svg width="33" height="31" viewBox="0 0 33 31" fill="none" xmlns="http://www.w3.org/2000/svg">
<g clip-path="url(#clip0_315_104180)">
<g filter="url(#filter0_d_315_104180)">
<mask id="path-1-outside-1_315_104180" maskUnits="userSpaceOnUse" x="0.306641" y="0.762207" width="32" height="30" fill="black">
<rect fill="white" x="0.306641" y="0.762207" width="32" height="30"/>
<path d="M13.5491 2.50524V28.7622H8.78328V8.06237L2.47082 10.1485V6.29992L13.0096 2.50524H13.5491ZM30.4902 13.4217V17.8278C30.4902 19.842 30.2864 21.5625 29.8788 22.9893C29.4711 24.416 28.8836 25.585 28.1163 26.4962C27.349 27.3954 26.4318 28.0608 25.3647 28.4924C24.2977 28.9121 23.1107 29.1219 21.8039 29.1219C20.7608 29.1219 19.7896 28.99 18.8904 28.7262C17.9912 28.4505 17.1819 28.0308 16.4625 27.4673C15.7552 26.8918 15.1437 26.1605 14.6282 25.2733C14.1246 24.386 13.7349 23.325 13.4592 22.0901C13.1954 20.8551 13.0635 19.4344 13.0635 17.8278V13.4217C13.0635 11.4074 13.2673 9.69294 13.675 8.27818C14.0946 6.86342 14.6881 5.70644 15.4554 4.80722C16.2228 3.90801 17.1399 3.25459 18.207 2.84694C19.2741 2.42731 20.461 2.2175 21.7679 2.2175C22.823 2.2175 23.7941 2.34938 24.6813 2.61315C25.5805 2.87692 26.3838 3.29056 27.0912 3.85406C27.8106 4.40558 28.422 5.12495 28.9256 6.01217C29.4292 6.8874 29.8128 7.94247 30.0766 9.17739C30.3524 10.4003 30.4902 11.8151 30.4902 13.4217ZM25.7424 18.4752V12.7563C25.7424 11.7491 25.6825 10.8739 25.5626 10.1306C25.4547 9.37522 25.2928 8.73378 25.077 8.20624C24.8612 7.67871 24.5914 7.25308 24.2677 6.92936C23.944 6.59366 23.5723 6.34787 23.1527 6.19201C22.733 6.03615 22.2714 5.95822 21.7679 5.95822C21.1444 5.95822 20.5869 6.0841 20.0954 6.33588C19.6038 6.57567 19.1901 6.95934 18.8544 7.48687C18.5187 8.01441 18.261 8.7158 18.0811 9.59103C17.9133 10.4543 17.8293 11.5093 17.8293 12.7563V18.4752C17.8293 19.4823 17.8833 20.3636 17.9912 21.1189C18.1111 21.8743 18.2789 22.5217 18.4948 23.0612C18.7226 23.6007 18.9923 24.0443 19.304 24.392C19.6278 24.7277 19.9994 24.9795 20.4191 25.1474C20.8387 25.3032 21.3003 25.3812 21.8039 25.3812C22.4393 25.3812 22.9968 25.2553 23.4764 25.0035C23.968 24.7517 24.3816 24.3561 24.7173 23.8165C25.053 23.265 25.3048 22.5517 25.4726 21.6764C25.6525 20.7892 25.7424 19.7221 25.7424 18.4752Z"/>
</mask>
<path d="M13.5491 2.50525H14.7768V1.27752H13.5491V2.50525ZM13.5491 28.7622V29.9899H14.7768V28.7622H13.5491ZM8.78328 28.7622H7.55556V29.9899H8.78328V28.7622ZM8.78328 8.06237H10.011V6.36359L8.39803 6.89666L8.78328 8.06237ZM2.47082 10.1485H1.24309V11.8473L2.85607 11.3143L2.47082 10.1485ZM2.47082 6.29992L2.05489 5.14479L1.24309 5.4371V6.29992H2.47082ZM13.0096 2.50525V1.27752H12.7953L12.5936 1.35012L13.0096 2.50525ZM13.5491 2.50525H12.3214V28.7622H13.5491H14.7768V2.50525H13.5491ZM13.5491 28.7622V27.5345H8.78328V28.7622V29.9899H13.5491V28.7622ZM8.78328 28.7622H10.011V8.06237H8.78328H7.55556V28.7622H8.78328ZM8.78328 8.06237L8.39803 6.89666L2.08557 8.98283L2.47082 10.1485L2.85607 11.3143L9.16853 9.22808L8.78328 8.06237ZM2.47082 10.1485H3.69854V6.29992H2.47082H1.24309V10.1485H2.47082ZM2.47082 6.29992L2.88674 7.45504L13.4255 3.66037L13.0096 2.50525L12.5936 1.35012L2.05489 5.14479L2.47082 6.29992ZM13.0096 2.50525V3.73297H13.5491V2.50525V1.27752H13.0096V2.50525ZM29.8788 22.9893L28.6983 22.652L29.8788 22.9893ZM28.1163 26.4962L29.0502 27.2931L29.0554 27.287L28.1163 26.4962ZM25.3647 28.4924L25.8141 29.635L25.8251 29.6306L25.3647 28.4924ZM18.8904 28.7262L18.5305 29.9L18.5376 29.9022L18.5448 29.9043L18.8904 28.7262ZM16.4625 27.4673L15.6877 28.4197L15.6965 28.4269L15.7055 28.4338L16.4625 27.4673ZM14.6282 25.2733L13.5604 25.8793L13.5666 25.8901L14.6282 25.2733ZM13.4592 22.0901L12.2585 22.3465L12.261 22.3576L13.4592 22.0901ZM13.675 8.27818L12.4979 7.92905L12.4953 7.93826L13.675 8.27818ZM18.207 2.84694L18.6452 3.99388L18.6563 3.98949L18.207 2.84694ZM24.6813 2.61315L24.3315 3.78997L24.3358 3.79123L24.6813 2.61315ZM27.0912 3.85406L26.3263 4.81434L26.3352 4.82145L26.3442 4.82839L27.0912 3.85406ZM28.9256 6.01217L27.8579 6.61819L27.8614 6.62443L28.9256 6.01217ZM30.0766 9.17739L28.8759 9.43386L28.8789 9.44745L30.0766 9.17739ZM25.5626 10.1306L24.3472 10.3042L24.3487 10.3151L24.3505 10.326L25.5626 10.1306ZM24.2677 6.92936L23.3839 7.78157L23.3917 7.7896L23.3996 7.79749L24.2677 6.92936ZM20.0954 6.33588L20.6336 7.43932L20.6444 7.43407L20.655 7.42861L20.0954 6.33588ZM18.0811 9.59103L16.8785 9.3439L16.876 9.35669L18.0811 9.59103ZM17.9912 21.1189L16.7758 21.2925L16.7772 21.302L16.7787 21.3114L17.9912 21.1189ZM18.4948 23.0612L17.3548 23.5172L17.3592 23.528L17.3637 23.5388L18.4948 23.0612ZM19.304 24.392L18.3899 25.2116L18.4048 25.2282L18.4203 25.2442L19.304 24.392ZM20.4191 25.1474L19.9631 26.2873L19.9773 26.293L19.9916 26.2983L20.4191 25.1474ZM23.4764 25.0035L22.9167 23.9107L22.9057 23.9165L23.4764 25.0035ZM24.7173 23.8165L25.7598 24.4652L25.766 24.4549L24.7173 23.8165ZM25.4726 21.6764L24.2693 21.4325L24.2669 21.4452L25.4726 21.6764ZM30.4902 13.4217H29.2625V17.8278H30.4902H31.718V13.4217H30.4902ZM30.4902 17.8278H29.2625C29.2625 19.7657 29.0657 21.3661 28.6983 22.652L29.8788 22.9893L31.0593 23.3266C31.5071 21.7589 31.718 19.9184 31.718 17.8278H30.4902ZM29.8788 22.9893L28.6983 22.652C28.3269 23.9519 27.8091 24.955 27.1772 25.7054L28.1163 26.4962L29.0554 27.287C29.9581 26.215 30.6154 24.8801 31.0593 23.3266L29.8788 22.9893ZM28.1163 26.4962L27.1824 25.6993C26.5396 26.4525 25.7834 26.9987 24.9044 27.3543L25.3647 28.4924L25.8251 29.6306C27.0802 29.1229 28.1584 28.3383 29.0502 27.2931L28.1163 26.4962ZM25.3647 28.4924L24.9154 27.3499C24.01 27.7059 22.9782 27.8942 21.8039 27.8942V29.1219V30.3496C23.2432 30.3496 24.5853 30.1182 25.814 29.635L25.3647 28.4924ZM21.8039 29.1219V27.8942C20.8647 27.8942 20.0111 27.7755 19.236 27.5482L18.8904 28.7262L18.5448 29.9043C19.5682 30.2045 20.6569 30.3496 21.8039 30.3496V29.1219ZM18.8904 28.7262L19.2504 27.5525C18.4908 27.3195 17.817 26.9688 17.2196 26.5008L16.4625 27.4673L15.7055 28.4338C16.5468 29.0929 17.4916 29.5814 18.5305 29.9L18.8904 28.7262ZM16.4625 27.4673L17.2373 26.515C16.6585 26.0441 16.14 25.4314 15.6897 24.6564L14.6282 25.2733L13.5666 25.8901C14.1474 26.8896 14.8518 27.7396 15.6877 28.4197L16.4625 27.4673ZM14.6282 25.2733L15.6959 24.6673C15.2647 23.9076 14.9127 22.966 14.6574 21.8225L13.4592 22.0901L12.261 22.3576C12.5571 23.6839 12.9845 24.8645 13.5604 25.8793L14.6282 25.2733ZM13.4592 22.0901L14.6598 21.8336C14.4181 20.7021 14.2912 19.3703 14.2912 17.8278H13.0635H11.8358C11.8358 19.4985 11.9727 21.0081 12.2585 22.3465L13.4592 22.0901ZM13.0635 17.8278H14.2912V13.4217H13.0635H11.8358V17.8278H13.0635ZM13.0635 13.4217H14.2912C14.2912 11.4833 14.4882 9.89021 14.8547 8.6181L13.675 8.27818L12.4953 7.93826C12.0465 9.49566 11.8358 11.3315 11.8358 13.4217H13.0635ZM13.675 8.27818L14.852 8.6273C15.2346 7.33752 15.7575 6.34457 16.3893 5.60416L15.4554 4.80722L14.5215 4.01029C13.6187 5.0683 12.9546 6.38933 12.4979 7.92906L13.675 8.27818ZM15.4554 4.80722L16.3893 5.60416C17.0281 4.85559 17.7769 4.32553 18.6451 3.99383L18.207 2.84694L17.7689 1.70006C16.503 2.18364 15.4174 2.96044 14.5215 4.01029L15.4554 4.80722ZM18.207 2.84694L18.6563 3.98949C19.5617 3.63345 20.5935 3.44522 21.7679 3.44522V2.2175V0.989775C20.3285 0.989775 18.9864 1.22118 17.7577 1.7044L18.207 2.84694ZM21.7679 2.2175V3.44522C22.7207 3.44522 23.5724 3.56429 24.3315 3.78997L24.6813 2.61315L25.0312 1.43633C24.0158 1.13447 22.9252 0.989775 21.7679 0.989775V2.2175ZM24.6813 2.61315L24.3358 3.79123C25.088 4.0119 25.7477 4.3535 26.3263 4.81434L27.0912 3.85406L27.8562 2.89379C27.0199 2.22761 26.0731 1.74194 25.0269 1.43507L24.6813 2.61315ZM27.0912 3.85406L26.3442 4.82839C26.9177 5.26804 27.4253 5.85606 27.8579 6.61818L28.9256 6.01217L29.9933 5.40616C29.4188 4.39384 28.7035 3.54312 27.8382 2.87973L27.0912 3.85406ZM28.9256 6.01217L27.8614 6.62443C28.2876 7.36516 28.6325 8.29399 28.876 9.43384L30.0766 9.17739L31.2772 8.92094C30.9932 7.59096 30.5707 6.40964 29.9898 5.39991L28.9256 6.01217ZM30.0766 9.17739L28.8789 9.44745C29.13 10.561 29.2625 11.8819 29.2625 13.4217H30.4902H31.718C31.718 11.7482 31.5747 10.2396 31.2743 8.90733L30.0766 9.17739ZM25.7424 18.4752H26.9701V12.7563H25.7424H24.5147V18.4752H25.7424ZM25.7424 12.7563H26.9701C26.9701 11.704 26.9077 10.7605 26.7746 9.93506L25.5626 10.1306L24.3505 10.326C24.4572 10.9873 24.5147 11.7942 24.5147 12.7563H25.7424ZM25.5626 10.1306L26.7779 9.95693C26.6602 9.13303 26.4777 8.38777 26.2133 7.74139L25.077 8.20624L23.9407 8.6711C24.1079 9.07979 24.2491 9.6174 24.3472 10.3042L25.5626 10.1306ZM25.077 8.20624L26.2133 7.74139C25.9504 7.09873 25.5993 6.52474 25.1358 6.06123L24.2677 6.92936L23.3996 7.79749C23.5835 7.98142 23.772 8.25868 23.9407 8.6711L25.077 8.20624ZM24.2677 6.92936L25.1515 6.07716C24.7055 5.61463 24.1796 5.26377 23.5801 5.04111L23.1527 6.19201L22.7252 7.34291C22.965 7.43198 23.1825 7.57268 23.3839 7.78157L24.2677 6.92936ZM23.1527 6.19201L23.5801 5.04111C23.0077 4.8285 22.3993 4.73049 21.7679 4.73049V5.95822V7.18594C22.1436 7.18594 22.4583 7.24379 22.7252 7.34291L23.1527 6.19201ZM21.7679 5.95822V4.73049C20.9751 4.73049 20.2217 4.89179 19.5357 5.24316L20.0954 6.33588L20.655 7.42861C20.9522 7.27642 21.3137 7.18594 21.7679 7.18594V5.95822ZM20.0954 6.33588L19.5571 5.23244C18.834 5.58518 18.2582 6.137 17.8187 6.82774L18.8544 7.48687L19.8902 8.14601C20.1221 7.78167 20.3736 7.56616 20.6336 7.43932L20.0954 6.33588ZM18.8544 7.48687L17.8187 6.82774C17.3763 7.52292 17.0766 8.37999 16.8785 9.34392L18.0811 9.59103L19.2837 9.83814C19.4453 9.0516 19.6612 8.5059 19.8902 8.14601L18.8544 7.48687ZM18.0811 9.59103L16.876 9.35669C16.6883 10.3217 16.6016 11.4604 16.6016 12.7563H17.8293H19.0571C19.0571 11.5583 19.1382 10.5868 19.2863 9.82536L18.0811 9.59103ZM17.8293 12.7563H16.6016V18.4752H17.8293H19.0571V12.7563H17.8293ZM17.8293 18.4752H16.6016C16.6016 19.5233 16.6576 20.4649 16.7758 21.2925L17.9912 21.1189L19.2066 20.9453C19.109 20.2623 19.0571 19.4414 19.0571 18.4752H17.8293ZM17.9912 21.1189L16.7787 21.3114C16.9087 22.1304 17.0964 22.871 17.3548 23.5172L18.4948 23.0612L19.6347 22.6052C19.4615 22.1724 19.3135 21.6181 19.2037 20.9264L17.9912 21.1189ZM18.4948 23.0612L17.3637 23.5388C17.6315 24.1731 17.9678 24.7407 18.3899 25.2116L19.304 24.392L20.2182 23.5725C20.0169 23.348 19.8136 23.0284 19.6258 22.5837L18.4948 23.0612ZM19.304 24.392L18.4203 25.2442C18.8607 25.701 19.3769 26.0528 19.9631 26.2873L20.4191 25.1474L20.875 24.0075C20.622 23.9062 20.3948 23.7545 20.1878 23.5398L19.304 24.392ZM20.4191 25.1474L19.9916 26.2983C20.564 26.5109 21.1725 26.6089 21.8039 26.6089V25.3812V24.1535C21.4281 24.1535 21.1134 24.0956 20.8465 23.9965L20.4191 25.1474ZM21.8039 25.3812V26.6089C22.6037 26.6089 23.3633 26.4495 24.0471 26.0905L23.4764 25.0035L22.9057 23.9165C22.6303 24.0611 22.2749 24.1535 21.8039 24.1535V25.3812ZM23.4764 25.0035L24.0361 26.0962C24.7542 25.7284 25.3244 25.1648 25.7597 24.4652L24.7173 23.8165L23.6749 23.1679C23.4388 23.5473 23.1818 23.775 22.9167 23.9108L23.4764 25.0035ZM24.7173 23.8165L25.766 24.4549C26.2009 23.7404 26.4927 22.876 26.6784 21.9077L25.4726 21.6764L24.2669 21.4452C24.1169 22.2273 23.9051 22.7896 23.6686 23.1782L24.7173 23.8165ZM25.4726 21.6764L26.6759 21.9203C26.8768 20.9292 26.9701 19.7758 26.9701 18.4752H25.7424H24.5147C24.5147 19.6685 24.4282 20.6492 24.2694 21.4325L25.4726 21.6764Z" fill="#FFE600" mask="url(#path-1-outside-1_315_104180)"/>
</g>
<mask id="path-3-outside-2_315_104180" maskUnits="userSpaceOnUse" x="0.306641" y="0.762207" width="31" height="29" fill="black">
<rect fill="white" x="0.306641" y="0.762207" width="31" height="29"/>
<path d="M12.0758 2.50524V28.7622H7.31001V8.06237L0.997551 10.1485V6.29992L11.5363 2.50524H12.0758ZM30.4902 13.4217V17.8278C30.4902 19.842 30.2864 21.5625 29.8788 22.9893C29.4711 24.416 28.8836 25.585 28.1163 26.4962C27.349 27.3954 26.4318 28.0608 25.3647 28.4924C24.2977 28.9121 23.1107 29.1219 21.8039 29.1219C20.7608 29.1219 19.7896 28.99 18.8904 28.7262C17.9912 28.4505 17.1819 28.0308 16.4625 27.4673C15.7552 26.8918 15.1437 26.1605 14.6282 25.2733C14.1246 24.386 13.7349 23.325 13.4592 22.0901C13.1954 20.8551 13.0635 19.4344 13.0635 17.8278V13.4217C13.0635 11.4074 13.2673 9.69294 13.675 8.27818C14.0946 6.86342 14.6881 5.70644 15.4554 4.80722C16.2228 3.90801 17.1399 3.25459 18.207 2.84694C19.2741 2.42731 20.461 2.2175 21.7679 2.2175C22.823 2.2175 23.7941 2.34938 24.6813 2.61315C25.5805 2.87692 26.3838 3.29056 27.0912 3.85406C27.8106 4.40558 28.422 5.12495 28.9256 6.01217C29.4292 6.8874 29.8128 7.94247 30.0766 9.17739C30.3524 10.4003 30.4902 11.8151 30.4902 13.4217ZM25.7424 18.4752V12.7563C25.7424 11.7491 25.6825 10.8739 25.5626 10.1306C25.4547 9.37522 25.2928 8.73378 25.077 8.20624C24.8612 7.67871 24.5914 7.25308 24.2677 6.92936C23.944 6.59366 23.5723 6.34787 23.1527 6.19201C22.733 6.03615 22.2714 5.95822 21.7679 5.95822C21.1444 5.95822 20.5869 6.0841 20.0954 6.33588C19.6038 6.57567 19.1901 6.95934 18.8544 7.48687C18.5187 8.01441 18.261 8.7158 18.0811 9.59103C17.9133 10.4543 17.8293 11.5093 17.8293 12.7563V18.4752C17.8293 19.4823 17.8833 20.3636 17.9912 21.1189C18.1111 21.8743 18.2789 22.5217 18.4948 23.0612C18.7226 23.6007 18.9923 24.0443 19.304 24.392C19.6278 24.7277 19.9994 24.9795 20.4191 25.1474C20.8387 25.3032 21.3003 25.3812 21.8039 25.3812C22.4393 25.3812 22.9968 25.2553 23.4764 25.0035C23.968 24.7517 24.3816 24.3561 24.7173 23.8165C25.053 23.265 25.3048 22.5517 25.4726 21.6764C25.6525 20.7892 25.7424 19.7221 25.7424 18.4752Z"/>
</mask>
<path d="M12.0758 2.50524V28.7622H7.31001V8.06237L0.997551 10.1485V6.29992L11.5363 2.50524H12.0758ZM30.4902 13.4217V17.8278C30.4902 19.842 30.2864 21.5625 29.8788 22.9893C29.4711 24.416 28.8836 25.585 28.1163 26.4962C27.349 27.3954 26.4318 28.0608 25.3647 28.4924C24.2977 28.9121 23.1107 29.1219 21.8039 29.1219C20.7608 29.1219 19.7896 28.99 18.8904 28.7262C17.9912 28.4505 17.1819 28.0308 16.4625 27.4673C15.7552 26.8918 15.1437 26.1605 14.6282 25.2733C14.1246 24.386 13.7349 23.325 13.4592 22.0901C13.1954 20.8551 13.0635 19.4344 13.0635 17.8278V13.4217C13.0635 11.4074 13.2673 9.69294 13.675 8.27818C14.0946 6.86342 14.6881 5.70644 15.4554 4.80722C16.2228 3.90801 17.1399 3.25459 18.207 2.84694C19.2741 2.42731 20.461 2.2175 21.7679 2.2175C22.823 2.2175 23.7941 2.34938 24.6813 2.61315C25.5805 2.87692 26.3838 3.29056 27.0912 3.85406C27.8106 4.40558 28.422 5.12495 28.9256 6.01217C29.4292 6.8874 29.8128 7.94247 30.0766 9.17739C30.3524 10.4003 30.4902 11.8151 30.4902 13.4217ZM25.7424 18.4752V12.7563C25.7424 11.7491 25.6825 10.8739 25.5626 10.1306C25.4547 9.37522 25.2928 8.73378 25.077 8.20624C24.8612 7.67871 24.5914 7.25308 24.2677 6.92936C23.944 6.59366 23.5723 6.34787 23.1527 6.19201C22.733 6.03615 22.2714 5.95822 21.7679 5.95822C21.1444 5.95822 20.5869 6.0841 20.0954 6.33588C19.6038 6.57567 19.1901 6.95934 18.8544 7.48687C18.5187 8.01441 18.261 8.7158 18.0811 9.59103C17.9133 10.4543 17.8293 11.5093 17.8293 12.7563V18.4752C17.8293 19.4823 17.8833 20.3636 17.9912 21.1189C18.1111 21.8743 18.2789 22.5217 18.4948 23.0612C18.7226 23.6007 18.9923 24.0443 19.304 24.392C19.6278 24.7277 19.9994 24.9795 20.4191 25.1474C20.8387 25.3032 21.3003 25.3812 21.8039 25.3812C22.4393 25.3812 22.9968 25.2553 23.4764 25.0035C23.968 24.7517 24.3816 24.3561 24.7173 23.8165C25.053 23.265 25.3048 22.5517 25.4726 21.6764C25.6525 20.7892 25.7424 19.7221 25.7424 18.4752Z" fill="#0000F1"/>
<path d="M12.0758 2.50524V28.7622H7.31001V8.06237L0.997551 10.1485V6.29992L11.5363 2.50524H12.0758ZM30.4902 13.4217V17.8278C30.4902 19.842 30.2864 21.5625 29.8788 22.9893C29.4711 24.416 28.8836 25.585 28.1163 26.4962C27.349 27.3954 26.4318 28.0608 25.3647 28.4924C24.2977 28.9121 23.1107 29.1219 21.8039 29.1219C20.7608 29.1219 19.7896 28.99 18.8904 28.7262C17.9912 28.4505 17.1819 28.0308 16.4625 27.4673C15.7552 26.8918 15.1437 26.1605 14.6282 25.2733C14.1246 24.386 13.7349 23.325 13.4592 22.0901C13.1954 20.8551 13.0635 19.4344 13.0635 17.8278V13.4217C13.0635 11.4074 13.2673 9.69294 13.675 8.27818C14.0946 6.86342 14.6881 5.70644 15.4554 4.80722C16.2228 3.90801 17.1399 3.25459 18.207 2.84694C19.2741 2.42731 20.461 2.2175 21.7679 2.2175C22.823 2.2175 23.7941 2.34938 24.6813 2.61315C25.5805 2.87692 26.3838 3.29056 27.0912 3.85406C27.8106 4.40558 28.422 5.12495 28.9256 6.01217C29.4292 6.8874 29.8128 7.94247 30.0766 9.17739C30.3524 10.4003 30.4902 11.8151 30.4902 13.4217ZM25.7424 18.4752V12.7563C25.7424 11.7491 25.6825 10.8739 25.5626 10.1306C25.4547 9.37522 25.2928 8.73378 25.077 8.20624C24.8612 7.67871 24.5914 7.25308 24.2677 6.92936C23.944 6.59366 23.5723 6.34787 23.1527 6.19201C22.733 6.03615 22.2714 5.95822 21.7679 5.95822C21.1444 5.95822 20.5869 6.0841 20.0954 6.33588C19.6038 6.57567 19.1901 6.95934 18.8544 7.48687C18.5187 8.01441 18.261 8.7158 18.0811 9.59103C17.9133 10.4543 17.8293 11.5093 17.8293 12.7563V18.4752C17.8293 19.4823 17.8833 20.3636 17.9912 21.1189C18.1111 21.8743 18.2789 22.5217 18.4948 23.0612C18.7226 23.6007 18.9923 24.0443 19.304 24.392C19.6278 24.7277 19.9994 24.9795 20.4191 25.1474C20.8387 25.3032 21.3003 25.3812 21.8039 25.3812C22.4393 25.3812 22.9968 25.2553 23.4764 25.0035C23.968 24.7517 24.3816 24.3561 24.7173 23.8165C25.053 23.265 25.3048 22.5517 25.4726 21.6764C25.6525 20.7892 25.7424 19.7221 25.7424 18.4752Z" fill="url(#paint0_linear_315_104180)"/>
<path d="M12.0758 2.50524V28.7622H7.31001V8.06237L0.997551 10.1485V6.29992L11.5363 2.50524H12.0758ZM30.4902 13.4217V17.8278C30.4902 19.842 30.2864 21.5625 29.8788 22.9893C29.4711 24.416 28.8836 25.585 28.1163 26.4962C27.349 27.3954 26.4318 28.0608 25.3647 28.4924C24.2977 28.9121 23.1107 29.1219 21.8039 29.1219C20.7608 29.1219 19.7896 28.99 18.8904 28.7262C17.9912 28.4505 17.1819 28.0308 16.4625 27.4673C15.7552 26.8918 15.1437 26.1605 14.6282 25.2733C14.1246 24.386 13.7349 23.325 13.4592 22.0901C13.1954 20.8551 13.0635 19.4344 13.0635 17.8278V13.4217C13.0635 11.4074 13.2673 9.69294 13.675 8.27818C14.0946 6.86342 14.6881 5.70644 15.4554 4.80722C16.2228 3.90801 17.1399 3.25459 18.207 2.84694C19.2741 2.42731 20.461 2.2175 21.7679 2.2175C22.823 2.2175 23.7941 2.34938 24.6813 2.61315C25.5805 2.87692 26.3838 3.29056 27.0912 3.85406C27.8106 4.40558 28.422 5.12495 28.9256 6.01217C29.4292 6.8874 29.8128 7.94247 30.0766 9.17739C30.3524 10.4003 30.4902 11.8151 30.4902 13.4217ZM25.7424 18.4752V12.7563C25.7424 11.7491 25.6825 10.8739 25.5626 10.1306C25.4547 9.37522 25.2928 8.73378 25.077 8.20624C24.8612 7.67871 24.5914 7.25308 24.2677 6.92936C23.944 6.59366 23.5723 6.34787 23.1527 6.19201C22.733 6.03615 22.2714 5.95822 21.7679 5.95822C21.1444 5.95822 20.5869 6.0841 20.0954 6.33588C19.6038 6.57567 19.1901 6.95934 18.8544 7.48687C18.5187 8.01441 18.261 8.7158 18.0811 9.59103C17.9133 10.4543 17.8293 11.5093 17.8293 12.7563V18.4752C17.8293 19.4823 17.8833 20.3636 17.9912 21.1189C18.1111 21.8743 18.2789 22.5217 18.4948 23.0612C18.7226 23.6007 18.9923 24.0443 19.304 24.392C19.6278 24.7277 19.9994 24.9795 20.4191 25.1474C20.8387 25.3032 21.3003 25.3812 21.8039 25.3812C22.4393 25.3812 22.9968 25.2553 23.4764 25.0035C23.968 24.7517 24.3816 24.3561 24.7173 23.8165C25.053 23.265 25.3048 22.5517 25.4726 21.6764C25.6525 20.7892 25.7424 19.7221 25.7424 18.4752Z" fill="url(#paint1_linear_315_104180)"/>
<path d="M12.0758 2.50525H12.6897V1.89138H12.0758V2.50525ZM12.0758 28.7622V29.3761H12.6897V28.7622H12.0758ZM7.31001 28.7622H6.69615V29.3761H7.31001V28.7622ZM7.31001 8.06237H7.92387V7.21298L7.11739 7.47951L7.31001 8.06237ZM0.997551 10.1485H0.38369V10.9979L1.19018 10.7314L0.997551 10.1485ZM0.997551 6.29992L0.789589 5.72235L0.38369 5.86851V6.29992H0.997551ZM11.5363 2.50525V1.89138H11.4292L11.3283 1.92768L11.5363 2.50525ZM12.0758 2.50525H11.462V28.7622H12.0758H12.6897V2.50525H12.0758ZM12.0758 28.7622V28.1483H7.31001V28.7622V29.3761H12.0758V28.7622ZM7.31001 28.7622H7.92387V8.06237H7.31001H6.69615V28.7622H7.31001ZM7.31001 8.06237L7.11739 7.47951L0.804926 9.56568L0.997551 10.1485L1.19018 10.7314L7.50264 8.64523L7.31001 8.06237ZM0.997551 10.1485H1.61141V6.29992H0.997551H0.38369V10.1485H0.997551ZM0.997551 6.29992L1.20551 6.87748L11.7443 3.08281L11.5363 2.50525L11.3283 1.92768L0.789589 5.72235L0.997551 6.29992ZM11.5363 2.50525V3.11911H12.0758V2.50525V1.89138H11.5363V2.50525ZM29.8788 22.9893L29.2885 22.8206L29.8788 22.9893ZM28.1163 26.4962L28.5833 26.8947L28.5859 26.8916L28.1163 26.4962ZM25.3647 28.4924L25.5894 29.0637L25.5949 29.0615L25.3647 28.4924ZM18.8904 28.7262L18.7104 29.3132L18.7176 29.3153L18.8904 28.7262ZM16.4625 27.4673L16.0751 27.9436L16.084 27.9506L16.4625 27.4673ZM14.6282 25.2733L14.0943 25.5763L14.0974 25.5817L14.6282 25.2733ZM13.4592 22.0901L12.8588 22.2183L12.8601 22.2238L13.4592 22.0901ZM13.675 8.27818L13.0865 8.10361L13.0851 8.10822L13.675 8.27818ZM18.207 2.84694L18.4261 3.42041L18.4317 3.41822L18.207 2.84694ZM24.6813 2.61315L24.5064 3.20156L24.5085 3.20219L24.6813 2.61315ZM27.0912 3.85406L26.7087 4.33428L26.7177 4.34122L27.0912 3.85406ZM28.9256 6.01217L28.3917 6.31518L28.3935 6.3183L28.9256 6.01217ZM30.0766 9.17739L29.4762 9.30562L29.4778 9.31242L30.0766 9.17739ZM25.5626 10.1306L24.9548 10.2174L24.9565 10.2283L25.5626 10.1306ZM24.2677 6.92936L23.8257 7.35554L23.8336 7.36343L24.2677 6.92936ZM20.0954 6.33588L20.3645 6.88771L20.3752 6.88225L20.0954 6.33588ZM18.0811 9.59103L17.4798 9.46747L17.4785 9.47386L18.0811 9.59103ZM17.9912 21.1189L17.3834 21.2057L17.3849 21.2151L17.9912 21.1189ZM18.4948 23.0612L17.9247 23.2892L17.9292 23.3L18.4948 23.0612ZM19.3041 24.392L18.847 24.8018L18.8544 24.8101L18.8622 24.8181L19.3041 24.392ZM20.4191 25.1474L20.1911 25.7173L20.1982 25.7202L20.2053 25.7228L20.4191 25.1474ZM23.4764 25.0035L23.1965 24.4571L23.191 24.46L23.4764 25.0035ZM24.7173 23.8165L25.2385 24.1409L25.2417 24.1357L24.7173 23.8165ZM25.4726 21.6764L24.871 21.5545L24.8698 21.5608L25.4726 21.6764ZM30.4902 13.4217H29.8764V17.8278H30.4902H31.1041V13.4217H30.4902ZM30.4902 17.8278H29.8764C29.8764 19.8039 29.676 21.4643 29.2885 22.8206L29.8788 22.9893L30.469 23.1579C30.8968 21.6607 31.1041 19.8802 31.1041 17.8278H30.4902ZM29.8788 22.9893L29.2885 22.8206C28.899 24.184 28.3464 25.27 27.6468 26.1008L28.1163 26.4962L28.5859 26.8916C29.4209 25.9 30.0433 24.6481 30.469 23.1579L29.8788 22.9893ZM28.1163 26.4962L27.6494 26.0977C26.9443 26.924 26.1076 27.5298 25.1345 27.9234L25.3647 28.4924L25.5949 29.0615C26.756 28.5919 27.7537 27.8668 28.5833 26.8947L28.1163 26.4962ZM25.3647 28.4924L25.1401 27.9212C24.1539 28.309 23.0445 28.508 21.8039 28.508V29.1219V29.7358C23.177 29.7358 24.4415 29.5151 25.5894 29.0637L25.3647 28.4924ZM21.8039 29.1219V28.508C20.8127 28.508 19.9004 28.3828 19.0632 28.1372L18.8904 28.7262L18.7176 29.3153C19.6789 29.5973 20.7088 29.7358 21.8039 29.7358V29.1219ZM18.8904 28.7262L19.0704 28.1394C18.241 27.885 17.4994 27.4998 16.8411 26.9841L16.4625 27.4673L16.084 27.9506C16.8644 28.5619 17.7414 29.0159 18.7104 29.3131L18.8904 28.7262ZM16.4625 27.4673L16.8499 26.9912C16.2068 26.468 15.6418 25.7959 15.1589 24.9649L14.6282 25.2733L14.0974 25.5817C14.6456 26.5251 15.3035 27.3157 16.0751 27.9435L16.4625 27.4673ZM14.6282 25.2733L15.162 24.9703C14.6947 24.1468 14.3238 23.1455 14.0583 21.9563L13.4592 22.0901L12.8601 22.2238C13.146 23.5045 13.5545 24.6253 14.0943 25.5763L14.6282 25.2733ZM13.4592 22.0901L14.0595 21.9618C13.8068 20.7786 13.6774 19.4023 13.6774 17.8278H13.0635H12.4497C12.4497 19.4665 12.584 20.9316 12.8589 22.2183L13.4592 22.0901ZM13.0635 17.8278H13.6774V13.4217H13.0635H12.4497V17.8278H13.0635ZM13.0635 13.4217H13.6774C13.6774 11.4454 13.8778 9.79158 14.2649 8.44814L13.675 8.27818L13.0851 8.10822C12.6569 9.5943 12.4497 11.3695 12.4497 13.4217H13.0635ZM13.675 8.27818L14.2635 8.45274C14.6646 7.10047 15.2228 6.02551 15.9224 5.20569L15.4554 4.80722L14.9885 4.40876C14.1534 5.38737 13.5246 6.62637 13.0865 8.10362L13.675 8.27818ZM15.4554 4.80722L15.9224 5.20569C16.6254 4.3818 17.4584 3.79006 18.4261 3.42039L18.207 2.84694L17.9879 2.2735C16.8215 2.71911 15.8201 3.43423 14.9885 4.40876L15.4554 4.80722ZM18.207 2.84694L18.4317 3.41822C19.4179 3.03038 20.5273 2.83136 21.7679 2.83136V2.2175V1.60364C20.3948 1.60364 19.1303 1.82425 17.9824 2.27567L18.207 2.84694ZM21.7679 2.2175V2.83136C22.7719 2.83136 23.6832 2.95684 24.5064 3.20156L24.6813 2.61315L24.8563 2.02474C23.905 1.74192 22.8741 1.60364 21.7679 1.60364V2.2175ZM24.6813 2.61315L24.5085 3.20219C25.3343 3.44441 26.0658 3.82203 26.7087 4.3342L27.0912 3.85406L27.4737 3.37392C26.7019 2.75908 25.8268 2.30943 24.8541 2.02411L24.6813 2.61315ZM27.0912 3.85406L26.7177 4.34122C27.3641 4.83681 27.9237 5.4905 28.3917 6.31517L28.9256 6.01217L29.4595 5.70916C28.9204 4.75939 28.257 3.97435 27.4647 3.3669L27.0912 3.85406ZM28.9256 6.01217L28.3935 6.3183C28.8584 7.12628 29.2227 8.11823 29.4763 9.30561L30.0766 9.17739L30.6769 9.04917C30.403 7.76672 29.9999 6.64852 29.4577 5.70604L28.9256 6.01217ZM30.0766 9.17739L29.4778 9.31242C29.7412 10.4807 29.8764 11.8485 29.8764 13.4217H30.4902H31.1041C31.1041 11.7817 30.9635 10.32 30.6754 9.04236L30.0766 9.17739ZM25.7424 18.4752H26.3563V12.7563H25.7424H25.1285V18.4752H25.7424ZM25.7424 12.7563H26.3563C26.3563 11.7266 26.2951 10.8172 26.1686 10.0328L25.5626 10.1306L24.9565 10.2283C25.0698 10.9306 25.1285 11.7717 25.1285 12.7563H25.7424ZM25.5626 10.1306L26.1702 10.0437C26.0574 9.25412 25.8853 8.56078 25.6451 7.97381L25.077 8.20624L24.5088 8.43867C24.7003 8.90678 24.8519 9.49631 24.9549 10.2174L25.5626 10.1306ZM25.077 8.20624L25.6451 7.97381C25.4058 7.38872 25.0954 6.88891 24.7018 6.4953L24.2677 6.92936L23.8336 7.36343C24.0875 7.61725 24.3166 7.96869 24.5088 8.43867L25.077 8.20624ZM24.2677 6.92936L24.7096 6.50326C24.3247 6.10415 23.876 5.80582 23.3664 5.61656L23.1527 6.19201L22.9389 6.76746C23.2687 6.88993 23.5632 7.08317 23.8258 7.35547L24.2677 6.92936ZM23.1527 6.19201L23.3664 5.61656C22.8704 5.43232 22.3354 5.34435 21.7679 5.34435V5.95822V6.57208C22.2075 6.57208 22.5957 6.63997 22.9389 6.76746L23.1527 6.19201ZM21.7679 5.95822V5.34435C21.0598 5.34435 20.4043 5.48795 19.8155 5.78952L20.0954 6.33588L20.3752 6.88225C20.7695 6.68026 21.2291 6.57208 21.7679 6.57208V5.95822ZM20.0954 6.33588L19.8262 5.78416C19.2189 6.08043 18.7242 6.54817 18.3366 7.15731L18.8544 7.48687L19.3723 7.81644C19.6561 7.3705 19.9887 7.07092 20.3645 6.8876L20.0954 6.33588ZM18.8544 7.48687L18.3366 7.15731C17.9475 7.76867 17.6688 8.54789 17.4798 9.46747L18.0811 9.59103L18.6824 9.71458C18.8531 8.8837 19.09 8.26016 19.3723 7.81644L18.8544 7.48687ZM18.0811 9.59103L17.4785 9.47386C17.3008 10.388 17.2155 11.4849 17.2155 12.7563H17.8293H18.4432C18.4432 11.5338 18.5257 10.5206 18.6837 9.70819L18.0811 9.59103ZM17.8293 12.7563H17.2155V18.4752H17.8293H18.4432V12.7563H17.8293ZM17.8293 18.4752H17.2155C17.2155 19.5028 17.2704 20.4142 17.3835 21.2057L17.9912 21.1189L18.5989 21.0321C18.4962 20.3129 18.4432 19.4619 18.4432 18.4752H17.8293ZM17.9912 21.1189L17.3849 21.2151C17.5099 22.0023 17.6877 22.6963 17.9248 23.2892L18.4948 23.0612L19.0647 22.8332C18.8702 22.347 18.7123 21.7462 18.5975 21.0227L17.9912 21.1189ZM18.4948 23.0612L17.9292 23.3C18.177 23.8869 18.48 24.3925 18.847 24.8018L19.3041 24.392L19.7611 23.9823C19.5046 23.6962 19.2681 23.3146 19.0603 22.8224L18.4948 23.0612ZM19.3041 24.392L18.8622 24.8181C19.2442 25.2144 19.6882 25.5162 20.1911 25.7173L20.4191 25.1474L20.6471 24.5774C20.3107 24.4429 20.0113 24.2411 19.7459 23.9659L19.3041 24.392ZM20.4191 25.1474L20.2053 25.7228C20.7014 25.9071 21.2364 25.995 21.8039 25.995V25.3812V24.7673C21.3642 24.7673 20.9761 24.6994 20.6328 24.5719L20.4191 25.1474ZM21.8039 25.3812V25.995C22.5215 25.995 23.1801 25.8524 23.7617 25.547L23.4764 25.0035L23.191 24.46C22.8136 24.6582 22.3571 24.7673 21.8039 24.7673V25.3812ZM23.4764 25.0035L23.7562 25.5499C24.3611 25.2401 24.853 24.7604 25.2385 24.1409L24.7173 23.8165L24.1961 23.4922C23.9102 23.9517 23.5749 24.2634 23.1965 24.4571L23.4764 25.0035ZM24.7173 23.8165L25.2417 24.1357C25.627 23.5027 25.8987 22.7138 26.0755 21.792L25.4726 21.6764L24.8698 21.5608C24.7108 22.3895 24.4791 23.0273 24.1929 23.4974L24.7173 23.8165ZM25.4726 21.6764L26.0743 21.7984C26.2646 20.8592 26.3563 19.749 26.3563 18.4752H25.7424H25.1285C25.1285 19.6953 25.0403 20.7192 24.871 21.5545L25.4726 21.6764Z" fill="#292929" mask="url(#path-3-outside-2_315_104180)"/>
</g>
<defs>
<filter id="filter0_d_315_104180" x="0.0144647" y="-0.237977" width="32.932" height="31.8153" filterUnits="userSpaceOnUse" color-interpolation-filters="sRGB">
<feFlood flood-opacity="0" result="BackgroundImageFix"/>
<feColorMatrix in="SourceAlpha" type="matrix" values="0 0 0 0 0 0 0 0 0 0 0 0 0 0 0 0 0 0 127 0" result="hardAlpha"/>
<feOffset/>
<feGaussianBlur stdDeviation="0.613861"/>
<feComposite in2="hardAlpha" operator="out"/>
<feColorMatrix type="matrix" values="0 0 0 0 1 0 0 0 0 0.901961 0 0 0 0 0 0 0 0 1 0"/>
<feBlend mode="normal" in2="BackgroundImageFix" result="effect1_dropShadow_315_104180"/>
<feBlend mode="normal" in="SourceGraphic" in2="effect1_dropShadow_315_104180" result="shape"/>
</filter>
<linearGradient id="paint0_linear_315_104180" x1="14.8066" y1="2.76221" x2="14.8066" y2="28.7622" gradientUnits="userSpaceOnUse">
<stop offset="0.0327765" stop-color="#00D1FF" stop-opacity="0"/>
<stop offset="0.208385" stop-color="#00D1FF"/>
<stop offset="0.4375" stop-color="#75E2FA"/>
<stop offset="0.707725" stop-color="#00D1FF"/>
<stop offset="0.952043" stop-color="#00D1FF" stop-opacity="0"/>
</linearGradient>
<linearGradient id="paint1_linear_315_104180" x1="14.8066" y1="2.76221" x2="14.8066" y2="28.7622" gradientUnits="userSpaceOnUse">
<stop offset="0.0327765" stop-color="#00D1FF" stop-opacity="0"/>
<stop offset="0.208385" stop-color="#00D1FF"/>
<stop offset="0.466648" stop-color="#C1F4FF"/>
<stop offset="0.707725" stop-color="#00D1FF"/>
<stop offset="0.952043" stop-color="#00D1FF" stop-opacity="0"/>
</linearGradient>
<clipPath id="clip0_315_104180">
<rect width="33" height="31" fill="white"/>
</clipPath>
</defs>
</svg>
