<svg width="25" height="31" viewBox="0 0 25 31" fill="none" xmlns="http://www.w3.org/2000/svg">
<mask id="path-1-outside-1_318_104194" maskUnits="userSpaceOnUse" x="-0.109375" y="2" width="25" height="28" fill="black">
<rect fill="white" x="-0.109375" y="2" width="25" height="28"/>
<path d="M6.98546 2.81497L12.2189 12.1488L17.4703 2.81497H23.1533L15.3841 15.7996L23.3511 29H17.6141L12.2189 19.4863L6.84158 29H1.08663L9.05364 15.7996L1.28446 2.81497H6.98546Z"/>
</mask>
<path d="M6.98546 2.81497L12.2189 12.1488L17.4703 2.81497H23.1533L15.3841 15.7996L23.3511 29H17.6141L12.2189 19.4863L6.84158 29H1.08663L9.05364 15.7996L1.28446 2.81497H6.98546Z" fill="#0000F1"/>
<path d="M6.98546 2.81497L12.2189 12.1488L17.4703 2.81497H23.1533L15.3841 15.7996L23.3511 29H17.6141L12.2189 19.4863L6.84158 29H1.08663L9.05364 15.7996L1.28446 2.81497H6.98546Z" fill="url(#paint0_linear_318_104194)"/>
<path d="M6.98546 2.81497L12.2189 12.1488L17.4703 2.81497H23.1533L15.3841 15.7996L23.3511 29H17.6141L12.2189 19.4863L6.84158 29H1.08663L9.05364 15.7996L1.28446 2.81497H6.98546Z" fill="url(#paint1_linear_318_104194)"/>
<path d="M6.98546 2.81497L7.5209 2.51476L7.34504 2.20111H6.98546V2.81497ZM12.2189 12.1488L11.6834 12.449L12.2179 13.4023L12.7539 12.4498L12.2189 12.1488ZM17.4703 2.81497V2.20111H17.1113L16.9353 2.51397L17.4703 2.81497ZM23.1533 2.81497L23.68 3.13016L24.2359 2.20111H23.1533V2.81497ZM15.3841 15.7996L14.8573 15.4844L14.6679 15.801L14.8585 16.1168L15.3841 15.7996ZM23.3511 29V29.6139H24.4386L23.8767 28.6828L23.3511 29ZM17.6141 29L17.0802 29.3028L17.2566 29.6139H17.6141V29ZM12.2189 19.4863L12.7528 19.1835L12.218 18.2404L11.6845 19.1843L12.2189 19.4863ZM6.84158 29V29.6139H7.19975L7.37599 29.3021L6.84158 29ZM1.08663 29L0.561074 28.6828L-0.000859261 29.6139H1.08663V29ZM9.05364 15.7996L9.5792 16.1168L9.76982 15.801L9.58041 15.4844L9.05364 15.7996ZM1.28446 2.81497V2.20111H0.201807L0.757691 3.13016L1.28446 2.81497ZM6.98546 2.81497L6.45002 3.11519L11.6834 12.449L12.2189 12.1488L12.7543 11.8486L7.5209 2.51476L6.98546 2.81497ZM12.2189 12.1488L12.7539 12.4498L18.0053 3.11598L17.4703 2.81497L16.9353 2.51397L11.6839 11.8478L12.2189 12.1488ZM17.4703 2.81497V3.42884H23.1533V2.81497V2.20111H17.4703V2.81497ZM23.1533 2.81497L22.6265 2.49979L14.8573 15.4844L15.3841 15.7996L15.9109 16.1148L23.68 3.13016L23.1533 2.81497ZM15.3841 15.7996L14.8585 16.1168L22.8255 29.3172L23.3511 29L23.8767 28.6828L15.9096 15.4824L15.3841 15.7996ZM23.3511 29V28.3861H17.6141V29V29.6139H23.3511V29ZM17.6141 29L18.1481 28.6972L12.7528 19.1835L12.2189 19.4863L11.6849 19.7892L17.0802 29.3028L17.6141 29ZM12.2189 19.4863L11.6845 19.1843L6.30718 28.6979L6.84158 29L7.37599 29.3021L12.7533 19.7884L12.2189 19.4863ZM6.84158 29V28.3861H1.08663V29V29.6139H6.84158V29ZM1.08663 29L1.61219 29.3172L9.5792 16.1168L9.05364 15.7996L8.52808 15.4824L0.561074 28.6828L1.08663 29ZM9.05364 15.7996L9.58041 15.4844L1.81123 2.49979L1.28446 2.81497L0.757691 3.13016L8.52687 16.1148L9.05364 15.7996ZM1.28446 2.81497V3.42884H6.98546V2.81497V2.20111H1.28446V2.81497Z" fill="#292929" mask="url(#path-1-outside-1_318_104194)"/>
<defs>
<linearGradient id="paint0_linear_318_104194" x1="14.8906" y1="3" x2="14.8906" y2="29" gradientUnits="userSpaceOnUse">
<stop offset="0.0327765" stop-color="#00D1FF" stop-opacity="0"/>
<stop offset="0.208385" stop-color="#00D1FF"/>
<stop offset="0.4375" stop-color="#75E2FA"/>
<stop offset="0.707725" stop-color="#00D1FF"/>
<stop offset="0.952043" stop-color="#00D1FF" stop-opacity="0"/>
</linearGradient>
<linearGradient id="paint1_linear_318_104194" x1="14.8906" y1="3" x2="14.8906" y2="29" gradientUnits="userSpaceOnUse">
<stop offset="0.0327765" stop-color="#00D1FF" stop-opacity="0"/>
<stop offset="0.208385" stop-color="#00D1FF"/>
<stop offset="0.466648" stop-color="#C1F4FF"/>
<stop offset="0.707725" stop-color="#00D1FF"/>
<stop offset="0.952043" stop-color="#00D1FF" stop-opacity="0"/>
</linearGradient>
</defs>
</svg>
