<svg width="18" height="31" viewBox="0 0 18 31" fill="none" xmlns="http://www.w3.org/2000/svg">
<g filter="url(#filter0_d_315_104055)">
<mask id="path-1-outside-1_315_104055" maskUnits="userSpaceOnUse" x="0" y="2" width="18" height="25" fill="black">
<rect fill="white" y="2" width="18" height="25"/>
<path d="M16.7656 22.75V26H1.35938V23.2188L8.75 15.2344C9.52083 14.3594 10.1302 13.599 10.5781 12.9531C11.026 12.3073 11.3438 11.724 11.5312 11.2031C11.7292 10.6719 11.8281 10.1667 11.8281 9.6875C11.8281 8.98958 11.7031 8.38021 11.4531 7.85938C11.2031 7.32812 10.8385 6.91667 10.3594 6.625C9.89062 6.33333 9.3125 6.1875 8.625 6.1875C7.86458 6.1875 7.21354 6.36458 6.67188 6.71875C6.14062 7.0625 5.73438 7.54167 5.45312 8.15625C5.18229 8.77083 5.04688 9.47396 5.04688 10.2656H0.90625C0.90625 8.92188 1.21875 7.69792 1.84375 6.59375C2.46875 5.47917 3.36458 4.58854 4.53125 3.92188C5.69792 3.25521 7.08333 2.92188 8.6875 2.92188C10.25 2.92188 11.5729 3.18229 12.6562 3.70312C13.7396 4.21354 14.5625 4.94271 15.125 5.89062C15.6875 6.83854 15.9688 7.96875 15.9688 9.28125C15.9688 10.0104 15.849 10.7292 15.6094 11.4375C15.3698 12.1458 15.0312 12.849 14.5938 13.5469C14.1667 14.2344 13.6562 14.9323 13.0625 15.6406C12.4688 16.349 11.8073 17.0729 11.0781 17.8125L6.64062 22.75H16.7656Z"/>
</mask>
<path d="M16.7656 22.75V26H1.35938V23.2188L8.75 15.2344C9.52083 14.3594 10.1302 13.599 10.5781 12.9531C11.026 12.3073 11.3438 11.724 11.5312 11.2031C11.7292 10.6719 11.8281 10.1667 11.8281 9.6875C11.8281 8.98958 11.7031 8.38021 11.4531 7.85938C11.2031 7.32812 10.8385 6.91667 10.3594 6.625C9.89062 6.33333 9.3125 6.1875 8.625 6.1875C7.86458 6.1875 7.21354 6.36458 6.67188 6.71875C6.14062 7.0625 5.73438 7.54167 5.45312 8.15625C5.18229 8.77083 5.04688 9.47396 5.04688 10.2656H0.90625C0.90625 8.92188 1.21875 7.69792 1.84375 6.59375C2.46875 5.47917 3.36458 4.58854 4.53125 3.92188C5.69792 3.25521 7.08333 2.92188 8.6875 2.92188C10.25 2.92188 11.5729 3.18229 12.6562 3.70312C13.7396 4.21354 14.5625 4.94271 15.125 5.89062C15.6875 6.83854 15.9688 7.96875 15.9688 9.28125C15.9688 10.0104 15.849 10.7292 15.6094 11.4375C15.3698 12.1458 15.0312 12.849 14.5938 13.5469C14.1667 14.2344 13.6562 14.9323 13.0625 15.6406C12.4688 16.349 11.8073 17.0729 11.0781 17.8125L6.64062 22.75H16.7656Z" fill="url(#paint0_linear_315_104055)"/>
<path d="M16.7656 22.75H17.2656V22.25H16.7656V22.75ZM16.7656 26V26.5H17.2656V26H16.7656ZM1.35938 26H0.859375V26.5H1.35938V26ZM1.35938 23.2188L0.992442 22.8791L0.859375 23.0229V23.2188H1.35938ZM8.75 15.2344L9.11704 15.5741L9.12518 15.5649L8.75 15.2344ZM11.5312 11.2031L11.0627 11.0286L11.0608 11.0338L11.5312 11.2031ZM11.4531 7.85938L11.0007 8.07228L11.0024 8.07574L11.4531 7.85938ZM10.3594 6.625L10.0952 7.04955L10.0994 7.0521L10.3594 6.625ZM6.67188 6.71875L6.9435 7.13854L6.9455 7.13724L6.67188 6.71875ZM5.45312 8.15625L4.99843 7.94817L4.99558 7.95462L5.45312 8.15625ZM5.04688 10.2656V10.7656H5.54688V10.2656H5.04688ZM0.90625 10.2656H0.40625V10.7656H0.90625V10.2656ZM1.84375 6.59375L2.27888 6.84005L2.27986 6.8383L1.84375 6.59375ZM12.6562 3.70312L12.4396 4.15376L12.4431 4.15544L12.6562 3.70312ZM15.6094 11.4375L16.083 11.5977L15.6094 11.4375ZM14.5938 13.5469L14.1701 13.2813L14.169 13.283L14.5938 13.5469ZM11.0781 17.8125L10.7221 17.4615L10.714 17.4697L10.7062 17.4783L11.0781 17.8125ZM6.64062 22.75L6.26874 22.4158L5.519 23.25H6.64062V22.75ZM16.7656 22.75H16.2656V26H16.7656H17.2656V22.75H16.7656ZM16.7656 26V25.5H1.35938V26V26.5H16.7656V26ZM1.35938 26H1.85938V23.2188H1.35938H0.859375V26H1.35938ZM1.35938 23.2188L1.72631 23.5584L9.11693 15.574L8.75 15.2344L8.38307 14.8947L0.992442 22.8791L1.35938 23.2188ZM8.75 15.2344L9.12518 15.5649C9.90331 14.6816 10.5262 13.9054 10.989 13.2381L10.5781 12.9531L10.1673 12.6682C9.73423 13.2926 9.13836 14.0371 8.37482 14.9039L8.75 15.2344ZM10.5781 12.9531L10.989 13.2381C11.4522 12.5701 11.7947 11.9474 12.0017 11.3725L11.5312 11.2031L11.0608 11.0338C10.8928 11.5005 10.5998 12.0445 10.1673 12.6682L10.5781 12.9531ZM11.5312 11.2031L11.9998 11.3777C12.2148 10.8006 12.3281 10.2361 12.3281 9.6875H11.8281H11.3281C11.3281 10.0973 11.2435 10.5432 11.0627 11.0286L11.5312 11.2031ZM11.8281 9.6875H12.3281C12.3281 8.93003 12.1923 8.24396 11.9039 7.64301L11.4531 7.85938L11.0024 8.07574C11.2139 8.51646 11.3281 9.04914 11.3281 9.6875H11.8281ZM11.4531 7.85938L11.9055 7.64648C11.6158 7.03087 11.1863 6.54301 10.6193 6.1979L10.3594 6.625L10.0994 7.0521C10.4908 7.29033 10.7904 7.62538 11.0007 8.07227L11.4531 7.85938ZM10.3594 6.625L10.6235 6.20047C10.0581 5.84867 9.38306 5.6875 8.625 5.6875V6.1875V6.6875C9.24194 6.6875 9.72311 6.81799 10.0952 7.04953L10.3594 6.625ZM8.625 6.1875V5.6875C7.78473 5.6875 7.03465 5.88416 6.39825 6.30026L6.67188 6.71875L6.9455 7.13724C7.39243 6.84501 7.94444 6.6875 8.625 6.6875V6.1875ZM6.67188 6.71875L6.40025 6.29897C5.78357 6.69799 5.31651 7.25321 4.99847 7.94819L5.45312 8.15625L5.90778 8.36431C6.15224 7.83012 6.49768 7.42701 6.9435 7.13853L6.67188 6.71875ZM5.45312 8.15625L4.99558 7.95462C4.6922 8.64306 4.54688 9.41678 4.54688 10.2656H5.04688H5.54688C5.54688 9.53114 5.67238 8.8986 5.91067 8.35788L5.45312 8.15625ZM5.04688 10.2656V9.76562H0.90625V10.2656V10.7656H5.04688V10.2656ZM0.90625 10.2656H1.40625C1.40625 9.00291 1.69893 7.86462 2.27888 6.84005L1.84375 6.59375L1.40862 6.34745C0.738569 7.53121 0.40625 8.84084 0.40625 10.2656H0.90625ZM1.84375 6.59375L2.27986 6.8383C2.8582 5.80693 3.68713 4.98011 4.77932 4.356L4.53125 3.92188L4.28318 3.48775C3.04204 4.19698 2.0793 5.1514 1.40764 6.3492L1.84375 6.59375ZM4.53125 3.92188L4.77932 4.356C5.85701 3.74017 7.15345 3.42188 8.6875 3.42188V2.92188V2.42188C7.01321 2.42188 5.53882 2.77024 4.28318 3.48775L4.53125 3.92188ZM8.6875 2.92188V3.42188C10.1966 3.42188 11.441 3.67364 12.4396 4.15375L12.6562 3.70312L12.8729 3.2525C11.7049 2.69094 10.3034 2.42188 8.6875 2.42188V2.92188ZM12.6562 3.70312L12.4431 4.15544C13.4443 4.62713 14.1879 5.29123 14.695 6.14578L15.125 5.89062L15.555 5.63547C14.9371 4.59418 14.0349 3.79995 12.8694 3.25081L12.6562 3.70312ZM15.125 5.89062L14.695 6.14578C15.2036 7.0029 15.4688 8.04132 15.4688 9.28125H15.9688H16.4688C16.4688 7.89618 16.1714 6.67418 15.555 5.63547L15.125 5.89062ZM15.9688 9.28125H15.4688C15.4688 9.95455 15.3583 10.6192 15.1357 11.2773L15.6094 11.4375L16.083 11.5977C16.3396 10.8391 16.4688 10.0663 16.4688 9.28125H15.9688ZM15.6094 11.4375L15.1357 11.2773C14.9098 11.9452 14.589 12.6131 14.1701 13.2813L14.5938 13.5469L15.0174 13.8124C15.4735 13.0848 15.8297 12.3465 16.083 11.5977L15.6094 11.4375ZM14.5938 13.5469L14.169 13.283C13.756 13.9479 13.26 14.6267 12.6793 15.3194L13.0625 15.6406L13.4457 15.9618C14.0525 15.2379 14.5773 14.5209 15.0185 13.8107L14.5938 13.5469ZM13.0625 15.6406L12.6793 15.3194C12.0952 16.0163 11.4429 16.7303 10.7221 17.4615L11.0781 17.8125L11.4342 18.1635C12.1717 17.4155 12.8423 16.6816 13.4457 15.9618L13.0625 15.6406ZM11.0781 17.8125L10.7062 17.4783L6.26874 22.4158L6.64062 22.75L7.01251 23.0842L11.45 18.1467L11.0781 17.8125ZM6.64062 22.75V23.25H16.7656V22.75V22.25H6.64062V22.75Z" fill="#343434" mask="url(#path-1-outside-1_315_104055)"/>
</g>
<defs>
<filter id="filter0_d_315_104055" x="0.40625" y="1.42188" width="16.8594" height="25.0781" filterUnits="userSpaceOnUse" color-interpolation-filters="sRGB">
<feFlood flood-opacity="0" result="BackgroundImageFix"/>
<feColorMatrix in="SourceAlpha" type="matrix" values="0 0 0 0 0 0 0 0 0 0 0 0 0 0 0 0 0 0 127 0" result="hardAlpha"/>
<feOffset dy="-1"/>
<feColorMatrix type="matrix" values="0 0 0 0 0 0 0 0 0 0 0 0 0 0 0 0 0 0 0.25 0"/>
<feBlend mode="normal" in2="BackgroundImageFix" result="effect1_dropShadow_315_104055"/>
<feBlend mode="normal" in="SourceGraphic" in2="effect1_dropShadow_315_104055" result="shape"/>
</filter>
<linearGradient id="paint0_linear_315_104055" x1="8.5" y1="-2" x2="8.5" y2="33" gradientUnits="userSpaceOnUse">
<stop stop-color="#E6CF1F"/>
<stop offset="1" stop-color="#C9E722"/>
</linearGradient>
</defs>
</svg>
