<svg width="19" height="31" viewBox="0 0 19 31" fill="none" xmlns="http://www.w3.org/2000/svg">
<g filter="url(#filter0_d_315_104059)">
<mask id="path-1-outside-1_315_104059" maskUnits="userSpaceOnUse" x="1" y="2" width="18" height="25" fill="black">
<rect fill="white" x="1" y="2" width="18" height="25"/>
<path d="M18.1562 17.7031V20.9531H1.76562L1.59375 18.4531L11.2344 3.25H14.5312L10.9688 9.29688L5.79688 17.7031H18.1562ZM15.4531 3.25V26H11.3125V3.25H15.4531Z"/>
</mask>
<path d="M18.1562 17.7031V20.9531H1.76562L1.59375 18.4531L11.2344 3.25H14.5312L10.9688 9.29688L5.79688 17.7031H18.1562ZM15.4531 3.25V26H11.3125V3.25H15.4531Z" fill="url(#paint0_linear_315_104059)"/>
<path d="M18.1562 17.7031H18.6562V17.2031H18.1562V17.7031ZM18.1562 20.9531V21.4531H18.6562V20.9531H18.1562ZM1.76562 20.9531L1.2668 20.9874L1.29882 21.4531H1.76562V20.9531ZM1.59375 18.4531L1.17149 18.1854L1.08368 18.3238L1.09493 18.4874L1.59375 18.4531ZM11.2344 3.25V2.75H10.9594L10.8121 2.98224L11.2344 3.25ZM14.5312 3.25L14.962 3.5038L15.4061 2.75H14.5312V3.25ZM10.9688 9.29688L11.3947 9.55893L11.3995 9.55068L10.9688 9.29688ZM5.79688 17.7031L5.37102 17.4411L4.9022 18.2031H5.79688V17.7031ZM15.4531 3.25H15.9531V2.75H15.4531V3.25ZM15.4531 26V26.5H15.9531V26H15.4531ZM11.3125 26H10.8125V26.5H11.3125V26ZM11.3125 3.25V2.75H10.8125V3.25H11.3125ZM18.1562 17.7031H17.6562V20.9531H18.1562H18.6562V17.7031H18.1562ZM18.1562 20.9531V20.4531H1.76562V20.9531V21.4531H18.1562V20.9531ZM1.76562 20.9531L2.26445 20.9188L2.09257 18.4188L1.59375 18.4531L1.09493 18.4874L1.2668 20.9874L1.76562 20.9531ZM1.59375 18.4531L2.01601 18.7209L11.6566 3.51776L11.2344 3.25L10.8121 2.98224L1.17149 18.1854L1.59375 18.4531ZM11.2344 3.25V3.75H14.5312V3.25V2.75H11.2344V3.25ZM14.5312 3.25L14.1005 2.9962L10.538 9.04307L10.9688 9.29688L11.3995 9.55068L14.962 3.5038L14.5312 3.25ZM10.9688 9.29688L10.5429 9.03487L5.37102 17.4411L5.79688 17.7031L6.22273 17.9651L11.3946 9.55888L10.9688 9.29688ZM5.79688 17.7031V18.2031H18.1562V17.7031V17.2031H5.79688V17.7031ZM15.4531 3.25H14.9531V26H15.4531H15.9531V3.25H15.4531ZM15.4531 26V25.5H11.3125V26V26.5H15.4531V26ZM11.3125 26H11.8125V3.25H11.3125H10.8125V26H11.3125ZM11.3125 3.25V3.75H15.4531V3.25V2.75H11.3125V3.25Z" fill="#343434" mask="url(#path-1-outside-1_315_104059)"/>
</g>
<defs>
<filter id="filter0_d_315_104059" x="1.08398" y="1.75" width="17.5723" height="24.75" filterUnits="userSpaceOnUse" color-interpolation-filters="sRGB">
<feFlood flood-opacity="0" result="BackgroundImageFix"/>
<feColorMatrix in="SourceAlpha" type="matrix" values="0 0 0 0 0 0 0 0 0 0 0 0 0 0 0 0 0 0 127 0" result="hardAlpha"/>
<feOffset dy="-1"/>
<feColorMatrix type="matrix" values="0 0 0 0 0 0 0 0 0 0 0 0 0 0 0 0 0 0 0.25 0"/>
<feBlend mode="normal" in2="BackgroundImageFix" result="effect1_dropShadow_315_104059"/>
<feBlend mode="normal" in="SourceGraphic" in2="effect1_dropShadow_315_104059" result="shape"/>
</filter>
<linearGradient id="paint0_linear_315_104059" x1="9.5" y1="-2" x2="9.5" y2="33" gradientUnits="userSpaceOnUse">
<stop stop-color="#E6CF1F"/>
<stop offset="1" stop-color="#C9E722"/>
</linearGradient>
</defs>
</svg>
