<svg width="24" height="32" viewBox="0 0 24 32" fill="none" xmlns="http://www.w3.org/2000/svg">
<g filter="url(#filter0_d_315_104065)">
<mask id="path-1-outside-1_315_104065" maskUnits="userSpaceOnUse" x="0.347656" y="1" width="22" height="30" fill="black">
<rect fill="white" x="0.347656" y="1" width="22" height="30"/>
<path d="M20.783 2.81497V5.4047L10.4961 29H5.47846L15.7654 6.55569H2.45711V2.81497H20.783Z"/>
</mask>
<path d="M20.783 2.81497H22.0108V1.58725H20.783V2.81497ZM20.783 5.4047L21.9084 5.89536L22.0108 5.6607V5.4047H20.783ZM10.4961 29V30.2277H11.3001L11.6215 29.4907L10.4961 29ZM5.47846 29L4.36238 28.4885L3.56522 30.2277H5.47846V29ZM15.7654 6.55569L16.8815 7.06723L17.6787 5.32797H15.7654V6.55569ZM2.45711 6.55569H1.22939V7.78341H2.45711V6.55569ZM2.45711 2.81497V1.58725H1.22939V2.81497H2.45711ZM20.783 2.81497H19.5553V5.4047H20.783H22.0108V2.81497H20.783ZM20.783 5.4047L19.6576 4.91405L9.37064 28.5093L10.4961 29L11.6215 29.4907L21.9084 5.89536L20.783 5.4047ZM10.4961 29V27.7723H5.47846V29V30.2277H10.4961V29ZM5.47846 29L6.59454 29.5115L16.8815 7.06723L15.7654 6.55569L14.6494 6.04416L4.36238 28.4885L5.47846 29ZM15.7654 6.55569V5.32797H2.45711V6.55569V7.78341H15.7654V6.55569ZM2.45711 6.55569H3.68483V2.81497H2.45711H1.22939V6.55569H2.45711ZM2.45711 2.81497V4.0427H20.783V2.81497V1.58725H2.45711V2.81497Z" fill="#FFE600" mask="url(#path-1-outside-1_315_104065)"/>
</g>
<path d="M20.783 2.81497V5.4047L10.4961 29H5.47846L15.7654 6.55569H2.45711V2.81497H20.783Z" fill="#7100F1"/>
<path d="M20.783 2.81497V5.4047L10.4961 29H5.47846L15.7654 6.55569H2.45711V2.81497H20.783Z" fill="url(#paint0_linear_315_104065)"/>
<path d="M20.783 2.81497V5.4047L10.4961 29H5.47846L15.7654 6.55569H2.45711V2.81497H20.783Z" fill="url(#paint1_linear_315_104065)"/>
<path d="M20.783 2.81497H21.09V2.50804H20.783V2.81497ZM20.783 5.4047L21.0644 5.52737L21.09 5.4687V5.4047H20.783ZM10.4961 29V29.3069H10.6971L10.7774 29.1227L10.4961 29ZM5.47846 29L5.19944 28.8721L5.00015 29.3069H5.47846V29ZM15.7654 6.55569L16.0445 6.68358L16.2437 6.24876H15.7654V6.55569ZM2.45711 6.55569H2.15018V6.86262H2.45711V6.55569ZM2.45711 2.81497V2.50804H2.15018V2.81497H2.45711ZM20.783 2.81497H20.4761V5.4047H20.783H21.09V2.81497H20.783ZM20.783 5.4047L20.5017 5.28204L10.2147 28.8773L10.4961 29L10.7774 29.1227L21.0644 5.52737L20.783 5.4047ZM10.4961 29V28.6931H5.47846V29V29.3069H10.4961V29ZM5.47846 29L5.75748 29.1279L16.0445 6.68358L15.7654 6.55569L15.4864 6.42781L5.19944 28.8721L5.47846 29ZM15.7654 6.55569V6.24876H2.45711V6.55569V6.86262H15.7654V6.55569ZM2.45711 6.55569H2.76404V2.81497H2.45711H2.15018V6.55569H2.45711ZM2.45711 2.81497V3.1219H20.783V2.81497V2.50804H2.45711V2.81497Z" fill="#535353"/>
<defs>
<filter id="filter0_d_315_104065" x="0.000792861" y="0.35968" width="23.2386" height="31.0956" filterUnits="userSpaceOnUse" color-interpolation-filters="sRGB">
<feFlood flood-opacity="0" result="BackgroundImageFix"/>
<feColorMatrix in="SourceAlpha" type="matrix" values="0 0 0 0 0 0 0 0 0 0 0 0 0 0 0 0 0 0 127 0" result="hardAlpha"/>
<feOffset/>
<feGaussianBlur stdDeviation="0.613861"/>
<feComposite in2="hardAlpha" operator="out"/>
<feColorMatrix type="matrix" values="0 0 0 0 1 0 0 0 0 0.901961 0 0 0 0 0 0 0 0 1 0"/>
<feBlend mode="normal" in2="BackgroundImageFix" result="effect1_dropShadow_315_104065"/>
<feBlend mode="normal" in="SourceGraphic" in2="effect1_dropShadow_315_104065" result="shape"/>
</filter>
<linearGradient id="paint0_linear_315_104065" x1="11.3477" y1="3" x2="11.3477" y2="29" gradientUnits="userSpaceOnUse">
<stop offset="0.0327765" stop-color="#007BFF"/>
<stop offset="0.208385" stop-color="#007BFF"/>
<stop offset="0.4375" stop-color="#007BFF"/>
<stop offset="0.707725" stop-color="#007BFF"/>
<stop offset="0.952043" stop-color="#007BFF"/>
</linearGradient>
<linearGradient id="paint1_linear_315_104065" x1="11.3477" y1="3" x2="11.3477" y2="29" gradientUnits="userSpaceOnUse">
<stop offset="0.0327765" stop-color="#007BFF"/>
<stop offset="0.208385" stop-color="#007BFF"/>
<stop offset="0.466648" stop-color="#C1F4FF"/>
<stop offset="0.707725" stop-color="#007BFF"/>
<stop offset="0.952043" stop-color="#007BFF"/>
</linearGradient>
</defs>
</svg>
