<svg width="23" height="32" viewBox="0 0 23 32" fill="none" xmlns="http://www.w3.org/2000/svg">
<g filter="url(#filter0_d_315_104067)">
<mask id="path-1-outside-1_315_104067" maskUnits="userSpaceOnUse" x="0.734375" y="1.01807" width="21" height="30" fill="black">
<rect fill="white" x="0.734375" y="1.01807" width="21" height="30"/>
<path d="M19.9539 21.8603C19.9539 23.4909 19.5703 24.8697 18.8029 25.9967C18.0476 27.1117 17.0105 27.957 15.6917 28.5325C14.3848 29.096 12.8981 29.3778 11.2316 29.3778C9.57704 29.3778 8.08435 29.096 6.75352 28.5325C5.43468 27.957 4.3856 27.1117 3.60628 25.9967C2.83895 24.8697 2.45529 23.4909 2.45529 21.8603C2.45529 20.7693 2.6711 19.7802 3.10272 18.893C3.54633 18.0057 4.1578 17.2444 4.93711 16.609C5.71643 15.9615 6.63962 15.47 7.70668 15.1342C8.77375 14.7866 9.93673 14.6127 11.1956 14.6127C12.8741 14.6127 14.3728 14.9184 15.6917 15.5299C17.0225 16.1294 18.0656 16.9746 18.8209 18.0657C19.5763 19.1447 19.9539 20.4096 19.9539 21.8603ZM15.1701 21.5726C15.1701 20.7333 15.0023 20.008 14.6666 19.3965C14.3429 18.7731 13.8813 18.2935 13.2818 17.9578C12.6823 17.6221 11.9869 17.4542 11.1956 17.4542C10.3923 17.4542 9.69094 17.6221 9.09147 17.9578C8.50398 18.2935 8.04239 18.7731 7.70668 19.3965C7.38297 20.008 7.22111 20.7333 7.22111 21.5726C7.22111 22.4239 7.38297 23.1552 7.70668 23.7667C8.04239 24.3661 8.50998 24.8277 9.10945 25.1515C9.70893 25.4752 10.4163 25.637 11.2316 25.637C12.0469 25.637 12.7483 25.4752 13.3357 25.1515C13.9232 24.8277 14.3728 24.3661 14.6846 23.7667C15.0083 23.1552 15.1701 22.4239 15.1701 21.5726ZM19.3784 9.73898C19.3784 11.0578 19.0307 12.2328 18.3354 13.2639C17.64 14.283 16.6748 15.0803 15.4399 15.6558C14.217 16.2313 12.8142 16.519 11.2316 16.519C9.64898 16.519 8.23422 16.2313 6.98731 15.6558C5.7524 15.0803 4.78125 14.283 4.07387 13.2639C3.37848 12.2328 3.03079 11.0578 3.03079 9.73898C3.03079 8.18035 3.38448 6.86151 4.09185 5.78245C4.79923 4.69141 5.76439 3.86414 6.98731 3.30063C8.22223 2.73713 9.625 2.45537 11.1956 2.45537C12.7902 2.45537 14.205 2.73713 15.4399 3.30063C16.6748 3.86414 17.64 4.69141 18.3354 5.78245C19.0307 6.86151 19.3784 8.18035 19.3784 9.73898ZM14.6306 9.93681C14.6306 9.19346 14.4927 8.54603 14.217 7.99451C13.9412 7.43101 13.5456 6.99339 13.03 6.68166C12.5265 6.36994 11.915 6.21407 11.1956 6.21407C10.5002 6.21407 9.90076 6.36394 9.3972 6.66368C8.89364 6.96342 8.50398 7.39504 8.22823 7.95854C7.95247 8.51006 7.81459 9.16948 7.81459 9.93681C7.81459 10.6921 7.95247 11.3516 8.22823 11.9151C8.50398 12.4786 8.89364 12.9222 9.3972 13.2459C9.91275 13.5576 10.5242 13.7135 11.2316 13.7135C11.939 13.7135 12.5444 13.5576 13.048 13.2459C13.5516 12.9222 13.9412 12.4786 14.217 11.9151C14.4927 11.3516 14.6306 10.6921 14.6306 9.93681Z"/>
</mask>
<path d="M18.8029 25.9967L17.7881 25.3058L17.7865 25.3082L18.8029 25.9967ZM15.6917 28.5325L16.1778 29.6599L16.1827 29.6577L15.6917 28.5325ZM6.75352 28.5325L6.26247 29.6578L6.27482 29.663L6.75352 28.5325ZM3.60628 25.9967L2.59145 26.6877L2.59568 26.6939L2.59998 26.7L3.60628 25.9967ZM3.10272 18.893L2.00455 18.3439L1.99871 18.3559L3.10272 18.893ZM4.93711 16.609L5.71299 17.5605L5.72165 17.5533L4.93711 16.609ZM7.70668 15.1342L8.07515 16.3054L8.08704 16.3016L7.70668 15.1342ZM15.6917 15.5299L15.1752 16.6438L15.1874 16.6493L15.6917 15.5299ZM18.8209 18.0657L17.8115 18.7645L17.8151 18.7697L18.8209 18.0657ZM14.6666 19.3965L13.577 19.9623L13.5835 19.9749L13.5904 19.9874L14.6666 19.3965ZM9.09147 17.9578L8.49158 16.8865L8.48235 16.8918L9.09147 17.9578ZM7.70668 19.3965L6.62568 18.8144L6.62164 18.8221L7.70668 19.3965ZM7.70668 23.7667L6.62164 24.3411L6.62841 24.3539L6.63549 24.3665L7.70668 23.7667ZM14.6846 23.7667L13.5995 23.1922L13.5953 23.2003L14.6846 23.7667ZM18.3354 13.2639L19.3495 13.9559L19.3532 13.9504L18.3354 13.2639ZM15.4399 15.6558L14.9213 14.543L14.9171 14.5449L15.4399 15.6558ZM6.98731 15.6558L6.46872 16.7686L6.47283 16.7705L6.98731 15.6558ZM4.07387 13.2639L3.056 13.9504L3.0606 13.9572L3.0653 13.964L4.07387 13.2639ZM4.09185 5.78245L5.11863 6.45556L5.12201 6.45035L4.09185 5.78245ZM6.98731 3.30063L6.47764 2.18369L6.47352 2.18559L6.98731 3.30063ZM18.3354 5.78245L17.3 6.44233L17.3034 6.44751L18.3354 5.78245ZM14.217 7.99451L13.1142 8.53418L13.1189 8.54357L14.217 7.99451ZM13.03 6.68166L12.3838 7.72561L12.3948 7.73227L13.03 6.68166ZM8.22823 7.95854L9.32637 8.50762L9.33099 8.49819L8.22823 7.95854ZM9.3972 13.2459L8.7333 14.2786L8.7475 14.2878L8.76195 14.2965L9.3972 13.2459ZM13.048 13.2459L13.6942 14.2898L13.7031 14.2843L13.7119 14.2786L13.048 13.2459ZM19.9539 21.8603H18.7262C18.7262 23.2936 18.3914 24.4197 17.7881 25.3058L18.8029 25.9967L19.8178 26.6877C20.7491 25.3198 21.1817 23.6882 21.1817 21.8603H19.9539ZM18.8029 25.9967L17.7865 25.3082C17.1705 26.2175 16.3218 26.918 15.2007 27.4072L15.6917 28.5325L16.1827 29.6577C17.6993 28.996 18.9248 28.0059 19.8194 26.6853L18.8029 25.9967ZM15.6917 28.5325L15.2056 27.4051C14.0762 27.8921 12.7592 28.15 11.2316 28.15V29.3778V30.6055C13.0371 30.6055 14.6935 30.2999 16.1778 29.6599L15.6917 28.5325ZM11.2316 29.3778V28.15C9.71784 28.15 8.39123 27.8927 7.23222 27.4019L6.75352 28.5325L6.27482 29.663C7.77747 30.2993 9.43624 30.6055 11.2316 30.6055V29.3778ZM6.75352 28.5325L7.24454 27.4072C6.12055 26.9168 5.25469 26.2121 4.61258 25.2934L3.60628 25.9967L2.59998 26.7C3.5165 28.0114 4.7488 28.9972 6.2625 29.6577L6.75352 28.5325ZM3.60628 25.9967L4.62112 25.3058C4.01781 24.4197 3.68301 23.2936 3.68301 21.8603H2.45529H1.22757C1.22757 23.6882 1.6601 25.3198 2.59145 26.6877L3.60628 25.9967ZM2.45529 21.8603H3.68301C3.68301 20.9355 3.86481 20.1329 4.20673 19.43L3.10272 18.893L1.99871 18.3559C1.47739 19.4275 1.22757 20.6031 1.22757 21.8603H2.45529ZM3.10272 18.893L4.20083 19.442C4.56563 18.7124 5.06643 18.0876 5.71296 17.5605L4.93711 16.609L4.16127 15.6574C3.24916 16.4012 2.52704 17.299 2.00461 18.3439L3.10272 18.893ZM4.93711 16.609L5.72165 17.5533C6.36614 17.0179 7.14431 16.5982 8.07513 16.3054L7.70668 15.1342L7.33824 13.9631C6.13493 14.3417 5.06672 14.9052 4.15257 15.6646L4.93711 16.609ZM7.70668 15.1342L8.08704 16.3016C9.01734 15.9984 10.0504 15.8404 11.1956 15.8404V14.6127V13.385C9.82308 13.385 8.53015 13.5747 7.32632 13.9669L7.70668 15.1342ZM11.1956 14.6127V15.8404C12.7233 15.8404 14.0414 16.1181 15.1753 16.6437L15.6917 15.5299L16.2081 14.4161C14.7042 13.7188 13.025 13.385 11.1956 13.385V14.6127ZM15.6917 15.5299L15.1874 16.6493C16.3358 17.1666 17.1957 17.875 17.8115 18.7645L18.8209 18.0657L19.8304 17.3668C18.9355 16.0743 17.7093 15.0922 16.1959 14.4105L15.6917 15.5299ZM18.8209 18.0657L17.8151 18.7697C18.4114 19.6216 18.7262 20.6348 18.7262 21.8603H19.9539H21.1817C21.1817 20.1845 20.7411 18.6679 19.8267 17.3616L18.8209 18.0657ZM15.1701 21.5726H16.3979C16.3979 20.5686 16.1962 19.6316 15.7428 18.8057L14.6666 19.3965L13.5904 19.9874C13.8083 20.3843 13.9424 20.8981 13.9424 21.5726H15.1701ZM14.6666 19.3965L15.7562 18.8308C15.3247 17.9997 14.6951 17.3421 13.8817 16.8866L13.2818 17.9578L12.6819 19.029C13.0674 19.2448 13.3611 19.5464 13.577 19.9623L14.6666 19.3965ZM13.2818 17.9578L13.8817 16.8866C13.0727 16.4336 12.1648 16.2265 11.1956 16.2265V17.4542V18.6819C11.8091 18.6819 12.2919 18.8106 12.6819 19.029L13.2818 17.9578ZM11.1956 17.4542V16.2265C10.218 16.2265 9.30321 16.4321 8.4916 16.8866L9.09147 17.9578L9.69134 19.029C10.0787 18.8121 10.5666 18.6819 11.1956 18.6819V17.4542ZM9.09147 17.9578L8.48235 16.8918C7.6859 17.3469 7.06502 17.9986 6.62571 18.8144L7.70668 19.3965L8.78766 19.9786C9.01976 19.5475 9.32207 19.24 9.70059 19.0237L9.09147 17.9578ZM7.70668 19.3965L6.62164 18.8221C6.18627 19.6444 5.99339 20.5753 5.99339 21.5726H7.22111H8.44883C8.44883 20.8913 8.57966 20.3715 8.79173 19.9709L7.70668 19.3965ZM7.22111 21.5726H5.99339C5.99339 22.5786 6.18503 23.5164 6.62164 24.3411L7.70668 23.7667L8.79173 23.1922C8.5809 22.794 8.44883 22.2691 8.44883 21.5726H7.22111ZM7.70668 23.7667L6.63549 24.3665C7.08394 25.1673 7.71991 25.7964 8.5261 26.2317L9.10945 25.1515L9.6928 24.0712C9.30005 23.8591 9.00084 23.5649 8.77788 23.1668L7.70668 23.7667ZM9.10945 25.1515L8.5261 26.2317C9.33689 26.6696 10.2525 26.8648 11.2316 26.8648V25.637V24.4093C10.5801 24.4093 10.081 24.2808 9.6928 24.0712L9.10945 25.1515ZM11.2316 25.637V26.8648C12.2097 26.8648 13.1241 26.6699 13.9282 26.2267L13.3357 25.1515L12.7432 24.0762C12.3725 24.2805 11.884 24.4093 11.2316 24.4093V25.637ZM13.3357 25.1515L13.9282 26.2267C14.7295 25.7852 15.3512 25.1458 15.7738 24.3331L14.6846 23.7667L13.5953 23.2003C13.3945 23.5865 13.1169 23.8703 12.7432 24.0762L13.3357 25.1515ZM14.6846 23.7667L15.7696 24.3411C16.2062 23.5164 16.3979 22.5786 16.3979 21.5726H15.1701H13.9424C13.9424 22.2691 13.8103 22.794 13.5995 23.1922L14.6846 23.7667ZM19.3784 9.73898H18.1507C18.1507 10.8288 17.8676 11.7617 17.3175 12.5774L18.3354 13.2639L19.3532 13.9504C20.1939 12.7039 20.6062 11.2869 20.6062 9.73898H19.3784ZM18.3354 13.2639L17.3212 12.5719C16.7629 13.3901 15.9777 14.0507 14.9213 14.543L15.4399 15.6558L15.9585 16.7686C17.3719 16.1099 18.517 15.1758 19.3495 13.9559L18.3354 13.2639ZM15.4399 15.6558L14.9171 14.5449C13.8834 15.0314 12.6642 15.2913 11.2316 15.2913V16.519V17.7468C12.9643 17.7468 14.5505 17.4312 15.9627 16.7667L15.4399 15.6558ZM11.2316 16.519V15.2913C9.79965 15.2913 8.56458 15.0316 7.5018 14.5411L6.98731 15.6558L6.47283 16.7705C7.90386 17.431 9.49831 17.7468 11.2316 17.7468V16.519ZM6.98731 15.6558L7.50591 14.543C6.44806 14.05 5.65395 13.3872 5.08244 12.5638L4.07387 13.2639L3.0653 13.964C3.90855 15.1788 5.05673 16.1106 6.46872 16.7686L6.98731 15.6558ZM4.07387 13.2639L5.09174 12.5774C4.54158 11.7617 4.25851 10.8288 4.25851 9.73898H3.03079H1.80306C1.80306 11.2869 2.21538 12.7039 3.056 13.9504L4.07387 13.2639ZM3.03079 9.73898H4.25851C4.25851 8.36921 4.56744 7.29632 5.11862 6.45555L4.09185 5.78245L3.06509 5.10935C2.20151 6.42669 1.80306 7.99149 1.80306 9.73898H3.03079ZM4.09185 5.78245L5.12201 6.45035C5.69838 5.56137 6.48124 4.88561 7.50111 4.41567L6.98731 3.30063L6.47352 2.18559C5.04754 2.84266 3.90009 3.82145 3.0617 5.11455L4.09185 5.78245ZM6.98731 3.30063L7.49698 4.41756C8.54866 3.93767 9.77339 3.6831 11.1956 3.6831V2.45537V1.22765C9.47661 1.22765 7.8958 1.53658 6.47765 2.1837L6.98731 3.30063ZM11.1956 2.45537V3.6831C12.6448 3.6831 13.8809 3.93872 14.9302 4.41756L15.4399 3.30063L15.9496 2.1837C14.5291 1.53553 12.9357 1.22765 11.1956 1.22765V2.45537ZM15.4399 3.30063L14.9302 4.41756C15.9606 4.88775 16.7385 5.56128 17.3 6.44232L18.3354 5.78245L19.3707 5.12258C18.5414 3.82154 17.389 2.84052 15.9496 2.1837L15.4399 3.30063ZM18.3354 5.78245L17.3034 6.44751C17.8459 7.28945 18.1507 8.36533 18.1507 9.73898H19.3784H20.6062C20.6062 7.99537 20.2155 6.43357 19.3673 5.11739L18.3354 5.78245ZM14.6306 9.93681H15.8583C15.8583 9.04158 15.6918 8.199 15.3151 7.44546L14.217 7.99451L13.1189 8.54357C13.2936 8.89306 13.4029 9.34534 13.4029 9.93681H14.6306ZM14.217 7.99451L15.3197 7.45486C14.9449 6.68892 14.3911 6.06991 13.6653 5.63106L13.03 6.68166L12.3948 7.73227C12.7001 7.91687 12.9375 8.1731 13.1142 8.53416L14.217 7.99451ZM13.03 6.68166L13.6762 5.63777C12.9406 5.18238 12.0941 4.98635 11.1956 4.98635V6.21408V7.4418C11.7359 7.4418 12.1123 7.55749 12.3838 7.72555L13.03 6.68166ZM11.1956 6.21408V4.98635C10.3207 4.98635 9.49553 5.17639 8.76924 5.60871L9.3972 6.66368L10.0252 7.71865C10.306 7.5515 10.6797 7.4418 11.1956 7.4418V6.21408ZM9.3972 6.66368L8.76924 5.60871C8.04608 6.03916 7.49832 6.65697 7.12546 7.4189L8.22823 7.95854L9.33099 8.49819C9.50964 8.13311 9.7412 7.88767 10.0252 7.71865L9.3972 6.66368ZM8.22823 7.95854L7.13012 7.40949C6.75084 8.16804 6.58687 9.02446 6.58687 9.93681H7.81459H9.04231C9.04231 9.3145 9.15409 8.85208 9.32633 8.5076L8.22823 7.95854ZM7.81459 9.93681H6.58687C6.58687 10.8415 6.75239 11.6924 7.12546 12.4547L8.22823 11.9151L9.33099 11.3754C9.15254 11.0108 9.04231 10.5428 9.04231 9.93681H7.81459ZM8.22823 11.9151L7.12546 12.4547C7.49481 13.2095 8.03194 13.8278 8.7333 14.2786L9.3972 13.2459L10.0611 12.2132C9.75534 12.0166 9.51316 11.7477 9.33099 11.3754L8.22823 11.9151ZM9.3972 13.2459L8.76195 14.2965C9.5003 14.743 10.3397 14.9412 11.2316 14.9412V13.7135V12.4858C10.7087 12.4858 10.3252 12.3723 10.0324 12.1953L9.3972 13.2459ZM11.2316 13.7135V14.9412C12.1225 14.9412 12.9617 14.7433 13.6942 14.2898L13.048 13.2459L12.4018 12.202C12.1272 12.372 11.7554 12.4858 11.2316 12.4858V13.7135ZM13.048 13.2459L13.7119 14.2786C14.4133 13.8278 14.9504 13.2095 15.3197 12.4547L14.217 11.9151L13.1142 11.3754C12.932 11.7477 12.6899 12.0166 12.3841 12.2132L13.048 13.2459ZM14.217 11.9151L15.3197 12.4547C15.6928 11.6924 15.8583 10.8415 15.8583 9.93681H14.6306H13.4029C13.4029 10.5428 13.2927 11.0108 13.1142 11.3754L14.217 11.9151Z" fill="#FFE600" mask="url(#path-1-outside-1_315_104067)"/>
</g>
<mask id="path-3-outside-2_315_104067" maskUnits="userSpaceOnUse" x="1.73438" y="1.01807" width="19" height="29" fill="black">
<rect fill="white" x="1.73438" y="1.01807" width="19" height="29"/>
<path d="M19.9539 21.8603C19.9539 23.4909 19.5703 24.8697 18.8029 25.9967C18.0476 27.1117 17.0105 27.957 15.6917 28.5325C14.3848 29.096 12.8981 29.3778 11.2316 29.3778C9.57704 29.3778 8.08435 29.096 6.75352 28.5325C5.43468 27.957 4.3856 27.1117 3.60628 25.9967C2.83895 24.8697 2.45529 23.4909 2.45529 21.8603C2.45529 20.7693 2.6711 19.7802 3.10272 18.893C3.54633 18.0057 4.1578 17.2444 4.93711 16.609C5.71643 15.9615 6.63962 15.47 7.70668 15.1342C8.77375 14.7866 9.93673 14.6127 11.1956 14.6127C12.8741 14.6127 14.3728 14.9184 15.6917 15.5299C17.0225 16.1294 18.0656 16.9746 18.8209 18.0657C19.5763 19.1447 19.9539 20.4096 19.9539 21.8603ZM15.1701 21.5726C15.1701 20.7333 15.0023 20.008 14.6666 19.3965C14.3429 18.7731 13.8813 18.2935 13.2818 17.9578C12.6823 17.6221 11.9869 17.4542 11.1956 17.4542C10.3923 17.4542 9.69094 17.6221 9.09147 17.9578C8.50398 18.2935 8.04239 18.7731 7.70668 19.3965C7.38297 20.008 7.22111 20.7333 7.22111 21.5726C7.22111 22.4239 7.38297 23.1552 7.70668 23.7667C8.04239 24.3661 8.50998 24.8277 9.10945 25.1515C9.70893 25.4752 10.4163 25.637 11.2316 25.637C12.0469 25.637 12.7483 25.4752 13.3357 25.1515C13.9232 24.8277 14.3728 24.3661 14.6846 23.7667C15.0083 23.1552 15.1701 22.4239 15.1701 21.5726ZM19.3784 9.73898C19.3784 11.0578 19.0307 12.2328 18.3354 13.2639C17.64 14.283 16.6748 15.0803 15.4399 15.6558C14.217 16.2313 12.8142 16.519 11.2316 16.519C9.64898 16.519 8.23422 16.2313 6.98731 15.6558C5.7524 15.0803 4.78125 14.283 4.07387 13.2639C3.37848 12.2328 3.03079 11.0578 3.03079 9.73898C3.03079 8.18035 3.38448 6.86151 4.09185 5.78245C4.79923 4.69141 5.76439 3.86414 6.98731 3.30063C8.22223 2.73713 9.625 2.45537 11.1956 2.45537C12.7902 2.45537 14.205 2.73713 15.4399 3.30063C16.6748 3.86414 17.64 4.69141 18.3354 5.78245C19.0307 6.86151 19.3784 8.18035 19.3784 9.73898ZM14.6306 9.93681C14.6306 9.19346 14.4927 8.54603 14.217 7.99451C13.9412 7.43101 13.5456 6.99339 13.03 6.68166C12.5265 6.36994 11.915 6.21407 11.1956 6.21407C10.5002 6.21407 9.90076 6.36394 9.3972 6.66368C8.89364 6.96342 8.50398 7.39504 8.22823 7.95854C7.95247 8.51006 7.81459 9.16948 7.81459 9.93681C7.81459 10.6921 7.95247 11.3516 8.22823 11.9151C8.50398 12.4786 8.89364 12.9222 9.3972 13.2459C9.91275 13.5576 10.5242 13.7135 11.2316 13.7135C11.939 13.7135 12.5444 13.5576 13.048 13.2459C13.5516 12.9222 13.9412 12.4786 14.217 11.9151C14.4927 11.3516 14.6306 10.6921 14.6306 9.93681Z"/>
</mask>
<path d="M19.9539 21.8603C19.9539 23.4909 19.5703 24.8697 18.8029 25.9967C18.0476 27.1117 17.0105 27.957 15.6917 28.5325C14.3848 29.096 12.8981 29.3778 11.2316 29.3778C9.57704 29.3778 8.08435 29.096 6.75352 28.5325C5.43468 27.957 4.3856 27.1117 3.60628 25.9967C2.83895 24.8697 2.45529 23.4909 2.45529 21.8603C2.45529 20.7693 2.6711 19.7802 3.10272 18.893C3.54633 18.0057 4.1578 17.2444 4.93711 16.609C5.71643 15.9615 6.63962 15.47 7.70668 15.1342C8.77375 14.7866 9.93673 14.6127 11.1956 14.6127C12.8741 14.6127 14.3728 14.9184 15.6917 15.5299C17.0225 16.1294 18.0656 16.9746 18.8209 18.0657C19.5763 19.1447 19.9539 20.4096 19.9539 21.8603ZM15.1701 21.5726C15.1701 20.7333 15.0023 20.008 14.6666 19.3965C14.3429 18.7731 13.8813 18.2935 13.2818 17.9578C12.6823 17.6221 11.9869 17.4542 11.1956 17.4542C10.3923 17.4542 9.69094 17.6221 9.09147 17.9578C8.50398 18.2935 8.04239 18.7731 7.70668 19.3965C7.38297 20.008 7.22111 20.7333 7.22111 21.5726C7.22111 22.4239 7.38297 23.1552 7.70668 23.7667C8.04239 24.3661 8.50998 24.8277 9.10945 25.1515C9.70893 25.4752 10.4163 25.637 11.2316 25.637C12.0469 25.637 12.7483 25.4752 13.3357 25.1515C13.9232 24.8277 14.3728 24.3661 14.6846 23.7667C15.0083 23.1552 15.1701 22.4239 15.1701 21.5726ZM19.3784 9.73898C19.3784 11.0578 19.0307 12.2328 18.3354 13.2639C17.64 14.283 16.6748 15.0803 15.4399 15.6558C14.217 16.2313 12.8142 16.519 11.2316 16.519C9.64898 16.519 8.23422 16.2313 6.98731 15.6558C5.7524 15.0803 4.78125 14.283 4.07387 13.2639C3.37848 12.2328 3.03079 11.0578 3.03079 9.73898C3.03079 8.18035 3.38448 6.86151 4.09185 5.78245C4.79923 4.69141 5.76439 3.86414 6.98731 3.30063C8.22223 2.73713 9.625 2.45537 11.1956 2.45537C12.7902 2.45537 14.205 2.73713 15.4399 3.30063C16.6748 3.86414 17.64 4.69141 18.3354 5.78245C19.0307 6.86151 19.3784 8.18035 19.3784 9.73898ZM14.6306 9.93681C14.6306 9.19346 14.4927 8.54603 14.217 7.99451C13.9412 7.43101 13.5456 6.99339 13.03 6.68166C12.5265 6.36994 11.915 6.21407 11.1956 6.21407C10.5002 6.21407 9.90076 6.36394 9.3972 6.66368C8.89364 6.96342 8.50398 7.39504 8.22823 7.95854C7.95247 8.51006 7.81459 9.16948 7.81459 9.93681C7.81459 10.6921 7.95247 11.3516 8.22823 11.9151C8.50398 12.4786 8.89364 12.9222 9.3972 13.2459C9.91275 13.5576 10.5242 13.7135 11.2316 13.7135C11.939 13.7135 12.5444 13.5576 13.048 13.2459C13.5516 12.9222 13.9412 12.4786 14.217 11.9151C14.4927 11.3516 14.6306 10.6921 14.6306 9.93681Z" fill="#7100F1"/>
<path d="M19.9539 21.8603C19.9539 23.4909 19.5703 24.8697 18.8029 25.9967C18.0476 27.1117 17.0105 27.957 15.6917 28.5325C14.3848 29.096 12.8981 29.3778 11.2316 29.3778C9.57704 29.3778 8.08435 29.096 6.75352 28.5325C5.43468 27.957 4.3856 27.1117 3.60628 25.9967C2.83895 24.8697 2.45529 23.4909 2.45529 21.8603C2.45529 20.7693 2.6711 19.7802 3.10272 18.893C3.54633 18.0057 4.1578 17.2444 4.93711 16.609C5.71643 15.9615 6.63962 15.47 7.70668 15.1342C8.77375 14.7866 9.93673 14.6127 11.1956 14.6127C12.8741 14.6127 14.3728 14.9184 15.6917 15.5299C17.0225 16.1294 18.0656 16.9746 18.8209 18.0657C19.5763 19.1447 19.9539 20.4096 19.9539 21.8603ZM15.1701 21.5726C15.1701 20.7333 15.0023 20.008 14.6666 19.3965C14.3429 18.7731 13.8813 18.2935 13.2818 17.9578C12.6823 17.6221 11.9869 17.4542 11.1956 17.4542C10.3923 17.4542 9.69094 17.6221 9.09147 17.9578C8.50398 18.2935 8.04239 18.7731 7.70668 19.3965C7.38297 20.008 7.22111 20.7333 7.22111 21.5726C7.22111 22.4239 7.38297 23.1552 7.70668 23.7667C8.04239 24.3661 8.50998 24.8277 9.10945 25.1515C9.70893 25.4752 10.4163 25.637 11.2316 25.637C12.0469 25.637 12.7483 25.4752 13.3357 25.1515C13.9232 24.8277 14.3728 24.3661 14.6846 23.7667C15.0083 23.1552 15.1701 22.4239 15.1701 21.5726ZM19.3784 9.73898C19.3784 11.0578 19.0307 12.2328 18.3354 13.2639C17.64 14.283 16.6748 15.0803 15.4399 15.6558C14.217 16.2313 12.8142 16.519 11.2316 16.519C9.64898 16.519 8.23422 16.2313 6.98731 15.6558C5.7524 15.0803 4.78125 14.283 4.07387 13.2639C3.37848 12.2328 3.03079 11.0578 3.03079 9.73898C3.03079 8.18035 3.38448 6.86151 4.09185 5.78245C4.79923 4.69141 5.76439 3.86414 6.98731 3.30063C8.22223 2.73713 9.625 2.45537 11.1956 2.45537C12.7902 2.45537 14.205 2.73713 15.4399 3.30063C16.6748 3.86414 17.64 4.69141 18.3354 5.78245C19.0307 6.86151 19.3784 8.18035 19.3784 9.73898ZM14.6306 9.93681C14.6306 9.19346 14.4927 8.54603 14.217 7.99451C13.9412 7.43101 13.5456 6.99339 13.03 6.68166C12.5265 6.36994 11.915 6.21407 11.1956 6.21407C10.5002 6.21407 9.90076 6.36394 9.3972 6.66368C8.89364 6.96342 8.50398 7.39504 8.22823 7.95854C7.95247 8.51006 7.81459 9.16948 7.81459 9.93681C7.81459 10.6921 7.95247 11.3516 8.22823 11.9151C8.50398 12.4786 8.89364 12.9222 9.3972 13.2459C9.91275 13.5576 10.5242 13.7135 11.2316 13.7135C11.939 13.7135 12.5444 13.5576 13.048 13.2459C13.5516 12.9222 13.9412 12.4786 14.217 11.9151C14.4927 11.3516 14.6306 10.6921 14.6306 9.93681Z" fill="url(#paint0_linear_315_104067)"/>
<path d="M19.9539 21.8603C19.9539 23.4909 19.5703 24.8697 18.8029 25.9967C18.0476 27.1117 17.0105 27.957 15.6917 28.5325C14.3848 29.096 12.8981 29.3778 11.2316 29.3778C9.57704 29.3778 8.08435 29.096 6.75352 28.5325C5.43468 27.957 4.3856 27.1117 3.60628 25.9967C2.83895 24.8697 2.45529 23.4909 2.45529 21.8603C2.45529 20.7693 2.6711 19.7802 3.10272 18.893C3.54633 18.0057 4.1578 17.2444 4.93711 16.609C5.71643 15.9615 6.63962 15.47 7.70668 15.1342C8.77375 14.7866 9.93673 14.6127 11.1956 14.6127C12.8741 14.6127 14.3728 14.9184 15.6917 15.5299C17.0225 16.1294 18.0656 16.9746 18.8209 18.0657C19.5763 19.1447 19.9539 20.4096 19.9539 21.8603ZM15.1701 21.5726C15.1701 20.7333 15.0023 20.008 14.6666 19.3965C14.3429 18.7731 13.8813 18.2935 13.2818 17.9578C12.6823 17.6221 11.9869 17.4542 11.1956 17.4542C10.3923 17.4542 9.69094 17.6221 9.09147 17.9578C8.50398 18.2935 8.04239 18.7731 7.70668 19.3965C7.38297 20.008 7.22111 20.7333 7.22111 21.5726C7.22111 22.4239 7.38297 23.1552 7.70668 23.7667C8.04239 24.3661 8.50998 24.8277 9.10945 25.1515C9.70893 25.4752 10.4163 25.637 11.2316 25.637C12.0469 25.637 12.7483 25.4752 13.3357 25.1515C13.9232 24.8277 14.3728 24.3661 14.6846 23.7667C15.0083 23.1552 15.1701 22.4239 15.1701 21.5726ZM19.3784 9.73898C19.3784 11.0578 19.0307 12.2328 18.3354 13.2639C17.64 14.283 16.6748 15.0803 15.4399 15.6558C14.217 16.2313 12.8142 16.519 11.2316 16.519C9.64898 16.519 8.23422 16.2313 6.98731 15.6558C5.7524 15.0803 4.78125 14.283 4.07387 13.2639C3.37848 12.2328 3.03079 11.0578 3.03079 9.73898C3.03079 8.18035 3.38448 6.86151 4.09185 5.78245C4.79923 4.69141 5.76439 3.86414 6.98731 3.30063C8.22223 2.73713 9.625 2.45537 11.1956 2.45537C12.7902 2.45537 14.205 2.73713 15.4399 3.30063C16.6748 3.86414 17.64 4.69141 18.3354 5.78245C19.0307 6.86151 19.3784 8.18035 19.3784 9.73898ZM14.6306 9.93681C14.6306 9.19346 14.4927 8.54603 14.217 7.99451C13.9412 7.43101 13.5456 6.99339 13.03 6.68166C12.5265 6.36994 11.915 6.21407 11.1956 6.21407C10.5002 6.21407 9.90076 6.36394 9.3972 6.66368C8.89364 6.96342 8.50398 7.39504 8.22823 7.95854C7.95247 8.51006 7.81459 9.16948 7.81459 9.93681C7.81459 10.6921 7.95247 11.3516 8.22823 11.9151C8.50398 12.4786 8.89364 12.9222 9.3972 13.2459C9.91275 13.5576 10.5242 13.7135 11.2316 13.7135C11.939 13.7135 12.5444 13.5576 13.048 13.2459C13.5516 12.9222 13.9412 12.4786 14.217 11.9151C14.4927 11.3516 14.6306 10.6921 14.6306 9.93681Z" fill="url(#paint1_linear_315_104067)"/>
<path d="M18.8029 25.9967L18.2955 25.6512L18.2947 25.6524L18.8029 25.9967ZM15.6917 28.5325L15.9347 29.0962L15.9372 29.0951L15.6917 28.5325ZM6.75352 28.5325L6.50799 29.0952L6.51417 29.0978L6.75352 28.5325ZM3.60628 25.9967L3.09883 26.3422L3.10313 26.3484L3.60628 25.9967ZM3.10272 18.893L2.55364 18.6184L2.55072 18.6244L3.10272 18.893ZM4.93711 16.609L5.32505 17.0847L5.32938 17.0811L4.93711 16.609ZM7.70668 15.1342L7.89091 15.7198L7.89686 15.7179L7.70668 15.1342ZM15.6917 15.5299L15.4335 16.0869L15.4396 16.0896L15.6917 15.5299ZM18.8209 18.0657L18.3162 18.4151L18.318 18.4177L18.8209 18.0657ZM14.6666 19.3965L14.1218 19.6794L14.1251 19.6857L14.1285 19.6919L14.6666 19.3965ZM9.09147 17.9578L8.79152 17.4222L8.78691 17.4248L9.09147 17.9578ZM7.70668 19.3965L7.16618 19.1055L7.16416 19.1093L7.70668 19.3965ZM7.70668 23.7667L7.16416 24.0539L7.16755 24.0603L7.17108 24.0666L7.70668 23.7667ZM14.6846 23.7667L14.142 23.4794L14.1399 23.4835L14.6846 23.7667ZM18.3354 13.2639L18.8424 13.6099L18.8443 13.6071L18.3354 13.2639ZM15.4399 15.6558L15.1806 15.0994L15.1785 15.1004L15.4399 15.6558ZM6.98731 15.6558L6.72801 16.2122L6.73007 16.2132L6.98731 15.6558ZM4.07387 13.2639L3.56489 13.6072L3.56959 13.6139L4.07387 13.2639ZM4.09185 5.78245L4.60524 6.11901L4.60693 6.1164L4.09185 5.78245ZM6.98731 3.30063L6.73248 2.74216L6.73042 2.74311L6.98731 3.30063ZM18.3354 5.78245L17.8177 6.11239L17.8194 6.11498L18.3354 5.78245ZM14.217 7.99451L13.6656 8.26435L13.6679 8.26904L14.217 7.99451ZM13.03 6.68166L12.7069 7.20364L12.7124 7.20696L13.03 6.68166ZM8.22823 7.95854L8.7773 8.23308L8.77961 8.22837L8.22823 7.95854ZM9.3972 13.2459L9.06525 13.7623L9.07235 13.7668L9.07958 13.7712L9.3972 13.2459ZM13.048 13.2459L13.3712 13.7679L13.3799 13.7623L13.048 13.2459ZM19.9539 21.8603H19.3401C19.3401 23.3923 18.9808 24.6447 18.2955 25.6512L18.8029 25.9967L19.3104 26.3422C20.1597 25.0947 20.5678 23.5896 20.5678 21.8603H19.9539ZM18.8029 25.9967L18.2947 25.6524C17.609 26.6646 16.6661 27.4375 15.4462 27.9699L15.6917 28.5325L15.9372 29.0951C17.3549 28.4765 18.4862 27.5588 19.3112 26.341L18.8029 25.9967ZM15.6917 28.5325L15.4486 27.9688C14.2305 28.494 12.8287 28.7639 11.2316 28.7639V29.3778V29.9916C12.9676 29.9916 14.5391 29.698 15.9347 29.0962L15.6917 28.5325ZM11.2316 29.3778V28.7639C9.64744 28.7639 8.23779 28.4943 6.99287 27.9672L6.75352 28.5325L6.51417 29.0978C7.93091 29.6977 9.50664 29.9916 11.2316 29.9916V29.3778ZM6.75352 28.5325L6.99903 27.9699C5.77761 27.4369 4.82015 26.6619 4.10943 25.6451L3.60628 25.9967L3.10313 26.3484C3.95105 27.5616 5.09174 28.4771 6.50801 29.0951L6.75352 28.5325ZM3.60628 25.9967L4.1137 25.6512C3.42838 24.6447 3.06915 23.3923 3.06915 21.8603H2.45529H1.84143C1.84143 23.5896 2.24953 25.0947 3.09886 26.3422L3.60628 25.9967ZM2.45529 21.8603H3.06915C3.06915 20.8524 3.26796 19.9565 3.65473 19.1615L3.10272 18.893L2.55072 18.6244C2.07425 19.6038 1.84143 20.6862 1.84143 21.8603H2.45529ZM3.10272 18.893L3.65178 19.1675C4.05598 18.3591 4.61211 17.666 5.32504 17.0847L4.93711 16.609L4.54919 16.1332C3.70348 16.8228 3.03669 17.6524 2.55367 18.6184L3.10272 18.893ZM4.93711 16.609L5.32938 17.0811C6.04128 16.4897 6.89196 16.0341 7.89091 15.7198L7.70668 15.1342L7.52246 14.5487C6.38728 14.9058 5.39158 15.4333 4.54484 16.1368L4.93711 16.609ZM7.70668 15.1342L7.89686 15.7179C8.89554 15.3925 9.99355 15.2266 11.1956 15.2266V14.6127V13.9988C9.87991 13.9988 8.65195 14.1806 7.5165 14.5506L7.70668 15.1342ZM11.1956 14.6127V15.2266C12.7987 15.2266 14.2071 15.5182 15.4335 16.0868L15.6917 15.5299L15.9499 14.973C14.5385 14.3186 12.9496 13.9988 11.1956 13.9988V14.6127ZM15.6917 15.5299L15.4396 16.0896C16.6791 16.648 17.6306 17.4248 18.3162 18.4151L18.8209 18.0657L19.3256 17.7163C18.5005 16.5245 17.3659 15.6108 15.9438 14.9702L15.6917 15.5299ZM18.8209 18.0657L18.318 18.4177C18.9938 19.3831 19.3401 20.5222 19.3401 21.8603H19.9539H20.5678C20.5678 20.297 20.1587 18.9063 19.3238 17.7136L18.8209 18.0657ZM15.1701 21.5726H15.784C15.784 20.651 15.5993 19.8198 15.2047 19.1011L14.6666 19.3965L14.1285 19.6919C14.4053 20.1962 14.5563 20.8157 14.5563 21.5726H15.1701ZM14.6666 19.3965L15.2114 19.1136C14.8338 18.3864 14.2882 17.8178 13.5817 17.4222L13.2818 17.9578L12.9819 18.4934C13.4743 18.7692 13.852 19.1597 14.1218 19.6794L14.6666 19.3965ZM13.2818 17.9578L13.5817 17.4222C12.8775 17.0278 12.0758 16.8404 11.1956 16.8404V17.4542V18.0681C11.898 18.0681 12.4871 18.2163 12.9819 18.4934L13.2818 17.9578ZM11.1956 17.4542V16.8404C10.3052 16.8404 9.49707 17.0271 8.79153 17.4222L9.09147 17.9578L9.3914 18.4934C9.88481 18.2171 10.4795 18.0681 11.1956 18.0681V17.4542ZM9.09147 17.9578L8.78691 17.4248C8.09494 17.8202 7.5537 18.3858 7.1662 19.1055L7.70668 19.3965L8.24717 19.6875C8.53107 19.1603 8.91303 18.7668 9.39603 18.4908L9.09147 17.9578ZM7.70668 19.3965L7.16416 19.1093C6.78462 19.8262 6.60725 20.6543 6.60725 21.5726H7.22111H7.83497C7.83497 20.8123 7.98132 20.1897 8.24921 19.6837L7.70668 19.3965ZM7.22111 21.5726H6.60725C6.60725 22.5012 6.784 23.3358 7.16416 24.0539L7.70668 23.7667L8.24921 23.4795C7.98193 22.9746 7.83497 22.3465 7.83497 21.5726H7.22111ZM7.70668 23.7667L7.17108 24.0666C7.56316 24.7667 8.11494 25.3121 8.81778 25.6916L9.10945 25.1515L9.40113 24.6113C8.90501 24.3434 8.52161 23.9655 8.24228 23.4667L7.70668 23.7667ZM9.10945 25.1515L8.81778 25.6916C9.52291 26.0724 10.3344 26.2509 11.2316 26.2509V25.637V25.0232C10.4982 25.0232 9.89494 24.878 9.40113 24.6113L9.10945 25.1515ZM11.2316 25.637V26.2509C12.1283 26.2509 12.9362 26.0725 13.632 25.6891L13.3357 25.1515L13.0395 24.6138C12.5604 24.8778 11.9654 25.0232 11.2316 25.0232V25.637ZM13.3357 25.1515L13.632 25.6891C14.3264 25.3065 14.862 24.756 15.2292 24.0499L14.6846 23.7667L14.1399 23.4835C13.8836 23.9763 13.5201 24.349 13.0395 24.6138L13.3357 25.1515ZM14.6846 23.7667L15.2271 24.0539C15.6072 23.3358 15.784 22.5012 15.784 21.5726H15.1701H14.5563C14.5563 22.3465 14.4093 22.9746 14.142 23.4795L14.6846 23.7667ZM19.3784 9.73898H18.7646C18.7646 10.9433 18.4492 11.9972 17.8264 12.9207L18.3354 13.2639L18.8443 13.6071C19.6123 12.4684 19.9923 11.1723 19.9923 9.73898H19.3784ZM18.3354 13.2639L17.8283 12.9179C17.2014 13.8366 16.3262 14.5655 15.1806 15.0994L15.4399 15.6558L15.6992 16.2122C17.0234 15.5951 18.0785 14.7294 18.8424 13.6099L18.3354 13.2639ZM15.4399 15.6558L15.1785 15.1004C14.0502 15.6313 12.7392 15.9052 11.2316 15.9052V16.519V17.1329C12.8892 17.1329 14.3838 16.8312 15.7013 16.2112L15.4399 15.6558ZM11.2316 16.519V15.9052C9.72431 15.9052 8.3994 15.6314 7.24456 15.0984L6.98731 15.6558L6.73007 16.2132C8.06904 16.8311 9.57365 17.1329 11.2316 17.1329V16.519ZM6.98731 15.6558L7.24661 15.0994C6.10023 14.5651 5.2176 13.8351 4.57815 12.9139L4.07387 13.2639L3.56959 13.6139C4.3449 14.7309 5.40456 15.5954 6.72802 16.2122L6.98731 15.6558ZM4.07387 13.2639L4.58281 12.9207C3.96003 11.9972 3.64465 10.9433 3.64465 9.73898H3.03079H2.41692C2.41692 11.1723 2.79693 12.4684 3.56493 13.6071L4.07387 13.2639ZM3.03079 9.73898H3.64465C3.64465 8.27478 3.97596 7.07891 4.60524 6.119L4.09185 5.78245L3.57847 5.4459C2.79299 6.6441 2.41692 8.08592 2.41692 9.73898H3.03079ZM4.09185 5.78245L4.60693 6.1164C5.24881 5.12639 6.12281 4.37488 7.24421 3.85815L6.98731 3.30063L6.73042 2.74311C5.40596 3.3534 4.34966 4.25643 3.57678 5.4485L4.09185 5.78245ZM6.98731 3.30063L7.24215 3.8591C8.38545 3.3374 9.69919 3.06923 11.1956 3.06923V2.45537V1.84151C9.55081 1.84151 8.05901 2.13685 6.73248 2.74216L6.98731 3.30063ZM11.1956 2.45537V3.06923C12.7175 3.06923 14.0429 3.33792 15.1851 3.8591L15.4399 3.30063L15.6947 2.74216C14.367 2.13633 12.8629 1.84151 11.1956 1.84151V2.45537ZM15.4399 3.30063L15.1851 3.8591C16.3177 4.37594 17.1892 5.12635 17.8177 6.11239L18.3354 5.78245L18.853 5.45252C18.0907 4.25648 17.0319 3.35233 15.6947 2.74216L15.4399 3.30063ZM18.3354 5.78245L17.8194 6.11498C18.4383 7.07548 18.7646 8.27284 18.7646 9.73898H19.3784H19.9923C19.9923 8.08786 19.6231 6.64754 18.8514 5.44992L18.3354 5.78245ZM14.6306 9.93681H15.2445C15.2445 9.11752 15.0923 8.37251 14.766 7.71999L14.217 7.99451L13.6679 8.26904C13.8932 8.71955 14.0167 9.2694 14.0167 9.93681H14.6306ZM14.217 7.99451L14.7684 7.72469C14.4431 7.05996 13.9683 6.53165 13.3476 6.15636L13.03 6.68166L12.7124 7.20696C13.1228 7.45513 13.4394 7.80205 13.6656 8.26434L14.217 7.99451ZM13.03 6.68166L13.3531 6.15972C12.7335 5.77616 12.0046 5.60021 11.1956 5.60021V6.21408V6.82794C11.8254 6.82794 12.3194 6.96372 12.7069 7.20361L13.03 6.68166ZM11.1956 6.21408V5.60021C10.4105 5.60021 9.69815 5.77017 9.08322 6.13619L9.3972 6.66368L9.71118 7.19117C10.1034 6.95772 10.59 6.82794 11.1956 6.82794V6.21408ZM9.3972 6.66368L9.08322 6.13619C8.46986 6.50129 8.00115 7.026 7.67684 7.68872L8.22823 7.95854L8.77961 8.22837C9.00681 7.76407 9.31742 7.42555 9.71118 7.19117L9.3972 6.66368ZM8.22823 7.95854L7.67917 7.68402C7.35165 8.33905 7.20073 9.09697 7.20073 9.93681H7.81459H8.42845C8.42845 9.24199 8.55328 8.68107 8.77728 8.23307L8.22823 7.95854ZM7.81459 9.93681H7.20073C7.20073 10.7668 7.35243 11.522 7.67684 12.1849L8.22823 11.9151L8.77961 11.6452C8.5525 11.1812 8.42845 10.6175 8.42845 9.93681H7.81459ZM8.22823 11.9151L7.67684 12.1849C7.9994 12.844 8.46279 13.375 9.06525 13.7623L9.3972 13.2459L9.72915 12.7295C9.32449 12.4694 9.00857 12.1131 8.77961 11.6452L8.22823 11.9151ZM9.3972 13.2459L9.07958 13.7712C9.70652 14.1503 10.432 14.3274 11.2316 14.3274V13.7135V13.0996C10.6164 13.0996 10.119 12.965 9.71482 12.7206L9.3972 13.2459ZM11.2316 13.7135V14.3274C12.0307 14.3274 12.7531 14.1504 13.3711 13.7678L13.048 13.2459L12.7249 12.724C12.3358 12.9648 11.8472 13.0996 11.2316 13.0996V13.7135ZM13.048 13.2459L13.3799 13.7623C13.9824 13.375 14.4458 12.844 14.7684 12.1849L14.217 11.9151L13.6656 11.6452C13.4366 12.1131 13.1207 12.4694 12.716 12.7295L13.048 13.2459ZM14.217 11.9151L14.7684 12.1849C15.0928 11.522 15.2445 10.7668 15.2445 9.93681H14.6306H14.0167C14.0167 10.6175 13.8927 11.1812 13.6656 11.6452L14.217 11.9151Z" fill="#535353" mask="url(#path-3-outside-2_315_104067)"/>
<defs>
<filter id="filter0_d_315_104067" x="0.000792861" y="-0.000183702" width="22.4086" height="31.8334" filterUnits="userSpaceOnUse" color-interpolation-filters="sRGB">
<feFlood flood-opacity="0" result="BackgroundImageFix"/>
<feColorMatrix in="SourceAlpha" type="matrix" values="0 0 0 0 0 0 0 0 0 0 0 0 0 0 0 0 0 0 127 0" result="hardAlpha"/>
<feOffset/>
<feGaussianBlur stdDeviation="0.613861"/>
<feComposite in2="hardAlpha" operator="out"/>
<feColorMatrix type="matrix" values="0 0 0 0 1 0 0 0 0 0.901961 0 0 0 0 0 0 0 0 1 0"/>
<feBlend mode="normal" in2="BackgroundImageFix" result="effect1_dropShadow_315_104067"/>
<feBlend mode="normal" in="SourceGraphic" in2="effect1_dropShadow_315_104067" result="shape"/>
</filter>
<linearGradient id="paint0_linear_315_104067" x1="10.7344" y1="3.01807" x2="10.7344" y2="29.0181" gradientUnits="userSpaceOnUse">
<stop offset="0.0327765" stop-color="#007BFF"/>
<stop offset="0.208385" stop-color="#007BFF"/>
<stop offset="0.4375" stop-color="#007BFF"/>
<stop offset="0.707725" stop-color="#007BFF"/>
<stop offset="0.952043" stop-color="#007BFF"/>
</linearGradient>
<linearGradient id="paint1_linear_315_104067" x1="10.7344" y1="3.01807" x2="10.7344" y2="29.0181" gradientUnits="userSpaceOnUse">
<stop offset="0.0327765" stop-color="#007BFF"/>
<stop offset="0.208385" stop-color="#007BFF"/>
<stop offset="0.466648" stop-color="#C1F4FF"/>
<stop offset="0.707725" stop-color="#007BFF"/>
<stop offset="0.952043" stop-color="#007BFF"/>
</linearGradient>
</defs>
</svg>
