<svg width="20" height="31" viewBox="0 0 20 31" fill="none" xmlns="http://www.w3.org/2000/svg">
<g filter="url(#filter0_d_315_104063)">
<mask id="path-1-outside-1_315_104063" maskUnits="userSpaceOnUse" x="2" y="3" width="18" height="25" fill="black">
<rect fill="white" x="2" y="3" width="18" height="25"/>
<path d="M14.8438 4.0625H15.4062V7.39062H15.1406C13.8802 7.39062 12.7708 7.58333 11.8125 7.96875C10.8646 8.35417 10.0729 8.89583 9.4375 9.59375C8.8125 10.2812 8.33854 11.099 8.01562 12.0469C7.69271 12.9844 7.53125 14.0104 7.53125 15.125V18.8125C7.53125 19.6771 7.61979 20.4375 7.79688 21.0938C7.98438 21.7396 8.23958 22.2865 8.5625 22.7344C8.89583 23.1719 9.28125 23.5 9.71875 23.7188C10.1667 23.9375 10.6562 24.0469 11.1875 24.0469C11.7188 24.0469 12.1979 23.9375 12.625 23.7188C13.0521 23.5 13.4167 23.1927 13.7188 22.7969C14.0312 22.3906 14.2656 21.9167 14.4219 21.375C14.5885 20.8333 14.6719 20.2396 14.6719 19.5938C14.6719 18.9583 14.5938 18.3698 14.4375 17.8281C14.2812 17.2865 14.0521 16.8125 13.75 16.4062C13.4479 15.9896 13.0729 15.6719 12.625 15.4531C12.1875 15.224 11.6875 15.1094 11.125 15.1094C10.3958 15.1094 9.74479 15.2812 9.17188 15.625C8.59896 15.9583 8.14583 16.3958 7.8125 16.9375C7.47917 17.4792 7.29688 18.0521 7.26562 18.6562L5.875 17.9688C5.92708 17.0833 6.11458 16.2708 6.4375 15.5312C6.77083 14.7917 7.21354 14.1458 7.76562 13.5938C8.32812 13.0417 8.98958 12.6146 9.75 12.3125C10.5208 12.0104 11.375 11.8594 12.3125 11.8594C13.3958 11.8594 14.3438 12.0677 15.1562 12.4844C15.9688 12.8906 16.6406 13.4479 17.1719 14.1562C17.7135 14.8646 18.1198 15.6823 18.3906 16.6094C18.6615 17.526 18.7969 18.4948 18.7969 19.5156C18.7969 20.6094 18.6198 21.6302 18.2656 22.5781C17.9219 23.526 17.4219 24.3542 16.7656 25.0625C16.1094 25.7708 15.3177 26.3229 14.3906 26.7188C13.4635 27.1146 12.4219 27.3125 11.2656 27.3125C10.0469 27.3125 8.95312 27.0833 7.98438 26.625C7.02604 26.1667 6.20312 25.5312 5.51562 24.7188C4.82812 23.9062 4.30208 22.9583 3.9375 21.875C3.57292 20.7917 3.39062 19.6198 3.39062 18.3594V16.7031C3.39062 14.9219 3.63542 13.2656 4.125 11.7344C4.61458 10.2031 5.33854 8.86458 6.29688 7.71875C7.26562 6.5625 8.46354 5.66667 9.89062 5.03125C11.3177 4.38542 12.9688 4.0625 14.8438 4.0625Z"/>
</mask>
<path d="M14.8438 4.0625H15.4062V7.39062H15.1406C13.8802 7.39062 12.7708 7.58333 11.8125 7.96875C10.8646 8.35417 10.0729 8.89583 9.4375 9.59375C8.8125 10.2812 8.33854 11.099 8.01562 12.0469C7.69271 12.9844 7.53125 14.0104 7.53125 15.125V18.8125C7.53125 19.6771 7.61979 20.4375 7.79688 21.0938C7.98438 21.7396 8.23958 22.2865 8.5625 22.7344C8.89583 23.1719 9.28125 23.5 9.71875 23.7188C10.1667 23.9375 10.6562 24.0469 11.1875 24.0469C11.7188 24.0469 12.1979 23.9375 12.625 23.7188C13.0521 23.5 13.4167 23.1927 13.7188 22.7969C14.0312 22.3906 14.2656 21.9167 14.4219 21.375C14.5885 20.8333 14.6719 20.2396 14.6719 19.5938C14.6719 18.9583 14.5938 18.3698 14.4375 17.8281C14.2812 17.2865 14.0521 16.8125 13.75 16.4062C13.4479 15.9896 13.0729 15.6719 12.625 15.4531C12.1875 15.224 11.6875 15.1094 11.125 15.1094C10.3958 15.1094 9.74479 15.2812 9.17188 15.625C8.59896 15.9583 8.14583 16.3958 7.8125 16.9375C7.47917 17.4792 7.29688 18.0521 7.26562 18.6562L5.875 17.9688C5.92708 17.0833 6.11458 16.2708 6.4375 15.5312C6.77083 14.7917 7.21354 14.1458 7.76562 13.5938C8.32812 13.0417 8.98958 12.6146 9.75 12.3125C10.5208 12.0104 11.375 11.8594 12.3125 11.8594C13.3958 11.8594 14.3438 12.0677 15.1562 12.4844C15.9688 12.8906 16.6406 13.4479 17.1719 14.1562C17.7135 14.8646 18.1198 15.6823 18.3906 16.6094C18.6615 17.526 18.7969 18.4948 18.7969 19.5156C18.7969 20.6094 18.6198 21.6302 18.2656 22.5781C17.9219 23.526 17.4219 24.3542 16.7656 25.0625C16.1094 25.7708 15.3177 26.3229 14.3906 26.7188C13.4635 27.1146 12.4219 27.3125 11.2656 27.3125C10.0469 27.3125 8.95312 27.0833 7.98438 26.625C7.02604 26.1667 6.20312 25.5312 5.51562 24.7188C4.82812 23.9062 4.30208 22.9583 3.9375 21.875C3.57292 20.7917 3.39062 19.6198 3.39062 18.3594V16.7031C3.39062 14.9219 3.63542 13.2656 4.125 11.7344C4.61458 10.2031 5.33854 8.86458 6.29688 7.71875C7.26562 6.5625 8.46354 5.66667 9.89062 5.03125C11.3177 4.38542 12.9688 4.0625 14.8438 4.0625Z" fill="url(#paint0_linear_315_104063)"/>
<path d="M15.4062 4.0625H15.9062V3.5625H15.4062V4.0625ZM15.4062 7.39062V7.89062H15.9062V7.39062H15.4062ZM11.8125 7.96875L11.6259 7.50486L11.6242 7.50557L11.8125 7.96875ZM9.4375 9.59375L9.06778 9.25714L9.06753 9.25741L9.4375 9.59375ZM8.01562 12.0469L8.48837 12.2097L8.48892 12.2081L8.01562 12.0469ZM7.79688 21.0938L7.31405 21.224L7.3167 21.2332L7.79688 21.0938ZM8.5625 22.7344L8.15677 23.0269L8.16478 23.0374L8.5625 22.7344ZM9.71875 23.7188L9.49513 24.166L9.49933 24.168L9.71875 23.7188ZM13.7188 22.7969L13.3224 22.492L13.3213 22.4935L13.7188 22.7969ZM14.4219 21.375L13.9439 21.2279L13.9415 21.2364L14.4219 21.375ZM13.75 16.4062L13.3452 16.6998L13.3488 16.7046L13.75 16.4062ZM12.625 15.4531L12.3929 15.8962L12.4056 15.9024L12.625 15.4531ZM9.17188 15.625L9.42334 16.0572L9.42912 16.0537L9.17188 15.625ZM7.26562 18.6562L7.04403 19.1045L7.72568 19.4415L7.76496 18.6821L7.26562 18.6562ZM5.875 17.9688L5.37586 17.9394L5.35641 18.2701L5.65341 18.417L5.875 17.9688ZM6.4375 15.5312L5.98163 15.3258L5.97927 15.3312L6.4375 15.5312ZM7.76562 13.5938L7.41538 13.2369L7.41207 13.2402L7.76562 13.5938ZM9.75 12.3125L9.56756 11.847L9.5654 11.8478L9.75 12.3125ZM15.1562 12.4844L14.9281 12.9293L14.9326 12.9316L15.1562 12.4844ZM17.1719 14.1562L16.7719 14.4563L16.7747 14.46L17.1719 14.1562ZM18.3906 16.6094L17.9107 16.7496L17.9111 16.751L18.3906 16.6094ZM18.2656 22.5781L17.7972 22.4031L17.7956 22.4077L18.2656 22.5781ZM7.98438 26.625L7.76865 27.0761L7.77054 27.077L7.98438 26.625ZM3.9375 21.875L3.46362 22.0345L3.9375 21.875ZM6.29688 7.71875L5.91361 7.39764L5.91334 7.39797L6.29688 7.71875ZM9.89062 5.03125L10.094 5.48803L10.0968 5.48677L9.89062 5.03125ZM14.8438 4.0625V4.5625H15.4062V4.0625V3.5625H14.8438V4.0625ZM15.4062 4.0625H14.9062V7.39062H15.4062H15.9062V4.0625H15.4062ZM15.4062 7.39062V6.89062H15.1406V7.39062V7.89062H15.4062V7.39062ZM15.1406 7.39062V6.89062C13.83 6.89062 12.6551 7.09097 11.6259 7.50486L11.8125 7.96875L11.9991 8.43264C12.8866 8.0757 13.9305 7.89062 15.1406 7.89062V7.39062ZM11.8125 7.96875L11.6242 7.50557C10.613 7.9167 9.75758 8.49949 9.06778 9.25714L9.4375 9.59375L9.80722 9.93036C10.3882 9.29218 11.1161 8.79163 12.0008 8.43193L11.8125 7.96875ZM9.4375 9.59375L9.06753 9.25741C8.39297 9.99943 7.8856 10.878 7.54233 11.8856L8.01562 12.0469L8.48892 12.2081C8.79149 11.3199 9.23203 10.5631 9.80747 9.93009L9.4375 9.59375ZM8.01562 12.0469L7.54288 11.884C7.19983 12.88 7.03125 13.9618 7.03125 15.125H7.53125H8.03125C8.03125 14.059 8.18559 13.0887 8.48837 12.2097L8.01562 12.0469ZM7.53125 15.125H7.03125V18.8125H7.53125H8.03125V15.125H7.53125ZM7.53125 18.8125H7.03125C7.03125 19.7098 7.12298 20.5156 7.31414 21.224L7.79688 21.0938L8.27961 20.9635C8.1166 20.3594 8.03125 19.6444 8.03125 18.8125H7.53125ZM7.79688 21.0938L7.3167 21.2332C7.51678 21.9223 7.79419 22.5236 8.15691 23.0268L8.5625 22.7344L8.96809 22.442C8.68498 22.0493 8.45197 21.5569 8.27705 20.9543L7.79688 21.0938ZM8.5625 22.7344L8.16478 23.0374C8.53858 23.528 8.98128 23.909 9.49514 24.166L9.71875 23.7188L9.94236 23.2715C9.58122 23.091 9.25309 22.8157 8.96022 22.4314L8.5625 22.7344ZM9.71875 23.7188L9.49933 24.168C10.02 24.4223 10.5853 24.5469 11.1875 24.5469V24.0469V23.5469C10.7272 23.5469 10.3133 23.4527 9.93817 23.2695L9.71875 23.7188ZM11.1875 24.0469V24.5469C11.7894 24.5469 12.348 24.4224 12.8529 24.1638L12.625 23.7188L12.3971 23.2737C12.0478 23.4526 11.6481 23.5469 11.1875 23.5469V24.0469ZM12.625 23.7188L12.8529 24.1638C13.3489 23.9097 13.7707 23.553 14.1162 23.1002L13.7188 22.7969L13.3213 22.4935C13.0627 22.8324 12.7552 23.0903 12.3971 23.2737L12.625 23.7188ZM13.7188 22.7969L14.1151 23.1017C14.4694 22.6411 14.7304 22.1094 14.9023 21.5136L14.4219 21.375L13.9415 21.2364C13.8008 21.7239 13.5931 22.1402 13.3224 22.492L13.7188 22.7969ZM14.4219 21.375L14.8998 21.522C15.083 20.9266 15.1719 20.2826 15.1719 19.5938H14.6719H14.1719C14.1719 20.1966 14.0941 20.74 13.944 21.228L14.4219 21.375ZM14.6719 19.5938H15.1719C15.1719 18.9173 15.0887 18.2816 14.9179 17.6895L14.4375 17.8281L13.9571 17.9667C14.0988 18.458 14.1719 18.9994 14.1719 19.5938H14.6719ZM14.4375 17.8281L14.9179 17.6895C14.7469 17.0968 14.4929 16.5674 14.1512 16.1079L13.75 16.4062L13.3488 16.7046C13.6113 17.0576 13.8156 17.4761 13.9571 17.9667L14.4375 17.8281ZM13.75 16.4062L14.1548 16.1128C13.8062 15.632 13.3684 15.2597 12.8444 15.0038L12.625 15.4531L12.4056 15.9024C12.7774 16.084 13.0896 16.3472 13.3452 16.6997L13.75 16.4062ZM12.625 15.4531L12.857 15.0102C12.3385 14.7386 11.757 14.6094 11.125 14.6094V15.1094V15.6094C11.618 15.6094 12.0365 15.7093 12.393 15.896L12.625 15.4531ZM11.125 15.1094V14.6094C10.3138 14.6094 9.57227 14.8017 8.91463 15.1963L9.17188 15.625L9.42912 16.0537C9.91731 15.7608 10.4779 15.6094 11.125 15.6094V15.1094ZM9.17188 15.625L8.92043 15.1928C8.27936 15.5658 7.76506 16.0606 7.38667 16.6755L7.8125 16.9375L8.23833 17.1995C8.5266 16.7311 8.91856 16.3509 9.42332 16.0572L9.17188 15.625ZM7.8125 16.9375L7.38667 16.6755C7.01177 17.2847 6.80209 17.9383 6.76629 18.6304L7.26562 18.6562L7.76496 18.6821C7.79166 18.1659 7.94657 17.6737 8.23833 17.1995L7.8125 16.9375ZM7.26562 18.6562L7.48722 18.208L6.09659 17.5205L5.875 17.9688L5.65341 18.417L7.04403 19.1045L7.26562 18.6562ZM5.875 17.9688L6.37414 17.9981C6.4231 17.1657 6.59863 16.4118 6.89573 15.7313L6.4375 15.5312L5.97927 15.3312C5.63053 16.1299 5.43107 17.0009 5.37586 17.9394L5.875 17.9688ZM6.4375 15.5312L6.89334 15.7367C7.2028 15.0501 7.61153 14.455 8.11918 13.9473L7.76562 13.5938L7.41207 13.2402C6.81555 13.8367 6.33886 14.5333 5.98166 15.3258L6.4375 15.5312ZM7.76562 13.5938L8.11586 13.9506C8.62906 13.4469 9.23361 13.0556 9.9346 12.7772L9.75 12.3125L9.5654 11.8478C8.74556 12.1735 8.02719 12.6364 7.41539 13.2369L7.76562 13.5938ZM9.75 12.3125L9.93244 12.778C10.638 12.5015 11.4292 12.3594 12.3125 12.3594V11.8594V11.3594C11.3208 11.3594 10.4037 11.5193 9.56756 11.847L9.75 12.3125ZM12.3125 11.8594V12.3594C13.3312 12.3594 14.1982 12.555 14.9281 12.9293L15.1562 12.4844L15.3844 12.0395C14.4893 11.5804 13.4605 11.3594 12.3125 11.3594V11.8594ZM15.1562 12.4844L14.9326 12.9316C15.6776 13.3041 16.2884 13.8117 16.7719 14.4563L17.1719 14.1562L17.5719 13.8562C16.9928 13.0842 16.2599 12.4772 15.3799 12.0372L15.1562 12.4844ZM17.1719 14.1562L16.7747 14.46C17.2759 15.1154 17.6557 15.8767 17.9107 16.7496L18.3906 16.6094L18.8706 16.4692C18.5839 15.4879 18.1511 14.6137 17.5691 13.8525L17.1719 14.1562ZM18.3906 16.6094L17.9111 16.751C18.1675 17.6187 18.2969 18.5395 18.2969 19.5156H18.7969H19.2969C19.2969 18.4501 19.1555 17.4334 18.8701 16.4677L18.3906 16.6094ZM18.7969 19.5156H18.2969C18.2969 20.5545 18.1289 21.5156 17.7972 22.4031L18.2656 22.5781L18.734 22.7531C19.1107 21.7449 19.2969 20.6643 19.2969 19.5156H18.7969ZM18.2656 22.5781L17.7956 22.4077C17.4736 23.2956 17.0077 24.0655 16.3988 24.7227L16.7656 25.0625L17.1324 25.4023C17.836 24.6428 18.3702 23.7564 18.7357 22.7486L18.2656 22.5781ZM16.7656 25.0625L16.3988 24.7227C15.7924 25.3772 15.0597 25.8894 14.1943 26.2589L14.3906 26.7188L14.587 27.1786C15.5758 26.7564 16.4263 26.1645 17.1324 25.4023L16.7656 25.0625ZM14.3906 26.7188L14.1943 26.2589C13.3377 26.6246 12.3642 26.8125 11.2656 26.8125V27.3125V27.8125C12.4795 27.8125 13.5893 27.6045 14.587 27.1786L14.3906 26.7188ZM11.2656 27.3125V26.8125C10.1107 26.8125 9.09149 26.5957 8.19821 26.173L7.98438 26.625L7.77054 27.077C8.81476 27.571 9.98309 27.8125 11.2656 27.8125V27.3125ZM7.98438 26.625L8.2001 26.1739C7.30565 25.7462 6.53926 25.1544 5.89732 24.3958L5.51562 24.7188L5.13393 25.0417C5.86699 25.9081 6.74643 26.5872 7.76865 27.0761L7.98438 26.625ZM5.51562 24.7188L5.89732 24.3958C5.25353 23.6349 4.75733 22.7435 4.41138 21.7155L3.9375 21.875L3.46362 22.0345C3.84683 23.1732 4.40272 24.1776 5.13393 25.0417L5.51562 24.7188ZM3.9375 21.875L4.41138 21.7155C4.06578 20.6886 3.89062 19.5711 3.89062 18.3594H3.39062H2.89062C2.89062 19.6685 3.08006 20.8948 3.46362 22.0345L3.9375 21.875ZM3.39062 18.3594H3.89062V16.7031H3.39062H2.89062V18.3594H3.39062ZM3.39062 16.7031H3.89062C3.89062 14.968 4.129 13.3637 4.60125 11.8866L4.125 11.7344L3.64875 11.5821C3.14183 13.1676 2.89062 14.8757 2.89062 16.7031H3.39062ZM4.125 11.7344L4.60125 11.8866C5.07264 10.4123 5.76668 9.13204 6.68041 8.03953L6.29688 7.71875L5.91334 7.39797C4.91041 8.59713 4.15653 9.99396 3.64875 11.5821L4.125 11.7344ZM6.29688 7.71875L6.68014 8.03986C7.59826 6.94403 8.73387 6.09363 10.094 5.48802L9.89062 5.03125L9.68725 4.57448C8.19321 5.23971 6.93299 6.18097 5.91361 7.39764L6.29688 7.71875ZM9.89062 5.03125L10.0968 5.48677C11.4476 4.87545 13.0261 4.5625 14.8438 4.5625V4.0625V3.5625C12.9114 3.5625 11.1878 3.89538 9.68447 4.57573L9.89062 5.03125Z" fill="#343434" mask="url(#path-1-outside-1_315_104063)"/>
</g>
<defs>
<filter id="filter0_d_315_104063" x="2.89062" y="2.5625" width="16.4062" height="25.25" filterUnits="userSpaceOnUse" color-interpolation-filters="sRGB">
<feFlood flood-opacity="0" result="BackgroundImageFix"/>
<feColorMatrix in="SourceAlpha" type="matrix" values="0 0 0 0 0 0 0 0 0 0 0 0 0 0 0 0 0 0 127 0" result="hardAlpha"/>
<feOffset dy="-1"/>
<feColorMatrix type="matrix" values="0 0 0 0 0 0 0 0 0 0 0 0 0 0 0 0 0 0 0.25 0"/>
<feBlend mode="normal" in2="BackgroundImageFix" result="effect1_dropShadow_315_104063"/>
<feBlend mode="normal" in="SourceGraphic" in2="effect1_dropShadow_315_104063" result="shape"/>
</filter>
<linearGradient id="paint0_linear_315_104063" x1="10.5" y1="-1" x2="10.5" y2="34" gradientUnits="userSpaceOnUse">
<stop stop-color="#E6CF1F"/>
<stop offset="1" stop-color="#C9E722"/>
</linearGradient>
</defs>
</svg>
