<svg width="28" height="31" viewBox="0 0 28 31" fill="none" xmlns="http://www.w3.org/2000/svg">
<g clip-path="url(#clip0_315_104181)">
<g filter="url(#filter0_d_315_104181)">
<mask id="path-1-outside-1_315_104181" maskUnits="userSpaceOnUse" x="0.511719" y="0.762207" width="27" height="30" fill="black">
<rect fill="white" x="0.511719" y="0.762207" width="27" height="30"/>
<path d="M13.7542 2.50524V28.7622H8.98836V8.06237L2.6759 10.1485V6.29992L13.2146 2.50524H13.7542ZM25.5878 2.50524V28.7622H20.822V8.06237L14.5095 10.1485V6.29992L25.0483 2.50524H25.5878Z"/>
</mask>
<path d="M13.7542 2.50525H14.9819V1.27752H13.7542V2.50525ZM13.7542 28.7622V29.9899H14.9819V28.7622H13.7542ZM8.98836 28.7622H7.76063V29.9899H8.98836V28.7622ZM8.98836 8.06237H10.2161V6.36359L8.60311 6.89666L8.98836 8.06237ZM2.6759 10.1485H1.44817V11.8473L3.06115 11.3143L2.6759 10.1485ZM2.6759 6.29992L2.25997 5.14479L1.44817 5.4371V6.29992H2.6759ZM13.2146 2.50525V1.27752H13.0004L12.7987 1.35012L13.2146 2.50525ZM13.7542 2.50525H12.5265V28.7622H13.7542H14.9819V2.50525H13.7542ZM13.7542 28.7622V27.5345H8.98836V28.7622V29.9899H13.7542V28.7622ZM8.98836 28.7622H10.2161V8.06237H8.98836H7.76063V28.7622H8.98836ZM8.98836 8.06237L8.60311 6.89666L2.29065 8.98283L2.6759 10.1485L3.06115 11.3143L9.37361 9.22808L8.98836 8.06237ZM2.6759 10.1485H3.90362V6.29992H2.6759H1.44817V10.1485H2.6759ZM2.6759 6.29992L3.09182 7.45504L13.6306 3.66037L13.2146 2.50525L12.7987 1.35012L2.25997 5.14479L2.6759 6.29992ZM13.2146 2.50525V3.73297H13.7542V2.50525V1.27752H13.2146V2.50525ZM25.5878 2.50525H26.8155V1.27752H25.5878V2.50525ZM25.5878 28.7622V29.9899H26.8155V28.7622H25.5878ZM20.822 28.7622H19.5943V29.9899H20.822V28.7622ZM20.822 8.06237H22.0497V6.36359L20.4367 6.89666L20.822 8.06237ZM14.5095 10.1485H13.2818V11.8473L14.8948 11.3143L14.5095 10.1485ZM14.5095 6.29992L14.0936 5.14479L13.2818 5.4371V6.29992H14.5095ZM25.0483 2.50525V1.27752H24.834L24.6323 1.35012L25.0483 2.50525ZM25.5878 2.50525H24.3601V28.7622H25.5878H26.8155V2.50525H25.5878ZM25.5878 28.7622V27.5345H20.822V28.7622V29.9899H25.5878V28.7622ZM20.822 28.7622H22.0497V8.06237H20.822H19.5943V28.7622H20.822ZM20.822 8.06237L20.4367 6.89666L14.1243 8.98283L14.5095 10.1485L14.8948 11.3143L21.2072 9.22808L20.822 8.06237ZM14.5095 10.1485H15.7372V6.29992H14.5095H13.2818V10.1485H14.5095ZM14.5095 6.29992L14.9254 7.45504L25.4642 3.66037L25.0483 2.50525L24.6323 1.35012L14.0936 5.14479L14.5095 6.29992ZM25.0483 2.50525V3.73297H25.5878V2.50525V1.27752H25.0483V2.50525Z" fill="#FFE600" mask="url(#path-1-outside-1_315_104181)"/>
</g>
<mask id="path-3-outside-2_315_104181" maskUnits="userSpaceOnUse" x="1.51172" y="1.76221" width="25" height="28" fill="black">
<rect fill="white" x="1.51172" y="1.76221" width="25" height="28"/>
<path d="M13.7542 2.50524V28.7622H8.98836V8.06237L2.6759 10.1485V6.29992L13.2146 2.50524H13.7542ZM25.5878 2.50524V28.7622H20.822V8.06237L14.5095 10.1485V6.29992L25.0483 2.50524H25.5878Z"/>
</mask>
<path d="M13.7542 2.50524V28.7622H8.98836V8.06237L2.6759 10.1485V6.29992L13.2146 2.50524H13.7542ZM25.5878 2.50524V28.7622H20.822V8.06237L14.5095 10.1485V6.29992L25.0483 2.50524H25.5878Z" fill="#0000F1"/>
<path d="M13.7542 2.50524V28.7622H8.98836V8.06237L2.6759 10.1485V6.29992L13.2146 2.50524H13.7542ZM25.5878 2.50524V28.7622H20.822V8.06237L14.5095 10.1485V6.29992L25.0483 2.50524H25.5878Z" fill="url(#paint0_linear_315_104181)"/>
<path d="M13.7542 2.50524V28.7622H8.98836V8.06237L2.6759 10.1485V6.29992L13.2146 2.50524H13.7542ZM25.5878 2.50524V28.7622H20.822V8.06237L14.5095 10.1485V6.29992L25.0483 2.50524H25.5878Z" fill="url(#paint1_linear_315_104181)"/>
<path d="M13.7542 2.50525H14.368V1.89138H13.7542V2.50525ZM13.7542 28.7622V29.3761H14.368V28.7622H13.7542ZM8.98836 28.7622H8.3745V29.3761H8.98836V28.7622ZM8.98836 8.06237H9.60222V7.21298L8.79573 7.47951L8.98836 8.06237ZM2.6759 10.1485H2.06203V10.9979L2.86852 10.7314L2.6759 10.1485ZM2.6759 6.29992L2.46793 5.72235L2.06203 5.86851V6.29992H2.6759ZM13.2146 2.50525V1.89138H13.1075L13.0067 1.92768L13.2146 2.50525ZM13.7542 2.50525H13.1403V28.7622H13.7542H14.368V2.50525H13.7542ZM13.7542 28.7622V28.1483H8.98836V28.7622V29.3761H13.7542V28.7622ZM8.98836 28.7622H9.60222V8.06237H8.98836H8.3745V28.7622H8.98836ZM8.98836 8.06237L8.79573 7.47951L2.48327 9.56568L2.6759 10.1485L2.86852 10.7314L9.18098 8.64523L8.98836 8.06237ZM2.6759 10.1485H3.28976V6.29992H2.6759H2.06203V10.1485H2.6759ZM2.6759 6.29992L2.88386 6.87748L13.4226 3.08281L13.2146 2.50525L13.0067 1.92768L2.46793 5.72235L2.6759 6.29992ZM13.2146 2.50525V3.11911H13.7542V2.50525V1.89138H13.2146V2.50525ZM25.5878 2.50525H26.2017V1.89138H25.5878V2.50525ZM25.5878 28.7622V29.3761H26.2017V28.7622H25.5878ZM20.822 28.7622H20.2081V29.3761H20.822V28.7622ZM20.822 8.06237H21.4358V7.21298L20.6293 7.47951L20.822 8.06237ZM14.5095 10.1485H13.8957V10.9979L14.7021 10.7314L14.5095 10.1485ZM14.5095 6.29992L14.3016 5.72235L13.8957 5.86851V6.29992H14.5095ZM25.0483 2.50525V1.89138H24.9411L24.8403 1.92768L25.0483 2.50525ZM25.5878 2.50525H24.9739V28.7622H25.5878H26.2017V2.50525H25.5878ZM25.5878 28.7622V28.1483H20.822V28.7622V29.3761H25.5878V28.7622ZM20.822 28.7622H21.4358V8.06237H20.822H20.2081V28.7622H20.822ZM20.822 8.06237L20.6293 7.47951L14.3169 9.56568L14.5095 10.1485L14.7021 10.7314L21.0146 8.64523L20.822 8.06237ZM14.5095 10.1485H15.1234V6.29992H14.5095H13.8957V10.1485H14.5095ZM14.5095 6.29992L14.7175 6.87748L25.2562 3.08281L25.0483 2.50525L24.8403 1.92768L14.3016 5.72235L14.5095 6.29992ZM25.0483 2.50525V3.11911H25.5878V2.50525V1.89138H25.0483V2.50525Z" fill="#292929" mask="url(#path-3-outside-2_315_104181)"/>
</g>
<defs>
<filter id="filter0_d_315_104181" x="0.219543" y="0.049621" width="27.8246" height="31.1678" filterUnits="userSpaceOnUse" color-interpolation-filters="sRGB">
<feFlood flood-opacity="0" result="BackgroundImageFix"/>
<feColorMatrix in="SourceAlpha" type="matrix" values="0 0 0 0 0 0 0 0 0 0 0 0 0 0 0 0 0 0 127 0" result="hardAlpha"/>
<feOffset/>
<feGaussianBlur stdDeviation="0.613861"/>
<feComposite in2="hardAlpha" operator="out"/>
<feColorMatrix type="matrix" values="0 0 0 0 1 0 0 0 0 0.901961 0 0 0 0 0 0 0 0 1 0"/>
<feBlend mode="normal" in2="BackgroundImageFix" result="effect1_dropShadow_315_104181"/>
<feBlend mode="normal" in="SourceGraphic" in2="effect1_dropShadow_315_104181" result="shape"/>
</filter>
<linearGradient id="paint0_linear_315_104181" x1="16.0117" y1="2.76221" x2="16.0117" y2="28.7622" gradientUnits="userSpaceOnUse">
<stop offset="0.0327765" stop-color="#00D1FF" stop-opacity="0"/>
<stop offset="0.208385" stop-color="#00D1FF"/>
<stop offset="0.4375" stop-color="#75E2FA"/>
<stop offset="0.707725" stop-color="#00D1FF"/>
<stop offset="0.952043" stop-color="#00D1FF" stop-opacity="0"/>
</linearGradient>
<linearGradient id="paint1_linear_315_104181" x1="16.0117" y1="2.76221" x2="16.0117" y2="28.7622" gradientUnits="userSpaceOnUse">
<stop offset="0.0327765" stop-color="#00D1FF" stop-opacity="0"/>
<stop offset="0.208385" stop-color="#00D1FF"/>
<stop offset="0.466648" stop-color="#C1F4FF"/>
<stop offset="0.707725" stop-color="#00D1FF"/>
<stop offset="0.952043" stop-color="#00D1FF" stop-opacity="0"/>
</linearGradient>
<clipPath id="clip0_315_104181">
<rect width="28" height="31" fill="white"/>
</clipPath>
</defs>
</svg>
