<svg width="33" height="31" viewBox="0 0 33 31" fill="none" xmlns="http://www.w3.org/2000/svg">
<g clip-path="url(#clip0_315_104182)">
<g filter="url(#filter0_d_315_104182)">
<mask id="path-1-outside-1_315_104182" maskUnits="userSpaceOnUse" x="-0.132812" y="0.762207" width="32" height="30" fill="black">
<rect fill="white" x="-0.132812" y="0.762207" width="32" height="30"/>
<path d="M13.1096 2.50524V28.7622H8.34383V8.06237L2.03136 10.1485V6.29992L12.5701 2.50524H13.1096ZM30.4464 25.0215V28.7622H12.714V25.561L21.2205 16.3711C22.1077 15.364 22.8091 14.4887 23.3247 13.7454C23.8402 13.002 24.2059 12.3306 24.4217 11.7311C24.6495 11.1197 24.7634 10.5382 24.7634 9.98668C24.7634 9.18339 24.6195 8.482 24.3318 7.88253C24.0441 7.27106 23.6244 6.79748 23.0729 6.46177C22.5334 6.12607 21.868 5.95822 21.0767 5.95822C20.2014 5.95822 19.4521 6.16204 18.8286 6.56968C18.2172 6.96533 17.7496 7.51685 17.4259 8.22423C17.1141 8.93161 16.9583 9.7409 16.9583 10.6521H12.1924C12.1924 9.10545 12.5521 7.69669 13.2715 6.4258C13.9909 5.14293 15.022 4.11783 16.3648 3.3505C17.7076 2.58318 19.3022 2.19951 21.1486 2.19951C22.947 2.19951 24.4697 2.49925 25.7166 3.09872C26.9635 3.68621 27.9107 4.52547 28.5581 5.61651C29.2055 6.70756 29.5292 8.00842 29.5292 9.51909C29.5292 10.3584 29.3914 11.1856 29.1156 12.0009C28.8398 12.8162 28.4502 13.6255 27.9466 14.4288C27.4551 15.2201 26.8676 16.0234 26.1842 16.8387C25.5008 17.654 24.7394 18.4872 23.9002 19.3385L18.7927 25.0215H30.4464Z"/>
</mask>
<path d="M13.1096 2.50525H14.3374V1.27752H13.1096V2.50525ZM13.1096 28.7622V29.9899H14.3374V28.7622H13.1096ZM8.34383 28.7622H7.1161V29.9899H8.34383V28.7622ZM8.34383 8.06237H9.57155V6.36359L7.95858 6.89666L8.34383 8.06237ZM2.03136 10.1485H0.803642V11.8473L2.41661 11.3143L2.03136 10.1485ZM2.03136 6.29992L1.61544 5.14479L0.803642 5.4371V6.29992H2.03136ZM12.5701 2.50525V1.27752H12.3558L12.1542 1.35012L12.5701 2.50525ZM13.1096 2.50525H11.8819V28.7622H13.1096H14.3374V2.50525H13.1096ZM13.1096 28.7622V27.5345H8.34383V28.7622V29.9899H13.1096V28.7622ZM8.34383 28.7622H9.57155V8.06237H8.34383H7.1161V28.7622H8.34383ZM8.34383 8.06237L7.95858 6.89666L1.64611 8.98283L2.03136 10.1485L2.41661 11.3143L8.72908 9.22808L8.34383 8.06237ZM2.03136 10.1485H3.25909V6.29992H2.03136H0.803642V10.1485H2.03136ZM2.03136 6.29992L2.44729 7.45504L12.986 3.66037L12.5701 2.50525L12.1542 1.35012L1.61544 5.14479L2.03136 6.29992ZM12.5701 2.50525V3.73297H13.1096V2.50525V1.27752H12.5701V2.50525ZM30.4464 25.0215H31.6742V23.7938H30.4464V25.0215ZM30.4464 28.7622V29.9899H31.6742V28.7622H30.4464ZM12.714 28.7622H11.4863V29.9899H12.714V28.7622ZM12.714 25.561L11.813 24.727L11.4863 25.08V25.561H12.714ZM21.2205 16.3711L22.1215 17.2051L22.1318 17.194L22.1418 17.1826L21.2205 16.3711ZM24.4217 11.7311L23.2712 11.3025L23.2666 11.3153L24.4217 11.7311ZM24.3318 7.88253L23.2209 8.4053L23.225 8.4138L24.3318 7.88253ZM23.0729 6.46177L22.4243 7.50423L22.4346 7.51049L23.0729 6.46177ZM18.8286 6.56968L19.4956 7.60045L19.5005 7.59725L18.8286 6.56968ZM17.4259 8.22423L16.3095 7.71334L16.3059 7.72121L16.3024 7.72914L17.4259 8.22423ZM16.9583 10.6521V11.8798H18.186V10.6521H16.9583ZM12.1924 10.6521H10.9647V11.8798H12.1924V10.6521ZM13.2715 6.4258L14.3399 7.03058L14.3424 7.02628L13.2715 6.4258ZM25.7166 3.09872L25.1846 4.20525L25.1933 4.20935L25.7166 3.09872ZM29.1156 12.0009L30.2786 12.3943L29.1156 12.0009ZM27.9466 14.4288L26.9064 13.7767L26.9037 13.7809L27.9466 14.4288ZM23.9002 19.3385L23.0259 18.4765L23.006 18.4967L22.987 18.5178L23.9002 19.3385ZM18.7927 25.0215L17.8795 24.2008L16.0386 26.2492H18.7927V25.0215ZM30.4464 25.0215H29.2187V28.7622H30.4464H31.6742V25.0215H30.4464ZM30.4464 28.7622V27.5345H12.714V28.7622V29.9899H30.4464V28.7622ZM12.714 28.7622H13.9417V25.561H12.714H11.4863V28.7622H12.714ZM12.714 25.561L13.615 26.395L22.1215 17.2051L21.2205 16.3711L20.3195 15.5371L11.813 24.727L12.714 25.561ZM21.2205 16.3711L22.1418 17.1826C23.0469 16.1552 23.7814 15.2411 24.3335 14.4451L23.3247 13.7454L22.3158 13.0457C21.8368 13.7364 21.1686 14.5727 20.2993 15.5595L21.2205 16.3711ZM23.3247 13.7454L24.3335 14.4451C24.8867 13.6474 25.3132 12.8793 25.5769 12.147L24.4217 11.7311L23.2666 11.3153C23.0986 11.7819 22.7937 12.3567 22.3158 13.0457L23.3247 13.7454ZM24.4217 11.7311L25.5722 12.1598C25.8419 11.4357 25.9911 10.7086 25.9911 9.98668H24.7634H23.5357C23.5357 10.3678 23.4571 10.8037 23.2712 11.3025L24.4217 11.7311ZM24.7634 9.98668H25.9911C25.9911 9.03716 25.8208 8.14744 25.4386 7.35125L24.3318 7.88253L23.225 8.4138C23.4183 8.81656 23.5357 9.32961 23.5357 9.98668H24.7634ZM24.3318 7.88253L25.4427 7.35977C25.0574 6.54117 24.4783 5.87998 23.7113 5.41305L23.0729 6.46177L22.4346 7.51049C22.7705 7.71498 23.0307 8.00096 23.2209 8.40529L24.3318 7.88253ZM23.0729 6.46177L23.7215 5.41937C22.9447 4.93601 22.0412 4.73049 21.0767 4.73049V5.95822V7.18594C21.6947 7.18594 22.1221 7.31612 22.4243 7.50418L23.0729 6.46177ZM21.0767 5.95822V4.73049C20.0053 4.73049 19.0128 4.98237 18.1568 5.54211L18.8286 6.56968L19.5005 7.59725C19.8913 7.3417 20.3975 7.18594 21.0767 7.18594V5.95822ZM18.8286 6.56968L18.1617 5.53892C17.3404 6.0703 16.7235 6.80856 16.3095 7.71334L17.4259 8.22423L18.5422 8.73511C18.7756 8.22514 19.0939 7.86036 19.4956 7.60044L18.8286 6.56968ZM17.4259 8.22423L16.3024 7.72914C15.9107 8.61788 15.7305 9.6005 15.7305 10.6521H16.9583H18.186C18.186 9.88129 18.3175 9.24534 18.5493 8.71932L17.4259 8.22423ZM16.9583 10.6521V9.42437H12.1924V10.6521V11.8798H16.9583V10.6521ZM12.1924 10.6521H13.4202C13.4202 9.30444 13.7312 8.10603 14.3399 7.03058L13.2715 6.4258L12.2031 5.82103C11.3731 7.28735 10.9647 8.90647 10.9647 10.6521H12.1924ZM13.2715 6.4258L14.3424 7.02628C14.9471 5.94774 15.814 5.0793 16.9739 4.41647L16.3648 3.3505L15.7557 2.28454C14.23 3.15636 13.0346 4.33812 12.2006 5.82533L13.2715 6.4258ZM16.3648 3.3505L16.9739 4.41647C18.0983 3.77398 19.4744 3.42724 21.1486 3.42724V2.19951V0.97179C19.13 0.97179 17.317 1.39237 15.7557 2.28454L16.3648 3.3505ZM21.1486 2.19951V3.42724C22.816 3.42724 24.1457 3.70574 25.1846 4.20521L25.7166 3.09872L26.2485 1.99224C24.7936 1.29276 23.0781 0.97179 21.1486 0.97179V2.19951ZM25.7166 3.09872L25.1933 4.20935C26.2384 4.70175 26.9909 5.38126 27.5023 6.24305L28.5581 5.61651L29.6139 4.98998C28.8304 3.66968 27.6886 2.67067 26.2399 1.9881L25.7166 3.09872ZM28.5581 5.61651L27.5023 6.24305C28.0174 7.11113 28.3015 8.1866 28.3015 9.51909H29.5292H30.757C30.757 7.83023 30.3937 6.30399 29.6139 4.98998L28.5581 5.61651ZM29.5292 9.51909H28.3015C28.3015 10.2212 28.1866 10.9157 27.9526 11.6075L29.1156 12.0009L30.2786 12.3943C30.5961 11.4555 30.757 10.4955 30.757 9.51909H29.5292ZM29.1156 12.0009L27.9526 11.6075C27.7105 12.3235 27.3642 13.0464 26.9064 13.7767L27.9466 14.4288L28.9869 15.0809C29.5362 14.2045 29.9692 13.3089 30.2786 12.3943L29.1156 12.0009ZM27.9466 14.4288L26.9037 13.7809C26.4467 14.5166 25.8945 15.2731 25.2433 16.05L26.1842 16.8387L27.1251 17.6274C27.8406 16.7737 28.4634 15.9236 28.9895 15.0766L27.9466 14.4288ZM26.1842 16.8387L25.2433 16.05C24.5835 16.8371 23.8448 17.646 23.0259 18.4765L23.9002 19.3385L24.7744 20.2004C25.6341 19.3285 26.418 18.4708 27.1251 17.6274L26.1842 16.8387ZM23.9002 19.3385L22.987 18.5178L17.8795 24.2008L18.7927 25.0215L19.7058 25.8422L24.8133 20.1591L23.9002 19.3385ZM18.7927 25.0215V26.2492H30.4464V25.0215V23.7938H18.7927V25.0215Z" fill="#FFE600" mask="url(#path-1-outside-1_315_104182)"/>
</g>
<mask id="path-3-outside-2_315_104182" maskUnits="userSpaceOnUse" x="0.867188" y="0.762207" width="33" height="29" fill="black">
<rect fill="white" x="0.867188" y="0.762207" width="33" height="29"/>
<path d="M13.2681 2.50524V28.7622H8.50224V8.06237L2.18978 10.1485V6.29992L12.7285 2.50524H13.2681ZM32.4464 25.0215V28.7622H14.714V25.561L23.2205 16.3711C24.1078 15.364 24.8091 14.4887 25.3247 13.7454C25.8402 13.002 26.2059 12.3306 26.4217 11.7311C26.6495 11.1197 26.7634 10.5382 26.7634 9.98668C26.7634 9.18339 26.6195 8.482 26.3318 7.88253C26.0441 7.27106 25.6244 6.79748 25.0729 6.46177C24.5334 6.12607 23.868 5.95822 23.0767 5.95822C22.2014 5.95822 21.4521 6.16204 20.8286 6.56968C20.2172 6.96533 19.7496 7.51685 19.4259 8.22423C19.1141 8.93161 18.9583 9.7409 18.9583 10.6521H14.1925C14.1925 9.10545 14.5521 7.69669 15.2715 6.4258C15.9909 5.14293 17.022 4.11783 18.3648 3.3505C19.7076 2.58318 21.3022 2.19951 23.1486 2.19951C24.947 2.19951 26.4697 2.49925 27.7166 3.09872C28.9635 3.68621 29.9107 4.52547 30.5581 5.61651C31.2055 6.70756 31.5292 8.00842 31.5292 9.51909C31.5292 10.3584 31.3914 11.1856 31.1156 12.0009C30.8398 12.8162 30.4502 13.6255 29.9466 14.4288C29.4551 15.2201 28.8676 16.0234 28.1842 16.8387C27.5008 17.654 26.7394 18.4872 25.9002 19.3385L20.7927 25.0215H32.4464Z"/>
</mask>
<path d="M13.2681 2.50524V28.7622H8.50224V8.06237L2.18978 10.1485V6.29992L12.7285 2.50524H13.2681ZM32.4464 25.0215V28.7622H14.714V25.561L23.2205 16.3711C24.1078 15.364 24.8091 14.4887 25.3247 13.7454C25.8402 13.002 26.2059 12.3306 26.4217 11.7311C26.6495 11.1197 26.7634 10.5382 26.7634 9.98668C26.7634 9.18339 26.6195 8.482 26.3318 7.88253C26.0441 7.27106 25.6244 6.79748 25.0729 6.46177C24.5334 6.12607 23.868 5.95822 23.0767 5.95822C22.2014 5.95822 21.4521 6.16204 20.8286 6.56968C20.2172 6.96533 19.7496 7.51685 19.4259 8.22423C19.1141 8.93161 18.9583 9.7409 18.9583 10.6521H14.1925C14.1925 9.10545 14.5521 7.69669 15.2715 6.4258C15.9909 5.14293 17.022 4.11783 18.3648 3.3505C19.7076 2.58318 21.3022 2.19951 23.1486 2.19951C24.947 2.19951 26.4697 2.49925 27.7166 3.09872C28.9635 3.68621 29.9107 4.52547 30.5581 5.61651C31.2055 6.70756 31.5292 8.00842 31.5292 9.51909C31.5292 10.3584 31.3914 11.1856 31.1156 12.0009C30.8398 12.8162 30.4502 13.6255 29.9466 14.4288C29.4551 15.2201 28.8676 16.0234 28.1842 16.8387C27.5008 17.654 26.7394 18.4872 25.9002 19.3385L20.7927 25.0215H32.4464Z" fill="#0000F1"/>
<path d="M13.2681 2.50524V28.7622H8.50224V8.06237L2.18978 10.1485V6.29992L12.7285 2.50524H13.2681ZM32.4464 25.0215V28.7622H14.714V25.561L23.2205 16.3711C24.1078 15.364 24.8091 14.4887 25.3247 13.7454C25.8402 13.002 26.2059 12.3306 26.4217 11.7311C26.6495 11.1197 26.7634 10.5382 26.7634 9.98668C26.7634 9.18339 26.6195 8.482 26.3318 7.88253C26.0441 7.27106 25.6244 6.79748 25.0729 6.46177C24.5334 6.12607 23.868 5.95822 23.0767 5.95822C22.2014 5.95822 21.4521 6.16204 20.8286 6.56968C20.2172 6.96533 19.7496 7.51685 19.4259 8.22423C19.1141 8.93161 18.9583 9.7409 18.9583 10.6521H14.1925C14.1925 9.10545 14.5521 7.69669 15.2715 6.4258C15.9909 5.14293 17.022 4.11783 18.3648 3.3505C19.7076 2.58318 21.3022 2.19951 23.1486 2.19951C24.947 2.19951 26.4697 2.49925 27.7166 3.09872C28.9635 3.68621 29.9107 4.52547 30.5581 5.61651C31.2055 6.70756 31.5292 8.00842 31.5292 9.51909C31.5292 10.3584 31.3914 11.1856 31.1156 12.0009C30.8398 12.8162 30.4502 13.6255 29.9466 14.4288C29.4551 15.2201 28.8676 16.0234 28.1842 16.8387C27.5008 17.654 26.7394 18.4872 25.9002 19.3385L20.7927 25.0215H32.4464Z" fill="url(#paint0_linear_315_104182)"/>
<path d="M13.2681 2.50524V28.7622H8.50224V8.06237L2.18978 10.1485V6.29992L12.7285 2.50524H13.2681ZM32.4464 25.0215V28.7622H14.714V25.561L23.2205 16.3711C24.1078 15.364 24.8091 14.4887 25.3247 13.7454C25.8402 13.002 26.2059 12.3306 26.4217 11.7311C26.6495 11.1197 26.7634 10.5382 26.7634 9.98668C26.7634 9.18339 26.6195 8.482 26.3318 7.88253C26.0441 7.27106 25.6244 6.79748 25.0729 6.46177C24.5334 6.12607 23.868 5.95822 23.0767 5.95822C22.2014 5.95822 21.4521 6.16204 20.8286 6.56968C20.2172 6.96533 19.7496 7.51685 19.4259 8.22423C19.1141 8.93161 18.9583 9.7409 18.9583 10.6521H14.1925C14.1925 9.10545 14.5521 7.69669 15.2715 6.4258C15.9909 5.14293 17.022 4.11783 18.3648 3.3505C19.7076 2.58318 21.3022 2.19951 23.1486 2.19951C24.947 2.19951 26.4697 2.49925 27.7166 3.09872C28.9635 3.68621 29.9107 4.52547 30.5581 5.61651C31.2055 6.70756 31.5292 8.00842 31.5292 9.51909C31.5292 10.3584 31.3914 11.1856 31.1156 12.0009C30.8398 12.8162 30.4502 13.6255 29.9466 14.4288C29.4551 15.2201 28.8676 16.0234 28.1842 16.8387C27.5008 17.654 26.7394 18.4872 25.9002 19.3385L20.7927 25.0215H32.4464Z" fill="url(#paint1_linear_315_104182)"/>
<path d="M13.2681 2.50525H13.8819V1.89138H13.2681V2.50525ZM13.2681 28.7622V29.3761H13.8819V28.7622H13.2681ZM8.50224 28.7622H7.88838V29.3761H8.50224V28.7622ZM8.50224 8.06237H9.1161V7.21298L8.30962 7.47951L8.50224 8.06237ZM2.18978 10.1485H1.57592V10.9979L2.38241 10.7314L2.18978 10.1485ZM2.18978 6.29992L1.98182 5.72235L1.57592 5.86851V6.29992H2.18978ZM12.7285 2.50525V1.89138H12.6214L12.5206 1.92768L12.7285 2.50525ZM13.2681 2.50525H12.6542V28.7622H13.2681H13.8819V2.50525H13.2681ZM13.2681 28.7622V28.1483H8.50224V28.7622V29.3761H13.2681V28.7622ZM8.50224 28.7622H9.1161V8.06237H8.50224H7.88838V28.7622H8.50224ZM8.50224 8.06237L8.30962 7.47951L1.99716 9.56568L2.18978 10.1485L2.38241 10.7314L8.69487 8.64523L8.50224 8.06237ZM2.18978 10.1485H2.80364V6.29992H2.18978H1.57592V10.1485H2.18978ZM2.18978 6.29992L2.39774 6.87748L12.9365 3.08281L12.7285 2.50525L12.5206 1.92768L1.98182 5.72235L2.18978 6.29992ZM12.7285 2.50525V3.11911H13.2681V2.50525V1.89138H12.7285V2.50525ZM32.4464 25.0215H33.0603V24.4076H32.4464V25.0215ZM32.4464 28.7622V29.3761H33.0603V28.7622H32.4464ZM14.714 28.7622H14.1001V29.3761H14.714V28.7622ZM14.714 25.561L14.2635 25.144L14.1001 25.3205V25.561H14.714ZM23.2205 16.3711L23.671 16.7881L23.6762 16.7825L23.6811 16.7769L23.2205 16.3711ZM26.4217 11.7311L25.8464 11.5168L25.8441 11.5232L26.4217 11.7311ZM26.3318 7.88253L25.7763 8.14392L25.7784 8.14816L26.3318 7.88253ZM25.0729 6.46177L24.7486 6.983L24.7537 6.98613L25.0729 6.46177ZM20.8286 6.56968L21.1621 7.08506L21.1646 7.08346L20.8286 6.56968ZM19.4259 8.22423L18.8676 7.96876L18.8641 7.97668L19.4259 8.22423ZM18.9583 10.6521V11.266H19.5721V10.6521H18.9583ZM14.1924 10.6521H13.5786V11.266H14.1924V10.6521ZM15.2715 6.4258L15.8057 6.7282L15.8069 6.72604L15.2715 6.4258ZM27.7166 3.09872L27.4506 3.65199L27.4549 3.65404L27.7166 3.09872ZM31.1156 12.0009L31.6971 12.1976L31.1156 12.0009ZM29.9466 14.4288L29.4265 14.1027L29.4252 14.1049L29.9466 14.4288ZM25.9002 19.3385L25.463 18.9075L25.4531 18.9176L25.4436 18.9281L25.9002 19.3385ZM20.7927 25.0215L20.3361 24.6112L19.4156 25.6354H20.7927V25.0215ZM32.4464 25.0215H31.8326V28.7622H32.4464H33.0603V25.0215H32.4464ZM32.4464 28.7622V28.1483H14.714V28.7622V29.3761H32.4464V28.7622ZM14.714 28.7622H15.3279V25.561H14.714H14.1001V28.7622H14.714ZM14.714 25.561L15.1645 25.978L23.671 16.7881L23.2205 16.3711L22.77 15.9541L14.2635 25.144L14.714 25.561ZM23.2205 16.3711L23.6811 16.7769C24.5773 15.7596 25.2953 14.8649 25.8291 14.0952L25.3247 13.7454L24.8203 13.3955C24.323 14.1125 23.6382 14.9683 22.7599 15.9653L23.2205 16.3711ZM25.3247 13.7454L25.8291 14.0952C26.3635 13.3247 26.7596 12.605 26.9993 11.9391L26.4217 11.7311L25.8441 11.5232C25.6522 12.0563 25.317 12.6793 24.8203 13.3955L25.3247 13.7454ZM26.4217 11.7311L26.997 11.9455C27.2457 11.2777 27.3773 10.6234 27.3773 9.98668H26.7634H26.1496C26.1496 10.453 26.0533 10.9617 25.8465 11.5168L26.4217 11.7311ZM26.7634 9.98668H27.3773C27.3773 9.11027 27.2202 8.31472 26.8852 7.61689L26.3318 7.88253L25.7784 8.14816C26.0189 8.64928 26.1496 9.2565 26.1496 9.98668H26.7634ZM26.3318 7.88253L26.8872 7.62115C26.5507 6.90611 26.0514 6.33873 25.3921 5.93741L25.0729 6.46177L24.7537 6.98613C25.1975 7.25623 25.5374 7.63601 25.7764 8.14391L26.3318 7.88253ZM25.0729 6.46177L25.3972 5.94057C24.739 5.53104 23.9546 5.34435 23.0767 5.34435V5.95822V6.57208C23.7813 6.57208 24.3277 6.72109 24.7486 6.98298L25.0729 6.46177ZM23.0767 5.95822V5.34435C22.1034 5.34435 21.2325 5.5722 20.4927 6.05589L20.8286 6.56968L21.1646 7.08346C21.6717 6.75187 22.2995 6.57208 23.0767 6.57208V5.95822ZM20.8286 6.56968L20.4951 6.0543C19.7788 6.51782 19.2366 7.1627 18.8677 7.96878L19.4259 8.22423L19.984 8.47967C20.2626 7.87099 20.6555 7.41285 21.1621 7.08506L20.8286 6.56968ZM19.4259 8.22423L18.8641 7.97668C18.5124 8.77474 18.3444 9.6707 18.3444 10.6521H18.9583H19.5721C19.5721 9.81109 19.7158 9.08847 19.9876 8.47177L19.4259 8.22423ZM18.9583 10.6521V10.0382H14.1924V10.6521V11.266H18.9583V10.6521ZM14.1924 10.6521H14.8063C14.8063 9.20495 15.1417 7.90136 15.8057 6.72819L15.2715 6.4258L14.7373 6.12342C13.9626 7.49202 13.5786 9.00596 13.5786 10.6521H14.1924ZM15.2715 6.4258L15.8069 6.72604C16.469 5.54534 17.418 4.59856 18.6693 3.88348L18.3648 3.3505L18.0602 2.81752C16.626 3.6371 15.5127 4.74053 14.7361 6.12556L15.2715 6.4258ZM18.3648 3.3505L18.6693 3.88348C19.9029 3.17858 21.3883 2.81337 23.1486 2.81337V2.19951V1.58565C21.2161 1.58565 19.5123 1.98777 18.0602 2.81752L18.3648 3.3505ZM23.1486 2.19951V2.81337C24.8815 2.81337 26.3077 3.10249 27.4506 3.65197L27.7166 3.09872L27.9826 2.54548C26.6317 1.89601 25.0125 1.58565 23.1486 1.58565V2.19951ZM27.7166 3.09872L27.4549 3.65404C28.601 4.19398 29.4508 4.95337 30.0302 5.92978L30.5581 5.61651L31.086 5.30325C30.3705 4.09758 29.326 3.17844 27.9782 2.54341L27.7166 3.09872ZM30.5581 5.61651L30.0302 5.92978C30.6115 6.90934 30.9154 8.09751 30.9154 9.51909H31.5292H32.1431C32.1431 7.91932 31.7996 6.50577 31.086 5.30325L30.5581 5.61651ZM31.5292 9.51909H30.9154C30.9154 10.2898 30.789 11.0507 30.5341 11.8042L31.1156 12.0009L31.6971 12.1976C31.9937 11.3206 32.1431 10.4269 32.1431 9.51909H31.5292ZM31.1156 12.0009L30.5341 11.8042C30.2752 12.5698 29.9072 13.336 29.4265 14.1027L29.9466 14.4288L30.4667 14.7548C30.9932 13.915 31.4045 13.0626 31.6971 12.1976L31.1156 12.0009ZM29.9466 14.4288L29.4252 14.1049C28.9509 14.8683 28.3811 15.6482 27.7137 16.4443L28.1842 16.8387L28.6546 17.233C29.3541 16.3985 29.9592 15.5718 30.4681 14.7527L29.9466 14.4288ZM28.1842 16.8387L27.7137 16.4443C27.0421 17.2455 26.2921 18.0666 25.463 18.9075L25.9002 19.3385L26.3373 19.7695C27.1868 18.9079 27.9594 18.0624 28.6546 17.233L28.1842 16.8387ZM25.9002 19.3385L25.4436 18.9281L20.3361 24.6112L20.7927 25.0215L21.2492 25.4318L26.3567 19.7488L25.9002 19.3385ZM20.7927 25.0215V25.6354H32.4464V25.0215V24.4076H20.7927V25.0215Z" fill="#292929" mask="url(#path-3-outside-2_315_104182)"/>
</g>
<defs>
<filter id="filter0_d_315_104182" x="-0.424988" y="-0.256043" width="33.3265" height="31.4735" filterUnits="userSpaceOnUse" color-interpolation-filters="sRGB">
<feFlood flood-opacity="0" result="BackgroundImageFix"/>
<feColorMatrix in="SourceAlpha" type="matrix" values="0 0 0 0 0 0 0 0 0 0 0 0 0 0 0 0 0 0 127 0" result="hardAlpha"/>
<feOffset/>
<feGaussianBlur stdDeviation="0.613861"/>
<feComposite in2="hardAlpha" operator="out"/>
<feColorMatrix type="matrix" values="0 0 0 0 1 0 0 0 0 0.901961 0 0 0 0 0 0 0 0 1 0"/>
<feBlend mode="normal" in2="BackgroundImageFix" result="effect1_dropShadow_315_104182"/>
<feBlend mode="normal" in="SourceGraphic" in2="effect1_dropShadow_315_104182" result="shape"/>
</filter>
<linearGradient id="paint0_linear_315_104182" x1="16.3672" y1="2.76221" x2="16.3672" y2="28.7622" gradientUnits="userSpaceOnUse">
<stop offset="0.0327765" stop-color="#00D1FF" stop-opacity="0"/>
<stop offset="0.208385" stop-color="#00D1FF"/>
<stop offset="0.4375" stop-color="#75E2FA"/>
<stop offset="0.707725" stop-color="#00D1FF"/>
<stop offset="0.952043" stop-color="#00D1FF" stop-opacity="0"/>
</linearGradient>
<linearGradient id="paint1_linear_315_104182" x1="16.3672" y1="2.76221" x2="16.3672" y2="28.7622" gradientUnits="userSpaceOnUse">
<stop offset="0.0327765" stop-color="#00D1FF" stop-opacity="0"/>
<stop offset="0.208385" stop-color="#00D1FF"/>
<stop offset="0.466648" stop-color="#C1F4FF"/>
<stop offset="0.707725" stop-color="#00D1FF"/>
<stop offset="0.952043" stop-color="#00D1FF" stop-opacity="0"/>
</linearGradient>
<clipPath id="clip0_315_104182">
<rect width="33" height="31" fill="white"/>
</clipPath>
</defs>
</svg>
