<svg width="66" height="54" viewBox="0 0 66 54" fill="none" xmlns="http://www.w3.org/2000/svg">
<mask id="path-1-outside-1_318_104197" maskUnits="userSpaceOnUse" x="2" y="-0.245605" width="62" height="46" fill="black">
<rect fill="white" x="2" y="-0.245605" width="62" height="46"/>
<path d="M26.5575 0.498509V21.7544H22.5282L13.4916 7.00958V21.7544H9.4769V0.498509H13.4916L22.5574 15.2579V0.498509H26.5575ZM38.4544 18.601V21.7544H27.1549V18.601H38.4544ZM28.3812 0.498509V21.7544H24.3665V0.498509H28.3812ZM36.9799 9.2724V12.3528H27.1549V9.2724H36.9799ZM38.4106 0.498509V3.66645H27.1549V0.498509H38.4106ZM38.1613 0.498509L42.4095 8.0753L46.6724 0.498509H51.2856L44.9789 11.0389L51.4462 21.7544H46.7892L42.4095 14.0316L38.0445 21.7544H33.3728L39.8401 11.0389L33.5334 0.498509H38.1613ZM56.759 0.498509V21.7544H52.7589V0.498509H56.759ZM63.3577 0.498509V3.66645H46.2332V0.498509H63.3577ZM16.9223 32.2724V35.4257H5.7396V32.2724H16.9223ZM6.83452 23.4985V44.7544H2.81984V23.4985H6.83452ZM19.9005 23.4985V44.7544H15.8858V23.4985H19.9005ZM26.425 26.7248L20.3665 44.7544H16.1182L24.06 23.4985H26.7753L26.425 26.7248ZM31.4908 44.7544L25.403 26.7248L25.0381 23.4985H27.7681L35.7536 44.7544H31.4908ZM31.2134 36.8564V40.0244H19.8117V36.8564H31.2134ZM48.7454 23.4985V44.7544H44.7161L35.6795 30.0096V44.7544H31.6648V23.4985H35.6795L44.7453 38.2579V23.4985H48.7454ZM52.9049 44.7544H48.3209L48.3501 41.601H52.9049C54.1409 41.601 55.1774 41.3285 56.0144 40.7835C56.8514 40.2288 57.4841 39.4356 57.9123 38.4039C58.3405 37.3625 58.5546 36.1168 58.5546 34.6666V33.5717C58.5546 32.4525 58.433 31.4646 58.1897 30.6081C57.9464 29.7517 57.5863 29.0315 57.1094 28.4475C56.6422 27.8636 56.0631 27.4207 55.3721 27.119C54.6811 26.8173 53.8879 26.6665 52.9925 26.6665H48.2333V23.4985H52.9925C54.4134 23.4985 55.7079 23.737 56.8758 24.2139C58.0534 24.6907 59.0705 25.3769 59.9269 26.2723C60.7931 27.1579 61.4549 28.2188 61.9124 29.4548C62.3795 30.6909 62.6131 32.0729 62.6131 33.6009V34.6666C62.6131 36.1849 62.3795 37.5669 61.9124 38.8127C61.4549 40.0487 60.7931 41.1096 59.9269 41.9952C59.0705 42.8809 58.0485 43.5622 56.8612 44.0391C55.6738 44.5159 54.355 44.7544 52.9049 44.7544ZM50.5691 23.4985V44.7544H46.5544V23.4985H50.5691Z"/>
</mask>
<path d="M26.5575 0.498509V21.7544H22.5282L13.4916 7.00958V21.7544H9.4769V0.498509H13.4916L22.5574 15.2579V0.498509H26.5575ZM38.4544 18.601V21.7544H27.1549V18.601H38.4544ZM28.3812 0.498509V21.7544H24.3665V0.498509H28.3812ZM36.9799 9.2724V12.3528H27.1549V9.2724H36.9799ZM38.4106 0.498509V3.66645H27.1549V0.498509H38.4106ZM38.1613 0.498509L42.4095 8.0753L46.6724 0.498509H51.2856L44.9789 11.0389L51.4462 21.7544H46.7892L42.4095 14.0316L38.0445 21.7544H33.3728L39.8401 11.0389L33.5334 0.498509H38.1613ZM56.759 0.498509V21.7544H52.7589V0.498509H56.759ZM63.3577 0.498509V3.66645H46.2332V0.498509H63.3577ZM16.9223 32.2724V35.4257H5.7396V32.2724H16.9223ZM6.83452 23.4985V44.7544H2.81984V23.4985H6.83452ZM19.9005 23.4985V44.7544H15.8858V23.4985H19.9005ZM26.425 26.7248L20.3665 44.7544H16.1182L24.06 23.4985H26.7753L26.425 26.7248ZM31.4908 44.7544L25.403 26.7248L25.0381 23.4985H27.7681L35.7536 44.7544H31.4908ZM31.2134 36.8564V40.0244H19.8117V36.8564H31.2134ZM48.7454 23.4985V44.7544H44.7161L35.6795 30.0096V44.7544H31.6648V23.4985H35.6795L44.7453 38.2579V23.4985H48.7454ZM52.9049 44.7544H48.3209L48.3501 41.601H52.9049C54.1409 41.601 55.1774 41.3285 56.0144 40.7835C56.8514 40.2288 57.4841 39.4356 57.9123 38.4039C58.3405 37.3625 58.5546 36.1168 58.5546 34.6666V33.5717C58.5546 32.4525 58.433 31.4646 58.1897 30.6081C57.9464 29.7517 57.5863 29.0315 57.1094 28.4475C56.6422 27.8636 56.0631 27.4207 55.3721 27.119C54.6811 26.8173 53.8879 26.6665 52.9925 26.6665H48.2333V23.4985H52.9925C54.4134 23.4985 55.7079 23.737 56.8758 24.2139C58.0534 24.6907 59.0705 25.3769 59.9269 26.2723C60.7931 27.1579 61.4549 28.2188 61.9124 29.4548C62.3795 30.6909 62.6131 32.0729 62.6131 33.6009V34.6666C62.6131 36.1849 62.3795 37.5669 61.9124 38.8127C61.4549 40.0487 60.7931 41.1096 59.9269 41.9952C59.0705 42.8809 58.0485 43.5622 56.8612 44.0391C55.6738 44.5159 54.355 44.7544 52.9049 44.7544ZM50.5691 23.4985V44.7544H46.5544V23.4985H50.5691Z" fill="#0000F1"/>
<path d="M26.5575 0.498509V21.7544H22.5282L13.4916 7.00958V21.7544H9.4769V0.498509H13.4916L22.5574 15.2579V0.498509H26.5575ZM38.4544 18.601V21.7544H27.1549V18.601H38.4544ZM28.3812 0.498509V21.7544H24.3665V0.498509H28.3812ZM36.9799 9.2724V12.3528H27.1549V9.2724H36.9799ZM38.4106 0.498509V3.66645H27.1549V0.498509H38.4106ZM38.1613 0.498509L42.4095 8.0753L46.6724 0.498509H51.2856L44.9789 11.0389L51.4462 21.7544H46.7892L42.4095 14.0316L38.0445 21.7544H33.3728L39.8401 11.0389L33.5334 0.498509H38.1613ZM56.759 0.498509V21.7544H52.7589V0.498509H56.759ZM63.3577 0.498509V3.66645H46.2332V0.498509H63.3577ZM16.9223 32.2724V35.4257H5.7396V32.2724H16.9223ZM6.83452 23.4985V44.7544H2.81984V23.4985H6.83452ZM19.9005 23.4985V44.7544H15.8858V23.4985H19.9005ZM26.425 26.7248L20.3665 44.7544H16.1182L24.06 23.4985H26.7753L26.425 26.7248ZM31.4908 44.7544L25.403 26.7248L25.0381 23.4985H27.7681L35.7536 44.7544H31.4908ZM31.2134 36.8564V40.0244H19.8117V36.8564H31.2134ZM48.7454 23.4985V44.7544H44.7161L35.6795 30.0096V44.7544H31.6648V23.4985H35.6795L44.7453 38.2579V23.4985H48.7454ZM52.9049 44.7544H48.3209L48.3501 41.601H52.9049C54.1409 41.601 55.1774 41.3285 56.0144 40.7835C56.8514 40.2288 57.4841 39.4356 57.9123 38.4039C58.3405 37.3625 58.5546 36.1168 58.5546 34.6666V33.5717C58.5546 32.4525 58.433 31.4646 58.1897 30.6081C57.9464 29.7517 57.5863 29.0315 57.1094 28.4475C56.6422 27.8636 56.0631 27.4207 55.3721 27.119C54.6811 26.8173 53.8879 26.6665 52.9925 26.6665H48.2333V23.4985H52.9925C54.4134 23.4985 55.7079 23.737 56.8758 24.2139C58.0534 24.6907 59.0705 25.3769 59.9269 26.2723C60.7931 27.1579 61.4549 28.2188 61.9124 29.4548C62.3795 30.6909 62.6131 32.0729 62.6131 33.6009V34.6666C62.6131 36.1849 62.3795 37.5669 61.9124 38.8127C61.4549 40.0487 60.7931 41.1096 59.9269 41.9952C59.0705 42.8809 58.0485 43.5622 56.8612 44.0391C55.6738 44.5159 54.355 44.7544 52.9049 44.7544ZM50.5691 23.4985V44.7544H46.5544V23.4985H50.5691Z" fill="url(#paint0_linear_318_104197)"/>
<path d="M26.5575 0.498509V21.7544H22.5282L13.4916 7.00958V21.7544H9.4769V0.498509H13.4916L22.5574 15.2579V0.498509H26.5575ZM38.4544 18.601V21.7544H27.1549V18.601H38.4544ZM28.3812 0.498509V21.7544H24.3665V0.498509H28.3812ZM36.9799 9.2724V12.3528H27.1549V9.2724H36.9799ZM38.4106 0.498509V3.66645H27.1549V0.498509H38.4106ZM38.1613 0.498509L42.4095 8.0753L46.6724 0.498509H51.2856L44.9789 11.0389L51.4462 21.7544H46.7892L42.4095 14.0316L38.0445 21.7544H33.3728L39.8401 11.0389L33.5334 0.498509H38.1613ZM56.759 0.498509V21.7544H52.7589V0.498509H56.759ZM63.3577 0.498509V3.66645H46.2332V0.498509H63.3577ZM16.9223 32.2724V35.4257H5.7396V32.2724H16.9223ZM6.83452 23.4985V44.7544H2.81984V23.4985H6.83452ZM19.9005 23.4985V44.7544H15.8858V23.4985H19.9005ZM26.425 26.7248L20.3665 44.7544H16.1182L24.06 23.4985H26.7753L26.425 26.7248ZM31.4908 44.7544L25.403 26.7248L25.0381 23.4985H27.7681L35.7536 44.7544H31.4908ZM31.2134 36.8564V40.0244H19.8117V36.8564H31.2134ZM48.7454 23.4985V44.7544H44.7161L35.6795 30.0096V44.7544H31.6648V23.4985H35.6795L44.7453 38.2579V23.4985H48.7454ZM52.9049 44.7544H48.3209L48.3501 41.601H52.9049C54.1409 41.601 55.1774 41.3285 56.0144 40.7835C56.8514 40.2288 57.4841 39.4356 57.9123 38.4039C58.3405 37.3625 58.5546 36.1168 58.5546 34.6666V33.5717C58.5546 32.4525 58.433 31.4646 58.1897 30.6081C57.9464 29.7517 57.5863 29.0315 57.1094 28.4475C56.6422 27.8636 56.0631 27.4207 55.3721 27.119C54.6811 26.8173 53.8879 26.6665 52.9925 26.6665H48.2333V23.4985H52.9925C54.4134 23.4985 55.7079 23.737 56.8758 24.2139C58.0534 24.6907 59.0705 25.3769 59.9269 26.2723C60.7931 27.1579 61.4549 28.2188 61.9124 29.4548C62.3795 30.6909 62.6131 32.0729 62.6131 33.6009V34.6666C62.6131 36.1849 62.3795 37.5669 61.9124 38.8127C61.4549 40.0487 60.7931 41.1096 59.9269 41.9952C59.0705 42.8809 58.0485 43.5622 56.8612 44.0391C55.6738 44.5159 54.355 44.7544 52.9049 44.7544ZM50.5691 23.4985V44.7544H46.5544V23.4985H50.5691Z" fill="url(#paint1_linear_318_104197)"/>
<path d="M26.5575 0.498508H27.0558V0.000202179H26.5575V0.498508ZM26.5575 21.7544V22.2527H27.0558V21.7544H26.5575ZM22.5282 21.7544L22.1034 22.0148L22.2492 22.2527H22.5282V21.7544ZM13.4916 7.00958L13.9164 6.7492L12.9933 5.2429V7.00958H13.4916ZM13.4916 21.7544V22.2527H13.9899V21.7544H13.4916ZM9.4769 21.7544H8.9786V22.2527H9.4769V21.7544ZM9.4769 0.498508V0.000202179H8.9786V0.498508H9.4769ZM13.4916 0.498508L13.9162 0.2377L13.7703 0.000202179H13.4916V0.498508ZM22.5574 15.2579L22.1328 15.5187L23.0558 17.0212V15.2579H22.5574ZM22.5574 0.498508V0.000202179H22.0591V0.498508H22.5574ZM26.5575 0.498508H26.0592V21.7544H26.5575H27.0558V0.498508H26.5575ZM26.5575 21.7544V21.2561H22.5282V21.7544V22.2527H26.5575V21.7544ZM22.5282 21.7544L22.9531 21.494L13.9164 6.7492L13.4916 7.00958L13.0667 7.26997L22.1034 22.0148L22.5282 21.7544ZM13.4916 7.00958H12.9933V21.7544H13.4916H13.9899V7.00958H13.4916ZM13.4916 21.7544V21.2561H9.4769V21.7544V22.2527H13.4916V21.7544ZM9.4769 21.7544H9.97521V0.498508H9.4769H8.9786V21.7544H9.4769ZM9.4769 0.498508V0.996817H13.4916V0.498508V0.000202179H9.4769V0.498508ZM13.4916 0.498508L13.067 0.759319L22.1328 15.5187L22.5574 15.2579L22.982 14.9971L13.9162 0.2377L13.4916 0.498508ZM22.5574 15.2579H23.0558V0.498508H22.5574H22.0591V15.2579H22.5574ZM22.5574 0.498508V0.996817H26.5575V0.498508V0.000202179H22.5574V0.498508ZM38.4544 18.601H38.9527V18.1027H38.4544V18.601ZM38.4544 21.7544V22.2527H38.9527V21.7544H38.4544ZM27.1549 21.7544H26.6566V22.2527H27.1549V21.7544ZM27.1549 18.601V18.1027H26.6566V18.601H27.1549ZM28.3812 0.498508H28.8795V0.000202179H28.3812V0.498508ZM28.3812 21.7544V22.2527H28.8795V21.7544H28.3812ZM24.3665 21.7544H23.8682V22.2527H24.3665V21.7544ZM24.3665 0.498508V0.000202179H23.8682V0.498508H24.3665ZM36.9799 9.2724H37.4782V8.7741H36.9799V9.2724ZM36.9799 12.3528V12.8511H37.4782V12.3528H36.9799ZM27.1549 12.3528H26.6566V12.8511H27.1549V12.3528ZM27.1549 9.2724V8.7741H26.6566V9.2724H27.1549ZM38.4106 0.498508H38.9089V0.000202179H38.4106V0.498508ZM38.4106 3.66645V4.16476H38.9089V3.66645H38.4106ZM27.1549 3.66645H26.6566V4.16476H27.1549V3.66645ZM27.1549 0.498508V0.000202179H26.6566V0.498508H27.1549ZM38.4544 18.601H37.9561V21.7544H38.4544H38.9527V18.601H38.4544ZM38.4544 21.7544V21.2561H27.1549V21.7544V22.2527H38.4544V21.7544ZM27.1549 21.7544H27.6532V18.601H27.1549H26.6566V21.7544H27.1549ZM27.1549 18.601V19.0994H38.4544V18.601V18.1027H27.1549V18.601ZM28.3812 0.498508H27.8829V21.7544H28.3812H28.8795V0.498508H28.3812ZM28.3812 21.7544V21.2561H24.3665V21.7544V22.2527H28.3812V21.7544ZM24.3665 21.7544H24.8648V0.498508H24.3665H23.8682V21.7544H24.3665ZM24.3665 0.498508V0.996817H28.3812V0.498508V0.000202179H24.3665V0.498508ZM36.9799 9.2724H36.4816V12.3528H36.9799H37.4782V9.2724H36.9799ZM36.9799 12.3528V11.8544H27.1549V12.3528V12.8511H36.9799V12.3528ZM27.1549 12.3528H27.6532V9.2724H27.1549H26.6566V12.3528H27.1549ZM27.1549 9.2724V9.77071H36.9799V9.2724V8.7741H27.1549V9.2724ZM38.4106 0.498508H37.9123V3.66645H38.4106H38.9089V0.498508H38.4106ZM38.4106 3.66645V3.16815H27.1549V3.66645V4.16476H38.4106V3.66645ZM27.1549 3.66645H27.6532V0.498508H27.1549H26.6566V3.66645H27.1549ZM27.1549 0.498508V0.996817H38.4106V0.498508V0.000202179H27.1549V0.498508ZM38.1613 0.498508L38.5959 0.254807L38.4531 0.000202179H38.1613V0.498508ZM42.4095 8.0753L41.9749 8.319L42.4088 9.09287L42.8438 8.31964L42.4095 8.0753ZM46.6724 0.498508V0.000202179H46.381L46.2381 0.254169L46.6724 0.498508ZM51.2856 0.498508L51.7132 0.754364L52.1644 0.000202179H51.2856V0.498508ZM44.9789 11.0389L44.5513 10.783L44.3975 11.04L44.5523 11.2963L44.9789 11.0389ZM51.4462 21.7544V22.2527H52.329L51.8728 21.4969L51.4462 21.7544ZM46.7892 21.7544L46.3557 22.0002L46.4989 22.2527H46.7892V21.7544ZM42.4095 14.0316L42.843 13.7858L42.4088 13.0202L41.9757 13.7864L42.4095 14.0316ZM38.0445 21.7544V22.2527H38.3352L38.4783 21.9996L38.0445 21.7544ZM33.3728 21.7544L32.9462 21.4969L32.4901 22.2527H33.3728V21.7544ZM39.8401 11.0389L40.2667 11.2963L40.4215 11.04L40.2677 10.783L39.8401 11.0389ZM33.5334 0.498508V0.000202179H32.6546L33.1058 0.754364L33.5334 0.498508ZM38.1613 0.498508L37.7266 0.742212L41.9749 8.319L42.4095 8.0753L42.8442 7.83159L38.5959 0.254807L38.1613 0.498508ZM42.4095 8.0753L42.8438 8.31964L47.1067 0.742849L46.6724 0.498508L46.2381 0.254169L41.9752 7.83096L42.4095 8.0753ZM46.6724 0.498508V0.996817H51.2856V0.498508V0.000202179H46.6724V0.498508ZM51.2856 0.498508L50.858 0.242655L44.5513 10.783L44.9789 11.0389L45.4065 11.2947L51.7132 0.754364L51.2856 0.498508ZM44.9789 11.0389L44.5523 11.2963L51.0196 22.0119L51.4462 21.7544L51.8728 21.4969L45.4055 10.7814L44.9789 11.0389ZM51.4462 21.7544V21.2561H46.7892V21.7544V22.2527H51.4462V21.7544ZM46.7892 21.7544L47.2226 21.5086L42.843 13.7858L42.4095 14.0316L41.9761 14.2774L46.3557 22.0002L46.7892 21.7544ZM42.4095 14.0316L41.9757 13.7864L37.6107 21.5092L38.0445 21.7544L38.4783 21.9996L42.8433 14.2768L42.4095 14.0316ZM38.0445 21.7544V21.2561H33.3728V21.7544V22.2527H38.0445V21.7544ZM33.3728 21.7544L33.7995 22.0119L40.2667 11.2963L39.8401 11.0389L39.4135 10.7814L32.9462 21.4969L33.3728 21.7544ZM39.8401 11.0389L40.2677 10.783L33.961 0.242655L33.5334 0.498508L33.1058 0.754364L39.4125 11.2947L39.8401 11.0389ZM33.5334 0.498508V0.996817H38.1613V0.498508V0.000202179H33.5334V0.498508ZM56.759 0.498508H57.2573V0.000202179H56.759V0.498508ZM56.759 21.7544V22.2527H57.2573V21.7544H56.759ZM52.7589 21.7544H52.2606V22.2527H52.7589V21.7544ZM52.7589 0.498508V0.000202179H52.2606V0.498508H52.7589ZM63.3577 0.498508H63.856V0.000202179H63.3577V0.498508ZM63.3577 3.66645V4.16476H63.856V3.66645H63.3577ZM46.2332 3.66645H45.7349V4.16476H46.2332V3.66645ZM46.2332 0.498508V0.000202179H45.7349V0.498508H46.2332ZM56.759 0.498508H56.2607V21.7544H56.759H57.2573V0.498508H56.759ZM56.759 21.7544V21.2561H52.7589V21.7544V22.2527H56.759V21.7544ZM52.7589 21.7544H53.2572V0.498508H52.7589H52.2606V21.7544H52.7589ZM52.7589 0.498508V0.996817H56.759V0.498508V0.000202179H52.7589V0.498508ZM63.3577 0.498508H62.8593V3.66645H63.3577H63.856V0.498508H63.3577ZM63.3577 3.66645V3.16815H46.2332V3.66645V4.16476H63.3577V3.66645ZM46.2332 3.66645H46.7315V0.498508H46.2332H45.7349V3.66645H46.2332ZM46.2332 0.498508V0.996817H63.3577V0.498508V0.000202179H46.2332V0.498508ZM16.9223 32.2724H17.4206V31.7741H16.9223V32.2724ZM16.9223 35.4257V35.9241H17.4206V35.4257H16.9223ZM5.7396 35.4257H5.2413V35.9241H5.7396V35.4257ZM5.7396 32.2724V31.7741H5.2413V32.2724H5.7396ZM6.83452 23.4985H7.33282V23.0002H6.83452V23.4985ZM6.83452 44.7544V45.2527H7.33282V44.7544H6.83452ZM2.81984 44.7544H2.32153V45.2527H2.81984V44.7544ZM2.81984 23.4985V23.0002H2.32153V23.4985H2.81984ZM19.9005 23.4985H20.3988V23.0002H19.9005V23.4985ZM19.9005 44.7544V45.2527H20.3988V44.7544H19.9005ZM15.8858 44.7544H15.3875V45.2527H15.8858V44.7544ZM15.8858 23.4985V23.0002H15.3875V23.4985H15.8858ZM16.9223 32.2724H16.424V35.4257H16.9223H17.4206V32.2724H16.9223ZM16.9223 35.4257V34.9274H5.7396V35.4257V35.9241H16.9223V35.4257ZM5.7396 35.4257H6.23791V32.2724H5.7396H5.2413V35.4257H5.7396ZM5.7396 32.2724V32.7707H16.9223V32.2724V31.7741H5.7396V32.2724ZM6.83452 23.4985H6.33621V44.7544H6.83452H7.33282V23.4985H6.83452ZM6.83452 44.7544V44.2561H2.81984V44.7544V45.2527H6.83452V44.7544ZM2.81984 44.7544H3.31815V23.4985H2.81984H2.32153V44.7544H2.81984ZM2.81984 23.4985V23.9968H6.83452V23.4985V23.0002H2.81984V23.4985ZM19.9005 23.4985H19.4022V44.7544H19.9005H20.3988V23.4985H19.9005ZM19.9005 44.7544V44.2561H15.8858V44.7544V45.2527H19.9005V44.7544ZM15.8858 44.7544H16.3841V23.4985H15.8858H15.3875V44.7544H15.8858ZM15.8858 23.4985V23.9968H19.9005V23.4985V23.0002H15.8858V23.4985ZM26.425 26.7248L26.8973 26.8836L26.9145 26.8324L26.9204 26.7786L26.425 26.7248ZM20.3665 44.7544V45.2527H20.7247L20.8388 44.9131L20.3665 44.7544ZM16.1182 44.7544L15.6514 44.58L15.4001 45.2527H16.1182V44.7544ZM24.06 23.4985V23.0002H23.7142L23.5932 23.3241L24.06 23.4985ZM26.7753 23.4985L27.2707 23.5523L27.3307 23.0002H26.7753V23.4985ZM31.4908 44.7544L31.0186 44.9138L31.1331 45.2527H31.4908V44.7544ZM25.403 26.7248L24.9079 26.7809L24.9139 26.8338L24.9309 26.8843L25.403 26.7248ZM25.0381 23.4985V23.0002H24.4802L24.5429 23.5545L25.0381 23.4985ZM27.7681 23.4985L28.2345 23.3233L28.1132 23.0002H27.7681V23.4985ZM35.7536 44.7544V45.2527H36.4731L36.2201 44.5791L35.7536 44.7544ZM31.2134 36.8564H31.7117V36.3581H31.2134V36.8564ZM31.2134 40.0244V40.5227H31.7117V40.0244H31.2134ZM19.8117 40.0244H19.3134V40.5227H19.8117V40.0244ZM19.8117 36.8564V36.3581H19.3134V36.8564H19.8117ZM26.425 26.7248L25.9526 26.5661L19.8941 44.5957L20.3665 44.7544L20.8388 44.9131L26.8973 26.8836L26.425 26.7248ZM20.3665 44.7544V44.2561H16.1182V44.7544V45.2527H20.3665V44.7544ZM16.1182 44.7544L16.585 44.9288L24.5267 23.6729L24.06 23.4985L23.5932 23.3241L15.6514 44.58L16.1182 44.7544ZM24.06 23.4985V23.9968H26.7753V23.4985V23.0002H24.06V23.4985ZM26.7753 23.4985L26.2799 23.4447L25.9296 26.6711L26.425 26.7248L26.9204 26.7786L27.2707 23.5523L26.7753 23.4985ZM31.4908 44.7544L31.9629 44.595L25.8752 26.5654L25.403 26.7248L24.9309 26.8843L31.0186 44.9138L31.4908 44.7544ZM25.403 26.7248L25.8982 26.6688L25.5332 23.4425L25.0381 23.4985L24.5429 23.5545L24.9079 26.7809L25.403 26.7248ZM25.0381 23.4985V23.9968H27.7681V23.4985V23.0002H25.0381V23.4985ZM27.7681 23.4985L27.3016 23.6738L35.2871 44.9296L35.7536 44.7544L36.2201 44.5791L28.2345 23.3233L27.7681 23.4985ZM35.7536 44.7544V44.2561H31.4908V44.7544V45.2527H35.7536V44.7544ZM31.2134 36.8564H30.7151V40.0244H31.2134H31.7117V36.8564H31.2134ZM31.2134 40.0244V39.5261H19.8117V40.0244V40.5227H31.2134V40.0244ZM19.8117 40.0244H20.31V36.8564H19.8117H19.3134V40.0244H19.8117ZM19.8117 36.8564V37.3547H31.2134V36.8564V36.3581H19.8117V36.8564ZM48.7454 23.4985H49.2437V23.0002H48.7454V23.4985ZM48.7454 44.7544V45.2527H49.2437V44.7544H48.7454ZM44.7161 44.7544L44.2913 45.0148L44.4371 45.2527H44.7161V44.7544ZM35.6795 30.0096L36.1043 29.7492L35.1811 28.2429V30.0096H35.6795ZM35.6795 44.7544V45.2527H36.1778V44.7544H35.6795ZM31.6648 44.7544H31.1665V45.2527H31.6648V44.7544ZM31.6648 23.4985V23.0002H31.1665V23.4985H31.6648ZM35.6795 23.4985L36.1041 23.2377L35.9582 23.0002H35.6795V23.4985ZM44.7453 38.2579L44.3207 38.5187L45.2436 40.0212V38.2579H44.7453ZM44.7453 23.4985V23.0002H44.247V23.4985H44.7453ZM48.7454 23.4985H48.2471V44.7544H48.7454H49.2437V23.4985H48.7454ZM48.7454 44.7544V44.2561H44.7161V44.7544V45.2527H48.7454V44.7544ZM44.7161 44.7544L45.141 44.494L36.1043 29.7492L35.6795 30.0096L35.2546 30.27L44.2913 45.0148L44.7161 44.7544ZM35.6795 30.0096H35.1811V44.7544H35.6795H36.1778V30.0096H35.6795ZM35.6795 44.7544V44.2561H31.6648V44.7544V45.2527H35.6795V44.7544ZM31.6648 44.7544H32.1631V23.4985H31.6648H31.1665V44.7544H31.6648ZM31.6648 23.4985V23.9968H35.6795V23.4985V23.0002H31.6648V23.4985ZM35.6795 23.4985L35.2548 23.7593L44.3207 38.5187L44.7453 38.2579L45.1699 37.9971L36.1041 23.2377L35.6795 23.4985ZM44.7453 38.2579H45.2436V23.4985H44.7453H44.247V38.2579H44.7453ZM44.7453 23.4985V23.9968H48.7454V23.4985V23.0002H44.7453V23.4985ZM48.3209 44.7544L47.8226 44.7498L47.8179 45.2527H48.3209V44.7544ZM48.3501 41.601V41.1027H47.8563L47.8518 41.5964L48.3501 41.601ZM56.0144 40.7835L56.2864 41.2011L56.2897 41.1989L56.0144 40.7835ZM57.9123 38.4039L58.3725 38.5949L58.3732 38.5934L57.9123 38.4039ZM58.1897 30.6081L57.7103 30.7443L58.1897 30.6081ZM57.1094 28.4475L56.7202 28.7588L56.7234 28.7627L57.1094 28.4475ZM48.2333 26.6665H47.735V27.1648H48.2333V26.6665ZM48.2333 23.4985V23.0002H47.735V23.4985H48.2333ZM56.8758 24.2139L56.6874 24.6752L56.6887 24.6757L56.8758 24.2139ZM59.9269 26.2723L59.5668 26.6167L59.5707 26.6207L59.9269 26.2723ZM61.9124 29.4548L61.445 29.6278L61.4462 29.631L61.9124 29.4548ZM61.9124 38.8127L61.4458 38.6377L61.445 38.6397L61.9124 38.8127ZM59.9269 41.9952L59.5707 41.6468L59.5687 41.6488L59.9269 41.9952ZM50.5691 23.4985H51.0674V23.0002H50.5691V23.4985ZM50.5691 44.7544V45.2527H51.0674V44.7544H50.5691ZM46.5544 44.7544H46.0561V45.2527H46.5544V44.7544ZM46.5544 23.4985V23.0002H46.0561V23.4985H46.5544ZM52.9049 44.7544V44.2561H48.3209V44.7544V45.2527H52.9049V44.7544ZM48.3209 44.7544L48.8192 44.759L48.8484 41.6057L48.3501 41.601L47.8518 41.5964L47.8226 44.7498L48.3209 44.7544ZM48.3501 41.601V42.0994H52.9049V41.601V41.1027H48.3501V41.601ZM52.9049 41.601V42.0994C54.2145 42.0994 55.3511 41.8101 56.2864 41.2011L56.0144 40.7835L55.7425 40.3659C55.0038 40.847 54.0674 41.1027 52.9049 41.1027V41.601ZM56.0144 40.7835L56.2897 41.1989C57.2185 40.5833 57.9108 39.7074 58.3725 38.5949L57.9123 38.4039L57.4521 38.2129C57.0574 39.1637 56.4844 39.8742 55.7392 40.3682L56.0144 40.7835ZM57.9123 38.4039L58.3732 38.5934C58.8321 37.4773 59.0529 36.1639 59.0529 34.6666H58.5546H58.0563C58.0563 36.0696 57.8489 37.2477 57.4514 38.2144L57.9123 38.4039ZM58.5546 34.6666H59.0529V33.5717H58.5546H58.0563V34.6666H58.5546ZM58.5546 33.5717H59.0529C59.0529 32.4177 58.9277 31.3824 58.669 30.472L58.1897 30.6081L57.7103 30.7443C57.9383 31.5468 58.0563 32.4873 58.0563 33.5717H58.5546ZM58.1897 30.6081L58.669 30.472C58.4104 29.5617 58.0223 28.7776 57.4953 28.1323L57.1094 28.4475L56.7234 28.7627C57.1502 29.2853 57.4823 29.9416 57.7103 30.7443L58.1897 30.6081ZM57.1094 28.4475L57.4985 28.1362C56.9804 27.4886 56.336 26.9961 55.5715 26.6623L55.3721 27.119L55.1727 27.5757C55.7903 27.8453 56.304 28.2385 56.7202 28.7588L57.1094 28.4475ZM55.3721 27.119L55.5715 26.6623C54.8069 26.3285 53.9438 26.1681 52.9925 26.1681V26.6665V27.1648C53.8319 27.1648 54.5552 27.3061 55.1727 27.5757L55.3721 27.119ZM52.9925 26.6665V26.1681H48.2333V26.6665V27.1648H52.9925V26.6665ZM48.2333 26.6665H48.7316V23.4985H48.2333H47.735V26.6665H48.2333ZM48.2333 23.4985V23.9968H52.9925V23.4985V23.0002H48.2333V23.4985ZM52.9925 23.4985V23.9968C54.357 23.9968 55.5864 24.2256 56.6874 24.6752L56.8758 24.2139L57.0642 23.7525C55.8293 23.2483 54.4699 23.0002 52.9925 23.0002V23.4985ZM56.8758 24.2139L56.6887 24.6757C57.8027 25.1268 58.7604 25.7736 59.5668 26.6167L59.9269 26.2723L60.287 25.9278C59.3806 24.9802 58.3041 24.2546 57.0628 23.752L56.8758 24.2139ZM59.9269 26.2723L59.5707 26.6207C60.3849 27.4532 61.0103 28.4531 61.445 29.6278L61.9124 29.4548L62.3797 29.2819C61.8996 27.9845 61.2014 26.8627 60.2832 25.9239L59.9269 26.2723ZM61.9124 29.4548L61.4462 29.631C61.8891 30.8027 62.1148 32.1238 62.1148 33.6009H62.6131H63.1114C63.1114 32.022 62.87 30.5791 62.3785 29.2787L61.9124 29.4548ZM62.6131 33.6009H62.1148V34.6666H62.6131H63.1114V33.6009H62.6131ZM62.6131 34.6666H62.1148C62.1148 36.1335 61.8892 37.4552 61.4458 38.6377L61.9124 38.8127L62.379 38.9876C62.8698 37.6786 63.1114 36.2363 63.1114 34.6666H62.6131ZM61.9124 38.8127L61.445 38.6397C61.0103 39.8144 60.3849 40.8143 59.5707 41.6468L59.9269 41.9952L60.2832 42.3436C61.2014 41.4048 61.8996 40.283 62.3797 38.9856L61.9124 38.8127ZM59.9269 41.9952L59.5687 41.6488C58.7628 42.4822 57.8004 43.1248 56.6755 43.5766L56.8612 44.0391L57.0469 44.5015C58.2967 43.9995 59.3781 43.2796 60.2851 42.3416L59.9269 41.9952ZM56.8612 44.0391L56.6755 43.5766C55.5545 44.0269 54.2998 44.2561 52.9049 44.2561V44.7544V45.2527C54.4102 45.2527 55.7931 45.005 57.0469 44.5015L56.8612 44.0391ZM50.5691 23.4985H50.0708V44.7544H50.5691H51.0674V23.4985H50.5691ZM50.5691 44.7544V44.2561H46.5544V44.7544V45.2527H50.5691V44.7544ZM46.5544 44.7544H47.0527V23.4985H46.5544H46.0561V44.7544H46.5544ZM46.5544 23.4985V23.9968H50.5691V23.4985V23.0002H46.5544V23.4985Z" fill="#292929" mask="url(#path-1-outside-1_318_104197)"/>
<defs>
<linearGradient id="paint0_linear_318_104197" x1="32" y1="0.754395" x2="32" y2="44.7544" gradientUnits="userSpaceOnUse">
<stop offset="0.0327765" stop-color="#00D1FF" stop-opacity="0"/>
<stop offset="0.208385" stop-color="#00D1FF"/>
<stop offset="0.4375" stop-color="#75E2FA"/>
<stop offset="0.707725" stop-color="#00D1FF"/>
<stop offset="0.952043" stop-color="#00D1FF" stop-opacity="0"/>
</linearGradient>
<linearGradient id="paint1_linear_318_104197" x1="32" y1="0.754395" x2="32" y2="44.7544" gradientUnits="userSpaceOnUse">
<stop offset="0.0327765" stop-color="#00D1FF" stop-opacity="0"/>
<stop offset="0.208385" stop-color="#00D1FF"/>
<stop offset="0.466648" stop-color="#C1F4FF"/>
<stop offset="0.707725" stop-color="#00D1FF"/>
<stop offset="0.952043" stop-color="#00D1FF" stop-opacity="0"/>
</linearGradient>
</defs>
</svg>
