<svg width="22" height="31" viewBox="0 0 22 31" fill="none" xmlns="http://www.w3.org/2000/svg">
<g filter="url(#filter0_d_315_104077)">
<mask id="path-1-outside-1_315_104077" maskUnits="userSpaceOnUse" x="0" y="4" width="22" height="25" fill="black">
<rect fill="white" y="4" width="22" height="25"/>
<path d="M6.3125 5.25L10.8594 13.3594L15.4219 5.25H20.3594L13.6094 16.5312L20.5312 28H15.5469L10.8594 19.7344L6.1875 28H1.1875L8.10938 16.5312L1.35938 5.25H6.3125Z"/>
</mask>
<path d="M6.3125 5.25L10.8594 13.3594L15.4219 5.25H20.3594L13.6094 16.5312L20.5312 28H15.5469L10.8594 19.7344L6.1875 28H1.1875L8.10938 16.5312L1.35938 5.25H6.3125Z" fill="url(#paint0_linear_315_104077)"/>
<path d="M6.3125 5.25L6.74862 5.00547L6.60538 4.75H6.3125V5.25ZM10.8594 13.3594L10.4233 13.6039L10.8586 14.3804L11.2951 13.6045L10.8594 13.3594ZM15.4219 5.25V4.75H15.1295L14.9861 5.00483L15.4219 5.25ZM20.3594 5.25L20.7884 5.50672L21.2412 4.75H20.3594V5.25ZM13.6094 16.5312L13.1803 16.2745L13.026 16.5324L13.1813 16.7896L13.6094 16.5312ZM20.5312 28V28.5H21.417L20.9593 27.7416L20.5312 28ZM15.5469 28L15.1119 28.2467L15.2556 28.5H15.5469V28ZM10.8594 19.7344L11.2943 19.4877L10.8586 18.7195L10.4241 19.4883L10.8594 19.7344ZM6.1875 28V28.5H6.47923L6.62278 28.246L6.1875 28ZM1.1875 28L0.759424 27.7416L0.301721 28.5H1.1875V28ZM8.10938 16.5312L8.53745 16.7896L8.69271 16.5324L8.53844 16.2745L8.10938 16.5312ZM1.35938 5.25V4.75H0.477538L0.930314 5.50672L1.35938 5.25ZM6.3125 5.25L5.87638 5.49453L10.4233 13.6039L10.8594 13.3594L11.2955 13.1148L6.74862 5.00547L6.3125 5.25ZM10.8594 13.3594L11.2951 13.6045L15.8576 5.49517L15.4219 5.25L14.9861 5.00483L10.4236 13.1142L10.8594 13.3594ZM15.4219 5.25V5.75H20.3594V5.25V4.75H15.4219V5.25ZM20.3594 5.25L19.9303 4.99328L13.1803 16.2745L13.6094 16.5312L14.0384 16.788L20.7884 5.50672L20.3594 5.25ZM13.6094 16.5312L13.1813 16.7896L20.1032 28.2584L20.5312 28L20.9593 27.7416L14.0375 16.2729L13.6094 16.5312ZM20.5312 28V27.5H15.5469V28V28.5H20.5312V28ZM15.5469 28L15.9818 27.7533L11.2943 19.4877L10.8594 19.7344L10.4244 19.981L15.1119 28.2467L15.5469 28ZM10.8594 19.7344L10.4241 19.4883L5.75222 27.754L6.1875 28L6.62278 28.246L11.2947 19.9804L10.8594 19.7344ZM6.1875 28V27.5H1.1875V28V28.5H6.1875V28ZM1.1875 28L1.61558 28.2584L8.53745 16.7896L8.10938 16.5312L7.6813 16.2729L0.759424 27.7416L1.1875 28ZM8.10938 16.5312L8.53844 16.2745L1.78844 4.99328L1.35938 5.25L0.930314 5.50672L7.68031 16.788L8.10938 16.5312ZM1.35938 5.25V5.75H6.3125V5.25V4.75H1.35938V5.25Z" fill="#343434" mask="url(#path-1-outside-1_315_104077)"/>
</g>
<defs>
<filter id="filter0_d_315_104077" x="0.300781" y="3.75" width="21.1172" height="24.75" filterUnits="userSpaceOnUse" color-interpolation-filters="sRGB">
<feFlood flood-opacity="0" result="BackgroundImageFix"/>
<feColorMatrix in="SourceAlpha" type="matrix" values="0 0 0 0 0 0 0 0 0 0 0 0 0 0 0 0 0 0 127 0" result="hardAlpha"/>
<feOffset dy="-1"/>
<feColorMatrix type="matrix" values="0 0 0 0 0 0 0 0 0 0 0 0 0 0 0 0 0 0 0.25 0"/>
<feBlend mode="normal" in2="BackgroundImageFix" result="effect1_dropShadow_315_104077"/>
<feBlend mode="normal" in="SourceGraphic" in2="effect1_dropShadow_315_104077" result="shape"/>
</filter>
<linearGradient id="paint0_linear_315_104077" x1="12" y1="0" x2="12" y2="35" gradientUnits="userSpaceOnUse">
<stop stop-color="#E6CF1F"/>
<stop offset="1" stop-color="#C9E722"/>
</linearGradient>
</defs>
</svg>
