<svg width="23" height="32" viewBox="0 0 23 32" fill="none" xmlns="http://www.w3.org/2000/svg">
<g filter="url(#filter0_d_315_104069)">
<mask id="path-1-outside-1_315_104069" maskUnits="userSpaceOnUse" x="1" y="1.01807" width="21" height="30" fill="black">
<rect fill="white" x="1" y="1.01807" width="21" height="30"/>
<path d="M6.42566 25.3313H6.76737C8.31401 25.3313 9.62086 25.1335 10.6879 24.7378C11.767 24.3422 12.6362 23.7847 13.2956 23.0653C13.967 22.3339 14.4526 21.4647 14.7524 20.4576C15.0641 19.4385 15.2199 18.3115 15.2199 17.0765V12.3287C15.2199 11.3216 15.118 10.4404 14.9142 9.68503C14.7104 8.9177 14.4226 8.27627 14.051 7.76072C13.6913 7.24517 13.2657 6.86151 12.7741 6.60973C12.2825 6.34596 11.755 6.21407 11.1915 6.21407C10.568 6.21407 10.0165 6.35795 9.53694 6.6457C9.05736 6.93344 8.64971 7.3291 8.31401 7.83265C7.99029 8.32422 7.73851 8.89372 7.55867 9.54116C7.39082 10.1886 7.30689 10.872 7.30689 11.5914C7.30689 12.2867 7.38482 12.9522 7.54069 13.5876C7.70854 14.223 7.95432 14.7866 8.27804 15.2781C8.61375 15.7697 9.03338 16.1593 9.53694 16.4471C10.0405 16.7229 10.628 16.8607 11.2994 16.8607C11.9348 16.8607 12.5103 16.7408 13.0259 16.501C13.5534 16.2493 14.009 15.9196 14.3927 15.5119C14.7763 15.0923 15.0701 14.6307 15.2739 14.1271C15.4897 13.6116 15.6096 13.09 15.6336 12.5625L17.3061 13.2819C17.3061 14.1571 17.1203 15.0203 16.7486 15.8716C16.3889 16.7229 15.8794 17.4962 15.2199 18.1916C14.5725 18.875 13.8172 19.4265 12.9539 19.8461C12.0907 20.2538 11.1615 20.4576 10.1664 20.4576C8.93147 20.4576 7.84042 20.2298 6.89325 19.7742C5.94609 19.3186 5.14879 18.6891 4.50135 17.8858C3.86591 17.0705 3.38633 16.1354 3.06262 15.0803C2.7389 14.0132 2.57704 12.8742 2.57704 11.6633C2.57704 10.4044 2.77487 9.22343 3.17052 8.1204C3.56617 7.00538 4.13567 6.02824 4.87902 5.18897C5.63436 4.33772 6.54556 3.6723 7.61262 3.19273C8.67969 2.70116 9.87864 2.45537 11.2095 2.45537C12.5883 2.45537 13.8172 2.72514 14.8962 3.26466C15.9753 3.80419 16.8925 4.55353 17.6478 5.51269C18.4032 6.45986 18.9787 7.58088 19.3743 8.87574C19.7819 10.1706 19.9858 11.5854 19.9858 13.12V14.7925C19.9858 16.4111 19.8239 17.9458 19.5002 19.3965C19.1765 20.8472 18.6789 22.1721 18.0075 23.371C17.3361 24.57 16.4788 25.6071 15.4358 26.4823C14.4047 27.3575 13.1697 28.0349 11.731 28.5145C10.3043 28.9821 8.67369 29.2159 6.8393 29.2159H6.42566V25.3313Z"/>
</mask>
<path d="M6.42566 25.3313V24.1036H5.19794V25.3313H6.42566ZM10.6879 24.7378L10.2653 23.5851L10.2611 23.5867L10.6879 24.7378ZM13.2956 23.0653L12.3912 22.235L12.3906 22.2357L13.2956 23.0653ZM14.7524 20.4576L13.5783 20.0985L13.5756 20.1074L14.7524 20.4576ZM14.9142 9.68503L13.7276 10.0002L13.7289 10.0049L14.9142 9.68503ZM14.051 7.76072L13.0441 8.4632L13.0495 8.47099L13.0551 8.47869L14.051 7.76072ZM12.7741 6.60973L12.1936 7.69155L12.204 7.6971L12.2144 7.70245L12.7741 6.60973ZM8.31401 7.83265L7.29246 7.15162L7.28865 7.15742L8.31401 7.83265ZM7.55867 9.54115L6.37574 9.21256L6.3729 9.22278L6.37024 9.23304L7.55867 9.54115ZM7.54069 13.5876L6.34831 13.8801L6.3509 13.8906L6.35368 13.9012L7.54069 13.5876ZM8.27804 15.2781L7.25268 15.9534L7.25836 15.962L7.26418 15.9705L8.27804 15.2781ZM9.53693 16.4471L8.92781 17.5131L8.93748 17.5186L8.94724 17.5239L9.53693 16.4471ZM13.0259 16.501L13.5437 17.6143L13.5547 17.609L13.0259 16.501ZM14.3927 15.5119L15.2867 16.3534L15.2928 16.3469L15.2988 16.3403L14.3927 15.5119ZM15.2739 14.1271L14.1414 13.6531L14.1386 13.6598L14.1359 13.6665L15.2739 14.1271ZM15.6336 12.5625L16.1187 11.4347L14.4877 10.7332L14.4071 12.5068L15.6336 12.5625ZM17.3061 13.2819H18.5338V12.4735L17.7912 12.154L17.3061 13.2819ZM16.7486 15.8716L15.6235 15.3803L15.6205 15.387L15.6177 15.3938L16.7486 15.8716ZM15.2199 18.1916L14.3291 17.3468L14.3287 17.3472L15.2199 18.1916ZM12.9539 19.8461L13.4782 20.9564L13.4907 20.9503L12.9539 19.8461ZM6.89325 19.7742L6.36107 20.8806L6.89325 19.7742ZM4.50135 17.8858L3.53301 18.6406L3.53917 18.6485L3.54545 18.6563L4.50135 17.8858ZM3.06262 15.0803L1.88776 15.4367L1.8889 15.4404L3.06262 15.0803ZM3.17052 8.1204L4.32616 8.53492L4.32756 8.53096L3.17052 8.1204ZM4.87902 5.18897L3.9607 4.37412L3.95996 4.37495L4.87902 5.18897ZM7.61262 3.19273L8.11594 4.3126L8.12632 4.30781L7.61262 3.19273ZM17.6478 5.51269L16.6833 6.27228L16.6879 6.27816L17.6478 5.51269ZM19.3743 8.87574L18.2001 9.23452L18.2032 9.24441L19.3743 8.87574ZM19.5002 19.3965L18.3019 19.1291L19.5002 19.3965ZM15.4358 26.4823L14.6466 25.5418L14.6413 25.5463L15.4358 26.4823ZM11.731 28.5145L12.1134 29.6812L12.1193 29.6792L11.731 28.5145ZM6.42566 29.2159H5.19794V30.4436H6.42566V29.2159ZM6.42566 25.3313V26.559H6.76736V25.3313V24.1036H6.42566V25.3313ZM6.76736 25.3313V26.559C8.41085 26.559 9.87176 26.3498 11.1148 25.889L10.6879 24.7378L10.2611 23.5867C9.36997 23.9171 8.21717 24.1036 6.76736 24.1036V25.3313ZM10.6879 24.7378L11.1106 25.8905C12.3412 25.4393 13.3869 24.7826 14.2007 23.8949L13.2956 23.0653L12.3906 22.2357C11.8855 22.7867 11.1927 23.2451 10.2653 23.5851L10.6879 24.7378ZM13.2956 23.0653L14.2 23.8956C15.0048 23.0189 15.5794 21.9828 15.9291 20.8078L14.7524 20.4576L13.5756 20.1074C13.3259 20.9466 12.9293 21.6489 12.3912 22.235L13.2956 23.0653ZM14.7524 20.4576L15.9264 20.8167C16.2788 19.6644 16.4477 18.4143 16.4477 17.0765H15.2199H13.9922C13.9922 18.2086 13.8493 19.2125 13.5783 20.0985L14.7524 20.4576ZM15.2199 17.0765H16.4477V12.3287H15.2199H13.9922V17.0765H15.2199ZM15.2199 12.3287H16.4477C16.4477 11.2428 16.3382 10.2497 16.0995 9.36518L14.9142 9.68503L13.7289 10.0049C13.8979 10.6311 13.9922 11.4004 13.9922 12.3287H15.2199ZM14.9142 9.68503L16.1008 9.36984C15.8677 8.49246 15.5249 7.70587 15.0469 7.04274L14.051 7.76072L13.0551 8.47869C13.3204 8.84666 13.5531 9.34295 13.7276 10.0002L14.9142 9.68503ZM14.051 7.76072L15.0579 7.05824C14.5993 6.40098 14.0275 5.87231 13.3338 5.517L12.7741 6.60973L12.2144 7.70245C12.5038 7.8507 12.7833 8.08936 13.0441 8.4632L14.051 7.76072ZM12.7741 6.60973L13.3546 5.52791C12.6826 5.16735 11.9554 4.98635 11.1915 4.98635V6.21408V7.4418C11.5546 7.4418 11.8824 7.52456 12.1936 7.69155L12.7741 6.60973ZM11.1915 6.21408V4.98635C10.3717 4.98635 9.59696 5.17793 8.90528 5.59293L9.53693 6.6457L10.1686 7.69846C10.4361 7.53797 10.7643 7.4418 11.1915 7.4418V6.21408ZM9.53693 6.6457L8.90528 5.59293C8.25732 5.98171 7.7206 6.50945 7.29248 7.15164L8.31401 7.83265L9.33554 8.51367C9.57882 8.14874 9.85739 7.88518 10.1686 7.69846L9.53693 6.6457ZM8.31401 7.83265L7.28865 7.15742C6.88555 7.76953 6.585 8.45921 6.37574 9.21256L7.55867 9.54115L8.7416 9.86975C8.89202 9.32823 9.09503 8.87892 9.33937 8.50789L8.31401 7.83265ZM7.55867 9.54115L6.37024 9.23304C6.17441 9.98838 6.07917 10.7758 6.07917 11.5914H7.30689H8.53461C8.53461 10.9681 8.60723 10.3888 8.7471 9.84927L7.55867 9.54115ZM7.30689 11.5914H6.07917C6.07917 12.3791 6.16754 13.1431 6.34831 13.8801L7.54069 13.5876L8.73306 13.2951C8.6021 12.7612 8.53461 12.1944 8.53461 11.5914H7.30689ZM7.54069 13.5876L6.35368 13.9012C6.55156 14.6503 6.84787 15.3386 7.25268 15.9534L8.27804 15.2781L9.3034 14.6029C9.06078 14.2345 8.86552 13.7958 8.7277 13.2741L7.54069 13.5876ZM8.27804 15.2781L7.26418 15.9705C7.70191 16.6115 8.25845 17.1306 8.92781 17.5131L9.53693 16.4471L10.1461 15.3811C9.8083 15.1881 9.52558 14.9279 9.29189 14.5857L8.27804 15.2781ZM9.53693 16.4471L8.94724 17.5239C9.66004 17.9143 10.4569 18.0885 11.2994 18.0885V16.8607V15.633C10.799 15.633 10.4209 15.5314 10.1266 15.3703L9.53693 16.4471ZM11.2994 16.8607V18.0885C12.0925 18.0885 12.8478 17.9379 13.5436 17.6143L13.0259 16.501L12.5081 15.3878C12.1729 15.5438 11.7771 15.633 11.2994 15.633V16.8607ZM13.0259 16.501L13.5547 17.609C14.2133 17.2947 14.7943 16.8766 15.2867 16.3534L14.3927 15.5119L13.4986 14.6705C13.2237 14.9626 12.8936 15.2038 12.4971 15.3931L13.0259 16.501ZM14.3927 15.5119L15.2988 16.3403C15.7764 15.818 16.1508 15.233 16.4119 14.5878L15.2739 14.1271L14.1359 13.6665C13.9894 14.0284 13.7763 14.3666 13.4866 14.6835L14.3927 15.5119ZM15.2739 14.1271L16.4064 14.6012C16.6746 13.9606 16.8291 13.2979 16.86 12.6183L15.6336 12.5625L14.4071 12.5068C14.3901 12.8822 14.3049 13.2625 14.1414 13.6531L15.2739 14.1271ZM15.6336 12.5625L15.1485 13.6903L16.821 14.4097L17.3061 13.2819L17.7912 12.154L16.1187 11.4347L15.6336 12.5625ZM17.3061 13.2819H16.0784C16.0784 13.9778 15.9317 14.6744 15.6235 15.3803L16.7486 15.8716L17.8738 16.3629C18.3089 15.3663 18.5338 14.3364 18.5338 13.2819H17.3061ZM16.7486 15.8716L15.6177 15.3938C15.3175 16.1043 14.8909 16.7543 14.3291 17.3468L15.2199 18.1916L16.1108 19.0364C16.8678 18.2381 17.4604 17.3414 17.8795 16.3495L16.7486 15.8716ZM15.2199 18.1916L14.3287 17.3472C13.7848 17.9213 13.1502 18.3856 12.4172 18.7419L12.9539 19.8461L13.4907 20.9503C14.4841 20.4674 15.3602 19.8287 16.1112 19.0359L15.2199 18.1916ZM12.9539 19.8461L12.4297 18.7359C11.7374 19.0629 10.9881 19.2299 10.1664 19.2299V20.4576V21.6853C11.3349 21.6853 12.444 21.4446 13.4782 20.9563L12.9539 19.8461ZM10.1664 20.4576V19.2299C9.08369 19.2299 8.17994 19.0307 7.42544 18.6678L6.89325 19.7742L6.36107 20.8806C7.50091 21.4288 8.77924 21.6853 10.1664 21.6853V20.4576ZM6.89325 19.7742L7.42544 18.6678C6.63954 18.2898 5.98797 17.7739 5.45725 17.1154L4.50135 17.8858L3.54545 18.6563C4.3096 19.6044 5.25263 20.3474 6.36107 20.8806L6.89325 19.7742ZM4.50135 17.8858L5.46969 17.1311C4.93224 16.4415 4.51918 15.6421 4.23634 14.7202L3.06262 15.0803L1.8889 15.4404C2.25348 16.6287 2.79958 17.6996 3.53301 18.6406L4.50135 17.8858ZM3.06262 15.0803L4.23746 14.7239C3.95168 13.7819 3.80476 12.7638 3.80476 11.6633H2.57704H1.34932C1.34932 12.9847 1.52612 14.2446 1.88777 15.4367L3.06262 15.0803ZM2.57704 11.6633H3.80476C3.80476 10.5352 3.98163 9.49539 4.32615 8.53492L3.17052 8.1204L2.01489 7.70588C1.5681 8.95148 1.34932 10.2736 1.34932 11.6633H2.57704ZM3.17052 8.1204L4.32756 8.53096C4.67347 7.55613 5.16492 6.71785 5.79808 6.003L4.87902 5.18897L3.95996 4.37495C3.10643 5.33862 2.45888 6.45463 2.01348 7.70984L3.17052 8.1204ZM4.87902 5.18897L5.79735 6.00383C6.43419 5.28611 7.20265 4.723 8.11591 4.31255L7.61262 3.19273L7.10933 2.0729C5.88847 2.62161 4.83453 3.38933 3.9607 4.37412L4.87902 5.18897ZM7.61262 3.19273L8.12632 4.30781C9.01217 3.89972 10.0324 3.6831 11.2095 3.6831V2.45537V1.22765C9.72486 1.22765 8.34721 1.50259 7.09893 2.07764L7.61262 3.19273ZM11.2095 2.45537V3.6831C12.425 3.6831 13.4615 3.91993 14.3472 4.36277L14.8962 3.26466L15.4453 2.16655C14.1729 1.53035 12.7515 1.22765 11.2095 1.22765V2.45537ZM14.8962 3.26466L14.3472 4.36277C15.2625 4.82043 16.0384 5.45341 16.6833 6.27227L17.6478 5.51269L18.6124 4.75311C17.7465 3.65365 16.6881 2.78794 15.4453 2.16655L14.8962 3.26466ZM17.6478 5.51269L16.6879 6.27816C17.3362 7.09105 17.8444 8.07015 18.2002 9.2345L19.3743 8.87574L20.5484 8.51698C20.1129 7.0916 19.4701 5.82867 18.6077 4.74722L17.6478 5.51269ZM19.3743 8.87574L18.2032 9.24441C18.5688 10.4056 18.758 11.6944 18.758 13.12H19.9858H21.2135C21.2135 11.4764 20.9951 9.93564 20.5454 8.50707L19.3743 8.87574ZM19.9858 13.12H18.758V14.7925H19.9858H21.2135V13.12H19.9858ZM19.9858 14.7925H18.758C18.758 16.3291 18.6044 17.7736 18.3019 19.1291L19.5002 19.3965L20.6984 19.6639C21.0434 18.118 21.2135 16.4932 21.2135 14.7925H19.9858ZM19.5002 19.3965L18.3019 19.1291C18.0021 20.4729 17.5449 21.6844 16.9363 22.7712L18.0075 23.371L19.0787 23.9709C19.8129 22.6597 20.3509 21.2216 20.6984 19.6639L19.5002 19.3965ZM18.0075 23.371L16.9363 22.7712C16.3368 23.8416 15.5748 24.763 14.6466 25.5418L15.4358 26.4823L16.2249 27.4228C17.3829 26.4511 18.3354 25.2983 19.0787 23.9709L18.0075 23.371ZM15.4358 26.4823L14.6413 25.5463C13.7434 26.3085 12.6507 26.9138 11.3428 27.3498L11.731 28.5145L12.1193 29.6792C13.6888 29.1561 15.0659 28.4066 16.2303 27.4183L15.4358 26.4823ZM11.731 28.5145L11.3487 27.3478C10.0692 27.7672 8.57155 27.9882 6.8393 27.9882V29.2159V30.4436C8.77583 30.4436 10.5393 30.197 12.1134 29.6812L11.731 28.5145ZM6.8393 29.2159V27.9882H6.42566V29.2159V30.4436H6.8393V29.2159ZM6.42566 29.2159H7.65339V25.3313H6.42566H5.19794V29.2159H6.42566Z" fill="#FFE600" mask="url(#path-1-outside-1_315_104069)"/>
</g>
<mask id="path-3-outside-2_315_104069" maskUnits="userSpaceOnUse" x="1" y="1.01807" width="20" height="29" fill="black">
<rect fill="white" x="1" y="1.01807" width="20" height="29"/>
<path d="M6.42566 25.3313H6.76737C8.31401 25.3313 9.62086 25.1335 10.6879 24.7378C11.767 24.3422 12.6362 23.7847 13.2956 23.0653C13.967 22.3339 14.4526 21.4647 14.7524 20.4576C15.0641 19.4385 15.2199 18.3115 15.2199 17.0765V12.3287C15.2199 11.3216 15.118 10.4404 14.9142 9.68503C14.7104 8.9177 14.4226 8.27627 14.051 7.76072C13.6913 7.24517 13.2657 6.86151 12.7741 6.60973C12.2825 6.34596 11.755 6.21407 11.1915 6.21407C10.568 6.21407 10.0165 6.35795 9.53694 6.6457C9.05736 6.93344 8.64971 7.3291 8.31401 7.83265C7.99029 8.32422 7.73851 8.89372 7.55867 9.54116C7.39082 10.1886 7.30689 10.872 7.30689 11.5914C7.30689 12.2867 7.38482 12.9522 7.54069 13.5876C7.70854 14.223 7.95432 14.7866 8.27804 15.2781C8.61375 15.7697 9.03338 16.1593 9.53694 16.4471C10.0405 16.7229 10.628 16.8607 11.2994 16.8607C11.9348 16.8607 12.5103 16.7408 13.0259 16.501C13.5534 16.2493 14.009 15.9196 14.3927 15.5119C14.7763 15.0923 15.0701 14.6307 15.2739 14.1271C15.4897 13.6116 15.6096 13.09 15.6336 12.5625L17.3061 13.2819C17.3061 14.1571 17.1203 15.0203 16.7486 15.8716C16.3889 16.7229 15.8794 17.4962 15.2199 18.1916C14.5725 18.875 13.8172 19.4265 12.9539 19.8461C12.0907 20.2538 11.1615 20.4576 10.1664 20.4576C8.93147 20.4576 7.84042 20.2298 6.89325 19.7742C5.94609 19.3186 5.14879 18.6891 4.50135 17.8858C3.86591 17.0705 3.38633 16.1354 3.06262 15.0803C2.7389 14.0132 2.57704 12.8742 2.57704 11.6633C2.57704 10.4044 2.77487 9.22343 3.17052 8.1204C3.56617 7.00538 4.13567 6.02824 4.87902 5.18897C5.63436 4.33772 6.54556 3.6723 7.61262 3.19273C8.67969 2.70116 9.87864 2.45537 11.2095 2.45537C12.5883 2.45537 13.8172 2.72514 14.8962 3.26466C15.9753 3.80419 16.8925 4.55353 17.6478 5.51269C18.4032 6.45986 18.9787 7.58088 19.3743 8.87574C19.7819 10.1706 19.9858 11.5854 19.9858 13.12V14.7925C19.9858 16.4111 19.8239 17.9458 19.5002 19.3965C19.1765 20.8472 18.6789 22.1721 18.0075 23.371C17.3361 24.57 16.4788 25.6071 15.4358 26.4823C14.4047 27.3575 13.1697 28.0349 11.731 28.5145C10.3043 28.9821 8.67369 29.2159 6.8393 29.2159H6.42566V25.3313Z"/>
</mask>
<path d="M6.42566 25.3313H6.76737C8.31401 25.3313 9.62086 25.1335 10.6879 24.7378C11.767 24.3422 12.6362 23.7847 13.2956 23.0653C13.967 22.3339 14.4526 21.4647 14.7524 20.4576C15.0641 19.4385 15.2199 18.3115 15.2199 17.0765V12.3287C15.2199 11.3216 15.118 10.4404 14.9142 9.68503C14.7104 8.9177 14.4226 8.27627 14.051 7.76072C13.6913 7.24517 13.2657 6.86151 12.7741 6.60973C12.2825 6.34596 11.755 6.21407 11.1915 6.21407C10.568 6.21407 10.0165 6.35795 9.53694 6.6457C9.05736 6.93344 8.64971 7.3291 8.31401 7.83265C7.99029 8.32422 7.73851 8.89372 7.55867 9.54116C7.39082 10.1886 7.30689 10.872 7.30689 11.5914C7.30689 12.2867 7.38482 12.9522 7.54069 13.5876C7.70854 14.223 7.95432 14.7866 8.27804 15.2781C8.61375 15.7697 9.03338 16.1593 9.53694 16.4471C10.0405 16.7229 10.628 16.8607 11.2994 16.8607C11.9348 16.8607 12.5103 16.7408 13.0259 16.501C13.5534 16.2493 14.009 15.9196 14.3927 15.5119C14.7763 15.0923 15.0701 14.6307 15.2739 14.1271C15.4897 13.6116 15.6096 13.09 15.6336 12.5625L17.3061 13.2819C17.3061 14.1571 17.1203 15.0203 16.7486 15.8716C16.3889 16.7229 15.8794 17.4962 15.2199 18.1916C14.5725 18.875 13.8172 19.4265 12.9539 19.8461C12.0907 20.2538 11.1615 20.4576 10.1664 20.4576C8.93147 20.4576 7.84042 20.2298 6.89325 19.7742C5.94609 19.3186 5.14879 18.6891 4.50135 17.8858C3.86591 17.0705 3.38633 16.1354 3.06262 15.0803C2.7389 14.0132 2.57704 12.8742 2.57704 11.6633C2.57704 10.4044 2.77487 9.22343 3.17052 8.1204C3.56617 7.00538 4.13567 6.02824 4.87902 5.18897C5.63436 4.33772 6.54556 3.6723 7.61262 3.19273C8.67969 2.70116 9.87864 2.45537 11.2095 2.45537C12.5883 2.45537 13.8172 2.72514 14.8962 3.26466C15.9753 3.80419 16.8925 4.55353 17.6478 5.51269C18.4032 6.45986 18.9787 7.58088 19.3743 8.87574C19.7819 10.1706 19.9858 11.5854 19.9858 13.12V14.7925C19.9858 16.4111 19.8239 17.9458 19.5002 19.3965C19.1765 20.8472 18.6789 22.1721 18.0075 23.371C17.3361 24.57 16.4788 25.6071 15.4358 26.4823C14.4047 27.3575 13.1697 28.0349 11.731 28.5145C10.3043 28.9821 8.67369 29.2159 6.8393 29.2159H6.42566V25.3313Z" fill="#7100F1"/>
<path d="M6.42566 25.3313H6.76737C8.31401 25.3313 9.62086 25.1335 10.6879 24.7378C11.767 24.3422 12.6362 23.7847 13.2956 23.0653C13.967 22.3339 14.4526 21.4647 14.7524 20.4576C15.0641 19.4385 15.2199 18.3115 15.2199 17.0765V12.3287C15.2199 11.3216 15.118 10.4404 14.9142 9.68503C14.7104 8.9177 14.4226 8.27627 14.051 7.76072C13.6913 7.24517 13.2657 6.86151 12.7741 6.60973C12.2825 6.34596 11.755 6.21407 11.1915 6.21407C10.568 6.21407 10.0165 6.35795 9.53694 6.6457C9.05736 6.93344 8.64971 7.3291 8.31401 7.83265C7.99029 8.32422 7.73851 8.89372 7.55867 9.54116C7.39082 10.1886 7.30689 10.872 7.30689 11.5914C7.30689 12.2867 7.38482 12.9522 7.54069 13.5876C7.70854 14.223 7.95432 14.7866 8.27804 15.2781C8.61375 15.7697 9.03338 16.1593 9.53694 16.4471C10.0405 16.7229 10.628 16.8607 11.2994 16.8607C11.9348 16.8607 12.5103 16.7408 13.0259 16.501C13.5534 16.2493 14.009 15.9196 14.3927 15.5119C14.7763 15.0923 15.0701 14.6307 15.2739 14.1271C15.4897 13.6116 15.6096 13.09 15.6336 12.5625L17.3061 13.2819C17.3061 14.1571 17.1203 15.0203 16.7486 15.8716C16.3889 16.7229 15.8794 17.4962 15.2199 18.1916C14.5725 18.875 13.8172 19.4265 12.9539 19.8461C12.0907 20.2538 11.1615 20.4576 10.1664 20.4576C8.93147 20.4576 7.84042 20.2298 6.89325 19.7742C5.94609 19.3186 5.14879 18.6891 4.50135 17.8858C3.86591 17.0705 3.38633 16.1354 3.06262 15.0803C2.7389 14.0132 2.57704 12.8742 2.57704 11.6633C2.57704 10.4044 2.77487 9.22343 3.17052 8.1204C3.56617 7.00538 4.13567 6.02824 4.87902 5.18897C5.63436 4.33772 6.54556 3.6723 7.61262 3.19273C8.67969 2.70116 9.87864 2.45537 11.2095 2.45537C12.5883 2.45537 13.8172 2.72514 14.8962 3.26466C15.9753 3.80419 16.8925 4.55353 17.6478 5.51269C18.4032 6.45986 18.9787 7.58088 19.3743 8.87574C19.7819 10.1706 19.9858 11.5854 19.9858 13.12V14.7925C19.9858 16.4111 19.8239 17.9458 19.5002 19.3965C19.1765 20.8472 18.6789 22.1721 18.0075 23.371C17.3361 24.57 16.4788 25.6071 15.4358 26.4823C14.4047 27.3575 13.1697 28.0349 11.731 28.5145C10.3043 28.9821 8.67369 29.2159 6.8393 29.2159H6.42566V25.3313Z" fill="url(#paint0_linear_315_104069)"/>
<path d="M6.42566 25.3313H6.76737C8.31401 25.3313 9.62086 25.1335 10.6879 24.7378C11.767 24.3422 12.6362 23.7847 13.2956 23.0653C13.967 22.3339 14.4526 21.4647 14.7524 20.4576C15.0641 19.4385 15.2199 18.3115 15.2199 17.0765V12.3287C15.2199 11.3216 15.118 10.4404 14.9142 9.68503C14.7104 8.9177 14.4226 8.27627 14.051 7.76072C13.6913 7.24517 13.2657 6.86151 12.7741 6.60973C12.2825 6.34596 11.755 6.21407 11.1915 6.21407C10.568 6.21407 10.0165 6.35795 9.53694 6.6457C9.05736 6.93344 8.64971 7.3291 8.31401 7.83265C7.99029 8.32422 7.73851 8.89372 7.55867 9.54116C7.39082 10.1886 7.30689 10.872 7.30689 11.5914C7.30689 12.2867 7.38482 12.9522 7.54069 13.5876C7.70854 14.223 7.95432 14.7866 8.27804 15.2781C8.61375 15.7697 9.03338 16.1593 9.53694 16.4471C10.0405 16.7229 10.628 16.8607 11.2994 16.8607C11.9348 16.8607 12.5103 16.7408 13.0259 16.501C13.5534 16.2493 14.009 15.9196 14.3927 15.5119C14.7763 15.0923 15.0701 14.6307 15.2739 14.1271C15.4897 13.6116 15.6096 13.09 15.6336 12.5625L17.3061 13.2819C17.3061 14.1571 17.1203 15.0203 16.7486 15.8716C16.3889 16.7229 15.8794 17.4962 15.2199 18.1916C14.5725 18.875 13.8172 19.4265 12.9539 19.8461C12.0907 20.2538 11.1615 20.4576 10.1664 20.4576C8.93147 20.4576 7.84042 20.2298 6.89325 19.7742C5.94609 19.3186 5.14879 18.6891 4.50135 17.8858C3.86591 17.0705 3.38633 16.1354 3.06262 15.0803C2.7389 14.0132 2.57704 12.8742 2.57704 11.6633C2.57704 10.4044 2.77487 9.22343 3.17052 8.1204C3.56617 7.00538 4.13567 6.02824 4.87902 5.18897C5.63436 4.33772 6.54556 3.6723 7.61262 3.19273C8.67969 2.70116 9.87864 2.45537 11.2095 2.45537C12.5883 2.45537 13.8172 2.72514 14.8962 3.26466C15.9753 3.80419 16.8925 4.55353 17.6478 5.51269C18.4032 6.45986 18.9787 7.58088 19.3743 8.87574C19.7819 10.1706 19.9858 11.5854 19.9858 13.12V14.7925C19.9858 16.4111 19.8239 17.9458 19.5002 19.3965C19.1765 20.8472 18.6789 22.1721 18.0075 23.371C17.3361 24.57 16.4788 25.6071 15.4358 26.4823C14.4047 27.3575 13.1697 28.0349 11.731 28.5145C10.3043 28.9821 8.67369 29.2159 6.8393 29.2159H6.42566V25.3313Z" fill="url(#paint1_linear_315_104069)"/>
<path d="M6.42566 25.3313V24.7174H5.8118V25.3313H6.42566ZM10.6879 24.7378L10.4766 24.1615L10.4745 24.1623L10.6879 24.7378ZM13.2956 23.0653L12.8434 22.6502L12.8431 22.6505L13.2956 23.0653ZM14.7524 20.4576L14.1653 20.278L14.164 20.2825L14.7524 20.4576ZM14.9142 9.68503L14.3209 9.84262L14.3216 9.84495L14.9142 9.68503ZM14.051 7.76072L13.5475 8.112L13.553 8.11971L14.051 7.76072ZM12.7741 6.60973L12.4838 7.15074L12.4943 7.15609L12.7741 6.60973ZM8.31401 7.83265L7.80324 7.49214L7.80133 7.49504L8.31401 7.83265ZM7.55867 9.54115L6.96712 9.37683L6.96445 9.3871L7.55867 9.54115ZM7.54069 13.5876L6.9444 13.7339L6.94718 13.7444L7.54069 13.5876ZM8.27804 15.2781L7.76529 15.6158L7.77111 15.6243L8.27804 15.2781ZM9.53693 16.4471L9.23232 16.9802L9.24209 16.9855L9.53693 16.4471ZM13.0259 16.501L13.2848 17.0577L13.2903 17.055L13.0259 16.501ZM14.3927 15.5119L14.8397 15.9327L14.8457 15.9261L14.3927 15.5119ZM15.2739 14.1271L14.7076 13.8901L14.7049 13.8968L15.2739 14.1271ZM15.6336 12.5625L15.8761 11.9986L15.0607 11.6479L15.0204 12.5346L15.6336 12.5625ZM17.3061 13.2819H17.92V12.8777L17.5487 12.718L17.3061 13.2819ZM16.7486 15.8716L16.186 15.626L16.1832 15.6327L16.7486 15.8716ZM15.2199 18.1916L14.7745 17.7692L14.7743 17.7694L15.2199 18.1916ZM12.9539 19.8461L13.2161 20.4012L13.2223 20.3982L12.9539 19.8461ZM6.89325 19.7742L6.62716 20.3274L6.89325 19.7742ZM4.50135 17.8858L4.01712 18.2633L4.0234 18.271L4.50135 17.8858ZM3.06262 15.0803L2.47519 15.2585L2.47576 15.2604L3.06262 15.0803ZM3.17052 8.1204L3.74834 8.32766L3.74904 8.32568L3.17052 8.1204ZM4.87902 5.18897L4.41986 4.78155L4.41949 4.78196L4.87902 5.18897ZM7.61262 3.19273L7.86428 3.75266L7.86947 3.75027L7.61262 3.19273ZM17.6478 5.51269L17.1655 5.89249L17.1679 5.89542L17.6478 5.51269ZM19.3743 8.87574L18.7872 9.05513L18.7888 9.06007L19.3743 8.87574ZM19.5002 19.3965L18.9011 19.2628L19.5002 19.3965ZM15.4358 26.4823L15.0412 26.012L15.0385 26.0143L15.4358 26.4823ZM11.731 28.5145L11.9222 29.0978L11.9251 29.0969L11.731 28.5145ZM6.42566 29.2159H5.8118V29.8298H6.42566V29.2159ZM6.42566 25.3313V25.9452H6.76736V25.3313V24.7174H6.42566V25.3313ZM6.76736 25.3313V25.9452C8.36243 25.9452 9.74631 25.7417 10.9013 25.3134L10.6879 24.7378L10.4745 24.1623C9.49541 24.5253 8.26559 24.7174 6.76736 24.7174V25.3313ZM10.6879 24.7378L10.8993 25.3142C12.0541 24.8907 13.0116 24.2836 13.7481 23.4801L13.2956 23.0653L12.8431 22.6505C12.2609 23.2857 11.4798 23.7936 10.4766 24.1615L10.6879 24.7378ZM13.2956 23.0653L13.7478 23.4804C14.4859 22.6764 15.016 21.7238 15.3407 20.6327L14.7524 20.4576L14.164 20.2825C13.8893 21.2056 13.4482 21.9914 12.8434 22.6502L13.2956 23.0653ZM14.7524 20.4576L15.3394 20.6371C15.6715 19.5515 15.8338 18.3629 15.8338 17.0765H15.2199H14.6061C14.6061 18.26 14.4567 19.3255 14.1653 20.278L14.7524 20.4576ZM15.2199 17.0765H15.8338V12.3287H15.2199H14.6061V17.0765H15.2199ZM15.2199 12.3287H15.8338C15.8338 11.2822 15.7281 10.345 15.5069 9.5251L14.9142 9.68503L14.3216 9.84495C14.5079 10.5357 14.6061 11.361 14.6061 12.3287H15.2199ZM14.9142 9.68503L15.5075 9.52744C15.2891 8.70508 14.9738 7.99107 14.5489 7.40173L14.051 7.76072L13.553 8.11971C13.8715 8.56146 14.1317 9.13032 14.3209 9.84262L14.9142 9.68503ZM14.051 7.76072L14.5544 7.40948C14.1453 6.82308 13.6466 6.36691 13.0539 6.06336L12.7741 6.60973L12.4943 7.15609C12.8848 7.35611 13.2373 7.66726 13.5475 8.11196L14.051 7.76072ZM12.7741 6.60973L13.0643 6.06882C12.4826 5.75666 11.8552 5.60021 11.1915 5.60021V6.21408V6.82794C11.6548 6.82794 12.0825 6.93526 12.4839 7.15064L12.7741 6.60973ZM11.1915 6.21408V5.60021C10.4699 5.60021 9.80674 5.76794 9.22111 6.11931L9.53693 6.6457L9.85276 7.17208C10.2263 6.94796 10.6662 6.82794 11.1915 6.82794V6.21408ZM9.53693 6.6457L9.22111 6.11931C8.65734 6.45757 8.18516 6.91927 7.80324 7.49215L8.31401 7.83265L8.82477 8.17316C9.11427 7.73892 9.45738 7.40931 9.85276 7.17208L9.53693 6.6457ZM8.31401 7.83265L7.80133 7.49504C7.43792 8.04688 7.16176 8.67647 6.9672 9.37686L7.55867 9.54115L8.15014 9.70545C8.31527 9.11098 8.54266 8.60157 8.82669 8.17027L8.31401 7.83265ZM7.55867 9.54115L6.96445 9.3871C6.78261 10.0885 6.69303 10.8239 6.69303 11.5914H7.30689H7.92075C7.92075 10.9201 7.99902 10.2887 8.15289 9.69521L7.55867 9.54115ZM7.30689 11.5914H6.69303C6.69303 12.3329 6.77618 13.0476 6.9445 13.7338L7.54069 13.5876L8.13688 13.4414C7.99346 12.8567 7.92075 12.2405 7.92075 11.5914H7.30689ZM7.54069 13.5876L6.94718 13.7444C7.13005 14.4367 7.40109 15.0626 7.76536 15.6157L8.27804 15.2781L8.79072 14.9405C8.50755 14.5105 8.28703 14.0094 8.13419 13.4308L7.54069 13.5876ZM8.27804 15.2781L7.77111 15.6243C8.15783 16.1906 8.64592 16.645 9.23237 16.9801L9.53693 16.4471L9.8415 15.9141C9.42084 15.6737 9.06966 15.3488 8.78497 14.9319L8.27804 15.2781ZM9.53693 16.4471L9.24209 16.9855C9.85027 17.3186 10.5425 17.4746 11.2994 17.4746V16.8607V16.2469C10.7135 16.2469 10.2307 16.1271 9.83178 15.9087L9.53693 16.4471ZM11.2994 16.8607V17.4746C12.0137 17.4746 12.679 17.3394 13.2848 17.0576L13.0259 16.501L12.767 15.9444C12.3416 16.1423 11.856 16.2469 11.2994 16.2469V16.8607ZM13.0259 16.501L13.2903 17.055C13.8833 16.772 14.4016 16.3981 14.8397 15.9326L14.3927 15.5119L13.9457 15.0912C13.6164 15.4411 13.2235 15.7265 12.7615 15.9471L13.0259 16.501ZM14.3927 15.5119L14.8457 15.9261C15.2763 15.4551 15.6104 14.9318 15.8429 14.3574L15.2739 14.1271L14.7049 13.8968C14.5297 14.3295 14.2763 14.7294 13.9396 15.0977L14.3927 15.5119ZM15.2739 14.1271L15.8402 14.3642C16.0821 13.7861 16.2194 13.194 16.2468 12.5904L15.6336 12.5625L15.0204 12.5346C14.9998 12.9861 14.8973 13.4371 14.7077 13.8901L15.2739 14.1271ZM15.6336 12.5625L15.391 13.1264L17.0636 13.8458L17.3061 13.2819L17.5487 12.718L15.8761 11.9986L15.6336 12.5625ZM17.3061 13.2819H16.6923C16.6923 14.0675 16.526 14.8474 16.186 15.626L16.7486 15.8716L17.3112 16.1172C17.7146 15.1933 17.92 14.2468 17.92 13.2819H17.3061ZM16.7486 15.8716L16.1832 15.6327C15.8532 16.4136 15.3851 17.1252 14.7745 17.7692L15.2199 18.1916L15.6654 18.614C16.3736 17.8671 16.9246 17.0321 17.3141 16.1105L16.7486 15.8716ZM15.2199 18.1916L14.7743 17.7694C14.1787 18.3981 13.4837 18.906 12.6856 19.294L12.9539 19.8461L13.2223 20.3982C14.1506 19.9469 14.9664 19.3518 15.6656 18.6137L15.2199 18.1916ZM12.9539 19.8461L12.6918 19.291C11.914 19.6583 11.0748 19.8437 10.1664 19.8437V20.4576V21.0714C11.2482 21.0714 12.2674 20.8492 13.2161 20.4012L12.9539 19.8461ZM10.1664 20.4576V19.8437C9.00758 19.8437 8.01018 19.6302 7.15935 19.221L6.89325 19.7742L6.62716 20.3274C7.67067 20.8293 8.85535 21.0714 10.1664 21.0714V20.4576ZM6.89325 19.7742L7.15935 19.221C6.29281 18.8042 5.56838 18.2315 4.9793 17.5006L4.50135 17.8858L4.0234 18.271C4.72919 19.1467 5.59936 19.833 6.62716 20.3274L6.89325 19.7742ZM4.50135 17.8858L4.98552 17.5085C4.39907 16.756 3.95276 15.8887 3.64948 14.9002L3.06262 15.0803L2.47576 15.2604C2.81991 16.382 3.33275 17.3851 4.01718 18.2632L4.50135 17.8858ZM3.06262 15.0803L3.65004 14.9021C3.34529 13.8975 3.1909 12.819 3.1909 11.6633H2.57704H1.96318C1.96318 12.9294 2.13251 14.1289 2.47519 15.2585L3.06262 15.0803ZM2.57704 11.6633H3.1909C3.1909 10.4698 3.37825 9.35941 3.74834 8.32766L3.17052 8.1204L2.59271 7.91314C2.17149 9.08746 1.96318 10.339 1.96318 11.6633H2.57704ZM3.17052 8.1204L3.74904 8.32568C4.11982 7.28075 4.6503 6.37304 5.33855 5.59599L4.87902 5.18897L4.41949 4.78196C3.62105 5.68343 3.01253 6.73001 2.592 7.91512L3.17052 8.1204ZM4.87902 5.18897L5.33818 5.5964C6.03428 4.81191 6.87411 4.19765 7.86427 3.75264L7.61262 3.19273L7.36098 2.63281C6.21701 3.14696 5.23444 3.86353 4.41986 4.78155L4.87902 5.18897ZM7.61262 3.19273L7.86947 3.75027C8.84593 3.30044 9.95552 3.06923 11.2095 3.06923V2.45537V1.84151C9.80175 1.84151 8.51345 2.10187 7.35578 2.63518L7.61262 3.19273ZM11.2095 2.45537V3.06923C12.5066 3.06923 13.6393 3.32253 14.6217 3.81372L14.8962 3.26466L15.1708 2.71561C13.995 2.12774 12.6699 1.84151 11.2095 1.84151V2.45537ZM14.8962 3.26466L14.6217 3.81372C15.6189 4.31231 16.4655 5.00347 17.1655 5.89248L17.6478 5.51269L18.1301 5.1329C17.3195 4.10359 16.3317 3.29607 15.1708 2.71561L14.8962 3.26466ZM17.6478 5.51269L17.1679 5.89542C17.8697 6.77546 18.4115 7.82551 18.7872 9.05512L19.3743 8.87574L19.9614 8.69636C19.5458 7.33624 18.9366 6.14426 18.1278 5.12996L17.6478 5.51269ZM19.3743 8.87574L18.7888 9.06007C19.1754 10.2881 19.3719 11.6399 19.3719 13.12H19.9858H20.5996C20.5996 11.5309 20.3885 10.0531 19.9598 8.6914L19.3743 8.87574ZM19.9858 13.12H19.3719V14.7925H19.9858H20.5996V13.12H19.9858ZM19.9858 14.7925H19.3719C19.3719 16.3701 19.2142 17.8597 18.9011 19.2628L19.5002 19.3965L20.0993 19.5302C20.4337 18.0319 20.5996 16.4522 20.5996 14.7925H19.9858ZM19.5002 19.3965L18.9011 19.2628C18.5893 20.6601 18.1119 21.9282 17.4719 23.0711L18.0075 23.371L18.5431 23.671C19.2459 22.4159 19.7637 21.0344 20.0993 19.5302L19.5002 19.3965ZM18.0075 23.371L17.4719 23.0711C16.8365 24.2058 16.0268 25.185 15.0412 26.012L15.4358 26.4823L15.8303 26.9525C16.9309 26.0291 17.8357 24.9341 18.5431 23.671L18.0075 23.371ZM15.4358 26.4823L15.0385 26.0143C14.074 26.833 12.9102 27.4744 11.5369 27.9321L11.731 28.5145L11.9251 29.0969C13.4293 28.5955 14.7353 27.8821 15.833 26.9503L15.4358 26.4823ZM11.731 28.5145L11.5398 27.9312C10.1867 28.3746 8.62262 28.602 6.8393 28.602V29.2159V29.8298C8.72476 29.8298 10.4218 29.5896 11.9222 29.0978L11.731 28.5145ZM6.8393 29.2159V28.602H6.42566V29.2159V29.8298H6.8393V29.2159ZM6.42566 29.2159H7.03953V25.3313H6.42566H5.8118V29.2159H6.42566Z" fill="#535353" mask="url(#path-3-outside-2_315_104069)"/>
<defs>
<filter id="filter0_d_315_104069" x="0.121887" y="-0.000183702" width="22.3187" height="31.6718" filterUnits="userSpaceOnUse" color-interpolation-filters="sRGB">
<feFlood flood-opacity="0" result="BackgroundImageFix"/>
<feColorMatrix in="SourceAlpha" type="matrix" values="0 0 0 0 0 0 0 0 0 0 0 0 0 0 0 0 0 0 127 0" result="hardAlpha"/>
<feOffset/>
<feGaussianBlur stdDeviation="0.613861"/>
<feComposite in2="hardAlpha" operator="out"/>
<feColorMatrix type="matrix" values="0 0 0 0 1 0 0 0 0 0.901961 0 0 0 0 0 0 0 0 1 0"/>
<feBlend mode="normal" in2="BackgroundImageFix" result="effect1_dropShadow_315_104069"/>
<feBlend mode="normal" in="SourceGraphic" in2="effect1_dropShadow_315_104069" result="shape"/>
</filter>
<linearGradient id="paint0_linear_315_104069" x1="11" y1="3.01807" x2="11" y2="29.0181" gradientUnits="userSpaceOnUse">
<stop offset="0.0327765" stop-color="#007BFF"/>
<stop offset="0.208385" stop-color="#007BFF"/>
<stop offset="0.4375" stop-color="#007BFF"/>
<stop offset="0.707725" stop-color="#007BFF"/>
<stop offset="0.952043" stop-color="#007BFF"/>
</linearGradient>
<linearGradient id="paint1_linear_315_104069" x1="11" y1="3.01807" x2="11" y2="29.0181" gradientUnits="userSpaceOnUse">
<stop offset="0.0327765" stop-color="#007BFF"/>
<stop offset="0.208385" stop-color="#007BFF"/>
<stop offset="0.466648" stop-color="#C1F4FF"/>
<stop offset="0.707725" stop-color="#007BFF"/>
<stop offset="0.952043" stop-color="#007BFF"/>
</linearGradient>
</defs>
</svg>
