<svg width="18" height="31" viewBox="0 0 18 31" fill="none" xmlns="http://www.w3.org/2000/svg">
<g filter="url(#filter0_d_301_102883)">
<path d="M6.51562 12.7969H8.84375C9.66667 12.7969 10.3438 12.6562 10.875 12.375C11.4167 12.0833 11.8177 11.6875 12.0781 11.1875C12.349 10.6771 12.4844 10.0885 12.4844 9.42188C12.4844 8.76562 12.3646 8.19792 12.125 7.71875C11.8854 7.22917 11.5208 6.85417 11.0312 6.59375C10.5521 6.32292 9.9375 6.1875 9.1875 6.1875C8.58333 6.1875 8.02604 6.30729 7.51562 6.54688C7.01562 6.78646 6.61458 7.13021 6.3125 7.57812C6.02083 8.01562 5.875 8.54167 5.875 9.15625H1.73438C1.73438 7.92708 2.05729 6.84896 2.70312 5.92188C3.35938 4.98438 4.24479 4.25 5.35938 3.71875C6.47396 3.1875 7.71875 2.92188 9.09375 2.92188C10.5938 2.92188 11.9062 3.17188 13.0312 3.67188C14.1667 4.16146 15.0469 4.88542 15.6719 5.84375C16.3073 6.80208 16.625 7.98958 16.625 9.40625C16.625 10.0833 16.4635 10.7604 16.1406 11.4375C15.8281 12.1042 15.3646 12.7083 14.75 13.25C14.1458 13.7812 13.401 14.2135 12.5156 14.5469C11.6406 14.8698 10.6354 15.0312 9.5 15.0312H6.51562V12.7969ZM6.51562 15.9844V13.7812H9.5C10.7812 13.7812 11.8906 13.9323 12.8281 14.2344C13.776 14.526 14.5573 14.9427 15.1719 15.4844C15.7865 16.0156 16.2396 16.6354 16.5312 17.3438C16.8333 18.0521 16.9844 18.8125 16.9844 19.625C16.9844 20.6875 16.7865 21.6354 16.3906 22.4688C15.9948 23.2917 15.4375 23.9896 14.7188 24.5625C14.0104 25.1354 13.1771 25.5729 12.2188 25.875C11.2604 26.1667 10.224 26.3125 9.10938 26.3125C8.14062 26.3125 7.19792 26.1823 6.28125 25.9219C5.375 25.651 4.55729 25.25 3.82812 24.7188C3.09896 24.1771 2.52083 23.5 2.09375 22.6875C1.66667 21.8646 1.45312 20.9115 1.45312 19.8281H5.59375C5.59375 20.4531 5.74479 21.0104 6.04688 21.5C6.35938 21.9896 6.78646 22.375 7.32812 22.6562C7.88021 22.9271 8.5 23.0625 9.1875 23.0625C9.94792 23.0625 10.599 22.9271 11.1406 22.6562C11.6927 22.375 12.1146 21.9792 12.4062 21.4688C12.6979 20.9479 12.8438 20.3281 12.8438 19.6094C12.8438 18.7552 12.6823 18.0625 12.3594 17.5312C12.0365 17 11.5729 16.6094 10.9688 16.3594C10.375 16.1094 9.66667 15.9844 8.84375 15.9844H6.51562Z" fill="white"/>
</g>
<defs>
<filter id="filter0_d_301_102883" x="1.45312" y="1.92188" width="15.5312" height="24.3906" filterUnits="userSpaceOnUse" color-interpolation-filters="sRGB">
<feFlood flood-opacity="0" result="BackgroundImageFix"/>
<feColorMatrix in="SourceAlpha" type="matrix" values="0 0 0 0 0 0 0 0 0 0 0 0 0 0 0 0 0 0 127 0" result="hardAlpha"/>
<feOffset dy="-1"/>
<feColorMatrix type="matrix" values="0 0 0 0 0 0 0 0 0 0 0 0 0 0 0 0 0 0 0.25 0"/>
<feBlend mode="normal" in2="BackgroundImageFix" result="effect1_dropShadow_301_102883"/>
<feBlend mode="normal" in="SourceGraphic" in2="effect1_dropShadow_301_102883" result="shape"/>
</filter>
</defs>
</svg>
