<svg width="18" height="31" viewBox="0 0 18 31" fill="none" xmlns="http://www.w3.org/2000/svg">
<g filter="url(#filter0_d_301_102887)">
<path d="M5.09375 15.5312L1.79688 14.7344L3.0625 3.25H15.5781V6.67188H6.48438L5.89062 11.9844C6.21354 11.7865 6.68229 11.5885 7.29688 11.3906C7.92188 11.1823 8.625 11.0781 9.40625 11.0781C10.4896 11.0781 11.4583 11.2552 12.3125 11.6094C13.1667 11.9531 13.8906 12.4531 14.4844 13.1094C15.0885 13.7656 15.5417 14.5677 15.8438 15.5156C16.1562 16.4531 16.3125 17.5156 16.3125 18.7031C16.3125 19.7448 16.1562 20.724 15.8438 21.6406C15.5417 22.5469 15.0781 23.3542 14.4531 24.0625C13.8281 24.7604 13.0417 25.3125 12.0938 25.7188C11.1458 26.1146 10.0312 26.3125 8.75 26.3125C7.78125 26.3125 6.84896 26.1719 5.95312 25.8906C5.06771 25.599 4.27083 25.1771 3.5625 24.625C2.85417 24.0625 2.28646 23.375 1.85938 22.5625C1.44271 21.75 1.21354 20.8177 1.17188 19.7656H5.25C5.32292 20.4635 5.51042 21.0573 5.8125 21.5469C6.11458 22.0365 6.51042 22.4115 7 22.6719C7.5 22.9323 8.07812 23.0625 8.73438 23.0625C9.32812 23.0625 9.83854 22.9531 10.2656 22.7344C10.7031 22.5052 11.0625 22.1875 11.3438 21.7812C11.625 21.375 11.8333 20.8958 11.9688 20.3438C12.1042 19.7917 12.1719 19.1875 12.1719 18.5312C12.1719 17.8958 12.0938 17.3177 11.9375 16.7969C11.7812 16.2656 11.5417 15.8073 11.2188 15.4219C10.8958 15.0365 10.4896 14.7396 10 14.5312C9.52083 14.3229 8.95833 14.2188 8.3125 14.2188C7.44792 14.2188 6.78125 14.349 6.3125 14.6094C5.85417 14.8698 5.44792 15.1771 5.09375 15.5312Z" fill="white"/>
</g>
<defs>
<filter id="filter0_d_301_102887" x="1.17188" y="2.25" width="15.1406" height="24.0625" filterUnits="userSpaceOnUse" color-interpolation-filters="sRGB">
<feFlood flood-opacity="0" result="BackgroundImageFix"/>
<feColorMatrix in="SourceAlpha" type="matrix" values="0 0 0 0 0 0 0 0 0 0 0 0 0 0 0 0 0 0 127 0" result="hardAlpha"/>
<feOffset dy="-1"/>
<feColorMatrix type="matrix" values="0 0 0 0 0 0 0 0 0 0 0 0 0 0 0 0 0 0 0.25 0"/>
<feBlend mode="normal" in2="BackgroundImageFix" result="effect1_dropShadow_301_102887"/>
<feBlend mode="normal" in="SourceGraphic" in2="effect1_dropShadow_301_102887" result="shape"/>
</filter>
</defs>
</svg>
