<svg width="18" height="31" viewBox="0 0 18 31" fill="none" xmlns="http://www.w3.org/2000/svg">
<g filter="url(#filter0_d_301_102889)">
<path d="M12.4844 3.0625H13.0469V6.39062H12.7812C11.5208 6.39062 10.4115 6.58333 9.45312 6.96875C8.50521 7.35417 7.71354 7.89583 7.07812 8.59375C6.45312 9.28125 5.97917 10.099 5.65625 11.0469C5.33333 11.9844 5.17188 13.0104 5.17188 14.125V17.8125C5.17188 18.6771 5.26042 19.4375 5.4375 20.0938C5.625 20.7396 5.88021 21.2865 6.20312 21.7344C6.53646 22.1719 6.92188 22.5 7.35938 22.7188C7.80729 22.9375 8.29688 23.0469 8.82812 23.0469C9.35938 23.0469 9.83854 22.9375 10.2656 22.7188C10.6927 22.5 11.0573 22.1927 11.3594 21.7969C11.6719 21.3906 11.9062 20.9167 12.0625 20.375C12.2292 19.8333 12.3125 19.2396 12.3125 18.5938C12.3125 17.9583 12.2344 17.3698 12.0781 16.8281C11.9219 16.2865 11.6927 15.8125 11.3906 15.4062C11.0885 14.9896 10.7135 14.6719 10.2656 14.4531C9.82812 14.224 9.32812 14.1094 8.76562 14.1094C8.03646 14.1094 7.38542 14.2812 6.8125 14.625C6.23958 14.9583 5.78646 15.3958 5.45312 15.9375C5.11979 16.4792 4.9375 17.0521 4.90625 17.6562L3.51562 16.9688C3.56771 16.0833 3.75521 15.2708 4.07812 14.5312C4.41146 13.7917 4.85417 13.1458 5.40625 12.5938C5.96875 12.0417 6.63021 11.6146 7.39062 11.3125C8.16146 11.0104 9.01562 10.8594 9.95312 10.8594C11.0365 10.8594 11.9844 11.0677 12.7969 11.4844C13.6094 11.8906 14.2812 12.4479 14.8125 13.1562C15.3542 13.8646 15.7604 14.6823 16.0312 15.6094C16.3021 16.526 16.4375 17.4948 16.4375 18.5156C16.4375 19.6094 16.2604 20.6302 15.9062 21.5781C15.5625 22.526 15.0625 23.3542 14.4062 24.0625C13.75 24.7708 12.9583 25.3229 12.0312 25.7188C11.1042 26.1146 10.0625 26.3125 8.90625 26.3125C7.6875 26.3125 6.59375 26.0833 5.625 25.625C4.66667 25.1667 3.84375 24.5312 3.15625 23.7188C2.46875 22.9062 1.94271 21.9583 1.57812 20.875C1.21354 19.7917 1.03125 18.6198 1.03125 17.3594V15.7031C1.03125 13.9219 1.27604 12.2656 1.76562 10.7344C2.25521 9.20312 2.97917 7.86458 3.9375 6.71875C4.90625 5.5625 6.10417 4.66667 7.53125 4.03125C8.95833 3.38542 10.6094 3.0625 12.4844 3.0625Z" fill="white"/>
</g>
<defs>
<filter id="filter0_d_301_102889" x="1.03125" y="2.0625" width="15.4062" height="24.25" filterUnits="userSpaceOnUse" color-interpolation-filters="sRGB">
<feFlood flood-opacity="0" result="BackgroundImageFix"/>
<feColorMatrix in="SourceAlpha" type="matrix" values="0 0 0 0 0 0 0 0 0 0 0 0 0 0 0 0 0 0 127 0" result="hardAlpha"/>
<feOffset dy="-1"/>
<feColorMatrix type="matrix" values="0 0 0 0 0 0 0 0 0 0 0 0 0 0 0 0 0 0 0.25 0"/>
<feBlend mode="normal" in2="BackgroundImageFix" result="effect1_dropShadow_301_102889"/>
<feBlend mode="normal" in="SourceGraphic" in2="effect1_dropShadow_301_102889" result="shape"/>
</filter>
</defs>
</svg>
