<svg width="17" height="31" viewBox="0 0 17 31" fill="none" xmlns="http://www.w3.org/2000/svg">
<g filter="url(#filter0_d_301_102881)">
<path d="M16.4062 22.75V26H1V23.2188L8.39062 15.2344C9.16146 14.3594 9.77083 13.599 10.2188 12.9531C10.6667 12.3073 10.9844 11.724 11.1719 11.2031C11.3698 10.6719 11.4688 10.1667 11.4688 9.6875C11.4688 8.98958 11.3438 8.38021 11.0938 7.85938C10.8438 7.32812 10.4792 6.91667 10 6.625C9.53125 6.33333 8.95312 6.1875 8.26562 6.1875C7.50521 6.1875 6.85417 6.36458 6.3125 6.71875C5.78125 7.0625 5.375 7.54167 5.09375 8.15625C4.82292 8.77083 4.6875 9.47396 4.6875 10.2656H0.546875C0.546875 8.92188 0.859375 7.69792 1.48438 6.59375C2.10938 5.47917 3.00521 4.58854 4.17188 3.92188C5.33854 3.25521 6.72396 2.92188 8.32812 2.92188C9.89062 2.92188 11.2135 3.18229 12.2969 3.70312C13.3802 4.21354 14.2031 4.94271 14.7656 5.89062C15.3281 6.83854 15.6094 7.96875 15.6094 9.28125C15.6094 10.0104 15.4896 10.7292 15.25 11.4375C15.0104 12.1458 14.6719 12.849 14.2344 13.5469C13.8073 14.2344 13.2969 14.9323 12.7031 15.6406C12.1094 16.349 11.4479 17.0729 10.7188 17.8125L6.28125 22.75H16.4062Z" fill="white"/>
</g>
<defs>
<filter id="filter0_d_301_102881" x="0.546875" y="1.92188" width="15.8594" height="24.0781" filterUnits="userSpaceOnUse" color-interpolation-filters="sRGB">
<feFlood flood-opacity="0" result="BackgroundImageFix"/>
<feColorMatrix in="SourceAlpha" type="matrix" values="0 0 0 0 0 0 0 0 0 0 0 0 0 0 0 0 0 0 127 0" result="hardAlpha"/>
<feOffset dy="-1"/>
<feColorMatrix type="matrix" values="0 0 0 0 0 0 0 0 0 0 0 0 0 0 0 0 0 0 0.25 0"/>
<feBlend mode="normal" in2="BackgroundImageFix" result="effect1_dropShadow_301_102881"/>
<feBlend mode="normal" in="SourceGraphic" in2="effect1_dropShadow_301_102881" result="shape"/>
</filter>
</defs>
</svg>
