<svg width="27" height="31" viewBox="0 0 27 31" fill="none" xmlns="http://www.w3.org/2000/svg">
<path d="M23.7355 13.0458C24.2517 12.9042 24.7892 13.2072 24.8878 13.7333C25.2737 15.7957 25.0979 17.9304 24.3702 19.9111C23.6426 21.8917 22.395 23.633 20.7658 24.955C20.35 25.2922 19.7432 25.1746 19.4415 24.7324C19.1404 24.2903 19.2576 23.6908 19.6671 23.3466C20.9653 22.2572 21.9616 20.8434 22.5499 19.2421C23.1382 17.6409 23.294 15.9187 23.0099 14.248C22.9205 13.7204 23.2196 13.1877 23.7355 13.0458ZM13.4034 7.70405C17.9201 7.70416 21.5811 11.3661 21.5812 15.8828C21.581 20.3993 17.92 24.0604 13.4034 24.0605C8.887 24.0602 5.22495 20.3992 5.22474 15.8828C5.2248 11.3662 8.88691 7.7043 13.4034 7.70405ZM2.7677 17.1914C3.29908 17.1259 3.77862 17.5061 3.89661 18.0283C4.16758 19.2284 4.66309 20.3671 5.35755 21.3828C5.65976 21.8247 5.61191 22.4336 5.20227 22.7783C4.7925 23.1227 4.17678 23.0725 3.86731 22.6357C2.9395 21.3258 2.29158 19.838 1.96399 18.2665C1.85491 17.7426 2.23663 17.2571 2.7677 17.1914ZM12.3204 13.8359L8.00013 14.1972L11.2697 16.9326L10.295 20.9999L14.0001 18.8437L17.7052 20.9999L16.7306 16.9326L20.0001 14.1972L15.6798 13.8359L14.0001 9.99995L12.3204 13.8359ZM18.9894 6.74018C19.2685 6.28337 19.8687 6.13542 20.3009 6.45112C21.6112 7.40921 22.7074 8.63077 23.5197 10.0361C23.7876 10.4996 23.577 11.0799 23.0929 11.3085C22.6088 11.5369 22.0345 11.327 21.7589 10.8681C21.118 9.8004 20.2782 8.86481 19.2853 8.11323C18.8588 7.79015 18.7108 7.19692 18.9894 6.74018Z" fill="white"/>
<path d="M11.1513 26.355C11.0386 26.8785 10.5212 27.2154 10.0089 27.0596C8.4729 26.5927 7.04939 25.8141 5.82765 24.7726C5.42015 24.4252 5.42473 23.8079 5.80469 23.4306V23.4306C6.18464 23.0533 6.79573 23.0597 7.20891 23.4003C8.1585 24.1831 9.24796 24.779 10.4193 25.1563C10.929 25.3205 11.2641 25.8316 11.1513 26.355V26.355Z" fill="white"/>
<path d="M18.6403 25.2301C18.9019 25.6973 18.7365 26.2921 18.2492 26.514C16.7882 27.1794 15.2055 27.5366 13.6003 27.5631C13.0649 27.572 12.6601 27.1058 12.6956 26.5715V26.5715C12.7312 26.0372 13.1939 25.638 13.7291 25.6203C14.959 25.5796 16.1703 25.3063 17.2986 24.8148C17.7895 24.601 18.3788 24.7628 18.6403 25.2301V25.2301Z" fill="white"/>
<path d="M18.0604 6.23059C18.293 5.74829 18.0917 5.16464 17.5918 4.9728C16.0762 4.39122 14.4559 4.13183 12.8345 4.21125C12.2997 4.23744 11.9263 4.72909 11.9967 5.25991V5.25991C12.0672 5.79072 12.555 6.15883 13.0902 6.14147C14.335 6.10109 15.5763 6.29979 16.7464 6.72676C17.2494 6.91032 17.8277 6.71289 18.0604 6.23059V6.23059Z" fill="white"/>
<path d="M4.38446 10.1016C3.93357 9.81277 3.32998 9.94254 3.07952 10.4158C2.32022 11.8506 1.8682 13.4281 1.75241 15.0472C1.71422 15.5813 2.15749 16.0111 2.69292 16.0049V16.0049C3.22835 15.9987 3.65236 15.5586 3.69936 15.0252C3.80871 13.7844 4.15498 12.576 4.71932 11.4657C4.96193 10.9883 4.83535 10.3904 4.38446 10.1016V10.1016Z" fill="white"/>
<path d="M10.0563 5.70392C9.88893 5.1953 9.33886 4.91496 8.84586 5.12396C7.35133 5.75754 6.00501 6.69579 4.89321 7.87857C4.52647 8.26872 4.59904 8.88183 5.01825 9.21497V9.21497C5.43746 9.54812 6.04412 9.47439 6.41726 9.09034C7.2852 8.19702 8.31654 7.47828 9.45509 6.97327C9.94456 6.75616 10.2238 6.21254 10.0563 5.70392V5.70392Z" fill="white"/>
</svg>
