<svg width="27" height="31" viewBox="0 0 27 31" fill="none" xmlns="http://www.w3.org/2000/svg">
<path d="M23.7374 13.0458C24.2537 12.9042 24.7912 13.2072 24.8898 13.7333C25.2757 15.7957 25.0999 17.9304 24.3722 19.9111C23.6445 21.8917 22.397 23.633 20.7677 24.955C20.3519 25.2922 19.7452 25.1746 19.4435 24.7324C19.1423 24.2903 19.2595 23.6908 19.6691 23.3466C20.9673 22.2572 21.9636 20.8434 22.5519 19.2421C23.1401 17.6409 23.296 15.9187 23.0118 14.248C22.9224 13.7204 23.2215 13.1877 23.7374 13.0458ZM13.4054 7.70405C17.9221 7.70416 21.5831 11.3661 21.5831 15.8828C21.5829 20.3993 17.922 24.0604 13.4054 24.0605C8.88895 24.0602 5.2269 20.3992 5.22669 15.8828C5.22675 11.3662 8.88886 7.7043 13.4054 7.70405ZM2.76966 17.1914C3.30104 17.1259 3.78057 17.5061 3.89856 18.0283C4.16954 19.2284 4.66505 20.3671 5.3595 21.3828C5.66171 21.8247 5.61386 22.4336 5.20423 22.7783C4.79445 23.1227 4.17873 23.0725 3.86927 22.6357C2.94145 21.3258 2.29353 19.838 1.96595 18.2665C1.85686 17.7426 2.23858 17.2571 2.76966 17.1914ZM13.5001 9.99995C13.0211 10.4982 12.3562 10.9957 11.6544 11.5214C9.939 12.8066 8.00013 14.2587 8.00013 16.2861C8.00037 17.8636 9.35476 19.1425 11.0255 19.1425C11.7065 19.1464 12.3712 18.9254 12.923 18.5107C12.7667 19.451 12.3683 20.1219 11.9366 20.8486L11.7335 21.1923C11.5224 21.5556 11.7812 21.9996 12.1896 21.9999H14.8107C15.2191 21.9996 15.4779 21.5556 15.2667 21.1923L15.0636 20.8486C14.6319 20.1219 14.2335 19.451 14.0773 18.5107C14.629 18.9254 15.2937 19.1464 15.9747 19.1425C17.6455 19.1425 18.9999 17.8636 19.0001 16.2861C19.0001 14.2587 17.0618 12.8066 15.3458 11.5214C14.644 10.9957 13.9792 10.4977 13.5001 9.99995ZM18.9913 6.74018C19.2704 6.28337 19.8707 6.13542 20.3029 6.45112C21.6131 7.40921 22.7093 8.63077 23.5216 10.0361C23.7895 10.4996 23.579 11.0799 23.0949 11.3085C22.6108 11.5369 22.0364 11.327 21.7609 10.8681C21.12 9.8004 20.2802 8.86481 19.2872 8.11323C18.8607 7.79015 18.7128 7.19692 18.9913 6.74018Z" fill="white"/>
<path d="M11.1494 26.355C11.0366 26.8785 10.5193 27.2154 10.007 27.0596C8.47095 26.5927 7.04744 25.8141 5.8257 24.7726C5.4182 24.4252 5.42278 23.8079 5.80273 23.4306V23.4306C6.18269 23.0533 6.79378 23.0597 7.20696 23.4003C8.15655 24.1831 9.246 24.779 10.4174 25.1563C10.927 25.3205 11.2621 25.8316 11.1494 26.355V26.355Z" fill="white"/>
<path d="M18.6384 25.2301C18.8999 25.6973 18.7346 26.2921 18.2473 26.514C16.7862 27.1794 15.2035 27.5366 13.5983 27.5631C13.0629 27.572 12.6581 27.1058 12.6937 26.5715V26.5715C12.7292 26.0372 13.1919 25.638 13.7271 25.6203C14.9571 25.5796 16.1684 25.3063 17.2966 24.8148C17.7875 24.601 18.3768 24.7628 18.6384 25.2301V25.2301Z" fill="white"/>
<path d="M18.0604 6.23108C18.293 5.74878 18.0917 5.16512 17.5918 4.97328C16.0762 4.39171 14.4559 4.13232 12.8345 4.21173C12.2997 4.23793 11.9263 4.72958 11.9967 5.26039V5.26039C12.0672 5.79121 12.555 6.15932 13.0902 6.14196C14.335 6.10158 15.5763 6.30028 16.7464 6.72725C17.2494 6.91081 17.8277 6.71337 18.0604 6.23108V6.23108Z" fill="white"/>
<path d="M4.38446 10.1021C3.93357 9.81326 3.32998 9.94302 3.07952 10.4163C2.32022 11.8511 1.8682 13.4286 1.75241 15.0477C1.71422 15.5818 2.15749 16.0116 2.69292 16.0054V16.0054C3.22835 15.9992 3.65236 15.559 3.69936 15.0256C3.80871 13.7849 4.15498 12.5765 4.71932 11.4661C4.96193 10.9888 4.83535 10.3909 4.38446 10.1021V10.1021Z" fill="white"/>
<path d="M10.0563 5.70441C9.88893 5.19579 9.33886 4.91545 8.84586 5.12445C7.35133 5.75803 6.00501 6.69628 4.89321 7.87906C4.52647 8.26921 4.59904 8.88232 5.01825 9.21546V9.21546C5.43746 9.5486 6.04412 9.47487 6.41726 9.09083C7.2852 8.19751 8.31654 7.47877 9.45509 6.97376C9.94456 6.75665 10.2238 6.21303 10.0563 5.70441V5.70441Z" fill="white"/>
</svg>
