<svg width="17" height="31" viewBox="0 0 17 31" fill="none" xmlns="http://www.w3.org/2000/svg">
<g filter="url(#filter0_d_301_102895)">
<path d="M4.10938 22.7969H4.40625C5.75 22.7969 6.88542 22.625 7.8125 22.2812C8.75 21.9375 9.50521 21.4531 10.0781 20.8281C10.6615 20.1927 11.0833 19.4375 11.3438 18.5625C11.6146 17.6771 11.75 16.6979 11.75 15.625V11.5C11.75 10.625 11.6615 9.85938 11.4844 9.20312C11.3073 8.53646 11.0573 7.97917 10.7344 7.53125C10.4219 7.08333 10.0521 6.75 9.625 6.53125C9.19792 6.30208 8.73958 6.1875 8.25 6.1875C7.70833 6.1875 7.22917 6.3125 6.8125 6.5625C6.39583 6.8125 6.04167 7.15625 5.75 7.59375C5.46875 8.02083 5.25 8.51562 5.09375 9.07812C4.94792 9.64062 4.875 10.2344 4.875 10.8594C4.875 11.4635 4.94271 12.0417 5.07812 12.5938C5.22396 13.1458 5.4375 13.6354 5.71875 14.0625C6.01042 14.4896 6.375 14.8281 6.8125 15.0781C7.25 15.3177 7.76042 15.4375 8.34375 15.4375C8.89583 15.4375 9.39583 15.3333 9.84375 15.125C10.3021 14.9062 10.6979 14.6198 11.0312 14.2656C11.3646 13.901 11.6198 13.5 11.7969 13.0625C11.9844 12.6146 12.0885 12.1615 12.1094 11.7031L13.5625 12.3281C13.5625 13.0885 13.401 13.8385 13.0781 14.5781C12.7656 15.3177 12.3229 15.9896 11.75 16.5938C11.1875 17.1875 10.5312 17.6667 9.78125 18.0312C9.03125 18.3854 8.22396 18.5625 7.35938 18.5625C6.28646 18.5625 5.33854 18.3646 4.51562 17.9688C3.69271 17.5729 3 17.026 2.4375 16.3281C1.88542 15.6198 1.46875 14.8073 1.1875 13.8906C0.90625 12.9635 0.765625 11.974 0.765625 10.9219C0.765625 9.82812 0.9375 8.80208 1.28125 7.84375C1.625 6.875 2.11979 6.02604 2.76562 5.29688C3.42188 4.55729 4.21354 3.97917 5.14062 3.5625C6.06771 3.13542 7.10938 2.92188 8.26562 2.92188C9.46354 2.92188 10.5312 3.15625 11.4688 3.625C12.4062 4.09375 13.2031 4.74479 13.8594 5.57812C14.5156 6.40104 15.0156 7.375 15.3594 8.5C15.7135 9.625 15.8906 10.8542 15.8906 12.1875V13.6406C15.8906 15.0469 15.75 16.3802 15.4688 17.6406C15.1875 18.901 14.7552 20.0521 14.1719 21.0938C13.5885 22.1354 12.8438 23.0365 11.9375 23.7969C11.0417 24.5573 9.96875 25.1458 8.71875 25.5625C7.47917 25.9688 6.0625 26.1719 4.46875 26.1719H4.10938V22.7969Z" fill="white"/>
</g>
<defs>
<filter id="filter0_d_301_102895" x="0.765625" y="1.92188" width="15.125" height="24.25" filterUnits="userSpaceOnUse" color-interpolation-filters="sRGB">
<feFlood flood-opacity="0" result="BackgroundImageFix"/>
<feColorMatrix in="SourceAlpha" type="matrix" values="0 0 0 0 0 0 0 0 0 0 0 0 0 0 0 0 0 0 127 0" result="hardAlpha"/>
<feOffset dy="-1"/>
<feColorMatrix type="matrix" values="0 0 0 0 0 0 0 0 0 0 0 0 0 0 0 0 0 0 0.25 0"/>
<feBlend mode="normal" in2="BackgroundImageFix" result="effect1_dropShadow_301_102895"/>
<feBlend mode="normal" in="SourceGraphic" in2="effect1_dropShadow_301_102895" result="shape"/>
</filter>
</defs>
</svg>
