<svg width="184" height="184" viewBox="0 0 184 184" fill="none" xmlns="http://www.w3.org/2000/svg">
<rect x="1" y="1" width="182" height="182" rx="13" stroke="black" stroke-opacity="0.25" stroke-width="2"/>
<rect x="2.5" y="2.5" width="179" height="179" rx="11.5" fill="#E9E9E9" stroke="url(#paint0_linear_324_104464)"/>
<rect x="41.0449" y="30.5" width="101.909" height="123" rx="1.5" fill="#D7D5D7" stroke="#CDCFD6"/>
<g clip-path="url(#clip0_324_104464)">
<path d="M131.378 49.3117V165.23C131.378 166.495 130.865 167.709 129.953 168.604C129.041 169.498 127.803 170.001 126.513 170.001H19.486C18.1957 170.001 16.9583 169.498 16.046 168.604C15.1336 167.709 14.6211 166.495 14.6211 165.23V144.333C18.4157 141.153 31.5833 131.134 53.54 125.249L54.0589 125.106L53.7508 124.677C53.0975 123.796 52.6642 122.778 52.486 121.703C52.3867 120.985 52.4449 120.254 52.6567 119.56C52.8685 118.866 53.229 118.224 53.7141 117.678C54.1993 117.131 54.7978 116.693 55.4697 116.391C56.1416 116.09 56.8714 115.933 57.6103 115.93H57.7724C58.3759 115.935 58.9694 116.082 59.5028 116.358C60.0363 116.635 60.494 117.034 60.8373 117.52C61.1857 117.992 61.4133 118.538 61.5008 119.114C61.5883 119.69 61.5331 120.278 61.34 120.828V120.828C61.2161 121.39 60.9348 121.906 60.528 122.319C60.1212 122.732 59.6049 123.025 59.0373 123.166C58.7671 123.258 58.4808 123.295 58.1955 123.277C57.9102 123.258 57.6316 123.183 57.3761 123.057C57.1207 122.931 56.8935 122.756 56.7082 122.543C56.5228 122.329 56.3829 122.082 56.2968 121.814C56.2414 121.588 56.2374 121.352 56.285 121.124C56.3327 120.896 56.4308 120.681 56.5724 120.494C56.6882 120.326 56.8422 120.187 57.0224 120.088C57.2025 119.988 57.4038 119.932 57.6103 119.922C57.7974 119.904 57.9862 119.925 58.1648 119.982C58.3434 120.04 58.508 120.133 58.6481 120.256L58.2103 120.383C58.0222 120.301 57.8153 120.268 57.6103 120.288C57.4475 120.279 57.2852 120.313 57.14 120.385C56.9948 120.458 56.8717 120.567 56.7833 120.701C56.6784 120.844 56.6055 121.007 56.5692 121.18C56.5328 121.353 56.534 121.531 56.5724 121.703C56.6416 121.928 56.757 122.136 56.9114 122.315C57.0658 122.494 57.2559 122.64 57.4702 122.745C57.6844 122.849 57.9181 122.909 58.157 122.921C58.3958 122.934 58.6347 122.898 58.8589 122.816C59.4383 122.674 59.9559 122.353 60.3354 121.901C60.7149 121.448 60.9363 120.888 60.967 120.303C60.9752 119.565 60.6903 118.852 60.1724 118.316C59.847 117.979 59.4505 117.717 59.0107 117.546C58.5709 117.376 58.0985 117.302 57.6265 117.33C57.0864 117.329 56.5527 117.444 56.0626 117.666C55.5725 117.889 55.1377 118.214 54.7887 118.618C54.4431 119.018 54.1879 119.486 54.0398 119.991C53.8916 120.495 53.854 121.024 53.9292 121.544C54.0379 122.502 54.4401 123.406 55.0827 124.135C55.7254 124.865 56.5783 125.386 57.5292 125.631H57.6103C58.6171 125.64 59.5964 125.309 60.3833 124.693C61.6789 123.785 62.6313 122.482 63.0914 120.987C63.862 118.871 65.306 117.053 67.2103 115.803C69.6751 114.594 71.2481 113.242 71.5238 112.113C71.6366 110.979 71.3127 109.845 70.6157 108.933L70.5022 108.742C70.2072 108.345 70.035 107.872 70.0063 107.382C69.9775 106.891 70.0934 106.403 70.34 105.975L70.4373 105.736L70.2589 105.561C69.6959 105.011 69.2688 104.342 69.0103 103.605V103.51C68.8051 103.334 68.664 103.098 68.6084 102.837C68.5528 102.576 68.5857 102.304 68.7022 102.063C69.1909 101.074 69.3169 99.9508 69.0589 98.8819V98.8819C68.5096 98.5421 67.8983 98.3098 67.2589 98.1981C66.3979 98.081 65.5733 97.7813 64.8423 97.3199C64.1114 96.8585 63.4918 96.2464 63.0265 95.5263C62.6413 94.7622 62.5199 93.8959 62.6808 93.0583C62.8417 92.2206 63.2761 91.4569 63.9184 90.8826C64.3135 90.2556 64.6397 89.5892 64.8914 88.8947L65.5562 87.5111C66.3359 85.683 67.3087 83.94 68.4589 82.3108C69.3748 81.3101 69.8828 80.0137 69.886 78.669C69.7787 78.126 69.6212 77.5937 69.4157 77.0787C68.9061 75.8478 68.5785 74.5518 68.4427 73.2301C68.3608 72.0444 68.6192 70.8599 69.1887 69.8109C69.3144 69.5949 69.4553 69.3876 69.6103 69.1907L69.7238 69.0635V68.8885C69.5182 67.9387 69.372 66.9774 69.286 66.0101V65.8828H69.2049C68.8157 65.4375 68.2806 63.9585 68.0211 59.4261V59.3466L60.0265 45.2564C60.002 45.141 60.002 45.0219 60.0265 44.9065V44.7475L59.913 44.6362C58.4755 43.4287 57.4645 41.8061 57.0246 40.0007C56.5848 38.1953 56.7387 36.2997 57.4643 34.5854C57.5272 34.4023 57.6614 34.251 57.8376 34.1646C58.0139 34.0782 58.2178 34.0637 58.4049 34.1242C60.838 34.7851 62.9139 36.3476 64.1941 38.4817C64.8755 39.809 65.1727 41.2941 65.0535 42.7755V43.5866L65.7022 43.0777C70.0827 39.4581 75.6563 37.5249 81.3833 37.6388C86.7123 37.9855 91.813 39.8911 96.0265 43.1095L96.7724 43.6661L96.6103 42.7755C96.2652 41.0691 96.4429 39.3007 97.121 37.6932C97.7992 36.0856 98.9475 34.711 100.421 33.7425C100.558 33.624 100.733 33.5586 100.916 33.5586C101.098 33.5586 101.274 33.624 101.41 33.7425C103.097 35.6421 103.959 38.1138 103.81 40.6286C103.715 41.4838 103.474 42.3171 103.097 43.0936L102.708 43.9205L103.567 43.5707C108.839 41.3044 114.699 40.7041 120.335 41.8531C124.786 43.0078 128.69 45.6445 131.378 49.3117Z" fill="#E7E7E7"/>
<path d="M81.7725 77.9797C80.8882 77.7032 79.9578 77.5955 79.032 77.6624L80.005 77.9321C81.3963 78.7341 82.6909 79.6867 83.8644 80.7721L82.7293 80.4389C81.7077 80.1216 78.2212 78.535 76.8915 77.948C76.8215 77.4213 76.8215 76.8881 76.8915 76.3614C77.0536 75.7585 76.405 76.8215 76.2104 77.6465C75.5149 77.5218 74.8094 77.4581 74.1023 77.4561C74.8646 78.076 75.6971 78.6083 76.5833 79.0427C76.4618 79.975 76.5295 80.9217 76.7828 81.8283C77.036 82.735 77.4697 83.5837 78.059 84.326C78.059 84.326 76.7455 85.1828 76.5509 86.1188C76.5509 86.1188 76.632 86.3568 76.859 86.1188C77.7866 85.5043 78.8573 85.1278 79.9725 85.0241C81.2741 85.0653 82.566 84.7929 83.7347 84.2308C84.2832 83.946 84.777 83.5702 85.1941 83.1202C85.4212 83.1202 87.3671 83.2154 88.7455 83.3582C89.6959 83.4279 90.6443 83.2001 91.4536 82.7077C90.7527 82.6513 90.0613 82.5128 89.3941 82.2952C88.5671 81.9144 82.8914 78.4557 81.7725 77.9797ZM78.7563 83.977C78.7563 83.977 78.7563 83.8183 78.4482 83.3582C78.9116 82.4098 79.171 81.3784 79.2104 80.3278C79.22 80.2914 79.22 80.2532 79.2104 80.2168L80.4104 80.6452C80.4582 81.296 80.3306 81.9477 80.0403 82.5351C79.7501 83.1226 79.3073 83.6252 78.7563 83.9928V83.977ZM83.0374 83.7707C82.0981 84.0648 81.0946 84.1032 80.1347 83.8818C80.6968 82.9558 80.9885 81.8966 80.9779 80.8197C82.1763 81.1068 83.3318 81.5441 84.4158 82.1207C84.5595 82.2779 84.6402 82.4809 84.6428 82.6918C84.2062 83.1786 83.6552 83.5543 83.0374 83.7866V83.7707ZM120.335 41.79C114.669 40.6495 108.782 41.2593 103.486 43.5352C103.879 42.726 104.126 41.8565 104.216 40.965C104.338 38.3799 103.432 35.849 101.686 33.9047C101.5 33.7081 101.246 33.5862 100.973 33.5627C100.7 33.5393 100.429 33.6159 100.21 33.7778C98.6926 34.7787 97.5076 36.1925 96.8016 37.8447C96.0956 39.4969 95.8994 41.3152 96.2374 43.0751C91.951 39.8021 86.7598 37.8623 81.3347 37.5063C75.5108 37.4049 69.8491 39.3849 65.4104 43.0751C65.5485 41.5416 65.2392 40.0012 64.5185 38.6327C63.1633 36.3981 60.9696 34.7699 58.405 34.0951C58.1408 34.0324 57.8623 34.0674 57.6229 34.1933C57.3834 34.3192 57.2 34.5272 57.1077 34.7774C56.3554 36.5467 56.1855 38.5013 56.6214 40.3695C57.0574 42.2377 58.0776 43.9266 59.5401 45.2011C59.5409 45.3852 59.5912 45.5658 59.6861 45.7247L67.5671 59.5755C67.859 64.478 68.459 65.779 68.8482 66.2232C68.9429 67.2092 69.0945 68.1892 69.3023 69.1584C69.1319 69.371 68.9748 69.5935 68.832 69.8247C68.2478 70.9679 68.0061 72.2495 68.1347 73.5215C68.2786 74.8695 68.6059 76.1928 69.1077 77.4561C69.3194 77.9227 69.4719 78.4129 69.5617 78.9158C69.5467 80.157 69.0746 81.3513 68.232 82.2793C67.0562 83.9112 66.0614 85.661 65.2644 87.4992C65.0536 87.9434 64.8266 88.4194 64.5996 88.8636C64.2768 89.5087 63.8797 90.1156 63.4158 90.6723C62.7286 91.2978 62.2659 92.1234 62.0965 93.0266C61.9271 93.9298 62.0599 94.8624 62.4753 95.6859C62.9508 96.4688 63.5997 97.1375 64.3743 97.6427C65.1488 98.1479 66.0293 98.4768 66.9509 98.6052C67.5172 98.7323 68.0629 98.9352 68.5725 99.2081C68.7759 100.152 68.6503 101.135 68.2158 102C68.0659 102.313 68.0243 102.665 68.0975 103.003C68.1707 103.341 68.3545 103.646 68.6212 103.873C68.8938 104.661 69.3488 105.378 69.9509 105.967C69.6766 106.461 69.5508 107.022 69.5881 107.583C69.6254 108.145 69.8243 108.684 70.1617 109.14C70.2043 109.223 70.2531 109.302 70.3077 109.378C70.9536 110.207 71.2548 111.244 71.1509 112.281C70.9077 113.281 69.3671 114.566 67.032 115.708C65.0471 117.004 63.5405 118.89 62.7347 121.087C62.2967 122.499 61.4036 123.735 60.1888 124.609C59.4622 125.19 58.5484 125.499 57.6104 125.482C56.7468 125.24 55.9767 124.751 55.3989 124.079C54.821 123.406 54.4618 122.58 54.3672 121.706C54.2929 121.236 54.3225 120.757 54.454 120.3C54.5855 119.843 54.8158 119.419 55.1293 119.056C55.4464 118.695 55.8397 118.407 56.2821 118.209C56.7245 118.012 57.2053 117.911 57.6915 117.914C58.1122 117.887 58.5337 117.952 58.9261 118.102C59.3185 118.253 59.6721 118.487 59.9618 118.786C60.4059 119.245 60.6551 119.852 60.659 120.484C60.6308 120.992 60.438 121.478 60.1086 121.872C59.7791 122.265 59.3301 122.546 58.8266 122.673C58.6482 122.74 58.4576 122.771 58.2667 122.763C58.0758 122.755 57.8886 122.708 57.7168 122.626C57.5449 122.545 57.3921 122.429 57.2678 122.287C57.1435 122.145 57.0504 121.98 56.9942 121.801C56.9739 121.685 56.9778 121.566 57.0056 121.451C57.0335 121.337 57.0848 121.229 57.1564 121.134C57.2038 121.057 57.27 120.991 57.3491 120.944C57.4283 120.897 57.518 120.87 57.6104 120.865C58.0482 120.865 58.1455 121.008 58.1618 121.023L59.2158 120.69C59.0712 120.397 58.8381 120.155 58.548 119.996C58.2579 119.837 57.925 119.769 57.5942 119.802C57.3304 119.816 57.0734 119.89 56.843 120.016C56.6126 120.143 56.4147 120.319 56.2645 120.532C56.1022 120.76 55.991 121.019 55.9379 121.293C55.8848 121.566 55.8911 121.847 55.9564 122.118C56.0549 122.436 56.2186 122.731 56.4374 122.984C56.6563 123.238 56.9257 123.445 57.2292 123.594C57.5327 123.742 57.864 123.829 58.2027 123.848C58.5415 123.867 58.8807 123.818 59.1996 123.705C59.8225 123.525 60.3817 123.179 60.8143 122.705C61.247 122.232 61.5358 121.649 61.6482 121.023V121.214C61.6547 121.161 61.6547 121.108 61.6482 121.055C61.854 120.444 61.9102 119.795 61.8125 119.159C61.7148 118.522 61.4659 117.918 61.0857 117.393C60.7055 116.868 60.2047 116.438 59.6237 116.137C59.0426 115.836 58.3974 115.673 57.7401 115.661H57.578C56.7719 115.669 55.9776 115.851 55.2516 116.194C54.5257 116.536 53.8859 117.032 53.378 117.644C52.8639 118.246 52.4855 118.947 52.2675 119.701C52.0496 120.456 51.997 121.247 52.1131 122.023C52.3029 123.166 52.7578 124.252 53.4428 125.196C31.8591 130.781 18.7888 140.459 14.6213 143.918V165.241C14.6119 166.267 14.9418 167.269 15.5618 168.097C15.9626 167.664 16.5013 167.377 17.0901 167.282C17.679 167.187 18.2835 167.29 18.8051 167.573L21.6915 170.001H126.513C127.803 170.001 129.041 169.499 129.953 168.607C130.865 167.714 131.378 166.504 131.378 165.241V131.669L127.713 135.89L124.275 127.846H127.016L128.783 131.923L131.378 128.449V123.038V121.579C130.728 122.243 129.928 122.748 129.043 123.054C129.656 122.602 130.202 122.068 130.664 121.468C130.957 121.084 131.142 120.777 131.378 120.358V117.333C131.067 118.625 130.569 119.754 129.756 120.817C129 121.811 127.963 122.567 126.772 122.991C127.394 122.548 127.941 122.012 128.394 121.404C129.301 120.233 129.939 118.883 130.264 117.449C130.588 116.014 130.592 114.527 130.275 113.091C129.417 109.46 128.256 105.905 126.805 102.461C124.389 96.2729 122.102 90.4184 123.27 83.4217H124.47C123.318 90.5612 125.637 96.5109 128.086 102.794C129.474 106.239 130.574 109.789 131.378 113.408V109.203C130.664 106.919 129.756 104.713 128.978 102.572C126.562 96.3681 124.275 90.4978 125.459 83.5327H126.659C125.475 90.7199 127.794 96.6854 130.259 103L131.378 105.872V102.794C131.378 102.794 131.378 102.635 131.378 102.572C128.945 96.3522 126.659 90.466 127.859 83.5327C127.857 83.5063 127.857 83.4798 127.859 83.4534L129.059 83.3582C128.021 89.403 129.412 94.466 131.374 99.7176V96.3635C129.869 92.2051 129.497 87.8644 130.162 83.501V83.1995L131.378 83.0726V83.3106C130.873 86.1451 130.873 89.0436 131.378 91.8781V49.0406C128.666 45.4843 124.802 42.9336 120.416 41.8059L120.335 41.79ZM26.2807 163.29C25.7691 164.796 25.1233 166.256 24.351 167.653C24.3295 167.738 24.2895 167.818 24.2339 167.887C24.1783 167.956 24.1082 168.013 24.0284 168.054C23.9486 168.094 23.8609 168.118 23.7711 168.122C23.6813 168.127 23.5916 168.113 23.5078 168.081C23.5078 168.081 20.4105 166.495 20.1348 166.352C19.5408 166.043 19.0836 165.531 18.8504 164.914C18.6171 164.296 18.6241 163.617 18.8699 163.004C19.0592 162.443 19.4392 161.962 19.9467 161.642C20.4542 161.321 21.0585 161.181 21.6591 161.243L25.778 162.56C25.9377 162.607 26.0754 162.708 26.1672 162.844C26.2591 162.98 26.2992 163.143 26.2807 163.306V163.29ZM27.1726 159.577C27.1819 159.665 27.1719 159.754 27.1433 159.837C27.1146 159.921 27.068 159.998 27.0066 160.062C26.9452 160.127 26.8703 160.178 26.7871 160.212C26.7038 160.246 26.6141 160.262 26.524 160.259C26.524 160.259 23.0699 159.783 22.7618 159.783C22.0971 159.698 21.4881 159.375 21.0513 158.877C20.6144 158.38 20.3805 157.742 20.3943 157.086C20.3714 156.493 20.5568 155.909 20.9196 155.433C21.2825 154.957 21.8009 154.616 22.3888 154.468L26.7186 154.31C26.8855 154.302 27.05 154.351 27.1834 154.45C27.3167 154.549 27.4105 154.69 27.4483 154.849C27.4984 156.435 27.4061 158.023 27.1726 159.593V159.577ZM26.7186 152.549H22.0159C20.297 152.184 21.1078 151.248 21.1078 151.248L25.8429 147.662C25.8429 147.662 26.3618 147.234 26.6375 147.662C27.1849 149.01 27.5079 150.434 27.5942 151.882C27.5942 152.549 26.7186 152.549 26.7186 152.549ZM116.216 83.501C116.223 83.4059 116.223 83.3105 116.216 83.2154L117.367 83.3741C116.135 90.6088 118.47 96.6061 120.951 102.952C122.389 106.355 123.539 109.868 124.389 113.455C124.675 114.732 124.678 116.054 124.398 117.332C124.118 118.61 123.562 119.815 122.767 120.865C122.015 121.856 120.984 122.612 119.799 123.038C120.413 122.586 120.959 122.052 121.421 121.452C122.31 120.284 122.934 118.944 123.253 117.521C123.572 116.099 123.577 114.626 123.27 113.202C122.406 109.571 121.24 106.016 119.783 102.572C117.318 96.3522 115.016 90.466 116.216 83.501ZM112.243 127.528L115.486 127.608L117.627 130.003L119.054 127.703L122.459 127.798L118.145 134.525C118.145 134.525 118.145 134.525 118.032 134.525C117.918 134.525 117.675 134.525 117.237 133.875C116.378 132.732 113.378 128.956 112.243 127.528ZM116.151 138.269H114.999L113.621 136.683L113.378 138.269H112.356L113.005 134.652L116.151 138.269ZM113.913 83.501C113.95 83.2648 114.004 83.0315 114.075 82.8029L115.194 83.025C115.194 83.1202 115.194 83.2154 115.194 83.3106C113.945 90.5771 116.297 96.5902 118.778 102.952C120.202 106.36 121.351 109.872 122.216 113.455C122.502 114.732 122.505 116.054 122.225 117.332C121.945 118.61 121.389 119.815 120.594 120.865C119.838 121.859 118.8 122.614 117.61 123.038C118.199 122.585 118.718 122.05 119.151 121.452C120.058 120.28 120.696 118.931 121.02 117.496C121.345 116.061 121.349 114.575 121.032 113.138C120.167 109.51 119.006 105.955 117.562 102.508C114.999 96.3522 112.713 90.466 113.913 83.501ZM111.594 83.501C111.66 83.0791 111.769 82.6646 111.918 82.2635C112.259 82.3745 112.616 82.4539 112.972 82.549C112.898 82.7992 112.838 83.0535 112.794 83.3106C111.529 90.5771 113.881 96.5902 116.362 102.952C117.8 106.355 118.95 109.868 119.799 113.455C120.085 114.732 120.089 116.054 119.809 117.332C119.529 118.61 118.973 119.815 118.178 120.865C117.413 121.864 116.364 122.62 115.162 123.038C115.775 122.586 116.321 122.052 116.783 121.452C117.687 120.278 118.322 118.929 118.646 117.495C118.971 116.061 118.977 114.575 118.664 113.138C117.792 109.529 116.621 105.995 115.162 102.572C112.697 96.3522 110.394 90.466 111.594 83.501ZM109.291 83.501C109.403 82.8612 109.611 82.2411 109.908 81.6606L110.881 81.962C110.713 82.3989 110.588 82.8505 110.508 83.3106C109.259 90.5771 111.594 96.5902 114.091 102.952C115.517 106.358 116.661 109.871 117.513 113.455C117.803 114.732 117.809 116.055 117.529 117.333C117.249 118.612 116.69 119.817 115.891 120.865C115.135 121.859 114.098 122.614 112.908 123.038C113.525 122.591 114.072 122.056 114.529 121.452C115.436 120.28 116.074 118.931 116.399 117.496C116.723 116.061 116.727 114.575 116.41 113.138C115.545 109.51 114.384 105.955 112.94 102.508C110.378 96.3522 108.091 90.466 109.291 83.501ZM107.978 80.9942L108.854 81.3115C108.536 81.9423 108.317 82.6162 108.205 83.3106C106.94 90.5771 109.291 96.5902 111.772 102.952C113.194 106.357 114.328 109.869 115.162 113.455C115.44 114.725 115.44 116.038 115.16 117.307C114.881 118.576 114.328 119.773 113.54 120.817C112.784 121.811 111.746 122.567 110.556 122.991C111.173 122.542 111.719 122.008 112.178 121.404C113.081 120.231 113.717 118.881 114.041 117.447C114.366 116.013 114.372 114.527 114.059 113.091C113.196 109.46 112.029 105.905 110.572 102.461C108.14 96.2412 105.854 90.355 107.054 83.4217C107.205 82.5634 107.518 81.7402 107.978 80.9942ZM105.691 142.442C105.335 142.775 104.945 143.108 104.524 143.458L103.81 139.015L107.589 140.602C107.329 140.856 107.037 141.141 106.713 141.427L105.432 140.919L105.691 142.442ZM107.135 136.445C105.902 135.81 101.07 133.145 99.9509 132.526C100.47 131.923 100.972 131.304 101.459 130.654L106.113 132.875L108.156 127.417L110.735 127.497L107.881 136.397C107.872 136.434 107.872 136.472 107.881 136.508C107.886 136.545 107.886 136.583 107.881 136.619C107.619 136.644 107.357 136.582 107.135 136.445ZM97.1293 148.931L95.9293 149.709L95.7022 145.203L99.4806 147.297L98.313 148.106L97.032 147.265L97.1293 148.931ZM93.3671 138.856C94.0157 138.349 94.6644 137.809 95.2968 137.27L97.486 138.269L97.1779 135.509C97.7941 134.906 98.4103 134.271 99.0103 133.605L100.291 142.585L93.3671 138.856ZM106.924 80.6134C106.416 81.4448 106.065 82.3582 105.886 83.3106C104.637 90.5771 106.972 96.5902 109.454 102.952C110.892 106.355 112.042 109.868 112.891 113.455C113.182 114.732 113.187 116.055 112.907 117.333C112.627 118.612 112.069 119.817 111.27 120.865C110.513 121.859 109.476 122.614 108.286 123.038C108.899 122.586 109.445 122.052 109.908 121.452C110.815 120.28 111.452 118.931 111.777 117.496C112.102 116.061 112.106 114.575 111.789 113.138C110.923 109.51 109.763 105.955 108.318 102.508C105.886 96.2888 103.6 90.4026 104.8 83.4693C105.02 82.3126 105.52 81.2245 106.259 80.2961L106.924 80.6134ZM104.005 79.4552L105.075 79.8995C104.319 80.9107 103.809 82.0773 103.583 83.3106C102.318 90.5771 104.67 96.5902 107.151 102.952C108.582 106.358 109.732 109.87 110.589 113.455C110.875 114.732 110.878 116.054 110.598 117.332C110.318 118.61 109.762 119.815 108.967 120.865C108.413 121.624 107.683 122.245 106.838 122.678C105.993 123.111 105.056 123.343 104.102 123.356C104.012 123.332 103.917 123.332 103.827 123.356C103.413 123.232 103.011 123.073 102.627 122.88C103.664 122.783 104.669 122.475 105.578 121.975C106.619 121.42 107.516 120.64 108.202 119.694C108.887 118.749 109.343 117.662 109.535 116.518C110.086 113.455 108.805 110.33 107.654 107.569C107.443 107.03 107.216 106.49 107.021 105.983C104.951 100.928 103.429 95.6737 102.481 90.3074C101.663 86.6274 102.203 82.783 104.005 79.4552ZM62.1185 125.164C63.2675 124.363 64.1659 123.264 64.7131 121.991C65.3133 120.216 66.4429 118.658 67.9563 117.517C70.0806 116.486 72.7239 114.804 73.259 112.662C73.5055 111.325 73.2523 109.945 72.5455 108.775C72.9543 108.745 73.3469 108.607 73.6812 108.375C74.0155 108.143 74.2788 107.826 74.4428 107.458C73.8961 107.795 73.2714 107.991 72.6266 108.029C72.5089 108.037 72.391 108.019 72.281 107.978C72.171 107.936 72.0717 107.871 71.9899 107.788C71.908 107.705 71.8457 107.606 71.8072 107.497C71.7688 107.388 71.7551 107.272 71.7671 107.157C71.7864 106.971 71.8447 106.792 71.9384 106.63C72.032 106.467 72.1591 106.326 72.3114 106.214C72.4638 106.102 72.6382 106.023 72.8236 105.98C73.009 105.938 73.2015 105.933 73.3888 105.967C74.4299 106.027 75.4593 106.214 76.4536 106.522C77.6212 106.951 78.8212 106.76 79.032 106.221C78.0669 106.179 77.1313 105.883 76.3239 105.364C74.9646 104.324 73.4705 103.465 71.8806 102.81C71.3464 102.69 70.8047 102.605 70.259 102.556C70.9156 101.147 70.9911 99.5439 70.4698 98.0816C69.9509 97.0979 68.7509 96.7647 67.4698 96.495C66.1888 96.2253 64.8753 95.7969 64.3888 94.7974C63.9023 93.7978 64.2266 93.0997 65.0699 92.0526C65.6339 91.3956 66.1182 90.6768 66.5131 89.9107L67.1942 88.5146C67.9132 86.8468 68.7985 85.2525 69.8374 83.7548C71.0881 82.3659 71.7443 80.5592 71.6698 78.7095C71.555 78.0508 71.3647 77.4068 71.1023 76.7898C70.6604 75.7067 70.3713 74.5698 70.2428 73.4104C70.1857 72.1908 70.5898 70.9934 71.3779 70.0469C75.5731 69.8018 79.7802 70.2633 83.8158 71.4113C90.0428 72.9979 96.4482 76.2662 103.016 79.0903C101.121 82.6337 100.548 86.7124 101.394 90.6247C102.353 96.0556 103.892 101.373 105.983 106.49C106.178 107.014 106.405 107.553 106.632 108.077C107.767 110.838 108.951 113.678 108.448 116.438C108.279 117.443 107.875 118.397 107.268 119.224C106.66 120.051 105.865 120.73 104.946 121.208C104.026 121.685 103.006 121.949 101.965 121.977C100.925 122.006 99.8911 121.799 98.9455 121.372C97.4661 120.744 96.3004 119.569 95.7022 118.104C95.0589 116.58 95.0589 114.869 95.7022 113.344C96.1322 112.376 96.8022 111.528 97.6517 110.877C98.5011 110.226 99.5032 109.792 100.567 109.616C101.394 109.482 102.242 109.567 103.023 109.863C103.805 110.159 104.491 110.654 105.01 111.298C105.625 112.06 106.008 112.976 106.117 113.94C106.226 114.905 106.056 115.88 105.627 116.756C105.261 117.542 104.669 118.207 103.923 118.669C103.177 119.131 102.309 119.37 101.427 119.358C100.551 119.348 99.7041 119.054 99.0174 118.523C98.3308 117.992 97.8435 117.253 97.632 116.422C97.3949 115.668 97.4262 114.857 97.7207 114.122C98.0152 113.388 98.5556 112.772 99.2536 112.377C99.7242 112.078 100.273 111.918 100.835 111.918C101.396 111.918 101.945 112.078 102.416 112.377C102.92 112.661 103.337 113.074 103.623 113.571C103.908 114.068 104.051 114.631 104.037 115.201C103.98 115.631 103.796 116.035 103.508 116.364C103.22 116.694 102.841 116.935 102.416 117.057C102.001 117.208 101.548 117.231 101.119 117.123C100.69 117.015 100.305 116.782 100.016 116.454C99.7616 116.191 99.6069 115.851 99.5775 115.49C99.548 115.13 99.6454 114.77 99.8536 114.471C99.9698 114.264 100.145 114.095 100.359 113.985C100.572 113.875 100.814 113.829 101.054 113.852C101.274 113.87 101.486 113.943 101.668 114.066C101.85 114.188 101.996 114.355 102.091 114.55C102.136 114.691 102.136 114.842 102.093 114.983C102.049 115.124 101.964 115.25 101.848 115.343C101.745 115.445 101.687 115.582 101.687 115.724C101.687 115.867 101.745 116.004 101.848 116.105C101.898 116.157 101.959 116.198 102.025 116.226C102.092 116.255 102.164 116.269 102.237 116.269C102.31 116.269 102.382 116.255 102.449 116.226C102.516 116.198 102.577 116.157 102.627 116.105C102.891 115.867 103.078 115.558 103.165 115.217C103.251 114.875 103.233 114.517 103.113 114.185C102.937 113.796 102.655 113.461 102.298 113.217C101.941 112.973 101.523 112.829 101.088 112.801C100.654 112.773 100.22 112.863 99.8336 113.059C99.4472 113.255 99.1233 113.552 98.8968 113.916C98.5818 114.396 98.4294 114.961 98.4614 115.53C98.4935 116.1 98.7082 116.645 99.0752 117.089C99.5097 117.595 100.095 117.955 100.749 118.12C101.403 118.285 102.093 118.246 102.724 118.009C103.34 117.82 103.887 117.46 104.299 116.973C104.71 116.486 104.969 115.892 105.043 115.264C105.092 114.505 104.929 113.746 104.572 113.07C104.215 112.394 103.677 111.825 103.016 111.425C102.372 111.02 101.624 110.805 100.859 110.805C100.094 110.805 99.3456 111.02 98.7022 111.425C97.7885 111.936 97.0784 112.735 96.6869 113.691C96.2954 114.647 96.2456 115.705 96.5455 116.692C96.8214 117.752 97.4484 118.693 98.3285 119.367C99.2086 120.042 100.292 120.412 101.41 120.421C102.497 120.435 103.566 120.144 104.489 119.581C105.412 119.019 106.15 118.209 106.616 117.247C107.124 116.186 107.322 115.007 107.188 113.842C107.053 112.677 106.591 111.571 105.854 110.647C105.226 109.845 104.388 109.225 103.428 108.853C102.468 108.482 101.423 108.372 100.405 108.537C99.432 108.682 98.4978 109.014 97.6562 109.513C96.8145 110.012 96.0819 110.669 95.5003 111.446C94.9188 112.223 94.4997 113.104 94.2672 114.04C94.0347 114.976 93.9933 115.947 94.1455 116.898C93.7388 117.695 93.2439 118.445 92.6698 119.135C92.5491 118.013 92.3266 116.903 92.0049 115.819C91.9829 115.752 91.9473 115.689 91.9002 115.634C91.8531 115.58 91.7955 115.535 91.7307 115.503C91.6658 115.47 91.5951 115.451 91.5225 115.445C91.4498 115.44 91.3768 115.448 91.3076 115.47C91.2389 115.49 91.1748 115.523 91.1194 115.568C91.064 115.613 91.0183 115.667 90.985 115.73C90.9517 115.792 90.9315 115.86 90.9257 115.93C90.9198 116 90.9284 116.07 90.9509 116.137C91.3362 117.473 91.5754 118.845 91.6644 120.23C91.2323 120.65 90.7776 121.047 90.3022 121.42C90.3185 120.067 90.1881 118.716 89.9131 117.39C89.8699 117.263 89.7799 117.156 89.6606 117.09C89.5413 117.024 89.4011 117.004 89.2675 117.034C89.1339 117.064 89.0164 117.141 88.9379 117.251C88.8593 117.361 88.8254 117.495 88.8428 117.628C89.1209 119.14 89.2297 120.678 89.1671 122.213C88.7131 122.515 88.2266 122.8 87.6914 123.086C87.8465 121.657 87.8465 120.216 87.6914 118.786C87.6868 118.712 87.6663 118.639 87.6313 118.572C87.5963 118.506 87.5475 118.447 87.4881 118.4C87.4287 118.353 87.36 118.319 87.2862 118.299C87.2125 118.279 87.1353 118.275 87.0597 118.286C86.9841 118.297 86.9117 118.323 86.847 118.363C86.7823 118.403 86.7269 118.455 86.6841 118.517C86.6413 118.579 86.6122 118.65 86.5986 118.723C86.585 118.797 86.5871 118.872 86.6049 118.945C86.7604 120.53 86.7278 122.127 86.5077 123.705C86.0212 123.927 85.5185 124.133 84.886 124.323C85.1711 122.913 85.3016 121.477 85.2752 120.04C85.2752 119.897 85.2171 119.759 85.1137 119.658C85.0103 119.557 84.8701 119.5 84.7239 119.5C84.5776 119.5 84.4374 119.557 84.334 119.658C84.2306 119.759 84.1725 119.897 84.1725 120.04C84.1882 121.598 84.0195 123.152 83.6698 124.673C83.1833 124.831 82.6644 124.974 82.0482 125.117C82.4425 123.771 82.6872 122.388 82.7779 120.992C82.7824 120.847 82.729 120.706 82.629 120.6C82.529 120.493 82.3905 120.429 82.2428 120.421C82.1704 120.418 82.0982 120.43 82.0305 120.455C81.9628 120.481 81.9008 120.519 81.8481 120.567C81.7954 120.616 81.753 120.674 81.7233 120.739C81.6937 120.803 81.6773 120.873 81.6752 120.944C81.5588 122.457 81.2705 123.952 80.8158 125.402L79.1941 125.688C79.6774 124.426 80.0252 123.118 80.232 121.785C80.241 121.714 80.2356 121.642 80.2159 121.573C80.1963 121.504 80.1629 121.44 80.1176 121.384C80.0724 121.328 80.0161 121.281 79.9523 121.246C79.8884 121.212 79.8181 121.19 79.7455 121.182C79.6016 121.164 79.4562 121.202 79.3408 121.288C79.2254 121.374 79.1494 121.502 79.1293 121.642C78.9008 123.089 78.5036 124.505 77.9455 125.862L76.3239 126.021C76.9606 124.869 77.4768 123.657 77.8644 122.404C77.8934 122.265 77.8654 122.121 77.7865 122.002C77.7076 121.883 77.5842 121.8 77.4428 121.769C77.299 121.74 77.1494 121.767 77.0254 121.844C76.9014 121.921 76.8127 122.042 76.7779 122.182C76.4375 123.56 75.937 124.896 75.286 126.164C74.7671 126.164 74.232 126.164 73.6644 126.164C74.3137 125.068 74.8566 123.916 75.286 122.721C75.3263 122.584 75.3097 122.438 75.2398 122.313C75.1699 122.188 75.0525 122.095 74.9131 122.055C74.845 122.033 74.773 122.024 74.7016 122.03C74.6301 122.036 74.5605 122.055 74.497 122.088C74.4334 122.121 74.3772 122.165 74.3317 122.22C74.2862 122.274 74.2523 122.336 74.232 122.404C73.7603 123.72 73.1517 124.985 72.4158 126.18H70.7942C71.5227 125.147 72.1473 124.047 72.659 122.896C72.7149 122.763 72.7147 122.614 72.6585 122.482C72.6022 122.349 72.4945 122.244 72.359 122.19C72.2235 122.135 72.0714 122.135 71.9361 122.19C71.8008 122.245 71.6933 122.351 71.6374 122.483C71.0548 123.767 70.3317 124.985 69.4807 126.116C68.9455 126.116 68.378 126.116 67.859 126.005C68.6982 125.02 69.4368 123.958 70.0644 122.832C70.0974 122.769 70.1173 122.699 70.123 122.628C70.1286 122.557 70.1199 122.486 70.0973 122.418C70.0747 122.35 70.0387 122.287 69.9913 122.233C69.944 122.179 69.8861 122.135 69.8212 122.102C69.7562 122.07 69.6854 122.051 69.6128 122.045C69.5401 122.039 69.4671 122.048 69.3978 122.07C69.3286 122.092 69.2644 122.127 69.2091 122.174C69.1537 122.22 69.1083 122.277 69.0753 122.34C68.3598 123.62 67.5004 124.817 66.5131 125.91L64.7617 125.72C65.7677 124.759 66.6648 123.695 67.4374 122.547C67.476 122.486 67.502 122.419 67.514 122.349C67.5259 122.279 67.5235 122.207 67.5069 122.137C67.4904 122.068 67.4599 122.003 67.4174 121.945C67.3748 121.887 67.321 121.838 67.259 121.801C67.1334 121.729 66.9842 121.706 66.8423 121.739C66.7004 121.771 66.5767 121.856 66.4969 121.975C65.5804 123.304 64.4962 124.514 63.2699 125.577L62.0699 125.402C62.077 125.322 62.0933 125.242 62.1185 125.164ZM85.5347 143.886C86.0698 143.6 86.6212 143.315 87.1563 142.997L89.9455 144.79V141.347C90.5941 140.914 91.2428 140.47 91.8914 140.015V148.201L85.5347 143.886ZM89.9455 153.136L89.0212 153.612L87.9347 152.723V154.183L86.9293 154.675L87.2698 151.184L89.9455 153.136ZM76.0806 147.678L78.1077 147.027L80.8644 149.471L81.5617 145.726C82.4212 145.377 83.2806 144.997 84.1725 144.568L82.5509 153.183L76.0806 147.678ZM80.3131 157.546L78.8536 158.102L77.232 156.848L76.9887 158.752L75.5455 159.26L76.5347 154.183L80.3131 157.546ZM66.6266 144.616C64.3154 138.626 61.3925 132.88 57.9023 127.465L59.2482 127.132C62.8786 132.412 65.7845 138.135 67.8915 144.156L66.6266 144.616ZM68.378 149.534L68.6698 149.28C68.6698 149.28 69.2698 149.28 70.2915 149.058L71.7996 150.423L72.5131 148.63L74.1347 148.233L72.5131 153.294L68.378 149.534ZM121.129 168.414H74.232V167.034H121.486L121.129 168.414ZM124.794 138.269H123.756L122.783 136.255L121.648 138.269H120.416L122.897 134.224L124.794 138.269ZM122.102 123.038C122.724 122.595 123.271 122.06 123.724 121.452C124.631 120.28 125.269 118.931 125.593 117.496C125.918 116.061 125.922 114.575 125.605 113.138C124.74 109.51 123.579 105.955 122.135 102.508C119.702 96.2888 117.416 90.4026 118.616 83.4693H119.799C118.632 90.6247 120.951 96.5743 123.416 102.873C124.84 106.281 125.989 109.793 126.854 113.376C127.139 114.653 127.143 115.975 126.863 117.253C126.583 118.531 126.027 119.735 125.232 120.785C124.448 121.832 123.356 122.618 122.102 123.038ZM125.637 102.952C127.076 106.355 128.226 109.868 129.075 113.455C129.364 114.732 129.369 116.054 129.089 117.333C128.81 118.611 128.252 119.816 127.454 120.865C126.702 121.856 125.67 122.612 124.486 123.038C125.099 122.586 125.645 122.052 126.108 121.452C127.011 120.278 127.646 118.929 127.971 117.495C128.295 116.061 128.301 114.575 127.989 113.138C127.125 109.508 125.959 105.952 124.502 102.508C122.086 96.3046 119.816 90.4502 120.983 83.4693H122.167C120.886 90.6723 123.27 96.6695 125.637 102.952ZM73.7131 93.8454C73.7952 92.8832 73.5438 91.922 72.9996 91.1165C72.7725 90.7516 74.8482 91.7829 74.6212 93.544C74.565 94.0428 74.3888 94.5214 74.1069 94.9406C73.825 95.3599 73.4455 95.7077 72.9996 95.9556C73.4475 95.3377 73.696 94.6028 73.7131 93.8454ZM72.3996 72.6488C72.3023 71.57 73.6482 71.2527 74.0212 71.2527C77.328 71.2948 80.6089 71.8298 83.7509 72.8392C86.4016 74.0109 88.8693 75.544 91.0806 77.3927C90.4184 77.5791 89.7158 77.5791 89.0536 77.3927C88.3563 77.0278 84.8049 74.4099 81.0428 74.2195C77.2806 74.0292 73.486 73.9498 73.486 73.9498C73.1771 73.8874 72.8999 73.7219 72.7018 73.4818C72.5036 73.2416 72.3968 72.9416 72.3996 72.633V72.6488ZM81.5941 105.094C79.2266 104.19 74.1023 99.3191 71.6536 100.335C71.6555 100.009 71.7244 99.687 71.8561 99.388C71.9878 99.0889 72.1796 98.8189 72.4202 98.5939C72.6608 98.3688 72.9451 98.1935 73.2564 98.0782C73.5677 97.963 73.8994 97.9102 74.232 97.9229C76.7455 97.9229 79.0969 100.779 79.8104 101.524C80.5239 102.27 82.7293 104.951 83.8968 104.761C85.0644 104.571 83.9617 105.983 81.5941 105.094ZM71.1996 95.1623C71.0698 95.8445 71.1996 95.5272 70.4212 94.7974C69.6428 94.0676 67.8428 94.3531 67.3401 94.2421C66.8374 94.131 67.9401 93.2267 69.3671 93.3219C70.7942 93.4171 71.1996 95.1623 71.1996 95.1623Z" fill="#24242E"/>
<path d="M50.5517 145.903C50.1624 146.696 49.9603 147.566 49.9603 148.447C49.9603 149.327 50.1624 150.197 50.5517 150.991C50.5517 150.991 53.0459 156.663 54.1401 158.939C55.2343 161.214 56.9721 162.873 60.11 162.352C60.3352 163.205 60.5444 164.074 60.7536 164.959C59.9398 165.391 59.2695 166.044 58.8227 166.839C58.4051 167.839 58.2556 168.927 58.3882 170H56.071C48.7495 148.715 37.2603 136.817 35.3454 134.952L37.9522 133.814C39.8671 136.153 42.2003 138.966 42.2003 138.966C42.2003 138.966 44.3405 142.015 50.6644 141.051C51.0505 141.668 51.5816 142.537 52.2735 143.643C51.4793 144.207 50.8787 144.995 50.5517 145.903ZM59.4502 37.0781C59.0394 38.6125 59.1558 40.2372 59.7813 41.7C60.4069 43.1629 61.5066 44.3821 62.9098 45.1684L63.4087 45.358C63.9716 43.6752 63.8623 41.8451 63.1029 40.2384C62.2743 38.8177 60.9899 37.7064 59.4502 37.0781ZM58.002 146.298C57.5516 145.827 56.9507 145.521 56.2992 145.433C55.6476 145.344 54.9847 145.476 54.4206 145.809C53.8566 146.141 53.4253 146.653 53.1987 147.259C52.972 147.866 52.9635 148.53 53.1746 149.142C54.0918 151.844 56.7469 156.726 57.294 158.038C57.652 158.564 58.1803 158.957 58.7935 159.152C59.4067 159.347 60.0689 159.333 60.6732 159.113C61.047 158.971 61.3873 158.756 61.6732 158.481C61.9591 158.206 62.1844 157.876 62.3352 157.511C62.486 157.147 62.5591 156.756 62.55 156.363C62.5409 155.97 62.4498 155.583 62.2823 155.225C61.1158 152.136 59.6839 149.149 58.002 146.298ZM66.2086 168.672C65.9947 168.066 65.5728 167.551 65.015 167.217C64.4571 166.883 63.7983 166.749 63.1512 166.839C61.7513 167.013 61.6386 168.688 61.6386 168.688L61.7795 170H66.6446C66.5253 169.528 66.4105 169.132 66.2086 168.688V168.672ZM131.378 136.912V133.483L127.999 137.401C127.934 137.47 127.854 137.523 127.765 137.556C127.675 137.589 127.579 137.601 127.484 137.591C127.393 137.572 127.307 137.532 127.235 137.474C127.162 137.416 127.104 137.343 127.066 137.259L123.413 128.647L119.165 135.237C119.047 135.372 118.898 135.479 118.73 135.547C118.563 135.616 118.381 135.645 118.2 135.632C117.867 135.582 117.549 135.46 117.271 135.274C116.992 135.088 116.76 134.843 116.591 134.557C115.77 133.467 113.083 130.069 111.763 128.505L109.124 136.817C109.091 137 109.018 137.174 108.91 137.327C108.801 137.48 108.66 137.608 108.497 137.702C108.233 137.799 107.95 137.834 107.671 137.804C107.391 137.774 107.123 137.679 106.887 137.528C105.825 136.991 102.221 135 100.451 134.02L101.819 143.611C101.834 143.71 101.821 143.811 101.782 143.904C101.742 143.996 101.677 144.075 101.593 144.133C101.505 144.183 101.405 144.209 101.304 144.209C101.202 144.209 101.102 144.183 101.014 144.133L93.2581 139.977V149.3C93.2548 149.398 93.2247 149.494 93.171 149.578C93.1172 149.661 93.0417 149.729 92.9523 149.774C92.8673 149.824 92.77 149.85 92.6708 149.85C92.5715 149.85 92.4742 149.824 92.3892 149.774L85.5664 145.033L83.7964 154.325C83.7805 154.419 83.7391 154.508 83.6766 154.582C83.614 154.655 83.5325 154.711 83.4406 154.743C83.3486 154.775 83.2496 154.783 83.1537 154.765C83.0578 154.747 82.9686 154.704 82.8953 154.641L75.7346 148.478L73.8519 154.388C73.8275 154.475 73.7805 154.554 73.7157 154.617C73.6508 154.681 73.5702 154.727 73.4818 154.751H73.337C73.1922 154.751 73.0635 154.751 72.3072 154.214L70.6015 152.634L72.9347 160.187C73.5999 159.997 74.2435 159.792 74.8657 159.571L76.1369 152.966C76.165 152.883 76.2135 152.807 76.278 152.747C76.3425 152.686 76.4211 152.642 76.507 152.618C76.6011 152.587 76.7023 152.582 76.799 152.604C76.8957 152.627 76.9841 152.675 77.0541 152.745L81.8815 157.074C83.3619 156.474 84.778 155.857 86.1296 155.225L86.6124 150.153C86.6255 150.059 86.6617 149.97 86.7177 149.893C86.7738 149.816 86.8481 149.753 86.9342 149.711C87.0174 149.664 87.1117 149.639 87.2077 149.639C87.3038 149.639 87.3981 149.664 87.4813 149.711L91.3271 152.618C92.6788 151.891 93.9339 151.149 95.1247 150.438L94.8994 144.354C94.8906 144.259 94.9103 144.163 94.956 144.079C95.0018 143.995 95.0716 143.926 95.1569 143.88C95.2388 143.829 95.3337 143.803 95.4304 143.803C95.5272 143.803 95.622 143.829 95.704 143.88L100.805 146.693C101.915 145.887 102.913 145.112 103.814 144.386L102.816 138.397C102.801 138.3 102.812 138.2 102.849 138.108C102.885 138.016 102.947 137.936 103.026 137.875C103.112 137.828 103.209 137.804 103.307 137.804C103.406 137.804 103.503 137.828 103.589 137.875L108.625 139.977C109.591 138.981 110.057 138.397 110.057 138.397H111.377L112.262 133.483C112.281 133.384 112.328 133.292 112.398 133.218C112.468 133.144 112.557 133.091 112.656 133.065C112.755 133.038 112.86 133.04 112.958 133.069C113.056 133.098 113.144 133.154 113.211 133.23L117.717 138.397H119.197L122.512 132.945C122.564 132.863 122.638 132.796 122.726 132.751C122.814 132.707 122.912 132.686 123.011 132.693C123.111 132.696 123.209 132.725 123.294 132.778C123.379 132.831 123.448 132.905 123.494 132.993L126.052 138.397H130.091L131.378 136.912ZM91.8099 156.9C91.7941 156.607 91.6913 156.325 91.514 156.089C91.3368 155.853 91.0929 155.673 90.8126 155.571C90.5322 155.469 90.2277 155.451 89.9367 155.517C89.6456 155.584 89.3808 155.733 89.175 155.945C88.9692 156.158 88.8314 156.425 88.7786 156.714C88.7259 157.003 88.7605 157.301 88.8782 157.571C88.9959 157.84 89.1915 158.07 89.4409 158.232C89.6902 158.394 89.9824 158.48 90.2812 158.48C90.4889 158.481 90.6945 158.439 90.8854 158.359C91.0763 158.279 91.2485 158.161 91.3916 158.013C91.5347 157.865 91.6455 157.69 91.7174 157.499C91.7893 157.308 91.8208 157.104 91.8099 156.9ZM125.698 141.099C125.72 140.89 125.697 140.679 125.631 140.479C125.564 140.279 125.456 140.095 125.313 139.939C125.169 139.783 124.994 139.659 124.799 139.573C124.603 139.488 124.392 139.444 124.178 139.444C123.964 139.444 123.752 139.488 123.557 139.573C123.361 139.659 123.186 139.783 123.043 139.939C122.899 140.095 122.791 140.279 122.724 140.479C122.658 140.679 122.635 140.89 122.657 141.099C122.696 141.468 122.873 141.811 123.154 142.06C123.434 142.308 123.799 142.446 124.178 142.446C124.556 142.446 124.921 142.308 125.202 142.06C125.483 141.811 125.659 141.468 125.698 141.099ZM101.561 150.975C101.522 150.605 101.346 150.263 101.065 150.014C100.784 149.765 100.419 149.627 100.041 149.627C99.6623 149.627 99.2974 149.765 99.0165 150.014C98.7356 150.263 98.5587 150.605 98.52 150.975C98.498 151.184 98.521 151.395 98.5875 151.595C98.6539 151.794 98.7623 151.978 98.9056 152.134C99.0489 152.29 99.224 152.415 99.4195 152.5C99.615 152.586 99.8266 152.63 100.041 152.63C100.255 152.63 100.466 152.586 100.662 152.5C100.857 152.415 101.032 152.29 101.176 152.134C101.319 151.978 101.427 151.794 101.494 151.595C101.56 151.395 101.583 151.184 101.561 150.975ZM38.805 143.627L33.9776 140.467C33.8382 140.372 33.6776 140.313 33.5095 140.293C33.3414 140.273 33.1709 140.293 33.0126 140.352C32.8544 140.412 32.7131 140.507 32.6009 140.632C32.4887 140.756 32.4089 140.906 32.3685 141.067L30.872 146.772C30.8167 146.977 30.8289 147.195 30.9069 147.394C30.9849 147.592 31.1247 147.762 31.3065 147.878L35.9247 150.912C36.0609 151.006 36.2182 151.068 36.3834 151.09C36.5487 151.113 36.7171 151.097 36.8746 151.043C37.0321 150.989 37.1741 150.898 37.2888 150.779C37.4035 150.66 37.4875 150.516 37.5338 150.359L39.2556 144.717C39.3174 144.509 39.3102 144.286 39.2351 144.082C39.1599 143.877 39.0206 143.701 38.8372 143.58L38.805 143.627ZM117.025 140.783C117.028 140.489 116.942 140.2 116.78 139.953C116.617 139.707 116.384 139.512 116.11 139.394C115.835 139.276 115.532 139.24 115.236 139.29C114.941 139.34 114.668 139.474 114.449 139.675C114.231 139.877 114.078 140.137 114.009 140.423C113.94 140.709 113.958 141.009 114.061 141.285C114.164 141.561 114.347 141.802 114.588 141.976C114.829 142.151 115.117 142.253 115.416 142.268C115.629 142.284 115.842 142.255 116.043 142.185C116.244 142.114 116.428 142.003 116.582 141.859C116.737 141.715 116.859 141.54 116.941 141.347C117.023 141.153 117.062 140.945 117.057 140.735L117.025 140.783ZM108.979 144.575C108.982 144.277 108.895 143.985 108.728 143.735C108.562 143.486 108.323 143.291 108.043 143.176C107.763 143.06 107.454 143.029 107.156 143.086C106.858 143.144 106.585 143.287 106.37 143.498C106.155 143.709 106.009 143.978 105.951 144.27C105.892 144.563 105.924 144.866 106.041 145.141C106.159 145.416 106.358 145.65 106.611 145.814C106.865 145.978 107.163 146.064 107.467 146.061C107.669 146.061 107.87 146.021 108.057 145.943C108.244 145.866 108.413 145.752 108.554 145.609C108.695 145.466 108.805 145.296 108.878 145.111C108.951 144.925 108.986 144.727 108.979 144.528V144.575ZM80.4011 161.815C80.4043 161.516 80.3169 161.224 80.1502 160.975C79.9835 160.725 79.7449 160.531 79.4649 160.415C79.1849 160.299 78.8762 160.268 78.5782 160.326C78.2802 160.383 78.0063 160.526 77.7916 160.737C77.5768 160.948 77.4309 161.217 77.3724 161.51C77.314 161.802 77.3456 162.106 77.4633 162.381C77.581 162.655 77.7794 162.89 78.0332 163.053C78.2871 163.217 78.5848 163.303 78.8885 163.3C79.2884 163.296 79.6707 163.138 79.9535 162.86C80.2362 162.583 80.3969 162.207 80.4011 161.815ZM105.15 127.699L104.683 128.837L103.508 128.316L102.511 129.69L105.552 131.002L106.839 127.699H105.15ZM75.1393 142.079C76.2335 141.684 88.3663 137.149 92.6949 130.164C86.4193 131.744 72.098 132.772 68.8154 132.977C69.9098 136.133 71.4306 139.13 73.337 141.889C73.5906 142.08 73.893 142.199 74.211 142.233C74.529 142.266 74.8502 142.213 75.1393 142.079ZM120.195 73.7058C112.358 73.4846 104.892 70.0873 97.6671 66.8006C93.248 64.6105 88.6314 62.8279 83.8768 61.4755C75.6703 59.4687 71.6957 60.0534 70.2958 60.4326C70.3923 61.6335 70.521 62.8818 70.682 63.8141C72.6451 63.4349 76.7484 63.1979 84.1343 64.9992C95.5591 67.7803 107.531 76.8503 120.227 77.1979C123.952 77.3184 127.682 77.144 131.378 76.6765V73.2002C127.67 73.6526 123.931 73.8217 120.195 73.7058ZM52.5309 128.489C53.8327 129.982 54.9657 131.608 55.9101 133.34C56.1602 134.385 56.1565 135.473 55.8994 136.516C55.6422 137.559 55.1388 138.528 54.4297 139.345C55.0734 140.293 55.6848 141.257 56.2641 142.237C57.8071 142.38 59.2517 143.044 60.3513 144.117C61.9605 145.697 66.0798 153.598 65.8385 156.964C65.8172 157.695 65.6434 158.415 65.3279 159.078C65.0124 159.741 64.5618 160.334 64.0041 160.819C64.4063 162.257 64.7121 163.442 64.9052 164.28C65.6771 164.281 66.4333 164.493 67.0896 164.892C67.746 165.291 68.2766 165.861 68.6223 166.539C69.0154 167.67 69.3273 168.826 69.5556 170H71.2612C71.2612 170 65.6776 143.975 54.6067 127.889L52.5309 128.489ZM129.769 63.3717C129.166 64.2135 128.815 65.2042 128.756 66.2317C128.77 67.4123 129.189 68.5536 129.946 69.471C130.574 68.4755 131.378 66.4846 129.769 63.3717ZM104.023 65.2362C105.549 64.2644 107.26 63.6065 109.052 63.3023C110.844 62.9981 112.681 63.054 114.45 63.4665C117.207 64.3599 119.592 66.1132 121.241 68.4597C120.436 65.5049 118.57 61.5071 114.386 60.7644C112.399 60.3439 110.328 60.5497 108.467 61.3526C106.607 62.1556 105.051 63.5146 104.023 65.2362ZM43.9865 135.916C44.7234 136.605 45.619 137.108 46.5969 137.383C47.5747 137.658 48.6059 137.697 49.6023 137.496C52.9815 136.659 51.7907 133.167 51.5172 132.756C50.7834 131.664 49.9939 130.609 49.1518 129.595C46.9794 130.322 44.3244 131.27 41.2992 132.487C42.0702 133.719 42.9709 134.869 43.9865 135.916ZM37.3407 156.3L34.8305 162.099C34.7526 162.278 34.7309 162.476 34.7681 162.668C34.8054 162.859 34.8999 163.035 35.0397 163.173L39.0625 167.345C39.1761 167.451 39.313 167.531 39.4627 167.578C39.6124 167.624 39.7709 167.636 39.9262 167.613C40.0814 167.591 40.2293 167.533 40.3585 167.446C40.4877 167.358 40.5948 167.243 40.6716 167.108L43.4393 161.546C43.5268 161.36 43.5566 161.153 43.5251 160.951C43.4937 160.749 43.4023 160.56 43.2623 160.408L39.0142 156C38.8982 155.879 38.7533 155.788 38.5927 155.737C38.432 155.685 38.2607 155.673 38.0944 155.703C37.9281 155.733 37.772 155.803 37.6404 155.907C37.5087 156.012 37.4057 156.147 37.3407 156.3ZM97.2487 61.1279C98.0366 60.2112 98.513 59.0756 98.6111 57.8799C98.7092 56.6842 98.4241 55.4884 97.7958 54.4597C97.1161 55.426 96.7077 56.5511 96.6116 57.7217C96.5156 58.8924 96.7353 60.0672 97.2487 61.1279ZM71.4061 57.9676H71.5992C72.7256 56.8299 76.7806 53.2272 81.5597 54.0488C84.9193 54.8657 87.8124 56.9566 89.6054 59.8638C89.3496 57.9757 88.4556 56.2267 87.0667 54.8972C85.6778 53.5677 83.8745 52.7348 81.9459 52.5319C79.8195 52.2025 77.6417 52.5607 75.7406 53.5525C73.8396 54.5444 72.3183 56.1161 71.4061 58.0308V57.9676ZM102.237 41.2971C102.335 39.6746 101.876 38.0668 100.934 36.7305C99.6898 37.8645 98.8765 39.3809 98.6278 41.0296C98.3792 42.6784 98.7101 44.3611 99.5659 45.8005C101.016 44.6951 101.973 43.081 102.237 41.2971Z" fill="#C72F2A"/>
<path d="M80.5076 56.917L78.5454 58.0258C77.2562 57.8297 75.957 57.7027 74.6535 57.6456C75.5069 56.9818 76.4868 56.4901 77.5362 56.1991C78.5857 55.9082 79.6839 55.8237 80.767 55.9507C83.1931 56.5248 85.3278 57.9299 86.7833 59.9108C85.8751 59.6257 84.9508 59.3564 84.0427 59.1346L81.9346 58.6594L80.5076 56.917ZM77.686 161.797C77.686 162.003 77.7697 162.2 77.9187 162.346C78.0677 162.491 78.2698 162.573 78.4806 162.573C78.6956 162.573 78.9018 162.49 79.0539 162.341C79.2059 162.193 79.2914 161.991 79.2914 161.781C79.2914 161.571 79.2059 161.37 79.0539 161.221C78.9018 161.073 78.6956 160.989 78.4806 160.989C78.3734 160.989 78.2674 161.01 78.1688 161.051C78.0702 161.092 77.9811 161.152 77.9069 161.228C77.8327 161.303 77.7748 161.392 77.7369 161.49C77.6989 161.588 77.6816 161.692 77.686 161.797ZM63.6427 47.7453H63.4968H63.2049L68.5887 57.2496C68.9165 56.479 69.0853 55.6527 69.0853 54.8181C69.0853 53.9836 68.9165 53.1572 68.5887 52.3866C67.5598 50.2938 65.8085 48.6223 63.6427 47.6661V47.7453ZM71.3779 53.7014C72.6907 52.2633 74.3607 51.1799 76.2268 50.5556C78.0929 49.9314 80.0922 49.7873 82.0319 50.1372C83.8027 50.3521 85.4901 50.9967 86.9404 52.0121C88.3907 53.0276 89.5576 54.3816 90.3346 55.9507C91.5154 52.2889 93.9486 49.1348 97.2265 47.0167C94.9724 44.8623 88.9076 40.2052 81.2211 39.9201C75.7238 39.7142 70.3887 41.8051 65.3616 46.1137C67.6816 47.2413 69.5566 49.084 70.6968 51.357C71.0436 52.1004 71.2732 52.8908 71.3779 53.7014ZM19.567 146.733L17.1995 144.515C17.0219 144.351 16.7869 144.26 16.5427 144.26C16.2985 144.26 16.0635 144.351 15.886 144.515C15.7643 144.61 15.666 144.731 15.5985 144.868C15.531 145.005 15.496 145.155 15.496 145.307C15.496 145.459 15.531 145.609 15.5985 145.746C15.666 145.884 15.7643 146.004 15.886 146.099L18.2049 148.285C18.2049 148.285 19.0481 148.966 19.6806 148.285C19.79 148.182 19.8749 148.057 19.9293 147.918C19.9837 147.78 20.0063 147.631 19.9955 147.483C19.9846 147.335 19.9407 147.191 19.8666 147.061C19.7926 146.932 19.6903 146.819 19.567 146.733ZM125.848 170.002H126.513C127.803 170.002 129.041 169.502 129.953 168.611C130.865 167.719 131.378 166.511 131.378 165.25V153.655C129.007 158.92 127.155 164.394 125.848 170.002ZM119.881 44.102C111.772 42.0903 103.389 45.987 100.583 47.476C103.193 51.6968 104.378 56.6118 103.972 61.5266C105.343 60.1572 107.046 59.1486 108.923 58.5947C110.8 58.0408 112.79 57.9595 114.708 58.3585C116.482 58.7259 118.129 59.5341 119.489 60.7052C120.85 61.8762 121.878 63.3703 122.475 65.0432C123.384 61.0255 125.796 57.4838 129.237 55.1112C129.414 54.994 129.623 54.9314 129.837 54.9314C130.051 54.9314 130.26 54.994 130.437 55.1112C130.773 55.319 131.088 55.5577 131.378 55.824V52.9727C130.162 50.8213 128.519 48.9286 126.545 47.4053C124.57 45.8821 122.305 44.7591 119.881 44.102ZM19.1941 153.101C19.0968 152.673 18.5779 152.879 18.5779 152.879L14.6211 156.142V165.25C14.6239 165.691 14.6591 166.135 14.7985 166.568C18.9498 162.719 19.2751 153.512 19.1941 153.101ZM16.2427 150.709C16.3544 150.603 16.4408 150.475 16.4958 150.332C16.5507 150.19 16.5727 150.038 16.5603 149.887C16.5479 149.735 16.5014 149.589 16.424 149.457C16.3467 149.325 16.2405 149.212 16.113 149.125L14.6211 147.826V150.582L14.7184 150.677C14.7184 150.677 15.5454 151.326 16.2427 150.709ZM98.6697 48.5849C96.5628 49.9515 94.8263 51.7967 93.6091 53.9623C92.3918 56.128 91.7301 58.5496 91.6806 61.0197C91.6806 61.3206 91.6806 61.5424 91.6806 61.685C93.0427 62.2394 94.4049 62.8255 95.7995 63.4433C95.6976 63.3608 95.6147 63.2582 95.5562 63.1423C91.6157 55.222 97.1778 51.547 97.1778 51.5154C97.4287 51.3613 97.7296 51.3048 98.0211 51.357C98.1651 51.389 98.301 51.449 98.4207 51.5334C98.5405 51.6177 98.6417 51.7247 98.7184 51.848C103.583 59.2931 97.2265 63.5383 97.1778 63.57C96.9965 63.692 96.7819 63.7583 96.5616 63.7601H96.4481L98.313 64.5996L100.891 65.756C101.757 62.8993 102.006 59.8984 101.623 56.9429C101.241 53.9874 100.235 51.1414 98.6697 48.5849ZM124.113 140.206C123.956 140.206 123.802 140.252 123.672 140.337C123.541 140.423 123.439 140.544 123.379 140.686C123.319 140.827 123.303 140.983 123.334 141.134C123.364 141.285 123.44 141.423 123.551 141.531C123.662 141.64 123.804 141.714 123.958 141.744C124.112 141.774 124.272 141.758 124.417 141.7C124.562 141.641 124.686 141.541 124.774 141.414C124.861 141.286 124.908 141.136 124.908 140.983C124.908 140.777 124.824 140.579 124.675 140.434C124.526 140.288 124.324 140.206 124.113 140.206ZM106.486 144.467C106.486 144.678 106.571 144.879 106.723 145.028C106.875 145.176 107.082 145.26 107.297 145.26C107.512 145.26 107.718 145.176 107.87 145.028C108.022 144.879 108.108 144.678 108.108 144.467C108.108 144.257 108.022 144.056 107.87 143.907C107.718 143.759 107.512 143.675 107.297 143.675C107.082 143.675 106.875 143.759 106.723 143.907C106.571 144.056 106.486 144.257 106.486 144.467ZM24.2049 139.715C24.0246 139.551 23.7869 139.459 23.54 139.459C23.2931 139.459 23.0554 139.551 22.8751 139.715C22.7585 139.813 22.665 139.935 22.6008 140.072C22.5367 140.208 22.5035 140.357 22.5035 140.507C22.5035 140.658 22.5367 140.806 22.6008 140.943C22.665 141.08 22.7585 141.201 22.8751 141.299L25.2103 143.39C25.2103 143.39 26.0535 144.056 26.686 143.39C26.8004 143.286 26.8893 143.158 26.946 143.016C27.0026 142.873 27.0256 142.72 27.0131 142.568C27.0006 142.415 26.953 142.268 26.8739 142.136C26.7948 142.004 26.6862 141.891 26.5562 141.806L24.2049 139.715ZM99.0589 150.93C99.0589 151.084 99.1055 151.234 99.1928 151.362C99.2802 151.489 99.4043 151.589 99.5494 151.648C99.6946 151.706 99.8544 151.722 100.009 151.692C100.163 151.662 100.304 151.588 100.415 151.479C100.527 151.371 100.602 151.232 100.633 151.082C100.664 150.931 100.648 150.775 100.588 150.633C100.527 150.492 100.426 150.37 100.295 150.285C100.164 150.2 100.011 150.154 99.8535 150.154C99.651 150.154 99.4559 150.229 99.3082 150.365C99.1605 150.5 99.0713 150.685 99.0589 150.883V150.93ZM19.3724 143.628L21.7076 145.798C21.7076 145.798 22.5508 146.479 23.1833 145.798C23.2986 145.695 23.3886 145.568 23.4465 145.426C23.5045 145.284 23.5289 145.132 23.518 144.979C23.5071 144.827 23.4611 144.679 23.3835 144.547C23.3059 144.414 23.1986 144.3 23.0697 144.214L20.7022 141.996C20.5219 141.832 20.2842 141.74 20.0373 141.74C19.7904 141.74 19.5527 141.832 19.3724 141.996C19.2473 142.094 19.1463 142.219 19.0769 142.36C19.0076 142.501 18.9715 142.656 18.9715 142.812C18.9715 142.969 19.0076 143.123 19.0769 143.265C19.1463 143.406 19.2473 143.53 19.3724 143.628ZM129.837 57.3605C123.61 62.1127 123.983 70.5715 124.016 71.2685C125.637 71.2685 127.162 71.1576 128.572 71.0309C127.239 69.6405 126.502 67.8037 126.513 65.8985C126.667 63.8157 127.616 61.8653 129.172 60.4336C129.291 60.3307 129.43 60.2536 129.581 60.2072C129.732 60.1607 129.891 60.1461 130.048 60.1643C130.207 60.185 130.359 60.2398 130.494 60.3247C130.628 60.4096 130.742 60.5225 130.827 60.6553C131.054 60.988 131.199 61.2523 131.378 61.5691V58.9889C130.912 58.3795 130.427 57.8567 129.837 57.3605ZM121.502 163.666H81.967C93.8052 159.625 104.29 152.505 112.291 143.074L129.594 144.483H129.902C130.713 144.483 129.902 145.861 129.902 145.861C127.404 151.361 125.238 157 123.416 162.747C123.27 163.413 121.502 163.666 121.502 163.666ZM119.508 161.369C117.903 160.049 116.139 158.926 114.254 158.027C112.017 157.997 109.781 158.097 107.556 158.328C107.493 158.303 107.439 158.261 107.401 158.206C107.362 158.151 107.342 158.086 107.342 158.019C107.342 157.953 107.362 157.888 107.401 157.833C107.439 157.777 107.493 157.735 107.556 157.71C107.847 157.418 108.204 157.195 108.598 157.061C108.992 156.926 109.412 156.883 109.826 156.934C111.448 156.934 112.437 157.647 113.589 157.473C114.062 157.448 114.526 157.33 114.951 157.124C114.505 156.61 113.952 156.194 113.329 155.904C112.664 155.746 112.389 155.793 112.308 155.746C112.466 155.509 112.682 155.313 112.937 155.178C113.192 155.043 113.477 154.971 113.767 154.97C114.562 154.97 116.427 156.554 118.097 156.855C119.847 156.993 121.608 156.777 123.27 156.221C124.113 155.889 125.199 155.54 125.167 155.366C124.017 154.12 122.467 153.293 120.772 153.021C118.405 152.72 116.086 154.463 115.616 154.447C115.511 154.454 115.406 154.428 115.318 154.372C115.23 154.317 115.162 154.234 115.125 154.138C115.089 154.042 115.085 153.936 115.115 153.838C115.145 153.739 115.207 153.653 115.291 153.592C116.299 152.748 117.53 152.199 118.843 152.008C119.963 151.896 121.095 151.949 122.199 152.166C122.199 152.166 122.199 150.994 121.583 150.582L121.016 150.249C122.158 149.952 123.325 149.75 124.502 149.647C125.542 149.42 126.498 148.919 127.267 148.198C128.036 147.478 128.588 146.566 128.864 145.56C128.864 145.56 123.594 143.137 119.978 149.6C119.9 149.684 119.8 149.746 119.688 149.78C119.577 149.813 119.459 149.817 119.345 149.79C119.431 149.437 119.41 149.068 119.283 148.727C119.156 148.386 118.93 148.09 118.632 147.873C118.632 147.873 117.302 152.293 114.772 152.879C114.772 152.879 114.448 152.768 114.432 152.673C114.416 152.578 119.589 147.16 115.648 144.388C113.963 145.919 112.962 148.035 112.859 150.281C112.859 153.718 112.648 154.336 112.194 154.558C111.893 154.678 111.555 154.678 111.254 154.558C111.254 154.558 112.875 151.897 111.432 150.487C111.432 150.487 109.616 151.2 108.578 155.572C107.793 156.549 106.678 157.223 105.432 157.473C105.442 157.155 105.532 156.845 105.693 156.568C105.854 156.292 106.082 156.059 106.356 155.889C107.345 155.16 110.151 151.263 109.162 148.095C107.783 148.859 106.598 149.917 105.694 151.189C104.79 152.461 104.191 153.916 103.94 155.445C103.91 156.24 103.802 157.031 103.616 157.805C103.253 158.236 102.779 158.565 102.244 158.76C101.709 158.955 101.13 159.008 100.567 158.914C100.567 158.914 103.372 156.348 102.351 154.162C102.351 154.162 99.3184 154.035 98.1184 159.421C98.0129 159.785 97.7983 160.111 97.5022 160.356C97.0806 160.593 92.313 161.369 92.313 161.369C92.313 161.369 91.4373 161.781 92.0211 162.431C92.6049 163.08 93.4968 162.557 93.4968 162.557C94.868 161.978 96.3138 161.583 97.7941 161.385C99.1591 162.008 100.597 162.465 102.075 162.747C103.262 162.77 104.44 162.543 105.529 162.082C104.522 161.469 103.429 161 102.286 160.688L100.145 160.498C101.633 159.581 103.388 159.169 105.14 159.326C107.019 159.7 108.805 160.432 110.394 161.48C111.369 162.061 112.496 162.353 113.637 162.32C115.634 162.298 117.614 161.972 119.508 161.353V161.369ZM89.2157 156.871C89.2157 157.024 89.2623 157.174 89.3496 157.302C89.4369 157.429 89.561 157.529 89.7062 157.588C89.8514 157.646 90.0112 157.662 90.1653 157.632C90.3194 157.602 90.461 157.528 90.5721 157.419C90.6833 157.311 90.7589 157.173 90.7896 157.022C90.8203 156.871 90.8045 156.715 90.7444 156.574C90.6842 156.432 90.5824 156.311 90.4517 156.225C90.3211 156.14 90.1674 156.094 90.0103 156.094C89.7995 156.094 89.5974 156.176 89.4484 156.322C89.2994 156.467 89.2157 156.665 89.2157 156.871ZM120.221 71.3318H120.643C119.237 68.535 116.788 66.3699 113.799 65.2808C110.07 64.1719 106.194 66.1203 104.378 67.245C105.772 67.8311 107.183 68.3855 108.594 68.829L113.329 66.5322L116.572 70.92C117.764 71.1183 118.966 71.2505 120.172 71.316L120.221 71.3318ZM114.61 140.666C114.61 140.819 114.657 140.969 114.744 141.097C114.832 141.225 114.956 141.324 115.101 141.383C115.246 141.442 115.406 141.457 115.56 141.427C115.714 141.397 115.856 141.323 115.967 141.215C116.078 141.106 116.154 140.968 116.184 140.817C116.215 140.667 116.199 140.511 116.139 140.369C116.079 140.227 115.977 140.106 115.846 140.02C115.716 139.935 115.562 139.89 115.405 139.89C115.194 139.89 114.992 139.971 114.843 140.117C114.694 140.262 114.61 140.46 114.61 140.666Z" fill="#F4C900"/>
</g>
<path d="M27.3846 73.9243C23.2308 79.4627 18.4615 84.6935 13.2308 89.4627C12.9231 89.7704 12.9231 90.232 13.2308 90.5397C18.4615 95.3089 23.2308 100.54 27.3846 106.078C27.6923 106.54 28.3077 106.54 28.6154 106.078C32.7692 100.54 37.5385 95.3089 42.7692 90.5397C43.0769 90.232 43.0769 89.7704 42.7692 89.4627C37.5385 84.6935 32.7692 79.4627 28.6154 73.9243C28.3077 73.4627 27.6923 73.4627 27.3846 73.9243Z" fill="#BF3030"/>
<path d="M30.7913 31.44L43.0753 64H35.8973L26.5733 37.286L22.4293 43.576V64H15.9913V11.756H22.4293V34.252L35.8973 11.756H43.0753L30.7913 31.44Z" fill="#BF3030"/>
<defs>
<linearGradient id="paint0_linear_324_104464" x1="92" y1="2" x2="92" y2="182" gradientUnits="userSpaceOnUse">
<stop stop-color="white" stop-opacity="0.85"/>
<stop offset="1" stop-color="white" stop-opacity="0.15"/>
</linearGradient>
<clipPath id="clip0_324_104464">
<rect width="120" height="165" fill="white" transform="translate(13 5)"/>
</clipPath>
</defs>
</svg>
