<svg width="184" height="184" viewBox="0 0 184 184" fill="none" xmlns="http://www.w3.org/2000/svg">
<rect x="1" y="1" width="182" height="182" rx="13" stroke="black" stroke-opacity="0.25" stroke-width="2"/>
<rect x="2.5" y="2.5" width="179" height="179" rx="11.5" fill="#E9E9E9" stroke="url(#paint0_linear_324_104450)"/>
<rect x="41.0449" y="30.5" width="101.909" height="123" rx="1.5" fill="#D7D5D7" stroke="#CDCFD6"/>
<path d="M85.6154 90.8257C76.2692 103.287 65.5385 115.057 53.7692 125.787C53.0769 126.48 53.0769 127.518 53.7692 128.21C65.5385 138.941 76.2692 150.71 85.6154 163.172C86.3077 164.21 87.6923 164.21 88.3846 163.172C97.7308 150.71 108.462 138.941 120.231 128.21C120.923 127.518 120.923 126.48 120.231 125.787C108.462 115.057 97.7308 103.287 88.3846 90.8257C87.6923 89.7873 86.3077 89.7873 85.6154 90.8257Z" fill="#BF3030"/>
<path d="M27.3846 73.9243C23.2308 79.4627 18.4615 84.6935 13.2308 89.4627C12.9231 89.7704 12.9231 90.232 13.2308 90.5397C18.4615 95.3089 23.2308 100.54 27.3846 106.078C27.6923 106.54 28.3077 106.54 28.6154 106.078C32.7692 100.54 37.5385 95.3089 42.7692 90.5397C43.0769 90.232 43.0769 89.7704 42.7692 89.4627C37.5385 84.6935 32.7692 79.4627 28.6154 73.9243C28.3077 73.4627 27.6923 73.4627 27.3846 73.9243Z" fill="#BF3030"/>
<path d="M39.227 58.376V64H16.361V57.784L27.165 39.506C31.605 31.884 32.419 29.812 32.419 24.188C32.419 21.82 32.345 17.084 27.609 17.084C22.947 17.084 22.947 21.524 22.947 24.41V30.404H16.953V23.892C16.953 19.452 17.471 16.418 19.617 14.124C21.171 12.496 23.835 11.09 27.461 11.09C31.531 11.09 33.825 12.644 35.231 14.124C37.895 16.936 38.561 20.34 38.561 24.706C38.561 31.366 36.489 35.732 33.677 40.394L22.947 58.376H39.227Z" fill="#BF3030"/>
<defs>
<linearGradient id="paint0_linear_324_104450" x1="92" y1="2" x2="92" y2="182" gradientUnits="userSpaceOnUse">
<stop stop-color="white" stop-opacity="0.85"/>
<stop offset="1" stop-color="white" stop-opacity="0.15"/>
</linearGradient>
</defs>
</svg>
