<svg width="184" height="184" viewBox="0 0 184 184" fill="none" xmlns="http://www.w3.org/2000/svg">
<rect x="1" y="1" width="182" height="182" rx="13" stroke="black" stroke-opacity="0.25" stroke-width="2"/>
<rect x="2.5" y="2.5" width="179" height="179" rx="11.5" fill="#E9E9E9" stroke="url(#paint0_linear_324_104517)"/>
<rect x="41.0449" y="30.5" width="101.909" height="123" rx="1.5" fill="#D7D5D7" stroke="#CDCFD6"/>
<path d="M106.039 119.213C103.962 119.213 101.885 119.559 99.8084 120.252C103.616 116.79 106.039 112.29 106.039 107.098C106.039 97.0592 97.3854 89.0977 87.0008 89.0977C76.6161 89.0977 67.9623 97.4054 67.9623 107.098C67.9623 112.29 70.3854 117.136 74.1931 120.252C72.1161 119.559 70.3854 119.213 67.9623 119.213C57.5777 119.213 48.9238 127.175 48.9238 137.213C48.9238 147.252 57.5777 155.213 67.9623 155.213C75.5777 155.213 81.8084 151.059 84.9238 145.175C84.5777 150.367 82.8469 158.328 77.6546 163.521C76.9623 164.213 77.3084 164.905 78.3469 164.905H87.0008H95.6546C96.3469 164.905 96.6931 163.867 96.3469 163.521C91.1546 158.328 89.4238 150.713 89.0777 145.175C92.1931 151.059 98.77 155.213 106.039 155.213C116.424 155.213 125.078 147.252 125.078 137.213C125.078 127.521 116.424 119.213 106.039 119.213Z" fill="#24242E"/>
<path d="M36.4608 86.537C35.5377 86.537 34.6146 86.6908 33.6916 86.9985C35.3839 85.46 36.4608 83.46 36.4608 81.1523C36.4608 76.6908 32.6146 73.1523 27.9992 73.1523C23.3839 73.1523 19.5377 76.8447 19.5377 81.1523C19.5377 83.46 20.6146 85.6139 22.3069 86.9985C21.3839 86.6908 20.6146 86.537 19.5377 86.537C14.9223 86.537 11.0762 90.0754 11.0762 94.537C11.0762 98.9985 14.9223 102.537 19.5377 102.537C22.9223 102.537 25.6916 100.691 27.0762 98.0754C26.9223 100.383 26.1531 103.922 23.8454 106.229C23.5377 106.537 23.6916 106.845 24.1531 106.845H27.9992H31.8454C32.1531 106.845 32.3069 106.383 32.1531 106.229C29.8454 103.922 29.0762 100.537 28.9223 98.0754C30.3069 100.691 33.23 102.537 36.4608 102.537C41.0762 102.537 44.9223 98.9985 44.9223 94.537C44.9223 90.2293 41.0762 86.537 36.4608 86.537Z" fill="#24242E"/>
<path d="M16.583 50.236H22.577C22.503 52.826 22.503 54.01 22.577 54.232C22.577 55.49 22.725 58.894 27.461 58.894C32.345 58.894 32.419 55.268 32.567 49.94C32.641 48.756 32.567 42.836 32.567 41.504C31.383 42.688 29.311 44.76 25.019 44.76C16.065 44.76 16.065 35.954 16.065 32.698C16.065 27.962 16.065 21.598 16.731 18.564C17.915 12.792 22.947 11.09 27.461 11.09C29.459 11.09 31.531 11.312 33.307 12.2C34.343 12.718 37.821 14.79 38.561 19.896C38.783 21.154 38.783 22.486 38.783 34.252C38.783 37.582 38.709 52.308 38.561 54.602C37.747 63.704 31.013 64.666 27.387 64.666C22.207 64.666 17.841 62.15 16.879 57.562C16.583 56.304 16.583 55.712 16.583 50.236ZM32.641 28.258C32.641 28.036 32.641 22.264 32.567 21.672C32.123 18.046 29.903 16.788 27.683 16.788C25.833 16.788 22.947 17.676 22.503 21.746C22.355 23.004 22.281 28.332 22.281 30.404L22.355 34.252C22.577 37.212 24.427 39.136 27.609 39.136C30.717 39.136 32.641 37.138 32.641 33.438V28.258Z" fill="#24242E"/>
<defs>
<linearGradient id="paint0_linear_324_104517" x1="92" y1="2" x2="92" y2="182" gradientUnits="userSpaceOnUse">
<stop stop-color="white" stop-opacity="0.85"/>
<stop offset="1" stop-color="white" stop-opacity="0.15"/>
</linearGradient>
</defs>
</svg>
