<svg width="184" height="184" viewBox="0 0 184 184" fill="none" xmlns="http://www.w3.org/2000/svg">
<rect x="1" y="1" width="182" height="182" rx="13" stroke="black" stroke-opacity="0.25" stroke-width="2"/>
<rect x="2.5" y="2.5" width="179" height="179" rx="11.5" fill="#E9E9E9" stroke="url(#paint0_linear_324_104581)"/>
<rect x="41.0449" y="30.5" width="101.909" height="123" rx="1.5" fill="#D7D5D7" stroke="#CDCFD6"/>
<path d="M102.962 106.144C97.7694 101.99 90.154 93.3362 87.0386 89.8747C86.3463 89.1824 84.9617 89.1824 84.2694 89.8747C81.154 93.3362 73.8848 101.99 68.3463 106.144C56.2309 116.529 51.3848 121.375 51.3848 130.375C51.3848 140.759 60.3848 149.413 71.4617 149.413C75.6155 149.413 80.4617 148.029 83.5771 145.605L83.9232 145.259C83.2309 150.452 81.5001 158.067 76.3078 163.259C75.6155 163.952 75.9617 164.644 77.0001 164.644H86.0001H95.0001C95.6925 164.644 96.0386 163.605 95.6925 163.259C90.5001 158.067 88.7694 150.798 88.0771 145.259L88.4232 145.605C91.1925 148.029 96.3848 149.413 100.539 149.413C111.616 149.413 120.616 140.759 120.616 130.375C120.616 121.375 115.769 116.529 102.962 106.144Z" fill="#24242E"/>
<path d="M34.5383 80.7311C32.2306 78.8849 28.846 75.0388 27.4614 73.5003C27.1537 73.1926 26.5383 73.1926 26.2306 73.5003C24.846 75.0388 21.6152 78.8849 19.1537 80.7311C13.7691 85.3465 11.6152 87.5003 11.6152 91.5003C11.6152 96.1157 15.6152 99.9618 20.5383 99.9618C22.3845 99.9618 24.5383 99.3465 25.9229 98.2695L26.0768 98.1157C25.7691 100.423 24.9998 103.808 22.6922 106.116C22.3845 106.423 22.5383 106.731 22.9998 106.731H26.9998H30.9998C31.3075 106.731 31.4614 106.27 31.3075 106.116C28.9998 103.808 28.2306 100.577 27.9229 98.1157L28.0768 98.2695C29.3075 99.3465 31.6152 99.9618 33.4614 99.9618C38.3845 99.9618 42.3845 96.1157 42.3845 91.5003C42.3845 87.5003 40.2306 85.3465 34.5383 80.7311Z" fill="#24242E"/>
<path d="M38.227 58.376V64H15.361V57.784L26.165 39.506C30.605 31.884 31.419 29.812 31.419 24.188C31.419 21.82 31.345 17.084 26.609 17.084C21.947 17.084 21.947 21.524 21.947 24.41V30.404H15.953V23.892C15.953 19.452 16.471 16.418 18.617 14.124C20.171 12.496 22.835 11.09 26.461 11.09C30.531 11.09 32.825 12.644 34.231 14.124C36.895 16.936 37.561 20.34 37.561 24.706C37.561 31.366 35.489 35.732 32.677 40.394L21.947 58.376H38.227Z" fill="#24242E"/>
<g clip-path="url(#clip0_324_104581)">
<path d="M81.1025 37.957H76.4225L72.2825 13.693H77.1785L78.3665 23.377C78.6905 26.149 78.9065 28.921 79.1945 31.873H79.3025C79.6265 28.885 80.1665 26.257 80.6705 23.341L82.3985 13.693H86.2145L87.8345 23.269C88.2665 26.005 88.6985 28.705 88.9865 31.873H89.0585C89.3825 28.705 89.6705 26.113 89.9945 23.305L91.1825 13.693H95.7905L91.5065 37.957H86.6465L85.2065 30.001C84.8105 27.769 84.4505 24.997 84.1265 22.045H84.0545C83.6225 24.961 83.2265 27.661 82.7225 30.037L81.1025 37.957ZM98.336 13.693H103.052V37.957H98.336V13.693ZM107.266 37.957V13.693H111.982V33.961H118.174V37.957H107.266ZM120.942 37.849V14.053C122.13 13.765 123.858 13.585 125.73 13.585C128.79 13.585 130.914 14.305 132.462 15.745C134.55 17.617 135.63 20.821 135.63 25.537C135.63 30.433 134.37 33.925 132.246 35.797C130.59 37.345 128.214 38.137 124.866 38.137C123.354 38.137 121.878 37.993 120.942 37.849ZM125.658 17.473V34.213C125.91 34.285 126.234 34.285 126.486 34.285C128.754 34.285 130.734 32.053 130.734 25.357C130.734 20.389 129.438 17.365 126.594 17.365C126.27 17.365 125.946 17.365 125.658 17.473Z" fill="#24242E"/>
<path opacity="0.8" d="M84.948 62.957H81.048L77.598 42.737H81.678L82.668 50.807C82.938 53.117 83.118 55.427 83.358 57.887H83.448C83.718 55.397 84.168 53.207 84.588 50.777L86.028 42.737H89.208L90.558 50.717C90.918 52.997 91.278 55.247 91.518 57.887H91.578C91.848 55.247 92.088 53.087 92.358 50.747L93.348 42.737H97.188L93.618 62.957H89.568L88.368 56.327C88.038 54.467 87.738 52.157 87.468 49.697H87.408C87.048 52.127 86.718 54.377 86.298 56.357L84.948 62.957ZM99.3093 42.737H103.239V62.957H99.3093V42.737ZM106.751 62.957V42.737H110.681V59.627H115.841V62.957H106.751ZM118.147 62.867V43.037C119.137 42.797 120.577 42.647 122.137 42.647C124.687 42.647 126.457 43.247 127.747 44.447C129.487 46.007 130.387 48.677 130.387 52.607C130.387 56.687 129.337 59.597 127.567 61.157C126.187 62.447 124.207 63.107 121.417 63.107C120.157 63.107 118.927 62.987 118.147 62.867ZM122.077 45.887V59.837C122.287 59.897 122.557 59.897 122.767 59.897C124.657 59.897 126.307 58.037 126.307 52.457C126.307 48.317 125.227 45.797 122.857 45.797C122.587 45.797 122.317 45.797 122.077 45.887Z" fill="#24242E"/>
<path opacity="0.5" d="M88.7936 83.957H85.6736L82.9136 67.781H86.1776L86.9696 74.237C87.1856 76.085 87.3296 77.933 87.5216 79.901H87.5936C87.8096 77.909 88.1696 76.157 88.5056 74.213L89.6576 67.781H92.2016L93.2816 74.165C93.5696 75.989 93.8576 77.789 94.0496 79.901H94.0976C94.3136 77.789 94.5056 76.061 94.7216 74.189L95.5136 67.781H98.5856L95.7296 83.957H92.4896L91.5296 78.653C91.2656 77.165 91.0256 75.317 90.8096 73.349H90.7616C90.4736 75.293 90.2096 77.093 89.8736 78.677L88.7936 83.957ZM100.283 67.781H103.427V83.957H100.283V67.781ZM106.236 83.957V67.781H109.38V81.293H113.508V83.957H106.236ZM115.353 83.885V68.021C116.145 67.829 117.297 67.709 118.545 67.709C120.585 67.709 122.001 68.189 123.033 69.149C124.425 70.397 125.145 72.533 125.145 75.677C125.145 78.941 124.305 81.269 122.889 82.517C121.785 83.549 120.201 84.077 117.969 84.077C116.961 84.077 115.977 83.981 115.353 83.885ZM118.497 70.301V81.461C118.665 81.509 118.881 81.509 119.049 81.509C120.561 81.509 121.881 80.021 121.881 75.557C121.881 72.245 121.017 70.229 119.121 70.229C118.905 70.229 118.689 70.229 118.497 70.301Z" fill="#24242E"/>
</g>
<defs>
<linearGradient id="paint0_linear_324_104581" x1="92" y1="2" x2="92" y2="182" gradientUnits="userSpaceOnUse">
<stop stop-color="white" stop-opacity="0.85"/>
<stop offset="1" stop-color="white" stop-opacity="0.15"/>
</linearGradient>
<clipPath id="clip0_324_104581">
<rect width="97.9412" height="86.087" fill="white" transform="translate(67.1758 1.95703)"/>
</clipPath>
</defs>
</svg>
