<svg width="184" height="184" viewBox="0 0 184 184" fill="none" xmlns="http://www.w3.org/2000/svg">
<rect x="1" y="1" width="182" height="182" rx="13" stroke="black" stroke-opacity="0.25" stroke-width="2"/>
<rect x="2.5" y="2.5" width="179" height="179" rx="11.5" fill="#E9E9E9" stroke="url(#paint0_linear_324_104525)"/>
<rect x="41.0449" y="30.5" width="101.909" height="123" rx="1.5" fill="#D7D5D7" stroke="#CDCFD6"/>
<g clip-path="url(#clip0_324_104525)">
<path d="M131.378 39.8948V165.201C131.378 166.474 130.865 167.694 129.953 168.593C129.041 169.493 127.803 169.998 126.513 169.998H19.486C18.1957 169.998 16.9583 169.493 16.046 168.593C15.1336 167.694 14.6211 166.474 14.6211 165.201V128.89C28.8103 115.108 48.8049 108.392 54.7238 106.697C55.6806 106.41 56.2157 106.282 56.2157 106.282L57.5292 105.914L56.7184 104.939C56.2397 104.287 55.9178 103.537 55.7773 102.744C55.6368 101.952 55.6814 101.138 55.9076 100.366C56.1858 99.2257 56.8303 98.2049 57.7451 97.4557C58.6598 96.7065 59.7957 96.269 60.9833 96.2085C61.8675 96.2013 62.7424 96.3869 63.5454 96.7521L64.0806 97.0079V96.4323C64.0806 95.1851 64.0806 93.7621 64.0806 92.2911V91.8754H63.6589C62.8952 92.0309 62.1032 91.9825 61.3648 91.7351C60.6265 91.4878 59.9685 91.0504 59.4589 90.4684C58.9438 89.8576 58.5971 89.1262 58.4522 88.3448C58.3074 87.5634 58.3692 86.7584 58.6319 86.0074C58.8622 85.3786 59.2671 84.8263 59.8004 84.4136C60.3337 84.0008 60.974 83.7442 61.6481 83.673C62.0904 83.5904 62.5456 83.6034 62.9824 83.7111C63.4191 83.8187 63.827 84.0185 64.1778 84.2966L64.5184 84.5684L64.8103 84.0727C67.4496 80.0965 69.115 75.5696 69.6751 70.8497V62.3435C69.5292 61.688 69.367 61.0324 69.2049 60.4248V60.2489L69.0265 60.169C68.9235 60.1375 68.8298 60.0817 68.7535 60.0065C68.6772 59.9313 68.6206 59.8389 68.5887 59.7373C67.3969 56.5532 65.9939 53.4499 64.3887 50.4476C63.1562 48.0013 61.8751 45.475 60.8211 42.8848V42.8368V42.597C60.3995 41.11 59.767 38.8875 60.7238 37.4325C60.9697 37.0852 61.2907 36.7961 61.6637 36.5859C62.0366 36.3758 62.4523 36.2499 62.8806 36.2173V36.2173C64.8086 36.153 66.7235 36.5537 68.4589 37.3845L68.8319 37.5604L68.9616 37.1767C69.4481 35.4658 71.0211 31.4366 72.8211 30.5572C74.6211 29.6778 77.1184 32.1561 80.4427 37.2886L80.6373 37.5764L80.9292 37.4005C84.4913 35.3136 88.5956 34.3018 92.7346 34.4905C97.233 34.7722 101.558 36.3081 105.205 38.9195L105.529 39.1593L105.74 38.8075C106.836 36.7263 108.284 34.8446 110.021 33.2433C110.301 32.9779 110.642 32.7815 111.014 32.6704C111.386 32.5592 111.779 32.5364 112.162 32.6038C113.783 32.9395 114.918 35.0341 115.713 36.5691C115.713 36.729 115.859 36.8729 115.94 37.0008C116.426 37.9281 116.897 38.8875 117.367 39.9588L117.497 40.2626L117.821 40.1666C121.753 38.9391 125.933 38.6973 129.983 39.4631V39.4631C130.47 39.639 130.924 39.7669 131.378 39.8948Z" fill="#E7E7E7"/>
<path d="M64.4883 155.438C63.7264 156.299 62.2673 156.411 60.8407 154.912C59.4141 153.413 60.2409 147.465 60.2409 147.465C66.1095 152.217 65.2665 154.593 64.4883 155.438ZM66.4986 164.528C66.0513 166.303 65.7993 168.17 65.7617 169.998H70.3172C69.4711 167.932 68.1709 166.031 66.4986 164.528ZM69.0762 143.334C69.7409 142.393 70.2759 139.937 63.8561 135.935C63.8561 135.935 63.775 141.931 65.3962 143.254C67.0174 144.578 68.4602 144.275 69.1087 143.334H69.0762ZM131.345 140.129V134.148C128.573 137.338 129.205 138.949 129.822 139.618C130.015 139.823 130.252 139.982 130.515 140.084C130.779 140.186 131.063 140.228 131.345 140.209V140.129ZM124.52 165.533C125.688 163.811 123.856 158.086 123.856 158.086C118.879 163.731 120.111 165.948 121.019 166.649C121.926 167.351 123.369 167.255 124.52 165.533ZM75.7068 161.865C76.485 161.004 77.328 158.676 71.4594 153.891C71.4594 153.891 70.6326 159.84 72.0592 161.355C73.4858 162.87 74.9449 162.726 75.7068 161.865ZM58.8629 139.076C59.5275 138.135 60.0625 135.679 53.6427 131.661C53.6427 131.661 53.5616 137.673 55.1828 138.997C56.804 140.32 58.2144 140.017 58.8629 139.076ZM55.1504 125.154C56.885 126.302 58.263 125.872 58.8304 124.867C59.3978 123.863 59.6572 121.375 52.8645 118.026C52.9294 118.074 53.5292 124.006 55.1504 125.154ZM105.796 120.641L105.893 120.402L105.974 120.131L105.796 120.641ZM130.113 39.4532C130.535 39.5488 130.956 39.6924 131.378 39.82V79.8797C131.045 78.5208 130.86 77.1309 130.827 75.7334L129.497 75.3826C129.49 76.3863 129.566 77.389 129.724 78.3807C130.017 80.3539 130.561 82.2828 131.345 84.1217V86.6573C129.397 83.1045 128.372 79.1325 128.362 75.0955L127.082 74.7766C126.948 79.9555 128.437 85.0496 131.345 89.3684V91.3618C127.657 86.5326 125.763 80.6057 125.979 74.5692L124.715 74.2662C124.261 78.7953 125.282 85.9875 131.345 93.4031V95.0935C124.537 87.2155 123.094 79.1461 123.629 73.9473L122.364 73.6602C121.683 78.6677 122.624 87.4228 130.47 95.9865C130.746 96.2576 131.086 96.6262 131.345 96.9133V98.5878C130.84 97.9678 130.234 97.2952 129.659 96.736C121.781 88.1883 120.419 78.9229 121.197 73.3891L119.997 73.134C119.517 77.4091 119.993 81.7358 121.394 85.8104C122.794 89.885 125.084 93.6087 128.103 96.7201C129.331 97.9203 130.419 99.2523 131.345 100.691V102.876C130.284 100.884 128.923 99.0614 127.309 97.4696C119.089 88.5551 117.971 78.5401 118.927 72.8948L117.711 72.6556C117.077 77.1125 117.463 81.6527 118.844 85.9435C120.224 90.2343 122.562 94.1671 125.688 97.4537C128.13 99.7961 130.056 102.608 131.345 105.714V109.382C130.302 105.132 128.053 101.261 124.861 98.2192C121.593 94.8167 119.152 90.7305 117.72 86.2671C116.288 81.8037 115.903 77.0792 116.593 72.4482L115.377 72.209C114.595 76.8398 114.896 81.585 116.259 86.0838C117.621 90.5826 120.009 94.7166 123.24 98.1713C127.214 101.677 129.76 106.482 130.405 111.695C130.538 113.247 130.334 114.809 129.805 116.277C129.277 117.746 128.437 119.086 127.341 120.211L127.876 120.306C129.615 119.124 130.851 117.353 131.345 115.331V118.074C130.856 118.948 130.22 119.735 129.465 120.402H130C130.486 120.119 130.938 119.782 131.345 119.397V122.029H131.086H130.956C130.841 122.029 130.728 121.996 130.632 121.933C130.517 121.997 130.418 122.084 130.34 122.188C130.309 122.276 130.309 122.371 130.34 122.459C130.421 122.698 130.81 122.893 131.345 122.829V124.424C130.6 124.424 129.984 124.532 129.773 124.564C129.497 124.603 129.246 124.746 129.076 124.963C129.057 125.006 129.047 125.052 129.047 125.098C129.047 125.145 129.057 125.191 129.076 125.234C129.118 125.33 129.178 125.416 129.254 125.489C129.919 125.489 130.697 125.489 131.345 125.489V126.861C130.227 126.956 128.735 127.02 128.427 127.068C128.288 127.085 128.153 127.129 128.03 127.197C127.908 127.266 127.8 127.357 127.714 127.467C127.691 127.508 127.679 127.555 127.679 127.602C127.679 127.649 127.691 127.696 127.714 127.738C127.714 127.993 128.265 128.2 128.849 128.104H130.357C130.566 128.087 130.776 128.133 130.958 128.235C131.14 128.338 131.287 128.492 131.378 128.679C131.378 128.982 131.2 129.285 130.794 129.444C129.919 129.556 127.552 129.683 127.147 129.763C126.872 129.807 126.624 129.949 126.45 130.162C126.427 130.251 126.427 130.344 126.45 130.433C126.45 131.007 128.379 130.911 128.914 130.816C129.121 130.799 129.328 130.846 129.507 130.948C129.687 131.051 129.83 131.205 129.919 131.39C129.919 131.693 129.757 131.996 129.351 132.155C128.525 132.283 126.352 132.426 125.915 132.522C125.782 132.541 125.655 132.586 125.541 132.654C125.426 132.723 125.327 132.813 125.25 132.921C125.232 132.964 125.222 133.01 125.222 133.056C125.222 133.103 125.232 133.149 125.25 133.192C125.347 133.495 127.082 133.638 127.552 133.559C127.753 133.541 127.955 133.583 128.131 133.68C128.308 133.776 128.45 133.923 128.541 134.101C128.541 134.42 128.379 134.723 127.99 134.882C127.228 135.01 125.217 135.185 124.747 135.281C124.615 135.3 124.489 135.347 124.377 135.418C124.265 135.49 124.17 135.584 124.099 135.695C124.076 135.737 124.064 135.784 124.064 135.831C124.064 135.878 124.076 135.925 124.099 135.967C124.099 136.222 124.585 136.381 125.007 136.333H126.223C126.419 136.315 126.617 136.358 126.788 136.455C126.96 136.552 127.096 136.699 127.179 136.876C127.276 137.179 127.033 137.497 126.644 137.657C125.963 137.8 124.115 137.992 123.645 138.103C123.52 138.124 123.4 138.17 123.294 138.239C123.188 138.307 123.097 138.397 123.029 138.502C123.009 138.548 122.999 138.596 122.999 138.646C122.999 138.695 123.009 138.744 123.029 138.789C123.116 138.929 123.247 139.038 123.401 139.101C123.555 139.164 123.726 139.178 123.888 139.14H125.007C125.198 139.118 125.391 139.157 125.558 139.252C125.724 139.347 125.855 139.492 125.931 139.666C126.028 139.969 125.801 140.288 125.412 140.464C125.023 140.639 123.094 140.799 122.624 140.91C122.504 140.934 122.39 140.981 122.29 141.05C122.189 141.118 122.104 141.207 122.04 141.309C122.014 141.355 122.001 141.408 122.001 141.46C122.001 141.513 122.014 141.565 122.04 141.612C122.04 141.867 122.494 141.995 122.883 141.963H123.856C124.041 141.95 124.226 141.994 124.386 142.088C124.545 142.182 124.671 142.322 124.747 142.489C124.775 142.661 124.74 142.838 124.648 142.987C124.556 143.136 124.413 143.248 124.245 143.302C123.694 143.414 122.153 143.653 121.667 143.765C121.553 143.791 121.445 143.84 121.35 143.909C121.256 143.977 121.176 144.064 121.116 144.163C121.092 144.21 121.079 144.262 121.079 144.315C121.079 144.368 121.092 144.42 121.116 144.466C121.2 144.602 121.324 144.709 121.472 144.771C121.621 144.834 121.785 144.85 121.943 144.817H122.786C122.964 144.808 123.142 144.851 123.295 144.942C123.448 145.033 123.57 145.168 123.645 145.328C123.676 145.504 123.641 145.686 123.546 145.839C123.45 145.992 123.301 146.105 123.126 146.157C122.688 146.253 121.262 146.508 120.792 146.635C120.679 146.661 120.573 146.71 120.481 146.779C120.389 146.848 120.313 146.934 120.257 147.034C120.235 147.082 120.223 147.133 120.223 147.186C120.223 147.238 120.235 147.289 120.257 147.337C120.347 147.477 120.481 147.585 120.639 147.645C120.796 147.706 120.969 147.715 121.132 147.672H121.781C121.955 147.664 122.127 147.709 122.275 147.8C122.422 147.892 122.538 148.025 122.607 148.182C122.643 148.359 122.609 148.543 122.513 148.697C122.417 148.85 122.265 148.963 122.089 149.011C121.748 149.107 120.467 149.362 119.981 149.506C119.872 149.531 119.77 149.578 119.681 149.644C119.592 149.71 119.517 149.793 119.462 149.889C119.421 149.991 119.421 150.105 119.462 150.208C119.539 150.341 119.659 150.446 119.802 150.507C119.946 150.567 120.105 150.58 120.257 150.542H120.84C121.005 150.539 121.168 150.584 121.306 150.672C121.445 150.76 121.554 150.887 121.618 151.037C121.66 151.216 121.631 151.404 121.538 151.564C121.445 151.723 121.294 151.843 121.116 151.898L120.403 152.089C119.851 152.233 119.657 152.233 119.219 152.376C119.115 152.402 119.017 152.449 118.933 152.515C118.849 152.581 118.781 152.665 118.733 152.759C118.69 152.867 118.69 152.986 118.733 153.094C118.809 153.223 118.927 153.325 119.067 153.382C119.208 153.44 119.364 153.451 119.511 153.413C119.511 153.413 120.646 153.094 120.711 153.844C120.732 154.036 120.685 154.229 120.579 154.391C120.473 154.554 120.313 154.676 120.127 154.737H119.835L118.538 155.103C118.337 155.166 118.168 155.303 118.068 155.486C118.043 155.539 118.031 155.596 118.031 155.654C118.031 155.711 118.043 155.769 118.068 155.821C118.068 156.379 119.138 156.124 119.17 156.092C119.318 156.102 119.46 156.151 119.58 156.236C119.7 156.32 119.794 156.436 119.851 156.571C119.875 156.672 119.877 156.778 119.858 156.88C119.838 156.983 119.797 157.081 119.738 157.167C119.679 157.254 119.602 157.328 119.513 157.384C119.424 157.441 119.324 157.478 119.219 157.495C118.538 157.703 118.279 157.783 117.906 157.926C117.809 157.95 117.719 157.996 117.643 158.059C117.568 158.123 117.508 158.203 117.468 158.293C117.443 158.348 117.43 158.408 117.43 158.468C117.43 158.529 117.443 158.588 117.468 158.644C117.556 158.785 117.693 158.891 117.854 158.941C118.015 158.991 118.189 158.982 118.344 158.915C118.084 159.01 118.214 158.915 118.344 158.915C118.493 158.918 118.638 158.963 118.761 159.045C118.885 159.127 118.982 159.243 119.041 159.377C119.065 159.479 119.067 159.584 119.049 159.687C119.031 159.79 118.992 159.888 118.934 159.975C118.877 160.063 118.802 160.139 118.715 160.198C118.627 160.256 118.529 160.297 118.425 160.318C117.792 160.51 117.663 160.605 117.306 160.733C117.122 160.796 116.971 160.928 116.885 161.1C116.861 161.155 116.848 161.215 116.848 161.275C116.848 161.335 116.861 161.395 116.885 161.45C116.95 161.574 117.057 161.671 117.187 161.726C117.316 161.782 117.462 161.791 117.598 161.753C117.736 161.767 117.868 161.817 117.98 161.898C118.091 161.98 118.178 162.089 118.23 162.216C118.259 162.314 118.267 162.418 118.254 162.519C118.241 162.621 118.207 162.719 118.154 162.807C118.101 162.896 118.03 162.972 117.945 163.032C117.861 163.092 117.765 163.135 117.663 163.157C117.342 163.273 117.029 163.406 116.722 163.555C116.554 163.623 116.416 163.748 116.333 163.906C116.309 163.964 116.296 164.027 116.296 164.09C116.296 164.153 116.309 164.215 116.333 164.273C116.386 164.379 116.47 164.466 116.574 164.523C116.679 164.58 116.798 164.604 116.917 164.592H116.755C116.883 164.604 117.006 164.65 117.109 164.726C117.212 164.802 117.291 164.905 117.339 165.023C117.378 165.217 117.338 165.418 117.23 165.585C117.121 165.751 116.951 165.87 116.755 165.916C116.317 166.038 115.931 166.295 115.652 166.649C115.604 166.772 115.604 166.909 115.652 167.032C115.652 167.399 116.577 167.303 116.722 167.782C116.868 168.26 116.609 168.515 116.22 168.722C115.863 168.886 115.552 169.132 115.312 169.44C115.284 169.5 115.27 169.565 115.27 169.631C115.27 169.697 115.284 169.763 115.312 169.823C115.312 169.823 115.162 169.998 115.972 169.998H104.621L116.755 156.555C116.755 156.555 117.63 155.295 117.03 154.577C116.431 153.859 115.652 154.577 115.652 154.577L102.189 169.998H82.7292C82.6362 169.76 82.1624 169.455 82.1915 169.201C82.1544 169.12 82.0919 169.053 82.0132 169.009C81.7538 168.898 81.3809 168.691 81.3809 168.691C81.2823 168.665 81.19 168.62 81.1097 168.558C81.0295 168.496 80.963 168.419 80.9143 168.331C80.8657 168.242 80.836 168.145 80.827 168.045C80.8181 167.945 80.83 167.845 80.8622 167.75C80.906 167.637 80.978 167.537 81.0715 167.459C81.165 167.381 81.277 167.327 81.3971 167.303C81.5065 167.309 81.6153 167.283 81.7102 167.229C81.8051 167.176 81.8822 167.096 81.9321 167C81.9599 166.94 81.9743 166.875 81.9743 166.809C81.9743 166.743 81.9599 166.677 81.9321 166.617C81.8969 166.537 81.8458 166.465 81.7817 166.405C81.7177 166.345 81.642 166.298 81.5593 166.267C81.3178 166.126 81.0689 165.998 80.8135 165.884C80.714 165.856 80.6211 165.81 80.5402 165.746C80.4592 165.683 80.3919 165.605 80.3421 165.516C80.2923 165.427 80.261 165.329 80.2501 165.228C80.2392 165.127 80.2488 165.024 80.2785 164.927C80.3259 164.809 80.4055 164.707 80.5085 164.631C80.6115 164.555 80.7339 164.508 80.8622 164.496L81.154 164.608C81.2561 164.622 81.3599 164.601 81.4483 164.548C81.5367 164.496 81.6044 164.416 81.6403 164.321C81.6885 164.187 81.6885 164.04 81.6403 163.906C81.5212 163.716 81.3459 163.566 81.1378 163.476C80.8135 163.364 80.3272 163.109 80.1975 163.077C80.0083 163.077 79.8269 163.003 79.6931 162.872C79.5593 162.74 79.4842 162.561 79.4842 162.375C79.4842 162.189 79.5593 162.011 79.6931 161.879C79.8269 161.748 80.0083 161.674 80.1975 161.674H80.2947C80.9432 161.913 81.0243 161.674 81.1215 161.45C81.2188 161.227 80.7649 160.717 80.5866 160.653C80.4082 160.589 80.084 160.43 79.4517 160.238C79.3581 160.233 79.2664 160.21 79.1818 160.17C79.0973 160.13 79.0217 160.074 78.9592 160.005C78.8967 159.936 78.8487 159.856 78.8177 159.768C78.7868 159.681 78.7736 159.589 78.779 159.497C78.7843 159.405 78.808 159.315 78.8488 159.231C78.8895 159.148 78.9465 159.074 79.0165 159.012C79.0865 158.951 79.1682 158.904 79.2567 158.873C79.3453 158.843 79.4391 158.83 79.5328 158.835C80.0191 158.995 79.3383 158.835 79.9543 158.963C80.311 159.09 80.5379 159.138 80.6514 158.851C80.6514 158.851 81.0243 158.341 80.0191 157.846C79.5947 157.666 79.1554 157.522 78.706 157.416C78.5998 157.401 78.498 157.364 78.4068 157.309C78.3157 157.253 78.2372 157.18 78.1763 157.093C78.1154 157.006 78.0734 156.908 78.053 156.804C78.0325 156.7 78.0341 156.594 78.0575 156.491C78.1213 156.352 78.2235 156.233 78.3525 156.149C78.4815 156.064 78.6321 156.017 78.7871 156.012L79.3058 156.172C79.6949 156.299 79.7435 156.028 79.857 155.741C79.8996 155.634 79.8996 155.514 79.857 155.406C79.8108 155.316 79.7468 155.236 79.6689 155.17C79.591 155.105 79.5007 155.055 79.4031 155.024L78.09 154.657H77.8144C77.6156 154.615 77.4415 154.498 77.3294 154.331C77.2173 154.164 77.176 153.96 77.2145 153.764C77.2799 153.618 77.3865 153.494 77.5216 153.406C77.6567 153.319 77.8146 153.271 77.9765 153.269L78.4142 153.397C78.569 153.448 78.7378 153.436 78.8837 153.364C79.0296 153.292 79.1406 153.166 79.1924 153.014C79.2349 152.907 79.2349 152.787 79.1924 152.679C79.1441 152.585 79.0757 152.502 78.9917 152.436C78.9078 152.37 78.8103 152.322 78.706 152.297C78.2683 152.153 78.09 152.153 77.5225 152.01L76.8254 151.818C76.6442 151.766 76.4898 151.648 76.3935 151.488C76.2972 151.328 76.2662 151.139 76.3067 150.957C76.3714 150.808 76.4801 150.681 76.6188 150.593C76.7574 150.505 76.9198 150.459 77.0848 150.463L77.6522 150.59C77.732 150.618 77.8165 150.629 77.9009 150.624C77.9852 150.618 78.0675 150.596 78.1431 150.559C78.2187 150.522 78.2859 150.47 78.3408 150.407C78.3957 150.344 78.4372 150.271 78.4628 150.192C78.5043 150.089 78.5043 149.975 78.4628 149.873C78.4094 149.776 78.3354 149.692 78.2459 149.626C78.1564 149.56 78.0534 149.513 77.944 149.49C77.4901 149.346 76.177 149.091 75.8365 148.996C75.6619 148.944 75.5127 148.831 75.4171 148.678C75.3215 148.525 75.2862 148.343 75.3177 148.166C75.3766 147.98 75.4991 147.819 75.6646 147.712C75.8301 147.604 76.0283 147.556 76.2256 147.576L76.8579 147.752C77.0362 147.796 77.2248 147.775 77.3886 147.693C77.5525 147.61 77.6807 147.473 77.7495 147.305C77.775 147.259 77.7884 147.207 77.7884 147.154C77.7884 147.101 77.775 147.049 77.7495 147.002C77.6936 146.903 77.6171 146.816 77.525 146.747C77.4328 146.678 77.3271 146.629 77.2145 146.603C76.7444 146.476 75.3177 146.221 74.88 146.125C74.7054 146.073 74.5562 145.96 74.4606 145.807C74.365 145.654 74.3297 145.472 74.3613 145.296C74.4358 145.136 74.5577 145.001 74.7109 144.91C74.8642 144.819 75.0417 144.776 75.2205 144.785L75.9986 144.945C76.1769 144.985 76.364 144.963 76.5271 144.881C76.6902 144.8 76.8188 144.664 76.8903 144.498C76.9308 144.401 76.9308 144.292 76.8903 144.195C76.7589 143.997 76.5563 143.855 76.3229 143.797C75.8527 143.685 74.2964 143.446 73.7614 143.334C73.2264 143.223 73.1454 142.84 73.2426 142.521C73.3222 142.357 73.4492 142.219 73.6078 142.125C73.7664 142.032 73.9495 141.986 74.1343 141.995L74.9611 142.154C75.1553 142.201 75.36 142.183 75.5423 142.102C75.7246 142.021 75.8739 141.882 75.9662 141.708C76.0008 141.609 76.0008 141.503 75.9662 141.405C75.8987 141.302 75.8107 141.214 75.7076 141.145C75.6046 141.077 75.4885 141.029 75.3664 141.006C74.8962 140.894 73.2102 140.687 72.578 140.559C72.4114 140.505 72.2689 140.397 72.1744 140.251C72.0799 140.106 72.0392 139.933 72.0592 139.762C72.1389 139.591 72.2706 139.449 72.4361 139.354C72.6016 139.26 72.7928 139.219 72.9833 139.236C73.5507 139.347 73.6966 139.347 73.9398 139.395C74.1399 139.441 74.3499 139.419 74.5354 139.332C74.721 139.245 74.871 139.098 74.9611 138.917C74.9852 138.873 74.9978 138.823 74.9978 138.773C74.9978 138.723 74.9852 138.674 74.9611 138.63C74.8941 138.523 74.8042 138.432 74.6978 138.363C74.5914 138.295 74.471 138.249 74.345 138.231C73.8749 138.119 72.043 137.928 71.3459 137.785C70.9568 137.625 70.7298 137.306 70.8109 137.003C70.8957 136.828 71.0326 136.682 71.2034 136.586C71.3742 136.489 71.5709 136.445 71.7674 136.461C71.8484 136.461 72.6104 136.557 72.8374 136.604C73.0444 136.653 73.2621 136.633 73.4559 136.546C73.6497 136.459 73.8085 136.312 73.9073 136.126C73.9265 136.083 73.9365 136.037 73.9365 135.99C73.9365 135.944 73.9265 135.898 73.9073 135.855C73.8324 135.747 73.7366 135.655 73.6253 135.584C73.514 135.513 73.3894 135.464 73.2589 135.44C72.8049 135.345 70.7947 135.169 70.0165 135.042C69.6274 134.882 69.3843 134.579 69.4815 134.26C69.5788 133.941 69.9679 133.734 70.4542 133.718C70.5677 133.718 71.4107 133.814 71.6539 133.861C71.8691 133.907 72.0935 133.882 72.2927 133.789C72.4918 133.697 72.6547 133.543 72.7563 133.351C72.7755 133.308 72.7854 133.262 72.7854 133.216C72.7854 133.169 72.7755 133.123 72.7563 133.08C72.6755 132.972 72.5737 132.882 72.4568 132.813C72.3398 132.745 72.2102 132.7 72.0754 132.681C71.6539 132.586 69.4653 132.442 68.6547 132.315C68.2494 132.155 68.0063 131.852 68.0873 131.549C68.1718 131.361 68.3145 131.205 68.4951 131.101C68.6756 130.998 68.8848 130.954 69.0925 130.975C69.3518 130.975 69.7085 130.975 70.4867 131.119C70.6991 131.161 70.9198 131.132 71.1136 131.036C71.3074 130.941 71.4634 130.785 71.5566 130.592C71.5793 130.551 71.5912 130.504 71.5912 130.457C71.5912 130.409 71.5793 130.363 71.5566 130.321C71.3849 130.105 71.1353 129.962 70.8595 129.922C70.4542 129.922 68.0873 129.715 67.2281 129.604C66.8066 129.444 66.5634 129.141 66.6445 128.838C66.7338 128.65 66.8799 128.495 67.0627 128.392C67.2455 128.289 67.4562 128.244 67.6658 128.264C67.6658 128.264 70.2759 128.264 70.2921 127.849C70.3162 127.761 70.3162 127.667 70.2921 127.578C70.1082 127.36 69.8479 127.218 69.5626 127.18C69.1735 127.18 66.6283 127.02 65.7204 126.908C65.2989 126.749 65.0233 126.462 65.1044 126.143C65.1631 125.973 65.2846 125.831 65.4448 125.744L64.9423 125.473H64.845C64.2419 125.311 63.6639 125.07 63.1265 124.756C63.0755 124.722 63.0315 124.678 62.9968 124.628C62.2317 124.443 61.5127 124.107 60.883 123.641C60.2533 123.175 59.726 122.589 59.333 121.917C59.3167 121.865 59.3167 121.809 59.333 121.757C58.6865 121.261 58.1604 120.629 57.7929 119.908C57.6146 119.764 57.4524 119.605 57.2903 119.445C56.698 118.798 56.2414 118.042 55.9465 117.221C55.6516 116.4 55.5243 115.53 55.5719 114.661C55.5719 114.661 55.5719 114.533 55.4908 114.47L55.2639 114.581C52.362 115.57 49.5898 116.622 46.9473 117.771C50.3355 120.609 49.8816 122.411 49.3304 123.177C48.7792 123.942 47.2553 124.405 45.6503 123.177C44.7648 121.952 44.2888 120.486 44.2885 118.983C43.4617 119.333 42.6674 119.7 41.8406 120.083C41.8151 120.157 41.7703 120.223 41.7109 120.274C41.3218 120.673 41.1759 121.04 40.187 122.108C40.1483 122.151 40.1196 122.202 40.1029 122.257C40.0861 122.312 40.0816 122.37 40.0897 122.427C40.1095 122.52 40.1504 122.607 40.2094 122.681C40.2684 122.756 40.3439 122.816 40.4301 122.858C40.5931 122.965 40.785 123.023 40.9813 123.023C41.1777 123.023 41.3695 122.965 41.5325 122.858C42.2945 122.029 42.1162 122.124 42.4242 121.821C42.7117 121.793 43.0009 121.854 43.251 121.997C43.7049 122.268 43.8184 122.73 43.5104 123.033C43.2023 123.336 42.9267 123.767 41.8892 124.803C41.8457 124.844 41.8126 124.894 41.7929 124.949C41.7731 125.005 41.7673 125.064 41.7757 125.122C41.7958 125.213 41.835 125.298 41.8909 125.372C41.9468 125.446 42.0181 125.508 42.1 125.553C42.2588 125.663 42.4485 125.723 42.643 125.723C42.8376 125.723 43.0273 125.663 43.1861 125.553C44.0291 124.66 43.8508 124.803 44.0778 124.58C44.3711 124.535 44.671 124.598 44.9208 124.756C45.3585 125.027 45.472 125.489 45.164 125.792C44.8559 126.095 44.5479 126.494 43.5428 127.514C43.5022 127.557 43.4711 127.607 43.4515 127.662C43.432 127.717 43.4244 127.775 43.4293 127.833C43.4512 127.923 43.4912 128.007 43.5469 128.081C43.6026 128.155 43.6729 128.217 43.7535 128.264C43.9054 128.377 44.0903 128.437 44.2804 128.437C44.4705 128.437 44.6555 128.377 44.8073 128.264C45.5206 127.546 45.3423 127.674 45.699 127.323C45.9994 127.285 46.3038 127.353 46.5582 127.514C46.6546 127.556 46.7396 127.619 46.8061 127.7C46.8727 127.78 46.919 127.874 46.9412 127.976C46.9633 128.077 46.9607 128.182 46.9336 128.282C46.9065 128.382 46.8556 128.474 46.7851 128.551C46.3474 128.966 46.1367 129.221 45.164 130.146C45.12 130.19 45.0858 130.242 45.0635 130.3C45.0411 130.357 45.0312 130.419 45.0343 130.481C45.0534 130.569 45.0905 130.653 45.1435 130.727C45.1964 130.801 45.264 130.864 45.3423 130.911C45.4936 131.018 45.675 131.075 45.8611 131.075C46.0471 131.075 46.2285 131.018 46.3798 130.911L47.2715 130.002C47.5774 129.956 47.8899 130.024 48.1469 130.194C48.2339 130.238 48.3103 130.3 48.3713 130.375C48.4323 130.451 48.4765 130.538 48.501 130.631C48.5255 130.724 48.5297 130.822 48.5134 130.917C48.4971 131.012 48.4606 131.102 48.4063 131.182C46.9635 132.554 48.1307 131.422 46.7851 132.873C46.7392 132.911 46.7044 132.961 46.6845 133.017C46.6646 133.073 46.6601 133.133 46.6717 133.192C46.6831 133.279 46.7137 133.362 46.7613 133.437C46.8089 133.511 46.8723 133.574 46.9473 133.622C47.0929 133.735 47.2727 133.796 47.4579 133.796C47.6431 133.796 47.8229 133.735 47.9686 133.622L48.844 132.777C49.0006 132.746 49.162 132.747 49.3181 132.78C49.4743 132.813 49.6219 132.877 49.7519 132.968C49.904 133.056 50.0179 133.195 50.0718 133.36C50.1257 133.525 50.1156 133.703 50.0437 133.861C48.5522 135.265 49.7195 134.117 48.2766 135.584C48.2327 135.628 48.1984 135.68 48.1761 135.738C48.1538 135.796 48.1439 135.857 48.1469 135.919C48.1623 136.007 48.1962 136.09 48.2464 136.164C48.2967 136.239 48.3622 136.302 48.4387 136.349C48.5793 136.459 48.7536 136.519 48.9332 136.519C49.1128 136.519 49.2871 136.459 49.4276 136.349C49.6905 136.06 49.978 135.793 50.2869 135.552C50.4483 135.514 50.6161 135.512 50.7786 135.545C50.941 135.578 51.0942 135.646 51.2271 135.743C51.3692 135.832 51.4759 135.966 51.529 136.123C51.5822 136.28 51.5787 136.45 51.519 136.604C50.0113 138.008 51.1785 136.844 49.7357 138.295C49.6917 138.339 49.6575 138.391 49.6352 138.449C49.6128 138.507 49.6029 138.568 49.606 138.63C49.6174 138.717 49.648 138.801 49.6956 138.875C49.7432 138.949 49.8066 139.013 49.8816 139.06C50.0183 139.172 50.1903 139.233 50.3679 139.233C50.5455 139.233 50.7176 139.172 50.8543 139.06C51.113 138.793 51.3892 138.543 51.6811 138.311C51.8469 138.263 52.0219 138.256 52.1913 138.289C52.3607 138.322 52.5194 138.395 52.6538 138.502C52.7888 138.589 52.8907 138.718 52.9435 138.868C52.9964 139.018 52.9971 139.181 52.9456 139.331C52.285 139.846 51.667 140.411 51.0975 141.022C51.0508 141.064 51.0147 141.116 50.9922 141.174C50.9697 141.232 50.9613 141.295 50.9678 141.357C50.9733 141.442 50.998 141.525 51.04 141.599C51.0821 141.673 51.1405 141.738 51.2109 141.787C51.3464 141.895 51.5152 141.953 51.6892 141.953C51.8632 141.953 52.032 141.895 52.1674 141.787L52.978 141.102C53.1489 141.04 53.3333 141.024 53.5125 141.055C53.6918 141.086 53.8597 141.162 53.9993 141.277C54.1168 141.361 54.2069 141.476 54.2587 141.609C54.3105 141.742 54.3218 141.887 54.2912 142.027C53.5941 142.633 53.5292 142.633 52.3782 143.749C52.2925 143.84 52.246 143.96 52.2485 144.084C52.2571 144.168 52.2831 144.25 52.3249 144.324C52.3667 144.398 52.4235 144.463 52.4917 144.514C52.6191 144.625 52.7835 144.687 52.9537 144.687C53.1239 144.687 53.2883 144.625 53.4157 144.514L53.8534 143.589C54.0283 143.511 54.2225 143.484 54.4126 143.512C54.6026 143.541 54.7801 143.623 54.9234 143.749C54.9905 143.796 55.0472 143.856 55.0902 143.926C55.1332 143.995 55.1616 144.072 55.1737 144.152C55.1858 144.233 55.1813 144.315 55.1606 144.393C55.1399 144.472 55.1033 144.546 55.0531 144.61C53.5454 145.95 53.2698 146.205 53.2698 146.205C53.2231 146.247 53.1871 146.299 53.1646 146.357C53.142 146.415 53.1337 146.478 53.1401 146.54C53.1435 146.626 53.1656 146.71 53.2047 146.787C53.2438 146.864 53.2992 146.932 53.3671 146.986C53.4935 147.093 53.6545 147.151 53.821 147.151C53.9875 147.151 54.1486 147.093 54.2749 146.986C54.2749 146.986 54.7127 146.683 54.9234 146.492C55.1002 146.362 55.3182 146.299 55.5382 146.313C55.7582 146.328 55.9657 146.42 56.1231 146.572C56.1879 146.625 56.24 146.693 56.2758 146.768C56.3115 146.844 56.3301 146.927 56.3301 147.01C56.3301 147.094 56.3115 147.176 56.2758 147.252C56.24 147.328 56.1879 147.395 56.1231 147.449L54.3398 148.948C54.2958 148.992 54.2616 149.044 54.2393 149.102C54.217 149.159 54.207 149.221 54.2101 149.283C54.2128 149.365 54.2329 149.446 54.2692 149.52C54.3055 149.594 54.3571 149.66 54.4208 149.713C54.5446 149.819 54.7029 149.877 54.8667 149.877C55.0304 149.877 55.1887 149.819 55.3125 149.713C55.5588 149.58 55.7922 149.426 56.0096 149.251C56.1831 149.125 56.3969 149.066 56.6114 149.084C56.826 149.101 57.0268 149.194 57.1768 149.346C57.24 149.392 57.293 149.449 57.3324 149.516C57.3718 149.582 57.3969 149.656 57.406 149.732C57.4152 149.809 57.4082 149.886 57.3855 149.959C57.3628 150.033 57.3249 150.101 57.2741 150.16L55.507 151.627C55.4584 151.668 55.42 151.72 55.3947 151.778C55.3694 151.836 55.3579 151.899 55.3611 151.962C55.3696 152.132 55.4452 152.292 55.5719 152.408C55.6904 152.511 55.8432 152.568 56.0015 152.568C56.1598 152.568 56.3126 152.511 56.4311 152.408L57.1606 151.994C57.3335 151.871 57.5457 151.815 57.7576 151.836C57.9694 151.856 58.1664 151.952 58.3117 152.105C58.4093 152.192 58.4828 152.302 58.5254 152.425C58.5679 152.548 58.578 152.679 58.5548 152.807C57.9081 153.373 57.2317 153.905 56.5284 154.402C56.4806 154.444 56.4428 154.495 56.4176 154.553C56.3924 154.611 56.3804 154.674 56.3825 154.737C56.3828 154.82 56.4002 154.903 56.4336 154.979C56.467 155.056 56.5158 155.125 56.577 155.183C56.6912 155.288 56.8419 155.347 56.9985 155.347C57.1551 155.347 57.3058 155.288 57.42 155.183L58.3927 154.753C58.6845 154.497 59.1709 154.529 59.4465 155.087C59.5438 155.311 59.4465 155.63 59.0088 156.092C58.4697 156.456 57.9651 156.867 57.5011 157.32C57.4534 157.362 57.4155 157.414 57.3903 157.472C57.3651 157.529 57.3531 157.592 57.3552 157.655C57.3524 157.737 57.3668 157.82 57.3975 157.896C57.4282 157.973 57.4744 158.043 57.5335 158.101C57.6423 158.205 57.7876 158.262 57.9388 158.262C58.09 158.262 58.2353 158.205 58.3441 158.101C58.5224 157.942 58.8629 157.671 59.2033 157.416C59.2922 157.347 59.3955 157.299 59.5057 157.275C59.6159 157.25 59.7302 157.25 59.8403 157.275C59.9505 157.299 60.0537 157.347 60.1426 157.416C60.2315 157.484 60.3038 157.572 60.3543 157.671C60.433 157.827 60.4565 158.004 60.4213 158.174C60.3861 158.345 60.294 158.499 60.1598 158.612L58.3765 160.031C58.2725 160.135 58.2143 160.276 58.2143 160.422C58.2143 160.568 58.2725 160.708 58.3765 160.813C58.4826 160.915 58.6252 160.972 58.7737 160.972C58.9222 160.972 59.0648 160.915 59.1709 160.813C59.457 160.72 59.7384 160.613 60.0139 160.494C60.1816 160.375 60.3891 160.323 60.5941 160.35C60.799 160.377 60.9858 160.479 61.1163 160.637C61.1683 160.7 61.207 160.772 61.2303 160.849C61.2536 160.926 61.2609 161.008 61.2518 161.088C61.2427 161.168 61.2175 161.246 61.1775 161.316C61.1375 161.387 61.0837 161.449 61.019 161.498C60.5002 161.913 60.1598 162.168 59.2357 163.093C59.1355 163.199 59.0797 163.339 59.0797 163.484C59.0797 163.629 59.1355 163.768 59.2357 163.874C59.3475 163.99 59.4965 164.063 59.6572 164.082C59.7223 164.085 59.7875 164.075 59.8487 164.054C59.91 164.032 59.9662 163.998 60.0139 163.954C60.6137 163.428 60.4516 163.651 60.8893 163.284C61.0486 163.161 61.2498 163.102 61.4517 163.12C61.6537 163.138 61.8411 163.231 61.9755 163.38C62.0121 163.428 62.0396 163.482 62.0566 163.54C62.1139 163.702 62.1165 163.878 62.064 164.042C62.0114 164.205 61.9064 164.348 61.7648 164.449C61.2136 164.879 60.6624 165.31 59.9977 165.9C59.8937 166.004 59.8355 166.144 59.8355 166.29C59.8355 166.437 59.8937 166.577 59.9977 166.681C60.0438 166.745 60.1046 166.797 60.175 166.833C60.2454 166.869 60.3236 166.888 60.403 166.888C60.4645 166.895 60.5267 166.888 60.5854 166.869C60.644 166.849 60.6979 166.818 60.7434 166.777C61.0671 166.615 61.367 166.412 61.6351 166.171C61.797 166.057 61.998 166.009 62.195 166.039C62.392 166.069 62.5693 166.173 62.6888 166.33C62.7686 166.418 62.8127 166.532 62.8127 166.649C62.8127 166.767 62.7686 166.88 62.6888 166.968L60.711 168.722C60.6107 168.829 60.555 168.968 60.555 169.113C60.555 169.258 60.6107 169.398 60.711 169.504C60.7546 169.563 60.8104 169.611 60.8747 169.647C60.939 169.683 61.0103 169.705 61.0839 169.711C61.1479 169.718 61.2126 169.711 61.274 169.692C61.3353 169.673 61.392 169.641 61.4405 169.6C61.7972 169.297 61.7648 169.36 62.5105 168.77C62.6684 168.63 62.8734 168.553 63.086 168.553C63.2986 168.553 63.5037 168.63 63.6615 168.77C63.7253 168.84 63.7606 168.931 63.7606 169.025C63.7606 169.12 63.7253 169.21 63.6615 169.281C63.3049 169.584 63.0779 169.791 62.8672 169.998H19.4846C18.1947 169.998 16.9577 169.494 16.0456 168.597C15.1335 167.7 14.6211 166.483 14.6211 165.214V149.267C15.7883 150.59 16.8583 151.834 16.8583 151.834H16.9394C17.3318 152.191 17.7954 152.463 18.3006 152.633C18.8058 152.803 19.3416 152.868 19.8737 152.823C20.6313 152.737 21.3385 152.406 21.8839 151.882C22.571 151.197 23 150.303 23.1002 149.346C23.2005 148.389 22.9658 147.427 22.4351 146.619L19.1928 141.676C18.5446 140.742 18.2676 139.607 18.4146 138.486C18.5346 138.142 18.7841 137.857 19.1117 137.689C19.1117 137.689 20.4735 136.86 21.7867 138.486L26.2125 144.865C26.5668 145.261 27 145.582 27.4851 145.807C27.9703 146.031 28.4972 146.156 29.0333 146.173C29.7978 146.158 30.537 145.901 31.1408 145.439C31.8938 144.829 32.4144 143.986 32.6176 143.048C32.8208 142.11 32.6945 141.131 32.2594 140.272L29.6331 134.978C29.3383 134.446 29.1561 133.861 29.0976 133.258C29.0391 132.655 29.1054 132.046 29.2927 131.469C29.4224 131.152 29.6642 130.892 29.9736 130.736C29.9736 130.736 31.3354 129.907 32.6323 131.533L37.0581 137.912C37.4087 138.308 37.8389 138.629 38.3215 138.854C38.8041 139.079 39.3289 139.204 39.8627 139.22C40.6276 139.207 41.3675 138.95 41.9703 138.486C42.7284 137.88 43.254 137.038 43.4603 136.099C43.6666 135.16 43.5413 134.179 43.1051 133.319L40.5598 128.073C40.265 127.541 40.0828 126.956 40.0243 126.353C39.9658 125.75 40.0321 125.141 40.2194 124.564C40.2588 124.365 40.2283 124.159 40.1328 123.979C40.0373 123.8 39.8825 123.658 39.6939 123.576C39.5053 123.494 39.2941 123.478 39.095 123.53C38.8959 123.582 38.7207 123.7 38.5982 123.863C38.3033 124.68 38.1855 125.55 38.2525 126.415C38.3195 127.28 38.5698 128.122 38.9873 128.886C40.1221 131.119 41.5001 133.846 41.646 134.117C41.7919 134.388 42.4404 136.11 41.111 137.067C40.7526 137.342 40.2987 137.468 39.8469 137.417C39.3951 137.367 38.9817 137.143 38.6955 136.796L34.3021 130.831C33.9431 129.99 33.2867 129.304 32.454 128.902C31.9751 128.72 31.4637 128.636 30.9508 128.656C30.438 128.675 29.9344 128.797 29.471 129.013C29.0456 129.17 28.6584 129.413 28.3344 129.726C28.0104 130.039 27.757 130.416 27.5905 130.831C27.4268 131.187 27.3123 131.562 27.25 131.948C27.2178 132.073 27.2178 132.205 27.25 132.331C27.1485 133.548 27.3956 134.769 27.9633 135.855C29.0982 138.088 30.4762 140.815 30.6221 141.086C30.768 141.357 31.4326 143.095 30.0871 144.036C29.7271 144.307 29.2742 144.431 28.8237 144.38C28.3731 144.329 27.9601 144.109 27.6715 143.765L23.4403 137.657C23.0493 136.834 22.3702 136.178 21.5273 135.807C21.0477 135.629 20.5366 135.547 20.0243 135.566C19.512 135.585 19.0088 135.705 18.5443 135.919C17.7192 136.236 17.0549 136.86 16.6962 137.657C16.5019 138.503 16.485 139.379 16.6467 140.232C16.8084 141.085 17.1452 141.896 17.6365 142.617C19.0145 144.706 20.6843 147.273 20.8788 147.528C21.0734 147.784 21.9002 149.426 20.6681 150.526C20.3417 150.836 19.9058 151.01 19.4522 151.01C18.9986 151.01 18.5627 150.836 18.2363 150.526L14.6211 146.412V128.439C28.936 114.741 48.9575 108.122 54.5992 106.464L56.1231 106.049L56.8202 105.858L56.3987 105.316C55.7939 104.454 55.4326 103.449 55.3516 102.405C55.2707 101.361 55.473 100.314 55.9379 99.3716C56.4028 98.4294 57.1136 97.6254 57.9978 97.0419C58.882 96.4584 59.9078 96.1162 60.9704 96.0503C61.9106 96.038 62.8415 96.2342 63.694 96.6244C63.694 95.3805 63.694 93.9612 63.694 92.51C63.381 92.5332 63.0667 92.5332 62.7537 92.51C62.0708 92.5256 61.393 92.3904 60.7702 92.1144C60.1474 91.8384 59.5953 91.4287 59.1547 90.9153C58.5964 90.2434 58.2251 89.4404 58.0774 88.585C57.9296 87.7295 58.0103 86.8509 58.3117 86.0354C58.5744 85.3511 59.0234 84.7511 59.6096 84.3011C60.1957 83.851 60.8965 83.5683 61.6351 83.4838C62.1264 83.4005 62.6301 83.4199 63.1134 83.5408C63.5966 83.6617 64.0485 83.8814 64.4397 84.1855L64.5208 84.0739C67.1025 80.1543 68.7281 75.7006 69.2708 71.0608C69.2708 70.1678 69.2708 63.6453 69.2708 62.7682V62.6566C69.1087 62.0027 68.9628 61.3489 68.8006 60.7588C68.6477 60.7003 68.5093 60.6102 68.3946 60.4947C68.28 60.3791 68.1918 60.2408 68.136 60.089C66.9592 56.9331 65.5673 53.8589 63.9696 50.8874C62.7212 48.4315 61.4405 45.8959 60.3868 43.3124C60.3888 43.2752 60.3888 43.238 60.3868 43.2008V42.9616C59.949 41.3668 59.2844 39.1023 60.3868 37.5235C60.6603 37.1325 61.0191 36.8065 61.437 36.5693C61.8549 36.332 62.3213 36.1895 62.8023 36.1521H62.9158C64.8985 36.0929 66.8667 36.5031 68.6547 37.3481C69.3356 35.4025 70.9244 31.4795 72.8049 30.5705C75.0422 29.4542 78.3656 33.5207 80.9108 37.396C84.535 35.2922 88.7037 34.2725 92.9075 34.4616C97.4187 34.7602 101.752 36.3082 105.407 38.9269C106.525 36.8298 108 34.9365 109.768 33.3294C110.092 33.0274 110.484 32.8051 110.912 32.6804C111.341 32.5557 111.793 32.5322 112.232 32.6117C114.064 32.9785 115.134 35.1474 116.009 36.7421L116.236 37.1727C116.722 38.0976 117.209 39.0864 117.679 40.1389C121.667 38.8924 125.909 38.6511 130.016 39.4372L130.113 39.4532ZM42.9267 144.61C42.2977 144.892 41.7595 145.339 41.3707 145.901C40.9819 146.464 40.7575 147.12 40.722 147.799C40.6482 148.292 40.6886 148.795 40.8402 149.27C40.9918 149.745 41.2506 150.18 41.5974 150.542C42.1398 151.034 42.78 151.41 43.4776 151.646C44.1753 151.882 44.9151 151.973 45.6503 151.914C47.385 151.77 49.5411 151.914 50.0923 153.636C50.2173 154.076 50.2071 154.543 50.0628 154.977C49.9185 155.411 49.6468 155.794 49.2817 156.076C48.9657 156.286 48.5931 156.398 48.2118 156.398C47.8305 156.398 47.4579 156.286 47.1418 156.076C46.8461 155.838 46.6072 155.539 46.4419 155.2C46.2766 154.861 46.189 154.491 46.1853 154.115C46.1853 154.115 44.9208 155.311 46.5095 156.842C46.8889 157.169 47.3499 157.392 47.8455 157.488C48.3411 157.583 48.8535 157.547 49.3304 157.384C49.3961 157.778 49.5719 158.146 49.8382 158.447C50.1044 158.749 50.4506 158.971 50.8381 159.09C51.2758 159.09 51.0975 158.931 51.0975 158.931C50.7283 158.676 50.4657 158.297 50.3584 157.866C50.251 157.435 50.3063 156.981 50.5138 156.586C50.9085 156.164 51.1753 155.642 51.2841 155.078C51.393 154.515 51.3395 153.932 51.1299 153.397C50.9922 152.931 50.7604 152.498 50.4484 152.123C50.1364 151.747 49.7507 151.438 49.3142 151.212C49.1857 150.989 49.1063 150.741 49.0812 150.486C49.0561 150.23 49.0857 149.973 49.1683 149.729C49.5249 148.74 48.0496 150.048 47.92 150.75C47.1315 150.631 46.3316 150.605 45.5368 150.67C45.0198 150.714 44.499 150.655 44.0059 150.496C43.5127 150.337 43.0574 150.082 42.6674 149.745C42.2753 149.21 42.1018 148.55 42.181 147.895C42.1999 147.48 42.3338 147.078 42.568 146.732C42.8023 146.387 43.1282 146.11 43.5104 145.934C43.8432 145.791 44.2063 145.732 44.5681 145.759C44.9298 145.787 45.2791 145.902 45.5855 146.093C45.7791 146.211 45.9321 146.384 46.0247 146.589C46.1172 146.793 46.1449 147.021 46.1042 147.241C46.0518 147.453 45.9262 147.641 45.7487 147.772C45.5713 147.903 45.3531 147.969 45.1315 147.959C44.836 148.003 44.5354 148.003 44.2399 147.959C44.3611 148.28 44.5842 148.554 44.8762 148.741C45.1682 148.928 45.5135 149.017 45.8611 148.996C46.2473 149.001 46.6228 148.871 46.92 148.628C47.2172 148.385 47.4166 148.046 47.4822 147.672C47.6082 147.167 47.573 146.635 47.3816 146.15C47.1902 145.666 46.8518 145.25 46.4123 144.961H46.2826L46.0556 144.833C45.8805 144.725 45.7316 144.581 45.6195 144.41C45.5075 144.239 45.435 144.046 45.4071 143.845C45.4071 143.239 44.9856 143.845 44.8884 144.498C44.2364 144.359 43.5581 144.398 42.9267 144.61ZM70.4867 84.9988C70.4867 85.8918 71.9295 85.3178 72.3834 85.1104C71.8934 84.8123 71.4879 84.3973 71.2045 83.9038C70.9211 83.4104 70.769 82.8545 70.7623 82.2878H70.6488C70.5839 83.0692 70.5191 83.9782 70.438 84.9988H70.4867ZM70.8109 79.3853C70.8109 79.5129 70.8109 79.6405 70.8109 79.784C71.9817 78.8862 73.4474 78.4435 74.9287 78.5401C76.9116 78.7074 78.8138 79.3898 80.4406 80.5176C80.6676 80.5176 80.9919 80.6611 81.154 80.4379C81.1965 80.0669 81.1965 79.6925 81.154 79.3215C80.9004 78.5183 80.4303 77.7976 79.7938 77.2361C79.1573 76.6745 78.378 76.293 77.5388 76.1321C75.3539 75.3928 72.9679 75.4781 70.8433 76.3713C70.7785 77.2962 70.7947 78.2052 70.7623 79.3853H70.8109ZM71.4594 82.2878C71.5124 82.9647 71.8232 83.5969 72.3297 84.0582C72.8361 84.5195 73.5009 84.7757 74.191 84.7757C74.8812 84.7757 75.546 84.5195 76.0524 84.0582C76.5588 83.5969 76.8697 82.9647 76.9227 82.2878C76.9308 82.1656 76.9308 82.0431 76.9227 81.921H76.0797C76.0967 82.0533 76.0967 82.1873 76.0797 82.3197C76.0356 82.7909 75.8142 83.2289 75.4588 83.5479C75.1034 83.8668 74.6397 84.0436 74.1586 84.0436C73.6775 84.0436 73.2138 83.8668 72.8584 83.5479C72.503 83.2289 72.2816 82.7909 72.2375 82.3197C72.2296 82.2401 72.2296 82.16 72.2375 82.0804L71.4107 82.1602C71.3897 82.2008 71.3734 82.2436 71.3621 82.2878H71.4594ZM74.1991 80.39C76.2329 80.5051 78.2406 80.8969 80.1651 81.5542C80.2461 81.5542 80.2623 81.4266 80.2623 81.299C78.8159 79.9393 76.8803 79.1994 74.88 79.2418C74.1363 79.1416 73.3789 79.2362 72.6843 79.5163C71.9898 79.7963 71.3827 80.2517 70.9244 80.8365C70.7298 81.1076 70.9244 81.1714 70.9244 81.1874C71.8923 80.605 73.0177 80.3268 74.1505 80.39H74.1991ZM76.3553 84.8712C78.1386 84.3609 80.3434 83.5635 80.2623 83.1808C80.1813 82.7981 79.1761 82.2878 79.1761 82.2878C78.6451 82.1431 78.1029 82.0418 77.555 81.9847C77.555 82.0804 77.555 82.1761 77.555 82.2878C77.5515 82.782 77.4379 83.2694 77.2223 83.7157C77.0066 84.1621 76.694 84.5565 76.3067 84.8712H76.3553ZM69.7409 79.3375C69.7409 78.6039 69.7409 77.9501 69.7409 77.3441C68.6796 81.2339 66.911 84.9024 64.5208 88.1723C64.4451 88.2789 64.332 88.3542 64.2033 88.3836C64.0746 88.4131 63.9393 88.3946 63.8236 88.3318C63.7146 88.2723 63.6286 88.1792 63.5788 88.0667C63.5289 87.9543 63.5181 87.8289 63.548 87.7098C63.649 87.0927 63.5101 86.4607 63.159 85.9397C62.9958 85.797 62.8002 85.695 62.5886 85.6423C62.377 85.5896 62.1556 85.5876 61.9431 85.6367C61.5844 85.6611 61.2405 85.7869 60.9529 85.9991C60.6652 86.2113 60.4461 86.5008 60.3219 86.8327C60.1586 87.2839 60.1161 87.7688 60.1984 88.2408C60.2808 88.7128 60.4852 89.156 60.7921 89.5278C61.1221 89.8911 61.5504 90.1544 62.027 90.2871C62.5035 90.4199 63.0086 90.4165 63.4832 90.2774C66.8877 89.5916 69.0924 82.1921 69.7409 79.3375ZM59.7383 105.316C60.3146 105.163 60.9084 105.082 61.5054 105.077C62.5108 105.078 63.5009 105.319 64.3911 105.778C65.5927 105.07 66.5872 104.067 67.2776 102.868C67.968 101.669 68.3308 100.315 68.3305 98.9368C68.2298 96.5997 68.322 94.2584 68.6061 91.9359C68.979 88.7464 69.2221 86.3065 69.3843 84.2812C68.6721 86.5433 67.428 88.6085 65.7528 90.3093C65.7693 90.372 65.7693 90.4379 65.7528 90.5006C65.7528 90.8993 65.996 100.069 65.7528 101.664C65.6473 102.221 65.4182 102.748 65.082 103.209C64.7458 103.669 64.3106 104.051 63.8074 104.327C63.3104 104.594 62.7524 104.731 62.1863 104.726C61.6259 104.731 61.0716 104.611 60.5651 104.375C60.0362 104.19 59.5872 103.833 59.2924 103.364C58.9976 102.894 58.8747 102.339 58.9439 101.791C59.0216 101.258 59.2637 100.761 59.6377 100.367C60.0117 99.9739 60.4995 99.7027 61.0352 99.5906C61.6004 99.5478 62.1613 99.716 62.606 100.062C63.0507 100.408 63.3465 100.906 63.4346 101.456C63.4889 101.571 63.5008 101.701 63.4682 101.823C63.4357 101.945 63.3607 102.053 63.2562 102.126C63.1147 102.156 62.967 102.131 62.8434 102.057C62.7199 101.983 62.6298 101.865 62.5916 101.728C62.5916 101.616 62.2673 100.579 61.3919 100.691C61.1007 100.781 60.8413 100.95 60.6434 101.178C60.4455 101.407 60.3172 101.686 60.2733 101.983C60.2248 102.287 60.29 102.599 60.4569 102.86C60.6237 103.121 60.881 103.313 61.1811 103.402C61.5215 103.577 61.8997 103.668 62.2835 103.668C62.6674 103.668 63.0456 103.577 63.3859 103.402C63.7402 103.209 64.0472 102.942 64.2853 102.619C64.5234 102.297 64.6868 101.927 64.7639 101.536C64.7852 101.351 64.7852 101.164 64.7639 100.978C64.6681 100.941 64.5834 100.881 64.5181 100.803C64.4528 100.725 64.4091 100.631 64.3911 100.532C64.1921 99.8075 63.7401 99.1756 63.1145 98.7469C62.4889 98.3182 61.7298 98.12 60.9704 98.1873C60.2007 98.2663 59.475 98.5789 58.894 99.0818C58.3131 99.5847 57.9056 100.253 57.728 100.994C57.519 101.832 57.6037 102.715 57.9686 103.499C58.3335 104.283 58.9571 104.924 59.7383 105.316ZM66.9039 108.091C67.1298 108.463 67.3146 108.859 67.4551 109.271C68.3526 108.685 69.0835 107.883 69.5788 106.942C69.4653 106.607 69.3681 106.241 69.2708 105.842C68.6559 106.768 67.8494 107.556 66.9039 108.154V108.091ZM68.9303 104.056C68.8331 103.562 68.752 103.019 68.6709 102.461C68.0186 104.078 66.8894 105.467 65.4286 106.448C65.7365 106.679 66.019 106.941 66.2716 107.229C67.4884 106.517 68.4252 105.421 68.9303 104.12V104.056ZM55.7664 111.806C55.7643 112.627 55.9266 113.441 56.244 114.2C56.5614 114.959 57.0277 115.649 57.6163 116.231C58.2049 116.813 58.9043 117.276 59.6745 117.592C60.4447 117.908 61.2707 118.072 62.1052 118.074C65.8663 118.074 70.0814 114.581 70.357 108.952C70.2524 108.728 70.1604 108.499 70.0814 108.266C69.454 109.133 68.6543 109.865 67.7307 110.419C67.7825 110.714 67.8096 111.013 67.8117 111.312C67.8117 112.826 67.2003 114.278 66.1118 115.349C65.0234 116.42 63.5472 117.021 62.0079 117.021C60.5876 117.021 59.2251 116.467 58.2193 115.481C57.2134 114.494 56.6461 113.156 56.6419 111.758C56.6461 111.118 56.7786 110.484 57.0319 109.893C57.2851 109.303 57.6541 108.767 58.1177 108.317C58.5814 107.867 59.1307 107.511 59.7342 107.27C60.3377 107.028 60.9836 106.906 61.6351 106.91C62.2656 106.91 62.8896 107.035 63.4693 107.279C64.0489 107.523 64.5721 107.881 65.0071 108.33C65.4108 108.738 65.7255 109.223 65.9318 109.755C66.1381 110.287 66.2317 110.855 66.2068 111.424C66.0963 112.443 65.5813 113.378 64.7739 114.026C63.9665 114.674 62.9317 114.982 61.8944 114.884C61.063 114.855 60.2772 114.503 59.7091 113.905C59.1409 113.308 58.8366 112.513 58.8629 111.695C58.8758 111.143 59.0615 110.609 59.3947 110.165C59.7279 109.721 60.1923 109.389 60.7244 109.215C61.2566 109.04 61.8305 109.032 62.3678 109.19C62.9051 109.348 63.3796 109.666 63.7264 110.1C63.8099 110.219 63.8431 110.366 63.8189 110.508C63.7947 110.651 63.715 110.779 63.5967 110.865C63.5364 110.907 63.4682 110.937 63.396 110.953C63.3239 110.968 63.2493 110.969 63.1767 110.956C63.1041 110.942 63.035 110.915 62.9735 110.875C62.912 110.834 62.8593 110.782 62.8185 110.722C62.6205 110.478 62.3465 110.306 62.0388 110.231C61.7311 110.156 61.4069 110.183 61.1163 110.307C60.813 110.386 60.5423 110.556 60.3418 110.793C60.1413 111.03 60.021 111.323 59.9977 111.631C59.9977 112.301 60.3706 113.864 61.9431 113.864C62.6793 113.942 63.4181 113.739 64.0065 113.297C64.595 112.855 64.988 112.207 65.1044 111.487C65.122 111.064 65.0505 110.641 64.8942 110.246C64.738 109.851 64.5005 109.492 64.1965 109.191C63.8746 108.832 63.481 108.542 63.0404 108.339C62.5998 108.136 62.1214 108.024 61.6351 108.011C60.6189 108.015 59.6458 108.415 58.9287 109.123C58.2117 109.832 57.8091 110.791 57.8091 111.79C57.8091 112.339 57.919 112.882 58.1324 113.389C58.3459 113.896 58.6587 114.357 59.0532 114.745C59.4476 115.133 59.9158 115.441 60.4311 115.651C60.9465 115.86 61.4988 115.969 62.0566 115.969C62.674 115.969 63.2853 115.849 63.8557 115.617C64.4261 115.384 64.9444 115.043 65.381 114.614C65.8175 114.185 66.1638 113.675 66.4001 113.114C66.6364 112.553 66.758 111.951 66.758 111.344C66.7537 109.989 66.2035 108.691 65.228 107.734C64.2526 106.778 62.9314 106.241 61.554 106.241C60.1235 106.237 58.7449 106.767 57.6956 107.724C57.4551 107.94 57.2328 108.174 57.0309 108.425C56.2342 109.405 55.7895 110.616 55.7664 111.87V111.806ZM80.084 137.322L83.0832 134.675C83.0832 134.675 82.2888 133.399 78.9005 134.053L80.084 137.322ZM92.4373 134.021C91.8375 133.303 91.0593 134.021 91.0593 134.021L79.7111 146.906C79.5947 147.111 79.5336 147.342 79.5336 147.576C79.5336 147.811 79.5947 148.041 79.7111 148.246C80.1326 148.836 81.1215 148.246 81.1215 148.246L92.2266 136.014C92.2266 136.014 92.9561 134.659 92.4373 134.021ZM111.551 121.598C111.162 118.01 109.346 116.112 106.136 115.985C105.287 115.903 104.43 116.037 103.647 116.371C102.864 116.706 102.181 117.232 101.662 117.898C101.046 118.838 100.681 119.915 100.602 121.03C100.523 122.146 100.731 123.262 101.208 124.277C101.217 124.319 101.217 124.363 101.208 124.405C101.84 125.109 102.669 125.615 103.592 125.859C104.514 126.103 105.49 126.074 106.396 125.776C107.358 125.504 108.187 124.895 108.724 124.064C109.262 123.232 109.471 122.236 109.314 121.263C109.188 120.726 108.951 120.22 108.616 119.778C108.281 119.336 107.856 118.967 107.368 118.696C106.977 118.47 106.54 118.333 106.089 118.294C105.637 118.255 105.183 118.316 104.758 118.472C104.398 118.595 104.068 118.79 103.789 119.046C103.509 119.301 103.288 119.611 103.137 119.955C103.013 120.33 102.968 120.725 103.004 121.117C103.04 121.509 103.157 121.89 103.348 122.236C103.538 122.541 103.809 122.79 104.131 122.956C104.454 123.121 104.816 123.198 105.18 123.177C105.424 123.181 105.664 123.115 105.871 122.988C106.078 122.861 106.244 122.677 106.347 122.459C106.41 122.33 106.443 122.188 106.443 122.045C106.443 121.901 106.41 121.759 106.347 121.63C106.272 121.498 106.17 121.383 106.047 121.293C105.924 121.202 105.783 121.138 105.634 121.104L105.893 120.338L105.99 120.067C106.281 120.15 106.552 120.291 106.786 120.48C107.02 120.669 107.213 120.903 107.352 121.167C107.476 121.433 107.54 121.721 107.54 122.013C107.54 122.304 107.476 122.593 107.352 122.858C107.179 123.278 106.88 123.638 106.495 123.888C106.11 124.139 105.657 124.269 105.196 124.261C104.615 124.291 104.038 124.156 103.532 123.874C103.027 123.591 102.614 123.172 102.343 122.666C102.076 122.182 101.915 121.648 101.87 121.099C101.826 120.549 101.898 119.997 102.083 119.477C102.296 118.989 102.611 118.551 103.008 118.191C103.405 117.831 103.874 117.558 104.385 117.388C104.96 117.168 105.577 117.078 106.192 117.125C106.807 117.172 107.403 117.354 107.936 117.659C108.57 118.006 109.121 118.484 109.552 119.059C109.983 119.634 110.283 120.293 110.432 120.992C110.581 122.204 110.285 123.428 109.599 124.445C108.912 125.462 107.88 126.205 106.687 126.542C106.084 126.728 105.456 126.825 104.823 126.829C101.143 126.829 98.0141 123.336 95.2744 116.224C95.2263 116.088 95.2332 115.94 95.2936 115.809C95.354 115.678 95.4632 115.576 95.5986 115.522C95.7341 115.47 95.8851 115.472 96.0188 115.529C96.1524 115.586 96.2578 115.692 96.3119 115.825C97.1372 118.068 98.2253 120.209 99.5543 122.204C99.3732 121.104 99.434 119.978 99.7326 118.903C99.6629 118.86 99.6068 118.8 99.5705 118.727C98.8625 117.555 98.229 116.341 97.6737 115.091C97.6356 115.025 97.612 114.952 97.6045 114.876C97.5971 114.801 97.6058 114.724 97.6303 114.652C97.6548 114.58 97.6943 114.514 97.7465 114.458C97.7987 114.402 97.8622 114.357 97.9331 114.327C98.0039 114.296 98.0805 114.281 98.1577 114.282C98.235 114.282 98.3113 114.299 98.3816 114.331C98.4519 114.362 98.5147 114.408 98.5659 114.465C98.6171 114.522 98.6556 114.588 98.6788 114.661C99.1165 115.618 99.6191 116.606 100.3 117.691C100.441 117.437 100.598 117.192 100.77 116.957C100.964 116.709 101.175 116.474 101.402 116.256C100.867 115.41 100.43 114.661 100.057 113.943C100.024 113.879 100.004 113.81 99.9983 113.738C99.9927 113.667 100.001 113.595 100.024 113.527C100.047 113.459 100.083 113.396 100.13 113.341C100.177 113.287 100.235 113.242 100.3 113.21C100.365 113.177 100.436 113.158 100.508 113.152C100.581 113.147 100.654 113.155 100.723 113.177C100.792 113.2 100.857 113.235 100.912 113.282C100.967 113.328 101.013 113.385 101.046 113.449C101.386 114.119 101.791 114.804 102.278 115.586C102.781 115.273 103.327 115.031 103.899 114.868C103.121 113.816 102.456 112.843 101.889 111.902C101.851 111.84 101.826 111.772 101.815 111.701C101.804 111.629 101.808 111.557 101.826 111.487C101.844 111.417 101.876 111.352 101.921 111.294C101.965 111.237 102.02 111.189 102.083 111.152C102.208 111.082 102.356 111.063 102.496 111.099C102.635 111.134 102.755 111.222 102.829 111.344C103.429 112.317 104.11 113.337 104.953 114.533C105.001 114.588 105.034 114.654 105.05 114.725C105.444 114.692 105.84 114.692 106.233 114.725C106.647 114.751 107.059 114.804 107.466 114.884C106.096 113.293 104.865 111.591 103.786 109.797C103.74 109.736 103.709 109.667 103.692 109.593C103.676 109.52 103.675 109.444 103.691 109.37C103.706 109.297 103.736 109.227 103.78 109.165C103.824 109.104 103.881 109.052 103.946 109.013C104.012 108.974 104.084 108.949 104.16 108.94C104.236 108.93 104.313 108.936 104.386 108.957C104.46 108.978 104.528 109.014 104.586 109.063C104.645 109.111 104.692 109.171 104.726 109.239C105.967 111.297 107.417 113.226 109.054 114.996C108.708 113.967 108.646 112.866 108.876 111.806C108.812 111.778 108.756 111.734 108.714 111.679C107.473 110.21 106.351 108.647 105.358 107.006C105.285 106.881 105.265 106.733 105.303 106.594C105.341 106.455 105.434 106.336 105.561 106.265C105.688 106.193 105.838 106.173 105.98 106.211C106.121 106.248 106.241 106.339 106.315 106.464C107.18 107.888 108.144 109.252 109.2 110.546C109.379 110.036 109.524 109.717 109.541 109.669C109.735 109.334 109.93 109.031 110.124 108.728C108.928 107.325 107.844 105.832 106.882 104.263C106.832 104.203 106.796 104.132 106.776 104.056C106.757 103.981 106.754 103.902 106.768 103.825C106.782 103.748 106.813 103.675 106.859 103.611C106.904 103.547 106.963 103.494 107.032 103.454C107.1 103.415 107.176 103.39 107.255 103.382C107.334 103.375 107.414 103.384 107.489 103.409C107.564 103.434 107.633 103.475 107.69 103.529C107.748 103.583 107.793 103.648 107.822 103.721C108.703 105.157 109.683 106.532 110.757 107.835C111.161 107.371 111.618 106.954 112.118 106.592C110.709 105.084 109.44 103.457 108.325 101.728C108.275 101.668 108.238 101.599 108.217 101.525C108.196 101.45 108.192 101.372 108.204 101.296C108.216 101.22 108.245 101.147 108.288 101.083C108.331 101.018 108.388 100.963 108.454 100.922C108.52 100.881 108.595 100.854 108.673 100.844C108.75 100.833 108.829 100.839 108.905 100.861C108.98 100.883 109.05 100.92 109.109 100.971C109.168 101.021 109.216 101.083 109.249 101.153C110.366 102.856 111.635 104.457 113.042 105.938C113.591 105.678 114.167 105.48 114.761 105.348C112.919 103.397 111.309 101.246 109.962 98.9368C109.927 98.874 109.905 98.8049 109.897 98.7337C109.889 98.6624 109.895 98.5903 109.915 98.5214C109.936 98.4526 109.97 98.3883 110.015 98.3324C110.061 98.2764 110.117 98.2298 110.181 98.1952C110.245 98.1607 110.315 98.1388 110.388 98.131C110.46 98.1231 110.533 98.1293 110.603 98.1493C110.673 98.1693 110.739 98.2027 110.795 98.2475C110.852 98.2923 110.9 98.3477 110.935 98.4105C112.331 100.964 114.059 103.328 116.074 105.443C116.741 105.418 117.41 105.461 118.068 105.571C114.388 101.899 111.455 97.5683 109.427 92.813C106.483 85.8368 105.65 78.1727 107.028 70.7419C95.3554 69.0036 82.7103 68.27 71.4594 70.0402L71.3621 70.9492C71.2536 71.9682 71.0583 72.9764 70.7785 73.9632C72.1752 73.5214 73.6477 73.3586 75.1093 73.4846C76.571 73.6106 77.9922 74.0227 79.2896 74.6968C79.982 75.1071 80.5595 75.6806 80.9699 76.3656C81.3803 77.0505 81.6107 77.8253 81.6403 78.6199C81.6403 78.6199 82.2888 82.6705 79.014 91.601C79.014 91.601 77.3928 94.4715 78.0089 95.7154C78.9005 97.3102 83.1966 97.8205 82.613 100.244C82.5193 99.7868 82.3097 99.3598 82.0037 99.003C81.6976 98.6462 81.305 98.3711 80.8622 98.2032C79.241 97.4696 77.6198 97.4377 77.0686 96.0344C76.5174 94.631 77.7333 92.1273 78.4142 90.8674C79.0005 89.4864 79.4775 88.0628 79.8408 86.6095C78.7439 87.6626 77.4195 88.4585 75.9662 88.9378C74.7503 89.0494 75.1556 88.6986 75.1556 88.6986C77.0883 87.9403 78.8186 86.7565 80.2137 85.238C80.2137 85.0147 80.3272 84.7915 80.3758 84.5682C80.3758 84.0579 79.6301 84.5682 79.6301 84.5682L74.2964 86.0035C73.0134 86.342 71.6779 86.4447 70.357 86.3065C70.2111 87.9012 70.0165 89.8468 69.7409 92.0635C68.525 102.35 71.3621 108.601 71.4594 108.665C71.4764 108.749 71.4764 108.836 71.4594 108.92C71.2162 115.299 66.4175 119.206 62.1052 119.206C61.0821 119.205 60.07 118.997 59.1327 118.593C58.1953 118.19 57.3528 117.6 56.6581 116.862C56.8841 117.51 57.249 118.103 57.728 118.6C58.3985 119.188 59.1905 119.627 60.0496 119.886C60.9087 120.144 61.8146 120.217 62.705 120.099C70.3245 119.732 71.6539 111.95 71.7025 111.631C71.7124 111.559 71.7367 111.49 71.7741 111.428C71.8114 111.366 71.8609 111.312 71.9198 111.269C71.9787 111.226 72.0457 111.195 72.117 111.177C72.1883 111.16 72.2623 111.157 72.3348 111.168C72.4768 111.196 72.6029 111.275 72.6873 111.391C72.7716 111.506 72.8079 111.649 72.7887 111.79C72.7887 111.886 71.281 120.769 62.7537 121.183H62.1376C61.3506 121.197 60.5653 121.106 59.8031 120.912C60.8366 121.537 62.0064 121.911 63.2159 122.002C64.4253 122.094 65.6396 121.901 66.758 121.439C68.4555 120.787 69.9485 119.707 71.0869 118.307C72.2253 116.907 72.9688 115.237 73.2426 113.465C73.2665 113.323 73.3465 113.197 73.465 113.113C73.5835 113.029 73.7309 112.995 73.8749 113.018C73.9478 113.03 74.0176 113.056 74.0802 113.094C74.1427 113.133 74.1968 113.183 74.2391 113.243C74.2815 113.302 74.3112 113.369 74.3266 113.441C74.3421 113.512 74.3428 113.585 74.3288 113.656C74.0319 115.615 73.2165 117.462 71.9645 119.013C70.7125 120.564 69.0679 121.763 67.1957 122.491C66.0305 122.904 64.8026 123.119 63.5643 123.129C62.8744 123.124 62.188 123.033 61.5216 122.858C62.1485 123.261 62.8561 123.528 63.5967 123.639C64.7634 123.85 65.9613 123.829 67.1196 123.577C68.2779 123.325 69.3731 122.847 70.3408 122.172C72.6525 120.519 74.2126 118.04 74.6855 115.267C74.7159 115.132 74.798 115.013 74.9147 114.935C75.0314 114.857 75.1739 114.827 75.313 114.849C75.452 114.871 75.5771 114.945 75.6624 115.056C75.7477 115.166 75.7868 115.304 75.7717 115.442C75.2412 118.517 73.4919 121.258 70.9082 123.065C69.895 123.771 68.757 124.285 67.5523 124.58C69.1284 124.437 70.6464 123.923 71.9781 123.081C73.1639 122.27 74.1712 121.232 74.94 120.029C75.7088 118.826 76.2232 117.483 76.4526 116.08C76.483 115.945 76.565 115.826 76.6817 115.748C76.7984 115.671 76.941 115.64 77.0801 115.662C77.2191 115.685 77.3442 115.759 77.4295 115.869C77.5148 115.979 77.5539 116.118 77.5388 116.256C77.2812 117.804 76.711 119.286 75.8618 120.615C75.0126 121.943 73.9015 123.091 72.5942 123.99C71.5981 124.624 70.5027 125.093 69.3518 125.377L70.3083 125.266C71.372 125.115 72.3959 124.763 73.3237 124.229H73.4534C74.735 123.422 75.83 122.359 76.6678 121.109C77.5055 119.859 78.0674 118.45 78.3169 116.973C78.3474 116.838 78.4294 116.719 78.5461 116.641C78.6628 116.564 78.8053 116.533 78.9444 116.555C79.0835 116.578 79.2085 116.652 79.2938 116.762C79.3791 116.873 79.4182 117.011 79.4031 117.149C79.1299 118.598 78.6033 119.99 77.8468 121.263C78.8457 120.028 79.6793 118.672 80.3272 117.228C80.3559 117.162 80.3976 117.103 80.4498 117.053C80.502 117.002 80.5638 116.963 80.6315 116.936C80.6992 116.91 80.7717 116.896 80.8446 116.897C80.9176 116.898 80.9896 116.913 81.0567 116.941C81.1238 116.97 81.1845 117.011 81.2355 117.062C81.2864 117.113 81.3266 117.174 81.3537 117.241C81.3808 117.307 81.3943 117.379 81.3934 117.45C81.3925 117.522 81.3772 117.593 81.3485 117.659C80.8444 118.778 80.2309 119.846 79.5166 120.848C80.7027 119.875 81.7115 118.71 82.4995 117.404C82.6088 117.268 82.748 117.158 82.9066 117.082C83.0652 117.007 83.2392 116.967 83.4155 116.967C83.5918 116.967 83.7658 117.007 83.9244 117.082C84.083 117.158 84.2222 117.268 84.3315 117.404C84.8597 118.104 85.4394 118.765 86.0661 119.381C85.8655 118.757 85.7191 118.117 85.6284 117.468C85.6133 117.324 85.657 117.18 85.7497 117.068C85.8425 116.956 85.9767 116.884 86.1229 116.87C86.269 116.855 86.4152 116.898 86.5292 116.989C86.6432 117.08 86.7157 117.212 86.7308 117.356C86.7308 117.356 87.2009 121.167 89.4382 122.06C88.7385 120.611 88.1951 119.093 87.817 117.531C87.801 117.461 87.7992 117.389 87.8118 117.318C87.8243 117.247 87.8509 117.179 87.8901 117.119C87.9292 117.058 87.9801 117.005 88.0399 116.964C88.0997 116.923 88.1672 116.893 88.2385 116.878C88.3098 116.862 88.3836 116.86 88.4556 116.872C88.5276 116.885 88.5964 116.911 88.6581 116.949C88.7198 116.988 88.7732 117.038 88.8153 117.097C88.8573 117.156 88.8872 117.222 88.9032 117.292C89.3634 119.096 90.0609 120.833 90.9783 122.459C90.9836 122.507 90.9836 122.555 90.9783 122.603C91.5447 123.639 92.4145 124.483 93.4749 125.027C91.7865 122.699 90.6154 120.047 90.038 117.244C90.0215 117.174 90.0199 117.101 90.0333 117.03C90.0467 116.959 90.0749 116.892 90.1159 116.832C90.157 116.772 90.2101 116.721 90.272 116.682C90.3339 116.644 90.4032 116.618 90.4757 116.606C90.547 116.593 90.6205 116.593 90.6918 116.607C90.7631 116.621 90.8308 116.649 90.8911 116.689C90.9513 116.729 91.003 116.78 91.043 116.84C91.083 116.9 91.1106 116.967 91.1242 117.037C91.1242 117.037 92.4373 123.512 95.858 125.728C96.4921 126.156 97.2309 126.409 97.9979 126.462C95.4721 123.804 93.6562 120.571 92.7129 117.053C92.6937 116.984 92.689 116.912 92.6992 116.84C92.7094 116.769 92.7342 116.701 92.7721 116.64C92.8101 116.579 92.8604 116.526 92.9199 116.484C92.9794 116.443 93.0469 116.414 93.1182 116.399C93.1874 116.38 93.2598 116.375 93.3311 116.384C93.4024 116.393 93.4712 116.416 93.5332 116.452C93.5953 116.487 93.6493 116.535 93.6922 116.592C93.7351 116.648 93.766 116.713 93.7829 116.782C93.7829 116.878 96.3119 126.35 102.634 127.833C103.726 128.16 104.884 128.209 106.001 127.978C107.118 127.747 108.157 127.242 109.022 126.51C109.761 125.892 110.361 125.128 110.783 124.269C111.204 123.409 111.438 122.472 111.47 121.518L111.551 121.598ZM117.274 120.003C118.416 119.936 119.529 119.618 120.53 119.072C121.531 118.525 122.395 117.765 123.058 116.847C123.72 115.929 124.165 114.876 124.36 113.766C124.554 112.657 124.492 111.518 124.18 110.435C123.515 108.032 122.178 105.861 120.321 104.168C119.167 103.011 118.125 101.751 117.209 100.404L116.641 99.6225C113.455 95.6554 111.179 91.0578 109.967 86.1446C108.756 81.2314 108.638 76.1187 109.622 71.1565L108.001 70.9173C106.689 78.1282 107.516 85.5581 110.384 92.3186C112.429 97.1567 115.445 101.539 119.251 105.204C119.65 105.527 120.019 105.885 120.354 106.273C121.193 107.166 121.84 108.217 122.255 109.363C122.67 110.508 122.845 111.725 122.769 112.939C122.691 114.325 122.076 115.629 121.051 116.584C120.026 117.539 118.669 118.072 117.257 118.074H117.16C115.77 118.15 114.403 117.695 113.346 116.803C112.288 115.912 111.622 114.653 111.486 113.289C111.337 112.588 111.347 111.863 111.515 111.165C111.683 110.468 112.005 109.816 112.459 109.255C112.909 108.723 113.471 108.293 114.107 107.996C114.742 107.699 115.435 107.541 116.139 107.532C116.841 107.497 117.542 107.623 118.186 107.9C118.83 108.177 119.4 108.597 119.851 109.127C120.26 109.66 120.533 110.28 120.649 110.938C120.764 111.595 120.719 112.27 120.516 112.907C120.402 113.462 120.146 113.979 119.771 114.409C119.396 114.838 118.916 115.167 118.376 115.363C117.833 115.525 117.261 115.567 116.7 115.484C116.139 115.401 115.604 115.196 115.134 114.884C114.727 114.584 114.418 114.174 114.246 113.703C114.073 113.233 114.043 112.723 114.161 112.237C114.236 111.841 114.431 111.477 114.72 111.192C115.01 110.908 115.38 110.716 115.782 110.642C116.056 110.578 116.34 110.567 116.619 110.611C116.897 110.654 117.164 110.752 117.403 110.897C117.68 111.11 117.866 111.417 117.922 111.758C117.931 111.83 117.925 111.903 117.904 111.972C117.883 112.041 117.848 112.106 117.801 112.161C117.754 112.216 117.696 112.262 117.63 112.294C117.565 112.326 117.493 112.345 117.42 112.349C117.278 112.362 117.137 112.322 117.025 112.236C116.914 112.15 116.84 112.024 116.82 111.886C116.82 111.727 116.479 111.615 115.912 111.711C115.724 111.755 115.555 111.856 115.427 111.999C115.3 112.141 115.22 112.319 115.199 112.508C115.124 112.794 115.132 113.094 115.221 113.375C115.309 113.657 115.476 113.909 115.701 114.103C116.049 114.32 116.441 114.46 116.85 114.513C117.259 114.565 117.675 114.528 118.068 114.406C118.414 114.27 118.721 114.053 118.963 113.776C119.206 113.498 119.377 113.167 119.462 112.811C119.613 112.337 119.648 111.835 119.567 111.345C119.485 110.855 119.288 110.39 118.992 109.988C118.653 109.583 118.224 109.26 117.738 109.044C117.251 108.828 116.721 108.726 116.187 108.744C115.643 108.748 115.105 108.868 114.612 109.096C114.119 109.325 113.683 109.657 113.334 110.068C112.98 110.513 112.73 111.03 112.601 111.581C112.472 112.132 112.468 112.705 112.588 113.258C112.688 114.365 113.227 115.39 114.088 116.109C114.95 116.829 116.066 117.185 117.193 117.101H117.274C118.418 117.128 119.528 116.718 120.372 115.956C121.215 115.195 121.726 114.142 121.797 113.018C121.894 110.904 121.143 108.836 119.705 107.261C118.041 106.489 116.135 106.391 114.398 106.987C112.66 107.584 111.23 108.828 110.416 110.451C109.773 111.841 109.641 113.409 110.043 114.884C111.535 118.361 113.934 120.051 117.193 119.924L117.274 120.003ZM126.741 111.695C126.514 107.931 124.342 104.199 119.916 99.9415C116.461 96.111 113.935 91.558 112.531 86.6266C111.127 81.6952 110.88 76.5143 111.81 71.4754L110.659 71.2681C109.701 76.0893 109.813 81.0569 110.985 85.832C112.157 90.607 114.363 95.077 117.452 98.9368C117.711 99.2717 117.906 99.5587 118.052 99.766C118.935 101.062 119.939 102.274 121.051 103.386C123.03 105.205 124.456 107.529 125.169 110.1C125.542 111.36 125.614 112.687 125.381 113.978C125.147 115.27 124.614 116.491 123.823 117.547C123.641 117.801 123.441 118.04 123.223 118.265L122.494 118.967C121.038 120.236 119.185 120.979 117.241 121.072H116.852C115.179 121.1 113.544 120.584 112.199 119.605C112.311 119.976 112.397 120.354 112.459 120.737C113.795 121.685 115.417 122.162 117.063 122.092C118.646 122.041 120.2 121.655 121.618 120.96C122.626 120.48 123.542 119.833 124.326 119.046C125.199 118.037 125.862 116.868 126.277 115.607C126.691 114.345 126.849 113.016 126.741 111.695ZM114.323 71.9858L112.978 71.7306C112.304 74.8169 112.173 77.9937 112.588 81.1236C113.291 87.8542 116.126 94.1974 120.694 99.2557C125.298 103.689 127.584 107.644 127.827 111.695C128.054 114.528 127.172 117.34 125.363 119.557C125.596 119.665 125.834 119.761 126.077 119.844C127.219 118.837 128.107 117.582 128.67 116.179C129.233 114.775 129.455 113.261 129.319 111.758C128.664 106.837 126.237 102.311 122.478 99.0006C119.097 95.4182 116.603 91.1169 115.189 86.4313C113.774 81.7457 113.478 76.8023 114.323 71.9858ZM92.7453 88.7783C93.0524 88.8677 93.3763 88.8854 93.6915 88.83C94.0067 88.7747 94.3045 88.6478 94.5611 88.4594C92.8317 87.9537 91.1914 87.1899 89.6975 86.1948C89.9948 86.8104 90.4194 87.3582 90.9442 87.803C91.4691 88.2479 92.0825 88.5801 92.7453 88.7783ZM94.0585 77.8544C92.4479 78.0584 90.9645 78.822 89.8759 80.0073C89.195 80.7409 89.1626 81.0598 89.4544 80.9322C89.9768 80.7322 90.4723 80.4698 90.9296 80.1508C91.9353 79.3592 93.1923 78.9414 94.48 78.9707C96.1984 79.0664 101.629 81.9688 102.797 81.8093C102.797 81.8093 100.559 80.39 98.9544 79.6086C97.4991 78.6268 95.8148 78.0234 94.0585 77.8544ZM90.4433 104.965C88.6762 104.71 87.5252 102.668 85.8229 102.668C85.1799 102.632 84.5381 102.759 83.9586 103.035C83.8537 103.09 83.7368 103.118 83.6181 103.118C83.4995 103.118 83.3826 103.09 83.2777 103.035C82.7079 102.764 82.078 102.638 81.4458 102.668C79.9543 102.668 78.2034 105.188 76.8254 105.188C76.4607 105.212 76.0948 105.164 75.7494 105.046C75.4041 104.929 75.0863 104.744 74.8152 104.502C74.6855 105.124 75.1556 106.416 77.02 106.48C78.2404 106.478 79.446 106.217 80.5541 105.714C81.5067 105.63 82.4638 105.818 83.3101 106.257C83.4154 106.3 83.5283 106.322 83.6425 106.322C83.7566 106.322 83.8696 106.3 83.9748 106.257C86.131 105.459 88.0926 106.767 90.4595 106.4C91.0958 106.353 91.6979 106.098 92.1706 105.676C92.6433 105.255 92.9596 104.69 93.0696 104.072C92.7732 104.475 92.3556 104.777 91.8757 104.934C91.3958 105.092 90.8777 105.097 90.3946 104.949L90.4433 104.965ZM92.9237 75.7812C95.1781 75.071 97.6166 75.1785 99.7974 76.0842C100.911 76.4104 102.085 76.492 103.234 76.3234C101.338 76.3234 99.4894 74.027 96.5551 73.3572C94.5383 72.859 92.4276 72.859 90.4109 73.3572C88.5141 74.0589 88.3195 75.0477 88.6924 75.845C89.0653 76.6424 90.5406 76.8019 92.9237 75.7812ZM95.8904 86.3543C93.203 86.2608 90.5942 85.4384 88.352 83.9782C88.352 83.9782 90.881 80.1508 94.4638 80.1508C97.7061 80.1508 103.429 83.8346 103.429 83.8346C103.429 83.8346 102.164 84.0579 101.419 84.026C100.932 84.8872 99.4894 86.5776 95.8904 86.3543ZM98.6788 82.5908C98.6199 83.2965 98.3453 83.9682 97.891 84.5176C97.4367 85.0669 96.824 85.4682 96.1336 85.6686C96.5165 85.7014 96.9017 85.7014 97.2846 85.6686C99.9433 85.3496 100.64 84.2014 100.203 83.5476C99.7251 83.1841 99.2151 82.8639 98.6788 82.5908ZM93.2803 85.3337C92.7721 85.0429 92.3448 84.6331 92.0365 84.1406C91.7282 83.6481 91.5485 83.0883 91.5133 82.511C90.9412 82.8425 90.3989 83.2213 89.8921 83.6433C89.8178 83.7178 89.7762 83.818 89.7762 83.9224C89.7762 84.0267 89.8178 84.1269 89.8921 84.2014C90.9445 84.773 92.0917 85.1563 93.2803 85.3337ZM95.096 85.1423C95.8629 85.1423 96.5985 84.8438 97.1423 84.3119C97.686 83.78 97.9937 83.058 97.9979 82.3037C97.6707 82.1706 97.3349 82.0587 96.9928 81.9688C97.0016 82.0749 97.0016 82.1816 96.9928 82.2878C96.9488 82.759 96.7273 83.197 96.3719 83.516C96.0165 83.8349 95.5528 84.0117 95.0717 84.0117C94.5907 84.0117 94.1269 83.8349 93.7715 83.516C93.4161 83.197 93.1947 82.759 93.1506 82.2878C93.126 82.1239 93.126 81.9573 93.1506 81.7934C92.7904 81.8892 92.4382 82.0118 92.0969 82.1602V82.2878C92.0967 82.6708 92.1748 83.05 92.3267 83.4027C92.4786 83.7554 92.7011 84.0745 92.9809 84.3408C93.2608 84.6072 93.5923 84.8154 93.9556 84.9531C94.319 85.0908 94.7069 85.1552 95.096 85.1423ZM83.3912 96.7042C83.524 96.7649 83.6748 96.7757 83.8152 96.7345C83.9555 96.6934 84.0757 96.6032 84.1531 96.4809C84.1531 96.4809 84.5746 95.3327 85.6284 95.556C86.6822 95.7792 87.4603 97.055 88.1736 97.2942C88.4708 97.4065 88.7915 97.4453 89.1075 97.4072C89.4234 97.3691 89.7251 97.2554 89.986 97.0759C90.2468 96.8964 90.459 96.6567 90.6037 96.3778C90.7484 96.0989 90.8214 95.7893 90.8161 95.4762C91.0269 93.1638 87.1037 91.6329 87.1037 91.6329C88.2709 92.1273 90.654 95.237 89.2436 95.8589C87.8332 96.4809 87.2982 94.4875 85.5798 94.3758C85.0612 94.3737 84.5539 94.5245 84.1233 94.8087C83.6928 95.093 83.3587 95.4977 83.1642 95.9706C83.1226 96.0315 83.0952 96.1008 83.0842 96.1734C83.0731 96.2461 83.0787 96.3202 83.1004 96.3904C83.1222 96.4607 83.1595 96.5253 83.2098 96.5796C83.2601 96.6338 83.3221 96.6764 83.3912 96.7042ZM79.857 108.362C80.1348 108.897 80.5607 109.344 81.0856 109.652C81.6105 109.959 82.213 110.115 82.8238 110.1C83.5586 110.187 84.3034 110.065 84.9699 109.748C85.6364 109.432 86.1969 108.934 86.5849 108.314C85.4805 108.844 84.2631 109.106 83.0345 109.079C81.9286 109.13 80.8297 108.882 79.857 108.362Z" fill="#24242E"/>
<path d="M75.4968 50.8813C77.0263 52.8395 77.7237 55.3026 77.4427 57.7542L74.4751 58.0724C73.8369 55.6369 74.2041 53.0527 75.4968 50.8813ZM54.0751 112.069C54.2767 112.014 54.4898 112.014 54.6914 112.069C54.6914 111.99 54.6914 111.926 54.6914 111.863C54.6943 110.823 54.9441 109.799 55.4211 108.872C47.0535 111.178 27.3022 118.783 14.6211 131.909V135.409C23.6697 125.688 36.5941 118.004 54.0751 112.069ZM86.313 57.2769C88.0751 57.2769 89.9562 57.2769 91.9562 57.2769C93.8049 57.2769 95.7833 57.3883 97.9076 57.5156C97.3682 56.4171 96.5334 55.4839 95.4932 54.8167C94.453 54.1494 93.2469 53.7734 92.0049 53.7291C90.8004 53.6794 89.6093 53.9928 88.5917 54.6271C87.5741 55.2613 86.7789 56.1861 86.313 57.2769V57.2769ZM109.616 52.7745C108.109 54.2742 107.224 56.2705 107.135 58.3747C108.27 58.502 109.421 58.6611 110.589 58.8361C111.05 56.7673 110.703 54.604 109.616 52.7745V52.7745ZM102.27 55.0655C103.768 51.4034 106.065 48.1072 108.999 45.4084L108.918 45.313C106.99 42.8372 104.546 40.7922 101.751 39.3137C98.9548 37.8352 95.8704 36.9572 92.7022 36.7377C89.6956 36.6593 86.707 37.217 83.9396 38.3727C81.1722 39.5285 78.6909 41.2552 76.6643 43.4356C79.5114 46.3194 81.5503 49.8762 82.5833 53.7609C83.4026 51.9091 84.745 50.3259 86.4518 49.1983C88.1586 48.0707 90.1586 47.4457 92.2157 47.3971C97.8103 47.3494 100.875 51.3904 102.27 55.0496V55.0655ZM62.086 38.8378C61.5833 39.5855 62.086 41.4788 62.4103 42.4811V42.672C63.4319 45.138 64.6806 47.6198 65.8968 50.0063C66.9022 51.995 67.94 54.0473 68.8481 56.1155C69.4929 51.6618 71.0721 47.3876 73.486 43.5629L73.0806 43.2288C69.9833 40.7151 67.0481 38.3446 62.8968 38.456C62.2968 38.456 62.1346 38.7582 62.086 38.8378ZM131.378 42.1629C130.81 41.9879 130.243 41.8288 129.659 41.7015C126.586 41.0804 123.413 41.1111 120.354 41.7916C117.294 42.4721 114.418 43.7867 111.918 45.6471C114.273 48.8934 115.716 52.6902 116.102 56.6565C117.216 55.0941 118.746 53.8615 120.524 53.0929C122.302 52.3242 124.262 52.049 126.189 52.2972C128.169 52.5235 130.005 53.4244 131.378 54.8428V42.1629ZM119.605 60.3793C122.945 61.0475 126.41 61.8642 129.999 62.8294C129.627 61.2384 128.508 58.1838 125.508 57.8815C124.393 57.8157 123.278 58.0075 122.253 58.4413C121.228 58.8751 120.321 59.5389 119.605 60.3793V60.3793ZM35.0373 147.611C34.8713 147.202 34.8367 146.752 34.9381 146.323C35.0395 145.894 35.2722 145.505 35.6049 145.209C38.4888 142.826 41.6647 140.806 45.0589 139.195C45.5042 138.988 46.0071 138.931 46.4886 139.035C46.97 139.139 47.4027 139.396 47.7184 139.768C57.6103 151.509 56.4751 162.9 56.4589 163.012C56.3675 163.643 56.0426 164.218 55.5461 164.629C55.0496 165.04 54.4163 165.257 53.767 165.239H53.4103L53.0049 165.159C40.6481 161.325 35.2481 148.232 35.0373 147.611ZM37.0806 146.816C37.0806 146.816 42.1887 159.543 53.6697 163.075C53.6697 163.075 54.2211 163.075 54.2697 162.709C54.3184 162.343 55.0481 151.875 46.0157 141.152C42.8106 142.671 39.8094 144.574 37.0806 146.816V146.816Z" fill="#F4C900"/>
<path d="M78.4246 57.1249C79.0915 52.9776 75.8545 49.1185 75.6919 48.9904C75.6389 48.927 75.5716 48.8766 75.4953 48.8432C75.4191 48.8099 75.336 48.7945 75.2527 48.7983C75.1682 48.8038 75.0861 48.8283 75.0128 48.8699C74.9395 48.9116 74.8769 48.9692 74.8297 49.0385C73.9439 50.2803 73.3401 51.6954 73.0595 53.1875C72.7788 54.6795 72.8278 56.2136 73.2031 57.6854L70.7795 58.0377C71.0476 53.2482 72.5054 48.5966 75.0249 44.4908C78.2589 47.9541 80.2922 52.3388 80.832 57.0129L78.4246 57.1249ZM84.1991 120.872H80.9458C80.8565 120.871 80.7687 120.895 80.6919 120.94C80.6151 120.984 80.5523 121.049 80.5104 121.127C80.4685 121.205 80.449 121.292 80.454 121.38C80.4591 121.468 80.4886 121.552 80.5392 121.625L82.2634 124.123C82.3072 124.192 82.3682 124.25 82.4408 124.289C82.5134 124.329 82.5951 124.35 82.6782 124.35C82.7612 124.35 82.843 124.329 82.9155 124.289C82.9881 124.25 83.0492 124.192 83.093 124.123L84.5406 121.625C84.589 121.557 84.6187 121.478 84.6267 121.395C84.6348 121.312 84.6209 121.229 84.5865 121.153C84.5521 121.077 84.4983 121.012 84.4304 120.962C84.3625 120.913 84.2828 120.882 84.1991 120.872ZM78.7174 38.0216C76.6516 34.819 74.2604 32.1609 73.3821 31.9688C72.4712 32.5292 71.1211 35.3314 70.259 37.8775C71.6707 38.8037 73.0234 39.8144 74.3092 40.9039L74.8135 41.3042C76.0116 40.0964 77.3182 38.9977 78.7174 38.0216ZM114.015 58.8383C114.066 54.4479 112.743 50.1485 110.225 46.5244C106.679 49.4228 104.19 55.1393 103.312 57.4132L105.914 57.7014C105.964 56.4026 106.293 55.129 106.879 53.9644C107.465 52.7997 108.295 51.7703 109.314 50.944C109.432 50.8645 109.577 50.832 109.719 50.8527C109.86 50.8735 109.989 50.9461 110.079 51.0561C110.836 52.1194 111.362 53.3257 111.622 54.599C111.883 55.8723 111.872 57.1849 111.591 58.454C112.405 58.6141 113.218 58.6942 114.015 58.8383ZM19.4923 165.036C18.7928 165.036 16.9059 165.036 16.3529 163.434C16.2339 163.081 16.2104 162.703 16.2845 162.338C16.3587 161.973 16.528 161.634 16.7758 161.353C20.2242 155.828 29.2032 149.103 29.5773 148.815C29.7932 148.654 30.042 148.543 30.3063 148.487C30.5706 148.432 30.8441 148.434 31.1075 148.493C31.3709 148.553 31.6179 148.668 31.8313 148.832C32.0446 148.995 32.2191 149.202 32.3425 149.439C33.4861 151.251 34.724 153.005 36.0512 154.691C36.2059 154.892 36.3162 155.123 36.375 155.368C36.4338 155.614 36.4399 155.869 36.3928 156.116C36.1488 157.381 35.8398 161.769 35.7422 163.354C35.7133 163.816 35.5075 164.25 35.1663 164.568C34.8251 164.886 34.374 165.064 33.9041 165.068H24.2582C22.1111 165.068 20.2405 165.068 19.4923 165.036ZM19.4923 163.226C21.6394 163.226 33.839 163.226 33.839 163.226C33.839 163.226 34.1969 157.413 34.5059 155.764C34.5059 155.764 31.3666 151.681 30.6346 150.272C30.6346 150.272 21.3954 157.141 18.191 162.457C18.256 162.457 17.3939 163.162 19.5573 163.226H19.4923ZM92.0556 49.0064C86.0209 49.1185 83.9225 54.4348 83.3532 56.7887H84.9798C85.4819 55.3854 86.4233 54.1751 87.6685 53.332C88.9137 52.4889 90.3985 52.0565 91.9092 52.0969C93.4506 52.1651 94.9404 52.6636 96.2048 53.534C97.4693 54.4045 98.4561 55.611 99.0501 57.0129L100.677 57.141C100.14 54.755 98.2368 48.9904 92.2671 48.9904L92.0556 49.0064ZM26.991 161.497H28.52C28.8586 161.497 29.186 161.377 29.4426 161.16C29.6993 160.942 29.8683 160.641 29.9189 160.312C30.1149 158.874 30.4304 157.455 30.8623 156.068C30.9134 155.928 30.9253 155.777 30.8967 155.63C30.8681 155.484 30.8 155.347 30.6996 155.236C30.6221 155.155 30.5288 155.091 30.4253 155.047C30.3219 155.004 30.2104 154.981 30.0978 154.981C29.9852 154.981 29.8737 155.004 29.7703 155.047C29.6668 155.091 29.5735 155.155 29.4959 155.236C27.8984 156.728 26.6831 158.572 25.9499 160.616C25.9499 160.616 25.527 161.529 27.0072 161.529L26.991 161.497ZM83.8412 125.868C83.9449 125.97 84.0852 126.027 84.2316 126.027C84.3779 126.027 84.5183 125.97 84.622 125.868L86.3625 124.043L88.0704 126.749C88.125 126.827 88.1978 126.891 88.2827 126.935C88.3676 126.98 88.4622 127.004 88.5584 127.005C88.6491 127.028 88.7442 127.028 88.8349 127.005C88.9599 126.929 89.05 126.808 89.0864 126.667C89.1228 126.527 89.1026 126.378 89.0301 126.252L86.9318 122.938C86.8855 122.866 86.8234 122.806 86.7502 122.762C86.6769 122.717 86.5944 122.69 86.5089 122.682C86.4243 122.675 86.3392 122.687 86.2603 122.717C86.1813 122.748 86.1105 122.796 86.0534 122.858L83.8087 125.196C83.7367 125.295 83.7008 125.415 83.7067 125.537C83.7126 125.659 83.76 125.776 83.8412 125.868ZM114.243 37.7974C114.243 37.6533 114.096 37.5092 113.999 37.3331C113.527 36.4203 112.535 34.4828 111.738 34.3226C111.738 34.3226 111.494 34.3226 111.136 34.5788C109.502 36.1134 108.139 37.9046 107.102 39.8791C108.366 40.9039 109.521 42.052 110.55 43.3058C112.121 42.1648 113.811 41.1931 115.593 40.4075C115.105 39.3987 114.698 38.518 114.243 37.6533V37.7974ZM120.749 127.021C120.831 126.284 120.627 125.545 120.177 124.95C119.728 124.356 119.066 123.952 118.325 123.818C115.43 123.002 114.178 125.42 113.901 127.662C113.787 128.622 114.308 134.691 114.308 134.691C114.308 134.691 120.7 133.875 121.611 133.586C123.775 132.85 125.938 131.152 124.539 128.526C124.239 127.836 123.686 127.282 122.989 126.976C122.292 126.67 121.504 126.635 120.782 126.877L120.749 127.021ZM107.639 136.437C104.743 135.62 103.491 138.038 103.214 140.28C103.1 141.24 103.621 147.309 103.621 147.309C103.621 147.309 109.981 146.589 110.924 146.268C113.088 145.548 115.235 143.851 113.836 141.224C113.533 140.534 112.974 139.983 112.272 139.685C111.571 139.388 110.78 139.365 110.062 139.623C110.185 138.87 110.004 138.1 109.557 137.477C109.11 136.855 108.433 136.429 107.671 136.292L107.639 136.437ZM131.371 65.0193C98.8386 55.6998 73.7887 59.719 69.771 60.4716C69.9336 61.0641 70.08 61.7206 70.2264 62.3291C74.0652 61.7046 98.4482 58.6141 131.371 67.181V65.0193ZM125.906 53.9224C120.635 53.2338 117.772 57.2691 116.683 59.3347L118.309 59.639C119.14 58.5231 120.244 57.6315 121.517 57.0465C122.791 56.4616 124.194 56.2022 125.596 56.2923C129.777 56.7246 130.915 61.1922 131.176 62.6974H131.377V58.0056C130.907 56.9154 130.135 55.9635 129.18 55.2424C128.225 54.5213 127.097 54.0555 125.906 53.8903V53.9224ZM97.212 129.071C95.9841 128.885 94.8463 128.325 93.9588 127.469C93.9588 127.469 93.1129 129.631 93.6172 129.631C94.831 129.559 96.0349 129.371 97.212 129.071ZM92.7876 166.06C92.4821 165.376 91.925 164.831 91.2281 164.534C90.5313 164.237 89.7461 164.21 89.0301 164.459C89.1123 163.723 88.908 162.983 88.4583 162.388C88.0086 161.794 87.3469 161.39 86.6065 161.257C83.6948 160.44 82.4586 162.858 82.1821 165.1C82.1718 166.704 82.149 168.401 82.311 169.998H91.9406C92.5244 169.56 93.0225 168.832 93.1606 168.123C93.2987 167.414 93.1658 166.679 92.7876 166.06ZM75.4641 130.992C79.5727 129.757 84.0109 130.171 87.8102 132.145C88.0064 132.238 88.1775 132.375 88.3098 132.545C88.4421 132.715 88.5316 132.914 88.5713 133.124C88.6109 133.335 88.5995 133.552 88.5379 133.757C88.4763 133.963 88.3663 134.151 88.2168 134.307L80.2789 142.457C80.116 142.623 79.9128 142.746 79.6885 142.813C79.4643 142.881 79.2263 142.891 78.9969 142.843C78.7676 142.795 78.5544 142.69 78.3774 142.539C78.2005 142.387 78.0656 142.194 77.9854 141.977L74.6346 132.722C74.514 132.384 74.5335 132.013 74.6888 131.689C74.8441 131.366 75.1226 131.115 75.4641 130.992ZM76.9118 133.186L79.4981 140.28L85.598 134.003C85.598 134.003 81.2386 131.152 76.9118 133.186ZM79.1077 122.505C79.0222 122.514 78.9397 122.541 78.8664 122.586C78.7932 122.63 78.7311 122.69 78.6848 122.762L76.7004 126.076C76.6278 126.202 76.6076 126.351 76.644 126.491C76.6804 126.632 76.7706 126.753 76.8956 126.829C76.9862 126.852 77.0814 126.852 77.1721 126.829C77.2683 126.828 77.3628 126.804 77.4477 126.759C77.5326 126.715 77.6055 126.651 77.6601 126.573L79.2867 123.867L80.9458 125.772C81.0472 125.878 81.1873 125.94 81.3352 125.945C81.4832 125.949 81.6269 125.896 81.7347 125.796C81.8426 125.696 81.9057 125.558 81.9103 125.413C81.9149 125.267 81.8605 125.126 81.7591 125.019L79.5632 122.666C79.5053 122.606 79.4339 122.56 79.3548 122.532C79.2757 122.504 79.1911 122.495 79.1077 122.505ZM92.9665 159.703C92.9665 159.703 99.3429 158.983 100.27 158.678C102.433 157.942 104.581 156.244 103.182 153.618C102.882 152.929 102.326 152.379 101.627 152.081C100.928 151.783 100.14 151.76 99.4242 152.017C99.4981 151.28 99.2886 150.542 98.8369 149.949C98.3852 149.356 97.7242 148.951 96.9843 148.815C94.0889 148.014 92.8527 150.416 92.5761 152.674C92.446 153.65 92.9665 159.703 92.9665 159.703Z" fill="#C72F2A"/>
</g>
<path d="M34.3076 75.5977C31.9999 75.5977 29.846 76.5207 28.1537 78.0592C27.9999 78.213 27.846 78.213 27.6922 78.0592C26.1537 76.5207 23.9999 75.5977 21.5383 75.5977C16.6152 75.5977 12.6152 79.5977 12.6152 84.6746C12.6152 89.1361 14.7691 91.4438 20.4614 96.213C22.7691 98.213 26.1537 102.367 27.3845 104.059C27.6922 104.521 28.3076 104.521 28.6152 104.059C29.9999 102.367 33.2306 98.213 35.5383 96.213C41.0768 91.29 43.3845 89.1361 43.3845 84.6746C43.3845 79.5977 39.3845 75.5977 34.3076 75.5977Z" fill="#BF3030"/>
<path d="M30.7913 31.44L43.0753 64H35.8973L26.5733 37.286L22.4293 43.576V64H15.9913V11.756H22.4293V34.252L35.8973 11.756H43.0753L30.7913 31.44Z" fill="#BF3030"/>
<defs>
<linearGradient id="paint0_linear_324_104525" x1="92" y1="2" x2="92" y2="182" gradientUnits="userSpaceOnUse">
<stop stop-color="white" stop-opacity="0.85"/>
<stop offset="1" stop-color="white" stop-opacity="0.15"/>
</linearGradient>
<clipPath id="clip0_324_104525">
<rect width="116.757" height="165" fill="white" transform="translate(14.6211 5)"/>
</clipPath>
</defs>
</svg>
