<svg width="184" height="184" viewBox="0 0 184 184" fill="none" xmlns="http://www.w3.org/2000/svg">
<rect x="1" y="1" width="182" height="182" rx="13" stroke="black" stroke-opacity="0.25" stroke-width="2"/>
<rect x="2.5" y="2.5" width="179" height="179" rx="11.5" fill="#E9E9E9" stroke="url(#paint0_linear_324_104561)"/>
<rect x="41.0449" y="30.5" width="101.909" height="123" rx="1.5" fill="#D7D5D7" stroke="#CDCFD6"/>
<path d="M102.962 106.144C97.7694 101.99 90.154 93.3362 87.0386 89.8747C86.3463 89.1824 84.9617 89.1824 84.2694 89.8747C81.154 93.3362 73.8848 101.99 68.3463 106.144C56.2309 116.529 51.3848 121.375 51.3848 130.375C51.3848 140.759 60.3848 149.413 71.4617 149.413C75.6155 149.413 80.4617 148.029 83.5771 145.605L83.9232 145.259C83.2309 150.452 81.5001 158.067 76.3078 163.259C75.6155 163.952 75.9617 164.644 77.0001 164.644H86.0001H95.0001C95.6925 164.644 96.0386 163.605 95.6925 163.259C90.5001 158.067 88.7694 150.798 88.0771 145.259L88.4232 145.605C91.1925 148.029 96.3848 149.413 100.539 149.413C111.616 149.413 120.616 140.759 120.616 130.375C120.616 121.375 115.769 116.529 102.962 106.144Z" fill="#24242E"/>
<path d="M34.5383 80.7311C32.2306 78.8849 28.846 75.0388 27.4614 73.5003C27.1537 73.1926 26.5383 73.1926 26.2306 73.5003C24.846 75.0388 21.6152 78.8849 19.1537 80.7311C13.7691 85.3465 11.6152 87.5003 11.6152 91.5003C11.6152 96.1157 15.6152 99.9618 20.5383 99.9618C22.3845 99.9618 24.5383 99.3465 25.9229 98.2695L26.0768 98.1157C25.7691 100.423 24.9998 103.808 22.6922 106.116C22.3845 106.423 22.5383 106.731 22.9998 106.731H26.9998H30.9998C31.3075 106.731 31.4614 106.27 31.3075 106.116C28.9998 103.808 28.2306 100.577 27.9229 98.1157L28.0768 98.2695C29.3075 99.3465 31.6152 99.9618 33.4614 99.9618C38.3845 99.9618 42.3845 96.1157 42.3845 91.5003C42.3845 87.5003 40.2306 85.3465 34.5383 80.7311Z" fill="#24242E"/>
<path d="M21.947 26.556H16.027C15.953 21.524 15.953 18.268 17.507 15.456C19.727 11.534 24.463 11.09 26.683 11.09C31.419 11.09 34.009 13.31 35.119 14.864C37.117 17.454 37.413 21.376 37.413 24.78C37.413 31.588 36.673 35.14 31.345 36.176C37.117 37.582 38.227 39.95 38.227 51.494C38.227 55.49 37.635 58.746 34.971 61.484C33.713 62.742 31.345 64.666 26.535 64.666C23.057 64.666 20.467 63.556 19.061 62.668C14.473 59.708 15.065 53.048 15.139 48.386H21.059C20.985 49.792 20.985 51.272 21.059 53.27C21.133 54.898 21.281 58.968 26.165 58.968C31.419 58.968 31.641 54.676 31.641 52.012C31.715 51.05 31.715 48.238 31.715 46.758C31.715 40.986 29.273 39.358 24.981 39.358C24.315 39.358 23.575 39.358 22.983 39.432V33.586C27.497 33.882 31.197 33.586 31.197 26.112C31.197 19.822 30.827 16.788 26.461 16.788C22.095 16.788 21.651 21.006 21.947 26.556Z" fill="#24242E"/>
<defs>
<linearGradient id="paint0_linear_324_104561" x1="92" y1="2" x2="92" y2="182" gradientUnits="userSpaceOnUse">
<stop stop-color="white" stop-opacity="0.85"/>
<stop offset="1" stop-color="white" stop-opacity="0.15"/>
</linearGradient>
</defs>
</svg>
