<svg width="184" height="184" viewBox="0 0 184 184" fill="none" xmlns="http://www.w3.org/2000/svg">
<rect x="1" y="1" width="182" height="182" rx="13" stroke="black" stroke-opacity="0.25" stroke-width="2"/>
<rect x="2.5" y="2.5" width="179" height="179" rx="11.5" fill="#E9E9E9" stroke="url(#paint0_linear_324_104575)"/>
<rect x="41.0449" y="30.5" width="101.909" height="123" rx="1.5" fill="#D7D5D7" stroke="#CDCFD6"/>
<path d="M131.378 39.9316V165.247C131.378 167.94 128.945 170 126.513 170H99.7562H72.9995H19.486C16.7292 170 14.6211 167.94 14.6211 165.247V150.168L57.1076 121.521L57.9184 117.719C58.567 113.283 59.2157 106.154 58.567 97.2821C57.4319 81.7563 58.0806 75.1024 63.7562 67.0226C66.3508 63.3788 66.9995 59.4181 67.6481 55.4575C68.2968 51.1799 68.6211 46.5856 72.0265 42.4665C72.0265 42.4665 72.0265 42.308 72.1887 42.1496V41.9912C72.8373 40.8822 79.6481 29.1586 89.54 28.2081C91.9724 27.2575 94.567 26.6238 97.1616 26.3069L97.9724 26.1485L103.81 25.6732C103.81 25.6732 110.783 25.0395 118.729 28.3665C122.621 29.9507 126.837 33.9114 131.378 39.9316Z" fill="#E7E7E7"/>
<path d="M131.378 135.937V165.248C131.378 167.941 129.27 170.001 126.513 170.001H107.54C109.486 165.248 116.135 151.78 131.378 135.937ZM129.27 63.2149C128.783 63.6902 128.783 64.4824 129.108 65.1161C129.432 65.5914 129.756 65.9083 130.243 65.9083C130.729 65.9083 131.054 65.7499 131.216 65.5914C131.216 65.5914 131.216 65.5914 131.378 65.433V62.4227C130.405 62.2643 129.756 62.5812 129.27 63.2149ZM128.945 128.49C127.486 130.075 125.864 131.818 124.243 133.56L126.189 132.927C126.837 132.768 127.486 133.085 127.648 133.719C127.81 134.194 127.486 134.828 126.999 134.986L121.324 136.888C119.864 138.63 118.405 140.373 117.108 142.116L119.216 141.165C119.864 140.848 120.513 141.165 120.837 141.799C120.999 142.274 120.837 142.908 120.189 143.225L114.026 146.077C112.567 147.978 111.27 150.038 109.81 151.939L111.918 150.988C112.567 150.671 113.216 150.988 113.54 151.622C113.702 152.097 113.54 152.731 112.891 153.048L107.54 155.583C106.405 157.326 105.432 159.069 104.459 160.811L106.405 159.702C106.891 159.385 107.54 159.544 107.864 159.861C108.351 160.494 108.189 161.128 107.54 161.445L102.513 164.297C101.702 165.881 100.891 167.466 100.243 169.05L102.675 167.624C103.162 167.307 103.81 167.466 104.135 167.782C104.621 168.258 104.459 169.05 103.81 169.525L102.999 170.001H104.621C110.945 155.741 121.648 142.75 131.378 133.085V128.015L128.945 128.49ZM130.891 121.202C131.054 121.044 131.216 120.886 131.378 120.727V119.618L130.891 121.202ZM97.486 170.001H98.7833C106.567 151.78 120.675 135.145 131.378 124.371V122.153C120.351 133.244 105.108 150.83 97.486 170.001ZM96.8373 60.9968C101.54 59.5709 107.054 62.7396 107.702 63.0565C108.351 63.3733 108.837 63.2149 108.837 63.2149C105.918 60.0462 101.864 58.6203 97.9724 58.6203C94.0806 58.6203 92.2968 62.4227 96.8373 60.9968ZM95.8643 96.328C95.3778 96.8033 94.7292 97.1201 93.5941 96.328C92.4589 95.5358 90.3508 93.793 90.0265 93.4761C89.7022 93.0008 89.54 93.4761 89.54 93.4761C87.7562 94.902 86.2968 93.4761 85.9724 93.4761C85.8103 93.4761 84.8373 94.902 84.0265 95.6942C83.3778 96.4864 82.0806 96.1695 82.0806 96.1695C82.567 97.5955 83.3779 97.1201 84.9995 96.6448C86.1346 96.328 87.1076 96.8033 87.4319 97.1201C87.5941 97.2786 87.7562 97.2786 87.9184 97.1201C88.567 96.8033 90.0265 96.0111 90.9995 96.1695C92.2968 96.328 93.5941 97.1201 94.4049 97.437C95.2157 97.7539 97.3238 96.8033 97.1616 96.328C96.8373 96.0111 96.1887 95.8527 95.8643 96.328ZM88.0806 99.6551C85.486 99.4967 85.486 97.5955 85.486 97.5955C84.9995 98.5461 85.486 100.447 88.0806 100.606C90.8373 100.764 91.6481 99.1798 91.6481 99.1798C91.6481 99.1798 90.8373 99.972 88.0806 99.6551ZM96.6751 75.256C98.4589 75.8898 100.243 75.5729 100.243 75.5729C97.6481 75.0976 94.7292 73.5132 94.7292 73.5132C95.2157 74.6223 95.8643 74.9391 96.6751 75.256ZM100.081 66.8589C105.27 67.1758 109.972 71.612 109.972 71.612L108.351 71.1367C107.54 71.7704 103.972 73.6717 100.567 73.5132C96.6751 73.3548 95.2157 71.2951 94.8914 70.9782C94.7292 70.8198 94.4049 70.8198 94.2427 70.8198C94.0806 70.8198 94.0806 70.8198 93.9184 70.9782C93.4319 71.1367 93.1076 71.1367 93.1076 71.1367C93.1076 71.1367 93.7562 68.6017 96.513 67.3342C95.8643 67.1758 94.8914 66.542 94.567 66.3836C94.2427 66.0667 94.0806 65.5914 94.0806 65.5914C96.513 66.542 100.081 66.8589 100.081 66.8589ZM99.1076 72.5626C97.6481 71.9289 96.6751 70.6614 96.6751 68.9186C96.6751 68.7601 96.6751 68.6017 96.6751 68.2848C95.7022 68.7601 95.3779 69.3939 95.2157 69.8692C95.54 70.6614 96.3508 71.9289 99.1076 72.5626ZM104.621 68.9186C104.621 70.8198 103.324 72.2457 101.54 72.721C105.108 72.721 107.054 71.2951 107.54 70.8198C107.216 70.3445 106.243 69.5523 104.621 68.9186ZM100.567 70.6614C99.5941 70.6614 98.7833 69.8692 98.7833 68.9186C98.7833 68.4433 98.9454 68.1264 99.1076 67.8095C98.4589 67.8095 97.9724 67.968 97.486 67.968C97.3238 68.2848 97.3238 68.6017 97.3238 68.9186C97.3238 70.6614 98.7833 72.0873 100.567 72.0873C102.351 72.0873 103.81 70.6614 103.81 68.9186C103.81 68.7601 103.81 68.7601 103.81 68.6017C103.324 68.4433 102.837 68.2848 102.351 68.1264C102.513 68.2848 102.513 68.6017 102.513 68.9186C102.513 69.8692 101.702 70.6614 100.567 70.6614ZM117.108 26.4578C120.189 26.4578 125.216 26.1409 131.378 25.1903V61.1552C131.054 61.1552 130.891 60.9968 130.567 60.9968C129.27 60.3631 126.999 58.6203 126.189 57.0359C125.702 56.0853 126.026 54.6594 126.675 53.7088C126.999 53.3919 127.648 52.7581 128.459 53.075C129.432 53.3919 129.918 54.3425 129.756 55.1347C129.756 55.61 129.432 55.9269 129.108 55.9269C128.783 55.9269 128.459 55.7684 128.297 55.61C128.135 55.4515 128.135 55.2931 128.135 55.2931V55.1347H127.972C127.81 55.61 127.81 56.0853 128.135 56.4022C128.459 56.8775 129.108 57.0359 129.756 56.8775C130.243 56.719 130.729 55.9269 130.729 55.1347C130.891 53.8672 130.243 52.7581 128.945 52.2828C127.972 51.966 127.162 51.8075 126.351 52.1244C126.513 51.4907 126.675 50.3816 126.837 48.9557C126.837 48.6388 126.999 48.1635 126.999 47.6882C127.486 45.6285 128.135 42.9351 124.729 41.3508C123.918 41.0339 123.27 41.0339 122.621 41.1923C121.162 40.717 118.891 39.7664 117.918 38.6574C117.432 38.0236 117.27 37.2314 117.594 36.5977C117.918 35.9639 118.567 35.6471 119.378 35.8055C120.513 35.9639 121.162 36.7561 120.999 37.2314C120.999 37.5483 120.837 37.7067 120.513 37.7067C120.027 38.3405 120.026 38.0236 120.026 37.8652C120.026 37.8652 120.027 37.8652 119.864 37.7067H119.702C119.702 38.0236 119.702 38.3405 120.026 38.4989C120.513 38.9742 121.324 38.9742 121.81 38.9742C122.135 38.9742 122.459 38.4989 122.459 37.8652C122.459 37.073 121.81 35.9639 120.189 35.6471C119.216 35.4886 118.405 35.4886 117.756 35.6471C117.756 35.1718 117.756 33.1121 117.432 30.894C117.432 30.2603 116.945 29.4681 116.297 29.1512C115.162 28.8343 113.864 28.6759 112.567 28.359C112.243 28.359 111.918 28.359 111.756 28.5175C111.594 28.5175 110.621 29.1512 110.783 29.1512C110.459 29.4681 110.297 30.1018 110.297 30.5771C110.297 31.0524 110.621 31.5277 111.108 31.8446C112.405 32.6368 113.864 32.4784 114.351 32.0031C114.513 31.8446 114.675 31.5277 114.189 31.0524C114.189 31.0524 114.189 31.0524 114.026 31.0524C114.026 31.0524 114.026 31.0524 114.026 31.2109C114.026 31.2109 114.026 31.3693 113.864 31.5277C113.702 31.6862 113.378 31.8446 112.891 31.6862C112.081 31.6862 111.594 31.0524 111.594 30.7356C111.432 30.4187 111.594 29.9434 111.918 29.785C112.567 29.3096 113.54 28.9928 115.486 30.1018C116.621 30.7356 116.621 33.429 116.621 35.8055C116.621 36.4393 116.621 36.9146 116.621 37.3899C116.621 37.8652 116.621 38.3405 116.783 38.8158V38.9742C117.594 40.8755 120.837 42.1429 121.648 42.6183C120.999 43.252 120.513 44.2026 120.513 44.9948C120.513 45.6285 120.675 46.1038 120.999 46.5791C121.972 47.5298 123.27 47.6882 124.081 47.2129C124.567 46.896 124.729 46.2623 124.567 45.6285C124.567 45.6285 124.567 45.6285 124.405 45.6285C124.405 45.6285 124.405 45.6285 124.405 45.787C124.405 45.787 124.405 46.2623 124.081 46.4207C123.918 46.5791 123.594 46.5791 123.108 46.5791C122.621 46.4207 122.297 46.1038 122.135 45.4701C121.972 44.8364 122.135 44.0442 122.783 43.5689C123.594 42.9351 124.729 42.6183 126.351 44.2026C127.324 45.1532 126.513 49.1141 125.864 52.1244C125.702 52.9166 125.54 53.7088 125.378 54.5009C125.216 54.9762 125.054 55.7684 125.216 56.4022C125.216 56.5606 125.216 56.5606 125.216 56.719C125.378 59.4124 128.135 61.4721 129.108 62.1058C128.297 62.7396 127.81 63.6902 127.81 64.7993C127.81 65.5914 128.135 66.3836 128.621 66.7005C129.594 67.4927 130.729 67.3202 131.378 66.8448V118.509C131.216 118.192 131.054 118.034 130.729 118.034C130.243 117.875 129.594 118.192 129.432 118.826L127.486 125.163C125.702 126.906 123.918 128.966 122.135 131.025L122.621 128.649C122.783 128.015 122.297 127.381 121.648 127.381C120.999 127.381 120.513 127.698 120.513 128.332L119.216 134.511C117.918 136.095 116.459 137.838 115.162 139.581L115.324 137.046C115.324 136.412 114.837 135.778 114.189 135.778C113.54 135.778 113.216 136.254 113.054 136.729L112.567 142.908C111.108 144.809 109.648 146.869 108.189 148.929V146.077C108.189 145.443 107.54 144.968 106.891 144.968C106.243 144.968 105.918 145.443 105.918 146.077L106.081 152.256C104.783 154.474 103.324 156.692 102.189 158.91L101.864 155.741C101.702 155.108 101.054 154.632 100.405 154.791C99.9184 154.949 99.4319 155.425 99.5941 156.058L100.405 162.396C99.4319 164.138 98.6211 166.04 97.8103 167.941L96.9995 164.931C96.8373 164.297 96.1887 163.98 95.54 164.138C95.0535 164.297 94.7292 164.931 94.8914 165.406L95.7022 170.001H87.5941L89.0535 166.99C89.2157 166.515 89.0535 165.881 88.567 165.564C87.9184 165.248 87.2697 165.564 86.9454 166.04L85.8103 168.733C85.3238 166.357 84.6751 163.822 84.0265 161.445L85.8103 155.583C85.9724 155.108 85.6481 154.474 85.1616 154.315C84.513 153.999 83.8643 154.315 83.7022 154.949L82.8914 157.484C82.2427 155.425 81.5941 153.365 80.9454 151.305L82.0806 145.126C82.2427 144.651 81.9184 144.017 81.2697 143.859C80.6211 143.7 79.9724 144.017 79.8103 144.651L79.3238 147.027C78.3508 144.492 77.54 141.957 76.567 139.581L77.0535 133.085C77.0535 132.451 76.7292 131.976 76.0806 131.976C75.4319 131.818 74.7833 132.293 74.7833 132.927L74.6211 134.986C73.6481 132.768 72.8373 130.709 71.8643 128.966L71.7022 122.311C71.7022 121.678 71.2157 121.361 70.7292 121.202C70.0806 121.202 69.4319 121.678 69.4319 122.311V123.896C68.1346 121.361 67.3238 119.776 67.3238 119.776C67.1616 119.46 66.8373 119.46 66.513 119.618C66.1887 119.776 66.1887 120.093 66.3508 120.41C66.513 120.727 79.6481 143.542 84.9995 170.001H83.54C78.3508 143.225 65.54 121.044 65.3778 120.727C65.2157 120.41 64.8914 120.41 64.567 120.569C64.2427 120.727 64.2427 121.044 64.4049 121.361C64.4049 121.519 65.54 123.42 67.1616 126.589L65.2157 125.322C64.7292 125.005 63.9184 125.163 63.5941 125.797C63.2697 126.272 63.4319 126.906 63.9184 127.223L68.9454 130.55C70.0806 132.927 71.2157 135.62 72.513 138.789L70.4049 137.363C69.9184 137.046 69.1076 137.204 68.7833 137.838C68.4589 138.313 68.6211 138.947 69.1076 139.264L73.9724 142.433C74.7833 144.492 75.5941 146.552 76.4049 148.929L74.9454 147.661C74.4589 147.186 73.6481 147.344 73.3238 147.82C72.9995 148.295 72.9995 148.929 73.486 149.246L77.8643 153.048C78.513 155.108 79.1616 157.326 79.8103 159.544L78.1887 157.801C77.7022 157.326 76.8914 157.326 76.567 157.801C76.2427 158.276 76.2427 158.91 76.567 159.227L81.1076 163.98C81.5941 166.04 82.0806 167.941 82.567 170.001H81.9184L81.1076 169.208C80.6211 168.733 79.8103 168.733 79.486 169.208C79.3238 169.367 79.1616 169.684 79.1616 170.001H78.3508C73.486 150.671 63.1076 133.243 56.9454 123.896L55.3238 125.005C67.486 143.225 73.3238 159.069 76.0806 170.001H19.486C16.7292 170.001 14.6211 167.941 14.6211 165.248V149.721L55.9724 121.836L56.7833 118.034C57.4319 113.597 58.4049 106.151 57.7562 97.1201C56.6211 81.5934 57.2697 74.3054 62.9454 66.0667C65.54 62.4227 66.3508 59.254 66.6751 55.2931C67.8103 45.9454 71.2157 41.0339 71.2157 41.0339C71.54 40.5586 77.54 30.7356 85.9724 27.0915C94.7292 23.4475 103.81 24.0813 103.81 24.0813C104.135 24.0813 111.108 24.2397 117.108 26.4578ZM93.9184 34.6965C96.513 36.4393 99.2697 37.2314 101.864 37.8652C100.405 36.7561 98.4589 35.6471 96.0265 35.1718C95.54 35.0133 95.0535 35.0133 94.567 34.8549C94.4049 34.6965 94.0806 34.6965 93.9184 34.6965ZM90.0265 34.2212C90.6751 35.4886 91.6481 36.7561 93.1076 37.8652C96.1887 40.2417 99.4319 41.0339 102.675 41.6676C103.81 41.9845 104.945 42.1429 106.081 42.4598C105.594 41.5092 104.783 40.2417 103.648 39.1327C103.324 38.9742 102.837 38.9742 102.513 38.8158C99.2697 38.3405 95.7022 37.5483 92.2968 34.8549C92.1346 34.6965 91.8103 34.538 91.6481 34.3796C91.1616 34.3796 90.513 34.2212 90.0265 34.2212ZM88.7292 34.2212C89.3779 36.9146 90.513 39.608 93.1076 41.6676C96.1887 44.0442 99.4319 44.8364 102.675 45.4701C104.459 45.9454 106.405 46.2623 108.026 47.0545C108.026 46.896 107.864 46.7376 107.864 46.5791L107.54 45.6285C107.54 45.4701 107.378 45.4701 107.378 45.3117L107.216 44.9948C107.216 44.9948 107.054 44.5195 106.729 43.7273C105.432 43.252 103.972 42.9351 102.351 42.6183C99.2697 41.9845 95.7022 41.1923 92.4589 38.4989C90.6751 37.3899 89.54 35.9639 88.7292 34.2212ZM88.567 37.7067C89.0535 40.5586 90.3508 43.5689 93.1076 45.6285C96.1887 48.0051 99.4319 48.7972 102.675 49.431C105.108 49.9063 107.54 50.54 109.648 51.8075C109.486 51.0153 109.162 50.3816 108.999 49.7479L108.675 48.9557C108.675 48.9557 108.675 48.7972 108.513 48.7972C106.729 47.8466 104.621 47.3713 102.351 46.7376C99.2697 46.1038 95.7022 45.3117 92.4589 42.6183C90.513 41.1923 89.3778 39.4495 88.567 37.7067ZM75.4319 41.1923C77.8643 40.5586 80.2968 39.7664 82.567 37.8652C83.7022 36.9146 84.6751 35.8055 85.3238 34.6965C83.7022 35.0133 82.8914 35.6471 82.8914 35.6471C80.2968 36.7561 78.1887 38.3405 76.8914 39.608C76.7292 39.7664 76.4049 40.0833 76.2427 40.2417C76.0806 40.4002 75.5941 40.8755 75.4319 41.1923ZM72.9995 45.6285C76.2427 44.8364 79.486 44.2026 82.567 41.6676C84.9995 39.7664 86.2968 37.073 86.9454 34.3796H86.7833C85.9724 35.9639 84.8373 37.3899 83.3779 38.6574C80.4589 40.8755 77.3779 41.8261 74.6211 42.4598C74.2968 43.0936 73.9724 43.5689 73.6481 44.2026L73.1616 45.1532C72.9995 45.4701 72.9995 45.4701 72.9995 45.6285ZM71.7022 49.7479C72.1887 49.5894 72.513 49.5894 72.9995 49.431C76.0806 48.7972 79.3238 48.0051 82.567 45.6285C85.3238 43.5689 86.4589 40.5586 87.1076 37.7067C86.2968 39.4495 85.1616 41.1923 83.3779 42.6183C80.1346 45.1532 76.567 45.9454 73.486 46.7376C73.1616 46.7376 72.9995 46.896 72.6751 46.896C72.6751 47.0545 72.513 47.2129 72.513 47.3713L72.1887 48.3219C72.0265 48.7972 71.8643 49.2726 71.7022 49.7479ZM71.2157 53.7088C71.8643 53.5503 72.3508 53.3919 72.9995 53.2334C76.2427 52.5997 79.486 51.8075 82.567 49.431C85.3238 47.3713 86.4589 44.361 87.1076 41.5092C86.2968 43.252 85.1616 44.9948 83.3779 46.4207C80.1346 48.9557 76.567 49.7479 73.486 50.54C72.8373 50.6985 72.3508 50.8569 71.7022 51.0153V51.4907C71.7022 52.1244 71.54 52.5997 71.54 53.2334C71.54 53.2334 71.54 53.3919 71.54 53.5503L71.2157 53.7088ZM70.7292 96.1695C70.7292 96.0111 69.1076 86.6634 70.7292 80.1675C70.7292 79.8507 70.7292 79.5338 70.7292 79.2169C70.7292 78.9 70.7292 78.5832 70.7292 78.4247C70.7292 78.1079 70.7292 77.9494 70.7292 77.6325C70.7292 77.3157 70.7292 77.1572 70.7292 76.8404C67.486 82.8609 69.5941 96.0111 69.5941 96.0111C69.7562 96.328 70.7292 106.468 70.4049 112.013L71.7022 111.221C71.7022 105.676 70.7292 96.4864 70.7292 96.1695ZM102.351 54.3425C99.2697 53.7088 95.7022 52.9166 92.4589 50.2232C90.0265 48.3219 88.567 45.787 87.9184 43.252C87.2697 45.787 85.8103 48.3219 83.3779 50.2232C80.1346 52.7581 76.567 53.5503 73.486 54.3425C72.6751 54.5009 72.0265 54.6594 71.3779 54.8178C71.3779 55.7684 71.2157 57.0359 71.0535 58.3034V59.254C70.8914 61.4721 70.8914 63.5318 70.8914 64.4824C70.8914 64.9577 71.0535 65.5914 71.2157 66.2252C71.7022 68.2848 72.1887 71.2951 71.7022 74.9391C69.7478 87.8279 78.5805 117.219 96.513 111.379L96.6587 111.332C100.713 110.065 116.783 102.665 122.135 89.5152L122.297 89.1984L122.621 89.3568C122.621 89.3568 124.081 89.9905 125.378 88.2477C125.054 87.9309 124.891 87.614 124.567 87.2971C123.918 86.3465 123.27 85.5543 122.783 84.6037L121.648 86.505L121.972 83.4947C116.459 74.7807 113.702 66.2252 111.594 58.9371C109.162 55.9269 105.918 55.1347 102.351 54.3425ZM109.972 53.5503C107.864 51.8075 105.27 51.1738 102.351 50.54C99.2697 49.9063 95.7022 49.1141 92.4589 46.4207C90.6751 44.9948 89.54 43.252 88.7292 41.5092C89.2157 44.361 90.513 47.3713 93.2697 49.431C96.3508 51.8075 99.5941 52.5997 102.837 53.2334C105.918 53.8672 108.837 54.5009 111.108 56.719C111.108 56.5606 110.945 56.4022 110.945 56.2437C110.945 56.0853 110.783 55.9269 110.783 55.7684L110.621 54.9762C110.297 54.5009 110.135 54.0256 109.972 53.5503ZM117.108 26.9331C116.621 26.9331 115.162 26.9331 114.999 26.9331C115.486 26.9331 116.135 26.9331 117.108 26.9331ZM94.567 86.9803C94.567 85.5543 93.5941 85.079 93.5941 85.079C94.2427 87.614 92.7833 89.1984 92.7833 89.1984C92.7833 89.1984 94.567 88.2477 94.567 86.9803ZM107.702 67.1758C106.891 66.3836 103.648 64.0071 100.081 64.0071C97.3238 64.0071 96.6751 65.433 96.6751 65.433C96.6751 65.433 98.6211 64.4824 102.351 65.5914C106.081 66.7005 108.999 68.9186 108.999 68.9186C108.999 68.9186 108.513 67.968 107.702 67.1758ZM90.3508 87.4556C90.9995 87.614 91.3238 86.505 90.0265 85.7128C88.7292 84.9206 86.7833 85.5543 86.7833 85.5543C86.7833 85.5543 87.5941 85.5543 88.7292 86.0296C90.0265 86.6634 89.7022 87.2971 90.3508 87.4556ZM88.567 101.715C87.2697 101.873 87.1076 102.982 86.9454 102.982C86.9454 102.982 87.1076 102.507 88.7292 102.349C90.3508 102.19 90.8373 102.982 90.8373 102.982C90.6751 102.349 89.8643 101.556 88.567 101.715ZM83.3779 87.7724C81.5941 87.4556 79.9724 86.6634 80.1346 84.6037C80.2968 82.5441 83.3778 79.0585 84.513 72.8795C84.1887 73.1963 84.0265 73.5132 83.54 73.8301C81.9184 75.0976 80.6211 74.9391 80.7833 74.9391C80.7833 74.7807 81.9184 74.4638 82.7292 73.8301C83.54 73.1963 84.513 71.7704 83.54 71.7704C82.4049 72.4042 80.1346 73.1963 77.7022 72.8795C74.2968 72.5626 72.6751 70.8198 72.3508 70.5029C72.3508 70.5029 72.3508 70.5029 72.1887 70.3445V70.1861C72.0265 69.3939 73.6481 67.3342 73.6481 67.3342C73.1616 67.1758 72.8373 66.7005 72.6751 66.3836C72.513 66.2252 72.6751 66.0667 72.8373 66.0667C73.486 66.2252 74.9454 66.3836 77.3779 66.7005C82.0806 67.1758 83.8643 70.3445 84.3508 70.6614C84.8373 70.9782 85.1616 70.5029 85.1616 70.5029C85.1616 70.3445 85.1616 70.3445 85.3238 70.1861C85.3238 69.8692 85.3238 69.5523 84.9995 69.2355C84.9995 69.2355 83.3779 66.8589 80.6211 66.0667C77.7022 65.2746 76.0806 65.7499 75.5941 65.433C75.1076 65.2746 75.5941 64.4824 77.2157 64.4824C78.8373 64.4824 81.5941 64.9577 84.1887 67.6511C84.3508 67.8095 84.513 67.968 84.513 68.1264C84.513 68.1264 84.8373 68.2848 85.1616 68.2848C85.486 68.1264 85.8103 68.6017 85.486 68.7601C85.3238 68.9186 85.3238 69.3939 85.486 69.7108C85.486 69.8692 85.486 69.8692 85.486 70.0276C85.486 70.1861 85.486 70.3445 85.486 70.3445C85.486 70.3445 85.6481 71.2951 84.8373 74.6223C84.0265 77.9494 81.1076 83.6531 81.1076 84.1284C80.9454 84.4453 80.7833 85.7128 82.2427 86.505C83.7022 87.4556 85.9724 87.614 86.6211 89.8321C86.6211 89.8321 84.9995 88.0893 83.3779 87.7724ZM74.2968 71.4536C73.8103 70.8198 73.3238 70.0276 73.3238 69.077C73.3238 68.9186 73.3238 68.7601 73.3238 68.6017C72.6751 69.2355 72.3508 70.1861 72.3508 70.1861C72.8373 70.3445 73.3238 70.9782 74.2968 71.4536ZM80.2968 68.9186C79.8103 68.6017 79.3238 68.4433 78.9995 68.2848C78.9995 68.4433 79.1616 68.6017 79.1616 68.9186C79.1616 69.8692 78.3508 70.6614 77.3779 70.6614C76.4049 70.6614 75.5941 69.8692 75.5941 68.9186C75.5941 68.4433 75.7562 68.1264 76.0806 67.8095C75.5941 67.8095 74.9454 67.8095 74.6211 67.968C74.4589 68.2848 74.4589 68.6017 74.4589 68.9186C74.4589 70.5029 75.7562 71.9289 77.54 71.9289C79.3238 71.9289 80.2968 70.6614 80.2968 68.9186ZM82.8914 71.2951C82.8914 70.9782 82.8914 70.6614 82.7292 70.5029C82.4049 70.0276 81.7562 69.7108 80.9454 69.2355C80.7833 70.3445 80.2968 71.2951 79.3238 71.9289C81.4319 71.9289 82.8914 71.4536 82.8914 71.2951ZM74.9454 62.1058C76.4049 61.6305 77.8643 61.4721 77.8643 61.4721C84.513 61.4721 85.3238 67.0174 85.3238 67.0174C85.6481 64.1655 83.54 60.0462 79.9724 59.5709C76.4049 59.0956 73.9724 60.3631 73.1616 61.1552C72.513 61.9474 73.486 62.5812 74.9454 62.1058Z" fill="#24242E"/>
<path fill-rule="evenodd" clip-rule="evenodd" d="M78.3514 125.577C78.3514 125.577 78.6757 126.529 79.3244 128.115C91.4865 131.923 109 130.337 115.487 129.543C116.297 128.591 117.108 127.798 117.919 127.005C117.919 127.005 93.4325 130.813 78.3514 125.577ZM59.0541 149.216L61.8108 139.856C63.9189 143.822 67.8108 152.548 67.8108 152.548L59.0541 149.216ZM64.0811 161.115L61.973 166.986C61.973 166.986 60.5135 162.067 58.7298 158.418L64.0811 161.115ZM108.999 170C110.62 166.668 111.919 164.764 111.919 164.764L112.73 170H108.999ZM53.7027 125.894C54.5135 127.163 56.4595 130.813 57.1081 132.399L48.6758 128.75L53.7027 125.894ZM68.946 170L71.7027 162.226C71.7027 162.226 72.9823 165.558 74.2796 170H68.946ZM48.6758 138.269L54.8379 139.856L52.7298 146.837C52.7298 146.837 50.2974 141.125 48.6758 138.269ZM126.351 143.663V153.817L117.27 155.721C120.838 149.851 126.351 143.663 126.351 143.663ZM131.378 33.7163C130.73 34.0336 129.919 34.1923 128.946 34.0337C128.946 33.399 129.432 32.1298 131.378 31.3365V33.7163ZM115.503 28.0945C116.303 28.3873 117.811 28.9392 119.054 29.75C123.432 32.2885 127.649 37.0406 131.378 42.7522V46.5599C127 39.4204 122.135 33.399 116.946 30.226C115.703 29.4151 114.195 28.8633 113.395 28.5704C112.942 28.4049 112.716 28.3221 112.892 28.3221C109.649 27.0529 106.568 25.7837 103.811 25.625C103.811 25.625 106.243 25.7837 110.297 26.4183C111.461 26.6712 113.008 27.1837 114.13 27.558C114.415 27.6532 114.704 27.7497 115 27.8462C114.824 27.8462 115.051 27.9289 115.503 28.0945ZM121 169.365L120.027 163.654L125.541 161.591C123.27 164.447 121 169.365 121 169.365ZM122.946 29.1154C122.743 28.9567 122.541 28.7981 122.297 28.6394C124.694 28.4831 127.721 28.1726 131.378 27.5563V27.8675C128.986 28.1848 126.29 28.6605 123.595 29.5913C123.351 29.4327 123.149 29.274 122.946 29.1154ZM121.733 52.555C122.15 53.7529 122.574 54.973 122.946 56.2452C124.892 62.5913 127.162 69.5721 131.378 77.0288V80.0433C126.351 71.476 123.757 63.7019 121.487 56.7212C121.115 55.449 120.69 54.2289 120.273 53.031C119.962 52.1374 119.656 51.2562 119.378 50.375C112.081 29.75 101.865 28.0048 91 28.0048C89.8649 28.0048 88.7298 28.1635 87.5946 28.4808C89.0541 27.8462 91.1622 27.2115 93.5946 26.7356C103.649 27.0529 113.703 30.226 120.838 49.899C121.115 50.7802 121.422 51.6614 121.733 52.555ZM129.025 116.493C129.873 115.71 130.673 114.971 131.378 114.313V112.996C128.499 113.971 123.263 115.364 116.047 116.119C115.65 116.092 115.277 116.125 114.944 116.228C111.869 116.515 108.427 116.692 104.622 116.692C102.945 116.692 101.336 116.651 99.795 116.576C99.1776 116.404 98.5441 116.358 98.0165 116.47C86.3969 115.688 78.9983 113.011 76.2433 111.933L71.7027 114.788L77.3784 124.308C92.946 129.861 119.541 125.736 119.541 125.736C121.362 123.572 125.584 119.672 129.025 116.493ZM98.0165 116.47C97.2632 116.63 96.687 117.108 96.3514 117.962C95.7298 119.33 96.4485 120.261 96.9376 120.895C96.9589 120.923 96.9797 120.95 97 120.976C96.7545 120.88 96.4644 120.769 96.1477 120.648C95.4184 120.37 94.5482 120.039 93.7568 119.707C93.5946 119.548 93.2703 119.707 93.2703 120.024C93.2703 121.135 92.946 122.404 92.7838 123.038C92.7838 123.356 92.946 123.514 93.2703 123.514C94.4054 123.197 95.8649 122.721 97 122.245C96.5135 122.88 95.8649 123.99 96.1892 124.942C97.4865 127.957 100.73 126.37 101.703 125.418C101.982 125.145 102.562 124.548 103.222 123.869C104.096 122.97 105.11 121.926 105.757 121.293C106.081 120.976 106.081 120.341 105.595 120.024C105.086 119.669 104.415 119.25 103.756 118.838C102.944 118.331 102.15 117.836 101.703 117.486C101.078 117.063 100.426 116.751 99.795 116.576C99.2046 116.547 98.5869 116.509 98.0165 116.47ZM114.944 116.228C114.259 116.439 113.744 116.94 113.541 117.803C113.054 119.072 113.865 120.024 114.514 120.5C113.703 120.341 112.568 120.024 111.432 119.707C111.27 119.707 110.946 119.865 110.946 120.024C110.946 120.657 110.893 121.289 110.848 121.834C110.814 122.245 110.784 122.607 110.784 122.88C110.784 123.197 110.946 123.356 111.27 123.197C112.243 122.88 113.541 122.245 114.676 121.611C114.189 122.245 113.703 123.356 114.189 124.149C115.649 126.846 118.568 125.101 119.378 124.149C119.703 123.514 121.649 121.135 122.622 120.024C122.946 119.707 122.784 119.072 122.297 118.913C121.753 118.609 121.023 118.232 120.321 117.87C119.558 117.476 118.828 117.099 118.405 116.851C117.607 116.431 116.786 116.169 116.047 116.119C115.685 116.157 115.317 116.193 114.944 116.228ZM87.3922 117.504C88.002 118.028 88.6118 118.553 89.0541 118.913C89.3784 119.231 89.3784 119.707 89.0541 120.024C87.7568 120.976 85.1622 122.88 84.3514 123.514C83.3784 124.308 79.8108 125.418 79 122.245C78.6757 121.293 79.4865 120.341 80.1352 119.707C78.8379 120.024 77.3784 120.341 76.2433 120.5C76.0811 120.5 75.7568 120.341 75.9189 120.024C75.9475 119.954 75.9773 119.882 76.0081 119.807C76.3265 119.035 76.744 118.022 76.8919 117.01C76.8919 116.851 77.2162 116.692 77.3784 116.851C78.0622 117.408 78.8261 117.809 79.5013 118.163C79.7867 118.313 80.0564 118.455 80.2973 118.596C79.8108 117.962 79.3244 116.851 80.1352 115.582C81.2703 113.678 83.7027 114.154 85.4865 115.899C85.9288 116.245 86.6605 116.875 87.3922 117.504ZM118.568 96.8606C120.189 94.7981 121.649 92.5769 122.622 90.1971C123.27 90.3558 124.568 90.5144 125.703 88.7692C126.076 89.2556 126.438 89.7315 126.792 90.1972C127.825 91.5543 128.791 92.8235 129.757 94.0048C127.295 96.1124 121.037 96.6487 118.879 96.8336C118.763 96.8435 118.659 96.8525 118.568 96.8606Z" fill="#F4C900"/>
<path d="M70.3111 53.836C70.3111 53.9945 70.3111 53.9945 70.3111 54.153C70.1487 56.6886 69.6615 62.8692 69.8239 64.6124C69.8239 65.0878 69.9863 65.7217 70.1487 66.5141C70.3111 67.465 70.6359 68.5743 70.6359 70.0006C70.1487 71.5853 69.3367 73.487 67.8749 76.0227C63.9771 82.0447 66.2508 97.0999 66.4132 97.2584C66.5756 97.7338 67.5501 108.193 67.2253 114.374L58.6175 120.237C59.2671 116.434 60.404 108.193 59.5919 97.4169C58.455 81.8863 59.1047 75.2303 64.7891 67.148C67.3877 63.5031 68.0374 59.5412 68.5246 55.7378C69.3367 50.9835 69.9863 46.2292 74.209 41.7919C73.5594 42.7427 72.9097 43.8521 72.4225 44.9614C72.4225 44.9614 72.2601 45.1199 72.2601 45.2784C71.9352 46.0707 71.1232 48.4479 71.1232 48.4479C70.7984 50.0326 70.4735 51.6174 70.3111 53.3606C70.4735 53.2021 70.4735 53.3606 70.3111 53.836ZM42.2139 134.183L32.3067 140.522C34.5805 144.96 40.9146 158.272 45.2997 169.999H57.9678C52.933 155.102 42.2139 134.183 42.2139 134.183ZM28.5712 142.899L25.9727 144.484C27.9216 148.446 32.9564 159.539 37.1791 169.999H41.2394C37.0167 159.064 30.6826 147.02 28.5712 142.899ZM79.8934 129.429C82.9793 137.353 88.6637 153.359 90.775 165.403C91.2623 168.097 91.5871 169.523 91.9119 169.84H92.3992L90.775 139.571L83.3041 138.938L86.8771 131.014L90.775 139.73L98.0836 140.205L103.118 131.806L106.204 140.205H98.246L92.5616 169.999C94.0233 167.939 96.9467 149.714 114.325 130.855C106.854 131.648 91.2623 132.757 79.8934 129.429ZM131.378 108.669C125.369 110.57 117.086 112.472 106.367 112.472C102.631 112.472 99.3829 112.314 96.6219 112.155H96.4595C93.6985 113.106 88.5013 114.691 82.6544 109.62C81.68 109.303 81.0303 108.986 80.5431 108.669L77.7821 110.57C82.1672 112.472 91.0999 114.849 106.204 114.849C116.761 114.849 125.206 113.106 131.378 111.046V108.669ZM106.042 107.559C103.118 109.303 100.357 110.729 98.5708 111.521C101.819 111.68 117.248 111.838 131.378 107.401V103.439C126.831 104.865 119.36 106.925 106.042 107.559ZM125.369 31.174C126.343 31.9664 127.155 32.9172 128.13 33.8681C128.292 33.0757 128.779 31.3325 131.378 30.5401V29.9062C129.429 30.2232 127.48 30.5401 125.369 31.174ZM129.592 34.819C129.429 34.819 129.104 34.819 128.779 34.819C129.429 35.4529 129.916 36.2452 130.566 37.0376C130.891 36.7207 131.053 36.4037 131.378 36.2452V34.3435C130.891 34.6605 130.241 34.819 129.592 34.819ZM130.728 95.1982C129.754 95.8321 126.668 97.4169 117.248 98.3677C114.487 101.537 111.077 104.231 107.828 106.292C110.589 106.133 122.933 105.341 131.378 102.171V95.9906C131.216 95.8321 130.891 95.5152 130.728 95.1982ZM120.821 57.0056C120.172 54.7869 119.36 52.7267 118.71 50.825C111.401 30.5401 101.332 28.7969 90.9374 28.7969C83.7913 28.7969 78.1069 34.9774 75.1835 39.0978C77.9445 36.4037 82.6544 33.2342 88.3389 33.2342C99.058 33.2342 102.469 37.3546 102.469 37.3546C107.341 41.3165 109.29 47.9724 111.564 56.0547C114.162 64.7709 117.248 75.7057 125.206 86.799C125.531 87.2744 125.856 87.5914 126.018 88.0668C127.805 90.444 129.591 92.8211 131.378 94.8813V81.4108C125.856 72.3777 123.095 64.2954 120.821 57.0056Z" fill="#C72F2A"/>
<path d="M35.5383 80.7311C33.2306 78.8849 29.846 75.0388 28.4614 73.5003C28.1537 73.1926 27.5383 73.1926 27.2306 73.5003C25.846 75.0388 22.6152 78.8849 20.1537 80.7311C14.7691 85.3465 12.6152 87.5003 12.6152 91.5003C12.6152 96.1157 16.6152 99.9618 21.5383 99.9618C23.3845 99.9618 25.5383 99.3465 26.9229 98.2695L27.0768 98.1157C26.7691 100.423 25.9998 103.808 23.6922 106.116C23.3845 106.423 23.5383 106.731 23.9998 106.731H27.9998H31.9998C32.3075 106.731 32.4614 106.27 32.3075 106.116C29.9998 103.808 29.2306 100.577 28.9229 98.1157L29.0768 98.2695C30.3075 99.3465 32.6152 99.9618 34.4614 99.9618C39.3845 99.9618 43.3845 96.1157 43.3845 91.5003C43.3845 87.5003 41.2306 85.3465 35.5383 80.7311Z" fill="#24242E"/>
<path d="M41.3166 68.514L37.6906 72.362L29.8466 64.666C29.2546 64.666 28.8846 64.74 27.9966 64.74C24.5186 64.74 18.3026 64.518 16.0086 58.228C15.4166 56.6 14.8246 54.528 14.8246 42.17C14.8246 37.878 14.8246 26.186 15.1946 22.56C15.4906 19.748 16.5266 10.942 28.4406 10.942C30.4386 10.942 35.1746 11.164 38.0606 14.864C40.4286 17.972 40.8726 21.894 40.8726 31.81C40.8726 36.546 40.6506 44.538 40.5026 48.46C40.2806 54.232 39.9846 60.226 34.8786 63.112L41.3166 68.514ZM21.4846 37.138C21.4846 47.942 21.4846 51.494 21.7066 53.418C21.8546 55.12 22.2986 59.412 27.7746 59.412C33.4726 59.412 33.7686 54.454 33.9166 51.05C34.0646 47.35 34.2126 40.838 34.2126 37.138C34.2126 34.4 34.2866 29.812 34.1386 24.854C34.0646 22.042 33.9166 16.418 28.1446 16.418C22.2986 16.418 21.9286 21.302 21.6326 24.78C21.4846 26.704 21.4846 28.628 21.4846 37.138Z" fill="#24242E"/>
<defs>
<linearGradient id="paint0_linear_324_104575" x1="92" y1="2" x2="92" y2="182" gradientUnits="userSpaceOnUse">
<stop stop-color="white" stop-opacity="0.85"/>
<stop offset="1" stop-color="white" stop-opacity="0.15"/>
</linearGradient>
</defs>
</svg>
