<svg width="182" height="184" viewBox="0 0 182 184" fill="none" xmlns="http://www.w3.org/2000/svg">
<rect x="1" y="1" width="134" height="182" rx="13" stroke="black" stroke-opacity="0.25" stroke-width="2"/>
<rect x="2.5" y="2.5" width="179" height="179" rx="11.5" fill="#E9E9E9" stroke="url(#paint0_linear_324_104545)"/>
<rect x="30.5" y="30.5" width="75" height="123" rx="1.5" fill="#D7D5D7" stroke="#CDCFD6"/>
<path d="M106.037 119.213C103.96 119.213 101.883 119.559 99.8065 120.252C103.614 116.79 106.037 112.29 106.037 107.098C106.037 97.0592 97.3834 89.0977 86.9988 89.0977C76.6142 89.0977 67.9603 97.4054 67.9603 107.098C67.9603 112.29 70.3834 117.136 74.1911 120.252C72.1142 119.559 70.3834 119.213 67.9603 119.213C57.5757 119.213 48.9219 127.175 48.9219 137.213C48.9219 147.252 57.5757 155.213 67.9603 155.213C75.5757 155.213 81.8065 151.059 84.9219 145.175C84.5757 150.367 82.845 158.328 77.6526 163.521C76.9603 164.213 77.3065 164.905 78.345 164.905H86.9988H95.6526C96.345 164.905 96.6911 163.867 96.345 163.521C91.1526 158.328 89.4219 150.713 89.0757 145.175C92.1911 151.059 98.768 155.213 106.037 155.213C116.422 155.213 125.076 147.252 125.076 137.213C125.076 127.521 116.422 119.213 106.037 119.213Z" fill="#24242E"/>
<path d="M36.4608 86.537C35.5377 86.537 34.6146 86.6908 33.6916 86.9985C35.3839 85.46 36.4608 83.46 36.4608 81.1523C36.4608 76.6908 32.6146 73.1523 27.9992 73.1523C23.3839 73.1523 19.5377 76.8447 19.5377 81.1523C19.5377 83.46 20.6146 85.6139 22.3069 86.9985C21.3839 86.6908 20.6146 86.537 19.5377 86.537C14.9223 86.537 11.0762 90.0754 11.0762 94.537C11.0762 98.9985 14.9223 102.537 19.5377 102.537C22.9223 102.537 25.6916 100.691 27.0762 98.0754C26.9223 100.383 26.1531 103.922 23.8454 106.229C23.5377 106.537 23.6916 106.845 24.1531 106.845H27.9992H31.8454C32.1531 106.845 32.3069 106.383 32.1531 106.229C29.8454 103.922 29.0762 100.537 28.9223 98.0754C30.3069 100.691 33.23 102.537 36.4608 102.537C41.0762 102.537 44.9223 98.9985 44.9223 94.537C44.9223 90.2293 41.0762 86.537 36.4608 86.537Z" fill="#24242E"/>
<path d="M30.8101 11.756L42.3541 64H35.5461L33.6961 53.936H21.5601L19.7841 64H13.0501L24.2981 11.756H30.8101ZM22.6701 48.312H32.5861L27.4801 21.45L22.6701 48.312Z" fill="#24242E"/>
<defs>
<linearGradient id="paint0_linear_324_104545" x1="92" y1="2" x2="92" y2="182" gradientUnits="userSpaceOnUse">
<stop stop-color="white" stop-opacity="0.85"/>
<stop offset="1" stop-color="white" stop-opacity="0.15"/>
</linearGradient>
</defs>
</svg>
