<svg width="184" height="184" viewBox="0 0 184 184" fill="none" xmlns="http://www.w3.org/2000/svg">
<rect x="1" y="1" width="182" height="182" rx="13" stroke="black" stroke-opacity="0.25" stroke-width="2"/>
<rect x="2.5" y="2.5" width="179" height="179" rx="11.5" fill="#E9E9E9" stroke="url(#paint0_linear_324_104523)"/>
<rect x="41.0449" y="30.5" width="101.909" height="123" rx="1.5" fill="#D7D5D7" stroke="#CDCFD6"/>
<g clip-path="url(#clip0_324_104523)">
<path d="M131.378 31.3706V165.204C131.378 166.476 130.669 167.513 129.756 168.413C128.844 169.312 127.803 169.999 126.513 169.999H19.486C18.1957 169.999 17.1551 169.312 16.2427 168.413C15.3304 167.513 14.6211 166.476 14.6211 165.204V133.967C36.1724 118.765 53.3779 116.089 53.54 116.057C55.2844 106.84 59.1696 97.3693 64.8914 89.8792C70.6907 82.0386 74.2682 73.8015 77.0535 64.4946C77.4589 62.896 77.6211 60.4444 77.8643 58.9417C78.5778 54.5136 81.0103 46.4093 81.1076 46.2494V46.1695C81.967 44.6828 95.167 22.8342 119.832 31.0189C120.053 31.0847 120.27 31.1648 120.481 31.2587H120.562C122.524 28.4772 123.545 27.1344 123.805 27.2143C124.064 27.2942 124.097 27.9976 124.697 28.3013C126.983 29.4363 129.205 30.4274 131.378 31.3706Z" fill="#E7E7E7"/>
<path d="M79.7743 124.613L81.9147 121.731L82.3039 125.059C82.3244 125.458 82.1913 125.85 81.931 126.157C81.7624 126.36 81.5372 126.511 81.2829 126.592C81.0285 126.672 80.7559 126.678 80.4982 126.608C80.2406 126.539 80.0089 126.398 79.8314 126.202C79.654 126.006 79.5384 125.764 79.4987 125.504C79.4868 125.185 79.5838 124.871 79.7743 124.613ZM131.372 121.222V119.28L130.95 118.945L131.372 121.222ZM86.1632 126.221C86.0021 126.495 85.9393 126.815 85.9848 127.128C86.0194 127.362 86.1242 127.581 86.2859 127.757C86.4476 127.933 86.6588 128.058 86.8928 128.115C87.1805 128.246 87.5082 128.265 87.8094 128.167C88.1105 128.07 88.3626 127.863 88.5144 127.59C88.7368 127.256 88.8236 126.853 88.7576 126.459L88.0117 123.18L86.1632 126.221ZM73.1909 123.355C73.1749 123.585 73.2318 123.814 73.3537 124.011C73.4757 124.207 73.6567 124.362 73.8719 124.454C74.1289 124.607 74.4333 124.666 74.7305 124.62C75.0277 124.573 75.2983 124.424 75.4935 124.199C75.7798 123.912 75.9524 123.533 75.9799 123.132V119.805L73.5476 122.48C73.353 122.733 73.2401 123.038 73.2233 123.355H73.1909ZM92.6493 127.287C92.5455 127.587 92.5455 127.911 92.6493 128.211C92.7138 128.442 92.8443 128.65 93.0252 128.811C93.2062 128.971 93.4302 129.078 93.6709 129.118C93.9576 129.22 94.273 129.211 94.5531 129.092C94.8332 128.974 95.057 128.756 95.1789 128.481C95.3665 128.128 95.4128 127.72 95.3086 127.335L94.2222 124.151L92.6493 127.287ZM99.2489 127.813C99.156 128.114 99.156 128.435 99.2489 128.736C99.3385 128.962 99.4906 129.16 99.6883 129.306C99.886 129.453 100.121 129.542 100.368 129.564C100.66 129.643 100.973 129.608 101.239 129.465C101.505 129.323 101.705 129.084 101.795 128.8C101.94 128.431 101.94 128.022 101.795 127.653L100.368 124.469L99.2489 127.813ZM61.4834 117.544C61.4203 117.761 61.4287 117.992 61.5074 118.203C61.586 118.415 61.7309 118.597 61.9212 118.723C62.1487 118.909 62.4356 119.011 62.732 119.011C63.0284 119.011 63.3153 118.909 63.5428 118.723C63.8904 118.492 64.1433 118.148 64.2562 117.751L64.9211 114.488L61.9699 116.717C61.7252 116.937 61.5554 117.226 61.4834 117.544ZM56.1555 169.999H59.3175C59.266 169.614 59.082 169.213 58.7833 168.957C58.4846 168.702 58.1012 168.563 57.7052 168.567C57.3234 168.582 56.9594 168.73 56.6776 168.983C56.3958 169.237 56.2048 169.627 56.1555 169.999ZM98.1787 100.765C94.66 101.211 94.5465 99.1733 94.5465 99.1733C93.5249 100.495 94.9519 101.482 96.3626 101.498C96.7042 101.543 97.0518 101.499 97.3707 101.37C97.6895 101.242 97.9682 101.033 98.1787 100.765ZM122.492 169.999H126.497C127.787 169.999 129.034 169.448 129.947 168.553C130.859 167.657 131.372 166.442 131.372 165.176V156.627L122.492 169.999ZM105.93 127.781C105.859 128.092 105.899 128.418 106.043 128.704C106.156 128.926 106.329 129.112 106.544 129.241C106.759 129.371 107.007 129.438 107.259 129.436C107.552 129.493 107.855 129.435 108.103 129.274C108.352 129.113 108.527 128.863 108.589 128.577C108.698 128.194 108.658 127.785 108.475 127.431L106.724 124.438L105.93 127.781ZM67.2074 120.697C67.165 120.92 67.1954 121.151 67.2943 121.357C67.3933 121.563 67.5558 121.733 67.7588 121.843C68.0011 122.012 68.2966 122.092 68.5931 122.069C68.8897 122.046 69.1684 121.92 69.3803 121.715C69.7055 121.463 69.9202 121.099 69.9803 120.697L70.3046 117.385L67.5966 119.853C67.3846 120.09 67.2491 120.384 67.2074 120.697ZM63.9644 156.929C64.2823 156.968 64.6047 156.913 64.8908 156.771C65.1769 156.63 65.414 156.409 65.5721 156.135C65.7303 155.862 65.8023 155.548 65.7793 155.235C65.7562 154.921 65.639 154.621 65.4425 154.373C65.246 154.124 64.979 153.939 64.6751 153.839C64.3713 153.74 64.0442 153.731 63.7352 153.814C63.4262 153.896 63.149 154.067 62.9387 154.304C62.7285 154.541 62.5945 154.835 62.5536 155.146C62.4975 155.557 62.6066 155.973 62.858 156.306C63.1093 156.639 63.4829 156.863 63.8995 156.929H63.9644ZM95.6978 103.36C95.4383 103.503 95.5843 103.965 95.5843 103.965C95.5843 103.965 95.5843 103.806 97.4653 103.249C98.6584 102.928 99.9267 103.013 101.065 103.488C101.065 103.36 100.741 103.042 100.741 103.042C99.9385 102.683 99.0584 102.524 98.1786 102.58C97.2988 102.635 96.4466 102.903 95.6978 103.36ZM112.578 127.239C112.545 127.556 112.619 127.875 112.789 128.147C112.926 128.358 113.119 128.529 113.348 128.641C113.576 128.754 113.831 128.803 114.086 128.784C114.231 128.801 114.378 128.791 114.519 128.752C114.659 128.714 114.791 128.648 114.906 128.559C115.02 128.47 115.116 128.36 115.187 128.234C115.258 128.109 115.302 127.971 115.318 127.829C115.384 127.435 115.297 127.032 115.075 126.698L113.016 123.865L112.578 127.239ZM108.281 78.6849C106.781 78.2611 105.385 77.5406 104.178 76.5676C104.213 77.0581 104.4 77.5265 104.712 77.9104C105.025 78.2943 105.45 78.5756 105.93 78.7167C107.34 79.2261 110.016 78.9555 108.232 78.653L108.281 78.6849ZM98.2922 86.7083C99.2651 86.581 100.222 88.0774 100.611 88.3003C100.856 88.489 101.139 88.6247 101.441 88.6984C101.743 88.7722 102.057 88.7823 102.364 88.7282C102.67 88.6741 102.961 88.5569 103.218 88.3843C103.475 88.2118 103.692 87.9879 103.854 87.7272C105.297 86.1352 102.93 84.3841 103.27 84.7821C103.611 85.1801 104 87.966 101.973 87.8705C99.9462 87.7749 99.8165 86.1193 98.6003 85.976C98.1657 85.9771 97.7369 86.0751 97.3465 86.2627C96.956 86.4502 96.6141 86.7223 96.3464 87.0586C96.0383 87.3929 96.6869 87.3929 96.6869 87.3929C97.1413 87.0139 97.7 86.7757 98.2922 86.7083ZM106.027 66.0129C109.4 64.7553 115.416 67.2865 116.032 67.7004C116.648 68.1143 116.94 67.7004 116.94 67.7004C115.599 66.3085 113.983 65.2006 112.189 64.445C110.396 63.6893 108.465 63.3019 106.513 63.3066C102.33 63.6091 101.357 65.6468 101.357 65.9492C101.357 66.2517 102.638 67.3342 106.027 66.0607V66.0129ZM104.908 97.852C103.87 97.852 103.822 97.5814 101.308 95.7825C98.7949 93.9836 97.3193 95.4641 97.0112 95.671C96.6215 95.3552 96.1619 95.1331 95.6692 95.0225C95.1765 94.912 94.6644 94.916 94.1735 95.0343C92.7952 95.5755 92.6493 97.8998 91.6439 97.5814C90.6386 97.263 90.671 96.8491 90.671 96.8491C90.6012 97.0603 90.5868 97.2853 90.629 97.5035C90.6712 97.7216 90.7688 97.9258 90.9126 98.0971C91.0564 98.2684 91.2419 98.4014 91.4519 98.4838C91.6619 98.5662 91.8897 98.5953 92.1142 98.5684C93.9952 98.5684 95.3573 97.2471 96.8166 98.1545C96.8166 98.1545 99.6868 96.9764 101.211 97.7087C102.735 98.441 104.243 98.9982 105.313 98.2659C106.384 97.5336 105.07 97.8202 104.908 97.8202V97.852ZM119.032 126.125C119.045 126.448 119.158 126.759 119.356 127.017C119.512 127.214 119.719 127.367 119.956 127.459C120.193 127.552 120.45 127.58 120.702 127.542C120.847 127.551 120.992 127.53 121.129 127.481C121.266 127.432 121.39 127.356 121.495 127.257C121.6 127.158 121.684 127.039 121.74 126.908C121.796 126.776 121.823 126.634 121.821 126.491C121.85 126.089 121.722 125.691 121.464 125.377L119.129 122.734L119.032 126.125ZM125.404 124.533C125.447 124.853 125.589 125.153 125.81 125.393C125.986 125.58 126.209 125.718 126.456 125.794C126.704 125.869 126.968 125.879 127.22 125.823C127.365 125.817 127.506 125.782 127.636 125.72C127.767 125.659 127.882 125.571 127.977 125.464C128.071 125.356 128.142 125.231 128.185 125.096C128.227 124.96 128.241 124.817 128.226 124.676C128.199 124.278 128.032 123.902 127.755 123.61L125.129 121.142L125.404 124.533ZM116.518 74.7209C114.084 76.4965 111.049 77.2884 108.038 76.9337C104.486 76.5039 103.935 75.2144 102.378 74.8483C102.151 74.8483 102.006 74.7528 102.038 74.7209C102.384 74.1711 102.698 73.6024 102.978 73.0175C103.127 72.7423 103.211 72.4375 103.222 72.126V70.7092C103.222 70.7092 101.779 69.8655 101.697 69.563C101.616 69.2605 102.833 69.8336 103.319 69.7381H103.465C103.741 69.1968 104.795 67.971 108.816 68.3531C110.199 68.404 111.556 68.7442 112.795 69.3509C114.033 69.9576 115.126 70.8169 115.999 71.8713C114.305 70.7647 112.452 69.9117 110.502 69.3401C107.811 68.6874 105.816 69.2287 105.638 69.7381C105.459 70.2475 105.8 70.343 105.8 70.359C105.991 70.4089 106.186 70.4409 106.384 70.4545C108.123 70.5354 109.839 70.8735 111.475 71.4574C113.437 72.2281 115.344 73.1269 117.183 74.1478C118.075 74.6732 116.518 74.7209 116.518 74.7209ZM105.654 75.5965C105.307 75.2886 105.025 74.9163 104.824 74.501C104.624 74.0858 104.509 73.6357 104.486 73.1767C104.418 73.1304 104.339 73.1001 104.256 73.088C104.174 73.0759 104.09 73.0824 104.01 73.1069C103.93 73.1314 103.857 73.1734 103.797 73.2296C103.736 73.2858 103.689 73.3548 103.66 73.4314C103.571 73.6624 103.571 73.9169 103.66 74.1478C104.204 74.7728 104.886 75.2681 105.654 75.5965ZM108.038 75.9945C108.839 75.9903 109.606 75.6748 110.171 75.1169C110.736 74.5591 111.054 73.8043 111.054 73.0175C111.05 72.698 110.995 72.3811 110.892 72.0783C110.326 71.9463 109.751 71.8506 109.173 71.7917C109.358 71.9506 109.508 72.1462 109.611 72.3657C109.714 72.5851 109.77 72.8235 109.773 73.0653C109.773 73.517 109.59 73.9503 109.265 74.2698C108.939 74.5892 108.498 74.7687 108.038 74.7687C107.577 74.7687 107.136 74.5892 106.811 74.2698C106.485 73.9503 106.303 73.517 106.303 73.0653C106.302 72.7725 106.379 72.4845 106.527 72.2303C106.675 71.976 106.888 71.7644 107.146 71.6166C103.757 71.4096 105.216 71.9828 105.216 71.9828C105.079 72.328 105.008 72.6948 105.005 73.0653C105.018 73.8465 105.343 74.5915 105.911 75.1395C106.478 75.6875 107.242 75.9946 108.038 75.9945ZM115.48 74.0205C114.234 73.2503 112.887 72.6505 111.475 72.2375C111.54 72.4925 111.573 72.7546 111.573 73.0175C111.581 73.6871 111.39 74.3445 111.025 74.9097C110.659 75.475 110.134 75.9238 109.513 76.2014C111.594 76.09 113.628 75.5475 115.48 74.6095C115.708 74.2274 115.529 74.0523 115.48 74.0205ZM123.815 27.217C124.075 27.3125 127.058 28.8089 131.372 30.7034V116.557C130.775 116.382 130.132 116.433 129.572 116.701C129.171 116.886 128.843 117.195 128.638 117.58C128.433 117.965 128.363 118.405 128.437 118.834L128.923 121.397L126.507 119.168C126.17 118.87 125.754 118.669 125.307 118.591C124.86 118.512 124.399 118.558 123.977 118.723C123.555 118.865 123.193 119.141 122.947 119.506C122.7 119.872 122.584 120.307 122.615 120.744L122.826 123.355L120.686 120.935C120.376 120.609 119.98 120.373 119.542 120.255C119.104 120.137 118.641 120.141 118.205 120.267C117.763 120.369 117.366 120.608 117.074 120.95C116.782 121.291 116.609 121.716 116.583 122.161V124.804L114.702 122.209C114.426 121.857 114.054 121.589 113.629 121.437C113.204 121.285 112.744 121.254 112.302 121.349C111.864 121.429 111.462 121.641 111.152 121.954C110.841 122.268 110.637 122.668 110.567 123.1L110.292 125.727L108.67 122.989C108.433 122.611 108.089 122.31 107.68 122.12C107.271 121.931 106.815 121.862 106.367 121.922C105.921 121.963 105.498 122.138 105.156 122.423C104.813 122.707 104.568 123.088 104.454 123.514L103.805 126.109L102.508 123.26C102.312 122.864 102.001 122.534 101.614 122.31C101.228 122.086 100.783 121.979 100.335 122.002C99.8848 122.007 99.4462 122.145 99.0762 122.398C98.7062 122.65 98.4219 123.006 98.2598 123.419L97.3193 125.918L96.3302 122.973C96.1706 122.559 95.89 122.201 95.5236 121.943C95.1572 121.685 94.7213 121.54 94.2708 121.524C93.82 121.498 93.3712 121.601 92.9794 121.822C92.5876 122.043 92.27 122.371 92.0655 122.766L90.9143 125.234L90.2332 122.225C90.1178 121.802 89.8747 121.424 89.5361 121.14C89.1974 120.856 88.779 120.679 88.336 120.633C87.8873 120.568 87.4291 120.633 87.0173 120.819C86.6056 121.006 86.258 121.306 86.0172 121.684L84.6065 124.04L84.347 121.031C84.2816 120.598 84.0813 120.196 83.7735 119.879C83.4657 119.563 83.0656 119.348 82.6282 119.264C82.1855 119.162 81.7222 119.187 81.2937 119.337C80.8653 119.486 80.4898 119.754 80.2121 120.108L78.5906 122.336V119.296C78.5677 118.848 78.3971 118.419 78.1047 118.075C77.8122 117.73 77.4137 117.488 76.9691 117.385C76.5365 117.25 76.0738 117.238 75.6347 117.351C75.1956 117.464 74.798 117.696 74.4881 118.022L72.5909 120.108L72.8828 117.083C72.9121 116.648 72.7987 116.216 72.5594 115.849C72.3202 115.482 71.9675 115.201 71.5531 115.045C71.1305 114.875 70.6676 114.825 70.2173 114.901C69.7671 114.977 69.3477 115.176 69.0073 115.475L66.9156 117.385L67.5317 114.424C67.6081 113.995 67.5402 113.554 67.3384 113.166C67.1366 112.778 66.8117 112.466 66.4129 112.275C66.0058 112.072 65.5491 111.983 65.0939 112.02C64.6386 112.056 64.2026 112.216 63.8346 112.482L60.4943 115.013C59.8774 115.512 59.4305 116.184 59.2133 116.94C59.0147 117.606 59.0548 118.32 59.3268 118.961C59.5529 119.503 59.9155 119.98 60.3808 120.346C60.9892 120.863 61.7498 121.176 62.5519 121.239C63.354 121.302 64.1556 121.112 64.84 120.697C64.8098 121.251 64.939 121.803 65.2129 122.289C65.4893 122.81 65.8967 123.254 66.3967 123.578C67.0463 124.044 67.8299 124.295 68.6344 124.295C69.4388 124.295 70.2224 124.044 70.8721 123.578C70.9084 124.145 71.0927 124.693 71.4072 125.17C71.7537 125.657 72.2084 126.059 72.7369 126.348C73.4205 126.726 74.2064 126.887 74.9871 126.811C75.7678 126.734 76.5052 126.422 77.0988 125.918C77.1955 126.509 77.4596 127.06 77.8609 127.51C78.2452 127.966 78.7342 128.326 79.2879 128.561C80.0094 128.914 80.8275 129.031 81.6216 128.893C82.4157 128.756 83.1438 128.371 83.6984 127.797C83.8426 128.358 84.1397 128.87 84.5578 129.277C84.9927 129.696 85.5197 130.012 86.0983 130.201C86.8415 130.492 87.6606 130.541 88.4344 130.34C89.2082 130.14 89.8957 129.7 90.3954 129.086C90.6009 129.631 90.9541 130.11 91.4169 130.471C91.8838 130.865 92.4397 131.143 93.0385 131.283C93.8029 131.509 94.6211 131.487 95.3718 131.22C96.1224 130.953 96.7656 130.456 97.2058 129.803C97.4696 130.327 97.866 130.777 98.3571 131.108C98.8411 131.442 99.3952 131.665 99.9786 131.761C100.232 131.783 100.487 131.783 100.741 131.761C101.408 131.774 102.065 131.604 102.638 131.269C103.212 130.934 103.678 130.448 103.984 129.866C104.311 130.366 104.756 130.781 105.281 131.076C105.821 131.369 106.418 131.548 107.032 131.601C107.818 131.708 108.618 131.555 109.305 131.166C109.992 130.777 110.528 130.174 110.827 129.452C111.193 129.931 111.679 130.31 112.237 130.551C112.804 130.797 113.418 130.922 114.037 130.917C114.825 130.966 115.606 130.749 116.252 130.304C116.897 129.858 117.369 129.209 117.588 128.465C118 128.912 118.518 129.251 119.097 129.452C119.685 129.649 120.31 129.719 120.929 129.659C121.704 129.636 122.449 129.354 123.039 128.859C123.628 128.364 124.028 127.686 124.172 126.937C124.638 127.339 125.193 127.628 125.793 127.781C126.402 127.917 127.034 127.917 127.642 127.781C128.421 127.721 129.152 127.387 129.7 126.84C130.249 126.293 130.577 125.57 130.626 124.804C130.851 124.958 131.128 125.105 131.378 125.215V138.722C121.385 142.039 110.868 143.744 100.319 143.748C78.3776 143.652 57.1734 135.963 40.4359 122.034L37.7279 123.228C54.8744 138.193 77.0527 146.403 99.9948 146.279C110.645 146.329 121.236 144.717 131.372 141.503V153.57L120.204 169.999H103.422L118.853 146.773H116.924L101.102 169.999H97.5347L83.8606 146.773H81.931L95.1601 169.999H78.9448L61.4023 140.246L58.9863 139.434L76.4177 169.999H60.5591L61.7591 166.449C60.4306 166.665 59.0829 166.745 57.7377 166.688C56.3594 166.513 55.6297 166.927 54.8189 169.172C54.7216 169.474 54.6568 169.745 54.5919 169.999H42.9331C46.4729 159.22 51.3239 148.898 57.3809 139.259C56.7972 139.084 56.2134 138.861 55.6621 138.638C49.5148 148.487 44.5728 159.013 40.9386 169.999H26.1502C26.3524 169.219 26.4559 168.417 26.4583 167.611C26.4619 166.976 26.4022 166.341 26.2799 165.717C25.5953 166.134 24.8444 166.435 24.0584 166.609C24.0831 166.916 24.0831 167.225 24.0584 167.532C24.0557 168.343 23.9023 169.228 23.6472 169.999H19.4794C18.1892 169.999 16.9582 169.417 16.0459 168.521C15.1336 167.625 14.6211 166.411 14.6211 165.144V159.572C15.4326 159.486 16.2107 159.208 16.8886 158.761C17.5665 158.315 18.1238 157.714 18.5128 157.009C18.5412 156.957 18.5554 156.899 18.5538 156.841C18.5522 156.782 18.5349 156.725 18.5037 156.675C18.4725 156.625 18.4284 156.584 18.376 156.556C18.3235 156.528 18.2644 156.514 18.2047 156.516C17.7669 156.516 17.0047 156.516 15.7562 156.516C15.3664 156.517 14.9802 156.441 14.6211 156.293L14.6211 151.676C14.9802 151.527 15.3664 151.451 15.7562 151.453C17.0047 151.453 17.7669 151.453 18.2047 151.453C18.2644 151.455 18.3235 151.441 18.376 151.413C18.4284 151.385 18.4725 151.344 18.5037 151.294C18.5349 151.244 18.5522 151.186 18.5538 151.128C18.5554 151.069 18.5412 151.011 18.5128 150.96C18.0997 150.289 17.5327 149.722 16.857 149.305C16.1813 148.888 15.4157 148.631 14.6211 148.556V133.958C36.4145 118.659 52.7433 115.364 52.7433 115.364C52.7433 115.364 54.2189 103.424 64.0941 90.0196C69.9102 82.2333 74.3 73.5116 77.0663 64.2458C77.4444 62.5395 77.6561 60.8018 77.6988 59.0561C78.0801 54.6065 79.1746 50.2439 80.9418 46.1294C81.104 45.5404 95.4383 21.9635 120.767 30.4009C121.869 29 123.426 27.0896 123.815 27.217ZM62.051 158.521C62.9196 159.21 63.6744 160.026 64.2887 160.941L66.7696 155.863L64.5319 151.915C63.2022 151.58 62.4239 151.915 61.2888 154.016C60.024 156.5 60.8024 157.646 62.051 158.521ZM58.9863 159.206C58.1805 160.685 57.5495 162.25 57.1053 163.87C57.1053 163.87 60.1213 164.857 60.9645 162.788C62.0834 160.05 58.9863 159.206 58.9863 159.206ZM31.258 139.625C31.2514 139.287 31.3144 138.95 31.4433 138.636C31.5722 138.323 31.7642 138.037 32.008 137.798C32.2517 137.559 32.5421 137.37 32.8619 137.244C33.1816 137.117 33.524 137.055 33.8687 137.062C35.1335 137.062 35.8794 137.062 36.3172 137.062C36.3764 137.067 36.4359 137.056 36.4891 137.03C36.5424 137.004 36.5873 136.964 36.6191 136.915C36.6509 136.866 36.6683 136.809 36.6694 136.75C36.6705 136.692 36.6552 136.635 36.6253 136.584C36.1991 135.797 35.5643 135.138 34.788 134.675C34.0117 134.213 33.1227 133.965 32.2147 133.958C28.7447 133.958 28.1933 138.065 28.1933 139.529C28.1933 140.994 28.7447 145.101 32.2147 145.101C33.121 145.095 34.0089 144.85 34.7851 144.39C35.5612 143.931 36.1969 143.275 36.6253 142.49C36.6552 142.44 36.6705 142.383 36.6694 142.324C36.6683 142.266 36.6509 142.209 36.6191 142.16C36.5873 142.11 36.5424 142.071 36.4891 142.045C36.4359 142.019 36.3764 142.008 36.3172 142.013C35.8794 142.013 35.1335 142.013 33.8687 142.013C33.2016 142.03 32.5542 141.79 32.0659 141.343C31.5777 140.896 31.2875 140.279 31.258 139.625ZM30.6094 154.462C30.6073 154.798 30.5376 155.13 30.4042 155.439C30.2708 155.748 30.0765 156.029 29.8323 156.264C29.5882 156.499 29.2991 156.685 28.9816 156.81C28.6641 156.935 28.3246 156.997 27.9825 156.993C26.7339 156.993 25.988 156.993 25.534 156.993C25.4748 156.988 25.4154 156.999 25.3621 157.025C25.3089 157.051 25.2639 157.091 25.2321 157.14C25.2003 157.189 25.1829 157.246 25.1818 157.304C25.1807 157.363 25.196 157.42 25.2259 157.471C25.6562 158.258 26.2941 158.917 27.0729 159.379C27.8517 159.841 28.7427 160.089 29.6527 160.097C33.1228 160.097 33.6579 155.99 33.6579 154.526C33.6579 153.061 33.1228 148.954 29.6527 148.954C28.7444 148.96 27.8545 149.206 27.0758 149.665C26.2972 150.124 25.6583 150.78 25.2259 151.565C25.196 151.615 25.1807 151.672 25.1818 151.731C25.1829 151.789 25.2003 151.846 25.2321 151.895C25.2639 151.945 25.3089 151.984 25.3621 152.01C25.4154 152.036 25.4748 152.047 25.534 152.042C25.988 152.042 26.7339 152.042 27.9825 152.042C28.6555 152.029 29.3069 152.275 29.7978 152.727C30.2886 153.179 30.5799 153.802 30.6094 154.462ZM16.0156 143.684C16.5963 143.133 17.294 142.714 18.0587 142.459H18.156C18.1318 142.125 18.1318 141.79 18.156 141.456C18.156 139.345 19.0102 137.32 20.5307 135.827C22.0512 134.334 24.1134 133.496 26.2637 133.496C27.2725 133.485 28.2741 133.664 29.2149 134.021C30.0126 133.332 31.0389 132.953 32.1012 132.955C30.5355 131.928 28.716 131.338 26.8359 131.245C24.9557 131.152 23.085 131.561 21.4223 132.427C19.7597 133.294 18.367 134.587 17.3923 136.168C16.4175 137.749 15.897 139.56 15.8859 141.408C15.8627 142.171 15.9225 142.934 16.0643 143.684H16.0156ZM19.0154 150.976C19.0668 151.005 19.1253 151.02 19.1848 151.019C19.2442 151.018 19.3021 151.001 19.3523 150.969C19.4025 150.938 19.443 150.894 19.4694 150.842C19.4958 150.79 19.507 150.731 19.5019 150.673C19.5019 150.243 19.5019 149.511 19.5019 148.269C19.4954 147.934 19.5574 147.6 19.6843 147.288C19.8111 146.977 20.0003 146.693 20.2406 146.454C20.4808 146.215 20.7674 146.026 21.0833 145.897C21.3993 145.769 21.7382 145.704 22.0801 145.706C22.4158 145.704 22.7486 145.767 23.0594 145.892C23.3701 146.016 23.6527 146.2 23.8908 146.433C24.1289 146.665 24.3179 146.941 24.4468 147.245C24.5758 147.55 24.6422 147.876 24.6422 148.206C24.6422 149.447 24.6422 150.18 24.6422 150.609C24.6371 150.668 24.6483 150.726 24.6747 150.778C24.7011 150.83 24.7416 150.875 24.7918 150.906C24.842 150.937 24.8999 150.954 24.9593 150.955C25.0187 150.956 25.0773 150.941 25.1286 150.912C25.9165 150.49 26.5753 149.869 27.0371 149.113C27.4989 148.358 27.7469 147.495 27.7555 146.614C27.7555 143.207 23.572 142.681 22.0639 142.681C20.5559 142.681 16.3886 143.207 16.3886 146.614C16.3903 147.51 16.6402 148.39 17.1114 149.158C17.5826 149.926 18.2576 150.555 19.0641 150.976H19.0154ZM27.3015 161.912C27.2989 161.022 27.0502 160.149 26.5819 159.386C26.1135 158.623 25.4431 158 24.6422 157.582C24.5897 157.554 24.5306 157.54 24.4709 157.542C24.4111 157.543 24.3529 157.56 24.302 157.591C24.251 157.622 24.2092 157.665 24.1807 157.716C24.1522 157.768 24.138 157.826 24.1395 157.885C24.1395 158.314 24.1395 159.047 24.1395 160.288C24.1527 160.948 23.9019 161.585 23.4409 162.065C22.98 162.544 22.3458 162.827 21.6748 162.852C21.3336 162.854 20.9954 162.789 20.6803 162.66C20.3652 162.531 20.0797 162.342 19.8407 162.103C19.6017 161.864 19.4141 161.58 19.2891 161.268C19.164 160.957 19.104 160.623 19.1127 160.288C19.1127 159.047 19.1127 158.314 19.1127 157.885C19.1143 157.826 19.1001 157.768 19.0715 157.716C19.043 157.665 19.0012 157.622 18.9503 157.591C18.8993 157.56 18.8411 157.543 18.7814 157.542C18.7217 157.54 18.6626 157.554 18.6101 157.582C17.8182 158.006 17.1576 158.633 16.6981 159.395C16.2386 160.157 15.9972 161.027 15.9994 161.912C15.9994 165.319 20.1667 165.844 21.6748 165.844C23.1828 165.844 27.3501 165.319 27.3501 161.912H27.3015ZM45.2681 153.188C45.2646 152.423 45.1776 151.659 45.0086 150.912C44.4016 151.489 43.67 151.924 42.8682 152.185C42.8924 152.519 42.8924 152.854 42.8682 153.188C42.8682 155.299 42.014 157.324 40.4935 158.817C38.973 160.31 36.9108 161.148 34.7605 161.148C33.7431 161.146 32.7357 160.951 31.7931 160.575C31.5572 160.712 31.3072 160.824 31.0472 160.909C30.2963 161.261 29.4791 161.456 28.6474 161.482C30.2039 162.593 32.0431 163.259 33.9613 163.407C35.8795 163.554 37.802 163.178 39.5159 162.32C41.2298 161.461 42.6682 160.153 43.672 158.542C44.6758 156.93 45.2057 155.077 45.2032 153.188H45.2681ZM45.4302 147.441C45.4242 146.552 45.174 145.68 44.7061 144.918C44.2381 144.156 43.5696 143.532 42.7709 143.111C42.7184 143.083 42.6593 143.069 42.5996 143.071C42.5399 143.073 42.4816 143.09 42.4307 143.12C42.3798 143.151 42.338 143.194 42.3094 143.246C42.2809 143.297 42.2667 143.355 42.2682 143.414C42.2682 143.844 42.2682 144.576 42.2682 145.818C42.2769 146.152 42.217 146.486 42.0919 146.797C41.9669 147.109 41.7793 147.393 41.5403 147.632C41.3013 147.871 41.0158 148.061 40.7007 148.189C40.3856 148.318 40.0474 148.383 39.7062 148.381C39.3643 148.383 39.0253 148.318 38.7094 148.189C38.3935 148.061 38.1069 147.872 37.8666 147.633C37.6264 147.394 37.4372 147.11 37.3103 146.799C37.1835 146.487 37.1215 146.153 37.128 145.818C37.128 144.576 37.128 143.844 37.128 143.414C37.1295 143.355 37.1153 143.297 37.0868 143.246C37.0583 143.194 37.0164 143.151 36.9655 143.12C36.9146 143.09 36.8563 143.073 36.7966 143.071C36.7369 143.069 36.6778 143.083 36.6253 143.111C35.8478 143.546 35.2022 144.177 34.7548 144.938C34.3074 145.699 34.0743 146.563 34.0795 147.441C34.0795 150.848 38.2468 151.389 39.7549 151.389C41.2629 151.389 45.4302 150.848 45.4302 147.441ZM47.7328 134.435C46.8297 134.445 45.946 134.694 45.1753 135.157C44.4046 135.619 43.7755 136.277 43.3547 137.062C43.3262 137.113 43.3121 137.171 43.3136 137.23C43.3152 137.289 43.3325 137.346 43.3637 137.396C43.3949 137.446 43.439 137.487 43.4915 137.515C43.544 137.543 43.603 137.557 43.6628 137.555C44.1006 137.555 44.8465 137.555 46.0951 137.555C46.7623 137.555 47.4038 137.808 47.8846 138.263C48.3654 138.717 48.6481 139.336 48.6733 139.991C48.6712 140.327 48.6014 140.659 48.4681 140.968C48.3347 141.278 48.1404 141.558 47.8962 141.793C47.6521 142.028 47.363 142.214 47.0455 142.339C46.728 142.464 46.3885 142.526 46.0464 142.522C44.7978 142.522 44.0519 142.522 43.6141 142.522C43.5544 142.521 43.4953 142.535 43.4428 142.563C43.3904 142.591 43.3463 142.632 43.3151 142.682C43.2839 142.732 43.2666 142.789 43.265 142.848C43.2634 142.906 43.2776 142.964 43.306 143.016C43.7317 143.802 44.3667 144.46 45.1435 144.92C45.9202 145.38 46.8096 145.624 47.7166 145.627C51.1867 145.627 51.7218 141.535 51.7218 140.055C51.7218 138.574 51.2353 134.435 47.7652 134.435H47.7328ZM34.4849 132.175C34.4874 133.065 34.7361 133.938 35.2045 134.701C35.6728 135.463 36.3432 136.087 37.1442 136.505C37.1955 136.534 37.2541 136.549 37.3135 136.548C37.3729 136.547 37.4309 136.53 37.4811 136.499C37.5313 136.467 37.5718 136.423 37.5982 136.371C37.6245 136.319 37.6358 136.26 37.6307 136.202C37.6307 135.772 37.6307 135.04 37.6307 133.814C37.6242 133.479 37.6856 133.146 37.8113 132.835C37.9369 132.523 38.1244 132.239 38.3627 131.999C38.601 131.759 38.8855 131.568 39.1997 131.437C39.5138 131.306 39.8513 131.237 40.1927 131.235C40.5404 131.237 40.8841 131.308 41.2035 131.443C41.5229 131.577 41.8114 131.774 42.0519 132.021C42.2924 132.267 42.48 132.558 42.6035 132.878C42.727 133.197 42.784 133.537 42.7709 133.878C42.7709 135.104 42.7709 135.836 42.7709 136.266C42.7658 136.324 42.777 136.382 42.8034 136.435C42.8298 136.487 42.8703 136.531 42.9205 136.562C42.9707 136.594 43.0287 136.611 43.0881 136.612C43.1475 136.613 43.206 136.598 43.2574 136.568C44.0602 136.151 44.733 135.528 45.2041 134.766C45.6752 134.003 45.927 133.13 45.9329 132.238C45.9329 128.831 41.7494 128.306 40.2575 128.306C38.7657 128.306 34.5173 128.768 34.5173 132.175H34.4849ZM118.172 54.4394C116.122 53.2793 113.875 52.4919 111.54 52.1152C107.934 51.5434 104.516 50.1414 101.568 48.0238C99.9186 46.7241 98.621 45.0455 97.7896 43.1365C98.2447 46.2362 99.8359 49.0664 102.265 51.0963C105.077 53.117 108.341 54.4488 111.783 54.9807C114.303 55.367 116.728 56.2091 118.934 57.4641C118.707 56.509 118.399 55.4742 118.172 54.4394ZM101.243 38.5199C101.561 38.8517 101.902 39.1603 102.265 39.4432C105.077 41.468 108.34 42.8051 111.783 43.3435L113.145 43.646C111.089 41.2487 108.295 39.5726 105.184 38.8701C103.881 38.6598 102.564 38.5481 101.243 38.5358V38.5199ZM98.73 38.5199C99.4654 40.3865 100.684 42.0326 102.265 43.2957C105.077 45.3205 108.34 46.6576 111.783 47.196C113.244 47.4948 114.685 47.8829 116.097 48.3581C115.983 48.1194 115.853 47.8806 115.74 47.6895C115.32 46.7658 114.815 45.8813 114.232 45.0469C113.372 44.8081 112.464 44.6011 111.54 44.3942C107.931 43.8229 104.512 42.4149 101.568 40.2869C100.897 39.7727 100.287 39.1852 99.7516 38.5358L98.73 38.5199ZM97.7896 39.1726C98.233 42.276 99.8265 45.11 102.265 47.1323C105.07 49.1798 108.334 50.5389 111.783 51.0963C113.844 51.476 115.849 52.107 117.751 52.9748C117.426 51.8445 117.07 50.762 116.713 49.7909C115.045 49.0972 113.313 48.564 111.54 48.199C107.931 47.6277 104.512 46.2197 101.568 44.0917C99.9161 42.8074 98.6174 41.1384 97.7896 39.2362V39.1726ZM83.3903 46.9572C86.4404 46.3984 89.3161 45.1502 91.7899 43.3116C93.1938 42.169 94.3047 40.7185 95.0329 39.077C94.4816 39.1885 93.9141 39.3158 93.4114 39.475C93.1172 39.7714 92.803 40.0479 92.4709 40.3029C90.5373 41.7634 88.3351 42.8444 85.9848 43.4868C84.9287 44.4933 84.0518 45.6663 83.3903 46.9572ZM81.7688 51.1918L82.3363 51.0645C85.7792 50.5237 89.0418 49.1868 91.8547 47.1642C94.285 45.1352 95.8765 42.3045 96.3302 39.2044C95.4816 41.1476 94.1489 42.8502 92.4547 44.1554C89.5822 46.2413 86.2488 47.6322 82.7255 48.2149C82.3179 49.1838 81.9766 50.1783 81.7039 51.1918H81.7688ZM80.9094 55.2513L82.3363 54.917C85.7498 54.3915 88.9888 53.0824 91.7899 51.0963C94.2131 49.0617 95.8031 46.2338 96.2653 43.1365C95.4172 45.0447 94.1095 46.7219 92.4547 48.0238C89.5118 50.1406 86.0998 51.5427 82.4985 52.1152L81.3796 52.3858C81.104 53.341 80.9905 54.2802 80.8445 55.2513H80.9094ZM80.8283 72.3489C82.2954 71.7572 83.8864 71.5224 85.4659 71.6644C88.1711 71.9947 90.7015 73.1533 92.6979 74.9756C92.8885 74.1828 93.0347 73.3803 93.1358 72.5718C93.1358 71.6484 92.9412 66.204 87.3631 65.9333C86.137 65.7814 84.8919 65.8889 83.7116 66.2486C82.5313 66.6083 81.4432 67.2119 80.5202 68.0188C80.5364 69.4356 80.6013 70.9321 80.7635 72.3489H80.8283ZM82.3363 73.0653C82.1865 73.4072 82.1093 73.7756 82.1093 74.1478C82.1116 74.671 82.2536 75.1844 82.521 75.6369C82.7885 76.0894 83.1721 76.4652 83.6336 76.7268C84.2668 76.9958 84.9554 77.1157 85.6443 77.077C86.3487 76.9601 86.988 76.6015 87.4483 76.0651C87.9086 75.5286 88.16 74.8492 88.1576 74.1478C88.1606 73.8278 88.1057 73.5098 87.9955 73.2086C87.4022 73.0273 86.7948 72.8942 86.1794 72.8106C86.3987 72.9599 86.5771 73.1601 86.6988 73.3934C86.8204 73.6266 86.8815 73.8858 86.8766 74.1478C86.8772 74.4401 86.8011 74.7277 86.6557 74.9828C86.5104 75.2379 86.3006 75.452 86.0465 75.6045C85.7924 75.7569 85.5027 75.8426 85.2051 75.8533C84.9076 75.8641 84.6122 75.7994 84.3475 75.6656C84.0827 75.5318 83.8575 75.3333 83.6935 75.0894C83.5295 74.8454 83.4322 74.5641 83.411 74.2725C83.3897 73.9809 83.4453 73.6888 83.5723 73.4244C83.6994 73.1601 83.8936 72.9322 84.1362 72.7628C83.5089 72.8261 82.8862 72.9271 82.2715 73.0653H82.3363ZM87.4604 76.7745C88.9138 76.4512 90.2556 75.7596 91.3521 74.7687C90.5072 74.1811 89.5782 73.7197 88.5955 73.3996C88.6473 73.6458 88.6744 73.8964 88.6765 74.1478C88.6696 74.6506 88.5514 75.1459 88.3303 75.5995C88.1091 76.053 87.7901 76.454 87.3955 76.7745H87.4604ZM81.104 74.7687L81.6877 75.2781C81.5564 74.9153 81.4906 74.5328 81.4931 74.1478C81.5008 73.8194 81.5498 73.4933 81.6391 73.1767L80.8607 73.3678C80.958 73.8613 81.104 74.3229 81.104 74.7687ZM129.426 91.7548C123.987 83.0213 120.788 73.1229 120.102 62.9086C120.102 62.9086 119.794 61.3167 119.324 59.1516C117.056 57.4428 114.373 56.3453 111.54 55.9677C107.935 55.3825 104.519 53.9758 101.568 51.8604C99.3215 50.0433 97.7297 47.5653 97.0274 44.7922C96.3175 47.5743 94.7142 50.0582 92.4547 51.8764C89.5088 53.991 86.0987 55.3977 82.4985 55.9836C81.8661 56.1269 81.2661 56.2542 80.6662 56.4134C80.3057 59.5105 80.2459 62.6341 80.4878 65.7423L84.3633 64.1503C86.06 63.8223 87.8096 63.8658 89.4873 64.2777C94.5303 65.4876 94.1411 71.6803 93.7844 73.1449C93.2488 75.2415 92.8426 77.368 92.5682 79.5127C92.2601 81.9325 90.8494 84.9413 91.3359 86.0238C91.8223 87.1063 94.5789 88.2525 95.26 88.6824C95.941 89.1122 96.0059 90.5449 96.0059 90.5449C95.6978 89.5261 94.0925 89.1599 91.8223 88.0137C91.1318 87.6197 90.6242 86.9779 90.4064 86.2235C90.1886 85.4692 90.2776 84.6613 90.6548 83.9702C91.1197 82.2884 91.4878 80.5823 91.7575 78.86C91.8547 78.1755 92.098 77.268 92.3412 76.3925C92.4385 76.0104 92.098 75.4214 91.9196 75.4851C89.792 76.6231 87.465 77.3576 85.0605 77.6501C83.8087 77.6624 82.5711 77.39 81.4445 76.8541C81.6391 78.5734 81.7526 80.7544 81.8661 83.222C82.0931 88.3321 82.3688 94.1428 83.666 97.3744C85.7416 102.548 90.5251 111.384 99.2003 112.45C107.421 113.421 122.648 106.051 129.426 91.7548ZM90.671 71.2982C89.9761 70.5807 89.1299 70.0209 88.1916 69.6579C87.2533 69.2949 86.2456 69.1376 85.2389 69.1968C81.4607 69.1968 81.0067 71.2823 81.4931 71.1549C82.6979 70.6237 83.987 70.3006 85.3037 70.1998C88.3198 70.1998 89.6657 71.4574 90.671 71.2982Z" fill="#24242E"/>
<path d="M39.9831 141.565C39.6264 141.565 39.2778 141.461 38.9814 141.266C38.6851 141.071 38.4544 140.794 38.3186 140.471C38.1829 140.147 38.1482 139.791 38.219 139.447C38.2897 139.104 38.4628 138.789 38.7162 138.543C38.9695 138.296 39.2918 138.129 39.642 138.063C39.9922 137.997 40.3546 138.034 40.6832 138.17C41.0119 138.306 41.2918 138.535 41.4877 138.828C41.6835 139.121 41.7863 139.464 41.7831 139.814C41.7831 140.045 41.7364 140.274 41.6458 140.488C41.5551 140.701 41.4223 140.895 41.2549 141.058C41.0876 141.221 40.889 141.349 40.6707 141.437C40.4524 141.524 40.2187 141.567 39.9831 141.565ZM27.8372 155.432C28.1128 155.399 28.3667 155.269 28.5509 155.065C28.7351 154.861 28.8369 154.598 28.8369 154.325C28.8369 154.053 28.7351 153.79 28.5509 153.586C28.3667 153.382 28.1128 153.251 27.8372 153.219H24.8534C24.9833 153.554 25.0492 153.911 25.048 154.27C25.0469 154.668 24.9699 155.062 24.8209 155.432H27.8372ZM41.1669 136.917V133.955C41.186 133.799 41.1712 133.64 41.1233 133.49C41.0754 133.34 40.9956 133.201 40.8891 133.083C40.7826 132.965 40.6518 132.871 40.5054 132.806C40.359 132.741 40.2004 132.708 40.0399 132.708C39.8794 132.708 39.7207 132.741 39.5743 132.806C39.4279 132.871 39.2972 132.965 39.1907 133.083C39.0842 133.201 39.0043 133.34 38.9564 133.49C38.9085 133.64 38.8937 133.799 38.9128 133.955V136.885C39.2542 136.756 39.6173 136.691 39.9831 136.694C40.3884 136.695 40.79 136.77 41.1669 136.917ZM34.0804 138.652C33.921 138.633 33.7594 138.648 33.6063 138.695C33.4531 138.742 33.3118 138.82 33.1917 138.925C33.0716 139.029 32.9755 139.158 32.9097 139.301C32.8439 139.445 32.8098 139.601 32.8098 139.758C32.8098 139.916 32.8439 140.072 32.9097 140.215C32.9755 140.359 33.0716 140.487 33.1917 140.592C33.3118 140.697 33.4531 140.775 33.6063 140.822C33.7594 140.869 33.921 140.884 34.0804 140.865H36.9993C36.8747 140.528 36.8089 140.173 36.8047 139.814C36.8127 139.417 36.8895 139.024 37.0318 138.652H34.0804ZM38.8642 142.712V145.657C38.845 145.813 38.8599 145.972 38.9078 146.122C38.9557 146.273 39.0355 146.411 39.142 146.529C39.2485 146.647 39.3793 146.741 39.5257 146.806C39.672 146.871 39.8307 146.904 39.9912 146.904C40.1517 146.904 40.3104 146.871 40.4568 146.806C40.6031 146.741 40.7339 146.647 40.8404 146.529C40.9469 146.411 41.0267 146.273 41.0746 146.122C41.1225 145.972 41.1374 145.813 41.1182 145.657V142.743C40.7691 142.865 40.4021 142.929 40.0318 142.934C39.616 142.932 39.2041 142.857 38.8155 142.712H38.8642ZM45.9993 140.96C46.1587 140.979 46.3203 140.965 46.4735 140.917C46.6267 140.87 46.7679 140.792 46.888 140.688C47.0081 140.583 47.1042 140.455 47.17 140.311C47.2359 140.167 47.2699 140.011 47.2699 139.854C47.2699 139.696 47.2359 139.541 47.17 139.397C47.1042 139.253 47.0081 139.125 46.888 139.02C46.7679 138.916 46.6267 138.837 46.4735 138.79C46.3203 138.743 46.1587 138.729 45.9993 138.747H42.9669C43.0984 139.088 43.1644 139.45 43.1615 139.814C43.1615 140.207 43.0845 140.596 42.9345 140.96H45.9993ZM86.5399 108.005C87.466 108.274 88.4163 108.456 89.3777 108.547L88.1291 107.098L86.5399 108.005ZM127.68 37.1286C128.476 36.5516 129.084 35.7609 129.432 34.8521C128.325 34.8704 127.247 35.2082 126.334 35.8232C126.821 36.269 127.275 36.7625 127.68 37.1286ZM113.913 147.774C112.075 148.121 110.206 148.286 108.334 148.268L99.7074 160.558L92.0372 148.077L86.621 147.424L99.2209 168.566L113.913 147.774ZM122.507 32.1775L123.27 32.6073C125.183 32.0755 126.591 32.1535 128.572 31.9864C126.513 30.3834 124.161 28.7969 124.08 28.7969C123.999 28.7969 123.237 31.1904 122.507 32.1775ZM116.783 107.942C121.875 106.564 126.776 104.58 131.378 102.035V95.6673C131.021 95.0623 130.68 94.4255 130.324 93.7409C127.06 99.4899 122.411 104.366 116.783 107.942ZM125.118 44.1813C125.118 44.1813 114.302 26.6691 94.6966 34.8202C97.5182 33.7058 112.129 28.9775 121.794 45.1206C123.772 48.4002 127.324 54.6727 131.378 62.0756V55.8667L125.118 44.1813ZM15.6247 153.123C15.3491 153.156 15.0951 153.286 14.9109 153.49C14.7267 153.694 14.625 153.957 14.625 154.23C14.625 154.502 14.7267 154.765 14.9109 154.969C15.0951 155.173 15.3491 155.304 15.6247 155.336H18.8858C18.762 154.994 18.6963 154.633 18.6912 154.27C18.6912 153.877 18.7682 153.488 18.9182 153.123H15.6247ZM131.167 41.6818L131.378 42.0717V41.7215L131.167 41.5385V41.6818ZM21.8696 156.037C22.2256 156.037 22.5736 155.933 22.8696 155.739C23.1656 155.545 23.3963 155.269 23.5326 154.946C23.6688 154.623 23.7045 154.268 23.635 153.925C23.5656 153.582 23.3941 153.267 23.1424 153.02C22.8907 152.773 22.5699 152.605 22.2208 152.536C21.8716 152.468 21.5097 152.503 21.1808 152.637C20.8519 152.771 20.5707 152.997 20.3729 153.288C20.1752 153.578 20.0696 153.92 20.0696 154.27C20.0696 154.738 20.2592 155.188 20.5968 155.519C20.9344 155.851 21.3922 156.037 21.8696 156.037ZM20.7831 148.427V151.388C21.1335 151.273 21.5002 151.214 21.8696 151.213C22.2718 151.199 22.6733 151.258 23.0534 151.388V148.427C23.0534 148.131 22.9338 147.848 22.7209 147.639C22.508 147.43 22.2193 147.312 21.9182 147.312C21.6172 147.312 21.3285 147.43 21.1156 147.639C20.9027 147.848 20.7831 148.131 20.7831 148.427ZM121.551 47.1743C120.011 43.5187 117.445 40.3675 114.153 38.0874C110.86 35.8073 106.975 34.4921 102.951 34.2948C100.453 34.1016 97.9421 34.427 95.5811 35.2499C93.2202 36.0728 91.0623 37.3748 89.248 39.0709C92.6924 37.5239 96.4572 36.7879 100.243 36.9217C107.41 37.1923 112.551 39.1824 116.88 46.0917C118.907 49.2758 125.216 61.5503 131.378 73.7133V65.1005L121.551 47.1743ZM20.702 157.167V160.128C20.6829 160.285 20.6977 160.443 20.7456 160.594C20.7935 160.744 20.8734 160.883 20.9799 161.001C21.0864 161.119 21.2171 161.213 21.3635 161.278C21.5099 161.342 21.6686 161.376 21.8291 161.376C21.9896 161.376 22.1482 161.342 22.2946 161.278C22.441 161.213 22.5717 161.119 22.6783 161.001C22.7848 160.883 22.8646 160.744 22.9125 160.594C22.9604 160.443 22.9752 160.285 22.9561 160.128V157.199C22.6091 157.328 22.2407 157.393 21.8696 157.39C21.4694 157.39 21.073 157.314 20.702 157.167ZM62.0858 149.032C61.6642 148.538 61.2588 148.029 60.8858 147.44C56.9094 154.652 53.4684 162.269 50.6767 169.999H52.6388C55.2238 162.82 58.4098 155.736 62.0858 149.032Z" fill="#F4C900"/>
<path d="M63.0265 110.455C62.0074 110.751 61.0058 111.102 60.0265 111.507C61.3887 107.061 66.3833 98.7594 72.4643 88.7365C75.6466 83.7685 78.216 78.4461 80.1184 72.8815C80.1184 73.1523 80.1184 73.3754 80.1184 73.4392C80.1184 73.9969 80.2968 74.5387 80.4103 75.0326C80.5238 75.5266 80.5238 75.5744 80.5562 75.8931V76.2596C80.5562 76.7855 80.686 77.375 80.7346 77.9965C79.3682 81.6926 77.5725 85.2216 75.3833 88.5134C70.6641 95.4851 66.5314 102.823 63.0265 110.455ZM62.5076 133.943L60.9833 128.828L56.3292 131.011C58.2265 132.047 60.3022 133.099 62.5724 134.087C62.5442 134.042 62.5224 133.994 62.5076 133.943ZM56.3292 129.418L60.6914 127.442C58.9238 126.534 57.3184 125.625 55.8265 124.765L56.3292 129.418ZM70.0319 137.003C72.3508 137.784 74.8968 138.501 77.4589 139.122L74.9941 134.804L70.0319 137.003ZM68.4103 130.916L70.0319 135.425L75.0103 133.21C72.6265 132.493 70.3724 131.617 68.2806 130.868C68.3292 130.82 68.3454 130.852 68.3454 130.868L68.4103 130.916ZM76.0157 133.513L78.5616 137.975L82.5833 135.186H82.713C80.3562 134.708 78.1022 134.177 75.9508 133.593L76.0157 133.513ZM67.34 130.533H67.4697C65.6535 129.8 63.967 129.035 62.3779 128.271L63.7238 132.732L67.34 130.533ZM49.1616 147.679L48.4319 146.564H47.767C47.4487 146.589 47.1287 146.589 46.8103 146.564L48.4319 149.065C48.6751 148.571 48.9346 148.157 49.1616 147.679ZM67.2751 132.222L63.5941 134.358C63.5192 134.373 63.4419 134.373 63.367 134.358C65.1022 135.107 66.9508 135.824 68.8806 136.493L67.2751 132.222ZM78.9184 139.441C80.8481 139.871 82.8589 140.237 84.9508 140.556L82.7292 136.78L78.9184 139.441ZM49.2427 133.067C48.4319 132.573 47.6211 132.095 46.94 131.617C46.9486 131.765 46.9486 131.914 46.94 132.063L47.7508 133.29C48.3795 133.283 49.0031 133.402 49.5833 133.641L49.2427 133.067ZM43.6643 122.152L45.0589 124.255C45.9508 124.908 46.9562 125.641 48.0914 126.406L47.2157 125.099L47.9616 125.641V121.737L45.1076 121.928L44.1995 120.526L48.6751 120.239C48.775 120.233 48.8751 120.247 48.9694 120.28C49.0636 120.313 49.1499 120.365 49.2229 120.432C49.2959 120.499 49.354 120.58 49.3937 120.671C49.4334 120.761 49.4537 120.858 49.4535 120.956V125.163L54.8697 124.048C52.4155 122.553 50.0743 120.886 47.8643 119.06C46.2427 119.666 44.5238 120.303 42.9022 120.956L43.5995 122.024L43.6643 122.152ZM81.367 87.382C81.2697 85.9479 81.2049 84.4819 81.14 83.0956C81.14 82.3148 81.14 81.5021 81.0427 80.8329C79.8089 83.9379 78.2377 86.903 76.3562 89.6766C71.9538 96.2036 68.02 103.024 64.5833 110.089C66.3022 109.707 67.8265 109.468 69.0589 109.324C70.7529 104.779 72.9787 100.442 75.6914 96.4011C77.7824 93.5202 79.6784 90.5074 81.367 87.382ZM52.8751 141.002L53.6373 139.728L52.7454 138.373C52.8346 138.9 52.878 139.433 52.8751 139.967C52.8751 140.269 52.8751 140.588 52.8751 140.939V141.002ZM54.7076 137.959L55.2103 137.178L54.4481 136.031L53.2157 135.409L51.9184 134.66L54.4157 138.437C54.5292 138.246 54.6265 138.086 54.7076 137.959ZM14.6211 137.114L15.2049 138.023C15.3739 137.478 15.5797 136.946 15.8211 136.429L15.1887 135.489L14.6211 135.935V137.114ZM14.7346 142.197C14.7346 141.927 14.7346 141.64 14.7346 141.353C14.7347 140.857 14.7672 140.362 14.8319 139.871L14.6211 139.6V142.022L14.7346 142.197ZM14.9616 147.44H15.367C15.3162 147.15 15.2891 146.857 15.286 146.564C15.2837 146.248 15.3163 145.932 15.3833 145.623L14.6211 144.508V146.93L14.9616 147.44ZM17.313 134.198L16.34 134.804L16.5833 135.17C16.8027 134.83 17.0465 134.505 17.313 134.198ZM83.5724 135.409L86.1995 139.791L90.9022 136.604C90.9996 136.539 91.1103 136.496 91.2265 136.477C88.5346 136.206 85.9562 135.824 83.4751 135.346C83.5107 135.362 83.5435 135.383 83.5724 135.409ZM131.378 132.493V131.314C121.333 134.961 110.708 136.823 99.9995 136.812C97.1833 136.814 94.3689 136.676 91.567 136.397C91.703 136.448 91.8212 136.537 91.9076 136.652L95.0049 140.7L98.7995 137.114C98.9359 136.983 99.1193 136.909 99.3103 136.909C99.5013 136.909 99.6847 136.983 99.8211 137.114L103.697 140.795L108.156 136.652C108.293 136.521 108.476 136.447 108.667 136.447C108.858 136.447 109.041 136.521 109.178 136.652L112.421 139.839L115.843 135.824C115.965 135.685 116.135 135.595 116.321 135.572C116.506 135.548 116.694 135.593 116.848 135.696L120.902 138.596L123.659 134.039C123.707 133.955 123.772 133.882 123.85 133.824C123.928 133.766 124.018 133.726 124.113 133.704C124.29 133.633 124.488 133.633 124.664 133.704L129.529 136.557L131.378 132.493ZM14.6211 164.092V165.096C14.6222 166.044 14.8748 166.964 15.4129 167.751C16.0856 168.762 17.0282 169.463 18.3268 169.841L14.6211 164.092ZM54.4806 125.609L49.3238 126.661C50.9454 127.777 52.7941 128.988 54.9184 130.215L54.4806 125.609ZM129.432 149.352C129.01 148.725 128.358 148.281 127.612 148.115C126.865 147.949 126.082 148.072 125.427 148.46C125.35 147.737 125.001 147.069 124.449 146.586C123.898 146.102 123.182 145.839 122.443 145.847C119.443 145.607 118.697 148.205 118.875 150.436C118.875 151.408 120.643 157.224 120.643 157.224C120.643 157.224 126.724 155.312 127.567 154.834C129.545 153.718 131.378 151.647 129.432 149.352ZM80.1022 166.705C80.9454 167.183 87.0265 169.095 87.0265 169.095C87.0265 169.095 88.7292 163.279 88.8103 162.323C88.9724 160.076 88.2265 157.543 85.2265 157.718C84.4883 157.714 83.7746 157.978 83.2235 158.461C82.6724 158.944 82.3229 159.61 82.2427 160.331C81.5848 159.951 80.8044 159.832 80.0603 159.998C79.3162 160.164 78.6643 160.602 78.2373 161.223C76.3562 163.518 78.1238 165.59 80.1022 166.705ZM87.1887 140.843C89.2968 141.098 91.4697 141.305 93.6751 141.449L91.1616 138.086L87.1887 140.843ZM81.0751 150.404C81.2373 148.173 80.5076 145.623 77.5076 145.815C76.7673 145.803 76.0497 146.065 75.497 146.549C74.9443 147.033 74.5969 147.704 74.5238 148.428C73.8679 148.04 73.085 147.917 72.3386 148.083C71.5922 148.25 70.9401 148.693 70.5184 149.32C68.6211 151.615 70.4049 153.686 72.367 154.802C73.2265 155.28 79.3076 157.192 79.3076 157.192C79.3076 157.192 81.0103 151.344 81.1076 150.436L81.0751 150.404ZM113.508 140.763C115.778 140.492 117.935 140.142 119.994 139.728L116.508 137.226L113.508 140.763ZM96.1562 141.544C97.4049 141.544 98.6697 141.544 99.9508 141.544H102.383L99.3022 138.596L96.1562 141.544ZM122.102 139.297C124.34 138.819 126.481 138.262 128.589 137.704L124.551 135.409L122.102 139.297ZM105.043 141.528C107.313 141.417 109.502 141.257 111.626 141.034L108.675 138.182L105.043 141.528ZM47.0535 151.822C47.2968 151.36 47.5238 150.898 47.7508 150.436L46.4535 148.476C46.3503 148.925 46.1752 149.355 45.9346 149.751L46.0643 150.308L47.0535 151.822ZM34.3076 164.458C33.7189 164.438 33.1329 164.369 32.5562 164.251L36.3356 169.996H37.9572L34.3076 164.458ZM69.9833 161.909C68.7335 164.483 67.6656 167.269 66.821 169.998H75.0102L69.9833 161.909ZM27.2267 169.996H28.1578L27.4806 168.872C27.4291 169.243 27.357 169.644 27.2267 169.996ZM42.4481 162.084L42.2535 161.781C41.9061 162.061 41.5434 162.321 41.167 162.562L41.8643 163.614L42.4481 162.084ZM30.4643 163.582C29.7474 163.29 29.0627 162.927 28.4211 162.498V162.801L33.1494 169.996H34.771L30.4643 163.582ZM22.0643 141.56H22.4211L20.1022 138.054C19.8306 138.525 19.6234 139.029 19.486 139.552L20.8643 141.624C21.2628 141.581 21.6634 141.56 22.0643 141.56ZM20.2968 169.996H21.9184L19.486 166.673C18.7555 166.532 18.0505 166.285 17.3941 165.94L20.2968 169.996ZM27.74 164.347C27.5974 164.554 27.4403 164.751 27.2697 164.936L27.367 165.526C27.4274 165.821 27.4707 166.119 27.4968 166.418L29.8491 169.996H31.4708L27.74 164.347ZM40.2103 168.49L37.3238 164.219C36.8415 164.318 36.3544 164.393 35.8643 164.442L39.514 169.996H39.7248L40.2103 168.49ZM117.708 160.331C117.624 159.609 117.271 158.942 116.717 158.46C116.163 157.977 115.448 157.713 114.708 157.718C111.724 157.479 110.978 160.076 111.14 162.323C111.14 163.279 112.908 169.095 112.908 169.095C112.908 169.095 119.005 167.183 119.848 166.705C121.826 165.59 123.594 163.518 121.713 161.223C121.286 160.602 120.634 160.164 119.89 159.998C119.146 159.832 118.366 159.951 117.708 160.331ZM130.681 40.6455C130.917 40.6889 131.15 40.7475 131.378 40.8208V40.4703C131.131 40.5136 130.887 40.5722 130.648 40.6455H130.681ZM124.762 34.3513C125.135 34.6382 125.491 34.9409 125.832 35.2277C127.009 34.3952 128.437 33.9744 129.886 34.0326C129.938 34.0252 129.991 34.0316 130.039 34.0512C130.088 34.0708 130.13 34.103 130.162 34.1442C130.181 34.1895 130.191 34.2383 130.191 34.2876C130.191 34.3369 130.181 34.3857 130.162 34.431C129.798 35.6117 129.094 36.6634 128.135 37.4586L128.864 38.2872C129.754 37.466 130.594 36.5933 131.378 35.6739V33.5865C129.152 33.6239 126.936 33.8802 124.762 34.3513ZM129.886 42.1753C129.886 42.1753 120.837 27.078 102.189 31.048C102.189 31.048 119.135 29.8418 127.227 44.0237C128.378 46.0155 129.789 48.597 131.378 51.5289V44.9957L129.886 42.1753ZM131.378 136.094L130.989 136.955L131.378 136.827V136.094ZM80.8968 109.005L70.3724 111.173C71.2643 111.81 82.1941 119.315 102.578 118.63C112.523 118.192 122.295 115.911 131.378 111.906V104.926C122.799 109.452 102.367 117.881 80.8968 108.942V109.005ZM121.437 60.8667C121.437 60.8667 121.437 74.3634 131.378 91.3338V79.0482L121.437 60.8667ZM21.6751 166.896H21.3346L22.8103 169.143C22.9459 168.622 23.0167 168.087 23.0211 167.55C23.0211 167.374 23.0211 167.183 23.0211 166.992L22.9238 166.848C22.5088 166.888 22.092 166.904 21.6751 166.896ZM26.2968 142.532L21.9346 135.951C21.5703 136.221 21.2384 136.531 20.9454 136.875L24.1887 141.799C24.924 141.941 25.6342 142.188 26.2968 142.532ZM29.2157 127.314L28.0157 127.952L29.7508 130.629C30.5382 130.872 31.2945 131.204 32.0049 131.617L29.2157 127.314ZM37.5184 159.518L34.7292 155.28C34.6646 155.917 34.5398 156.546 34.3562 157.16L36.1724 159.901C36.6327 159.817 37.0835 159.689 37.5184 159.518ZM39.7887 158.037L35.3616 151.344C34.6981 150.998 34.1354 150.492 33.7268 149.873C33.3181 149.254 33.0771 148.543 33.0265 147.806L31.9724 146.213C31.2995 146.194 30.6398 146.025 30.0427 145.719L31.6643 148.205C32.4585 148.667 33.1336 149.302 33.6371 150.062C34.1405 150.822 34.4587 151.686 34.567 152.587L38.7184 158.961C39.1072 158.69 39.4659 158.381 39.7887 158.037ZM32.9454 159.742C33.4721 159.899 34.017 159.99 34.567 160.012L33.6914 158.674C33.4905 159.06 33.2398 159.419 32.9454 159.742ZM27.0914 139.552C27.0914 139.345 27.0914 139.122 27.0914 138.883L24.3508 134.74C23.9061 134.849 23.4761 135.01 23.0697 135.218L27.286 141.592C27.1491 140.921 27.0839 140.237 27.0914 139.552ZM29.6535 147.759H29.7508L28.8427 146.388C28.8507 146.452 28.8507 146.516 28.8427 146.58C28.8431 146.997 28.7996 147.414 28.713 147.822C29.0241 147.775 29.3387 147.754 29.6535 147.759ZM35.3292 124.255L37.4373 127.442C37.8992 127.306 38.3708 127.205 38.8481 127.139L36.5454 123.665L35.3292 124.255ZM32.8643 125.45L35.0049 128.637C35.3443 128.351 35.7205 128.11 36.1238 127.92L34.0806 124.86L32.8643 125.45ZM30.4319 126.677L33.4806 131.282C33.5572 130.716 33.7562 130.173 34.0643 129.689L31.6319 126.024L30.4319 126.677ZM41.313 165.255L40.0157 163.295C39.6112 163.496 39.1942 163.672 38.767 163.821L40.7616 166.848C40.94 166.307 41.1346 165.781 41.313 165.255ZM28.0806 135.409L27.5941 134.613C27.1612 134.53 26.7215 134.487 26.2806 134.485H25.8589L27.4806 136.907C27.6263 136.388 27.8274 135.886 28.0806 135.409ZM26.2319 130.007C26.775 130.008 27.3172 130.051 27.8535 130.135L26.8481 128.541L25.6643 129.179L26.1833 129.96L26.2319 130.007ZM37.5833 152.173L40.7454 156.953C41.0258 156.521 41.2595 156.062 41.4427 155.583L39.3508 152.396C38.746 152.366 38.1443 152.291 37.5508 152.173H37.5833ZM41.913 153.145C41.9354 152.853 41.9354 152.56 41.913 152.268L41.0211 152.396L41.9454 153.814C41.8643 153.559 41.8806 153.352 41.8806 153.145H41.913Z" fill="#C72F2A"/>
</g>
<path d="M34.3076 75.5977C31.9999 75.5977 29.846 76.5207 28.1537 78.0592C27.9999 78.213 27.846 78.213 27.6922 78.0592C26.1537 76.5207 23.9999 75.5977 21.5383 75.5977C16.6152 75.5977 12.6152 79.5977 12.6152 84.6746C12.6152 89.1361 14.7691 91.4438 20.4614 96.213C22.7691 98.213 26.1537 102.367 27.3845 104.059C27.6922 104.521 28.3076 104.521 28.6152 104.059C29.9999 102.367 33.2306 98.213 35.5383 96.213C41.0768 91.29 43.3845 89.1361 43.3845 84.6746C43.3845 79.5977 39.3845 75.5977 34.3076 75.5977Z" fill="#BF3030"/>
<path d="M41.3166 68.514L37.6906 72.362L29.8466 64.666C29.2546 64.666 28.8846 64.74 27.9966 64.74C24.5186 64.74 18.3026 64.518 16.0086 58.228C15.4166 56.6 14.8246 54.528 14.8246 42.17C14.8246 37.878 14.8246 26.186 15.1946 22.56C15.4906 19.748 16.5266 10.942 28.4406 10.942C30.4386 10.942 35.1746 11.164 38.0606 14.864C40.4286 17.972 40.8726 21.894 40.8726 31.81C40.8726 36.546 40.6506 44.538 40.5026 48.46C40.2806 54.232 39.9846 60.226 34.8786 63.112L41.3166 68.514ZM21.4846 37.138C21.4846 47.942 21.4846 51.494 21.7066 53.418C21.8546 55.12 22.2986 59.412 27.7746 59.412C33.4726 59.412 33.7686 54.454 33.9166 51.05C34.0646 47.35 34.2126 40.838 34.2126 37.138C34.2126 34.4 34.2866 29.812 34.1386 24.854C34.0646 22.042 33.9166 16.418 28.1446 16.418C22.2986 16.418 21.9286 21.302 21.6326 24.78C21.4846 26.704 21.4846 28.628 21.4846 37.138Z" fill="#BF3030"/>
<defs>
<linearGradient id="paint0_linear_324_104523" x1="92" y1="2" x2="92" y2="182" gradientUnits="userSpaceOnUse">
<stop stop-color="white" stop-opacity="0.85"/>
<stop offset="1" stop-color="white" stop-opacity="0.15"/>
</linearGradient>
<clipPath id="clip0_324_104523">
<rect width="116.757" height="165" fill="white" transform="translate(14.6211 5)"/>
</clipPath>
</defs>
</svg>
