<svg width="184" height="184" viewBox="0 0 184 184" fill="none" xmlns="http://www.w3.org/2000/svg">
<rect x="1" y="1" width="182" height="182" rx="13" stroke="black" stroke-opacity="0.25" stroke-width="2"/>
<rect x="2.5" y="2.5" width="179" height="179" rx="11.5" fill="#E9E9E9" stroke="url(#paint0_linear_324_104472)"/>
<rect x="41.0449" y="30.5" width="101.909" height="123" rx="1.5" fill="#D7D5D7" stroke="#CDCFD6"/>
<path d="M83.6154 90.8257C74.2692 103.287 63.5385 115.057 51.7692 125.787C51.0769 126.48 51.0769 127.518 51.7692 128.21C63.5385 138.941 74.2692 150.71 83.6154 163.172C84.3077 164.21 85.6923 164.21 86.3846 163.172C95.7308 150.71 106.462 138.941 118.231 128.21C118.923 127.518 118.923 126.48 118.231 125.787C106.462 115.057 95.7308 103.287 86.3846 90.8257C85.6923 89.7873 84.3077 89.7873 83.6154 90.8257Z" fill="#BF3030"/>
<path d="M25.3846 73.9243C21.2308 79.4627 16.4615 84.6935 11.2308 89.4627C10.9231 89.7704 10.9231 90.232 11.2308 90.5397C16.4615 95.3089 21.2308 100.54 25.3846 106.078C25.6923 106.54 26.3077 106.54 26.6154 106.078C30.7692 100.54 35.5385 95.3089 40.7692 90.5397C41.0769 90.232 41.0769 89.7704 40.7692 89.4627C35.5385 84.6935 30.7692 79.4627 26.6154 73.9243C26.3077 73.4627 25.6923 73.4627 25.3846 73.9243Z" fill="#BF3030"/>
<path d="M20.4484 11.756V64H13.8624V23.004H5.20437V18.046C9.49637 18.046 14.8984 18.046 14.8984 11.756H20.4484ZM46.9016 37.804C46.9016 40.764 46.7536 52.234 46.5316 54.676C46.2356 57.044 45.4216 64.666 35.2836 64.666C30.8436 64.666 25.6636 63.26 24.1836 57.784C23.5916 55.638 23.2956 53.418 23.2956 37.73C23.2956 21.45 23.5176 20.192 24.4056 17.602C26.5516 11.534 32.9896 11.09 35.0616 11.09C37.5776 11.09 43.3496 11.756 45.6436 17.454C46.8276 20.34 46.9016 21.524 46.9016 37.804ZM40.3156 38.1V29.368C40.3156 20.784 40.3156 16.936 35.1356 16.936C30.0296 16.936 29.8816 21.302 29.8076 24.262C29.7336 28.258 29.7336 29.368 29.7336 40.69C29.7336 43.354 29.7336 49.274 29.8076 51.494C29.8816 55.12 30.0296 58.894 34.9876 58.894C40.0196 58.894 40.1676 55.416 40.2416 51.198C40.3156 49.718 40.3156 46.388 40.3156 38.1Z" fill="#BF3030"/>
<defs>
<linearGradient id="paint0_linear_324_104472" x1="92" y1="2" x2="92" y2="182" gradientUnits="userSpaceOnUse">
<stop stop-color="white" stop-opacity="0.85"/>
<stop offset="1" stop-color="white" stop-opacity="0.15"/>
</linearGradient>
</defs>
</svg>
