<svg width="184" height="184" viewBox="0 0 184 184" fill="none" xmlns="http://www.w3.org/2000/svg">
<rect x="1" y="1" width="182" height="182" rx="13" stroke="black" stroke-opacity="0.25" stroke-width="2"/>
<rect x="2.5" y="2.5" width="179" height="179" rx="11.5" fill="#E9E9E9" stroke="url(#paint0_linear_324_104571)"/>
<rect x="41.0449" y="30.5" width="101.909" height="123" rx="1.5" fill="#D7D5D7" stroke="#CDCFD6"/>
<path d="M103.962 106.144C98.7694 101.99 91.154 93.3362 88.0386 89.8747C87.3463 89.1824 85.9617 89.1824 85.2694 89.8747C82.154 93.3362 74.8848 101.99 69.3463 106.144C57.2309 116.529 52.3848 121.375 52.3848 130.375C52.3848 140.759 61.3848 149.413 72.4617 149.413C76.6155 149.413 81.4617 148.029 84.5771 145.605L84.9232 145.259C84.2309 150.452 82.5001 158.067 77.3078 163.259C76.6155 163.952 76.9617 164.644 78.0001 164.644H87.0001H96.0001C96.6925 164.644 97.0386 163.605 96.6925 163.259C91.5001 158.067 89.7694 150.798 89.0771 145.259L89.4232 145.605C92.1925 148.029 97.3848 149.413 101.539 149.413C112.616 149.413 121.616 140.759 121.616 130.375C121.616 121.375 116.769 116.529 103.962 106.144Z" fill="#24242E"/>
<path d="M35.5383 80.7311C33.2306 78.8849 29.846 75.0388 28.4614 73.5003C28.1537 73.1926 27.5383 73.1926 27.2306 73.5003C25.846 75.0388 22.6152 78.8849 20.1537 80.7311C14.7691 85.3465 12.6152 87.5003 12.6152 91.5003C12.6152 96.1157 16.6152 99.9618 21.5383 99.9618C23.3845 99.9618 25.5383 99.3465 26.9229 98.2695L27.0768 98.1157C26.7691 100.423 25.9998 103.808 23.6922 106.116C23.3845 106.423 23.5383 106.731 23.9998 106.731H27.9998H31.9998C32.3075 106.731 32.4614 106.27 32.3075 106.116C29.9998 103.808 29.2306 100.577 28.9229 98.1157L29.0768 98.2695C30.3075 99.3465 32.6152 99.9618 34.4614 99.9618C39.3845 99.9618 43.3845 96.1157 43.3845 91.5003C43.3845 87.5003 41.2306 85.3465 35.5383 80.7311Z" fill="#24242E"/>
<path d="M22.4484 11.756V64H15.8624V23.004H7.20437V18.046C11.4964 18.046 16.8984 18.046 16.8984 11.756H22.4484ZM48.9016 37.804C48.9016 40.764 48.7536 52.234 48.5316 54.676C48.2356 57.044 47.4216 64.666 37.2836 64.666C32.8436 64.666 27.6636 63.26 26.1836 57.784C25.5916 55.638 25.2956 53.418 25.2956 37.73C25.2956 21.45 25.5176 20.192 26.4056 17.602C28.5516 11.534 34.9896 11.09 37.0616 11.09C39.5776 11.09 45.3496 11.756 47.6436 17.454C48.8276 20.34 48.9016 21.524 48.9016 37.804ZM42.3156 38.1V29.368C42.3156 20.784 42.3156 16.936 37.1356 16.936C32.0296 16.936 31.8816 21.302 31.8076 24.262C31.7336 28.258 31.7336 29.368 31.7336 40.69C31.7336 43.354 31.7336 49.274 31.8076 51.494C31.8816 55.12 32.0296 58.894 36.9876 58.894C42.0196 58.894 42.1676 55.416 42.2416 51.198C42.3156 49.718 42.3156 46.388 42.3156 38.1Z" fill="#24242E"/>
<defs>
<linearGradient id="paint0_linear_324_104571" x1="92" y1="2" x2="92" y2="182" gradientUnits="userSpaceOnUse">
<stop stop-color="white" stop-opacity="0.85"/>
<stop offset="1" stop-color="white" stop-opacity="0.15"/>
</linearGradient>
</defs>
</svg>
