<svg width="184" height="184" viewBox="0 0 184 184" fill="none" xmlns="http://www.w3.org/2000/svg">
<rect x="1" y="1" width="182" height="182" rx="13" stroke="black" stroke-opacity="0.25" stroke-width="2"/>
<rect x="2.5" y="2.5" width="179" height="179" rx="11.5" fill="#E9E9E9" stroke="url(#paint0_linear_324_104561)"/>
<rect x="41.0449" y="30.5" width="101.909" height="123" rx="1.5" fill="#D7D5D7" stroke="#CDCFD6"/>
<path d="M101.962 106.144C96.7694 101.99 89.154 93.3362 86.0386 89.8747C85.3463 89.1824 83.9617 89.1824 83.2694 89.8747C80.154 93.3362 72.8848 101.99 67.3463 106.144C55.2309 116.529 50.3848 121.375 50.3848 130.375C50.3848 140.759 59.3848 149.413 70.4617 149.413C74.6155 149.413 79.4617 148.029 82.5771 145.605L82.9232 145.259C82.2309 150.452 80.5001 158.067 75.3078 163.259C74.6155 163.952 74.9617 164.644 76.0001 164.644H85.0001H94.0001C94.6925 164.644 95.0386 163.605 94.6925 163.259C89.5001 158.067 87.7694 150.798 87.0771 145.259L87.4232 145.605C90.1925 148.029 95.3848 149.413 99.5386 149.413C110.616 149.413 119.616 140.759 119.616 130.375C119.616 121.375 114.769 116.529 101.962 106.144Z" fill="#24242E"/>
<path d="M33.5383 80.7311C31.2306 78.8849 27.846 75.0388 26.4614 73.5003C26.1537 73.1926 25.5383 73.1926 25.2306 73.5003C23.846 75.0388 20.6152 78.8849 18.1537 80.7311C12.7691 85.3465 10.6152 87.5003 10.6152 91.5003C10.6152 96.1157 14.6152 99.9618 19.5383 99.9618C21.3845 99.9618 23.5383 99.3465 24.9229 98.2695L25.0768 98.1157C24.7691 100.423 23.9998 103.808 21.6922 106.116C21.3845 106.423 21.5383 106.731 21.9998 106.731H25.9998H29.9998C30.3075 106.731 30.4614 106.27 30.3075 106.116C27.9998 103.808 27.2306 100.577 26.9229 98.1157L27.0768 98.2695C28.3075 99.3465 30.6152 99.9618 32.4614 99.9618C37.3845 99.9618 41.3845 96.1157 41.3845 91.5003C41.3845 87.5003 39.2306 85.3465 33.5383 80.7311Z" fill="#24242E"/>
<path d="M20.947 26.556H15.027C14.953 21.524 14.953 18.268 16.507 15.456C18.727 11.534 23.463 11.09 25.683 11.09C30.419 11.09 33.009 13.31 34.119 14.864C36.117 17.454 36.413 21.376 36.413 24.78C36.413 31.588 35.673 35.14 30.345 36.176C36.117 37.582 37.227 39.95 37.227 51.494C37.227 55.49 36.635 58.746 33.971 61.484C32.713 62.742 30.345 64.666 25.535 64.666C22.057 64.666 19.467 63.556 18.061 62.668C13.473 59.708 14.065 53.048 14.139 48.386H20.059C19.985 49.792 19.985 51.272 20.059 53.27C20.133 54.898 20.281 58.968 25.165 58.968C30.419 58.968 30.641 54.676 30.641 52.012C30.715 51.05 30.715 48.238 30.715 46.758C30.715 40.986 28.273 39.358 23.981 39.358C23.315 39.358 22.575 39.358 21.983 39.432V33.586C26.497 33.882 30.197 33.586 30.197 26.112C30.197 19.822 29.827 16.788 25.461 16.788C21.095 16.788 20.651 21.006 20.947 26.556Z" fill="#24242E"/>
<defs>
<linearGradient id="paint0_linear_324_104561" x1="92" y1="2" x2="92" y2="182" gradientUnits="userSpaceOnUse">
<stop stop-color="white" stop-opacity="0.85"/>
<stop offset="1" stop-color="white" stop-opacity="0.15"/>
</linearGradient>
</defs>
</svg>
