<svg width="184" height="184" viewBox="0 0 184 184" fill="none" xmlns="http://www.w3.org/2000/svg">
<rect x="1" y="1" width="182" height="182" rx="13" stroke="black" stroke-opacity="0.25" stroke-width="2"/>
<rect x="2.5" y="2.5" width="179" height="179" rx="11.5" fill="#E9E9E9" stroke="url(#paint0_linear_324_104515)"/>
<rect x="41.0449" y="30.5" width="101.909" height="123" rx="1.5" fill="#D7D5D7" stroke="#CDCFD6"/>
<path d="M101.192 94.5898C96.0002 94.5898 91.154 96.6668 87.3463 100.128C87.0002 100.474 86.654 100.474 86.3079 100.128C82.8463 96.6668 78.0002 94.5898 72.4617 94.5898C61.3848 94.5898 52.3848 103.59 52.3848 115.013C52.3848 125.051 57.2309 130.244 70.0386 140.974C75.2309 145.474 82.8463 154.821 85.6156 158.628C86.3079 159.667 87.6925 159.667 88.3848 158.628C91.5002 154.821 98.7694 145.474 103.962 140.974C116.423 129.898 121.616 125.051 121.616 115.013C121.616 103.59 112.616 94.5898 101.192 94.5898Z" fill="#BF3030"/>
<path d="M34.3076 75.5977C31.9999 75.5977 29.846 76.5207 28.1537 78.0592C27.9999 78.213 27.846 78.213 27.6922 78.0592C26.1537 76.5207 23.9999 75.5977 21.5383 75.5977C16.6152 75.5977 12.6152 79.5977 12.6152 84.6746C12.6152 89.1361 14.7691 91.4438 20.4614 96.213C22.7691 98.213 26.1537 102.367 27.3845 104.059C27.6922 104.521 28.3076 104.521 28.6152 104.059C29.9999 102.367 33.2306 98.213 35.5383 96.213C41.0768 91.29 43.3845 89.1361 43.3845 84.6746C43.3845 79.5977 39.3845 75.5977 34.3076 75.5977Z" fill="#BF3030"/>
<path d="M22.4484 11.756V64H15.8624V23.004H7.20437V18.046C11.4964 18.046 16.8984 18.046 16.8984 11.756H22.4484ZM48.9016 37.804C48.9016 40.764 48.7536 52.234 48.5316 54.676C48.2356 57.044 47.4216 64.666 37.2836 64.666C32.8436 64.666 27.6636 63.26 26.1836 57.784C25.5916 55.638 25.2956 53.418 25.2956 37.73C25.2956 21.45 25.5176 20.192 26.4056 17.602C28.5516 11.534 34.9896 11.09 37.0616 11.09C39.5776 11.09 45.3496 11.756 47.6436 17.454C48.8276 20.34 48.9016 21.524 48.9016 37.804ZM42.3156 38.1V29.368C42.3156 20.784 42.3156 16.936 37.1356 16.936C32.0296 16.936 31.8816 21.302 31.8076 24.262C31.7336 28.258 31.7336 29.368 31.7336 40.69C31.7336 43.354 31.7336 49.274 31.8076 51.494C31.8816 55.12 32.0296 58.894 36.9876 58.894C42.0196 58.894 42.1676 55.416 42.2416 51.198C42.3156 49.718 42.3156 46.388 42.3156 38.1Z" fill="#BF3030"/>
<defs>
<linearGradient id="paint0_linear_324_104515" x1="92" y1="2" x2="92" y2="182" gradientUnits="userSpaceOnUse">
<stop stop-color="white" stop-opacity="0.85"/>
<stop offset="1" stop-color="white" stop-opacity="0.15"/>
</linearGradient>
</defs>
</svg>
