<svg width="182" height="184" viewBox="0 0 182 184" fill="none" xmlns="http://www.w3.org/2000/svg">
<rect x="1" y="1" width="134" height="182" rx="13" stroke="black" stroke-opacity="0.25" stroke-width="2"/>
<rect x="2.5" y="2.5" width="179" height="179" rx="11.5" fill="#E9E9E9" stroke="url(#paint0_linear_324_104545)"/>
<rect x="30.5" y="30.5" width="75" height="123" rx="1.5" fill="#D7D5D7" stroke="#CDCFD6"/>
<path d="M104.037 119.213C101.96 119.213 99.8834 119.559 97.8065 120.252C101.614 116.79 104.037 112.29 104.037 107.098C104.037 97.0592 95.3834 89.0977 84.9988 89.0977C74.6142 89.0977 65.9603 97.4054 65.9603 107.098C65.9603 112.29 68.3834 117.136 72.1911 120.252C70.1142 119.559 68.3834 119.213 65.9603 119.213C55.5757 119.213 46.9219 127.175 46.9219 137.213C46.9219 147.252 55.5757 155.213 65.9603 155.213C73.5757 155.213 79.8065 151.059 82.9219 145.175C82.5757 150.367 80.845 158.328 75.6526 163.521C74.9603 164.213 75.3065 164.905 76.345 164.905H84.9988H93.6526C94.345 164.905 94.6911 163.867 94.345 163.521C89.1526 158.328 87.4219 150.713 87.0757 145.175C90.1911 151.059 96.768 155.213 104.037 155.213C114.422 155.213 123.076 147.252 123.076 137.213C123.076 127.521 114.422 119.213 104.037 119.213Z" fill="#24242E"/>
<path d="M34.4608 86.537C33.5377 86.537 32.6146 86.6908 31.6916 86.9985C33.3839 85.46 34.4608 83.46 34.4608 81.1523C34.4608 76.6908 30.6146 73.1523 25.9992 73.1523C21.3839 73.1523 17.5377 76.8447 17.5377 81.1523C17.5377 83.46 18.6146 85.6139 20.3069 86.9985C19.3839 86.6908 18.6146 86.537 17.5377 86.537C12.9223 86.537 9.07617 90.0754 9.07617 94.537C9.07617 98.9985 12.9223 102.537 17.5377 102.537C20.9223 102.537 23.6916 100.691 25.0762 98.0754C24.9223 100.383 24.1531 103.922 21.8454 106.229C21.5377 106.537 21.6916 106.845 22.1531 106.845H25.9992H29.8454C30.1531 106.845 30.3069 106.383 30.1531 106.229C27.8454 103.922 27.0762 100.537 26.9223 98.0754C28.3069 100.691 31.23 102.537 34.4608 102.537C39.0762 102.537 42.9223 98.9985 42.9223 94.537C42.9223 90.2293 39.0762 86.537 34.4608 86.537Z" fill="#24242E"/>
<path d="M28.8101 11.756L40.3541 64H33.5461L31.6961 53.936H19.5601L17.7841 64H11.0501L22.2981 11.756H28.8101ZM20.6701 48.312H30.5861L25.4801 21.45L20.6701 48.312Z" fill="#24242E"/>
<defs>
<linearGradient id="paint0_linear_324_104545" x1="92" y1="2" x2="92" y2="182" gradientUnits="userSpaceOnUse">
<stop stop-color="white" stop-opacity="0.85"/>
<stop offset="1" stop-color="white" stop-opacity="0.15"/>
</linearGradient>
</defs>
</svg>
