<svg width="184" height="184" viewBox="0 0 184 184" fill="none" xmlns="http://www.w3.org/2000/svg">
<rect x="1" y="1" width="182" height="182" rx="13" stroke="black" stroke-opacity="0.25" stroke-width="2"/>
<rect x="2.5" y="2.5" width="179" height="179" rx="11.5" fill="#E9E9E9" stroke="url(#paint0_linear_324_104569)"/>
<rect x="41.0449" y="30.5" width="101.909" height="123" rx="1.5" fill="#D7D5D7" stroke="#CDCFD6"/>
<path d="M101.962 106.144C96.7694 101.99 89.154 93.3362 86.0386 89.8747C85.3463 89.1824 83.9617 89.1824 83.2694 89.8747C80.154 93.3362 72.8848 101.99 67.3463 106.144C55.2309 116.529 50.3848 121.375 50.3848 130.375C50.3848 140.759 59.3848 149.413 70.4617 149.413C74.6155 149.413 79.4617 148.029 82.5771 145.605L82.9232 145.259C82.2309 150.452 80.5001 158.067 75.3078 163.259C74.6155 163.952 74.9617 164.644 76.0001 164.644H85.0001H94.0001C94.6925 164.644 95.0386 163.605 94.6925 163.259C89.5001 158.067 87.7694 150.798 87.0771 145.259L87.4232 145.605C90.1925 148.029 95.3848 149.413 99.5386 149.413C110.616 149.413 119.616 140.759 119.616 130.375C119.616 121.375 114.769 116.529 101.962 106.144Z" fill="#24242E"/>
<path d="M33.5383 80.7311C31.2306 78.8849 27.846 75.0388 26.4614 73.5003C26.1537 73.1926 25.5383 73.1926 25.2306 73.5003C23.846 75.0388 20.6152 78.8849 18.1537 80.7311C12.7691 85.3465 10.6152 87.5003 10.6152 91.5003C10.6152 96.1157 14.6152 99.9618 19.5383 99.9618C21.3845 99.9618 23.5383 99.3465 24.9229 98.2695L25.0768 98.1157C24.7691 100.423 23.9998 103.808 21.6922 106.116C21.3845 106.423 21.5383 106.731 21.9998 106.731H25.9998H29.9998C30.3075 106.731 30.4614 106.27 30.3075 106.116C27.9998 103.808 27.2306 100.577 26.9229 98.1157L27.0768 98.2695C28.3075 99.3465 30.6152 99.9618 32.4614 99.9618C37.3845 99.9618 41.3845 96.1157 41.3845 91.5003C41.3845 87.5003 39.2306 85.3465 33.5383 80.7311Z" fill="#24242E"/>
<path d="M14.583 50.236H20.577C20.503 52.826 20.503 54.01 20.577 54.232C20.577 55.49 20.725 58.894 25.461 58.894C30.345 58.894 30.419 55.268 30.567 49.94C30.641 48.756 30.567 42.836 30.567 41.504C29.383 42.688 27.311 44.76 23.019 44.76C14.065 44.76 14.065 35.954 14.065 32.698C14.065 27.962 14.065 21.598 14.731 18.564C15.915 12.792 20.947 11.09 25.461 11.09C27.459 11.09 29.531 11.312 31.307 12.2C32.343 12.718 35.821 14.79 36.561 19.896C36.783 21.154 36.783 22.486 36.783 34.252C36.783 37.582 36.709 52.308 36.561 54.602C35.747 63.704 29.013 64.666 25.387 64.666C20.207 64.666 15.841 62.15 14.879 57.562C14.583 56.304 14.583 55.712 14.583 50.236ZM30.641 28.258C30.641 28.036 30.641 22.264 30.567 21.672C30.123 18.046 27.903 16.788 25.683 16.788C23.833 16.788 20.947 17.676 20.503 21.746C20.355 23.004 20.281 28.332 20.281 30.404L20.355 34.252C20.577 37.212 22.427 39.136 25.609 39.136C28.717 39.136 30.641 37.138 30.641 33.438V28.258Z" fill="#24242E"/>
<defs>
<linearGradient id="paint0_linear_324_104569" x1="92" y1="2" x2="92" y2="182" gradientUnits="userSpaceOnUse">
<stop stop-color="white" stop-opacity="0.85"/>
<stop offset="1" stop-color="white" stop-opacity="0.15"/>
</linearGradient>
</defs>
</svg>
