<svg width="184" height="184" viewBox="0 0 184 184" fill="none" xmlns="http://www.w3.org/2000/svg">
<rect x="1" y="1" width="182" height="182" rx="13" stroke="black" stroke-opacity="0.25" stroke-width="2"/>
<rect x="2.5" y="2.5" width="179" height="179" rx="11.5" fill="#E9E9E9" stroke="url(#paint0_linear_324_104519)"/>
<rect x="41.0449" y="30.5" width="101.909" height="123" rx="1.5" fill="#D7D5D7" stroke="#CDCFD6"/>
<g clip-path="url(#clip0_324_104519)">
<path d="M129.378 34.6361V165.248C129.378 166.507 128.865 167.716 127.953 168.606C127.041 169.497 125.803 169.998 124.513 169.998H17.486C16.1957 169.998 14.9583 169.497 14.046 168.606C13.1336 167.716 12.6211 166.507 12.6211 165.248V147.926L72.8643 110.701C72.8643 110.701 69.086 108.943 69.6211 105.792C70.1562 102.641 71.6319 101.834 71.2427 100.662C70.947 99.7871 70.3573 99.51 70.1887 98.6034C69.849 98.5598 69.8958 97.7744 69.6789 97.5155C69.462 97.2566 69.3543 96.9267 69.3779 96.593C69.4914 95.3421 71.2103 94.6296 71.2103 94.6296L69.1995 93.3471V90.6712C69.2728 89.9999 69.1448 89.3223 68.831 88.7207C68.5172 88.1192 68.0311 87.6196 67.4319 87.2828C65.2427 85.8103 62.7941 84.3694 64.9022 81.3136C65.7905 80.558 66.4754 79.6011 66.8968 78.5268C68.2076 76.2621 69.6759 74.0878 71.2914 72.0192C71.2914 71.8767 72.1508 69.5809 72.1508 69.5809L72.913 60.4607L60.5887 42.8696C60.5887 42.8696 58.2049 39.9562 62.4373 38.6737C66.6697 37.3911 99.6049 27.2576 129.378 34.6361Z" fill="#E7E7E7"/>
<path d="M129.378 117.642L120.968 114.121C106.846 106.937 102.188 92.9452 101.529 88.0622C100.871 83.1792 98.6325 73.2097 98.2375 71.0342C97.8425 68.8588 95.3242 62.1133 95.3242 62.1133L129.378 65.2434V117.642Z" fill="#F4C900"/>
<path d="M52.1798 169.998H41.8103C41.4265 167.968 44.7724 166.991 46.8841 166.991C49.6894 166.912 51.9919 168.069 52.0244 169.545C52.0259 169.908 51.54 169.998 52.1798 169.998ZM54.781 153.682C56.9394 159.052 58.0423 164.228 58.0265 169.998L56.6764 169.989C56.7051 163.891 55.4645 158.409 52.9973 152.81C52.4135 152.556 51.8136 152.318 51.2298 152.096C54.0103 157.865 55.5984 163.62 55.5941 169.998H54.181C54.3289 169.383 54.3763 169.998 54.181 169.998C54.2209 169.832 54.1788 169.653 54.181 169.481C54.181 167.387 50.8406 165.769 46.8517 165.865C42.8627 165.96 39.313 167.904 39.3779 169.998C38.1744 169.998 38.2732 169.998 37.7562 169.998C37.7581 164.474 35.5571 159.644 32.1752 155.221C28.7932 150.797 24.0379 147.564 18.6208 146.005L17.7776 146.528C23.1876 147.938 27.9699 151.057 31.3804 155.4C34.791 159.743 36.9481 164.521 36.9454 169.998L34.8945 169.989C34.9079 164.604 33.0075 159.938 29.509 155.78C26.0105 151.622 21.1393 148.788 15.7344 147.765L14.3237 148.654C19.7168 149.382 24.6583 151.995 28.2351 156.01C31.8119 160.025 33.7024 164.672 33.7022 169.998H32.0806C31.8588 169.481 31.6624 169.304 31.4092 169.134C30.9095 168.798 30.3186 168.615 29.7121 168.609C29.2058 168.558 28.6943 168.61 28.2091 168.76C27.7239 168.91 27.2752 169.155 26.8906 169.481C26.5987 169.735 26.8861 170.014 27.3563 169.903C27.852 169.761 28.3687 169.767 28.8851 169.751C29.1991 169.719 29.5161 169.772 29.8018 169.903C29.8977 169.947 29.6481 169.998 29.6481 169.998H17.486C16.1958 169.998 14.9582 169.995 14.0459 169.103C13.1336 168.21 12.6211 167 12.6211 165.738V152.096C12.8816 152.434 13.0186 152.847 13.0103 153.27C12.9941 153.775 12.9124 154.276 12.767 154.761C12.6535 155.157 13.0265 155.506 13.2697 155.253C13.9015 154.584 14.2493 153.705 14.2426 152.794C14.2745 152.208 14.1398 151.626 13.8536 151.11C13.5673 150.595 13.1407 150.168 12.6211 149.875L12.6211 146.576L71.1909 110.647C70.6294 110.293 70.1502 109.828 69.7842 109.282C69.4183 108.735 69.1738 108.12 69.0667 107.475C68.9081 105.79 69.2045 104.095 69.9261 102.557C70.0629 102.236 70.182 101.908 70.2828 101.574C70.3439 100.907 70.2148 100.238 69.9099 99.6387C68.3694 99.6387 68.3694 97.1958 69.0667 96.1965C69.7639 95.1972 70.3477 95.4668 70.0558 94.7054C69.0018 94.3723 68.2073 93.9599 67.9803 93.1192C67.9187 92.9528 67.9014 92.7738 67.9297 92.5991C67.9581 92.4243 68.0313 92.2594 68.1424 92.1198C68.1424 91.5646 68.1424 90.5336 68.3046 89.3439C68.3046 88.5191 67.7532 88.2018 66.3749 87.6625C65.7634 87.4532 65.1806 87.1708 64.6399 86.8218C64.2474 86.5262 63.9294 86.1467 63.7101 85.7122C63.4909 85.2778 63.3763 84.8 63.3751 84.3155C63.3164 83.7377 63.3876 83.1544 63.5836 82.6063C63.7797 82.0583 64.0959 81.5588 64.5102 81.143C65.3872 80.2503 66.0275 79.1611 66.3749 77.9705C66.456 77.7484 66.5533 77.5105 66.6668 77.2725C67.4126 75.8172 68.3563 74.4672 69.4721 73.2593C69.8601 72.825 70.2229 72.3695 70.5585 71.8952C71.045 71.1813 70.9314 70.7531 70.9152 70.7213L70.8342 70.5468V70.4358C71.126 67.4854 71.499 64.8363 71.953 62.5046C71.953 62.3142 71.8557 62.108 71.7909 61.8859C66.9263 55.0492 59.8564 44.9924 59.0132 44.0882C58.6412 43.6745 58.3858 43.1732 58.2721 42.6336C58.1583 42.094 58.1902 41.5347 58.3646 41.0109C58.5112 40.4128 58.8051 39.8588 59.2205 39.3971C59.6359 38.9354 60.1604 38.58 60.7482 38.3618L61.2671 38.3142C70.7739 34.449 80.8108 31.9743 91.0547 30.9699C103.884 29.6648 116.847 30.5395 129.372 33.5555V39.0915L128.204 38.7901H127.977C127.782 38.7917 127.591 38.8498 127.43 38.957C127.268 39.0643 127.143 39.216 127.069 39.3929L121.053 53.4788C120.998 53.6125 120.973 53.7565 120.981 53.9005C120.989 54.0445 121.029 54.1851 121.099 54.3123C121.168 54.4394 121.266 54.55 121.384 54.6363C121.502 54.7225 121.638 54.7822 121.783 54.8112C123.777 55.2078 126.793 55.8264 129.372 56.3975V68.7702L128.301 67.6281L127.361 67.4219C128.123 68.2785 128.788 69.0082 129.372 69.8013V71.6255C128.18 70.0236 126.891 68.4928 125.512 67.0412L124.507 66.8667C126.376 68.9099 128.008 71.1496 129.372 73.5448V76.0035C129.199 75.597 129.004 75.1999 128.788 74.8139C128.78 74.7879 128.78 74.7604 128.788 74.7345C127.222 71.7147 125.206 68.9401 122.804 66.5019L121.799 66.3115C123.648 68.3739 125.218 70.6611 126.469 73.1166C127.806 75.7558 128.782 78.5558 129.372 81.4444V86.4728C129.372 86.4728 129.372 86.3618 129.372 86.3142C127.409 76.5905 125.512 73.6242 125.496 73.6242V73.5448C124.058 70.7796 122.236 68.2225 120.08 65.9467L119.042 65.7564C120.672 67.6412 122.06 69.7133 123.177 71.9269C123.437 72.3393 125.269 75.5277 127.182 84.9817C127.458 86.2983 127.669 87.8052 127.896 89.4073C128.269 92.0564 128.551 94.5668 129.378 97.6917V101.695C128.1 97.6171 127.35 93.8037 126.858 89.566C126.631 87.9797 126.42 86.3935 126.161 85.2038C124.183 75.4166 122.302 72.5138 122.285 72.5138V72.4345C120.981 69.9254 119.346 67.5948 117.421 65.5026L116.188 65.2805C117.601 66.9648 118.804 68.8071 119.772 70.7689C120.031 71.1813 121.864 74.3697 123.777 83.8237C124.053 85.1403 124.264 86.6473 124.491 88.2494C125.054 94.4012 126.716 100.422 129.372 106.026V108.257L129.242 108.062C125.156 101.05 124.166 94.0392 123.372 88.408C123.161 86.8218 122.95 85.3148 122.691 84.0458C120.696 74.2587 118.815 71.3558 118.799 71.3558V71.2765C117.678 69.0323 116.26 66.9418 114.583 65.0584L113.448 64.8681C114.634 66.3406 115.651 67.9364 116.48 69.6268C116.74 70.0392 118.572 73.2276 120.502 82.6817C120.761 83.9982 120.972 85.5052 121.199 87.1073C122.123 93.6902 123.291 102.199 129.372 110.066V111.671C128.101 110.175 126.984 108.607 125.966 106.935C121.88 99.9242 120.891 92.913 120.113 87.2818C119.886 85.6955 119.675 84.1093 119.415 82.9196C117.437 73.1959 115.556 70.2296 115.524 70.2296C115.491 70.2296 115.524 70.2296 115.524 70.1503C114.529 68.1924 113.31 66.3511 111.891 64.6619L110.708 64.4874C111.649 65.7312 112.469 67.0589 113.156 68.453C113.399 68.8654 115.248 72.0538 117.161 81.5078C117.421 82.8244 117.632 84.3314 117.859 85.9335C118.929 93.5633 120.388 103.847 129.372 112.651V114.082C126.715 111.635 124.458 108.842 122.642 105.746C118.54 98.7345 117.567 91.7233 116.772 86.0921C116.545 84.5058 116.334 82.9196 116.075 81.7299C114.113 72.0062 112.216 69.0399 112.199 69.0399C111.367 67.3516 110.35 65.7561 109.167 64.2812L107.935 64.1225C108.672 65.1588 109.323 66.2515 109.881 67.3902C110.14 67.8026 111.972 70.991 113.886 80.445C114.162 81.7616 114.372 83.2686 114.599 84.8865C115.718 93.2144 117.405 104.937 129.372 114.327V135.821L126.777 135.551L122.058 143.673L129.372 144.45V165.785C129.372 167.047 129.075 168.018 128.162 168.91C127.25 169.803 125.803 169.998 124.513 169.998H117.511L121.458 163.438L111.162 162.359L106.675 169.998H87.7766L87.7305 169.862C86.9839 166.989 86.0523 164.165 84.9415 161.407C84.906 161.322 84.8519 161.245 84.7831 161.182C84.7142 161.119 84.6321 161.072 84.5426 161.043C84.4531 161.015 84.3583 161.005 84.2648 161.016C84.1712 161.027 84.0812 161.058 84.001 161.106L78.1959 164.834C78.0724 164.914 77.9809 165.034 77.9367 165.172C77.8924 165.311 77.8981 165.46 77.9527 165.595C78.5851 167.181 79.1076 169.998 79.1076 169.998H59.23C59.2338 164.779 58.5887 160.205 56.8565 155.268C56.2459 154.645 55.5469 154.111 54.781 153.682ZM27.5554 161.851C27.0684 161.995 26.6162 162.233 26.226 162.552C25.8358 162.871 25.5158 163.264 25.2853 163.707C25.1231 164.056 25.5771 164.262 25.9339 163.993C26.3328 163.679 26.7682 163.413 27.2311 163.2C27.5749 163.012 27.9795 162.962 28.3604 163.059C28.7412 163.157 29.0687 163.395 29.2742 163.723C29.3648 164.095 29.306 164.487 29.1099 164.817C28.9137 165.148 28.5952 165.392 28.2202 165.5C27.7332 165.673 27.2271 165.79 26.7122 165.849C26.2906 165.849 26.096 166.372 26.4528 166.499C27.3248 166.78 28.2722 166.735 29.1121 166.372C30.8633 165.658 31.7876 163.961 31.0255 162.708C30.6229 162.213 30.0653 161.861 29.4383 161.706C28.8114 161.552 28.1499 161.603 27.5554 161.851ZM21.572 158.996C21.572 159.377 22.0584 159.393 22.2854 158.996C22.5304 158.555 22.8299 158.145 23.1773 157.775C23.4183 157.469 23.7724 157.267 24.1635 157.214C24.5547 157.161 24.9516 157.259 25.2691 157.489C25.4951 157.8 25.5908 158.184 25.5365 158.561C25.4822 158.939 25.282 159.282 24.9772 159.52C24.6013 159.866 24.1817 160.165 23.7286 160.408C23.3556 160.614 23.3556 161.106 23.7286 161.106C24.6464 161.04 25.507 160.645 26.1447 159.995C27.4906 158.679 27.6851 156.823 26.4852 155.903C25.9235 155.591 25.2716 155.469 24.6319 155.558C23.9922 155.647 23.4007 155.941 22.9503 156.395C22.5499 156.712 22.2209 157.107 21.9837 157.555C21.7466 158.002 21.6064 158.493 21.572 158.996ZM16.2371 155.998C16.3668 156.347 16.8371 156.173 16.9019 155.76C16.9539 155.255 17.0738 154.759 17.2587 154.285C17.3095 154.097 17.3977 153.921 17.5182 153.767C17.6387 153.613 17.7891 153.483 17.9608 153.386C18.1325 153.289 18.3222 153.226 18.5189 153.2C18.7157 153.175 18.9156 153.188 19.1072 153.238C19.443 153.439 19.6863 153.759 19.786 154.132C19.8857 154.505 19.8343 154.9 19.6423 155.237C19.4336 155.696 19.1666 156.128 18.8478 156.522C18.5883 156.839 18.8478 157.299 19.1234 157.156C19.9281 156.74 20.5506 156.053 20.8747 155.221C21.5882 153.508 21.0206 151.668 19.5775 151.319C18.934 151.245 18.2837 151.381 17.7269 151.705C17.1702 152.029 16.7378 152.523 16.4966 153.111C16.2558 153.55 16.1087 154.032 16.0641 154.529C16.0195 155.025 16.0784 155.525 16.2371 155.998ZM34.674 144.117C36.9117 140.945 37.2846 137.312 35.5009 136.186C33.7172 135.06 30.458 136.662 28.2365 139.834C26.015 143.007 25.6258 146.639 27.4095 147.765C29.1932 148.892 32.4525 147.353 34.674 144.117ZM41.9546 152.429C45.0518 150.034 46.6733 146.75 45.295 145.101C43.9167 143.451 40.4304 144.022 37.1873 146.417C33.9443 148.812 32.5497 152.096 33.8632 153.762C35.1766 155.427 38.8089 154.824 41.9546 152.429ZM43.5762 155.379C39.8142 156.696 37.3657 159.361 38.0792 161.344C38.7926 163.327 42.4411 163.866 46.1868 162.549C49.9326 161.233 52.4135 158.568 51.7001 156.601C50.9866 154.634 47.3706 154.11 43.6086 155.379H43.5762ZM81.4065 153.793C80.1255 151.335 78.7472 149.034 77.3203 146.734C77.2757 146.663 77.2169 146.602 77.1474 146.553C77.0779 146.505 76.9992 146.471 76.9159 146.453C76.8325 146.435 76.7464 146.434 76.6627 146.45C76.5789 146.466 76.4992 146.498 76.4284 146.544L70.6558 150.24C70.5199 150.333 70.4246 150.473 70.3886 150.631C70.3526 150.79 70.3785 150.956 70.4612 151.097C71.8395 153.301 73.2016 155.649 74.4826 158.124C74.5211 158.205 74.5769 158.276 74.6464 158.334C74.7159 158.392 74.7973 158.434 74.8851 158.458C74.9729 158.483 75.065 158.488 75.155 158.474C75.2451 158.46 75.331 158.427 75.4069 158.377L81.1958 154.618C81.3358 154.533 81.4382 154.399 81.4832 154.244C81.5281 154.088 81.5124 153.922 81.439 153.777L81.4065 153.793ZM118.021 111.139C114.54 108.321 111.611 104.908 109.378 101.066C105.276 94.0551 104.303 87.0438 103.508 81.4126C103.281 79.8264 103.07 78.2402 102.811 77.0505C100.833 67.2633 98.9515 64.3605 98.9353 64.3605V64.2812C98.9353 64.2812 98.7245 63.8053 98.2381 62.9804L96.73 62.8694C97.2327 63.7577 98.8867 67.184 100.622 75.718C100.881 77.0346 101.108 78.5415 101.319 80.1595C102.503 89.0742 104.254 101.558 118.021 111.139ZM99.8596 63.7736C100.103 64.186 101.951 67.3743 103.865 76.8284C104.124 78.145 104.335 79.6519 104.562 81.2699C105.811 90.1688 107.578 102.716 121.264 112.297C117.783 109.475 114.85 106.063 112.605 102.224C108.519 95.213 107.529 88.2018 106.735 82.5706C106.524 80.9844 106.313 79.4774 106.054 78.2084C104.076 68.4213 102.195 65.5184 102.162 65.5184C102.154 65.4927 102.154 65.4649 102.162 65.4391C101.782 64.6819 101.36 63.9458 100.897 63.2342L99.4704 63.0915C99.6975 63.4246 99.811 63.6942 99.8596 63.7736ZM118.977 148.955L114.243 157.061L124.523 158.171L129.274 150.034L118.977 148.955ZM124.62 113.455C121.146 110.619 118.219 107.196 115.978 103.35C111.891 96.3393 110.902 89.328 110.108 83.6968C109.881 82.1106 109.686 80.5244 109.427 79.3347C107.448 69.611 105.551 66.6447 105.535 66.6447V66.5654C105.021 65.4872 104.408 64.4572 103.703 63.488L102.357 63.3294C102.679 63.839 102.966 64.3689 103.216 64.9157C103.427 65.2805 105.259 68.5323 107.189 77.9705C107.448 79.2871 107.659 80.794 107.886 82.412C109.135 91.3267 110.902 103.874 124.62 113.455ZM106.378 63.7894L105.049 63.6942C105.57 64.4818 106.036 65.3033 106.443 66.1529C106.702 66.5654 108.535 69.7537 110.448 79.2078C110.724 80.5244 110.935 82.0313 111.162 83.6493C112.41 92.5481 114.178 105.095 127.896 114.676C124.424 111.849 121.497 108.438 119.253 104.604C115.167 97.5924 114.178 90.5812 113.383 84.95C113.156 83.3637 112.945 81.7775 112.686 80.5878C110.724 70.8641 108.827 67.8978 108.81 67.8978C108.156 66.4455 107.34 65.0678 106.378 63.7894ZM92.0762 37.3149L94.8977 51.7815C94.9399 52.0069 95.0625 52.2103 95.2436 52.3555C95.4247 52.5007 95.6527 52.5784 95.8868 52.5746C97.1841 52.5746 99.1299 52.4953 101.481 52.4953C105.05 52.4479 108.619 52.6174 112.167 53.0029C112.397 53.0339 112.631 52.9861 112.829 52.8675C113.027 52.749 113.177 52.567 113.253 52.3526L118.361 38.0763C118.42 37.9373 118.445 37.7871 118.435 37.6371C118.424 37.4872 118.379 37.3415 118.302 37.2113C118.226 37.0811 118.119 36.9699 117.992 36.8861C117.864 36.8023 117.719 36.7482 117.567 36.728C109.418 35.5997 101.164 35.3975 92.9681 36.1252C92.8302 36.1406 92.697 36.1838 92.577 36.2521C92.457 36.3204 92.3528 36.4122 92.2708 36.5218C92.1849 36.6279 92.1231 36.7507 92.0896 36.8819C92.056 37.0132 92.0515 37.15 92.0762 37.2832V37.3149ZM73.5097 52.5905C73.6008 52.7492 73.7359 52.8796 73.8994 52.9665C74.0629 53.0535 74.2482 53.0936 74.434 53.0822L85.3631 52.5905C85.5046 52.5816 85.6427 52.5434 85.7681 52.4786C85.8935 52.4138 86.0035 52.3237 86.0908 52.2143C86.178 52.105 86.2407 51.9787 86.2746 51.844C86.3085 51.7093 86.3128 51.569 86.2874 51.4325L83.7253 38.3142C83.702 38.1884 83.6526 38.0686 83.58 37.9622C83.5075 37.8558 83.4135 37.7651 83.3037 37.6956C83.0854 37.5504 82.8181 37.4936 82.5578 37.537C77.748 38.4364 73.0114 39.6769 68.3856 41.2488C68.2485 41.2943 68.1235 41.3692 68.0197 41.468C67.9159 41.5668 67.8359 41.687 67.7857 41.8199C67.726 41.9467 67.6951 42.0847 67.6951 42.2243C67.6951 42.364 67.726 42.502 67.7857 42.6288L73.5097 52.5905ZM75.5204 110.441C77.9365 110.441 89.8385 107.475 104.838 97.9096C104.856 97.9022 104.875 97.8984 104.894 97.8984C104.914 97.8984 104.933 97.9022 104.951 97.9096C102.335 92.3256 100.691 86.3531 100.087 80.2388C99.8596 78.6526 99.6488 77.0663 99.3894 75.8766C97.4273 66.1529 95.5301 63.1866 95.5139 63.1866V63.1073C95.4692 62.987 95.415 62.8704 95.3517 62.7584C88.0374 62.1841 80.6808 62.3915 73.4124 63.377C73.007 65.4867 72.6827 67.8661 72.4233 70.5151C72.5274 71.3039 72.3248 72.1021 71.8557 72.7517C71.5963 73.1324 71.1585 73.64 70.672 74.2428C69.6467 75.3419 68.7744 76.5686 68.0775 77.8912C67.964 78.1291 67.883 78.3512 67.7857 78.5733C67.3524 79.9614 66.5786 81.2248 65.5317 82.2534C65.2825 82.516 65.0918 82.8265 64.9718 83.1652C64.8518 83.5038 64.805 83.8631 64.8345 84.2203C64.8255 84.4884 64.8793 84.755 64.9917 84.9997C65.1041 85.2443 65.2722 85.4606 65.4831 85.6321C65.9226 85.9157 66.3965 86.1448 66.8938 86.3142C68.1424 86.8059 69.8774 87.4721 69.7477 89.4867C69.6666 90.4543 69.6342 91.2474 69.6018 91.8026C70.1672 91.8833 70.7151 92.0548 71.2233 92.3102C71.9692 92.675 73.607 94.6103 74.9853 95.7365C76.3636 96.8627 76.8338 96.4662 76.8338 96.4662C77.1095 97.18 75.7636 96.9579 74.9853 96.4662C74.139 95.9531 73.2052 95.5931 72.2287 95.4034C72.2287 95.4034 69.7802 95.7365 70.1531 97.7193C70.1813 98.0129 70.3132 98.2877 70.5261 98.4966C70.6335 98.5113 70.7376 98.5434 70.8342 98.5917C71.4666 98.5917 72.2773 97.7193 72.2773 97.7193C72.1656 98.3479 71.8187 98.9133 71.3044 99.3056C71.7031 100.153 71.8384 101.096 71.6936 102.018C71.5849 102.412 71.4495 102.799 71.2882 103.176C70.6686 104.484 70.4007 105.926 70.5098 107.364C70.8342 109.331 73.3313 110.473 75.5204 110.504V110.441ZM64.5102 136.186L62.6941 137.36L61.7374 137.947C61.6608 137.995 61.5956 138.059 61.5461 138.135C61.4966 138.21 61.4639 138.294 61.4502 138.383C61.4364 138.471 61.4418 138.561 61.4662 138.647C61.4905 138.733 61.5332 138.814 61.5914 138.882C63.2129 140.754 64.8345 142.848 66.456 145.132C66.5516 145.27 66.6986 145.365 66.8654 145.398C67.0323 145.431 67.2055 145.398 67.3479 145.307L68.3532 144.641L72.0827 142.245L73.0557 141.611C73.1281 141.565 73.1901 141.505 73.2379 141.434C73.2857 141.364 73.3181 141.284 73.3333 141.201C73.3485 141.118 73.3461 141.032 73.3263 140.95C73.3064 140.868 73.2695 140.79 73.2178 140.723C71.5963 138.47 69.9747 136.376 68.3532 134.504C68.257 134.385 68.1184 134.306 67.9651 134.283C67.8118 134.259 67.6551 134.293 67.5262 134.378L64.5102 136.186ZM57.2457 134.06L61.7374 131.38L62.6778 130.777L63.6183 130.222C63.6985 130.173 63.7667 130.109 63.8179 130.031C63.8692 129.954 63.9023 129.867 63.9147 129.776C63.9271 129.685 63.9186 129.592 63.8898 129.504C63.861 129.417 63.8125 129.337 63.748 129.27C61.4779 126.843 59.6294 125.066 58.5591 124.067C58.4444 123.983 58.305 123.938 58.1619 123.938C58.0187 123.938 57.8794 123.983 57.7646 124.067L51.8298 127.874C51.7471 127.927 51.6779 127.998 51.6276 128.081C51.5772 128.164 51.5469 128.258 51.5391 128.354C51.5313 128.451 51.5461 128.547 51.5824 128.637C51.6188 128.727 51.6756 128.808 51.7487 128.873C53.1594 129.984 54.9918 131.744 57.2295 134.06H57.2457ZM43.5924 146.385C42.6681 145.212 40.1223 145.624 37.9008 147.305C35.6793 148.987 34.6577 151.303 35.5658 152.477C36.4739 153.65 39.0359 153.222 41.2574 151.541C43.4789 149.859 44.5167 147.543 43.5924 146.385ZM43.9978 156.458C41.3547 157.378 39.6358 159.25 40.1385 160.646C40.6412 162.042 43.2032 162.407 45.8301 161.487C48.457 160.567 50.2082 158.695 49.7056 157.299C49.2029 155.903 46.6733 155.522 43.9978 156.458ZM81.6498 168.91H84.6983C84.7976 168.911 84.8958 168.889 84.9852 168.847C85.0747 168.804 85.153 168.743 85.2141 168.666C85.2752 168.589 85.3175 168.5 85.3377 168.405C85.3579 168.31 85.3555 168.211 85.3307 168.117C84.9253 166.721 84.4712 165.357 83.9686 164.009C83.9352 163.92 83.8819 163.839 83.8126 163.773C83.7432 163.707 83.6596 163.657 83.5678 163.626C83.476 163.596 83.3785 163.586 83.2823 163.597C83.1861 163.608 83.0937 163.641 83.0119 163.691L80.4012 165.389C80.2766 165.464 80.1837 165.581 80.1391 165.718C80.0945 165.854 80.1012 166.002 80.158 166.134C80.4661 166.912 80.7579 167.721 81.0498 168.498C81.0956 168.618 81.1774 168.721 81.2845 168.795C81.3916 168.868 81.5189 168.909 81.6498 168.91ZM129.372 142.642V137.645L127.75 137.471L125.01 142.229L129.372 142.642ZM34.301 137.883C33.0524 137.058 30.7661 138.232 29.1932 140.5C27.6203 142.769 27.3608 145.259 28.6094 146.116C29.858 146.972 32.1606 145.767 33.7172 143.498C35.2739 141.23 35.5496 138.692 34.301 137.867V137.883ZM112.135 164.294L109.394 169.053L115.686 169.735L118.426 164.976L112.135 164.294ZM129.372 54.5099V40.9474L128.48 40.7095L123.161 53.225C124.977 53.5898 127.28 54.0498 129.372 54.5099ZM66.9263 142.642C67.0239 142.773 67.169 142.862 67.3318 142.891C67.4946 142.921 67.6628 142.888 67.8019 142.801L70.4288 141.103C70.5036 141.057 70.5678 140.996 70.6171 140.925C70.6664 140.853 70.6998 140.772 70.7151 140.686C70.7304 140.601 70.7272 140.514 70.7058 140.43C70.6844 140.346 70.6453 140.267 70.5909 140.199C69.6991 139.009 68.8072 137.883 67.9316 136.804C67.8298 136.683 67.6856 136.603 67.5268 136.579C67.3681 136.556 67.2061 136.591 67.0722 136.678L64.5102 138.375C64.4361 138.424 64.3731 138.487 64.3252 138.561C64.2773 138.635 64.2455 138.717 64.2318 138.804C64.2181 138.89 64.2228 138.978 64.2456 139.063C64.2684 139.147 64.3088 139.226 64.3642 139.295C65.1588 140.358 66.0344 141.42 66.9263 142.642ZM75.0339 67.7709H74.9366C75.488 67.9771 76.9636 68.4054 76.9636 68.4054C76.9636 67.7233 77.8878 66.9619 77.8878 66.9619C77.7419 69.6109 80.4661 70.4675 81.3741 70.8324C82.2822 71.1972 88.2819 73.8462 88.2819 73.8462H88.0548C85.6371 74.0847 83.2639 74.6451 81.0012 75.5118C79.1661 76.0643 77.6097 77.2699 76.6392 78.8905C76.6362 78.2098 76.8254 77.5416 77.1859 76.9594C77.5464 76.3772 78.0643 75.9037 78.6824 75.5911C78.5689 75.3214 78.277 74.6552 77.8392 73.4497C77.5234 72.4573 77.4842 71.4004 77.7257 70.3882C76.7078 69.6643 75.82 68.7798 75.0988 67.7709H75.0339ZM82.347 74.0366C83.3804 73.7544 84.4311 73.5372 85.4928 73.3862L82.347 72.3234C82.445 72.8905 82.445 73.4696 82.347 74.0366ZM80.5471 74.6394C80.8228 74.5125 81.1147 74.4173 81.4065 74.3063C81.5449 73.5242 81.5449 72.7248 81.4065 71.9427L80.612 71.6255C80.6565 72.6319 80.6131 73.6402 80.4823 74.6394H80.5471ZM74.6934 85.1086C74.9691 83.5224 73.7853 81.9361 74.0934 82.8561C74.2383 83.3676 74.2713 83.9032 74.1903 84.428C74.1092 84.9528 73.916 85.4549 73.6232 85.9017C73.275 86.1151 72.857 86.1911 72.4536 86.1146C72.0503 86.038 71.6917 85.8146 71.4503 85.4893C71.2182 85.1207 70.9115 84.8025 70.5489 84.5543C70.1864 84.3061 69.7758 84.133 69.3423 84.0458C69.0608 83.9989 68.7716 84.0255 68.5039 84.1229C68.2363 84.2204 67.9997 84.3854 67.8181 84.601C67.8181 85.759 69.7153 84.141 70.1693 85.4576C70.3521 85.9495 70.685 86.3747 71.123 86.6754C71.5609 86.9762 72.0828 87.138 72.6178 87.139C73.3962 87.139 74.3529 86.7742 74.6285 85.1086H74.6934ZM101.481 50.7029C104.908 50.6593 108.335 50.8023 111.745 51.1311L116.286 38.4411C108.921 37.4894 101.474 37.3139 94.0707 37.9177L96.5679 50.7822C97.8327 50.7187 99.5677 50.7029 101.481 50.7029ZM82.7362 68.453C83.1893 69.2215 83.7335 69.935 84.3577 70.5786C85.4452 71.4616 86.6943 72.1345 88.0386 72.5614C88.5899 72.5614 88.0386 71.9745 88.0386 71.9745L82.7362 68.453ZM84.3577 50.7822L82.0714 39.5357C77.9645 40.3437 73.9134 41.4033 69.9423 42.7082L74.8069 51.3374L84.3577 50.7822ZM57.2619 131.491C57.3756 131.583 57.5191 131.634 57.6673 131.634C57.8155 131.634 57.959 131.583 58.0727 131.491L60.7482 129.762C60.8272 129.712 60.894 129.646 60.9437 129.568C60.9934 129.491 61.0249 129.403 61.0357 129.312C61.0466 129.221 61.0366 129.129 61.0065 129.042C60.9764 128.955 60.927 128.876 60.8617 128.81C59.8888 127.81 59.0456 126.986 58.3483 126.304C58.2346 126.211 58.0911 126.16 57.943 126.16C57.7948 126.16 57.6513 126.211 57.5376 126.304L54.781 128.064C54.7 128.116 54.632 128.186 54.582 128.267C54.532 128.348 54.5012 128.439 54.4918 128.533C54.4825 128.628 54.4949 128.723 54.5281 128.812C54.5613 128.901 54.6145 128.981 54.6837 129.048C55.4782 129.746 56.4025 130.571 57.2619 131.491ZM76.8825 65.6453C76.8825 65.6453 79.8337 65.8357 83.6605 66.2798C86.4689 66.8513 89.0913 68.0876 91.2979 69.8806H91.6709C91.8492 69.8806 90.8925 67.4061 86.5144 65.2012C81.6498 62.7742 76.7852 62.3618 75.8285 63.3929C74.8718 64.4239 76.8825 65.6453 76.8825 65.6453ZM76.7528 149.209C76.708 149.136 76.6487 149.073 76.5783 149.023C76.508 148.973 76.4281 148.937 76.3434 148.918C76.2587 148.898 76.1709 148.896 76.0852 148.911C75.9995 148.925 75.9177 148.957 75.8447 149.003L73.1529 150.732C73.0151 150.82 72.9177 150.957 72.8813 151.114C72.845 151.27 72.8726 151.435 72.9584 151.572C73.7205 152.857 74.4826 154.158 75.2123 155.522C75.2542 155.6 75.3122 155.668 75.3825 155.723C75.4529 155.778 75.5341 155.818 75.621 155.84C75.7079 155.862 75.7986 155.867 75.8873 155.853C75.9761 155.839 76.061 155.808 76.1366 155.76L78.8445 154.015C78.975 153.925 79.0681 153.793 79.1068 153.641C79.1455 153.49 79.1272 153.33 79.0553 153.19C78.3094 151.826 77.4824 150.494 76.7528 149.209ZM123.518 156.252L126.274 151.493L119.983 150.938L117.242 155.697L123.518 156.252ZM80.4823 93.6109C81.212 93.3095 81.3579 92.8019 80.9687 92.8971C80.9687 92.8971 80.3363 93.484 78.277 91.8184C76.2176 90.1529 74.0286 88.1225 72.0017 88.3446C69.9747 88.5666 70.3801 89.7405 72.2449 90.6605C74.1096 91.5805 74.3529 91.2315 76.2987 92.2467C78.2446 93.2619 79.7364 93.9282 80.4823 93.6109Z" fill="#24242E"/>
<path d="M83.567 160.338C83.4392 160.42 83.2947 160.474 83.1435 160.496C82.9923 160.518 82.838 160.507 82.6914 160.465C82.5509 160.423 82.4215 160.352 82.3122 160.256C82.203 160.16 82.1165 160.042 82.0589 159.91C81.6211 158.974 81.1833 158.038 80.713 157.102C80.6032 156.879 80.5788 156.626 80.6443 156.387C80.7098 156.148 80.8607 155.94 81.0697 155.801C81.2429 155.689 81.4457 155.628 81.6535 155.627H81.9292C82.0679 155.667 82.1968 155.734 82.3083 155.824C82.4198 155.914 82.5115 156.025 82.5778 156.15C83.0481 157.102 83.5022 158.07 83.94 159.021C84.0528 159.248 84.0771 159.506 84.0084 159.749C83.9397 159.991 83.7827 160.201 83.567 160.338ZM66.8319 141.033C67.0139 141.275 67.2832 141.438 67.5847 141.492C67.8862 141.545 68.197 141.483 68.4535 141.319L68.5995 141.224C68.7368 141.137 68.8539 141.023 68.9433 140.889C69.0327 140.755 69.0923 140.604 69.1184 140.447C69.1473 140.284 69.142 140.117 69.103 139.956C69.064 139.795 68.992 139.644 68.8914 139.511C68.5995 139.162 68.3238 138.797 68.0481 138.448C67.857 138.218 67.5859 138.065 67.2868 138.018C66.9877 137.971 66.6814 138.034 66.4265 138.194L66.2968 138.289C66.1531 138.375 66.0306 138.49 65.9381 138.627C65.8455 138.764 65.7853 138.92 65.7616 139.082C65.7123 139.401 65.7939 139.726 65.9887 139.987C66.2968 140.336 66.5562 140.684 66.8319 141.033ZM83.0481 165.382C82.9141 165.358 82.7767 165.358 82.6427 165.382C82.4073 165.384 82.177 165.45 81.9779 165.573C81.7474 165.721 81.5754 165.941 81.4899 166.198C81.4045 166.454 81.4107 166.732 81.5076 166.984L81.6373 167.333C81.7251 167.559 81.8802 167.754 82.0826 167.893C82.2851 168.031 82.5254 168.107 82.7724 168.111C82.9674 168.111 83.1597 168.066 83.3331 167.979C83.5065 167.892 83.6559 167.765 83.7688 167.61C83.8817 167.454 83.9547 167.274 83.9817 167.085C84.0086 166.897 83.9888 166.704 83.9238 166.524L83.7941 166.144C83.7327 165.962 83.6268 165.797 83.4854 165.664C83.3441 165.532 83.1717 165.435 82.9833 165.382H83.0481ZM86.8427 119.08C85.2211 120.491 83.1263 121.27 80.9562 121.269C80.3034 121.238 79.6653 121.068 79.0858 120.772C78.5064 120.477 77.9993 120.062 77.5995 119.556C76.1982 117.604 75.4452 115.278 75.4427 112.894C74.69 112.871 74.2427 112.894 73.0914 112.894C73.0326 115.89 74.0889 118.477 75.8643 120.92C76.4581 121.659 77.2067 122.265 78.0598 122.697C78.9129 123.129 79.8508 123.378 80.8103 123.426C83.5072 123.47 86.127 122.545 88.1724 120.825C87.6641 120.294 87.218 119.708 86.8427 119.08ZM72.6211 116.574H72.5238C68.0643 118.509 65.8427 117.541 65.0968 117.034C64.9736 116.944 64.8329 116.879 64.6834 116.844C64.5338 116.808 64.3785 116.803 64.2268 116.828C64.0752 116.854 63.9303 116.909 63.8011 116.99C63.6719 117.072 63.561 117.178 63.4751 117.303C63.3815 117.424 63.3144 117.562 63.2783 117.71C63.2421 117.857 63.2376 118.01 63.265 118.159C63.2925 118.308 63.3513 118.45 63.4377 118.576C63.5241 118.702 63.6362 118.808 63.767 118.89C65.0481 119.762 67.967 120.888 73.0914 118.731C72.8933 118.021 72.7363 117.301 72.6211 116.574ZM69.3779 148.806C69.5297 149.027 69.7646 149.181 70.0316 149.235C70.2986 149.288 70.5763 149.237 70.8049 149.092C70.9214 149.018 71.0217 148.922 71.0997 148.81C71.1777 148.698 71.2319 148.571 71.2592 148.438C71.2864 148.305 71.286 148.168 71.2581 148.035C71.2302 147.902 71.1754 147.776 71.0968 147.664C70.7724 147.188 70.286 146.506 69.8806 145.951C69.7848 145.81 69.6543 145.696 69.5011 145.619C69.348 145.541 69.1773 145.502 69.0049 145.507C68.7579 145.503 68.5177 145.586 68.3275 145.74C68.1373 145.894 68.0095 146.109 67.967 146.347C67.9367 146.478 67.9355 146.614 67.9634 146.745C67.9914 146.877 68.0479 147.001 68.1292 147.109C68.5995 147.632 69.0049 148.219 69.3779 148.806ZM66.6211 133.388C66.6422 133.244 66.6314 133.097 66.5894 132.957C66.5474 132.818 66.4753 132.689 66.3779 132.579L65.2265 131.31C65.1368 131.21 65.0273 131.129 64.9046 131.072C64.782 131.015 64.6488 130.982 64.513 130.977C64.3197 130.977 64.1297 131.026 63.9616 131.119C63.8294 131.199 63.7162 131.305 63.6295 131.431C63.5427 131.557 63.4846 131.699 63.4589 131.849C63.4387 131.997 63.4514 132.147 63.4962 132.289C63.541 132.432 63.6168 132.563 63.7184 132.674L64.8373 133.927C64.9979 134.111 65.2212 134.231 65.4657 134.266C65.7102 134.301 65.9593 134.248 66.167 134.117C66.2984 134.039 66.4102 133.932 66.4944 133.806C66.5785 133.68 66.6329 133.537 66.6535 133.388H66.6211ZM24.1833 143.825C23.8774 144.122 23.5465 144.392 23.1941 144.634C22.8645 144.852 22.5174 145.043 22.1562 145.205C23.0669 145.602 23.9547 146.047 24.8157 146.538C24.5664 145.378 24.5997 144.177 24.913 143.032C24.6912 143.315 24.4472 143.58 24.1833 143.825ZM74.0643 145.808C74.2162 146.029 74.451 146.183 74.718 146.237C74.985 146.29 75.2628 146.239 75.4914 146.094C75.6158 146.018 75.7231 145.919 75.8068 145.802C75.8905 145.685 75.9487 145.552 75.9778 145.411C76.0455 145.143 76.0048 144.859 75.8643 144.618C75.4589 144.016 75.0535 143.445 74.6481 142.874C74.5538 142.735 74.4259 142.623 74.2759 142.545C74.1258 142.467 73.9584 142.428 73.7887 142.429C73.5864 142.434 73.3896 142.494 73.2211 142.604C72.9796 142.763 72.8109 143.007 72.7508 143.286C72.7228 143.426 72.7242 143.569 72.7548 143.708C72.7855 143.847 72.8448 143.979 72.9292 144.095L74.0643 145.808ZM129.378 145.38C129.178 145.469 129.013 145.62 128.908 145.808L127.756 147.68C127.666 147.833 127.617 148.006 127.612 148.183C127.608 148.36 127.648 148.535 127.73 148.692C127.813 148.85 127.934 148.985 128.082 149.085C128.231 149.185 128.404 149.247 128.583 149.266C128.83 149.296 129.176 149.227 129.378 149.085V145.38ZM119.064 116.256C119.315 116.446 119.581 116.615 119.859 116.764L121.091 115.257C120.443 114.892 119.81 114.496 119.194 114.115L118.124 115.432C118.414 115.731 118.728 116.007 119.064 116.256ZM114.54 165.239C114.329 165.215 114.116 165.254 113.928 165.35C113.74 165.446 113.586 165.596 113.486 165.779L112.708 167.08C112.621 167.235 112.576 167.408 112.574 167.585C112.572 167.761 112.615 167.935 112.698 168.092C112.782 168.248 112.903 168.383 113.051 168.483C113.2 168.583 113.372 168.646 113.551 168.666C113.764 168.691 113.98 168.653 114.171 168.557C114.362 168.461 114.519 168.311 114.621 168.126L115.383 166.826C115.469 166.671 115.515 166.497 115.517 166.321C115.518 166.144 115.476 165.97 115.392 165.813C115.309 165.657 115.188 165.523 115.039 165.423C114.891 165.322 114.719 165.26 114.54 165.239ZM115.513 157.927C115.3 157.906 115.086 157.945 114.896 158.041C114.706 158.137 114.548 158.285 114.443 158.466L113.34 160.354C113.254 160.508 113.208 160.68 113.206 160.855C113.203 161.031 113.244 161.204 113.326 161.36C113.407 161.517 113.526 161.651 113.673 161.752C113.82 161.853 113.989 161.918 114.167 161.94C114.38 161.963 114.595 161.925 114.786 161.829C114.976 161.733 115.133 161.584 115.237 161.401L116.405 159.545C116.496 159.387 116.545 159.209 116.547 159.027C116.548 158.846 116.501 158.667 116.412 158.508C116.323 158.349 116.193 158.215 116.036 158.119C115.878 158.023 115.698 157.967 115.513 157.959V157.927ZM117.378 119.857C116.803 119.496 116.26 119.087 115.756 118.636C115.344 119.451 114.745 120.162 114.005 120.712C113.265 121.263 112.404 121.638 111.491 121.808C108.654 122.141 106.708 120.333 104.454 118.239C102.636 116.172 100.222 114.69 97.5292 113.988C96.1498 113.788 94.7418 113.902 93.4145 114.32C92.0871 114.738 90.8761 115.449 89.8751 116.399C89.9754 116.548 90.0571 116.707 90.1184 116.875C89.9887 116.526 90.1995 117.018 90.2481 117.097C90.3301 117.254 90.4278 117.403 90.54 117.541C90.6211 117.652 90.54 117.541 90.7184 117.732C90.834 117.876 90.9586 118.014 91.0914 118.144C91.8618 117.353 92.8134 116.752 93.8678 116.39C94.9223 116.029 96.0493 115.918 97.1562 116.066C99.4081 116.72 101.415 118.005 102.929 119.762C105.054 121.761 107.437 123.997 110.81 123.997C111.118 123.997 111.443 123.997 111.767 123.997C112.968 123.804 114.109 123.348 115.106 122.665C116.102 121.981 116.929 121.086 117.524 120.048L117.378 119.857ZM121.351 155.294C121.562 155.315 121.774 155.276 121.964 155.184C122.153 155.091 122.312 154.948 122.421 154.77L123.183 153.454C123.269 153.299 123.315 153.125 123.317 152.949C123.318 152.772 123.276 152.598 123.192 152.441C123.109 152.285 122.988 152.151 122.839 152.051C122.691 151.95 122.519 151.888 122.34 151.867C122.127 151.842 121.911 151.88 121.72 151.976C121.529 152.072 121.372 152.222 121.27 152.407L120.508 153.723C120.418 153.877 120.368 154.05 120.364 154.226C120.359 154.403 120.4 154.578 120.482 154.736C120.564 154.893 120.685 155.028 120.834 155.128C120.983 155.229 121.155 155.291 121.335 155.31L121.351 155.294ZM32.6643 148.727C31.7193 149.363 30.647 149.795 29.5184 149.996C30.2319 150.598 30.913 151.249 31.5616 151.915C31.6793 150.785 32.0562 149.695 32.6643 148.727ZM120.832 162.67C121.045 162.693 121.26 162.654 121.45 162.558C121.641 162.462 121.798 162.314 121.902 162.13L122.989 160.259C123.079 160.105 123.128 159.932 123.133 159.756C123.137 159.579 123.097 159.404 123.014 159.246C122.932 159.089 122.811 158.954 122.662 158.854C122.514 158.753 122.341 158.691 122.162 158.672C121.951 158.65 121.737 158.687 121.548 158.78C121.358 158.873 121.199 159.017 121.091 159.196L120.005 161.068C119.915 161.222 119.866 161.396 119.862 161.573C119.858 161.751 119.898 161.927 119.98 162.085C120.062 162.244 120.183 162.38 120.331 162.482C120.48 162.584 120.652 162.648 120.832 162.67ZM125.372 117.478C123.856 118.021 122.212 118.126 120.637 117.779C119.432 117.358 118.328 116.7 117.394 115.844C115.432 114.353 113.567 112.735 110.729 112.894C107.891 113.052 105.832 114.559 104.097 116.558C104.632 117.05 105.183 117.525 105.718 118.001C107.34 116.225 108.508 115.098 110.486 114.987C112.464 114.876 114.281 116.241 116.016 117.557C117.221 118.659 118.678 119.464 120.264 119.905C122.859 120.365 126.07 120.19 127.675 118.493C126.881 118.16 126.135 117.827 125.372 117.478ZM123.313 144.618C123.104 144.595 122.893 144.632 122.705 144.725C122.518 144.818 122.363 144.963 122.259 145.142L121.156 147.045C121.066 147.199 121.017 147.372 121.012 147.548C121.008 147.725 121.048 147.9 121.13 148.058C121.213 148.215 121.334 148.35 121.482 148.45C121.631 148.551 121.804 148.613 121.983 148.632C122.192 148.655 122.403 148.618 122.591 148.525C122.778 148.432 122.934 148.287 123.037 148.108L124.14 146.205C124.23 146.051 124.28 145.878 124.284 145.702C124.289 145.525 124.248 145.35 124.166 145.192C124.084 145.035 123.963 144.9 123.814 144.8C123.665 144.699 123.493 144.637 123.313 144.618ZM12.6211 156.943V162.067C12.6788 162.168 12.7588 162.255 12.8554 162.322C12.9519 162.389 13.0624 162.434 13.179 162.454C13.2955 162.473 13.4151 162.467 13.529 162.436C13.6429 162.405 13.7482 162.349 13.8373 162.273L14.9562 161.29C15.0759 161.187 15.2239 161.12 15.3819 161.099C15.5399 161.078 15.7007 161.103 15.8444 161.17C15.988 161.238 16.1081 161.346 16.1895 161.48C16.2709 161.614 16.3101 161.768 16.3022 161.924L16.2049 163.384C16.2006 163.51 16.2265 163.635 16.2805 163.749C16.3346 163.864 16.4152 163.964 16.516 164.043C16.6169 164.122 16.7351 164.176 16.8613 164.202C16.9874 164.228 17.1181 164.225 17.2427 164.193L18.686 163.78C18.8389 163.74 19.0006 163.744 19.151 163.793C19.3013 163.842 19.4339 163.932 19.5322 164.054C19.6305 164.175 19.6903 164.322 19.7042 164.477C19.718 164.631 19.6854 164.786 19.6103 164.922L18.8806 166.207C18.8157 166.317 18.7792 166.44 18.7741 166.566C18.7691 166.693 18.7957 166.819 18.8516 166.933C18.9075 167.047 18.9911 167.146 19.0951 167.221C19.199 167.297 19.3202 167.346 19.4481 167.365L20.94 167.603C21.0971 167.631 21.2424 167.703 21.3575 167.812C21.4726 167.92 21.5525 168.059 21.5871 168.211C21.6218 168.364 21.6096 168.523 21.5522 168.669C21.4948 168.814 21.3946 168.94 21.2643 169.031C20.7676 169.421 19.7866 169.938 19.7786 169.998H25.2492C25.2702 166.587 23.9764 163.941 21.6427 161.406C19.309 158.871 16.0917 157.279 12.6211 156.943ZM129.378 135.101V132.88L128.924 133.657C128.854 133.781 128.81 133.917 128.795 134.057C128.78 134.197 128.794 134.339 128.836 134.474C128.879 134.609 128.949 134.734 129.042 134.841C129.135 134.949 129.249 135.037 129.378 135.101ZM129.378 141.922V138.829C129.255 138.92 129.15 139.033 129.07 139.162L128.291 140.478C128.234 140.627 128.211 140.786 128.224 140.944C128.237 141.103 128.285 141.256 128.366 141.394C128.446 141.532 128.557 141.651 128.69 141.742C128.823 141.833 128.975 141.895 129.135 141.922H129.378ZM92.1616 123.268C93.3956 124.223 94.9035 124.777 96.4751 124.854C97.4872 124.821 98.482 124.588 99.3991 124.168C100.316 123.748 101.136 123.15 101.81 122.411C102.281 121.935 102.718 121.491 103.14 121.031L101.518 119.603C101.129 120.016 100.724 120.444 100.286 120.872C97.0427 124.045 94.9346 122.459 93.4914 121.57C92.688 120.848 91.9401 120.068 91.2535 119.239C89.2914 117.018 86.8427 114.274 84.767 113.592C81.6697 112.576 79.9022 113.243 76.3833 114.845C76.4703 115.583 76.6112 116.315 76.8049 117.034C80.486 115.352 81.6697 114.845 84.0697 115.638C85.5779 116.13 88.0103 118.81 89.6157 120.65C90.3623 121.613 91.2162 122.49 92.1616 123.268ZM60.0535 136.893C60.2179 137.072 60.4406 137.188 60.6834 137.223C60.9261 137.257 61.1736 137.208 61.3833 137.084C61.5141 137.003 61.6263 136.896 61.7129 136.77C61.7994 136.645 61.8583 136.503 61.886 136.354C61.906 136.209 61.8931 136.061 61.8483 135.921C61.8034 135.782 61.7277 135.653 61.6265 135.545L60.4265 134.213C60.3281 134.107 60.2079 134.022 60.0738 133.965C59.9396 133.907 59.7945 133.878 59.6481 133.88C59.46 133.88 59.2754 133.93 59.113 134.022C58.9808 134.102 58.8675 134.208 58.7808 134.334C58.6941 134.46 58.636 134.602 58.6103 134.752C58.5866 134.9 58.5976 135.051 58.6426 135.194C58.6875 135.337 58.7652 135.468 58.8697 135.577C59.2589 135.989 59.6481 136.433 60.0535 136.893ZM75.2643 153.739C75.3419 153.882 75.4501 154.008 75.5817 154.106C75.7132 154.205 75.8649 154.274 76.0265 154.31C76.1883 154.353 76.3574 154.36 76.5225 154.333C76.6876 154.305 76.8447 154.244 76.9833 154.152L77.1941 154.025C77.4503 153.856 77.6325 153.6 77.7046 153.306C77.7767 153.012 77.7334 152.703 77.5833 152.439C77.3238 151.963 77.0481 151.487 76.7562 151.011C76.6762 150.87 76.5672 150.746 76.4361 150.648C76.3049 150.549 76.1545 150.479 75.9941 150.44H75.7022C75.4641 150.44 75.2318 150.512 75.0373 150.646L74.8427 150.773C74.5865 150.942 74.4043 151.198 74.3322 151.492C74.2601 151.786 74.3034 152.095 74.4535 152.359L75.2643 153.739ZM77.486 162.876C77.5498 163.005 77.6405 163.12 77.7521 163.213C77.8638 163.305 77.9941 163.374 78.1346 163.415C78.2779 163.462 78.4305 163.475 78.5799 163.453C78.7293 163.431 78.8712 163.374 78.9941 163.288C79.2035 163.158 79.358 162.957 79.4294 162.725C79.5009 162.492 79.4845 162.241 79.3833 162.019C78.9454 161.068 78.4751 160.116 78.0049 159.18C77.9457 159.05 77.8563 158.934 77.7437 158.843C77.6311 158.753 77.4985 158.689 77.3562 158.657C77.265 158.641 77.1718 158.641 77.0806 158.657C76.8779 158.658 76.6803 158.719 76.513 158.831C76.304 158.97 76.153 159.178 76.0875 159.417C76.022 159.655 76.0464 159.909 76.1562 160.132C76.5779 161.02 77.0319 161.956 77.486 162.876ZM36.2968 156.531C35.8943 156.528 35.4928 156.491 35.0968 156.42C35.6179 157.249 36.089 158.107 36.5076 158.99C36.9597 157.904 37.665 156.937 38.567 156.166C38.2162 156.273 37.8587 156.358 37.4968 156.42C37.0892 156.485 36.6773 156.523 36.2643 156.531H36.2968ZM40.9022 165.573C41.2203 165.392 41.5509 165.233 41.8914 165.097C40.6604 165.081 39.4521 164.771 38.3724 164.193C38.6139 165.176 38.798 166.171 38.9238 167.175C39.458 166.52 40.1194 165.976 40.8697 165.573H40.9022ZM58.9508 128.264L58.5616 127.899C58.4511 127.786 58.3175 127.696 58.1696 127.636C58.0216 127.576 57.8624 127.547 57.7022 127.55C57.4668 127.552 57.2365 127.618 57.0373 127.741L56.8751 127.852C56.7309 127.957 56.6133 128.093 56.5318 128.25C56.4502 128.407 56.4068 128.58 56.4049 128.756C56.3815 128.931 56.4017 129.109 56.4638 129.275C56.5259 129.44 56.6281 129.589 56.7616 129.708L57.1184 130.073C57.3157 130.266 57.5759 130.387 57.8542 130.413C58.1325 130.439 58.4114 130.369 58.6427 130.215L58.8049 130.12C58.9569 130.025 59.0844 129.897 59.1772 129.745C59.2701 129.594 59.3258 129.424 59.34 129.248C59.3581 129.065 59.3323 128.882 59.2647 128.711C59.1971 128.54 59.0896 128.387 58.9508 128.264Z" fill="#F4C900"/>
<path d="M116.472 111.688L118.427 112.995L118.281 113.17L117.368 114.285C116.256 113.39 115.022 112.65 113.702 112.086L116.472 111.688ZM118.444 120.244V120.34C117.798 121.305 117.019 122.179 116.13 122.937C118.249 122.421 120.329 121.761 122.355 120.961C121.589 120.946 120.827 120.872 120.073 120.738C119.511 120.641 118.963 120.475 118.444 120.244ZM110.426 115.815C112.041 115.997 113.548 116.697 114.712 117.806C113.457 119.607 112.528 120.308 111.208 120.467C110.288 120.514 109.37 120.354 108.522 120.001C107.675 119.647 106.921 119.109 106.319 118.428C107.949 116.723 108.927 115.894 110.426 115.815ZM110.622 116.548C110.189 116.548 109.775 116.715 109.469 117.014C109.164 117.313 108.992 117.718 108.992 118.141C108.992 118.563 109.164 118.969 109.469 119.268C109.775 119.566 110.189 119.734 110.622 119.734C111.054 119.734 111.468 119.566 111.774 119.268C112.079 118.969 112.251 118.563 112.251 118.141C112.251 117.718 112.079 117.313 111.774 117.014C111.468 116.715 111.054 116.548 110.622 116.548ZM124.343 116.436C123.626 116.07 122.925 115.687 122.224 115.305L121.768 115.862L121.214 116.532C122.253 116.705 123.317 116.673 124.343 116.436ZM58.4737 121.216C58.3454 121.119 58.1878 121.066 58.0256 121.066C57.8634 121.066 57.7058 121.119 57.5774 121.216L47.7997 127.462C47.7026 127.525 47.6224 127.61 47.5657 127.71C47.509 127.81 47.4775 127.921 47.4738 128.035C47.494 128.15 47.5433 128.259 47.6173 128.351C47.6913 128.443 47.7876 128.515 47.8975 128.561C61.3205 139.762 71.2 153.697 76.9846 169.998H78.6527C72.8359 153.564 62.931 139.466 49.5271 128.035L57.9359 122.634C61.1952 125.534 82.2287 144.695 88.2909 169.996H89.7901C86.5309 155.927 78.8114 144.255 72.5536 136.272C68.3405 130.834 63.6276 125.783 58.4737 121.184V121.216ZM93.4127 125.135C92.7092 124.828 92.0379 124.455 91.4083 124.02C90.4415 123.26 89.5667 122.394 88.8009 121.439C86.9779 122.917 84.7834 123.891 82.4454 124.259C86.081 124.752 89.7431 125.034 93.4127 125.104V125.135ZM49.5271 169.604C49.5271 168.728 48.1419 168.011 46.496 168.106C44.8501 168.202 43.5138 168.887 43.5464 169.7C43.5584 169.859 43.5422 169.857 43.621 169.998C45.6235 169.998 46.8707 169.998 49.4002 169.998C49.5107 169.84 49.5021 169.794 49.5271 169.604ZM92.4513 113.154C90.2187 113.154 88.1002 113.026 86.1447 112.915C87.1942 113.58 88.1621 114.36 89.0291 115.241C90.0506 114.374 91.2055 113.67 92.4513 113.154ZM113.327 146.246C112.831 145.706 112.148 145.366 111.409 145.292C110.671 145.219 109.931 145.417 109.334 145.848C109.184 145.113 108.749 144.462 108.121 144.032C107.493 143.602 106.719 143.425 105.961 143.538C102.93 143.729 102.588 146.406 103.076 148.589C103.288 149.529 105.961 155.233 105.961 155.233C105.961 155.233 111.502 152.54 112.284 151.95C114.076 150.564 115.543 148.27 113.327 146.246ZM129.378 122.889C123.173 125.237 116.749 126.992 110.198 128.131C110.119 128.146 110.044 128.178 109.979 128.224C109.914 128.271 109.861 128.332 109.823 128.402L89.9417 163.613C89.8712 163.738 89.854 163.885 89.8936 164.022C89.9333 164.159 90.0267 164.276 90.1535 164.346C90.239 164.368 90.3287 164.368 90.4142 164.346C90.513 164.348 90.6105 164.323 90.6964 164.276C90.7824 164.228 90.8537 164.159 90.9031 164.075L110.67 129.15C117.052 128.019 123.314 126.318 129.378 124.068V122.889ZM103.248 169.996H105.806L129.378 129.501V125.119L103.248 169.996ZM68.6751 162.02L70.8914 160.427C70.8253 160.319 70.7655 160.207 70.7122 160.092L70.5492 159.805C70.044 158.913 69.7181 158.387 69.7181 158.387C65.2093 161.693 61.8209 165.284 58.9026 169.998H62.7435L61.6841 169.206C63.1421 167.18 64.7779 165.282 66.5729 163.534C67.73 164.665 70.1765 167.305 72.5883 169.998H75.8621C73.0429 166.827 68.8218 162.02 68.6751 162.02ZM129.378 155.647V151.233L118.537 169.998H121.096L129.378 155.647ZM121.051 132.704C120.56 132.158 119.877 131.812 119.137 131.735C118.398 131.659 117.656 131.856 117.059 132.289C116.904 131.554 116.466 130.905 115.835 130.477C115.203 130.05 114.427 129.877 113.669 129.995C110.654 130.17 110.296 132.847 110.784 135.03C110.996 135.97 113.669 141.674 113.669 141.674C113.669 141.674 119.226 138.981 119.992 138.392C121.801 136.989 123.267 134.695 121.051 132.688V132.704ZM101.675 159.407C101.517 158.673 101.078 158.027 100.447 157.6C99.8169 157.173 99.0432 156.999 98.2853 157.113C95.2705 157.288 94.912 159.965 95.4009 162.163C95.6127 163.103 98.3016 168.791 98.3016 168.791C98.3016 168.791 103.842 166.115 104.608 165.509C106.417 164.123 107.867 161.845 105.667 159.821C105.17 159.285 104.488 158.946 103.752 158.87C103.016 158.793 102.276 158.985 101.675 159.407ZM92.0276 118.444C92.6407 117.832 93.3921 117.369 94.2213 117.092C95.0505 116.815 95.9345 116.733 96.8024 116.85C98.1257 117.169 99.3397 117.823 100.322 118.746L99.312 119.782C96.7698 122.252 95.3031 121.28 93.9016 120.34C93.2433 119.74 92.6178 119.107 92.0276 118.444ZM96.3135 120.595C96.7457 120.595 97.1602 120.427 97.4658 120.128C97.7714 119.829 97.9431 119.424 97.9431 119.001C97.9431 118.579 97.7714 118.173 97.4658 117.875C97.1602 117.576 96.7457 117.408 96.3135 117.408C95.8813 117.408 95.4668 117.576 95.1612 117.875C94.8555 118.173 94.6838 118.579 94.6838 119.001C94.6838 119.424 94.8555 119.829 95.1612 120.128C95.4668 120.427 95.8813 120.595 96.3135 120.595ZM102.359 137.611L102.995 136.4C93.1133 137.189 83.1662 136.393 73.5477 134.042L74.5418 135.348C83.5699 137.893 93.0216 138.678 102.359 137.659V137.611ZM71.8203 42.9696L75.4381 49.3428L82.2987 48.8966L80.6691 40.6434C77.6543 41.3285 74.6884 42.0933 71.8203 42.9696ZM125.19 51.653L129.378 52.5293V41.8862L125.19 51.653ZM129.378 35.2422V37.0266L128.564 36.8195C127.991 36.6872 127.39 36.7569 126.865 37.0164C126.34 37.2759 125.926 37.7084 125.695 38.2375L119.601 52.3859C119.455 52.7152 119.387 53.072 119.4 53.4305C119.414 53.7889 119.509 54.1398 119.68 54.4575C119.85 54.7752 120.091 55.0517 120.384 55.2666C120.678 55.4816 121.017 55.6297 121.377 55.7C123.463 56.1142 126.738 56.7799 129.378 57.3057V60.0621C116.162 57.1657 102.59 55.7156 89.0454 55.7637C81.0113 55.7637 74.8188 56.2417 71.8529 56.5444H71.2499L70.9729 56.178C64.8944 47.5583 61.3256 42.6191 60.6411 41.8384C60.5504 41.7313 60.5039 41.5949 60.5107 41.456C60.5107 41.456 60.5107 41.3285 60.5107 41.2648C60.5107 41.2011 60.5107 41.1533 60.5107 41.0895C60.4938 40.9786 60.4938 40.8659 60.5107 40.7549C60.6087 40.4144 60.8071 40.1096 61.0811 39.8786L61.7656 39.6078C83.2701 31.2253 106.933 29.6975 129.378 35.2422ZM87.5298 50.6333L84.955 37.5365C84.906 37.214 84.7877 36.9053 84.608 36.6307C84.4282 36.3561 84.1911 36.1218 83.9121 35.9432C83.3818 35.608 82.7388 35.488 82.1195 35.6086C77.1939 36.5074 72.3412 37.7534 67.5996 39.3369C67.2598 39.4534 66.9498 39.6405 66.691 39.8853C66.4322 40.1301 66.2307 40.4267 66.1003 40.7549C65.9741 41.0881 65.9219 41.4437 65.9472 41.7981C65.9725 42.1525 66.0747 42.4975 66.247 42.8103L71.9344 52.8002C72.1547 53.1765 72.4725 53.4895 72.8559 53.7077C73.2392 53.9259 73.6745 54.0415 74.1181 54.043H74.2484L85.2321 53.4534C85.5853 53.4371 85.9307 53.3464 86.2449 53.1877C86.5591 53.0291 86.8345 52.806 87.0526 52.5339C87.2707 52.2617 87.4262 51.9468 87.5085 51.6106C87.5909 51.2744 87.5981 50.9247 87.5298 50.5855V50.6333ZM92.6631 34.1428C92.3182 34.1747 91.9837 34.2761 91.6808 34.4407C91.3779 34.6052 91.1131 34.8293 90.9031 35.0988C90.6939 35.3682 90.5451 35.6777 90.4664 36.0072C90.3878 36.3366 90.3811 36.6786 90.4468 37.0107L93.2661 51.5415C93.3758 52.097 93.6796 52.5978 94.1256 52.9583C94.5716 53.3188 95.1319 53.5163 95.7105 53.5172C101.081 53.3034 106.46 53.4418 111.811 53.9314H112.17C112.681 53.933 113.18 53.781 113.6 53.496C114.019 53.211 114.339 52.8068 114.516 52.3381L119.65 37.9986C119.77 37.6609 119.812 37.3012 119.773 36.9457C119.733 36.5902 119.613 36.2477 119.421 35.9432C119.229 35.6364 118.971 35.3746 118.664 35.1764C118.357 34.9781 118.009 34.8483 117.645 34.796C109.372 33.6357 100.988 33.4165 92.6631 34.1428ZM101.398 48.7373C105.146 48.7373 108.259 48.8329 110.654 49.056L114.223 39.0501C108.061 38.3626 101.849 38.2239 95.6616 38.6359L97.6335 48.7692C98.9209 48.7373 100.192 48.7373 101.398 48.7373ZM38.1198 148.111C36.8161 149.098 36.1968 150.453 36.7346 151.138C37.2724 151.823 38.7879 151.584 40.0916 150.596C41.3953 149.608 42.0146 148.238 41.4768 147.553C40.939 146.868 39.4561 147.107 38.1198 148.111ZM45.0457 160.427C46.6753 159.869 47.6205 158.833 47.3271 157.957C47.0338 157.081 45.5183 156.906 43.9701 157.447C42.422 157.989 41.379 159.041 41.6887 159.917C41.9983 160.793 43.4812 160.968 45.0457 160.427ZM71.2499 131.955C85.1669 136.735 103.94 134.791 103.94 134.791L107.199 128.816C85.8024 131.222 64.5196 124.291 64.5196 124.291C66.0515 126.044 71.2499 131.955 71.2499 131.955ZM103.582 121.726C103.174 122.172 102.816 122.554 102.441 122.905C101.541 123.811 100.481 124.551 99.312 125.088C102.571 124.992 105.439 124.753 108.047 124.418C106.389 123.822 104.87 122.907 103.582 121.726ZM29.3036 144.303C30.0369 144.797 31.3895 144.096 32.3183 142.709C33.2472 141.323 33.3939 139.889 32.6606 139.395C31.9272 138.901 30.5747 139.602 29.6458 140.989C28.7169 142.375 28.5702 143.825 29.3036 144.303ZM65.8233 116.117C66.6055 116.468 68.447 116.834 71.8366 115.369L72.2114 115.209C72.0516 114.255 71.9536 113.292 71.9181 112.325L65.8233 116.117ZM106.173 112.835C103.891 112.995 101.659 113.09 99.4749 113.138C100.866 113.705 102.15 114.496 103.272 115.48C104.089 114.481 105.036 113.592 106.091 112.835H106.173ZM105.586 98.894C99.1194 103.073 92.2005 106.541 84.955 109.234C94.2693 109.65 103.603 109.288 112.854 108.151C110.152 105.648 107.84 102.771 105.993 99.611C105.765 99.372 105.635 99.133 105.505 98.894H105.586ZM83.5536 116.42C84.4155 116.838 85.1851 117.417 85.8187 118.125C84.449 119.256 82.7226 119.892 80.9299 119.925C80.4254 119.903 79.9319 119.774 79.4842 119.545C79.0366 119.317 78.6456 118.995 78.3388 118.603C78.0608 118.277 77.8254 117.918 77.638 117.535C80.7343 116.101 81.598 115.815 83.4721 116.452L83.5536 116.42ZM81.5817 116.42C81.1495 116.42 80.735 116.588 80.4294 116.887C80.1238 117.186 79.9521 117.591 79.9521 118.013C79.9521 118.436 80.1238 118.841 80.4294 119.14C80.735 119.439 81.1495 119.607 81.5817 119.607C81.7957 119.601 82.0066 119.555 82.2022 119.47C82.3979 119.385 82.5746 119.264 82.7221 119.112C82.8696 118.96 82.9852 118.782 83.0621 118.586C83.1391 118.391 83.1759 118.183 83.1706 117.974C83.1652 117.764 83.1178 117.558 83.031 117.367C82.9441 117.176 82.8196 117.003 82.6645 116.859C82.5094 116.714 82.3267 116.601 82.127 116.526C81.9272 116.451 81.7142 116.415 81.5002 116.42H81.5817ZM74.8351 121.375C74.328 120.76 73.8909 120.092 73.5314 119.384H73.3847C71.6607 120.141 69.8116 120.589 67.9255 120.706C70.9524 121.822 74.0635 122.706 77.2306 123.351C76.2796 122.859 75.4378 122.187 74.7536 121.375H74.8351ZM76.3669 112.485C76.3669 112.772 76.3669 113.042 76.3669 113.313C77.2143 112.931 77.9966 112.612 78.7136 112.357L76.2855 112.118L76.3669 112.485Z" fill="#C72F2A"/>
</g>
<path d="M32.3076 75.5977C29.9999 75.5977 27.846 76.5207 26.1537 78.0592C25.9999 78.213 25.846 78.213 25.6922 78.0592C24.1537 76.5207 21.9999 75.5977 19.5383 75.5977C14.6152 75.5977 10.6152 79.5977 10.6152 84.6746C10.6152 89.1361 12.7691 91.4438 18.4614 96.213C20.7691 98.213 24.1537 102.367 25.3845 104.059C25.6922 104.521 26.3076 104.521 26.6152 104.059C27.9999 102.367 31.2306 98.213 33.5383 96.213C39.0768 91.29 41.3845 89.1361 41.3845 84.6746C41.3845 79.5977 37.3845 75.5977 32.3076 75.5977Z" fill="#BF3030"/>
<path d="M30.4381 11.756H36.8761V46.906C36.8761 54.528 36.5801 56.008 36.0621 57.562C33.6941 64.74 25.8501 64.74 24.0741 64.74C17.1181 64.74 14.0101 60.892 13.0481 57.34C12.4561 55.194 12.4561 53.566 12.4561 48.312H18.7461C18.7461 53.936 18.8201 54.75 19.3381 56.082C20.1521 58.08 21.9281 59.19 24.0001 59.19C29.2541 59.264 30.2161 55.416 30.3641 53.27C30.4381 52.234 30.4381 48.46 30.4381 47.276V11.756Z" fill="#BF3030"/>
<defs>
<linearGradient id="paint0_linear_324_104519" x1="92" y1="2" x2="92" y2="182" gradientUnits="userSpaceOnUse">
<stop stop-color="white" stop-opacity="0.85"/>
<stop offset="1" stop-color="white" stop-opacity="0.15"/>
</linearGradient>
<clipPath id="clip0_324_104519">
<rect width="116.757" height="165" fill="white" transform="translate(12.6211 5)"/>
</clipPath>
</defs>
</svg>
