<svg width="184" height="184" viewBox="0 0 184 184" fill="none" xmlns="http://www.w3.org/2000/svg">
<rect x="1" y="1" width="182" height="182" rx="13" stroke="black" stroke-opacity="0.25" stroke-width="2"/>
<rect x="2.5" y="2.5" width="179" height="179" rx="11.5" fill="#E9E9E9" stroke="url(#paint0_linear_324_104527)"/>
<rect x="41.0469" y="30.5" width="101.909" height="123" rx="1.5" fill="#D7D5D7" stroke="#CDCFD6"/>
<path d="M99.1905 94.5898C93.9982 94.5898 89.1521 96.6668 85.3444 100.128C84.9982 100.474 84.6521 100.474 84.3059 100.128C80.8444 96.6668 75.9982 94.5898 70.4597 94.5898C59.3828 94.5898 50.3828 103.59 50.3828 115.013C50.3828 125.051 55.229 130.244 68.0367 140.974C73.229 145.474 80.8444 154.821 83.6136 158.628C84.3059 159.667 85.6905 159.667 86.3828 158.628C89.4982 154.821 96.7675 145.474 101.96 140.974C114.421 129.898 119.614 125.051 119.614 115.013C119.614 103.59 110.614 94.5898 99.1905 94.5898Z" fill="#BF3030"/>
<path d="M32.3076 75.5977C29.9999 75.5977 27.846 76.5207 26.1537 78.0592C25.9999 78.213 25.846 78.213 25.6922 78.0592C24.1537 76.5207 21.9999 75.5977 19.5383 75.5977C14.6152 75.5977 10.6152 79.5977 10.6152 84.6746C10.6152 89.1361 12.7691 91.4438 18.4614 96.213C20.7691 98.213 24.1537 102.367 25.3845 104.059C25.6922 104.521 26.3076 104.521 26.6152 104.059C27.9999 102.367 31.2306 98.213 33.5383 96.213C39.0768 91.29 41.3845 89.1361 41.3845 84.6746C41.3845 79.5977 37.3845 75.5977 32.3076 75.5977Z" fill="#BF3030"/>
<path d="M28.8101 11.756L40.3541 64H33.5461L31.6961 53.936H19.5601L17.7841 64H11.0501L22.2981 11.756H28.8101ZM20.6701 48.312H30.5861L25.4801 21.45L20.6701 48.312Z" fill="#BF3030"/>
<defs>
<linearGradient id="paint0_linear_324_104527" x1="92" y1="2" x2="92" y2="182" gradientUnits="userSpaceOnUse">
<stop stop-color="white" stop-opacity="0.85"/>
<stop offset="1" stop-color="white" stop-opacity="0.15"/>
</linearGradient>
</defs>
</svg>
