<svg width="184" height="184" viewBox="0 0 184 184" fill="none" xmlns="http://www.w3.org/2000/svg">
<rect x="1" y="1" width="182" height="182" rx="13" stroke="black" stroke-opacity="0.25" stroke-width="2"/>
<rect x="2.5" y="2.5" width="179" height="179" rx="11.5" fill="#E9E9E9" stroke="url(#paint0_linear_324_104456)"/>
<rect x="41.0449" y="30.5" width="101.909" height="123" rx="1.5" fill="#D7D5D7" stroke="#CDCFD6"/>
<path d="M83.6154 90.8257C74.2692 103.287 63.5385 115.057 51.7692 125.787C51.0769 126.48 51.0769 127.518 51.7692 128.21C63.5385 138.941 74.2692 150.71 83.6154 163.172C84.3077 164.21 85.6923 164.21 86.3846 163.172C95.7308 150.71 106.462 138.941 118.231 128.21C118.923 127.518 118.923 126.48 118.231 125.787C106.462 115.057 95.7308 103.287 86.3846 90.8257C85.6923 89.7873 84.3077 89.7873 83.6154 90.8257Z" fill="#BF3030"/>
<path d="M25.3846 73.9243C21.2308 79.4627 16.4615 84.6935 11.2308 89.4627C10.9231 89.7704 10.9231 90.232 11.2308 90.5397C16.4615 95.3089 21.2308 100.54 25.3846 106.078C25.6923 106.54 26.3077 106.54 26.6154 106.078C30.7692 100.54 35.5385 95.3089 40.7692 90.5397C41.0769 90.232 41.0769 89.7704 40.7692 89.4627C35.5385 84.6935 30.7692 79.4627 26.6154 73.9243C26.3077 73.4627 25.6923 73.4627 25.3846 73.9243Z" fill="#BF3030"/>
<path d="M20.947 26.556H15.027C14.953 21.524 14.953 18.268 16.507 15.456C18.727 11.534 23.463 11.09 25.683 11.09C30.419 11.09 33.009 13.31 34.119 14.864C36.117 17.454 36.413 21.376 36.413 24.78C36.413 31.588 35.673 35.14 30.345 36.176C36.117 37.582 37.227 39.95 37.227 51.494C37.227 55.49 36.635 58.746 33.971 61.484C32.713 62.742 30.345 64.666 25.535 64.666C22.057 64.666 19.467 63.556 18.061 62.668C13.473 59.708 14.065 53.048 14.139 48.386H20.059C19.985 49.792 19.985 51.272 20.059 53.27C20.133 54.898 20.281 58.968 25.165 58.968C30.419 58.968 30.641 54.676 30.641 52.012C30.715 51.05 30.715 48.238 30.715 46.758C30.715 40.986 28.273 39.358 23.981 39.358C23.315 39.358 22.575 39.358 21.983 39.432V33.586C26.497 33.882 30.197 33.586 30.197 26.112C30.197 19.822 29.827 16.788 25.461 16.788C21.095 16.788 20.651 21.006 20.947 26.556Z" fill="#BF3030"/>
<defs>
<linearGradient id="paint0_linear_324_104456" x1="92" y1="2" x2="92" y2="182" gradientUnits="userSpaceOnUse">
<stop stop-color="white" stop-opacity="0.85"/>
<stop offset="1" stop-color="white" stop-opacity="0.15"/>
</linearGradient>
</defs>
</svg>
