<svg width="184" height="184" viewBox="0 0 184 184" fill="none" xmlns="http://www.w3.org/2000/svg">
<rect x="1" y="1" width="182" height="182" rx="13" stroke="black" stroke-opacity="0.25" stroke-width="2"/>
<rect x="2.5" y="2.5" width="179" height="179" rx="11.5" fill="#E9E9E9" stroke="url(#paint0_linear_324_104460)"/>
<rect x="41.0449" y="30.5" width="101.909" height="123" rx="1.5" fill="#D7D5D7" stroke="#CDCFD6"/>
<path d="M85.6154 90.8257C76.2692 103.287 65.5385 115.057 53.7692 125.787C53.0769 126.48 53.0769 127.518 53.7692 128.21C65.5385 138.941 76.2692 150.71 85.6154 163.172C86.3077 164.21 87.6923 164.21 88.3846 163.172C97.7308 150.71 108.462 138.941 120.231 128.21C120.923 127.518 120.923 126.48 120.231 125.787C108.462 115.057 97.7308 103.287 88.3846 90.8257C87.6923 89.7873 86.3077 89.7873 85.6154 90.8257Z" fill="#BF3030"/>
<path d="M27.3846 73.9243C23.2308 79.4627 18.4615 84.6935 13.2308 89.4627C12.9231 89.7704 12.9231 90.232 13.2308 90.5397C18.4615 95.3089 23.2308 100.54 27.3846 106.078C27.6923 106.54 28.3077 106.54 28.6154 106.078C32.7692 100.54 37.5385 95.3089 42.7692 90.5397C43.0769 90.232 43.0769 89.7704 42.7692 89.4627C37.5385 84.6935 32.7692 79.4627 28.6154 73.9243C28.3077 73.4627 27.6923 73.4627 27.3846 73.9243Z" fill="#BF3030"/>
<path d="M38.857 23.3C38.857 30.922 38.413 34.548 34.639 35.88C34.195 36.028 33.529 36.102 33.233 36.176C33.455 36.25 34.269 36.472 34.861 36.694C39.227 38.618 39.227 43.428 39.227 48.312C39.227 52.456 39.227 55.786 38.043 58.746C35.675 64.592 28.127 64.666 27.461 64.666C22.873 64.666 19.839 62.742 18.433 60.966C16.657 58.746 16.139 55.49 16.139 52.604C16.139 41.652 16.139 37.952 22.207 36.176C17.471 35.362 16.805 32.254 16.805 23.744C16.805 20.118 16.879 11.09 27.831 11.09C32.567 11.09 35.527 13.014 36.933 14.79C38.857 17.38 38.857 21.08 38.857 23.3ZM32.715 24.41C32.789 20.858 32.937 16.27 27.905 16.27C23.243 16.27 22.799 19.97 22.799 24.78C22.799 29.738 22.799 33.438 27.979 33.438C32.493 33.438 32.567 30.034 32.715 24.41ZM32.863 49.348C32.863 44.168 32.863 39.728 27.683 39.728C26.869 39.728 25.537 39.876 24.427 40.69C22.577 42.17 22.577 44.168 22.577 49.644C22.577 55.046 22.577 58.82 27.683 58.82C32.863 58.82 32.863 54.528 32.863 49.348Z" fill="#BF3030"/>
<defs>
<linearGradient id="paint0_linear_324_104460" x1="92" y1="2" x2="92" y2="182" gradientUnits="userSpaceOnUse">
<stop stop-color="white" stop-opacity="0.85"/>
<stop offset="1" stop-color="white" stop-opacity="0.15"/>
</linearGradient>
</defs>
</svg>
