<svg width="184" height="184" viewBox="0 0 184 184" fill="none" xmlns="http://www.w3.org/2000/svg">
<rect x="1" y="1" width="182" height="182" rx="13" stroke="black" stroke-opacity="0.25" stroke-width="2"/>
<rect x="2.5" y="2.5" width="179" height="179" rx="11.5" fill="#E9E9E9" stroke="url(#paint0_linear_324_104454)"/>
<rect x="41.0449" y="30.5" width="101.909" height="123" rx="1.5" fill="#D7D5D7" stroke="#CDCFD6"/>
<path d="M83.6154 90.8257C74.2692 103.287 63.5385 115.057 51.7692 125.787C51.0769 126.48 51.0769 127.518 51.7692 128.21C63.5385 138.941 74.2692 150.71 83.6154 163.172C84.3077 164.21 85.6923 164.21 86.3846 163.172C95.7308 150.71 106.462 138.941 118.231 128.21C118.923 127.518 118.923 126.48 118.231 125.787C106.462 115.057 95.7308 103.287 86.3846 90.8257C85.6923 89.7873 84.3077 89.7873 83.6154 90.8257Z" fill="#BF3030"/>
<path d="M25.3846 73.9243C21.2308 79.4627 16.4615 84.6935 11.2308 89.4627C10.9231 89.7704 10.9231 90.232 11.2308 90.5397C16.4615 95.3089 21.2308 100.54 25.3846 106.078C25.6923 106.54 26.3077 106.54 26.6154 106.078C30.7692 100.54 35.5385 95.3089 40.7692 90.5397C41.0769 90.232 41.0769 89.7704 40.7692 89.4627C35.5385 84.6935 30.7692 79.4627 26.6154 73.9243C26.3077 73.4627 25.6923 73.4627 25.3846 73.9243Z" fill="#BF3030"/>
<path d="M37.005 11.756V16.566C37.005 17.084 36.413 17.676 36.265 18.12C34.933 20.858 34.489 22.042 33.527 24.558C27.755 39.95 27.311 53.122 27.015 64H19.911C20.133 58.45 20.577 45.352 25.979 29.664C26.571 27.962 29.827 19.526 30.567 17.602H14.287V11.756H37.005Z" fill="#BF3030"/>
<defs>
<linearGradient id="paint0_linear_324_104454" x1="92" y1="2" x2="92" y2="182" gradientUnits="userSpaceOnUse">
<stop stop-color="white" stop-opacity="0.85"/>
<stop offset="1" stop-color="white" stop-opacity="0.15"/>
</linearGradient>
</defs>
</svg>
