<svg width="184" height="184" viewBox="0 0 184 184" fill="none" xmlns="http://www.w3.org/2000/svg">
<rect x="1" y="1" width="182" height="182" rx="13" stroke="black" stroke-opacity="0.25" stroke-width="2"/>
<rect x="2.5" y="2.5" width="179" height="179" rx="11.5" fill="#E9E9E9" stroke="url(#paint0_linear_324_104531)"/>
<rect x="41.0449" y="30.5" width="101.909" height="123" rx="1.5" fill="#D7D5D7" stroke="#CDCFD6"/>
<path d="M104.039 119.213C101.962 119.213 99.8854 119.559 97.8084 120.252C101.616 116.79 104.039 112.29 104.039 107.098C104.039 97.0592 95.3854 89.0977 85.0008 89.0977C74.6161 89.0977 65.9623 97.4054 65.9623 107.098C65.9623 112.29 68.3854 117.136 72.1931 120.252C70.1161 119.559 68.3854 119.213 65.9623 119.213C55.5777 119.213 46.9238 127.175 46.9238 137.213C46.9238 147.252 55.5777 155.213 65.9623 155.213C73.5777 155.213 79.8084 151.059 82.9238 145.175C82.5777 150.367 80.8469 158.328 75.6546 163.521C74.9623 164.213 75.3084 164.905 76.3469 164.905H85.0008H93.6546C94.3469 164.905 94.6931 163.867 94.3469 163.521C89.1546 158.328 87.4238 150.713 87.0777 145.175C90.1931 151.059 96.77 155.213 104.039 155.213C114.424 155.213 123.078 147.252 123.078 137.213C123.078 127.521 114.424 119.213 104.039 119.213Z" fill="#24242E"/>
<path d="M34.4608 86.537C33.5377 86.537 32.6146 86.6908 31.6916 86.9985C33.3839 85.46 34.4608 83.46 34.4608 81.1523C34.4608 76.6908 30.6146 73.1523 25.9992 73.1523C21.3839 73.1523 17.5377 76.8447 17.5377 81.1523C17.5377 83.46 18.6146 85.6139 20.3069 86.9985C19.3839 86.6908 18.6146 86.537 17.5377 86.537C12.9223 86.537 9.07617 90.0754 9.07617 94.537C9.07617 98.9985 12.9223 102.537 17.5377 102.537C20.9223 102.537 23.6916 100.691 25.0762 98.0754C24.9223 100.383 24.1531 103.922 21.8454 106.229C21.5377 106.537 21.6916 106.845 22.1531 106.845H25.9992H29.8454C30.1531 106.845 30.3069 106.383 30.1531 106.229C27.8454 103.922 27.0762 100.537 26.9223 98.0754C28.3069 100.691 31.23 102.537 34.4608 102.537C39.0762 102.537 42.9223 98.9985 42.9223 94.537C42.9223 90.2293 39.0762 86.537 34.4608 86.537Z" fill="#24242E"/>
<path d="M20.947 26.556H15.027C14.953 21.524 14.953 18.268 16.507 15.456C18.727 11.534 23.463 11.09 25.683 11.09C30.419 11.09 33.009 13.31 34.119 14.864C36.117 17.454 36.413 21.376 36.413 24.78C36.413 31.588 35.673 35.14 30.345 36.176C36.117 37.582 37.227 39.95 37.227 51.494C37.227 55.49 36.635 58.746 33.971 61.484C32.713 62.742 30.345 64.666 25.535 64.666C22.057 64.666 19.467 63.556 18.061 62.668C13.473 59.708 14.065 53.048 14.139 48.386H20.059C19.985 49.792 19.985 51.272 20.059 53.27C20.133 54.898 20.281 58.968 25.165 58.968C30.419 58.968 30.641 54.676 30.641 52.012C30.715 51.05 30.715 48.238 30.715 46.758C30.715 40.986 28.273 39.358 23.981 39.358C23.315 39.358 22.575 39.358 21.983 39.432V33.586C26.497 33.882 30.197 33.586 30.197 26.112C30.197 19.822 29.827 16.788 25.461 16.788C21.095 16.788 20.651 21.006 20.947 26.556Z" fill="#24242E"/>
<defs>
<linearGradient id="paint0_linear_324_104531" x1="92" y1="2" x2="92" y2="182" gradientUnits="userSpaceOnUse">
<stop stop-color="white" stop-opacity="0.85"/>
<stop offset="1" stop-color="white" stop-opacity="0.15"/>
</linearGradient>
</defs>
</svg>
