<svg width="184" height="184" viewBox="0 0 184 184" fill="none" xmlns="http://www.w3.org/2000/svg">
<rect x="1" y="1" width="182" height="182" rx="13" stroke="black" stroke-opacity="0.25" stroke-width="2"/>
<rect x="2.5" y="2.5" width="179" height="179" rx="11.5" fill="#E9E9E9" stroke="url(#paint0_linear_324_104590)"/>
<rect x="41.0449" y="30.5" width="101.909" height="123" rx="1.5" fill="#D7D5D7" stroke="#CDCFD6"/>
<path d="M101.192 94.5898C96.0002 94.5898 91.154 96.6668 87.3463 100.128C87.0002 100.474 86.654 100.474 86.3079 100.128C82.8463 96.6668 78.0002 94.5898 72.4617 94.5898C61.3848 94.5898 52.3848 103.59 52.3848 115.013C52.3848 125.051 57.2309 130.244 70.0386 140.974C75.2309 145.474 82.8463 154.821 85.6156 158.628C86.3079 159.667 87.6925 159.667 88.3848 158.628C91.5002 154.821 98.7694 145.474 103.962 140.974C116.423 129.898 121.616 125.051 121.616 115.013C121.616 103.59 112.616 94.5898 101.192 94.5898Z" fill="#BF3030"/>
<path d="M34.3076 75.5977C31.9999 75.5977 29.846 76.5207 28.1537 78.0592C27.9999 78.213 27.846 78.213 27.6922 78.0592C26.1537 76.5207 23.9999 75.5977 21.5383 75.5977C16.6152 75.5977 12.6152 79.5977 12.6152 84.6746C12.6152 89.1361 14.7691 91.4438 20.4614 96.213C22.7691 98.213 26.1537 102.367 27.3845 104.059C27.6922 104.521 28.3076 104.521 28.6152 104.059C29.9999 102.367 33.2306 98.213 35.5383 96.213C41.0768 91.29 43.3845 89.1361 43.3845 84.6746C43.3845 79.5977 39.3845 75.5977 34.3076 75.5977Z" fill="#BF3030"/>
<path d="M39.227 58.376V64H16.361V57.784L27.165 39.506C31.605 31.884 32.419 29.812 32.419 24.188C32.419 21.82 32.345 17.084 27.609 17.084C22.947 17.084 22.947 21.524 22.947 24.41V30.404H16.953V23.892C16.953 19.452 17.471 16.418 19.617 14.124C21.171 12.496 23.835 11.09 27.461 11.09C31.531 11.09 33.825 12.644 35.231 14.124C37.895 16.936 38.561 20.34 38.561 24.706C38.561 31.366 36.489 35.732 33.677 40.394L22.947 58.376H39.227Z" fill="#BF3030"/>
<g clip-path="url(#clip0_324_104590)">
<path d="M66.3114 38L67.9314 30.08C68.4354 27.704 68.8314 25.004 69.2634 22.088H69.3354C69.6594 25.04 70.0194 27.812 70.4154 30.044L71.8554 38H76.7154L80.9994 13.736H76.3914L75.2034 23.348C74.8794 26.156 74.5914 28.748 74.2674 31.916H74.1954C73.9074 28.748 73.4754 26.048 73.0434 23.312L71.4234 13.736H67.6074L65.8794 23.384C65.3754 26.3 64.8354 28.928 64.5114 31.916H64.4034C64.1154 28.964 63.8994 26.192 63.5754 23.42L62.3874 13.736H57.4914L61.6314 38H66.3114ZM83.545 13.736V38H88.261V13.736H83.545ZM92.4747 38H103.383V34.004H97.1907V13.736H92.4747V38ZM106.151 37.892C107.087 38.036 108.562 38.18 110.075 38.18C113.423 38.18 115.799 37.388 117.455 35.84C119.579 33.968 120.839 30.476 120.839 25.58C120.839 20.864 119.759 17.66 117.671 15.788C116.123 14.348 113.999 13.628 110.939 13.628C109.067 13.628 107.339 13.808 106.151 14.096V37.892ZM110.867 17.516C111.155 17.408 111.479 17.408 111.803 17.408C114.646 17.408 115.943 20.432 115.943 25.4C115.943 32.096 113.963 34.328 111.695 34.328C111.443 34.328 111.119 34.328 110.867 34.256V17.516Z" fill="#BF3030"/>
<path opacity="0.8" d="M70.157 63L71.507 56.4C71.927 54.42 72.257 52.17 72.617 49.74H72.677C72.947 52.2 73.247 54.51 73.577 56.37L74.777 63H78.827L82.397 42.78H78.557L77.567 50.79C77.297 53.13 77.057 55.29 76.787 57.93H76.727C76.487 55.29 76.127 53.04 75.767 50.76L74.417 42.78H71.237L69.797 50.82C69.377 53.25 68.927 55.44 68.657 57.93H68.567C68.327 55.47 68.147 53.16 67.877 50.85L66.887 42.78H62.807L66.257 63H70.157ZM84.5183 42.78V63H88.4483V42.78H84.5183ZM91.9597 63H101.05V59.67H95.8897V42.78H91.9597V63ZM103.356 62.91C104.136 63.03 105.366 63.15 106.626 63.15C109.416 63.15 111.396 62.49 112.776 61.2C114.546 59.64 115.596 56.73 115.596 52.65C115.596 48.72 114.696 46.05 112.956 44.49C111.666 43.29 109.896 42.69 107.346 42.69C105.786 42.69 104.346 42.84 103.356 43.08V62.91ZM107.286 45.93C107.526 45.84 107.796 45.84 108.066 45.84C110.436 45.84 111.516 48.36 111.516 52.5C111.516 58.08 109.866 59.94 107.976 59.94C107.766 59.94 107.496 59.94 107.286 59.88V45.93Z" fill="#BF3030"/>
<path opacity="0.5" d="M74.0025 84L75.0825 78.72C75.4185 77.136 75.6825 75.336 75.9705 73.392H76.0185C76.2345 75.36 76.4745 77.208 76.7385 78.696L77.6985 84H80.9385L83.7945 67.824H80.7225L79.9305 74.232C79.7145 76.104 79.5225 77.832 79.3065 79.944H79.2585C79.0665 77.832 78.7785 76.032 78.4905 74.208L77.4105 67.824H74.8665L73.7145 74.256C73.3785 76.2 73.0185 77.952 72.8025 79.944H72.7305C72.5385 77.976 72.3945 76.128 72.1785 74.28L71.3865 67.824H68.1225L70.8825 84H74.0025ZM85.4916 67.824V84H88.6356V67.824H85.4916ZM91.4447 84H98.7167V81.336H94.5887V67.824H91.4447V84ZM100.562 83.928C101.186 84.024 102.17 84.12 103.178 84.12C105.41 84.12 106.994 83.592 108.098 82.56C109.514 81.312 110.354 78.984 110.354 75.72C110.354 72.576 109.634 70.44 108.242 69.192C107.21 68.232 105.794 67.752 103.754 67.752C102.506 67.752 101.354 67.872 100.562 68.064V83.928ZM103.706 70.344C103.898 70.272 104.114 70.272 104.33 70.272C106.226 70.272 107.09 72.288 107.09 75.6C107.09 80.064 105.77 81.552 104.258 81.552C104.09 81.552 103.874 81.552 103.706 81.504V70.344Z" fill="#BF3030"/>
</g>
<defs>
<linearGradient id="paint0_linear_324_104590" x1="92" y1="2" x2="92" y2="182" gradientUnits="userSpaceOnUse">
<stop stop-color="white" stop-opacity="0.85"/>
<stop offset="1" stop-color="white" stop-opacity="0.15"/>
</linearGradient>
<clipPath id="clip0_324_104590">
<rect width="74" height="88" fill="white" transform="translate(52.3848 2)"/>
</clipPath>
</defs>
</svg>
