<svg width="184" height="184" viewBox="0 0 184 184" fill="none" xmlns="http://www.w3.org/2000/svg">
<rect x="1" y="1" width="182" height="182" rx="13" stroke="black" stroke-opacity="0.25" stroke-width="2"/>
<rect x="2.5" y="2.5" width="179" height="179" rx="11.5" fill="#E9E9E9" stroke="url(#paint0_linear_324_104590)"/>
<rect x="41.0449" y="30.5" width="101.909" height="123" rx="1.5" fill="#D7D5D7" stroke="#CDCFD6"/>
<path d="M99.1925 94.5898C94.0002 94.5898 89.154 96.6668 85.3463 100.128C85.0002 100.474 84.654 100.474 84.3079 100.128C80.8463 96.6668 76.0002 94.5898 70.4617 94.5898C59.3848 94.5898 50.3848 103.59 50.3848 115.013C50.3848 125.051 55.2309 130.244 68.0386 140.974C73.2309 145.474 80.8463 154.821 83.6156 158.628C84.3079 159.667 85.6925 159.667 86.3848 158.628C89.5002 154.821 96.7694 145.474 101.962 140.974C114.423 129.898 119.616 125.051 119.616 115.013C119.616 103.59 110.616 94.5898 99.1925 94.5898Z" fill="#BF3030"/>
<path d="M32.3076 75.5977C29.9999 75.5977 27.846 76.5207 26.1537 78.0592C25.9999 78.213 25.846 78.213 25.6922 78.0592C24.1537 76.5207 21.9999 75.5977 19.5383 75.5977C14.6152 75.5977 10.6152 79.5977 10.6152 84.6746C10.6152 89.1361 12.7691 91.4438 18.4614 96.213C20.7691 98.213 24.1537 102.367 25.3845 104.059C25.6922 104.521 26.3076 104.521 26.6152 104.059C27.9999 102.367 31.2306 98.213 33.5383 96.213C39.0768 91.29 41.3845 89.1361 41.3845 84.6746C41.3845 79.5977 37.3845 75.5977 32.3076 75.5977Z" fill="#BF3030"/>
<path d="M37.227 58.376V64H14.361V57.784L25.165 39.506C29.605 31.884 30.419 29.812 30.419 24.188C30.419 21.82 30.345 17.084 25.609 17.084C20.947 17.084 20.947 21.524 20.947 24.41V30.404H14.953V23.892C14.953 19.452 15.471 16.418 17.617 14.124C19.171 12.496 21.835 11.09 25.461 11.09C29.531 11.09 31.825 12.644 33.231 14.124C35.895 16.936 36.561 20.34 36.561 24.706C36.561 31.366 34.489 35.732 31.677 40.394L20.947 58.376H37.227Z" fill="#BF3030"/>
<g clip-path="url(#clip0_324_104590)">
<path d="M64.3114 38L65.9314 30.08C66.4354 27.704 66.8314 25.004 67.2634 22.088H67.3354C67.6594 25.04 68.0194 27.812 68.4154 30.044L69.8554 38H74.7154L78.9994 13.736H74.3914L73.2034 23.348C72.8794 26.156 72.5914 28.748 72.2674 31.916H72.1954C71.9074 28.748 71.4754 26.048 71.0434 23.312L69.4234 13.736H65.6074L63.8794 23.384C63.3754 26.3 62.8354 28.928 62.5114 31.916H62.4034C62.1154 28.964 61.8994 26.192 61.5754 23.42L60.3874 13.736H55.4914L59.6314 38H64.3114ZM81.545 13.736V38H86.261V13.736H81.545ZM90.4747 38H101.383V34.004H95.1907V13.736H90.4747V38ZM104.151 37.892C105.087 38.036 106.562 38.18 108.075 38.18C111.423 38.18 113.799 37.388 115.455 35.84C117.579 33.968 118.839 30.476 118.839 25.58C118.839 20.864 117.759 17.66 115.671 15.788C114.123 14.348 111.999 13.628 108.939 13.628C107.067 13.628 105.339 13.808 104.151 14.096V37.892ZM108.867 17.516C109.155 17.408 109.479 17.408 109.803 17.408C112.646 17.408 113.943 20.432 113.943 25.4C113.943 32.096 111.963 34.328 109.695 34.328C109.443 34.328 109.119 34.328 108.867 34.256V17.516Z" fill="#BF3030"/>
<path opacity="0.8" d="M68.157 63L69.507 56.4C69.927 54.42 70.257 52.17 70.617 49.74H70.677C70.947 52.2 71.247 54.51 71.577 56.37L72.777 63H76.827L80.397 42.78H76.557L75.567 50.79C75.297 53.13 75.057 55.29 74.787 57.93H74.727C74.487 55.29 74.127 53.04 73.767 50.76L72.417 42.78H69.237L67.797 50.82C67.377 53.25 66.927 55.44 66.657 57.93H66.567C66.327 55.47 66.147 53.16 65.877 50.85L64.887 42.78H60.807L64.257 63H68.157ZM82.5183 42.78V63H86.4483V42.78H82.5183ZM89.9597 63H99.0497V59.67H93.8897V42.78H89.9597V63ZM101.356 62.91C102.136 63.03 103.366 63.15 104.626 63.15C107.416 63.15 109.396 62.49 110.776 61.2C112.546 59.64 113.596 56.73 113.596 52.65C113.596 48.72 112.696 46.05 110.956 44.49C109.666 43.29 107.896 42.69 105.346 42.69C103.786 42.69 102.346 42.84 101.356 43.08V62.91ZM105.286 45.93C105.526 45.84 105.796 45.84 106.066 45.84C108.436 45.84 109.516 48.36 109.516 52.5C109.516 58.08 107.866 59.94 105.976 59.94C105.766 59.94 105.496 59.94 105.286 59.88V45.93Z" fill="#BF3030"/>
<path opacity="0.5" d="M72.0025 84L73.0825 78.72C73.4185 77.136 73.6825 75.336 73.9705 73.392H74.0185C74.2345 75.36 74.4745 77.208 74.7385 78.696L75.6985 84H78.9385L81.7945 67.824H78.7225L77.9305 74.232C77.7145 76.104 77.5225 77.832 77.3065 79.944H77.2585C77.0665 77.832 76.7785 76.032 76.4905 74.208L75.4105 67.824H72.8665L71.7145 74.256C71.3785 76.2 71.0185 77.952 70.8025 79.944H70.7305C70.5385 77.976 70.3945 76.128 70.1785 74.28L69.3865 67.824H66.1225L68.8825 84H72.0025ZM83.4916 67.824V84H86.6356V67.824H83.4916ZM89.4447 84H96.7167V81.336H92.5887V67.824H89.4447V84ZM98.5619 83.928C99.1859 84.024 100.17 84.12 101.178 84.12C103.41 84.12 104.994 83.592 106.098 82.56C107.514 81.312 108.354 78.984 108.354 75.72C108.354 72.576 107.634 70.44 106.242 69.192C105.21 68.232 103.794 67.752 101.754 67.752C100.506 67.752 99.3539 67.872 98.5619 68.064V83.928ZM101.706 70.344C101.898 70.272 102.114 70.272 102.33 70.272C104.226 70.272 105.09 72.288 105.09 75.6C105.09 80.064 103.77 81.552 102.258 81.552C102.09 81.552 101.874 81.552 101.706 81.504V70.344Z" fill="#BF3030"/>
</g>
<defs>
<linearGradient id="paint0_linear_324_104590" x1="92" y1="2" x2="92" y2="182" gradientUnits="userSpaceOnUse">
<stop stop-color="white" stop-opacity="0.85"/>
<stop offset="1" stop-color="white" stop-opacity="0.15"/>
</linearGradient>
<clipPath id="clip0_324_104590">
<rect width="74" height="88" fill="white" transform="translate(50.3848 2)"/>
</clipPath>
</defs>
</svg>
