<svg width="184" height="184" viewBox="0 0 184 184" fill="none" xmlns="http://www.w3.org/2000/svg">
<rect x="1" y="1" width="182" height="182" rx="13" stroke="black" stroke-opacity="0.25" stroke-width="2"/>
<rect x="2.5" y="2.5" width="179" height="179" rx="11.5" fill="#E9E9E9" stroke="url(#paint0_linear_324_104468)"/>
<rect x="41.0449" y="30.5" width="101.909" height="123" rx="1.5" fill="#D7D5D7" stroke="#CDCFD6"/>
<path d="M85.6154 90.8257C76.2692 103.287 65.5385 115.057 53.7692 125.787C53.0769 126.48 53.0769 127.518 53.7692 128.21C65.5385 138.941 76.2692 150.71 85.6154 163.172C86.3077 164.21 87.6923 164.21 88.3846 163.172C97.7308 150.71 108.462 138.941 120.231 128.21C120.923 127.518 120.923 126.48 120.231 125.787C108.462 115.057 97.7308 103.287 88.3846 90.8257C87.6923 89.7873 86.3077 89.7873 85.6154 90.8257Z" fill="#BF3030"/>
<path d="M27.3846 73.9243C23.2308 79.4627 18.4615 84.6935 13.2308 89.4627C12.9231 89.7704 12.9231 90.232 13.2308 90.5397C18.4615 95.3089 23.2308 100.54 27.3846 106.078C27.6923 106.54 28.3077 106.54 28.6154 106.078C32.7692 100.54 37.5385 95.3089 42.7692 90.5397C43.0769 90.232 43.0769 89.7704 42.7692 89.4627C37.5385 84.6935 32.7692 79.4627 28.6154 73.9243C28.3077 73.4627 27.6923 73.4627 27.3846 73.9243Z" fill="#BF3030"/>
<path d="M18.285 11.756H38.561V17.454H24.205L23.761 30.404C25.759 28.406 28.571 28.11 30.125 28.11C34.565 28.11 36.711 30.774 37.451 31.958C38.043 32.92 39.079 34.622 39.079 42.17C39.079 44.908 39.079 52.53 38.857 54.75C38.191 60.522 34.195 64.666 27.165 64.666C15.917 64.666 15.917 54.972 15.917 51.642C15.917 50.458 15.991 49.644 15.991 48.682H22.133C21.985 54.306 21.911 58.82 27.387 58.82C31.901 58.82 32.419 55.194 32.493 54.084C32.641 52.678 32.715 42.836 32.715 42.54C32.715 38.544 32.715 33.882 27.757 33.882C23.391 33.882 23.391 37.73 23.317 40.024H17.471L18.285 11.756Z" fill="#BF3030"/>
<defs>
<linearGradient id="paint0_linear_324_104468" x1="92" y1="2" x2="92" y2="182" gradientUnits="userSpaceOnUse">
<stop stop-color="white" stop-opacity="0.85"/>
<stop offset="1" stop-color="white" stop-opacity="0.15"/>
</linearGradient>
</defs>
</svg>
