<svg width="184" height="184" viewBox="0 0 184 184" fill="none" xmlns="http://www.w3.org/2000/svg">
<rect x="1" y="1" width="182" height="182" rx="13" stroke="black" stroke-opacity="0.25" stroke-width="2"/>
<rect x="2.5" y="2.5" width="179" height="179" rx="11.5" fill="#E9E9E9" stroke="url(#paint0_linear_324_104456)"/>
<rect x="41.0449" y="30.5" width="101.909" height="123" rx="1.5" fill="#D7D5D7" stroke="#CDCFD6"/>
<path d="M84.6154 90.8257C75.2692 103.287 64.5385 115.057 52.7692 125.787C52.0769 126.48 52.0769 127.518 52.7692 128.21C64.5385 138.941 75.2692 150.71 84.6154 163.172C85.3077 164.21 86.6923 164.21 87.3846 163.172C96.7308 150.71 107.462 138.941 119.231 128.21C119.923 127.518 119.923 126.48 119.231 125.787C107.462 115.057 96.7308 103.287 87.3846 90.8257C86.6923 89.7873 85.3077 89.7873 84.6154 90.8257Z" fill="#BF3030"/>
<path d="M26.3846 73.9243C22.2308 79.4627 17.4615 84.6935 12.2308 89.4627C11.9231 89.7704 11.9231 90.232 12.2308 90.5397C17.4615 95.3089 22.2308 100.54 26.3846 106.078C26.6923 106.54 27.3077 106.54 27.6154 106.078C31.7692 100.54 36.5385 95.3089 41.7692 90.5397C42.0769 90.232 42.0769 89.7704 41.7692 89.4627C36.5385 84.6935 31.7692 79.4627 27.6154 73.9243C27.3077 73.4627 26.6923 73.4627 26.3846 73.9243Z" fill="#BF3030"/>
<path d="M21.947 26.556H16.027C15.953 21.524 15.953 18.268 17.507 15.456C19.727 11.534 24.463 11.09 26.683 11.09C31.419 11.09 34.009 13.31 35.119 14.864C37.117 17.454 37.413 21.376 37.413 24.78C37.413 31.588 36.673 35.14 31.345 36.176C37.117 37.582 38.227 39.95 38.227 51.494C38.227 55.49 37.635 58.746 34.971 61.484C33.713 62.742 31.345 64.666 26.535 64.666C23.057 64.666 20.467 63.556 19.061 62.668C14.473 59.708 15.065 53.048 15.139 48.386H21.059C20.985 49.792 20.985 51.272 21.059 53.27C21.133 54.898 21.281 58.968 26.165 58.968C31.419 58.968 31.641 54.676 31.641 52.012C31.715 51.05 31.715 48.238 31.715 46.758C31.715 40.986 29.273 39.358 24.981 39.358C24.315 39.358 23.575 39.358 22.983 39.432V33.586C27.497 33.882 31.197 33.586 31.197 26.112C31.197 19.822 30.827 16.788 26.461 16.788C22.095 16.788 21.651 21.006 21.947 26.556Z" fill="#BF3030"/>
<defs>
<linearGradient id="paint0_linear_324_104456" x1="92" y1="2" x2="92" y2="182" gradientUnits="userSpaceOnUse">
<stop stop-color="white" stop-opacity="0.85"/>
<stop offset="1" stop-color="white" stop-opacity="0.15"/>
</linearGradient>
</defs>
</svg>
