<svg width="184" height="184" viewBox="0 0 184 184" fill="none" xmlns="http://www.w3.org/2000/svg">
<rect x="1" y="1" width="182" height="182" rx="13" stroke="black" stroke-opacity="0.25" stroke-width="2"/>
<rect x="2.5" y="2.5" width="179" height="179" rx="11.5" fill="#E9E9E9" stroke="url(#paint0_linear_324_104531)"/>
<rect x="41.0449" y="30.5" width="101.909" height="123" rx="1.5" fill="#D7D5D7" stroke="#CDCFD6"/>
<path d="M105.039 119.213C102.962 119.213 100.885 119.559 98.8084 120.252C102.616 116.79 105.039 112.29 105.039 107.098C105.039 97.0592 96.3854 89.0977 86.0008 89.0977C75.6161 89.0977 66.9623 97.4054 66.9623 107.098C66.9623 112.29 69.3854 117.136 73.1931 120.252C71.1161 119.559 69.3854 119.213 66.9623 119.213C56.5777 119.213 47.9238 127.175 47.9238 137.213C47.9238 147.252 56.5777 155.213 66.9623 155.213C74.5777 155.213 80.8084 151.059 83.9238 145.175C83.5777 150.367 81.8469 158.328 76.6546 163.521C75.9623 164.213 76.3084 164.905 77.3469 164.905H86.0008H94.6546C95.3469 164.905 95.6931 163.867 95.3469 163.521C90.1546 158.328 88.4238 150.713 88.0777 145.175C91.1931 151.059 97.77 155.213 105.039 155.213C115.424 155.213 124.078 147.252 124.078 137.213C124.078 127.521 115.424 119.213 105.039 119.213Z" fill="#24242E"/>
<path d="M35.4608 86.537C34.5377 86.537 33.6146 86.6908 32.6916 86.9985C34.3839 85.46 35.4608 83.46 35.4608 81.1523C35.4608 76.6908 31.6146 73.1523 26.9992 73.1523C22.3839 73.1523 18.5377 76.8447 18.5377 81.1523C18.5377 83.46 19.6146 85.6139 21.3069 86.9985C20.3839 86.6908 19.6146 86.537 18.5377 86.537C13.9223 86.537 10.0762 90.0754 10.0762 94.537C10.0762 98.9985 13.9223 102.537 18.5377 102.537C21.9223 102.537 24.6916 100.691 26.0762 98.0754C25.9223 100.383 25.1531 103.922 22.8454 106.229C22.5377 106.537 22.6916 106.845 23.1531 106.845H26.9992H30.8454C31.1531 106.845 31.3069 106.383 31.1531 106.229C28.8454 103.922 28.0762 100.537 27.9223 98.0754C29.3069 100.691 32.23 102.537 35.4608 102.537C40.0762 102.537 43.9223 98.9985 43.9223 94.537C43.9223 90.2293 40.0762 86.537 35.4608 86.537Z" fill="#24242E"/>
<path d="M21.947 26.556H16.027C15.953 21.524 15.953 18.268 17.507 15.456C19.727 11.534 24.463 11.09 26.683 11.09C31.419 11.09 34.009 13.31 35.119 14.864C37.117 17.454 37.413 21.376 37.413 24.78C37.413 31.588 36.673 35.14 31.345 36.176C37.117 37.582 38.227 39.95 38.227 51.494C38.227 55.49 37.635 58.746 34.971 61.484C33.713 62.742 31.345 64.666 26.535 64.666C23.057 64.666 20.467 63.556 19.061 62.668C14.473 59.708 15.065 53.048 15.139 48.386H21.059C20.985 49.792 20.985 51.272 21.059 53.27C21.133 54.898 21.281 58.968 26.165 58.968C31.419 58.968 31.641 54.676 31.641 52.012C31.715 51.05 31.715 48.238 31.715 46.758C31.715 40.986 29.273 39.358 24.981 39.358C24.315 39.358 23.575 39.358 22.983 39.432V33.586C27.497 33.882 31.197 33.586 31.197 26.112C31.197 19.822 30.827 16.788 26.461 16.788C22.095 16.788 21.651 21.006 21.947 26.556Z" fill="#24242E"/>
<defs>
<linearGradient id="paint0_linear_324_104531" x1="92" y1="2" x2="92" y2="182" gradientUnits="userSpaceOnUse">
<stop stop-color="white" stop-opacity="0.85"/>
<stop offset="1" stop-color="white" stop-opacity="0.15"/>
</linearGradient>
</defs>
</svg>
