<svg width="184" height="184" viewBox="0 0 184 184" fill="none" xmlns="http://www.w3.org/2000/svg">
<rect x="1" y="1" width="182" height="182" rx="13" stroke="black" stroke-opacity="0.25" stroke-width="2"/>
<rect x="2.5" y="2.5" width="179" height="179" rx="11.5" fill="#E9E9E9" stroke="url(#paint0_linear_324_104573)"/>
<rect x="41.0449" y="30.5" width="101.909" height="123" rx="1.5" fill="#D7D5D7" stroke="#CDCFD6"/>
<g clip-path="url(#clip0_324_104573)">
<path d="M12.6211 165.201V156.994C30.6697 131.398 65.1292 118.088 72.2481 115.528L72.8806 115.304L72.3616 114.904C71.9206 114.576 71.5533 114.161 71.2827 113.685C71.0121 113.21 70.8441 112.685 70.7893 112.142C70.7344 111.6 70.7939 111.052 70.9641 110.534C71.1342 110.015 71.4113 109.537 71.7778 109.129C72.0493 108.72 72.2672 108.28 72.4265 107.817C72.5139 107.482 72.5214 107.131 72.4482 106.792C72.375 106.454 72.2233 106.136 72.0049 105.865C71.6597 105.394 71.4421 104.843 71.3724 104.266C71.3491 104.066 71.3704 103.864 71.4348 103.673C71.4993 103.482 71.6053 103.308 71.7454 103.162L71.8589 103.066L72.1508 102.842L71.94 102.554C71.3589 101.917 70.8927 101.186 70.5616 100.394V100.282C70.7757 99.3909 70.8846 98.4783 70.886 97.5625C70.886 96.6026 69.9941 95.9627 68.1778 95.4508C67.2123 95.2402 66.3586 94.6873 65.7787 93.8971C65.1989 93.1068 64.9331 92.1341 65.0319 91.1634C65.1616 88.5717 69.2643 83.1645 71.2427 80.6209C73.2211 78.0772 72.2968 76.2535 71.5833 74.3017V74.2217C70.9833 72.622 71.3076 67.6627 71.4697 65.6149V65.487L57.1833 42.0982V42.0022C56.9841 41.3774 56.9841 40.7073 57.1833 40.0825C57.2643 39.8745 57.3454 39.6506 59.3238 38.6587C60.313 38.1628 61.9995 37.3789 64.367 36.467C74.6592 32.9656 98.3558 26.3594 129.378 34.9792V70.8782L128.648 70.7022L128.064 70.5583L128.194 71.1342C128.518 72.622 128.924 74.1098 129.378 75.5656V105.209H129.183L128.34 104.937L128.745 105.721C128.951 106.137 129.162 106.521 129.378 106.873V165.201C129.378 166.474 128.865 167.695 127.953 168.595C127.041 169.495 125.803 170 124.513 170H17.486C16.1957 170 14.9583 169.495 14.046 168.595C13.1336 167.695 12.6211 166.474 12.6211 165.201Z" fill="#E7E7E7"/>
<path d="M129.378 67.7065C121.464 65.7918 101.34 61.4199 96.9453 65.0897C97.1934 70.4145 98.3785 75.6567 100.448 80.5828C102.996 85.8531 105.227 91.2662 107.129 96.7939C107.324 98.1183 107.389 98.6129 107.389 98.6129C107.193 98.0808 106.817 97.6315 106.323 97.3407C105.83 97.05 105.25 96.9358 104.68 97.0173C103.938 96.9917 103.198 97.1219 102.51 97.3993C101.822 97.6767 101.203 98.0949 100.692 98.6261C100.181 99.1573 99.7911 99.7895 99.5477 100.48C99.3044 101.171 99.2133 101.905 99.2804 102.634C99.5886 106.671 104.891 107.995 107.794 106.83C107.794 106.83 108.556 113.962 114.507 116.244C119.325 117.817 124.318 118.808 129.378 119.196V67.7065Z" fill="#F4C900"/>
<path d="M113.889 164.502L116.415 166.992V170.088H111.411V167.008L113.889 164.502ZM128.205 97.9197C127.782 98.1089 127.418 98.4077 127.153 98.7842C126.887 99.1607 126.731 99.601 126.699 100.058C126.705 100.614 126.869 101.157 127.172 101.625C127.476 102.094 127.907 102.469 128.416 102.708C128.571 102.788 128.733 102.852 128.902 102.899C129.001 103.018 129.255 103.258 129.371 103.362V101.878L128.918 101.734C128.603 101.591 128.333 101.368 128.137 101.087C127.94 100.806 127.824 100.479 127.8 100.138C127.808 99.8818 127.885 99.6321 128.025 99.4158C128.165 99.1994 128.361 99.0244 128.594 98.9092C128.702 98.8605 128.823 98.8498 128.938 98.8789C129.053 98.9079 129.3 99.1019 129.371 99.1957V97.9357C129.035 97.8428 128.531 97.8117 128.205 97.9357V97.9197ZM121.581 167.008V170H124.513C125.305 169.994 125.805 169.963 126.634 169.523V167.008L124.108 164.502L121.581 167.008ZM127.606 148.91C128.212 147.941 128.899 146.921 129.371 145.882V165.327C129.38 165.227 129.38 165.428 129.371 165.327L125.565 161.997H122.747L118.99 165.619L115.314 161.997H112.447L108.723 165.683L104.933 161.997H102.18L98.4549 165.986V167.008L100.188 169.13V167.694L103.427 164.502L106.018 167.056V170.088H41.2378C45.1032 162.37 46.819 153.778 46.2096 145.191C44.9216 145.786 43.7444 146.589 42.7277 147.569C42.8296 155.434 40.8658 163.192 37.027 170.088H17.4796C16.1911 170.088 14.9553 169.584 14.0441 168.686C13.133 167.788 12.6211 166.57 12.6211 165.3V156.523C30.9539 130.988 65.7085 117.677 72.057 115.411C71.6862 115.135 71.3634 114.8 71.1014 114.422C70.5805 113.629 70.3281 112.693 70.3805 111.75C70.4329 110.806 70.7873 109.904 71.393 109.171C71.643 108.79 71.8494 108.384 72.0084 107.958C72.0654 107.679 72.0587 107.391 71.9887 107.115C71.9186 106.839 71.7871 106.582 71.6035 106.362C71.215 105.797 70.9808 105.143 70.9233 104.463C70.8944 104.211 70.923 103.955 71.007 103.715C71.0911 103.475 71.2284 103.256 71.4092 103.075C71.4556 103.024 71.5103 102.98 71.5711 102.947C71.1338 102.372 69.9516 100.761 70.1297 100.457C70.1373 100.426 70.1373 100.393 70.1297 100.362C70.3307 99.5027 70.4393 98.6254 70.4536 97.7442C70.4536 97.2654 70.1621 96.5632 68.0082 95.9887C66.9611 95.7597 66.0354 95.1608 65.4058 94.3052C64.7763 93.4496 64.4864 92.3963 64.591 91.3445C64.7206 88.6474 68.8665 83.2371 70.8585 80.6357C72.478 78.4334 71.8788 76.598 71.15 74.6669V74.5871C70.5508 72.9912 70.8423 68.0917 71.0367 65.8414L56.785 42.6365V42.4928C56.5693 41.7904 56.5693 41.0408 56.785 40.3383C56.8984 40.0351 56.9956 39.7957 59.0847 38.7424C60.105 38.2317 61.7893 37.4497 64.17 36.524C74.1623 32.6619 98.7626 25.8863 129.371 35.0629V71.7035L128.4 71.3793C128.626 72.3688 129.047 73.7601 129.371 74.8772V78.0509C128.537 75.7306 127.715 73.4691 127.201 71.0601L125.582 70.6611C126.508 74.48 127.819 78.402 129.371 82.018V85.1917C127.279 80.572 125.587 75.2748 124.448 70.342L122.828 69.9908C123.444 73.2631 124.377 76.4697 125.614 79.5665C126.926 82.8701 128.205 85.6629 129.371 88.1367V90.7699L128.626 89.174C127.46 86.6844 126.003 83.5723 124.578 79.9974C123.27 76.7042 122.289 73.2944 121.646 69.8153L120.027 69.4961C121.203 75.2681 123.152 80.8604 125.825 86.1258C127.007 88.6793 128.335 91.2542 129.371 93.9194V97.0931C129.012 97.0948 128.508 96.9216 128.157 96.9941C127.495 97.2308 126.925 97.6661 126.527 98.2386C126.129 98.8111 125.923 99.4922 125.938 100.186C125.858 101.143 126.102 102.099 126.633 102.905C127.163 103.711 127.95 104.321 128.869 104.639H129.371V105.868H128.918L129.371 106.614V108.644C128.675 107.559 127.914 106.33 127.347 105.229C127.354 105.198 127.354 105.165 127.347 105.133C126.348 104.52 125.589 103.592 125.193 102.5C124.956 102.856 124.691 103.192 124.399 103.506C125.5 105.917 126.933 108.167 128.659 110.193C128.838 109.981 129.152 109.753 129.371 109.582V111.086C129.226 111.345 129.008 111.753 128.95 112.044C128.781 112.924 129.023 113.898 129.371 114.725V116.163C129.164 116.03 128.818 115.852 128.626 115.698C128.556 115.665 128.495 115.616 128.448 115.555C125.209 112.922 122.116 107.256 121.241 105.58C120.77 105.768 120.282 105.912 119.784 106.011C119.973 106.556 120.195 107.088 120.448 107.607C120.885 107.743 121.313 107.908 121.727 108.102C122.677 108.69 123.42 109.553 123.855 110.572C124.29 111.592 124.395 112.719 124.156 113.799C124.089 114.118 123.986 114.429 123.849 114.725C125.331 116.332 127.317 117.73 129.371 118.516V143.087C128.664 144.879 127.68 146.664 126.715 148.335C126.677 148.396 126.651 148.464 126.639 148.534C126.627 148.605 126.629 148.677 126.646 148.747C126.662 148.817 126.693 148.883 126.735 148.941C126.778 148.999 126.832 149.048 126.893 149.085C126.979 149.146 127.08 149.179 127.185 149.181C127.272 149.172 127.356 149.143 127.429 149.096C127.502 149.049 127.563 148.985 127.606 148.91ZM123.476 104.224C123.077 104.57 122.643 104.875 122.181 105.133C123.725 108.091 125.593 110.874 127.752 113.432C127.67 112.903 127.67 112.365 127.752 111.836C127.8 111.579 127.876 111.328 127.978 111.086C126.16 109.021 124.659 106.703 123.525 104.208L123.476 104.224ZM117.5 69.1131C118.121 72.7319 119.119 76.2778 120.48 79.6941C121.889 83.2531 123.266 86.2056 124.497 88.8069C125.762 91.1206 126.803 93.5465 127.606 96.0525L127.995 95.9408C128.271 95.8761 128.553 95.8334 128.837 95.8131C127.703 92.6212 126.278 89.573 124.901 86.5726C122.375 81.0347 119.768 75.4011 118.877 69.2567L117.5 69.1131ZM115.217 68.6822C115.84 72.4473 116.86 76.138 118.261 79.6941C119.719 83.3808 121.193 86.429 122.391 88.8708C123.634 91.0854 124.607 93.4371 125.29 95.877C125.482 96.3955 125.629 96.9295 125.727 97.4729C125.953 97.1578 126.22 96.8734 126.521 96.627C125.814 94.0634 124.82 91.5851 123.557 89.2379C122.391 86.7482 120.934 83.6361 119.508 80.0612C118.072 76.4568 117.03 72.7118 116.399 68.8896L115.217 68.6822ZM112.334 68.1555C113.597 75.6883 116.691 82.519 119.946 89.7007L121.403 92.8925L121.662 93.483C122.747 95.8769 124.367 99.2923 122.456 102.261C122.096 102.826 121.604 103.298 121.021 103.637C120.437 103.976 119.78 104.172 119.104 104.208H118.925C118.41 104.216 117.901 104.103 117.439 103.878C116.977 103.653 116.576 103.323 116.269 102.915C116.102 102.865 115.94 102.801 115.784 102.724C115.276 102.484 114.848 102.108 114.547 101.64C114.246 101.171 114.086 100.629 114.083 100.074C114.112 99.6182 114.265 99.1784 114.528 98.8017C114.79 98.425 115.151 98.1257 115.573 97.9357C115.846 97.8387 116.14 97.8157 116.425 97.8691C116.71 97.9224 116.975 98.0501 117.193 98.2389C117.249 98.2862 117.296 98.3442 117.329 98.4096C117.362 98.475 117.382 98.5463 117.386 98.6193C117.391 98.6924 117.381 98.7655 117.356 98.8345C117.331 98.9035 117.292 98.9667 117.242 99.0206C117.192 99.0744 117.131 99.1177 117.063 99.1478C116.996 99.1779 116.923 99.1942 116.848 99.1957C116.774 99.1972 116.7 99.1839 116.632 99.1567C116.563 99.1294 116.5 99.0886 116.448 99.0369C116.365 98.9859 116.27 98.9589 116.172 98.9589C116.075 98.9589 115.979 98.9859 115.897 99.0369C115.664 99.1521 115.468 99.3271 115.328 99.5435C115.188 99.7598 115.111 100.009 115.103 100.266C115.127 100.606 115.243 100.934 115.44 101.215C115.637 101.496 115.906 101.719 116.221 101.862C116.547 102.044 116.924 102.119 117.297 102.076C117.67 102.033 118.019 101.874 118.294 101.622C118.688 101.16 118.966 100.613 119.104 100.025C119.242 99.4366 119.236 98.8245 119.087 98.2389C118.692 97.685 118.123 97.2742 117.467 97.0695C116.812 96.8649 116.107 96.8776 115.46 97.1058C114.797 97.344 114.227 97.779 113.826 98.3509C113.426 98.9227 113.216 99.603 113.225 100.298C113.188 101.245 113.465 102.177 114.014 102.955C114.564 103.733 115.356 104.312 116.269 104.607C117.043 104.921 117.874 105.073 118.711 105.054C119.547 105.034 120.37 104.844 121.128 104.495C122.604 103.842 123.814 102.717 124.561 101.303C125.031 99.5872 124.952 97.7703 124.335 96.1004C124.335 96.1004 124.335 96.1004 124.335 96.0206C123.677 93.6503 122.742 91.3634 121.549 89.2059C120.351 86.7482 118.877 83.684 117.403 79.9655C115.878 76.2213 114.791 72.3179 114.164 68.3311L112.334 68.1555ZM118.602 106.219H118.537C118.036 106.214 117.537 106.16 117.047 106.059C117.29 106.618 117.549 107.208 117.743 107.655C118.19 107.526 118.656 107.477 119.12 107.511C118.99 107.049 118.828 106.634 118.65 106.123L118.602 106.219ZM115.006 110.623L115.136 110.256C113.869 108.457 112.866 106.491 112.156 104.415C111.794 105.003 111.353 105.54 110.844 106.011C111.719 108.198 113.371 111.741 114.731 112.746L115.055 112.985C114.751 112.193 114.751 111.32 115.055 110.528L115.006 110.623ZM115.67 109.155C115.942 108.732 116.294 108.363 116.707 108.07C116.334 107.32 115.816 106.123 115.605 105.628C114.524 105.162 113.622 104.368 113.03 103.362C113.704 105.355 114.606 107.267 115.719 109.059L115.67 109.155ZM109.629 67.6608C110.226 71.7677 111.314 75.7908 112.868 79.6463C114.277 83.2052 115.67 86.1577 116.901 88.7591C118.187 91.1867 119.203 93.7445 119.93 96.3876C120.075 96.8505 121.225 100.649 119.12 102.388C118.819 102.649 118.466 102.844 118.083 102.963C118.398 103.081 118.735 103.13 119.071 103.107C119.567 103.088 120.05 102.95 120.479 102.705C120.908 102.46 121.27 102.116 121.533 101.702C123.152 99.2444 121.776 96.2919 120.723 93.9299C120.626 93.7224 120.545 93.515 120.464 93.3235L119.006 90.1316C115.654 82.7583 112.528 75.7681 111.249 67.948L109.629 67.6608ZM107.022 67.2777C107.573 73.9168 110.423 80.141 113.176 86.1736C114.618 89.3655 116.124 92.5574 117.29 95.8929C117.796 95.9646 118.284 96.1269 118.731 96.3717C118.002 93.9017 117.031 91.5072 115.832 89.2219C114.65 86.7322 113.192 83.6201 111.783 80.0452C110.188 76.0043 109.101 71.7863 108.544 67.4852L107.022 67.2777ZM104.593 66.9426C105.127 71.3152 106.215 75.6045 107.832 79.7101C109.241 83.269 110.634 86.2215 111.864 88.8229C113.087 91.1715 114.079 93.6298 114.828 96.1642L115.233 96.0525C115.51 95.9878 115.791 95.9451 116.075 95.9248C114.941 92.7329 113.516 89.6847 112.14 86.6844C109.306 80.4921 106.374 74.0924 105.872 67.182L104.593 66.9426ZM102.245 66.6394C102.957 73.0231 106.633 83.3169 109.872 89.4772C111.287 92.0972 112.296 94.9104 112.868 97.824C113.136 97.384 113.475 96.9904 113.873 96.659C113.151 94.1002 112.157 91.6235 110.909 89.2698C109.743 86.7801 108.285 83.668 106.86 80.0931C105.149 75.8369 104.012 71.3782 103.475 66.8309L102.245 66.6394ZM99.9286 66.384C100.026 71.1718 102.261 78.194 106.569 87.4664V87.5621C107.832 90.5604 108.914 93.63 109.808 96.7547V96.9143C109.808 96.9143 111.038 101.112 109.468 103.681C108.988 104.361 108.337 104.907 107.579 105.265C106.821 105.623 105.982 105.781 105.143 105.724C104.456 105.713 103.786 105.509 103.212 105.136C102.639 104.763 102.185 104.236 101.904 103.617C101.457 102.844 101.336 101.927 101.57 101.067C101.803 100.206 102.372 99.4711 103.151 99.0209C103.276 98.9592 103.418 98.9446 103.553 98.9799C103.687 99.0152 103.804 99.098 103.88 99.2125C103.957 99.3255 103.986 99.4634 103.962 99.5972C103.938 99.7311 103.862 99.8505 103.751 99.9306C103.538 100.087 103.381 100.305 103.3 100.554C103.218 100.802 103.217 101.07 103.297 101.319C103.354 101.528 103.454 101.724 103.591 101.894C103.727 102.064 103.897 102.205 104.091 102.309C104.775 102.526 105.517 102.475 106.164 102.165C106.379 102.075 106.562 101.924 106.69 101.73C106.817 101.537 106.882 101.31 106.876 101.08C106.914 100.489 106.8 99.8995 106.545 99.3641C106.29 98.8286 105.903 98.3649 105.419 98.0155C104.842 97.7431 104.208 97.6097 103.569 97.6264C102.93 97.643 102.304 97.8092 101.742 98.1113C101.031 98.4859 100.44 99.0491 100.037 99.7372C99.6334 100.425 99.4332 101.211 99.459 102.005C99.4439 103.295 99.9109 104.544 100.771 105.516C101.298 106.007 101.923 106.386 102.606 106.627C103.289 106.869 104.015 106.969 104.739 106.921C110.65 106.921 111.702 102.388 111.8 101.878C111.8 101.878 112.593 97.409 108.69 89.972C105.451 83.5882 101.597 73.0072 100.917 66.5117L99.9286 66.384ZM97.6128 66.1606C97.9663 70.9505 99.0585 75.6594 100.852 80.125C101.581 81.8806 102.471 83.7478 103.232 85.5512C106.067 91.8233 108.739 97.7442 108.221 101C108.221 101 108.221 101.128 108.221 101.191C108.205 101.624 108.062 102.043 107.809 102.397C107.556 102.752 107.204 103.026 106.795 103.186C106.339 103.396 105.844 103.514 105.341 103.533C104.838 103.552 104.336 103.472 103.864 103.298C103.486 103.104 103.158 102.825 102.909 102.484C102.963 102.721 103.044 102.951 103.151 103.17C103.353 103.602 103.674 103.969 104.078 104.229C104.482 104.489 104.953 104.631 105.435 104.639C106.068 104.666 106.698 104.534 107.265 104.255C107.831 103.975 108.316 103.558 108.674 103.043C109.791 101.191 109.127 97.9357 108.885 97.1537V96.9941C108.005 93.9118 106.923 90.8891 105.646 87.9451V87.8334C101.208 78.3216 98.9407 71.124 98.876 66.2244L97.6128 66.1606ZM107.702 108.98C107.524 108.485 107.395 108.07 107.297 107.751C106.522 107.924 105.728 108.01 104.933 108.006C104.044 108.069 103.153 107.947 102.315 107.647C101.478 107.347 100.715 106.877 100.074 106.266C99.0067 105.074 98.4292 103.532 98.4549 101.942C98.4484 100.963 98.7116 100 99.2164 99.157C99.7212 98.3139 100.449 97.6215 101.321 97.1537C102.068 96.757 102.903 96.5493 103.751 96.5493C104.599 96.5493 105.434 96.757 106.18 97.1537C106.378 97.2841 106.563 97.4338 106.731 97.6006C105.512 93.6443 103.985 89.7867 102.164 86.0619C101.354 84.2585 100.544 82.3753 99.7667 80.6038C97.9387 75.977 96.8462 71.0999 96.5277 66.1446C86.8107 65.3945 77.5633 65.8095 72.6562 69.0812C72.4892 70.8287 72.571 72.5906 72.8991 74.3158V74.4116C73.6441 76.4384 74.5186 78.7366 72.4618 81.3858C70.6804 83.7159 66.5182 89.1421 66.4049 91.5041C66.2991 92.3085 66.508 93.1225 66.9893 93.7806C67.4707 94.4387 68.1882 94.8915 68.9961 95.0471C70.3565 95.4141 72.2351 96.1004 72.2351 97.824C72.2407 98.6282 72.1593 99.4307 71.9922 100.218H72.1541C72.8876 100.138 73.6291 100.265 74.2919 100.585C75.4255 101.255 76.5592 103.665 78.5836 103.282C78.425 103.594 78.1971 103.866 77.9166 104.079C77.6362 104.292 77.3105 104.44 76.9641 104.511C76.0261 104.348 75.1327 103.995 74.3405 103.474C74.2848 103.553 74.2093 103.616 74.1214 103.658C74.0334 103.7 73.9359 103.719 73.8384 103.713C73.5113 103.679 73.1829 103.764 72.9153 103.952C72.8498 104.022 72.8023 104.106 72.7769 104.198C72.7516 104.29 72.749 104.386 72.7695 104.479C72.8166 104.969 72.9955 105.437 73.2878 105.836C73.5627 106.19 73.7523 106.601 73.842 107.037C73.9318 107.474 73.9195 107.926 73.806 108.357C73.6227 108.873 73.3781 109.366 73.0772 109.825C72.5758 110.381 72.274 111.084 72.2184 111.825C72.1628 112.566 72.3565 113.305 72.7695 113.927C74.1137 115.986 79.9763 117.119 82.1141 117.358C82.2113 117.358 91.9769 118.364 97.0945 116.656C101.694 115.028 106.828 109.889 107.751 108.932L107.702 108.98ZM105.257 112.778L108.804 111.501C108.561 111.022 108.334 110.544 108.14 110.097C107.605 110.639 106.552 111.629 105.305 112.73L105.257 112.778ZM110.115 113.576C109.856 113.209 109.597 112.842 109.37 112.475L102.52 114.901C101.985 115.284 101.435 115.651 100.9 115.986C101.678 116.097 102.406 116.177 103.087 116.241C103.116 116.178 103.159 116.121 103.212 116.074C103.265 116.027 103.327 115.992 103.394 115.97L110.115 113.576ZM111.411 115.028L110.86 114.438L105.613 116.305C107.627 116.4 109.63 115.959 111.411 115.028ZM117.986 116.624H118.375C119.224 116.686 120.075 116.527 120.843 116.163C121.61 115.799 122.267 115.243 122.747 114.549C122.899 114.234 123.014 113.902 123.088 113.56C123.272 112.719 123.198 111.844 122.875 111.045C122.552 110.246 121.994 109.56 121.274 109.075C120.759 108.761 120.181 108.56 119.58 108.485C118.98 108.411 118.369 108.465 117.792 108.644C117.378 108.88 117.019 109.199 116.74 109.582C116.46 109.964 116.267 110.401 116.172 110.863C115.973 111.423 115.993 112.037 116.23 112.584C116.467 113.13 116.903 113.57 117.452 113.815C118.16 113.868 118.869 113.736 119.508 113.432C119.739 113.346 119.938 113.193 120.08 112.994C120.221 112.795 120.299 112.558 120.302 112.315C120.312 112.026 120.242 111.739 120.099 111.486C119.957 111.233 119.747 111.023 119.492 110.879C119.303 110.776 119.084 110.741 118.872 110.778C118.66 110.816 118.467 110.925 118.326 111.086C118.223 111.188 118.083 111.244 117.938 111.244C117.792 111.244 117.652 111.188 117.549 111.086C117.498 111.037 117.458 110.979 117.431 110.914C117.404 110.85 117.39 110.781 117.39 110.711C117.39 110.641 117.404 110.572 117.431 110.508C117.458 110.444 117.498 110.385 117.549 110.336C117.848 109.98 118.261 109.735 118.721 109.642C119.18 109.549 119.658 109.614 120.075 109.825C120.504 110.071 120.861 110.423 121.111 110.845C121.361 111.267 121.495 111.746 121.5 112.235C121.492 112.684 121.351 113.12 121.095 113.492C120.839 113.863 120.479 114.153 120.059 114.326C119.364 114.666 118.6 114.846 117.824 114.853H117.452C117.342 114.892 117.222 114.892 117.112 114.853C116.033 114.657 115.021 114.202 114.164 113.528C112.464 112.267 110.747 108.357 110.034 106.618C109.528 106.942 108.985 107.204 108.415 107.4C108.949 109.347 111.411 116.624 118.002 116.624H117.986ZM115.557 150.634C117.543 146.816 119.238 142.858 120.626 138.792C120.649 138.724 120.659 138.652 120.654 138.58C120.649 138.508 120.63 138.438 120.598 138.374C120.565 138.309 120.52 138.252 120.466 138.204C120.411 138.157 120.347 138.121 120.278 138.097C120.209 138.074 120.136 138.065 120.063 138.07C119.99 138.075 119.919 138.093 119.853 138.125C119.788 138.157 119.73 138.201 119.681 138.255C119.633 138.31 119.597 138.372 119.573 138.441C118.236 142.457 116.59 146.368 114.65 150.139C114.611 150.2 114.585 150.267 114.573 150.338C114.562 150.408 114.564 150.481 114.581 150.55C114.597 150.62 114.627 150.686 114.67 150.744C114.712 150.802 114.766 150.851 114.828 150.889C114.924 150.91 115.024 150.91 115.12 150.889C115.208 150.884 115.294 150.858 115.37 150.814C115.446 150.769 115.51 150.708 115.557 150.634ZM119.589 150.139C121.581 146.324 123.276 142.365 124.658 138.297C124.696 138.229 124.718 138.153 124.723 138.076C124.729 137.999 124.717 137.921 124.69 137.849C124.662 137.776 124.619 137.71 124.563 137.655C124.508 137.6 124.441 137.558 124.367 137.531C124.298 137.506 124.224 137.494 124.151 137.498C124.077 137.501 124.005 137.519 123.939 137.55C123.872 137.581 123.813 137.625 123.764 137.68C123.715 137.734 123.678 137.797 123.654 137.866C122.303 141.857 120.646 145.741 118.699 149.484C118.66 149.545 118.634 149.613 118.622 149.683C118.61 149.754 118.613 149.826 118.629 149.896C118.646 149.966 118.676 150.032 118.719 150.09C118.761 150.148 118.815 150.197 118.877 150.235C118.973 150.256 119.072 150.256 119.168 150.235C119.241 150.247 119.316 150.246 119.389 150.229C119.461 150.213 119.529 150.182 119.589 150.139ZM128.691 137.722C128.738 137.581 128.726 137.426 128.658 137.293C128.59 137.16 128.471 137.059 128.327 137.012C128.255 136.989 128.18 136.98 128.106 136.986C128.031 136.991 127.958 137.011 127.891 137.045C127.756 137.112 127.653 137.23 127.606 137.371C126.277 141.33 124.653 145.187 122.747 148.91C122.709 148.971 122.683 149.038 122.671 149.109C122.659 149.18 122.661 149.252 122.678 149.322C122.695 149.391 122.725 149.457 122.767 149.515C122.81 149.573 122.864 149.622 122.926 149.66C123.021 149.688 123.122 149.688 123.217 149.66C123.311 149.662 123.404 149.639 123.487 149.595C123.569 149.55 123.638 149.484 123.687 149.405C125.653 145.614 127.326 141.682 128.691 137.643V137.722ZM75.3446 92.6851C75.1502 93.9618 74.2595 94.9194 74.9235 94.9194C75.5875 94.9194 76.2029 93.5948 76.2029 92.6851C76.2029 91.7754 76.2029 91.0891 74.4862 89.7326C75.0435 90.6198 75.3406 91.6417 75.3446 92.6851ZM79.6362 70.0866C74.7777 70.8367 77.1098 73.1668 77.7252 73.2785C79.4304 72.5863 81.2935 72.3603 83.1182 72.6241C86.2011 72.9216 89.2031 73.7707 91.9769 75.1298C92.8514 75.6085 92.1874 74.7467 92.1874 74.7467C92.1874 74.7467 85.1426 69.1929 79.6362 70.0387V70.0866ZM74.0166 96.1163C74.0166 96.1163 73.3688 98.2549 74.9397 98.989C76.5106 99.7232 80.948 101.287 81.9035 101.702C82.9042 101.951 83.946 101.994 84.9644 101.83C82.6409 100.113 80.2005 98.5564 77.6604 97.1697C75.2798 96.0844 74.1623 95.7333 74.0166 96.1163ZM87.588 78.976C85.9685 77.8429 84.349 76.5023 84.349 76.5023H84.2518C85.565 78.3045 87.3353 79.7353 89.3857 80.6517C89.3857 80.6517 90.1954 80.939 90.1954 80.6517C90.1954 80.3644 89.2075 80.1091 87.588 78.976ZM84.5109 79.1036C86.3483 79.5633 88.0546 80.4313 89.499 81.6412H88.4625C88.094 81.4738 87.6886 81.4006 87.2838 81.4285C86.879 81.4564 86.4879 81.5844 86.1467 81.8008C84.6957 82.3474 83.1484 82.6025 81.5958 82.5509C81.1527 82.5784 80.7238 82.7156 80.3488 82.9499C80.4948 83.6664 80.4492 84.4081 80.2164 85.102C79.9835 85.7959 79.5715 86.4182 79.0208 86.9078C79.6121 85.2609 79.779 83.4951 79.5067 81.7689C79.28 80.4921 78.9399 79.0877 78.7455 77.8269C76.3648 76.5821 76.0085 75.2255 76.0085 75.2255C76.7301 76.014 77.6363 76.6167 78.6483 76.981C78.4668 76.1027 78.5984 75.1895 79.0208 74.3956C79.4777 75.4849 79.9912 76.5503 80.5594 77.5875C80.6125 77.6972 80.672 77.8037 80.7375 77.9067C81.9521 78.3216 83.3125 78.7845 84.5109 79.1036ZM82.3894 80.1091C82.3322 79.8556 82.2181 79.618 82.0556 79.4137C81.8931 79.2093 81.6862 79.0434 81.4501 78.9281L81.2072 78.8483L81.4015 79.2154C81.5291 79.467 81.5797 79.7498 81.5473 80.0293C81.5331 80.5301 81.3759 81.0169 81.0938 81.4337C81.3392 81.5497 81.5937 81.6458 81.855 81.721C82.0551 81.5051 82.2063 81.2497 82.2984 80.9718C82.3906 80.6938 82.4216 80.3998 82.3894 80.1091ZM86.6163 80.6357C85.6284 80.2208 84.4462 79.8697 83.1992 79.4867C83.2963 79.8127 83.3347 80.153 83.3125 80.4921C83.2607 81.0109 83.0583 81.5041 82.7295 81.9125C83.0359 81.9521 83.3462 81.9521 83.6526 81.9125C84.7215 81.6996 85.7319 81.2644 86.6163 80.6357ZM70.6156 92.6851C68.2997 92.7808 69.2714 94.1214 70.6156 93.8182C71.6266 93.687 72.6545 93.7741 73.6279 94.0735C73.2792 93.6171 72.8222 93.2519 72.2971 93.0098C71.772 92.7678 71.1946 92.6563 70.6156 92.6851Z" fill="#24242E"/>
<path d="M95.9887 138.533C95.9887 138.533 115.643 138.084 129.378 136.176L129.378 120.591C115.151 123.195 100.711 124.337 86.2427 124.314C88.4319 128.674 95.9887 138.533 95.9887 138.533ZM114.07 128.77C114.065 128.713 114.074 128.656 114.097 128.603C114.119 128.551 114.154 128.504 114.199 128.468C114.243 128.432 114.296 128.407 114.353 128.395C114.41 128.384 114.468 128.386 114.524 128.402C115.589 128.756 116.671 129.055 117.767 129.299C117.313 128.969 116.973 128.509 116.793 127.981C116.613 127.454 116.602 126.884 116.762 126.35C117.41 124.217 119.81 124.025 122.048 125.292C122.924 125.772 125.032 126.895 126.232 127.424C126.341 127.48 126.437 127.56 126.512 127.657C126.587 127.754 126.639 127.866 126.666 127.985C126.692 128.104 126.691 128.228 126.664 128.347C126.637 128.466 126.583 128.578 126.508 128.674C125.502 130.005 123.556 132.57 122.94 133.307C122.113 134.333 118.983 136.225 117.41 133.307C117.244 132.842 117.201 132.343 117.286 131.857C117.371 131.372 117.582 130.916 117.897 130.534C116.749 131.2 115.564 131.8 114.345 132.329C114.287 132.353 114.222 132.361 114.16 132.352C114.097 132.342 114.038 132.317 113.988 132.278C113.938 132.239 113.9 132.187 113.878 132.128C113.855 132.07 113.848 132.006 113.859 131.944C114.051 130.898 114.121 129.833 114.07 128.77ZM96.6049 129.828C96.6018 129.771 96.6131 129.713 96.6376 129.661C96.6621 129.609 96.6992 129.564 96.7455 129.529C96.7919 129.494 96.8462 129.471 96.9037 129.462C96.9611 129.452 97.02 129.457 97.0752 129.476C98.1389 129.851 99.2214 130.172 100.318 130.437C99.8851 130.1 99.5651 129.64 99.4001 129.12C99.2352 128.599 99.2331 128.042 99.3941 127.52C100.075 125.404 102.491 125.276 104.713 126.574C105.556 127.087 107.648 128.177 108.848 128.786C108.955 128.846 109.048 128.927 109.119 129.026C109.191 129.124 109.24 129.237 109.263 129.356C109.286 129.475 109.283 129.597 109.253 129.715C109.224 129.833 109.168 129.942 109.091 130.037C108.07 131.351 106.059 133.884 105.443 134.605C104.567 135.615 101.421 137.443 99.8968 134.605C99.7457 134.138 99.7155 133.641 99.809 133.159C99.9025 132.678 100.117 132.227 100.432 131.848C99.2632 132.46 98.0552 132.995 96.8157 133.451C96.7555 133.471 96.6913 133.475 96.629 133.463C96.5668 133.452 96.5086 133.425 96.4599 133.384C96.4112 133.344 96.3737 133.293 96.3508 133.234C96.3279 133.176 96.3205 133.113 96.3292 133.05C96.5526 131.991 96.6452 130.909 96.6049 129.828ZM91.4806 135.776C92.4211 137.138 92.6806 138.565 92.0968 138.982C91.513 139.399 90.2481 138.597 89.3238 137.235C88.3995 135.872 88.1076 134.429 88.7076 134.028C89.3076 133.628 90.54 134.397 91.4806 135.776ZM96.4914 143.102C97.4157 144.464 97.6914 145.907 97.0914 146.308C96.4914 146.709 95.259 145.907 94.3184 144.545C93.3779 143.182 93.1184 141.739 93.7184 141.338C94.3184 140.938 95.5508 141.739 96.4914 143.102ZM101.502 150.428C102.427 151.807 102.702 153.233 102.102 153.634C101.502 154.035 100.27 153.249 99.3292 151.871C98.3887 150.492 98.1292 149.081 98.7292 148.664C99.3292 148.248 100.562 149.065 101.502 150.428ZM129.378 149.963V152.255C121.842 153.097 114.255 153.402 106.675 153.169L104.891 151.149C113.07 151.251 121.248 150.854 129.378 149.963ZM129.378 42.284V59.0041C126.626 57.9834 123.802 57.1637 120.929 56.5514L120.735 43.4863C123.569 42.8065 126.464 42.4038 129.378 42.284ZM12.6211 163.225V158.784C29.3076 137.175 53.6157 125.292 59.3563 122.823L60.8481 125.003C54.459 127.824 29.0643 140.429 12.6211 163.225ZM17.7941 170.001H17.486C16.6239 169.996 15.757 169.767 15.0155 169.332C32.0588 144.805 59.2265 132.329 64.3508 130.149L65.8427 132.329C60.1509 134.782 34.5779 146.757 17.7941 170.001ZM84.5563 32.938C70.1238 35.006 60.6373 39.671 58.8536 40.7611C58.8377 40.8942 58.8377 41.0287 58.8536 41.1618L71.5346 62.0019C75.8157 60.1904 92.6644 55.0664 129.378 65.5666V62.3604C126.089 61.0614 122.637 60.0627 119.162 59.3889C118.807 59.305 118.496 59.0956 118.286 58.8002C118.077 58.5049 117.985 58.144 118.027 57.7858L117.783 42.5565C117.773 42.2518 117.863 41.9519 118.038 41.701C118.213 41.45 118.465 41.261 118.756 41.1618C122.204 40.1138 125.774 39.5051 129.378 39.3504V36.6251C114.898 32.1315 99.5887 30.8721 84.5563 32.938ZM86.9238 55.3812C86.8807 55.7313 86.7108 56.0541 86.4454 56.2899C86.1801 56.5257 85.8373 56.6585 85.4806 56.6636C82.0529 56.8092 78.645 57.2545 75.2968 57.9942C75.1838 58.01 75.0692 58.01 74.9563 57.9942C74.6999 57.9944 74.448 57.9278 74.226 57.8011C74.004 57.6745 73.8196 57.4923 73.6914 57.2728L66.0373 44.1596C65.8734 43.877 65.8098 43.5482 65.8568 43.2257C65.9039 42.9032 66.0587 42.6055 66.2968 42.3802C69.186 39.9783 72.4078 37.9971 75.8644 36.4969C76.0956 36.4045 76.3454 36.3661 76.5941 36.3847C80.3404 36.7942 84.035 37.5784 87.6211 38.7252C87.9487 38.8372 88.2266 39.0584 88.4071 39.351C88.5876 39.6435 88.6595 39.989 88.6103 40.3282L86.9238 55.3812ZM104.47 34.5411C108.119 35.834 111.585 37.585 114.783 39.7511C115.056 39.9383 115.256 40.2118 115.351 40.5266C115.445 40.8414 115.428 41.1786 115.302 41.4825L109.367 56.0865C109.259 56.3566 109.072 56.5884 108.829 56.7514C108.586 56.9144 108.299 57.0012 108.005 57.0003H107.697C104.324 56.3654 100.898 56.0434 97.4644 56.0384C97.1409 56.0366 96.8267 55.9308 96.5693 55.7371C96.312 55.5433 96.1252 55.2721 96.0373 54.9644L91.9995 40.216C91.9225 39.9137 91.9455 39.5948 92.0651 39.3063C92.1848 39.0178 92.3948 38.7748 92.6644 38.6129C96.1539 36.8065 99.8583 35.4386 103.691 34.5411C103.946 34.469 104.215 34.469 104.47 34.5411ZM76.7725 39.3504C79.7613 39.6875 82.7136 40.2883 85.5941 41.1458L84.1346 53.7781C81.301 53.9682 78.4837 54.3484 75.7022 54.9163L69.2157 43.839C71.5579 42.0696 74.0925 40.5641 76.7725 39.3504ZM86.5022 128.466C87.4427 129.844 87.7184 131.271 87.1184 131.672C86.5184 132.073 85.2698 131.287 84.3454 129.908C83.4211 128.53 83.1292 127.119 83.7292 126.702C84.3292 126.285 85.5941 127.071 86.4698 128.434L86.5022 128.466ZM98.5995 53.1208L95.113 40.5366C97.9537 39.2484 100.913 38.2338 103.951 37.5068C106.796 38.5413 109.515 39.8855 112.059 41.5145L107.032 53.8903C104.232 53.4382 101.403 53.1758 98.5671 53.1048L98.5995 53.1208ZM106.529 157.786C107.47 159.149 107.745 160.575 107.145 160.992C106.545 161.409 105.313 160.607 104.372 159.245C103.432 157.882 103.172 156.439 103.756 156.039C104.34 155.638 105.572 156.375 106.497 157.77L106.529 157.786ZM36.7995 144.545C36.7995 144.353 36.8764 144.17 37.0132 144.034C37.1501 143.899 37.3357 143.823 37.5292 143.823C37.7228 143.823 37.9084 143.899 38.0452 144.034C38.1821 144.17 38.259 144.353 38.259 144.545C38.259 144.736 38.1821 144.919 38.0452 145.055C37.9084 145.19 37.7228 145.266 37.5292 145.266C37.3357 145.266 37.1501 145.19 37.0132 145.055C36.8764 144.919 36.7995 144.736 36.7995 144.545ZM81.459 121.108C82.3995 122.47 82.6752 123.897 82.0752 124.314C81.4752 124.73 80.2427 123.929 79.3022 122.566C78.3617 121.204 78.1022 119.761 78.686 119.36C79.2698 118.959 80.5346 119.729 81.459 121.108ZM31.5779 148.632C31.582 148.438 31.6619 148.253 31.801 148.116C31.94 147.978 32.1273 147.899 32.3238 147.895C32.5188 147.899 32.7044 147.979 32.8408 148.117C32.9773 148.254 33.0536 148.44 33.0536 148.632C33.0536 148.727 33.0347 148.821 32.998 148.908C32.9613 148.996 32.9076 149.076 32.8398 149.143C32.7721 149.21 32.6916 149.263 32.6031 149.299C32.5146 149.335 32.4197 149.354 32.3238 149.354C32.1288 149.354 31.9415 149.278 31.802 149.144C31.6626 149.009 31.5821 148.825 31.5779 148.632ZM36.7022 141.627C36.698 141.82 36.6175 142.003 36.4781 142.138C36.3386 142.273 36.1513 142.348 35.9563 142.348C35.7627 142.348 35.5771 142.272 35.4403 142.137C35.3034 142.002 35.2265 141.818 35.2265 141.627C35.2265 141.434 35.3029 141.249 35.4393 141.111C35.5757 140.973 35.7613 140.894 35.9563 140.89C36.1528 140.894 36.3401 140.973 36.4792 141.11C36.6182 141.247 36.6981 141.433 36.7022 141.627ZM26.9725 152.993C26.9725 152.801 27.0494 152.618 27.1862 152.483C27.3231 152.347 27.5087 152.271 27.7022 152.271C27.8973 152.271 28.0846 152.347 28.224 152.482C28.3635 152.617 28.4439 152.8 28.4482 152.993C28.444 153.187 28.3641 153.372 28.2251 153.51C28.0861 153.647 27.8988 153.726 27.7022 153.73C27.5989 153.739 27.4949 153.727 27.3968 153.694C27.2987 153.661 27.2086 153.608 27.1323 153.538C27.056 153.469 26.9952 153.385 26.9537 153.291C26.9122 153.197 26.891 153.095 26.8914 152.993H26.9725ZM129.378 159.643C123.443 160.087 117.571 159.998 111.621 159.854L109.902 157.882C109.902 157.882 119.081 158.15 129.378 157.252V159.643ZM97.7887 170.001H94.3833L61.4319 121.749L63.913 120.402L97.7887 170.001ZM26.8914 150.091C26.8872 150.284 26.8067 150.467 26.6673 150.602C26.5278 150.737 26.3405 150.813 26.1455 150.813C25.9519 150.813 25.7663 150.737 25.6295 150.601C25.4926 150.466 25.4157 150.283 25.4157 150.091C25.4157 149.898 25.492 149.713 25.6284 149.575C25.7649 149.438 25.9504 149.358 26.1455 149.354C26.342 149.358 26.5293 149.437 26.6683 149.574C26.8073 149.712 26.8873 149.897 26.8914 150.091ZM31.5779 145.715C31.5779 145.906 31.501 146.09 31.3642 146.225C31.2273 146.36 31.0417 146.436 30.8482 146.436C30.6546 146.436 30.469 146.36 30.3322 146.225C30.1953 146.09 30.1184 145.906 30.1184 145.715C30.1184 145.523 30.1953 145.34 30.3322 145.205C30.469 145.069 30.6546 144.993 30.8482 144.993C31.0417 144.993 31.2273 145.069 31.3642 145.205C31.501 145.34 31.5779 145.523 31.5779 145.715ZM58.286 128.225C58.286 128.417 58.2091 128.6 58.0723 128.735C57.9354 128.871 57.7498 128.947 57.5563 128.947C57.3627 128.947 57.1771 128.871 57.0403 128.735C56.9034 128.6 56.8265 128.417 56.8265 128.225C56.8265 128.034 56.9034 127.85 57.0403 127.715C57.1771 127.58 57.3627 127.504 57.5563 127.504C57.7498 127.504 57.9354 127.58 58.0723 127.715C58.2091 127.85 58.286 128.034 58.286 128.225ZM52.5779 131.127C52.58 131.223 52.5628 131.318 52.5271 131.408C52.4914 131.497 52.4379 131.579 52.37 131.647C52.302 131.716 52.2208 131.771 52.1312 131.808C52.0416 131.845 51.9454 131.864 51.8482 131.864C51.7421 131.88 51.6339 131.873 51.5309 131.843C51.4279 131.814 51.3325 131.762 51.2513 131.693C51.1701 131.624 51.105 131.538 51.0603 131.442C51.0156 131.346 50.9925 131.241 50.9925 131.135C50.9925 131.029 51.0156 130.924 51.0603 130.828C51.105 130.731 51.1701 130.646 51.2513 130.576C51.3325 130.507 51.4279 130.456 51.5309 130.426C51.6339 130.397 51.7421 130.39 51.8482 130.405C52.0417 130.405 52.2273 130.481 52.3641 130.617C52.501 130.752 52.5779 130.935 52.5779 131.127ZM41.713 137.796C41.7131 137.988 41.6367 138.174 41.5003 138.311C41.3639 138.449 41.1783 138.529 40.9833 138.533C40.7868 138.529 40.5994 138.45 40.4604 138.312C40.3214 138.175 40.2415 137.99 40.2373 137.796C40.2416 137.603 40.322 137.419 40.4615 137.284C40.6009 137.15 40.7882 137.074 40.9833 137.074C41.1768 137.074 41.3624 137.15 41.4993 137.285C41.6361 137.421 41.713 137.604 41.713 137.796ZM58.286 131.127C58.2902 130.934 58.3707 130.751 58.5101 130.616C58.6496 130.481 58.8369 130.405 59.0319 130.405C59.2088 130.431 59.3704 130.519 59.4872 130.653C59.6039 130.787 59.6682 130.958 59.6682 131.135C59.6682 131.312 59.6039 131.482 59.4872 131.616C59.3704 131.75 59.2088 131.838 59.0319 131.864C58.934 131.864 58.837 131.845 58.7465 131.808C58.656 131.771 58.5737 131.717 58.5045 131.648C58.4352 131.58 58.3803 131.498 58.3428 131.409C58.3053 131.319 58.286 131.224 58.286 131.127ZM52.5779 134.044C52.5821 133.852 52.6626 133.668 52.802 133.533C52.9414 133.398 53.1288 133.323 53.3238 133.323C53.5174 133.323 53.703 133.399 53.8398 133.534C53.9767 133.67 54.0536 133.853 54.0536 134.044C54.0536 134.236 53.9767 134.419 53.8398 134.554C53.703 134.69 53.5174 134.766 53.3238 134.766C53.1288 134.766 52.9414 134.69 52.802 134.555C52.6626 134.421 52.5821 134.237 52.5779 134.044ZM47.0157 137.251C47.0136 137.154 47.0308 137.059 47.0665 136.97C47.1022 136.88 47.1557 136.799 47.2236 136.73C47.2916 136.661 47.3728 136.607 47.4624 136.57C47.552 136.532 47.6482 136.513 47.7455 136.513C47.8515 136.498 47.9597 136.505 48.0627 136.534C48.1657 136.564 48.2611 136.615 48.3423 136.684C48.4235 136.753 48.4886 136.839 48.5333 136.935C48.578 137.032 48.6011 137.137 48.6011 137.243C48.6011 137.349 48.578 137.453 48.5333 137.55C48.4886 137.646 48.4235 137.732 48.3423 137.801C48.2611 137.87 48.1657 137.921 48.0627 137.951C47.9597 137.98 47.8515 137.988 47.7455 137.972C47.5547 137.972 47.3715 137.898 47.2351 137.766C47.0987 137.634 47.02 137.455 47.0157 137.267V137.251ZM41.713 140.697C41.7172 140.503 41.7971 140.318 41.9361 140.18C42.0751 140.043 42.2624 139.964 42.459 139.96C42.654 139.964 42.8396 140.043 42.976 140.181C43.1124 140.319 43.1887 140.504 43.1887 140.697C43.1887 140.888 43.1118 141.072 42.975 141.207C42.8381 141.343 42.6525 141.419 42.459 141.419C42.2666 141.419 42.0816 141.345 41.9426 141.214C41.8037 141.083 41.7214 140.903 41.713 140.713V140.697ZM47.0157 134.285C47.0115 134.478 46.931 134.661 46.7916 134.796C46.6522 134.931 46.4648 135.006 46.2698 135.006C46.0762 135.006 45.8906 134.93 45.7538 134.795C45.6169 134.66 45.54 134.476 45.54 134.285C45.54 134.094 45.6169 133.91 45.7538 133.775C45.8906 133.639 46.0762 133.563 46.2698 133.563C46.372 133.563 46.4731 133.584 46.5669 133.624C46.6608 133.664 46.7453 133.723 46.8152 133.796C46.8852 133.87 46.939 133.957 46.9735 134.052C47.008 134.147 47.0224 134.248 47.0157 134.349V134.285Z" fill="#C72F2A"/>
<path d="M73.2962 169.998H69.3786L65.9748 165.06C65.9635 165.038 65.9576 165.014 65.9576 164.99C65.9576 164.965 65.9635 164.941 65.9748 164.919C66.2414 163.562 66.4131 162.189 66.4886 160.809C66.487 160.769 66.4996 160.73 66.5243 160.699C66.549 160.667 66.5843 160.644 66.6241 160.635C66.664 160.626 66.7058 160.63 66.7426 160.648C66.7794 160.665 66.8088 160.695 66.8257 160.731L73.2962 169.998ZM65.2683 167.123C65.0286 168.102 64.7174 169.063 64.3371 169.998H67.6606L65.6055 167.06C65.583 167.041 65.5559 167.026 65.5265 167.018C65.4972 167.011 65.4664 167.01 65.4366 167.016C65.4069 167.022 65.379 167.035 65.3554 167.054C65.3317 167.072 65.3129 167.096 65.3005 167.123H65.2683ZM29.9459 165.982C29.9459 165.982 31.7281 168.842 32.579 169.998H36.5769C36.4739 168.819 36.0771 167.682 35.4209 166.685C34.1707 165.693 32.8685 164.764 31.5193 163.904C30.9092 163.669 30.6202 162.841 31.0858 162.544C31.5515 162.247 32.2418 163.153 32.2418 163.153L34.2006 164.56C34.2006 164.56 35.164 165.326 35.8062 165.154C37.0908 164.723 38.3279 164.168 39.499 163.497C38.9426 162.372 38.1872 161.351 37.2673 160.481C36.5448 160.059 32.9965 160.653 32.563 160.731C32.1295 160.809 31.9047 160.95 31.4712 160.356C31.0377 159.762 32.1937 159.528 32.1937 159.528C34.1583 159.334 36.0993 158.958 37.9898 158.402C39.5151 157.762 40.4784 155.386 40.4784 155.386C39.1971 155.024 37.8596 154.886 36.5287 154.98C30.6412 158.815 25.7804 163.964 22.3516 169.998H24.2622C24.0989 169.458 24.0989 168.883 24.2622 168.342C24.6315 167.701 24.9205 168.654 24.9205 168.654L25.2255 169.998H26.9916C27.0102 169.387 26.978 168.776 26.8953 168.17C26.799 167.873 26.8953 167.154 27.3609 167.154C27.8265 167.154 27.6339 167.748 27.6339 167.748V169.998H31.0216C30.3838 168.927 29.8102 167.821 29.3037 166.685C29.1271 165.966 29.978 165.982 29.978 165.982H29.9459ZM85.7554 136.664L79.2368 139.914L81.6291 143.384L88.1958 140.118L87.3609 138.93L82.0465 141.587L81.2116 140.399L86.526 137.742L85.7554 136.664ZM74.6288 120.864L68.2065 123.99L70.6149 127.459L77.0371 124.333L76.2344 123.208L71.3053 125.693L70.4704 124.521L75.4797 122.02L74.6288 120.864ZM60.9173 144.556C60.4516 142.009 57.2726 139.696 57.2726 139.696C55.464 140.391 53.7954 141.39 52.3435 142.649C58.7176 145.603 60.9173 144.556 60.9173 144.556ZM50.9467 167.857C50.9467 167.857 57.7382 167.857 59.1833 163.388C56.911 162.328 54.3658 161.95 51.8723 162.304C49.3787 162.657 47.0499 163.726 45.1827 165.373C44.8848 166.942 45.0555 168.5 45.6162 170H52.8412C52.4159 169.218 51.5249 168.54 50.9467 167.857ZM48.2815 152.229C48.2815 152.229 48.6989 160.34 59.9058 160.919C59.6687 159.29 59.0632 157.734 58.1331 156.361C57.203 154.988 55.9713 153.833 54.5271 152.98C54.5271 152.98 61.0457 151.104 61.0939 146.385C58.6099 146.004 56.0657 146.35 53.7844 147.379C51.5031 148.409 49.5877 150.075 48.2815 152.167V152.229ZM80.2001 128.787L73.7778 132.007L76.122 135.445L82.5442 132.21L81.7575 131.085L76.5715 133.679L75.7366 132.507L80.9387 129.913L80.2001 128.787ZM91.3267 144.587L84.7117 147.885L87.1201 151.354L93.7832 148.01L93.0125 146.916L87.6339 149.604L86.799 148.416L92.1776 145.775L91.3267 144.587ZM71.4819 128.694L72.9269 130.803L79.3492 127.584L77.8881 125.459L71.4819 128.694ZM96.9943 165.56L101.811 160.731L95.8062 163.732L96.9943 165.56ZM76.9729 136.633L78.4179 138.727L84.9365 135.476L83.4594 133.398L76.9729 136.633ZM65.9587 120.77L67.4359 122.927L73.8581 119.801L72.3971 117.645C70.1757 118.533 68.0239 119.577 65.9587 120.77ZM82.4479 144.572L83.8929 146.666L90.5721 143.384L88.9665 141.29L82.4479 144.572ZM96.898 152.386L90.2028 155.73L92.5951 159.199L99.3224 155.839L98.5196 154.699L93.1731 157.355L92.3542 156.183L97.6847 153.589L96.898 152.386ZM101.715 159.106L100.205 157.09L93.4621 160.45L94.9231 162.544L101.715 159.106ZM88.0192 152.448L89.4642 154.542L96.1434 151.214L94.6823 149.119L88.0192 152.448Z" fill="#F4C900"/>
</g>
<path d="M33.5383 80.7311C31.2306 78.8849 27.846 75.0388 26.4614 73.5003C26.1537 73.1926 25.5383 73.1926 25.2306 73.5003C23.846 75.0388 20.6152 78.8849 18.1537 80.7311C12.7691 85.3465 10.6152 87.5003 10.6152 91.5003C10.6152 96.1157 14.6152 99.9618 19.5383 99.9618C21.3845 99.9618 23.5383 99.3465 24.9229 98.2695L25.0768 98.1157C24.7691 100.423 23.9998 103.808 21.6922 106.116C21.3845 106.423 21.5383 106.731 21.9998 106.731H25.9998H29.9998C30.3075 106.731 30.4614 106.27 30.3075 106.116C27.9998 103.808 27.2306 100.577 26.9229 98.1157L27.0768 98.2695C28.3075 99.3465 30.6152 99.9618 32.4614 99.9618C37.3845 99.9618 41.3845 96.1157 41.3845 91.5003C41.3845 87.5003 39.2306 85.3465 33.5383 80.7311Z" fill="#24242E"/>
<path d="M30.4381 11.756H36.8761V46.906C36.8761 54.528 36.5801 56.008 36.0621 57.562C33.6941 64.74 25.8501 64.74 24.0741 64.74C17.1181 64.74 14.0101 60.892 13.0481 57.34C12.4561 55.194 12.4561 53.566 12.4561 48.312H18.7461C18.7461 53.936 18.8201 54.75 19.3381 56.082C20.1521 58.08 21.9281 59.19 24.0001 59.19C29.2541 59.264 30.2161 55.416 30.3641 53.27C30.4381 52.234 30.4381 48.46 30.4381 47.276V11.756Z" fill="#24242E"/>
<defs>
<linearGradient id="paint0_linear_324_104573" x1="92" y1="2" x2="92" y2="182" gradientUnits="userSpaceOnUse">
<stop stop-color="white" stop-opacity="0.85"/>
<stop offset="1" stop-color="white" stop-opacity="0.15"/>
</linearGradient>
<clipPath id="clip0_324_104573">
<rect width="116.757" height="165" fill="white" transform="translate(12.6211 5)"/>
</clipPath>
</defs>
</svg>
