<svg width="184" height="184" viewBox="0 0 184 184" fill="none" xmlns="http://www.w3.org/2000/svg">
<rect x="1" y="1" width="182" height="182" rx="13" stroke="black" stroke-opacity="0.25" stroke-width="2"/>
<rect x="2.5" y="2.5" width="179" height="179" rx="11.5" fill="#E9E9E9" stroke="url(#paint0_linear_324_104523)"/>
<rect x="41.0449" y="30.5" width="101.909" height="123" rx="1.5" fill="#D7D5D7" stroke="#CDCFD6"/>
<g clip-path="url(#clip0_324_104523)">
<path d="M129.378 31.3706V165.204C129.378 166.476 128.669 167.513 127.756 168.413C126.844 169.312 125.803 169.999 124.513 169.999H17.486C16.1957 169.999 15.1551 169.312 14.2427 168.413C13.3304 167.513 12.6211 166.476 12.6211 165.204V133.967C34.1724 118.765 51.3779 116.089 51.54 116.057C53.2844 106.84 57.1696 97.3693 62.8914 89.8792C68.6907 82.0386 72.2682 73.8015 75.0535 64.4946C75.4589 62.896 75.6211 60.4444 75.8643 58.9417C76.5778 54.5136 79.0103 46.4093 79.1076 46.2494V46.1695C79.967 44.6828 93.167 22.8342 117.832 31.0189C118.053 31.0847 118.27 31.1648 118.481 31.2587H118.562C120.524 28.4772 121.545 27.1344 121.805 27.2143C122.064 27.2942 122.097 27.9976 122.697 28.3013C124.983 29.4363 127.205 30.4274 129.378 31.3706Z" fill="#E7E7E7"/>
<path d="M77.7743 124.613L79.9147 121.731L80.3039 125.059C80.3244 125.458 80.1913 125.85 79.931 126.157C79.7624 126.36 79.5372 126.511 79.2829 126.592C79.0285 126.672 78.7559 126.678 78.4982 126.608C78.2406 126.539 78.0089 126.398 77.8314 126.202C77.654 126.006 77.5384 125.764 77.4987 125.504C77.4868 125.185 77.5838 124.871 77.7743 124.613ZM129.372 121.222V119.28L128.95 118.945L129.372 121.222ZM84.1632 126.221C84.0021 126.495 83.9393 126.815 83.9848 127.128C84.0194 127.362 84.1242 127.581 84.2859 127.757C84.4476 127.933 84.6588 128.058 84.8928 128.115C85.1805 128.246 85.5082 128.265 85.8094 128.167C86.1105 128.07 86.3626 127.863 86.5144 127.59C86.7368 127.256 86.8236 126.853 86.7576 126.459L86.0117 123.18L84.1632 126.221ZM71.1909 123.355C71.1749 123.585 71.2318 123.814 71.3537 124.011C71.4757 124.207 71.6567 124.362 71.8719 124.454C72.1289 124.607 72.4333 124.666 72.7305 124.62C73.0277 124.573 73.2983 124.424 73.4935 124.199C73.7798 123.912 73.9524 123.533 73.9799 123.132V119.805L71.5476 122.48C71.353 122.733 71.2401 123.038 71.2233 123.355H71.1909ZM90.6493 127.287C90.5455 127.587 90.5455 127.911 90.6493 128.211C90.7138 128.442 90.8443 128.65 91.0252 128.811C91.2062 128.971 91.4302 129.078 91.6709 129.118C91.9576 129.22 92.273 129.211 92.5531 129.092C92.8332 128.974 93.057 128.756 93.1789 128.481C93.3665 128.128 93.4128 127.72 93.3086 127.335L92.2222 124.151L90.6493 127.287ZM97.2489 127.813C97.156 128.114 97.156 128.435 97.2489 128.736C97.3385 128.962 97.4906 129.16 97.6883 129.306C97.886 129.453 98.1213 129.542 98.3678 129.564C98.6602 129.643 98.9726 129.608 99.239 129.465C99.5053 129.323 99.7047 129.084 99.7947 128.8C99.9397 128.431 99.9397 128.022 99.7947 127.653L98.3678 124.469L97.2489 127.813ZM59.4834 117.544C59.4203 117.761 59.4287 117.992 59.5074 118.203C59.586 118.415 59.7309 118.597 59.9212 118.723C60.1487 118.909 60.4356 119.011 60.732 119.011C61.0284 119.011 61.3153 118.909 61.5428 118.723C61.8904 118.492 62.1433 118.148 62.2562 117.751L62.9211 114.488L59.9699 116.717C59.7252 116.937 59.5554 117.226 59.4834 117.544ZM54.1555 169.999H57.3175C57.266 169.614 57.082 169.213 56.7833 168.957C56.4846 168.702 56.1012 168.563 55.7052 168.567C55.3234 168.582 54.9594 168.73 54.6776 168.983C54.3958 169.237 54.2048 169.627 54.1555 169.999ZM96.1787 100.765C92.66 101.211 92.5465 99.1733 92.5465 99.1733C91.5249 100.495 92.9519 101.482 94.3626 101.498C94.7042 101.543 95.0518 101.499 95.3707 101.37C95.6895 101.242 95.9682 101.033 96.1787 100.765ZM120.492 169.999H124.497C125.787 169.999 127.034 169.448 127.947 168.553C128.859 167.657 129.372 166.442 129.372 165.176V156.627L120.492 169.999ZM103.93 127.781C103.859 128.092 103.899 128.418 104.043 128.704C104.156 128.926 104.329 129.112 104.544 129.241C104.759 129.371 105.007 129.438 105.259 129.436C105.552 129.493 105.855 129.435 106.103 129.274C106.352 129.113 106.527 128.863 106.589 128.577C106.698 128.194 106.658 127.785 106.475 127.431L104.724 124.438L103.93 127.781ZM65.2074 120.697C65.165 120.92 65.1954 121.151 65.2943 121.357C65.3933 121.563 65.5558 121.733 65.7588 121.843C66.0011 122.012 66.2966 122.092 66.5931 122.069C66.8897 122.046 67.1684 121.92 67.3803 121.715C67.7055 121.463 67.9202 121.099 67.9803 120.697L68.3046 117.385L65.5966 119.853C65.3846 120.09 65.2491 120.384 65.2074 120.697ZM61.9644 156.929C62.2823 156.968 62.6047 156.913 62.8908 156.771C63.1769 156.63 63.414 156.409 63.5721 156.135C63.7303 155.862 63.8023 155.548 63.7793 155.235C63.7562 154.921 63.639 154.621 63.4425 154.373C63.246 154.124 62.979 153.939 62.6751 153.839C62.3713 153.74 62.0442 153.731 61.7352 153.814C61.4262 153.896 61.149 154.067 60.9387 154.304C60.7285 154.541 60.5945 154.835 60.5536 155.146C60.4975 155.557 60.6066 155.973 60.858 156.306C61.1093 156.639 61.4829 156.863 61.8995 156.929H61.9644ZM93.6978 103.36C93.4383 103.503 93.5843 103.965 93.5843 103.965C93.5843 103.965 93.5843 103.806 95.4653 103.249C96.6584 102.928 97.9267 103.013 99.0651 103.488C99.0651 103.36 98.7407 103.042 98.7407 103.042C97.9385 102.683 97.0584 102.524 96.1786 102.58C95.2988 102.635 94.4466 102.903 93.6978 103.36ZM110.578 127.239C110.545 127.556 110.619 127.875 110.789 128.147C110.926 128.358 111.119 128.529 111.348 128.641C111.576 128.754 111.831 128.803 112.086 128.784C112.231 128.801 112.378 128.791 112.519 128.752C112.659 128.714 112.791 128.648 112.906 128.559C113.02 128.47 113.116 128.36 113.187 128.234C113.258 128.109 113.302 127.971 113.318 127.829C113.384 127.435 113.297 127.032 113.075 126.698L111.016 123.865L110.578 127.239ZM106.281 78.6849C104.781 78.2611 103.385 77.5406 102.178 76.5676C102.213 77.0581 102.4 77.5265 102.712 77.9104C103.025 78.2943 103.45 78.5756 103.93 78.7167C105.34 79.2261 108.016 78.9555 106.232 78.653L106.281 78.6849ZM96.2922 86.7083C97.2651 86.581 98.2219 88.0774 98.611 88.3003C98.8558 88.489 99.1386 88.6247 99.4406 88.6984C99.7427 88.7722 100.057 88.7823 100.364 88.7282C100.67 88.6741 100.961 88.5569 101.218 88.3843C101.475 88.2118 101.692 87.9879 101.854 87.7272C103.297 86.1352 100.93 84.3841 101.27 84.7821C101.611 85.1801 102 87.966 99.9731 87.8705C97.9462 87.7749 97.8165 86.1193 96.6003 85.976C96.1657 85.9771 95.7369 86.0751 95.3465 86.2627C94.956 86.4502 94.6141 86.7223 94.3464 87.0586C94.0383 87.3929 94.6869 87.3929 94.6869 87.3929C95.1413 87.0139 95.7 86.7757 96.2922 86.7083ZM104.027 66.0129C107.4 64.7553 113.416 67.2865 114.032 67.7004C114.648 68.1143 114.94 67.7004 114.94 67.7004C113.599 66.3085 111.983 65.2006 110.189 64.445C108.396 63.6893 106.465 63.3019 104.513 63.3066C100.33 63.6091 99.3569 65.6468 99.3569 65.9492C99.3569 66.2517 100.638 67.3342 104.027 66.0607V66.0129ZM102.908 97.852C101.87 97.852 101.822 97.5814 99.3083 95.7825C96.7949 93.9836 95.3193 95.4641 95.0112 95.671C94.6215 95.3552 94.1619 95.1331 93.6692 95.0225C93.1765 94.912 92.6644 94.916 92.1735 95.0343C90.7952 95.5755 90.6493 97.8998 89.6439 97.5814C88.6386 97.263 88.671 96.8491 88.671 96.8491C88.6012 97.0603 88.5868 97.2853 88.629 97.5035C88.6712 97.7216 88.7688 97.9258 88.9126 98.0971C89.0564 98.2684 89.2419 98.4014 89.4519 98.4838C89.6619 98.5662 89.8897 98.5953 90.1142 98.5684C91.9952 98.5684 93.3573 97.2471 94.8166 98.1545C94.8166 98.1545 97.6868 96.9764 99.211 97.7087C100.735 98.441 102.243 98.9982 103.313 98.2659C104.384 97.5336 103.07 97.8202 102.908 97.8202V97.852ZM117.032 126.125C117.045 126.448 117.158 126.759 117.356 127.017C117.512 127.214 117.719 127.367 117.956 127.459C118.193 127.552 118.45 127.58 118.702 127.542C118.847 127.551 118.992 127.53 119.129 127.481C119.266 127.432 119.39 127.356 119.495 127.257C119.6 127.158 119.684 127.039 119.74 126.908C119.796 126.776 119.823 126.634 119.821 126.491C119.85 126.089 119.722 125.691 119.464 125.377L117.129 122.734L117.032 126.125ZM123.404 124.533C123.447 124.853 123.589 125.153 123.81 125.393C123.986 125.58 124.209 125.718 124.456 125.794C124.704 125.869 124.968 125.879 125.22 125.823C125.365 125.817 125.506 125.782 125.636 125.72C125.767 125.659 125.882 125.571 125.977 125.464C126.071 125.356 126.142 125.231 126.185 125.096C126.227 124.96 126.241 124.817 126.226 124.676C126.199 124.278 126.032 123.902 125.755 123.61L123.129 121.142L123.404 124.533ZM114.518 74.7209C112.084 76.4965 109.049 77.2884 106.038 76.9337C102.486 76.5039 101.935 75.2144 100.378 74.8483C100.151 74.8483 100.006 74.7528 100.038 74.7209C100.384 74.1711 100.698 73.6024 100.978 73.0175C101.127 72.7423 101.211 72.4375 101.222 72.126V70.7092C101.222 70.7092 99.7785 69.8655 99.6974 69.563C99.6164 69.2605 100.833 69.8336 101.319 69.7381H101.465C101.741 69.1968 102.795 67.971 106.816 68.3531C108.199 68.404 109.556 68.7442 110.795 69.3509C112.033 69.9576 113.126 70.8169 113.999 71.8713C112.305 70.7647 110.452 69.9117 108.502 69.3401C105.811 68.6874 103.816 69.2287 103.638 69.7381C103.459 70.2475 103.8 70.343 103.8 70.359C103.991 70.4089 104.186 70.4409 104.384 70.4545C106.123 70.5354 107.839 70.8735 109.475 71.4574C111.437 72.2281 113.344 73.1269 115.183 74.1478C116.075 74.6732 114.518 74.7209 114.518 74.7209ZM103.654 75.5965C103.307 75.2886 103.025 74.9163 102.824 74.501C102.624 74.0858 102.509 73.6357 102.486 73.1767C102.418 73.1304 102.339 73.1001 102.256 73.088C102.174 73.0759 102.09 73.0824 102.01 73.1069C101.93 73.1314 101.857 73.1734 101.797 73.2296C101.736 73.2858 101.689 73.3548 101.66 73.4314C101.571 73.6624 101.571 73.9169 101.66 74.1478C102.204 74.7728 102.886 75.2681 103.654 75.5965ZM106.038 75.9945C106.839 75.9903 107.606 75.6748 108.171 75.1169C108.736 74.5591 109.054 73.8043 109.054 73.0175C109.05 72.698 108.995 72.3811 108.892 72.0783C108.326 71.9463 107.751 71.8506 107.173 71.7917C107.358 71.9506 107.508 72.1462 107.611 72.3657C107.714 72.5851 107.77 72.8235 107.773 73.0653C107.773 73.517 107.59 73.9503 107.265 74.2698C106.939 74.5892 106.498 74.7687 106.038 74.7687C105.577 74.7687 105.136 74.5892 104.811 74.2698C104.485 73.9503 104.303 73.517 104.303 73.0653C104.302 72.7725 104.379 72.4845 104.527 72.2303C104.675 71.976 104.888 71.7644 105.146 71.6166C101.757 71.4096 103.216 71.9828 103.216 71.9828C103.079 72.328 103.008 72.6948 103.005 73.0653C103.018 73.8465 103.343 74.5915 103.911 75.1395C104.478 75.6875 105.242 75.9946 106.038 75.9945ZM113.48 74.0205C112.234 73.2503 110.887 72.6505 109.475 72.2375C109.54 72.4925 109.573 72.7546 109.573 73.0175C109.581 73.6871 109.39 74.3445 109.025 74.9097C108.659 75.475 108.134 75.9238 107.513 76.2014C109.594 76.09 111.628 75.5475 113.48 74.6095C113.708 74.2274 113.529 74.0523 113.48 74.0205ZM121.815 27.217C122.075 27.3125 125.058 28.8089 129.372 30.7034V116.557C128.775 116.382 128.132 116.433 127.572 116.701C127.171 116.886 126.843 117.195 126.638 117.58C126.433 117.965 126.363 118.405 126.437 118.834L126.923 121.397L124.507 119.168C124.17 118.87 123.754 118.669 123.307 118.591C122.86 118.512 122.399 118.558 121.977 118.723C121.555 118.865 121.193 119.141 120.947 119.506C120.7 119.872 120.584 120.307 120.615 120.744L120.826 123.355L118.686 120.935C118.376 120.609 117.98 120.373 117.542 120.255C117.104 120.137 116.641 120.141 116.205 120.267C115.763 120.369 115.366 120.608 115.074 120.95C114.782 121.291 114.609 121.716 114.583 122.161V124.804L112.702 122.209C112.426 121.857 112.054 121.589 111.629 121.437C111.204 121.285 110.744 121.254 110.302 121.349C109.864 121.429 109.462 121.641 109.152 121.954C108.841 122.268 108.637 122.668 108.567 123.1L108.292 125.727L106.67 122.989C106.433 122.611 106.089 122.31 105.68 122.12C105.271 121.931 104.815 121.862 104.367 121.922C103.921 121.963 103.498 122.138 103.156 122.423C102.813 122.707 102.568 123.088 102.454 123.514L101.805 126.109L100.508 123.26C100.312 122.864 100.001 122.534 99.6144 122.31C99.2281 122.086 98.7833 121.979 98.3354 122.002C97.8848 122.007 97.4462 122.145 97.0762 122.398C96.7062 122.65 96.4219 123.006 96.2598 123.419L95.3193 125.918L94.3302 122.973C94.1706 122.559 93.89 122.201 93.5236 121.943C93.1572 121.685 92.7213 121.54 92.2708 121.524C91.82 121.498 91.3712 121.601 90.9794 121.822C90.5876 122.043 90.27 122.371 90.0655 122.766L88.9143 125.234L88.2332 122.225C88.1178 121.802 87.8747 121.424 87.5361 121.14C87.1974 120.856 86.779 120.679 86.336 120.633C85.8873 120.568 85.4291 120.633 85.0173 120.819C84.6056 121.006 84.258 121.306 84.0172 121.684L82.6065 124.04L82.347 121.031C82.2816 120.598 82.0813 120.196 81.7735 119.879C81.4657 119.563 81.0656 119.348 80.6282 119.264C80.1855 119.162 79.7222 119.187 79.2937 119.337C78.8653 119.486 78.4898 119.754 78.2121 120.108L76.5906 122.336V119.296C76.5677 118.848 76.3971 118.419 76.1047 118.075C75.8122 117.73 75.4137 117.488 74.9691 117.385C74.5365 117.25 74.0738 117.238 73.6347 117.351C73.1956 117.464 72.798 117.696 72.4881 118.022L70.5909 120.108L70.8828 117.083C70.9121 116.648 70.7987 116.216 70.5594 115.849C70.3202 115.482 69.9675 115.201 69.5531 115.045C69.1305 114.875 68.6676 114.825 68.2173 114.901C67.7671 114.977 67.3477 115.176 67.0073 115.475L64.9156 117.385L65.5317 114.424C65.6081 113.995 65.5402 113.554 65.3384 113.166C65.1366 112.778 64.8117 112.466 64.4129 112.275C64.0058 112.072 63.5491 111.983 63.0939 112.02C62.6386 112.056 62.2026 112.216 61.8346 112.482L58.4943 115.013C57.8774 115.512 57.4305 116.184 57.2133 116.94C57.0147 117.606 57.0548 118.32 57.3268 118.961C57.5529 119.503 57.9155 119.98 58.3808 120.346C58.9892 120.863 59.7498 121.176 60.5519 121.239C61.354 121.302 62.1556 121.112 62.84 120.697C62.8098 121.251 62.939 121.803 63.2129 122.289C63.4893 122.81 63.8967 123.254 64.3967 123.578C65.0463 124.044 65.8299 124.295 66.6344 124.295C67.4388 124.295 68.2224 124.044 68.8721 123.578C68.9084 124.145 69.0927 124.693 69.4072 125.17C69.7537 125.657 70.2084 126.059 70.7369 126.348C71.4205 126.726 72.2064 126.887 72.9871 126.811C73.7678 126.734 74.5052 126.422 75.0988 125.918C75.1955 126.509 75.4596 127.06 75.8609 127.51C76.2452 127.966 76.7342 128.326 77.2879 128.561C78.0094 128.914 78.8275 129.031 79.6216 128.893C80.4157 128.756 81.1438 128.371 81.6984 127.797C81.8426 128.358 82.1397 128.87 82.5578 129.277C82.9927 129.696 83.5197 130.012 84.0983 130.201C84.8415 130.492 85.6606 130.541 86.4344 130.34C87.2082 130.14 87.8957 129.7 88.3954 129.086C88.6009 129.631 88.9541 130.11 89.4169 130.471C89.8838 130.865 90.4397 131.143 91.0385 131.283C91.8029 131.509 92.6211 131.487 93.3718 131.22C94.1224 130.953 94.7656 130.456 95.2058 129.803C95.4696 130.327 95.866 130.777 96.3571 131.108C96.8411 131.442 97.3952 131.665 97.9786 131.761C98.2321 131.783 98.4872 131.783 98.7407 131.761C99.4077 131.774 100.065 131.604 100.638 131.269C101.212 130.934 101.678 130.448 101.984 129.866C102.311 130.366 102.756 130.781 103.281 131.076C103.821 131.369 104.418 131.548 105.032 131.601C105.818 131.708 106.618 131.555 107.305 131.166C107.992 130.777 108.528 130.174 108.827 129.452C109.193 129.931 109.679 130.31 110.237 130.551C110.804 130.797 111.418 130.922 112.037 130.917C112.825 130.966 113.606 130.749 114.252 130.304C114.897 129.858 115.369 129.209 115.588 128.465C116 128.912 116.518 129.251 117.097 129.452C117.685 129.649 118.31 129.719 118.929 129.659C119.704 129.636 120.449 129.354 121.039 128.859C121.628 128.364 122.028 127.686 122.172 126.937C122.638 127.339 123.193 127.628 123.793 127.781C124.402 127.917 125.034 127.917 125.642 127.781C126.421 127.721 127.152 127.387 127.7 126.84C128.249 126.293 128.577 125.57 128.626 124.804C128.851 124.958 129.128 125.105 129.378 125.215V138.722C119.385 142.039 108.868 143.744 98.3191 143.748C76.3776 143.652 55.1734 135.963 38.4359 122.034L35.7279 123.228C52.8744 138.193 75.0527 146.403 97.9948 146.279C108.645 146.329 119.236 144.717 129.372 141.503V153.57L118.204 169.999H101.422L116.853 146.773H114.924L99.102 169.999H95.5347L81.8606 146.773H79.931L93.1601 169.999H76.9448L59.4023 140.246L56.9863 139.434L74.4177 169.999H58.5591L59.7591 166.449C58.4306 166.665 57.0829 166.745 55.7377 166.688C54.3594 166.513 53.6297 166.927 52.8189 169.172C52.7216 169.474 52.6568 169.745 52.5919 169.999H40.9331C44.4729 159.22 49.3239 148.898 55.3809 139.259C54.7972 139.084 54.2134 138.861 53.6621 138.638C47.5148 148.487 42.5728 159.013 38.9386 169.999H24.1502C24.3524 169.219 24.4559 168.417 24.4583 167.611C24.4619 166.976 24.4022 166.341 24.2799 165.717C23.5953 166.134 22.8444 166.435 22.0584 166.609C22.0831 166.916 22.0831 167.225 22.0584 167.532C22.0557 168.343 21.9023 169.228 21.6472 169.999H17.4794C16.1892 169.999 14.9582 169.417 14.0459 168.521C13.1336 167.625 12.6211 166.411 12.6211 165.144V159.572C13.4326 159.486 14.2107 159.208 14.8886 158.761C15.5665 158.315 16.1238 157.714 16.5128 157.009C16.5412 156.957 16.5554 156.899 16.5538 156.841C16.5522 156.782 16.5349 156.725 16.5037 156.675C16.4725 156.625 16.4284 156.584 16.376 156.556C16.3235 156.528 16.2644 156.514 16.2047 156.516C15.7669 156.516 15.0047 156.516 13.7562 156.516C13.3664 156.517 12.9802 156.441 12.6211 156.293L12.6211 151.676C12.9802 151.527 13.3664 151.451 13.7562 151.453C15.0047 151.453 15.7669 151.453 16.2047 151.453C16.2644 151.455 16.3235 151.441 16.376 151.413C16.4284 151.385 16.4725 151.344 16.5037 151.294C16.5349 151.244 16.5522 151.186 16.5538 151.128C16.5554 151.069 16.5412 151.011 16.5128 150.96C16.0997 150.289 15.5327 149.722 14.857 149.305C14.1813 148.888 13.4157 148.631 12.6211 148.556V133.958C34.4145 118.659 50.7433 115.364 50.7433 115.364C50.7433 115.364 52.2189 103.424 62.0941 90.0196C67.9102 82.2333 72.3 73.5116 75.0663 64.2458C75.4444 62.5395 75.6561 60.8018 75.6988 59.0561C76.0801 54.6065 77.1746 50.2439 78.9418 46.1294C79.104 45.5404 93.4383 21.9635 118.767 30.4009C119.869 29 121.426 27.0896 121.815 27.217ZM60.051 158.521C60.9196 159.21 61.6744 160.026 62.2887 160.941L64.7696 155.863L62.5319 151.915C61.2022 151.58 60.4239 151.915 59.2888 154.016C58.024 156.5 58.8024 157.646 60.051 158.521ZM56.9863 159.206C56.1805 160.685 55.5495 162.25 55.1053 163.87C55.1053 163.87 58.1213 164.857 58.9645 162.788C60.0834 160.05 56.9863 159.206 56.9863 159.206ZM29.258 139.625C29.2514 139.287 29.3144 138.95 29.4433 138.636C29.5722 138.323 29.7642 138.037 30.008 137.798C30.2517 137.559 30.5421 137.37 30.8619 137.244C31.1816 137.117 31.524 137.055 31.8687 137.062C33.1335 137.062 33.8794 137.062 34.3172 137.062C34.3764 137.067 34.4359 137.056 34.4891 137.03C34.5424 137.004 34.5873 136.964 34.6191 136.915C34.6509 136.866 34.6683 136.809 34.6694 136.75C34.6705 136.692 34.6552 136.635 34.6253 136.584C34.1991 135.797 33.5643 135.138 32.788 134.675C32.0117 134.213 31.1227 133.965 30.2147 133.958C26.7447 133.958 26.1933 138.065 26.1933 139.529C26.1933 140.994 26.7447 145.101 30.2147 145.101C31.121 145.095 32.0089 144.85 32.7851 144.39C33.5612 143.931 34.1969 143.275 34.6253 142.49C34.6552 142.44 34.6705 142.383 34.6694 142.324C34.6683 142.266 34.6509 142.209 34.6191 142.16C34.5873 142.11 34.5424 142.071 34.4891 142.045C34.4359 142.019 34.3764 142.008 34.3172 142.013C33.8794 142.013 33.1335 142.013 31.8687 142.013C31.2016 142.03 30.5542 141.79 30.0659 141.343C29.5777 140.896 29.2875 140.279 29.258 139.625ZM28.6094 154.462C28.6073 154.798 28.5376 155.13 28.4042 155.439C28.2708 155.748 28.0765 156.029 27.8323 156.264C27.5882 156.499 27.2991 156.685 26.9816 156.81C26.6641 156.935 26.3246 156.997 25.9825 156.993C24.7339 156.993 23.988 156.993 23.534 156.993C23.4748 156.988 23.4154 156.999 23.3621 157.025C23.3089 157.051 23.2639 157.091 23.2321 157.14C23.2003 157.189 23.1829 157.246 23.1818 157.304C23.1807 157.363 23.196 157.42 23.2259 157.471C23.6562 158.258 24.2941 158.917 25.0729 159.379C25.8517 159.841 26.7427 160.089 27.6527 160.097C31.1228 160.097 31.6579 155.99 31.6579 154.526C31.6579 153.061 31.1228 148.954 27.6527 148.954C26.7444 148.96 25.8545 149.206 25.0758 149.665C24.2972 150.124 23.6583 150.78 23.2259 151.565C23.196 151.615 23.1807 151.672 23.1818 151.731C23.1829 151.789 23.2003 151.846 23.2321 151.895C23.2639 151.945 23.3089 151.984 23.3621 152.01C23.4154 152.036 23.4748 152.047 23.534 152.042C23.988 152.042 24.7339 152.042 25.9825 152.042C26.6555 152.029 27.3069 152.275 27.7978 152.727C28.2886 153.179 28.5799 153.802 28.6094 154.462ZM14.0156 143.684C14.5963 143.133 15.294 142.714 16.0587 142.459H16.156C16.1318 142.125 16.1318 141.79 16.156 141.456C16.156 139.345 17.0102 137.32 18.5307 135.827C20.0512 134.334 22.1134 133.496 24.2637 133.496C25.2725 133.485 26.2741 133.664 27.2149 134.021C28.0126 133.332 29.0389 132.953 30.1012 132.955C28.5355 131.928 26.716 131.338 24.8359 131.245C22.9557 131.152 21.085 131.561 19.4223 132.427C17.7597 133.294 16.367 134.587 15.3923 136.168C14.4175 137.749 13.897 139.56 13.8859 141.408C13.8627 142.171 13.9225 142.934 14.0643 143.684H14.0156ZM17.0154 150.976C17.0668 151.005 17.1253 151.02 17.1848 151.019C17.2442 151.018 17.3021 151.001 17.3523 150.969C17.4025 150.938 17.443 150.894 17.4694 150.842C17.4958 150.79 17.507 150.731 17.5019 150.673C17.5019 150.243 17.5019 149.511 17.5019 148.269C17.4954 147.934 17.5574 147.6 17.6843 147.288C17.8111 146.977 18.0003 146.693 18.2406 146.454C18.4808 146.215 18.7674 146.026 19.0833 145.897C19.3993 145.769 19.7382 145.704 20.0801 145.706C20.4158 145.704 20.7486 145.767 21.0594 145.892C21.3701 146.016 21.6527 146.2 21.8908 146.433C22.1289 146.665 22.3179 146.941 22.4468 147.245C22.5758 147.55 22.6422 147.876 22.6422 148.206C22.6422 149.447 22.6422 150.18 22.6422 150.609C22.6371 150.668 22.6483 150.726 22.6747 150.778C22.7011 150.83 22.7416 150.875 22.7918 150.906C22.842 150.937 22.8999 150.954 22.9593 150.955C23.0187 150.956 23.0773 150.941 23.1286 150.912C23.9165 150.49 24.5753 149.869 25.0371 149.113C25.4989 148.358 25.7469 147.495 25.7555 146.614C25.7555 143.207 21.572 142.681 20.0639 142.681C18.5559 142.681 14.3886 143.207 14.3886 146.614C14.3903 147.51 14.6402 148.39 15.1114 149.158C15.5826 149.926 16.2576 150.555 17.0641 150.976H17.0154ZM25.3015 161.912C25.2989 161.022 25.0502 160.149 24.5819 159.386C24.1135 158.623 23.4431 158 22.6422 157.582C22.5897 157.554 22.5306 157.54 22.4709 157.542C22.4111 157.543 22.3529 157.56 22.302 157.591C22.251 157.622 22.2092 157.665 22.1807 157.716C22.1522 157.768 22.138 157.826 22.1395 157.885C22.1395 158.314 22.1395 159.047 22.1395 160.288C22.1527 160.948 21.9019 161.585 21.4409 162.065C20.98 162.544 20.3458 162.827 19.6748 162.852C19.3336 162.854 18.9954 162.789 18.6803 162.66C18.3652 162.531 18.0797 162.342 17.8407 162.103C17.6017 161.864 17.4141 161.58 17.2891 161.268C17.164 160.957 17.104 160.623 17.1127 160.288C17.1127 159.047 17.1127 158.314 17.1127 157.885C17.1143 157.826 17.1001 157.768 17.0715 157.716C17.043 157.665 17.0012 157.622 16.9503 157.591C16.8993 157.56 16.8411 157.543 16.7814 157.542C16.7217 157.54 16.6626 157.554 16.6101 157.582C15.8182 158.006 15.1576 158.633 14.6981 159.395C14.2386 160.157 13.9972 161.027 13.9994 161.912C13.9994 165.319 18.1667 165.844 19.6748 165.844C21.1828 165.844 25.3501 165.319 25.3501 161.912H25.3015ZM43.2681 153.188C43.2646 152.423 43.1776 151.659 43.0086 150.912C42.4016 151.489 41.67 151.924 40.8682 152.185C40.8924 152.519 40.8924 152.854 40.8682 153.188C40.8682 155.299 40.014 157.324 38.4935 158.817C36.973 160.31 34.9108 161.148 32.7605 161.148C31.7431 161.146 30.7357 160.951 29.7931 160.575C29.5572 160.712 29.3072 160.824 29.0472 160.909C28.2963 161.261 27.4791 161.456 26.6474 161.482C28.2039 162.593 30.0431 163.259 31.9613 163.407C33.8795 163.554 35.802 163.178 37.5159 162.32C39.2298 161.461 40.6682 160.153 41.672 158.542C42.6758 156.93 43.2057 155.077 43.2032 153.188H43.2681ZM43.4302 147.441C43.4242 146.552 43.174 145.68 42.7061 144.918C42.2381 144.156 41.5696 143.532 40.7709 143.111C40.7184 143.083 40.6593 143.069 40.5996 143.071C40.5399 143.073 40.4816 143.09 40.4307 143.12C40.3798 143.151 40.338 143.194 40.3094 143.246C40.2809 143.297 40.2667 143.355 40.2682 143.414C40.2682 143.844 40.2682 144.576 40.2682 145.818C40.2769 146.152 40.217 146.486 40.0919 146.797C39.9669 147.109 39.7793 147.393 39.5403 147.632C39.3013 147.871 39.0158 148.061 38.7007 148.189C38.3856 148.318 38.0474 148.383 37.7062 148.381C37.3643 148.383 37.0253 148.318 36.7094 148.189C36.3935 148.061 36.1069 147.872 35.8666 147.633C35.6264 147.394 35.4372 147.11 35.3103 146.799C35.1835 146.487 35.1215 146.153 35.128 145.818C35.128 144.576 35.128 143.844 35.128 143.414C35.1295 143.355 35.1153 143.297 35.0868 143.246C35.0583 143.194 35.0164 143.151 34.9655 143.12C34.9146 143.09 34.8563 143.073 34.7966 143.071C34.7369 143.069 34.6778 143.083 34.6253 143.111C33.8478 143.546 33.2022 144.177 32.7548 144.938C32.3074 145.699 32.0743 146.563 32.0795 147.441C32.0795 150.848 36.2468 151.389 37.7549 151.389C39.2629 151.389 43.4302 150.848 43.4302 147.441ZM45.7328 134.435C44.8297 134.445 43.946 134.694 43.1753 135.157C42.4046 135.619 41.7755 136.277 41.3547 137.062C41.3262 137.113 41.3121 137.171 41.3136 137.23C41.3152 137.289 41.3325 137.346 41.3637 137.396C41.3949 137.446 41.439 137.487 41.4915 137.515C41.544 137.543 41.603 137.557 41.6628 137.555C42.1006 137.555 42.8465 137.555 44.0951 137.555C44.7623 137.555 45.4038 137.808 45.8846 138.263C46.3654 138.717 46.6481 139.336 46.6733 139.991C46.6712 140.327 46.6014 140.659 46.4681 140.968C46.3347 141.278 46.1404 141.558 45.8962 141.793C45.6521 142.028 45.363 142.214 45.0455 142.339C44.728 142.464 44.3885 142.526 44.0464 142.522C42.7978 142.522 42.0519 142.522 41.6141 142.522C41.5544 142.521 41.4953 142.535 41.4428 142.563C41.3904 142.591 41.3463 142.632 41.3151 142.682C41.2839 142.732 41.2666 142.789 41.265 142.848C41.2634 142.906 41.2776 142.964 41.306 143.016C41.7317 143.802 42.3667 144.46 43.1435 144.92C43.9202 145.38 44.8096 145.624 45.7166 145.627C49.1867 145.627 49.7218 141.535 49.7218 140.055C49.7218 138.574 49.2353 134.435 45.7652 134.435H45.7328ZM32.4849 132.175C32.4874 133.065 32.7361 133.938 33.2045 134.701C33.6728 135.463 34.3432 136.087 35.1442 136.505C35.1955 136.534 35.2541 136.549 35.3135 136.548C35.3729 136.547 35.4309 136.53 35.4811 136.499C35.5313 136.467 35.5718 136.423 35.5982 136.371C35.6245 136.319 35.6358 136.26 35.6307 136.202C35.6307 135.772 35.6307 135.04 35.6307 133.814C35.6242 133.479 35.6856 133.146 35.8113 132.835C35.9369 132.523 36.1244 132.239 36.3627 131.999C36.601 131.759 36.8855 131.568 37.1997 131.437C37.5138 131.306 37.8513 131.237 38.1927 131.235C38.5404 131.237 38.8841 131.308 39.2035 131.443C39.5229 131.577 39.8114 131.774 40.0519 132.021C40.2924 132.267 40.48 132.558 40.6035 132.878C40.727 133.197 40.784 133.537 40.7709 133.878C40.7709 135.104 40.7709 135.836 40.7709 136.266C40.7658 136.324 40.777 136.382 40.8034 136.435C40.8298 136.487 40.8703 136.531 40.9205 136.562C40.9707 136.594 41.0287 136.611 41.0881 136.612C41.1475 136.613 41.206 136.598 41.2574 136.568C42.0602 136.151 42.733 135.528 43.2041 134.766C43.6752 134.003 43.927 133.13 43.9329 132.238C43.9329 128.831 39.7494 128.306 38.2575 128.306C36.7657 128.306 32.5173 128.768 32.5173 132.175H32.4849ZM116.172 54.4394C114.122 53.2793 111.875 52.4919 109.54 52.1152C105.934 51.5434 102.516 50.1414 99.5677 48.0238C97.9186 46.7241 96.621 45.0455 95.7896 43.1365C96.2447 46.2362 97.8359 49.0664 100.265 51.0963C103.077 53.117 106.341 54.4488 109.783 54.9807C112.303 55.367 114.728 56.2091 116.934 57.4641C116.707 56.509 116.399 55.4742 116.172 54.4394ZM99.2434 38.5199C99.5605 38.8517 99.9019 39.1603 100.265 39.4432C103.077 41.468 106.34 42.8051 109.783 43.3435L111.145 43.646C109.089 41.2487 106.295 39.5726 103.184 38.8701C101.881 38.6598 100.564 38.5481 99.2434 38.5358V38.5199ZM96.73 38.5199C97.4654 40.3865 98.6838 42.0326 100.265 43.2957C103.077 45.3205 106.34 46.6576 109.783 47.196C111.244 47.4948 112.685 47.8829 114.097 48.3581C113.983 48.1194 113.853 47.8806 113.74 47.6895C113.32 46.7658 112.815 45.8813 112.232 45.0469C111.372 44.8081 110.464 44.6011 109.54 44.3942C105.931 43.8229 102.512 42.4149 99.5677 40.2869C98.8967 39.7727 98.2874 39.1852 97.7516 38.5358L96.73 38.5199ZM95.7896 39.1726C96.233 42.276 97.8265 45.11 100.265 47.1323C103.07 49.1798 106.334 50.5389 109.783 51.0963C111.844 51.476 113.849 52.107 115.751 52.9748C115.426 51.8445 115.07 50.762 114.713 49.7909C113.045 49.0972 111.313 48.564 109.54 48.199C105.931 47.6277 102.512 46.2197 99.5677 44.0917C97.9161 42.8074 96.6174 41.1384 95.7896 39.2362V39.1726ZM81.3903 46.9572C84.4404 46.3984 87.3161 45.1502 89.7899 43.3116C91.1938 42.169 92.3047 40.7185 93.0329 39.077C92.4816 39.1885 91.9141 39.3158 91.4114 39.475C91.1172 39.7714 90.803 40.0479 90.4709 40.3029C88.5373 41.7634 86.3351 42.8444 83.9848 43.4868C82.9287 44.4933 82.0518 45.6663 81.3903 46.9572ZM79.7688 51.1918L80.3363 51.0645C83.7792 50.5237 87.0418 49.1868 89.8547 47.1642C92.285 45.1352 93.8765 42.3045 94.3302 39.2044C93.4816 41.1476 92.1489 42.8502 90.4547 44.1554C87.5822 46.2413 84.2488 47.6322 80.7255 48.2149C80.3179 49.1838 79.9766 50.1783 79.7039 51.1918H79.7688ZM78.9094 55.2513L80.3363 54.917C83.7498 54.3915 86.9888 53.0824 89.7899 51.0963C92.2131 49.0617 93.8031 46.2338 94.2653 43.1365C93.4172 45.0447 92.1095 46.7219 90.4547 48.0238C87.5118 50.1406 84.0998 51.5427 80.4985 52.1152L79.3796 52.3858C79.104 53.341 78.9905 54.2802 78.8445 55.2513H78.9094ZM78.8283 72.3489C80.2954 71.7572 81.8864 71.5224 83.4659 71.6644C86.1711 71.9947 88.7015 73.1533 90.6979 74.9756C90.8885 74.1828 91.0347 73.3803 91.1358 72.5718C91.1358 71.6484 90.9412 66.204 85.3631 65.9333C84.137 65.7814 82.8919 65.8889 81.7116 66.2486C80.5313 66.6083 79.4432 67.2119 78.5202 68.0188C78.5364 69.4356 78.6013 70.9321 78.7635 72.3489H78.8283ZM80.3363 73.0653C80.1865 73.4072 80.1093 73.7756 80.1093 74.1478C80.1116 74.671 80.2536 75.1844 80.521 75.6369C80.7885 76.0894 81.1721 76.4652 81.6336 76.7268C82.2668 76.9958 82.9554 77.1157 83.6443 77.077C84.3487 76.9601 84.988 76.6015 85.4483 76.0651C85.9086 75.5286 86.16 74.8492 86.1576 74.1478C86.1606 73.8278 86.1057 73.5098 85.9955 73.2086C85.4022 73.0273 84.7948 72.8942 84.1794 72.8106C84.3987 72.9599 84.5771 73.1601 84.6988 73.3934C84.8204 73.6266 84.8815 73.8858 84.8766 74.1478C84.8772 74.4401 84.8011 74.7277 84.6557 74.9828C84.5104 75.2379 84.3006 75.452 84.0465 75.6045C83.7924 75.7569 83.5027 75.8426 83.2051 75.8533C82.9076 75.8641 82.6122 75.7994 82.3475 75.6656C82.0827 75.5318 81.8575 75.3333 81.6935 75.0894C81.5295 74.8454 81.4322 74.5641 81.411 74.2725C81.3897 73.9809 81.4453 73.6888 81.5723 73.4244C81.6994 73.1601 81.8936 72.9322 82.1362 72.7628C81.5089 72.8261 80.8862 72.9271 80.2715 73.0653H80.3363ZM85.4604 76.7745C86.9138 76.4512 88.2556 75.7596 89.3521 74.7687C88.5072 74.1811 87.5782 73.7197 86.5955 73.3996C86.6473 73.6458 86.6744 73.8964 86.6765 74.1478C86.6696 74.6506 86.5514 75.1459 86.3303 75.5995C86.1091 76.053 85.7901 76.454 85.3955 76.7745H85.4604ZM79.104 74.7687L79.6877 75.2781C79.5564 74.9153 79.4906 74.5328 79.4931 74.1478C79.5008 73.8194 79.5498 73.4933 79.6391 73.1767L78.8607 73.3678C78.958 73.8613 79.104 74.3229 79.104 74.7687ZM127.426 91.7548C121.987 83.0213 118.788 73.1229 118.102 62.9086C118.102 62.9086 117.794 61.3167 117.324 59.1516C115.056 57.4428 112.373 56.3453 109.54 55.9677C105.935 55.3825 102.519 53.9758 99.5677 51.8604C97.3215 50.0433 95.7297 47.5653 95.0274 44.7922C94.3175 47.5743 92.7142 50.0582 90.4547 51.8764C87.5088 53.991 84.0987 55.3977 80.4985 55.9836C79.8661 56.1269 79.2661 56.2542 78.6662 56.4134C78.3057 59.5105 78.2459 62.6341 78.4878 65.7423L82.3633 64.1503C84.06 63.8223 85.8096 63.8658 87.4873 64.2777C92.5303 65.4876 92.1411 71.6803 91.7844 73.1449C91.2488 75.2415 90.8426 77.368 90.5682 79.5127C90.2601 81.9325 88.8494 84.9413 89.3359 86.0238C89.8223 87.1063 92.5789 88.2525 93.26 88.6824C93.941 89.1122 94.0059 90.5449 94.0059 90.5449C93.6978 89.5261 92.0925 89.1599 89.8223 88.0137C89.1318 87.6197 88.6242 86.9779 88.4064 86.2235C88.1886 85.4692 88.2776 84.6613 88.6548 83.9702C89.1197 82.2884 89.4878 80.5823 89.7575 78.86C89.8547 78.1755 90.098 77.268 90.3412 76.3925C90.4385 76.0104 90.098 75.4214 89.9196 75.4851C87.792 76.6231 85.465 77.3576 83.0605 77.6501C81.8087 77.6624 80.5711 77.39 79.4445 76.8541C79.6391 78.5734 79.7526 80.7544 79.8661 83.222C80.0931 88.3321 80.3688 94.1428 81.666 97.3744C83.7416 102.548 88.5251 111.384 97.2003 112.45C105.421 113.421 120.648 106.051 127.426 91.7548ZM88.671 71.2982C87.9761 70.5807 87.1299 70.0209 86.1916 69.6579C85.2533 69.2949 84.2456 69.1376 83.2389 69.1968C79.4607 69.1968 79.0067 71.2823 79.4931 71.1549C80.6979 70.6237 81.987 70.3006 83.3037 70.1998C86.3198 70.1998 87.6657 71.4574 88.671 71.2982Z" fill="#24242E"/>
<path d="M37.9831 141.565C37.6264 141.565 37.2778 141.461 36.9814 141.266C36.6851 141.071 36.4544 140.794 36.3186 140.471C36.1829 140.147 36.1482 139.791 36.219 139.447C36.2897 139.104 36.4628 138.789 36.7162 138.543C36.9695 138.296 37.2918 138.129 37.642 138.063C37.9922 137.997 38.3546 138.034 38.6832 138.17C39.0119 138.306 39.2918 138.535 39.4877 138.828C39.6835 139.121 39.7863 139.464 39.7831 139.814C39.7831 140.045 39.7364 140.274 39.6458 140.488C39.5551 140.701 39.4223 140.895 39.2549 141.058C39.0876 141.221 38.889 141.349 38.6707 141.437C38.4524 141.524 38.2187 141.567 37.9831 141.565ZM25.8372 155.432C26.1128 155.399 26.3667 155.269 26.5509 155.065C26.7351 154.861 26.8369 154.598 26.8369 154.325C26.8369 154.053 26.7351 153.79 26.5509 153.586C26.3667 153.382 26.1128 153.251 25.8372 153.219H22.8534C22.9833 153.554 23.0492 153.911 23.048 154.27C23.0469 154.668 22.9699 155.062 22.8209 155.432H25.8372ZM39.1669 136.917V133.955C39.186 133.799 39.1712 133.64 39.1233 133.49C39.0754 133.34 38.9956 133.201 38.8891 133.083C38.7826 132.965 38.6518 132.871 38.5054 132.806C38.359 132.741 38.2004 132.708 38.0399 132.708C37.8794 132.708 37.7207 132.741 37.5743 132.806C37.4279 132.871 37.2972 132.965 37.1907 133.083C37.0842 133.201 37.0043 133.34 36.9564 133.49C36.9085 133.64 36.8937 133.799 36.9128 133.955V136.885C37.2542 136.756 37.6173 136.691 37.9831 136.694C38.3884 136.695 38.79 136.77 39.1669 136.917ZM32.0804 138.652C31.921 138.633 31.7594 138.648 31.6063 138.695C31.4531 138.742 31.3118 138.82 31.1917 138.925C31.0716 139.029 30.9755 139.158 30.9097 139.301C30.8439 139.445 30.8098 139.601 30.8098 139.758C30.8098 139.916 30.8439 140.072 30.9097 140.215C30.9755 140.359 31.0716 140.487 31.1917 140.592C31.3118 140.697 31.4531 140.775 31.6063 140.822C31.7594 140.869 31.921 140.884 32.0804 140.865H34.9993C34.8747 140.528 34.8089 140.173 34.8047 139.814C34.8127 139.417 34.8895 139.024 35.0318 138.652H32.0804ZM36.8642 142.712V145.657C36.845 145.813 36.8599 145.972 36.9078 146.122C36.9557 146.273 37.0355 146.411 37.142 146.529C37.2485 146.647 37.3793 146.741 37.5257 146.806C37.672 146.871 37.8307 146.904 37.9912 146.904C38.1517 146.904 38.3104 146.871 38.4568 146.806C38.6031 146.741 38.7339 146.647 38.8404 146.529C38.9469 146.411 39.0267 146.273 39.0746 146.122C39.1225 145.972 39.1374 145.813 39.1182 145.657V142.743C38.7691 142.865 38.4021 142.929 38.0318 142.934C37.616 142.932 37.2041 142.857 36.8155 142.712H36.8642ZM43.9993 140.96C44.1587 140.979 44.3203 140.965 44.4735 140.917C44.6267 140.87 44.7679 140.792 44.888 140.688C45.0081 140.583 45.1042 140.455 45.17 140.311C45.2359 140.167 45.2699 140.011 45.2699 139.854C45.2699 139.696 45.2359 139.541 45.17 139.397C45.1042 139.253 45.0081 139.125 44.888 139.02C44.7679 138.916 44.6267 138.837 44.4735 138.79C44.3203 138.743 44.1587 138.729 43.9993 138.747H40.9669C41.0984 139.088 41.1644 139.45 41.1615 139.814C41.1615 140.207 41.0845 140.596 40.9345 140.96H43.9993ZM84.5399 108.005C85.466 108.274 86.4163 108.456 87.3777 108.547L86.1291 107.098L84.5399 108.005ZM125.68 37.1286C126.476 36.5516 127.084 35.7609 127.432 34.8521C126.325 34.8704 125.247 35.2082 124.334 35.8232C124.821 36.269 125.275 36.7625 125.68 37.1286ZM111.913 147.774C110.075 148.121 108.206 148.286 106.334 148.268L97.7074 160.558L90.0372 148.077L84.621 147.424L97.2209 168.566L111.913 147.774ZM120.507 32.1775L121.27 32.6073C123.183 32.0755 124.591 32.1535 126.572 31.9864C124.513 30.3834 122.161 28.7969 122.08 28.7969C121.999 28.7969 121.237 31.1904 120.507 32.1775ZM114.783 107.942C119.875 106.564 124.776 104.58 129.378 102.035V95.6673C129.021 95.0623 128.68 94.4255 128.324 93.7409C125.06 99.4899 120.411 104.366 114.783 107.942ZM123.118 44.1813C123.118 44.1813 112.302 26.6691 92.6966 34.8202C95.5182 33.7058 110.129 28.9775 119.794 45.1206C121.772 48.4002 125.324 54.6727 129.378 62.0756V55.8667L123.118 44.1813ZM13.6247 153.123C13.3491 153.156 13.0951 153.286 12.9109 153.49C12.7267 153.694 12.625 153.957 12.625 154.23C12.625 154.502 12.7267 154.765 12.9109 154.969C13.0951 155.173 13.3491 155.304 13.6247 155.336H16.8858C16.762 154.994 16.6963 154.633 16.6912 154.27C16.6912 153.877 16.7682 153.488 16.9182 153.123H13.6247ZM129.167 41.6818L129.378 42.0717V41.7215L129.167 41.5385V41.6818ZM19.8696 156.037C20.2256 156.037 20.5736 155.933 20.8696 155.739C21.1656 155.545 21.3963 155.269 21.5326 154.946C21.6688 154.623 21.7045 154.268 21.635 153.925C21.5656 153.582 21.3941 153.267 21.1424 153.02C20.8907 152.773 20.5699 152.605 20.2208 152.536C19.8716 152.468 19.5097 152.503 19.1808 152.637C18.8519 152.771 18.5707 152.997 18.3729 153.288C18.1752 153.578 18.0696 153.92 18.0696 154.27C18.0696 154.738 18.2592 155.188 18.5968 155.519C18.9344 155.851 19.3922 156.037 19.8696 156.037ZM18.7831 148.427V151.388C19.1335 151.273 19.5002 151.214 19.8696 151.213C20.2718 151.199 20.6733 151.258 21.0534 151.388V148.427C21.0534 148.131 20.9338 147.848 20.7209 147.639C20.508 147.43 20.2193 147.312 19.9182 147.312C19.6172 147.312 19.3285 147.43 19.1156 147.639C18.9027 147.848 18.7831 148.131 18.7831 148.427ZM119.551 47.1743C118.011 43.5187 115.445 40.3675 112.153 38.0874C108.86 35.8073 104.975 34.4921 100.951 34.2948C98.4531 34.1016 95.9421 34.427 93.5811 35.2499C91.2202 36.0728 89.0623 37.3748 87.248 39.0709C90.6924 37.5239 94.4572 36.7879 98.2426 36.9217C105.41 37.1923 110.551 39.1824 114.88 46.0917C116.907 49.2758 123.216 61.5503 129.378 73.7133V65.1005L119.551 47.1743ZM18.702 157.167V160.128C18.6829 160.285 18.6977 160.443 18.7456 160.594C18.7935 160.744 18.8734 160.883 18.9799 161.001C19.0864 161.119 19.2171 161.213 19.3635 161.278C19.5099 161.342 19.6686 161.376 19.8291 161.376C19.9896 161.376 20.1482 161.342 20.2946 161.278C20.441 161.213 20.5717 161.119 20.6783 161.001C20.7848 160.883 20.8646 160.744 20.9125 160.594C20.9604 160.443 20.9752 160.285 20.9561 160.128V157.199C20.6091 157.328 20.2407 157.393 19.8696 157.39C19.4694 157.39 19.073 157.314 18.702 157.167ZM60.0858 149.032C59.6642 148.538 59.2588 148.029 58.8858 147.44C54.9094 154.652 51.4684 162.269 48.6767 169.999H50.6388C53.2238 162.82 56.4098 155.736 60.0858 149.032Z" fill="#F4C900"/>
<path d="M61.0265 110.455C60.0074 110.751 59.0058 111.102 58.0265 111.507C59.3887 107.061 64.3833 98.7594 70.4643 88.7365C73.6466 83.7685 76.216 78.4461 78.1184 72.8815C78.1184 73.1523 78.1184 73.3754 78.1184 73.4392C78.1184 73.9969 78.2968 74.5387 78.4103 75.0326C78.5238 75.5266 78.5238 75.5744 78.5562 75.8931V76.2596C78.5562 76.7855 78.686 77.375 78.7346 77.9965C77.3682 81.6926 75.5725 85.2216 73.3833 88.5134C68.6641 95.4851 64.5314 102.823 61.0265 110.455ZM60.5076 133.943L58.9833 128.828L54.3292 131.011C56.2265 132.047 58.3022 133.099 60.5724 134.087C60.5442 134.042 60.5224 133.994 60.5076 133.943ZM54.3292 129.418L58.6914 127.442C56.9238 126.534 55.3184 125.625 53.8265 124.765L54.3292 129.418ZM68.0319 137.003C70.3508 137.784 72.8968 138.501 75.4589 139.122L72.9941 134.804L68.0319 137.003ZM66.4103 130.916L68.0319 135.425L73.0103 133.21C70.6265 132.493 68.3724 131.617 66.2806 130.868C66.3292 130.82 66.3454 130.852 66.3454 130.868L66.4103 130.916ZM74.0157 133.513L76.5616 137.975L80.5833 135.186H80.713C78.3562 134.708 76.1022 134.177 73.9508 133.593L74.0157 133.513ZM65.34 130.533H65.4697C63.6535 129.8 61.967 129.035 60.3779 128.271L61.7238 132.732L65.34 130.533ZM47.1616 147.679L46.4319 146.564H45.767C45.4487 146.589 45.1287 146.589 44.8103 146.564L46.4319 149.065C46.6751 148.571 46.9346 148.157 47.1616 147.679ZM65.2751 132.222L61.5941 134.358C61.5192 134.373 61.4419 134.373 61.367 134.358C63.1022 135.107 64.9508 135.824 66.8806 136.493L65.2751 132.222ZM76.9184 139.441C78.8481 139.871 80.8589 140.237 82.9508 140.556L80.7292 136.78L76.9184 139.441ZM47.2427 133.067C46.4319 132.573 45.6211 132.095 44.94 131.617C44.9486 131.765 44.9486 131.914 44.94 132.063L45.7508 133.29C46.3795 133.283 47.0031 133.402 47.5833 133.641L47.2427 133.067ZM41.6643 122.152L43.0589 124.255C43.9508 124.908 44.9562 125.641 46.0914 126.406L45.2157 125.099L45.9616 125.641V121.737L43.1076 121.928L42.1995 120.526L46.6751 120.239C46.775 120.233 46.8751 120.247 46.9694 120.28C47.0636 120.313 47.1499 120.365 47.2229 120.432C47.2959 120.499 47.354 120.58 47.3937 120.671C47.4334 120.761 47.4537 120.858 47.4535 120.956V125.163L52.8697 124.048C50.4155 122.553 48.0743 120.886 45.8643 119.06C44.2427 119.666 42.5238 120.303 40.9022 120.956L41.5995 122.024L41.6643 122.152ZM79.367 87.382C79.2697 85.9479 79.2049 84.4819 79.14 83.0956C79.14 82.3148 79.14 81.5021 79.0427 80.8329C77.8089 83.9379 76.2377 86.903 74.3562 89.6766C69.9538 96.2036 66.02 103.024 62.5833 110.089C64.3022 109.707 65.8265 109.468 67.0589 109.324C68.7529 104.779 70.9787 100.442 73.6914 96.4011C75.7824 93.5202 77.6784 90.5074 79.367 87.382ZM50.8751 141.002L51.6373 139.728L50.7454 138.373C50.8346 138.9 50.878 139.433 50.8751 139.967C50.8751 140.269 50.8751 140.588 50.8751 140.939V141.002ZM52.7076 137.959L53.2103 137.178L52.4481 136.031L51.2157 135.409L49.9184 134.66L52.4157 138.437C52.5292 138.246 52.6265 138.086 52.7076 137.959ZM12.6211 137.114L13.2049 138.023C13.3739 137.478 13.5797 136.946 13.8211 136.429L13.1887 135.489L12.6211 135.935V137.114ZM12.7346 142.197C12.7346 141.927 12.7346 141.64 12.7346 141.353C12.7347 140.857 12.7672 140.362 12.8319 139.871L12.6211 139.6V142.022L12.7346 142.197ZM12.9616 147.44H13.367C13.3162 147.15 13.2891 146.857 13.286 146.564C13.2837 146.248 13.3163 145.932 13.3833 145.623L12.6211 144.508V146.93L12.9616 147.44ZM15.313 134.198L14.34 134.804L14.5833 135.17C14.8027 134.83 15.0465 134.505 15.313 134.198ZM81.5724 135.409L84.1995 139.791L88.9022 136.604C88.9996 136.539 89.1103 136.496 89.2265 136.477C86.5346 136.206 83.9562 135.824 81.4751 135.346C81.5107 135.362 81.5435 135.383 81.5724 135.409ZM129.378 132.493V131.314C119.333 134.961 108.708 136.823 97.9995 136.812C95.1833 136.814 92.3689 136.676 89.567 136.397C89.703 136.448 89.8212 136.537 89.9076 136.652L93.0049 140.7L96.7995 137.114C96.9359 136.983 97.1193 136.909 97.3103 136.909C97.5013 136.909 97.6847 136.983 97.8211 137.114L101.697 140.795L106.156 136.652C106.293 136.521 106.476 136.447 106.667 136.447C106.858 136.447 107.041 136.521 107.178 136.652L110.421 139.839L113.843 135.824C113.965 135.685 114.135 135.595 114.321 135.572C114.506 135.548 114.694 135.593 114.848 135.696L118.902 138.596L121.659 134.039C121.707 133.955 121.772 133.882 121.85 133.824C121.928 133.766 122.018 133.726 122.113 133.704C122.29 133.633 122.488 133.633 122.664 133.704L127.529 136.557L129.378 132.493ZM12.6211 164.092V165.096C12.6222 166.044 12.8748 166.964 13.4129 167.751C14.0856 168.762 15.0282 169.463 16.3268 169.841L12.6211 164.092ZM52.4806 125.609L47.3238 126.661C48.9454 127.777 50.7941 128.988 52.9184 130.215L52.4806 125.609ZM127.432 149.352C127.01 148.725 126.358 148.281 125.612 148.115C124.865 147.949 124.082 148.072 123.427 148.46C123.35 147.737 123.001 147.069 122.449 146.586C121.898 146.102 121.182 145.839 120.443 145.847C117.443 145.607 116.697 148.205 116.875 150.436C116.875 151.408 118.643 157.224 118.643 157.224C118.643 157.224 124.724 155.312 125.567 154.834C127.545 153.718 129.378 151.647 127.432 149.352ZM78.1022 166.705C78.9454 167.183 85.0265 169.095 85.0265 169.095C85.0265 169.095 86.7292 163.279 86.8103 162.323C86.9724 160.076 86.2265 157.543 83.2265 157.718C82.4883 157.714 81.7746 157.978 81.2235 158.461C80.6724 158.944 80.3229 159.61 80.2427 160.331C79.5848 159.951 78.8044 159.832 78.0603 159.998C77.3162 160.164 76.6643 160.602 76.2373 161.223C74.3562 163.518 76.1238 165.59 78.1022 166.705ZM85.1887 140.843C87.2968 141.098 89.4697 141.305 91.6751 141.449L89.1616 138.086L85.1887 140.843ZM79.0751 150.404C79.2373 148.173 78.5076 145.623 75.5076 145.815C74.7673 145.803 74.0497 146.065 73.497 146.549C72.9443 147.033 72.5969 147.704 72.5238 148.428C71.8679 148.04 71.085 147.917 70.3386 148.083C69.5922 148.25 68.9401 148.693 68.5184 149.32C66.6211 151.615 68.4049 153.686 70.367 154.802C71.2265 155.28 77.3076 157.192 77.3076 157.192C77.3076 157.192 79.0103 151.344 79.1076 150.436L79.0751 150.404ZM111.508 140.763C113.778 140.492 115.935 140.142 117.994 139.728L114.508 137.226L111.508 140.763ZM94.1562 141.544C95.4049 141.544 96.6697 141.544 97.9508 141.544H100.383L97.3022 138.596L94.1562 141.544ZM120.102 139.297C122.34 138.819 124.481 138.262 126.589 137.704L122.551 135.409L120.102 139.297ZM103.043 141.528C105.313 141.417 107.502 141.257 109.626 141.034L106.675 138.182L103.043 141.528ZM45.0535 151.822C45.2968 151.36 45.5238 150.898 45.7508 150.436L44.4535 148.476C44.3503 148.925 44.1752 149.355 43.9346 149.751L44.0643 150.308L45.0535 151.822ZM32.3076 164.458C31.7189 164.438 31.1329 164.369 30.5562 164.251L34.3356 169.996H35.9572L32.3076 164.458ZM67.9833 161.909C66.7335 164.483 65.6656 167.269 64.821 169.998H73.0102L67.9833 161.909ZM25.2267 169.996H26.1578L25.4806 168.872C25.4291 169.243 25.357 169.644 25.2267 169.996ZM40.4481 162.084L40.2535 161.781C39.9061 162.061 39.5434 162.321 39.167 162.562L39.8643 163.614L40.4481 162.084ZM28.4643 163.582C27.7474 163.29 27.0627 162.927 26.4211 162.498V162.801L31.1494 169.996H32.771L28.4643 163.582ZM20.0643 141.56H20.4211L18.1022 138.054C17.8306 138.525 17.6234 139.029 17.486 139.552L18.8643 141.624C19.2628 141.581 19.6634 141.56 20.0643 141.56ZM18.2968 169.996H19.9184L17.486 166.673C16.7555 166.532 16.0505 166.285 15.3941 165.94L18.2968 169.996ZM25.74 164.347C25.5974 164.554 25.4403 164.751 25.2697 164.936L25.367 165.526C25.4274 165.821 25.4707 166.119 25.4968 166.418L27.8491 169.996H29.4708L25.74 164.347ZM38.2103 168.49L35.3238 164.219C34.8415 164.318 34.3544 164.393 33.8643 164.442L37.514 169.996H37.7248L38.2103 168.49ZM115.708 160.331C115.624 159.609 115.271 158.942 114.717 158.46C114.163 157.977 113.448 157.713 112.708 157.718C109.724 157.479 108.978 160.076 109.14 162.323C109.14 163.279 110.908 169.095 110.908 169.095C110.908 169.095 117.005 167.183 117.848 166.705C119.826 165.59 121.594 163.518 119.713 161.223C119.286 160.602 118.634 160.164 117.89 159.998C117.146 159.832 116.366 159.951 115.708 160.331ZM128.681 40.6455C128.917 40.6889 129.15 40.7475 129.378 40.8208V40.4703C129.131 40.5136 128.887 40.5722 128.648 40.6455H128.681ZM122.762 34.3513C123.135 34.6382 123.491 34.9409 123.832 35.2277C125.009 34.3952 126.437 33.9744 127.886 34.0326C127.938 34.0252 127.991 34.0316 128.039 34.0512C128.088 34.0708 128.13 34.103 128.162 34.1442C128.181 34.1895 128.191 34.2383 128.191 34.2876C128.191 34.3369 128.181 34.3857 128.162 34.431C127.798 35.6117 127.094 36.6634 126.135 37.4586L126.864 38.2872C127.754 37.466 128.594 36.5933 129.378 35.6739V33.5865C127.152 33.6239 124.936 33.8802 122.762 34.3513ZM127.886 42.1753C127.886 42.1753 118.837 27.078 100.189 31.048C100.189 31.048 117.135 29.8418 125.227 44.0237C126.378 46.0155 127.789 48.597 129.378 51.5289V44.9957L127.886 42.1753ZM129.378 136.094L128.989 136.955L129.378 136.827V136.094ZM78.8968 109.005L68.3724 111.173C69.2643 111.81 80.1941 119.315 100.578 118.63C110.523 118.192 120.295 115.911 129.378 111.906V104.926C120.799 109.452 100.367 117.881 78.8968 108.942V109.005ZM119.437 60.8667C119.437 60.8667 119.437 74.3634 129.378 91.3338V79.0482L119.437 60.8667ZM19.6751 166.896H19.3346L20.8103 169.143C20.9459 168.622 21.0167 168.087 21.0211 167.55C21.0211 167.374 21.0211 167.183 21.0211 166.992L20.9238 166.848C20.5088 166.888 20.092 166.904 19.6751 166.896ZM24.2968 142.532L19.9346 135.951C19.5703 136.221 19.2384 136.531 18.9454 136.875L22.1887 141.799C22.924 141.941 23.6342 142.188 24.2968 142.532ZM27.2157 127.314L26.0157 127.952L27.7508 130.629C28.5382 130.872 29.2945 131.204 30.0049 131.617L27.2157 127.314ZM35.5184 159.518L32.7292 155.28C32.6646 155.917 32.5398 156.546 32.3562 157.16L34.1724 159.901C34.6327 159.817 35.0835 159.689 35.5184 159.518ZM37.7887 158.037L33.3616 151.344C32.6981 150.998 32.1354 150.492 31.7268 149.873C31.3181 149.254 31.0771 148.543 31.0265 147.806L29.9724 146.213C29.2995 146.194 28.6398 146.025 28.0427 145.719L29.6643 148.205C30.4585 148.667 31.1336 149.302 31.6371 150.062C32.1405 150.822 32.4587 151.686 32.567 152.587L36.7184 158.961C37.1072 158.69 37.4659 158.381 37.7887 158.037ZM30.9454 159.742C31.4721 159.899 32.017 159.99 32.567 160.012L31.6914 158.674C31.4905 159.06 31.2398 159.419 30.9454 159.742ZM25.0914 139.552C25.0914 139.345 25.0914 139.122 25.0914 138.883L22.3508 134.74C21.9061 134.849 21.4761 135.01 21.0697 135.218L25.286 141.592C25.1491 140.921 25.0839 140.237 25.0914 139.552ZM27.6535 147.759H27.7508L26.8427 146.388C26.8507 146.452 26.8507 146.516 26.8427 146.58C26.8431 146.997 26.7996 147.414 26.713 147.822C27.0241 147.775 27.3387 147.754 27.6535 147.759ZM33.3292 124.255L35.4373 127.442C35.8992 127.306 36.3708 127.205 36.8481 127.139L34.5454 123.665L33.3292 124.255ZM30.8643 125.45L33.0049 128.637C33.3443 128.351 33.7205 128.11 34.1238 127.92L32.0806 124.86L30.8643 125.45ZM28.4319 126.677L31.4806 131.282C31.5572 130.716 31.7562 130.173 32.0643 129.689L29.6319 126.024L28.4319 126.677ZM39.313 165.255L38.0157 163.295C37.6112 163.496 37.1942 163.672 36.767 163.821L38.7616 166.848C38.94 166.307 39.1346 165.781 39.313 165.255ZM26.0806 135.409L25.5941 134.613C25.1612 134.53 24.7215 134.487 24.2806 134.485H23.8589L25.4806 136.907C25.6263 136.388 25.8274 135.886 26.0806 135.409ZM24.2319 130.007C24.775 130.008 25.3172 130.051 25.8535 130.135L24.8481 128.541L23.6643 129.179L24.1833 129.96L24.2319 130.007ZM35.5833 152.173L38.7454 156.953C39.0258 156.521 39.2595 156.062 39.4427 155.583L37.3508 152.396C36.746 152.366 36.1443 152.291 35.5508 152.173H35.5833ZM39.913 153.145C39.9354 152.853 39.9354 152.56 39.913 152.268L39.0211 152.396L39.9454 153.814C39.8643 153.559 39.8806 153.352 39.8806 153.145H39.913Z" fill="#C72F2A"/>
</g>
<path d="M32.3076 75.5977C29.9999 75.5977 27.846 76.5207 26.1537 78.0592C25.9999 78.213 25.846 78.213 25.6922 78.0592C24.1537 76.5207 21.9999 75.5977 19.5383 75.5977C14.6152 75.5977 10.6152 79.5977 10.6152 84.6746C10.6152 89.1361 12.7691 91.4438 18.4614 96.213C20.7691 98.213 24.1537 102.367 25.3845 104.059C25.6922 104.521 26.3076 104.521 26.6152 104.059C27.9999 102.367 31.2306 98.213 33.5383 96.213C39.0768 91.29 41.3845 89.1361 41.3845 84.6746C41.3845 79.5977 37.3845 75.5977 32.3076 75.5977Z" fill="#BF3030"/>
<path d="M39.3166 68.514L35.6906 72.362L27.8466 64.666C27.2546 64.666 26.8846 64.74 25.9966 64.74C22.5186 64.74 16.3026 64.518 14.0086 58.228C13.4166 56.6 12.8246 54.528 12.8246 42.17C12.8246 37.878 12.8246 26.186 13.1946 22.56C13.4906 19.748 14.5266 10.942 26.4406 10.942C28.4386 10.942 33.1746 11.164 36.0606 14.864C38.4286 17.972 38.8726 21.894 38.8726 31.81C38.8726 36.546 38.6506 44.538 38.5026 48.46C38.2806 54.232 37.9846 60.226 32.8786 63.112L39.3166 68.514ZM19.4846 37.138C19.4846 47.942 19.4846 51.494 19.7066 53.418C19.8546 55.12 20.2986 59.412 25.7746 59.412C31.4726 59.412 31.7686 54.454 31.9166 51.05C32.0646 47.35 32.2126 40.838 32.2126 37.138C32.2126 34.4 32.2866 29.812 32.1386 24.854C32.0646 22.042 31.9166 16.418 26.1446 16.418C20.2986 16.418 19.9286 21.302 19.6326 24.78C19.4846 26.704 19.4846 28.628 19.4846 37.138Z" fill="#BF3030"/>
<defs>
<linearGradient id="paint0_linear_324_104523" x1="92" y1="2" x2="92" y2="182" gradientUnits="userSpaceOnUse">
<stop stop-color="white" stop-opacity="0.85"/>
<stop offset="1" stop-color="white" stop-opacity="0.15"/>
</linearGradient>
<clipPath id="clip0_324_104523">
<rect width="116.757" height="165" fill="white" transform="translate(12.6211 5)"/>
</clipPath>
</defs>
</svg>
