<svg width="184" height="184" viewBox="0 0 184 184" fill="none" xmlns="http://www.w3.org/2000/svg">
<rect x="1" y="1" width="182" height="182" rx="13" stroke="black" stroke-opacity="0.25" stroke-width="2"/>
<rect x="2.5" y="2.5" width="179" height="179" rx="11.5" fill="#E9E9E9" stroke="url(#paint0_linear_324_104541)"/>
<rect x="41.0449" y="30.5" width="101.909" height="123" rx="1.5" fill="#D7D5D7" stroke="#CDCFD6"/>
<g clip-path="url(#clip0_324_104541)">
<path d="M129.378 54.3665V165.226C129.378 166.488 128.658 167.522 127.757 168.414C126.855 169.307 125.847 169.985 124.572 169.985L121.783 170.001H120.459C119.648 170.001 119.382 170.001 118.838 170.001C118.135 170.001 118.838 170.001 118.027 170.001H116.978H18.8321C18.3759 169.996 17.9228 169.926 17.4863 169.795L50.4899 137.817L49.016 134.2C49.5607 133.55 56.0974 125.651 58.0519 119.449C58.0519 119.353 57.1868 109.931 60.4391 103C61.0799 101.604 61.865 100.097 62.6821 98.4948C66.0786 91.8803 69.4681 83.9131 70.189 73.2221V68.4624C71.1503 55.2652 73.3201 39.4562 93.2825 34.4755C115.119 29.1458 126.334 48.7513 126.767 49.6555L127.167 50.401C127.936 51.7334 128.641 53.05 129.378 54.3665Z" fill="#E7E7E7"/>
<path d="M88.7913 129.818C88.7222 130.375 88.4286 130.882 87.975 131.229C87.5214 131.575 86.9449 131.732 86.3723 131.665L85.4145 131.555L85.3008 132.486C85.2319 133.045 84.9375 133.555 84.4823 133.903C84.257 134.075 83.9989 134.202 83.7229 134.278C83.4469 134.353 83.1583 134.375 82.8737 134.341C82.2989 134.274 81.775 133.988 81.4173 133.546C81.0595 133.103 80.8972 132.54 80.9661 131.981L81.0798 131.05L80.1382 130.939C79.5634 130.872 79.0394 130.586 78.6817 130.143C78.324 129.7 78.1617 129.138 78.2306 128.579C78.2995 128.02 78.5939 127.51 79.0491 127.162C79.5042 126.814 80.0829 126.657 80.6577 126.724L81.5993 126.834L81.7129 125.918C81.747 125.642 81.8369 125.374 81.9773 125.131C82.1178 124.888 82.306 124.674 82.5314 124.502C82.7568 124.33 83.0148 124.202 83.2909 124.127C83.5669 124.052 83.8554 124.03 84.14 124.063C84.4247 124.096 84.6998 124.184 84.9497 124.32C85.1996 124.457 85.4194 124.64 85.5965 124.859C85.7736 125.078 85.9046 125.329 85.982 125.598C86.0594 125.866 86.0817 126.147 86.0476 126.424L85.934 127.339L86.8918 127.45C87.4658 127.521 87.9875 127.81 88.3434 128.253C88.6992 128.697 88.8602 129.259 88.7913 129.818ZM87.5412 109.641C87.1191 110.62 90.3985 109.183 91.0479 109.183C91.0479 109.293 87.9796 108.693 87.5412 109.688V109.641ZM71.5175 123.755L70.6246 123.44L70.9493 122.556C71.1495 122.028 71.126 121.445 70.884 120.934C70.6419 120.423 70.2011 120.027 69.6586 119.832C69.1161 119.637 68.5163 119.66 67.9911 119.896C67.4659 120.131 67.0583 120.56 66.8581 121.087L66.5334 121.956L65.6243 121.64C65.3556 121.543 65.0701 121.499 64.784 121.51C64.4979 121.521 64.2168 121.587 63.9567 121.703C63.6967 121.82 63.4628 121.985 63.2684 122.19C63.074 122.394 62.9229 122.634 62.8238 122.895C62.7246 123.156 62.6794 123.434 62.6906 123.712C62.7018 123.99 62.7693 124.264 62.8891 124.517C63.009 124.77 63.1789 124.997 63.3891 125.186C63.5993 125.375 63.8458 125.522 64.1144 125.618L65.0074 125.934L64.6827 126.818C64.5817 127.078 64.5347 127.355 64.5447 127.633C64.5546 127.911 64.6211 128.184 64.7404 128.437C64.8597 128.689 65.0294 128.916 65.2397 129.105C65.4499 129.293 65.6965 129.439 65.9652 129.534C66.2337 129.632 66.5197 129.678 66.8065 129.669C67.0933 129.659 67.3754 129.595 67.6365 129.479C67.8976 129.363 68.1325 129.198 68.3277 128.993C68.5229 128.789 68.6745 128.549 68.7738 128.287L69.0985 127.418L70.0077 127.734C70.2751 127.832 70.5599 127.878 70.8456 127.868C71.1312 127.859 71.4121 127.794 71.6719 127.678C71.9316 127.562 72.1651 127.397 72.3588 127.192C72.5524 126.988 72.7024 126.748 72.8 126.487C72.9896 125.965 72.9614 125.392 72.7217 124.89C72.482 124.389 72.0497 123.998 71.5175 123.803V123.755ZM83.0279 76.7851V76.6273C82.1802 75.3685 80.876 74.4666 79.3751 74.1011C77.9647 73.8388 76.5159 73.8388 75.1054 74.1011C76.3736 74.06 77.6403 74.22 78.8556 74.5748C80.4098 74.9972 81.8394 75.7708 83.0279 76.8325V76.7851ZM119.215 63.8229H119.313C119.313 63.8229 116.829 55.2972 114.897 49.9292C112.543 42.9823 103.078 38.53 94.2137 38.5458C88.7994 38.7963 83.6392 40.8538 79.6024 44.3717C82.8161 41.9652 86.6334 40.4388 90.6583 39.951C104.117 38.5616 112.51 47.1031 113.858 51.2712C114.799 54.192 117.689 63.744 117.689 63.744C120.754 74.1488 124.663 84.3009 129.378 94.1049V150.343C128.211 149.826 126.913 149.65 125.645 149.838C124.376 150.026 123.191 150.569 122.235 151.401L124.54 153.28C125.101 152.9 125.758 152.676 126.44 152.632C127.054 152.603 127.666 152.717 128.226 152.964L129.378 151.638V160.305L128.29 159.421C127.843 159.632 127.358 159.755 126.862 159.784C126.428 159.812 125.993 159.758 125.579 159.626L125.384 159.848C126.045 160.663 126.476 161.631 126.635 162.658H127.04C127.849 162.609 128.641 162.417 129.378 162.089V165.247C129.378 166.503 128.865 167.708 127.952 168.596C127.038 169.485 125.805 169.999 124.513 169.999H121.494L120.222 168.942C119.779 169.165 119.292 169.294 118.793 169.32C118.359 169.341 117.941 169.306 117.526 169.181L116.817 169.999H113.684L115.562 167.71C115.183 167.183 114.954 166.567 114.897 165.926C114.877 165.509 114.931 165.093 115.059 164.695L112.689 162.753C112.135 163.794 111.883 164.961 111.958 166.131C112.033 167.562 112.605 168.926 113.582 169.999H17.3258C16.8292 169.993 16.3175 169.952 15.8457 169.801L49.3408 137.87L47.8472 134.286C47.8472 134.286 54.958 126.061 57.0199 119.603C57.0199 119.603 56.1107 110.256 59.4551 103.183C62.7994 96.1101 67.4101 86.5423 68.3193 73.2959C69.2284 60.0495 67.9458 40.5194 92.1681 34.504C101.227 32.2621 109.263 33.7304 114.751 36.9354C117.735 34.2214 120.393 31.1864 122.673 27.8887C122.781 27.7218 122.924 27.5781 123.091 27.4663C123.258 27.3546 123.447 27.2771 123.646 27.2387C123.845 27.2003 124.05 27.2017 124.248 27.2429C124.447 27.2841 124.634 27.3641 124.8 27.4782C126.231 28.8243 127.782 30.0209 129.378 31.1773V90.6601C125.402 81.9382 121.985 72.9753 119.215 63.8229ZM122.787 121.608C123.246 122.307 123.961 122.809 124.787 123.015C125.613 123.22 126.488 123.112 127.235 122.713C127.648 123.245 128.213 123.646 128.859 123.866C128.242 123.061 127.674 122.287 127.122 121.466L126.813 121.656C126.324 121.957 125.733 122.057 125.168 121.935C124.603 121.812 124.112 121.476 123.802 121C123.492 120.525 123.388 119.95 123.515 119.4C123.641 118.851 123.987 118.373 124.475 118.072L124.784 117.882C124.248 117.03 123.761 116.177 123.29 115.34C123.219 115.996 123.355 116.657 123.68 117.235C122.989 117.718 122.513 118.439 122.347 119.25C122.182 120.062 122.339 120.905 122.787 121.608ZM71.9396 65.7333C74.5711 64.4421 77.0529 62.8807 79.3427 61.0758C83.5233 57.9127 86.3281 53.3365 87.2003 48.2556C85.7766 52.0267 83.2967 55.3353 80.0408 57.8076C77.6054 59.7195 74.9656 61.371 72.1669 62.7335C72.0532 63.8071 71.9721 64.8176 71.9396 65.7333ZM68.5303 169.147C68.2343 167.838 67.5179 166.655 66.4847 165.768C65.5026 164.915 64.282 164.366 62.978 164.189L63.2378 167.189C63.7703 167.357 64.2557 167.642 64.6557 168.023C65.0557 168.404 65.3594 168.869 65.5431 169.384L68.5303 169.147ZM69.683 144.028L62.0526 141.407C61.9231 141.36 61.7827 141.35 61.6476 141.378C61.5126 141.406 61.3884 141.471 61.2896 141.565C61.1887 141.658 61.1181 141.778 61.0863 141.91C61.0546 142.042 61.0632 142.18 61.111 142.307C62.6746 147.06 63.2971 152.058 62.9455 157.037C62.9271 157.196 62.9633 157.357 63.0485 157.494C63.1336 157.631 63.2629 157.737 63.4163 157.795H63.6761C63.7976 157.795 63.9173 157.766 64.0248 157.711C64.1323 157.656 64.2244 157.577 64.293 157.479L68.7089 151.164C68.764 151.086 68.8027 150.999 68.8227 150.907C68.8428 150.815 68.8438 150.719 68.8256 150.627C68.8075 150.534 68.7706 150.446 68.7171 150.368C68.6636 150.289 68.5946 150.222 68.5141 150.169C68.4351 150.114 68.3453 150.074 68.2501 150.053C68.1549 150.033 68.0564 150.031 67.9605 150.049C67.8647 150.067 67.7736 150.103 67.6929 150.157C67.6122 150.21 67.5436 150.279 67.4913 150.359L64.569 154.527C64.5666 150.699 64.0203 146.889 62.9455 143.207L69.1959 145.37C69.3745 145.411 69.5624 145.387 69.7238 145.302C69.8853 145.217 70.0089 145.077 70.0711 144.909C70.1334 144.741 70.1298 144.557 70.0612 144.392C69.9926 144.226 69.8638 144.091 69.6992 144.012L69.683 144.028ZM72.102 122.84C72.3313 122.053 72.2473 121.211 71.8668 120.481C71.4863 119.752 70.8372 119.189 70.0488 118.904C69.2604 118.619 68.3906 118.634 67.6127 118.945C66.8349 119.256 66.2061 119.84 65.8516 120.582C65.0424 120.359 64.1766 120.441 63.4266 120.811C62.6765 121.181 62.0974 121.812 61.8046 122.579C61.5118 123.345 61.5267 124.191 61.8465 124.948C62.1662 125.704 62.7673 126.316 63.53 126.66C63.3007 127.447 63.3846 128.289 63.7652 129.019C64.1457 129.748 64.7948 130.311 65.5832 130.596C66.3716 130.881 67.2413 130.866 68.0192 130.555C68.7971 130.244 69.4259 129.66 69.7804 128.918C70.5895 129.141 71.4554 129.06 72.2054 128.689C72.9554 128.319 73.5345 127.688 73.8273 126.921C74.1202 126.155 74.1052 125.309 73.7855 124.552C73.4657 123.796 72.8646 123.184 72.102 122.84ZM87.2977 126.408C87.3378 125.587 87.0567 124.781 86.511 124.153C85.9652 123.526 85.1952 123.122 84.3559 123.024C83.5166 122.926 82.6703 123.141 81.9872 123.625C81.3041 124.109 80.8348 124.827 80.6739 125.634C79.8295 125.595 79.0013 125.869 78.3558 126.399C77.7103 126.93 77.2954 127.679 77.1946 128.495C77.0938 129.311 77.3146 130.134 77.8125 130.799C78.3104 131.463 79.0485 131.919 79.8784 132.076C79.8383 132.897 80.1194 133.702 80.6651 134.33C81.2109 134.958 81.9809 135.361 82.8202 135.459C83.6595 135.558 84.5058 135.343 85.1889 134.859C85.872 134.374 86.3413 133.657 86.5022 132.849C87.3466 132.889 88.1748 132.615 88.8203 132.084C89.4658 131.554 89.8807 130.805 89.9815 129.989C90.0823 129.172 89.8615 128.349 89.3636 127.685C88.8657 127.021 88.1276 126.564 87.2977 126.408ZM105.935 129.566C105.882 128.738 105.506 127.96 104.885 127.392C104.264 126.823 103.444 126.505 102.591 126.503C102.475 125.692 102.05 124.954 101.4 124.435C100.75 123.917 99.9224 123.655 99.0828 123.703C98.2432 123.751 97.4529 124.104 96.8694 124.693C96.286 125.282 95.9522 126.064 95.9346 126.882C95.0737 126.963 94.2786 127.365 93.7162 128.004C93.1537 128.643 92.8677 129.469 92.9181 130.308C92.9685 131.148 93.3515 131.936 93.9866 132.507C94.6217 133.078 95.4595 133.387 96.3242 133.37C96.4398 134.181 96.8651 134.919 97.5152 135.438C98.1654 135.957 98.9927 136.218 99.8323 136.17C100.672 136.123 101.462 135.769 102.046 135.18C102.629 134.591 102.963 133.809 102.98 132.992C103.817 132.874 104.577 132.455 105.109 131.817C105.642 131.179 105.908 130.37 105.854 129.55L105.935 129.566ZM119.443 162.247C118.857 161.359 118.532 160.333 118.501 159.279H118.144C116.658 159.352 115.24 159.908 114.118 160.858L116.52 162.8C117.077 162.412 117.736 162.187 118.42 162.153C118.764 162.134 119.108 162.166 119.443 162.247ZM122.024 164.458C122.158 164.796 122.235 165.153 122.251 165.516C122.297 166.119 122.18 166.723 121.91 167.268L124.199 169.147C124.928 168.009 125.28 166.681 125.206 165.342V164.963H125.011C123.988 165.036 122.962 164.862 122.024 164.458ZM120.741 153.185C120.189 154.216 119.932 155.371 119.995 156.532C120.014 156.884 120.069 157.232 120.157 157.574C121.329 157.49 122.502 157.736 123.534 158.284C123.144 157.746 122.919 157.111 122.884 156.453C122.85 156.032 122.899 155.608 123.03 155.206L120.741 153.185ZM112.153 120.456C111.373 120.781 110.749 121.383 110.408 122.14C110.067 122.896 110.035 123.75 110.319 124.529C109.531 124.884 108.917 125.523 108.605 126.311C108.293 127.099 108.309 127.974 108.648 128.751C108.988 129.528 109.624 130.146 110.424 130.475C111.223 130.804 112.123 130.817 112.932 130.513C113.298 131.279 113.955 131.876 114.765 132.179C115.575 132.482 116.475 132.467 117.274 132.137C118.073 131.807 118.708 131.188 119.046 130.411C119.384 129.633 119.398 128.758 119.085 127.971C119.91 127.64 120.566 127.004 120.908 126.203C121.251 125.402 121.252 124.502 120.912 123.7C120.572 122.898 119.918 122.261 119.094 121.928C118.271 121.594 117.345 121.593 116.52 121.924C116.129 121.177 115.456 120.606 114.641 120.333C113.827 120.059 112.935 120.103 112.153 120.456ZM93.2721 41.4035C94.2653 42.5714 95.3868 43.6302 96.6165 44.5612C100.006 47.3755 103.926 49.5206 108.159 50.8765C107.189 49.1476 105.863 47.6319 104.263 46.4242C101.115 43.8428 97.3249 42.1114 93.2721 41.4035ZM90.5446 41.3088C91.9523 44.2183 94.0433 46.7655 96.6489 48.7451C102.964 53.6079 107.51 54.9657 109.637 55.3446C109.497 54.261 109.213 53.1996 108.793 52.1869C104.054 50.9102 99.6673 48.6235 95.9508 45.4927C94.3753 44.2903 92.972 42.8886 91.7785 41.3246L90.5446 41.3088ZM89.0673 41.4035C90.1668 45.9407 92.831 49.9748 96.6165 52.8342C102.997 57.7602 107.575 59.1496 109.702 59.4653C109.702 58.7707 109.702 58.1075 109.702 57.476C109.702 57.1287 109.702 56.7813 109.702 56.4498C107.494 56.1182 102.672 54.7762 95.9184 49.5661C93.067 47.4112 90.8036 44.6083 89.327 41.4035H89.0673ZM88.7751 44.1665C89.6507 49.2335 92.4488 53.7969 96.6165 56.955C103.11 61.9441 107.737 63.2703 109.799 63.5861C109.799 62.5756 109.799 61.5494 109.702 60.5547C107.494 60.2232 102.672 58.8812 95.9346 53.6868C92.686 51.2274 90.2067 47.9361 88.7751 44.1822V44.1665ZM88.7751 48.2714C89.6507 53.3385 92.4488 57.9019 96.6165 61.06C103.386 66.2701 108.127 67.4542 110.043 67.7384C110.043 66.7753 109.913 65.7491 109.848 64.6913C107.721 64.3913 102.834 63.1125 95.9346 57.7918C92.6829 55.3354 90.2028 52.043 88.7751 48.2872V48.2714ZM87.9796 49.8503C86.8378 54.6433 84.0345 58.9082 80.0408 61.9283C77.5358 63.8998 74.8133 65.5943 71.9234 66.9806C71.8946 68.3035 71.9488 69.6269 72.0857 70.9435C72.1253 71.9388 72.2338 72.9305 72.4104 73.9117C72.8464 76.1801 72.9936 78.492 72.8487 80.7954C72.6984 86.0889 73.1393 91.3827 74.1638 96.5837C76.7613 111.772 87.1516 116.493 90.6421 116.493C103.776 116.493 114.312 98.873 115.384 97.0258C112.527 90.8841 111.179 81.348 110.513 73.3433C110.513 73.2486 110.302 71.4171 110.091 68.8278C108.127 68.6068 103.11 67.4542 95.9021 61.8967C91.9173 58.8715 89.1207 54.608 87.9796 49.8187V49.8503ZM87.2003 44.1822C85.7596 47.9226 83.2814 51.2015 80.0408 53.6552C77.8321 55.3775 75.4623 56.8945 72.9624 58.1865C72.7026 59.2759 72.4916 60.3495 72.3455 61.3442C74.8218 60.0798 77.1653 58.5833 79.3427 56.8761C83.5026 53.7361 86.3052 49.1972 87.2003 44.1507V44.1822ZM86.3236 42.0192C84.8569 44.9775 82.7066 47.5658 80.0408 49.5819C78.3278 50.9179 76.5214 52.1366 74.6346 53.229C74.1201 54.3942 73.6862 55.5915 73.3358 56.8129C75.445 55.652 77.4538 54.3267 79.3427 52.85C82.9926 50.0951 85.6015 46.2421 86.7619 41.8929L86.3236 42.0192ZM75.495 51.4922C76.8261 50.6652 78.1105 49.7693 79.3427 48.8082C81.5533 47.1332 83.3969 45.045 84.7651 42.6666C83.413 43.2706 82.1426 44.0342 80.9824 44.9401C78.7067 46.706 76.8373 48.9167 75.495 51.4291V51.4922ZM81.2097 82.7531H81.096C79.5649 83.4266 77.906 83.7815 76.2256 83.7952C76.2256 83.7952 75.7385 83.9057 77.1834 84.1267C78.6283 84.3477 81.3071 83.9057 81.5831 83.4162C81.5668 83.3847 82.2487 82.4532 81.2097 82.69V82.7531ZM77.2971 81.7111C76.5827 81.6322 75.2515 81.4901 74.6833 81.4901C74.1681 81.4966 73.6577 81.5873 73.1734 81.7585C73.1734 81.7585 74.3424 80.3059 75.5113 80.6059C75.5187 80.5694 75.5187 80.5319 75.5113 80.4954C75.451 80.4041 75.3968 80.3092 75.3489 80.2112C75.1589 80.066 74.9798 79.9077 74.8132 79.7376C74.3558 78.8552 74.2076 77.8517 74.3911 76.8799C74.2591 76.8459 74.1332 76.7927 74.0177 76.722C73.5108 76.3161 73.0532 75.8553 72.6539 75.3484C73.6767 75.6168 77.8653 76.422 77.8815 76.422C77.995 76.4421 78.1046 76.4794 78.2062 76.5325C79.66 77.3212 81.2014 77.9462 82.8007 78.3955C85.0573 78.8692 84.5865 79.3586 84.5865 79.3586C84.479 79.5104 84.3409 79.6393 84.1806 79.7376C83.512 80.4844 82.6395 81.0318 81.6642 81.3164C80.3842 81.73 79.0297 81.8805 77.6867 81.7585C77.5357 81.7748 77.3832 81.7748 77.2321 81.7585L77.2971 81.7111ZM80.9012 78.3324C80.8752 79.1944 80.5995 80.0317 80.1057 80.748C80.1057 80.748 79.7648 81.1427 81.2421 80.9217C81.692 80.8432 82.1198 80.6733 82.4974 80.423C82.8751 80.1727 83.1942 79.8476 83.4338 79.4692C83.3542 79.4473 83.2778 79.4154 83.2065 79.3744C82.49 78.9114 81.7152 78.54 80.9012 78.2692V78.3324ZM77.8815 81.2532C78.6205 81.1474 79.2903 80.7718 79.7547 80.2028C80.2191 79.6338 80.4433 78.9142 80.3817 78.1903C79.9452 78.041 79.5008 77.9145 79.0504 77.8114C79.0585 77.8796 79.0585 77.9484 79.0504 78.0166C79.0504 78.9481 78.466 79.6902 77.7517 79.6902C77.3591 79.6175 77.0079 79.4066 76.7652 79.0978C76.5226 78.789 76.4056 78.4041 76.4366 78.0166C76.4427 77.7682 76.4921 77.5227 76.5828 77.2904L75.4625 77.0693C75.3774 77.3783 75.3338 77.6967 75.3327 78.0166C75.244 78.7721 75.4601 79.5315 75.9355 80.1351C76.4109 80.7388 77.1085 81.1396 77.8815 81.2532ZM75.9334 69.3488C74.6433 70.2102 73.54 71.31 72.6864 72.5854C73.2385 72.5531 73.7841 72.4523 74.3099 72.2855C75.9369 71.4066 77.7972 71.0217 79.6511 71.1803C80.9651 71.3629 82.1986 71.9052 83.2076 72.7438C84.2165 73.5825 84.9594 74.683 85.3495 75.9168C85.715 78.1333 85.6655 80.3958 85.2034 82.5952C84.4241 86.1318 81.7941 89.9842 82.1188 92.4472C82.1893 93.2694 82.5519 94.0422 83.1444 94.6327C83.7369 95.2233 84.5223 95.5949 85.3658 95.6838C86.4697 95.9522 87.6224 96.7574 87.525 97.831C87.6293 97.5641 87.6766 97.2793 87.6639 96.9941C87.6512 96.7088 87.5788 96.4291 87.4512 96.1719C87.3235 95.9148 87.1433 95.6857 86.9215 95.4986C86.6997 95.3115 86.441 95.1704 86.1613 95.0838C84.1319 94.326 83.0604 94.6417 82.752 92.5261C82.4435 90.4105 84.9112 85.0898 85.5606 82.8005C86.2144 80.3717 86.3086 77.8325 85.8366 75.3642C85.7777 73.5658 85.0036 71.8598 83.6773 70.6053C82.351 69.3507 80.5759 68.6456 78.7257 68.6384C77.741 68.5807 76.7629 68.8295 75.9334 69.3488ZM105.253 77.3377C106.211 77.7009 107.494 78.4113 107.754 78.4587C108.013 78.5061 107.542 78.7271 107.169 78.8376C106.796 78.9481 105.773 80.1481 104.344 80.9059C102.916 81.6637 97.7204 81.3953 96.9411 81.2374C96.1619 81.0796 93.337 80.5112 93.1097 80.5112C93.0377 80.507 92.9678 80.4862 92.9057 80.4505C92.8436 80.4148 92.7911 80.3653 92.7526 80.3059C93.331 78.9502 94.1436 77.7007 95.1553 76.6115C94.3317 76.1846 93.6798 75.5006 93.3046 74.6695C93.1909 74.2906 95.4476 73.0907 100.286 73.3591C105.123 73.6275 106.162 76.643 106.162 76.643C104.692 75.1733 102.762 74.2184 100.675 73.9275C97.5581 73.7064 95.1878 74.3537 94.7819 74.9063C94.3761 75.4589 95.8859 75.8221 95.8859 75.8221C97.1338 75.7206 98.3882 75.7206 99.6361 75.8221C101.585 76.0055 103.486 76.5184 105.253 77.3377ZM96.9736 80.4954C96.2451 79.5612 95.8618 78.4153 95.8859 77.243C95.8778 77.1432 95.8778 77.0429 95.8859 76.943H95.6748H95.5774C94.8469 78.064 93.613 79.9112 93.6293 79.9902C93.6455 80.0691 93.9215 80.1323 97.0386 80.4322L96.9736 80.4954ZM101.909 77.1798V77.0693C101.526 77.0338 101.14 77.0338 100.756 77.0693V77.2272C100.756 78.4903 99.9933 79.5165 99.1328 79.5165C98.2724 79.5165 97.4282 78.4903 97.4282 77.2272C97.4282 77.1483 97.4282 77.0535 97.4282 76.9746H96.2755C96.2755 77.0693 96.2755 77.1641 96.2755 77.2588C96.2521 77.8791 96.3677 78.497 96.6144 79.0696C96.8611 79.6421 97.233 80.1556 97.7042 80.5743L99.5549 80.7322H100.286C100.841 80.3205 101.281 79.7792 101.565 79.1583C101.849 78.5374 101.967 77.857 101.909 77.1798ZM105.887 78.7587C105.058 78.1719 104.144 77.7089 103.175 77.3851C102.883 77.293 102.585 77.2192 102.282 77.1641C102.32 78.4633 101.837 79.7259 100.935 80.6849C105.156 80.6533 105.935 78.7113 105.935 78.7113L105.887 78.7587ZM102.331 127.702H101.389V126.771C101.355 126.21 101.093 125.685 100.66 125.312C100.228 124.939 99.6611 124.748 99.0841 124.782C98.5072 124.815 97.9675 125.07 97.5839 125.491C97.2003 125.911 97.0041 126.462 97.0386 127.024V127.955H96.0807C95.5272 128.021 95.0203 128.29 94.6633 128.706C94.3063 129.123 94.126 129.656 94.1591 130.197C94.1922 130.739 94.4362 131.247 94.8415 131.62C95.2468 131.992 95.7828 132.201 96.3405 132.202H97.2983V133.134C97.2953 133.425 97.3539 133.714 97.4705 133.983C97.5871 134.252 97.7591 134.495 97.976 134.696C98.1929 134.898 98.45 135.054 98.7313 135.155C99.0127 135.256 99.3125 135.299 99.6119 135.283C99.9114 135.267 100.204 135.191 100.472 135.06C100.74 134.929 100.978 134.747 101.171 134.523C101.363 134.299 101.506 134.039 101.591 133.76C101.677 133.48 101.702 133.186 101.665 132.897V131.965H102.623C103.2 131.932 103.74 131.677 104.124 131.256C104.507 130.836 104.703 130.284 104.669 129.723C104.634 129.162 104.372 128.637 103.94 128.264C103.508 127.891 102.941 127.701 102.364 127.734L102.331 127.702ZM86.0963 105.725C85.7804 106.057 85.5828 106.478 85.5331 106.928C85.4834 107.377 85.5841 107.83 85.8203 108.22C86.8918 109.656 90.983 107.336 90.983 107.336C89.8175 107.564 88.6326 107.685 87.4438 107.699C85.9664 107.572 86.1937 105.646 86.1937 105.646L86.0963 105.725ZM111.358 124.355L111.747 125.208L110.854 125.571C110.591 125.681 110.353 125.84 110.153 126.04C109.953 126.239 109.795 126.475 109.689 126.734C109.582 126.993 109.53 127.269 109.533 127.548C109.537 127.826 109.597 128.102 109.71 128.358C109.823 128.614 109.987 128.846 110.192 129.04C110.397 129.235 110.639 129.388 110.905 129.491C111.172 129.595 111.456 129.646 111.742 129.643C112.029 129.639 112.312 129.581 112.575 129.471L113.452 129.108L113.825 129.976C113.943 130.238 114.112 130.476 114.323 130.674C114.535 130.873 114.785 131.029 115.058 131.134C115.332 131.239 115.624 131.29 115.918 131.285C116.212 131.28 116.502 131.219 116.772 131.105C117.042 130.991 117.286 130.826 117.49 130.621C117.694 130.415 117.855 130.172 117.963 129.906C118.07 129.64 118.123 129.356 118.118 129.07C118.113 128.784 118.05 128.502 117.933 128.239L117.559 127.387L118.452 127.024C118.73 126.923 118.984 126.768 119.198 126.569C119.413 126.37 119.584 126.131 119.701 125.866C119.817 125.601 119.878 125.316 119.878 125.028C119.878 124.739 119.818 124.454 119.702 124.189C119.585 123.924 119.414 123.684 119.2 123.485C118.986 123.286 118.732 123.131 118.454 123.03C118.177 122.929 117.881 122.884 117.585 122.897C117.288 122.911 116.998 122.982 116.731 123.108L115.855 123.487L115.481 122.619C115.236 122.125 114.804 121.743 114.277 121.551C113.749 121.359 113.165 121.372 112.647 121.587C112.129 121.803 111.716 122.204 111.494 122.708C111.272 123.211 111.258 123.779 111.455 124.292L111.358 124.355ZM84.7001 102.82C84.5202 103.159 84.2439 103.44 83.9043 103.63C83.5647 103.821 83.176 103.912 82.7844 103.894C82.7844 103.894 82.2812 103.767 82.7844 103.988C83.4948 104.297 84.2956 104.348 85.0411 104.131L85.7716 103.909C85.8743 103.867 85.9847 103.845 86.0963 103.845C86.2079 103.845 86.3184 103.867 86.421 103.909C86.9653 104.23 87.5871 104.404 88.2231 104.415C89.0303 104.461 89.8347 104.286 90.5446 103.909C90.6666 103.845 90.8034 103.81 90.9424 103.81C91.0814 103.81 91.2182 103.845 91.3402 103.909C92.4833 104.502 93.7629 104.801 95.0579 104.778C96.86 104.541 96.9411 103.199 96.9411 103.199C96.372 103.65 95.6624 103.901 94.928 103.909C93.7267 103.909 91.6811 101.494 91.6811 101.494C91.4231 101.291 91.1199 101.15 90.7957 101.081C90.4716 101.013 90.1354 101.019 89.8141 101.099C89.642 101.164 89.4785 101.249 89.327 101.352C89.0955 101.528 88.8096 101.625 88.5153 101.625C88.221 101.625 87.9351 101.528 87.7036 101.352C87.3473 101.093 86.9142 100.955 86.4697 100.957C85.6742 100.941 85.2846 101.652 84.7001 102.82ZM90.5446 93.505C91.1914 93.8433 91.7475 94.3246 92.1681 94.9101C92.2655 94.9101 93.7916 95.9522 94.4085 94.547C95.0254 93.1418 93.5318 92.0998 93.5318 92.0998C93.5318 92.0998 94.717 93.9155 93.5318 94.247C91.9084 94.6891 92.2006 92.1788 90.2849 92.2735C89.7172 92.306 89.1753 92.5155 88.7396 92.871C88.3039 93.2264 87.9975 93.709 87.8659 94.247C88.1906 93.505 89.7329 93.2366 90.5446 93.505ZM92.7363 71.4013C93.2559 71.5276 93.7591 70.8172 97.6068 70.0593C100.081 69.5565 102.659 70.0216 104.783 71.354C105.077 71.5432 105.421 71.6479 105.774 71.6563C106.127 71.6647 106.475 71.5763 106.779 71.4013C104.791 69.5174 102.238 68.2957 99.49 67.9121C97.0456 67.6885 94.6045 68.3708 92.6552 69.8225C91.5999 70.8014 92.2818 71.3066 92.785 71.4013H92.7363Z" fill="#24242E"/>
<path d="M113.014 127.003C113.125 127.302 113.116 127.63 112.99 127.923C112.864 128.216 112.629 128.452 112.333 128.584C112.027 128.696 111.689 128.689 111.387 128.566C111.086 128.443 110.844 128.211 110.712 127.92C110.581 127.611 110.579 127.265 110.706 126.955C110.833 126.644 111.08 126.395 111.393 126.26C111.709 126.156 112.054 126.176 112.356 126.314C112.658 126.453 112.894 126.699 113.014 127.003ZM119.648 41.4889C120.183 41.9474 120.783 42.6169 121.27 43.0754C122.955 41.6901 124.775 40.826 126.976 40.931C127.032 40.9354 127.036 40.9031 127.085 40.931C127.133 40.9588 127.107 40.8853 127.138 40.931C127.169 40.9766 127.307 41.1892 127.315 41.2435C127.322 41.2978 127.317 41.3531 127.3 41.4053C126.783 43.3209 125.424 45.1985 123.702 46.2485C124.513 47.0418 124.513 47.0418 125.324 47.835C127.568 45.6485 128.174 42.9724 128.567 39.9023C125.324 39.9023 122.664 39.9651 119.648 41.4889ZM113.954 124.694C114.256 124.568 114.497 124.334 114.626 124.04C114.756 123.745 114.765 123.414 114.651 123.113C114.516 122.824 114.275 122.594 113.975 122.468C113.676 122.342 113.339 122.33 113.03 122.433C112.714 122.566 112.465 122.815 112.337 123.126C112.21 123.437 112.214 123.785 112.349 124.094C112.49 124.373 112.733 124.589 113.031 124.701C113.329 124.812 113.658 124.81 113.954 124.694ZM116.386 130.244C116.631 130.157 116.844 130.001 116.997 129.794C117.149 129.588 117.234 129.341 117.241 129.086C117.248 128.832 117.175 128.582 117.034 128.368C116.892 128.154 116.687 127.987 116.447 127.888C116.206 127.79 115.941 127.764 115.685 127.815C115.429 127.866 115.195 127.991 115.013 128.174C114.832 128.357 114.711 128.589 114.666 128.839C114.622 129.09 114.656 129.348 114.765 129.58C114.903 129.867 115.145 130.093 115.444 130.216C115.744 130.338 116.079 130.348 116.386 130.244ZM101.164 129.928C101.174 130.094 101.218 130.257 101.293 130.406C101.368 130.556 101.472 130.69 101.6 130.8C101.728 130.91 101.877 130.994 102.039 131.048C102.2 131.102 102.371 131.124 102.542 131.114C102.797 131.097 103.042 131.008 103.246 130.856C103.45 130.704 103.602 130.497 103.685 130.26C103.768 130.024 103.777 129.769 103.712 129.527C103.646 129.285 103.508 129.068 103.316 128.903C103.124 128.737 102.886 128.631 102.632 128.598C102.378 128.564 102.12 128.605 101.889 128.715C101.659 128.824 101.467 128.998 101.338 129.214C101.209 129.43 101.148 129.678 101.164 129.928ZM118.007 126.291C118.165 126.228 118.308 126.134 118.428 126.015C118.548 125.897 118.643 125.756 118.706 125.601C118.769 125.446 118.801 125.281 118.797 125.114C118.794 124.948 118.757 124.783 118.688 124.631C118.552 124.342 118.311 124.113 118.01 123.99C117.71 123.867 117.373 123.859 117.067 123.967C116.909 124.031 116.766 124.125 116.646 124.243C116.526 124.362 116.431 124.502 116.368 124.657C116.304 124.812 116.273 124.977 116.276 125.144C116.279 125.311 116.317 125.475 116.386 125.627C116.521 125.916 116.763 126.145 117.063 126.268C117.364 126.391 117.701 126.399 118.007 126.291ZM99.6398 134.197C99.981 134.176 100.3 134.025 100.528 133.777C100.756 133.528 100.873 133.202 100.856 132.869C100.845 132.702 100.801 132.54 100.727 132.39C100.652 132.24 100.547 132.107 100.419 131.997C100.291 131.886 100.142 131.802 99.9805 131.748C99.8189 131.694 99.6481 131.672 99.4777 131.683C99.1364 131.703 98.8173 131.854 98.5896 132.103C98.3619 132.352 98.2441 132.678 98.2618 133.011C98.2659 133.181 98.3051 133.349 98.3772 133.504C98.4494 133.659 98.5529 133.799 98.6815 133.914C98.8102 134.029 98.9614 134.117 99.1261 134.174C99.2908 134.231 99.4655 134.255 99.6398 134.244V134.197ZM127.426 75.1905L125.804 76.0759C126.323 77.2143 126.874 78.3843 127.426 79.5859L129.371 78.575V75.4068C129.142 75.1633 128.715 74.9832 128.378 74.9483C128.041 74.9133 127.702 74.9995 127.426 75.1905ZM129.371 83.3837V80.81L128.285 81.3568C128.609 82.0208 129.031 82.7197 129.371 83.3837ZM123.94 65.4352C123.847 65.2534 123.714 65.0941 123.55 64.9685C123.386 64.8429 123.196 64.7542 122.993 64.7089C122.79 64.6635 122.579 64.6626 122.376 64.7062C122.172 64.7497 121.981 64.8367 121.817 64.9609L121.201 65.2929L122.643 68.8504L123.632 68.2654C123.971 67.8792 124.181 67.4021 124.236 66.8969C124.291 66.3917 124.188 65.882 123.94 65.4352ZM100.499 126.908C100.489 126.742 100.445 126.579 100.37 126.429C100.295 126.28 100.191 126.146 100.063 126.036C99.9345 125.926 99.7854 125.841 99.6238 125.787C99.4623 125.734 99.2914 125.711 99.121 125.722C98.8653 125.738 98.6201 125.828 98.4166 125.98C98.213 126.131 98.0601 126.339 97.9772 126.575C97.8944 126.812 97.8852 127.067 97.9509 127.309C98.0166 127.55 98.1542 127.767 98.3464 127.933C98.5386 128.098 98.7767 128.204 99.0307 128.238C99.2846 128.271 99.5431 128.231 99.7734 128.121C100.004 128.011 100.196 127.838 100.325 127.622C100.454 127.406 100.514 127.157 100.499 126.908ZM124.605 70.0836L123.421 70.716C123.892 71.8228 124.394 73.0086 125.043 74.2577L126.502 73.3881C126.848 73.0027 127.063 72.5223 127.118 72.0127C127.174 71.5032 127.066 70.9895 126.81 70.5421C126.717 70.3487 126.581 70.1789 126.41 70.0459C126.239 69.913 126.038 69.8207 125.825 69.7762C125.611 69.7317 125.389 69.7364 125.178 69.7897C124.966 69.8431 124.77 69.9437 124.605 70.0836ZM124.897 118.86C124.684 119.061 124.549 119.326 124.512 119.612C124.475 119.898 124.54 120.187 124.695 120.432C124.85 120.678 125.086 120.864 125.365 120.96C125.643 121.057 125.947 121.058 126.226 120.963L126.453 120.789C125.977 120.093 125.523 119.398 125.091 118.702L124.897 118.86ZM34.3902 156.806C34.1533 156.576 33.8328 156.447 33.4986 156.447C33.1645 156.447 32.844 156.576 32.607 156.806L19.1074 169.998L23.6801 169.999L32.6719 161.154C32.8661 160.967 33.1282 160.862 33.4014 160.862C33.6745 160.862 33.9366 160.967 34.1309 161.154L42.7603 170.005H47.2198L34.3902 156.806ZM95.0034 130.228C95.0168 130.478 95.106 130.719 95.26 130.92C95.4139 131.121 95.6255 131.272 95.8679 131.356C96.1104 131.439 96.3727 131.45 96.6216 131.388C96.8705 131.325 97.0948 131.192 97.266 131.005C97.4371 130.818 97.5475 130.586 97.583 130.337C97.6185 130.089 97.5776 129.836 97.4655 129.611C97.3533 129.385 97.175 129.197 96.9531 129.071C96.7312 128.944 96.4758 128.885 96.2193 128.9C96.0496 128.908 95.8832 128.949 95.7299 129.02C95.5765 129.092 95.4393 129.192 95.3261 129.316C95.213 129.439 95.1262 129.584 95.0708 129.74C95.0154 129.897 94.9925 130.063 95.0034 130.228ZM123.6 160.269C123.106 159.84 122.523 159.522 121.89 159.336C121.257 159.151 120.59 159.102 119.936 159.194C119.932 159.844 120.076 160.487 120.356 161.078C120.636 161.668 121.046 162.191 121.557 162.609C122.052 163.036 122.636 163.354 123.268 163.542C123.9 163.73 124.566 163.784 125.221 163.7C125.227 163.044 125.085 162.396 124.805 161.8C124.525 161.204 124.113 160.676 123.6 160.253V160.269ZM70.3302 127.066C70.5687 127.153 70.8281 127.168 71.0756 127.11C71.3231 127.053 71.5474 126.924 71.7198 126.742C71.8922 126.559 72.0049 126.331 72.0435 126.085C72.0821 125.84 72.045 125.589 71.9367 125.364C71.8285 125.14 71.6541 124.952 71.4357 124.824C71.2174 124.697 70.9651 124.635 70.711 124.648C70.4569 124.661 70.2124 124.748 70.0089 124.897C69.8054 125.046 69.652 125.25 69.5683 125.485C69.4685 125.787 69.492 126.115 69.634 126.401C69.7759 126.686 70.0253 126.908 70.3302 127.019V127.066ZM129.371 132.837C119.388 138.008 108.326 141.063 97.046 141.77C78.3546 143.051 56.2752 132.884 53.7139 131.272L52.3035 133.201C52.3035 133.201 73.0536 145.628 97.046 144.268C112.868 143.32 123.438 139.003 129.371 135.699V132.837ZM70.1681 122.402C70.2653 122.092 70.2372 121.758 70.0896 121.469C69.942 121.179 69.6861 120.955 69.3746 120.844C69.063 120.732 68.7196 120.742 68.4149 120.87C68.1102 120.998 67.8674 121.235 67.7364 121.532C67.6346 121.841 67.6567 122.176 67.7981 122.469C67.9395 122.763 68.1897 122.993 68.4984 123.113C68.8167 123.233 69.1704 123.225 69.4829 123.092C69.7955 122.959 70.0416 122.711 70.1681 122.402ZM126.583 49.8615L126.696 50.067C127.576 50.1047 128.515 50.2431 129.371 50.4473V49.1052C128.43 49.2273 127.448 49.4803 126.583 49.8615ZM72.0647 87.0645C70.5072 94.367 68.5648 101.586 66.245 108.694C66.9573 109.435 67.895 109.934 68.9199 110.117C70.93 103.95 72.0323 88.2029 72.0323 88.2029L72.0647 87.0645ZM66.245 124.188C66.3509 123.88 66.3308 123.543 66.1889 123.249C66.047 122.955 65.7942 122.725 65.4831 122.607C65.1666 122.508 64.8233 122.53 64.5225 122.667C64.2216 122.805 63.9856 123.049 63.862 123.35C63.7416 123.665 63.7543 124.013 63.8971 124.319C64.04 124.624 64.3015 124.862 64.6239 124.979C64.9464 125.096 65.3035 125.084 65.6166 124.945C65.9297 124.805 66.1733 124.55 66.2937 124.236L66.245 124.188ZM85.2444 126.465C85.2746 126.217 85.2286 125.965 85.1123 125.742C84.996 125.52 84.8146 125.335 84.591 125.213C84.3674 125.091 84.1116 125.036 83.8559 125.055C83.6003 125.074 83.3563 125.167 83.1547 125.322C82.9532 125.477 82.8032 125.686 82.7236 125.924C82.6441 126.161 82.6385 126.417 82.7078 126.658C82.777 126.898 82.9178 127.114 83.1125 127.277C83.3072 127.439 83.547 127.542 83.8016 127.572C84.1347 127.595 84.4643 127.493 84.7233 127.288C84.9823 127.082 85.1512 126.788 85.1957 126.465H85.2444ZM85.374 129.517C85.3438 129.765 85.3898 130.017 85.5061 130.239C85.6223 130.462 85.8038 130.647 86.0274 130.769C86.251 130.891 86.5068 130.946 86.7625 130.927C87.0181 130.907 87.2621 130.815 87.4636 130.66C87.6652 130.505 87.8152 130.296 87.8948 130.058C87.9743 129.82 87.9798 129.565 87.9106 129.324C87.8414 129.083 87.7005 128.868 87.5059 128.705C87.3112 128.543 87.0714 128.44 86.8168 128.41C86.6439 128.383 86.4671 128.391 86.2973 128.433C86.1275 128.474 85.9681 128.549 85.8287 128.653C85.6894 128.756 85.5729 128.886 85.4864 129.034C85.3999 129.183 85.3451 129.347 85.3254 129.517H85.374ZM81.8887 132.141C81.8552 132.39 81.8982 132.642 82.0123 132.867C82.1263 133.092 82.3062 133.278 82.5291 133.403C82.752 133.528 83.0079 133.585 83.2643 133.568C83.5207 133.55 83.766 133.459 83.9691 133.306C84.1722 133.152 84.324 132.943 84.4051 132.705C84.4862 132.467 84.493 132.211 84.4247 131.97C84.3564 131.728 84.216 131.512 84.0213 131.348C83.8267 131.184 83.5866 131.081 83.3314 131.05C82.9921 131.01 82.6501 131.102 82.3799 131.306C82.1097 131.511 81.9332 131.811 81.8887 132.141ZM66.3585 128.805C66.675 128.904 67.0183 128.883 67.3191 128.745C67.62 128.607 67.856 128.363 67.9796 128.062C68.0731 127.826 68.0921 127.569 68.0341 127.323C67.9761 127.076 67.8439 126.853 67.6544 126.68C67.4649 126.508 67.2268 126.395 66.9709 126.356C66.715 126.317 66.4529 126.353 66.2184 126.461C65.984 126.568 65.7879 126.742 65.6555 126.959C65.5231 127.176 65.4603 127.427 65.4754 127.679C65.4905 127.932 65.5826 128.174 65.74 128.374C65.8974 128.575 66.1128 128.725 66.3585 128.805ZM79.1976 128.805C79.1925 129.118 79.3064 129.421 79.5173 129.657C79.7282 129.893 80.0211 130.044 80.3395 130.081C80.6579 130.118 80.9792 130.039 81.2413 129.859C81.5035 129.679 81.6879 129.411 81.759 129.106C81.8094 128.93 81.8202 128.746 81.7908 128.566C81.7614 128.386 81.6924 128.214 81.5886 128.062C81.4848 127.911 81.3485 127.783 81.1893 127.687C81.03 127.592 80.8515 127.531 80.6659 127.509C80.4803 127.487 80.292 127.505 80.114 127.56C79.936 127.616 79.7724 127.709 79.6345 127.832C79.4965 127.955 79.3876 128.106 79.3149 128.274C79.2423 128.442 79.2078 128.623 79.2138 128.805H79.1976Z" fill="#C72F2A"/>
<path d="M123.5 93.3028C123.891 94.1257 124.266 94.8853 124.656 95.724C121.884 94.8196 119.166 93.7629 116.516 92.559C116.272 91.6887 116.044 90.8183 115.816 89.9479C118.316 91.1946 120.881 92.3144 123.5 93.3028ZM113.732 80.722C113.911 81.624 114.091 82.5577 114.286 83.4755C116.142 84.5833 118.275 85.7385 120.798 86.8937L119.723 84.1876C117.363 82.9533 115.393 81.8297 113.667 80.722H113.732ZM112.202 70.7523C112.321 71.7334 112.452 72.7304 112.593 73.7432C113.911 74.7718 115.393 75.8479 117.054 76.9082C116.712 75.8954 116.386 74.8509 116.077 73.7432C114.579 72.7778 113.228 71.7492 112.137 70.7523H112.202ZM111.242 59.7697C111.242 60.8142 111.372 61.9378 111.453 63.1088C112.186 63.8684 112.967 64.6913 113.846 65.4825C113.553 64.264 113.277 63.0139 113.032 61.7479C112.332 61.0674 111.73 60.4186 111.176 59.7697H111.242ZM111.128 57.3327C111.551 57.8602 112.007 58.3877 112.495 58.9152C111.925 55.7502 111.453 52.5852 111.111 49.2145C111.046 49.2461 110.883 52.2845 111.062 57.3327H111.128ZM112.837 75.8321C112.984 76.7816 113.146 77.7311 113.309 78.7122C114.937 79.7883 116.712 80.9277 118.779 82.0829C118.421 81.1334 118.079 80.1839 117.737 79.2028C115.914 78.0476 114.286 76.924 112.837 75.8321ZM111.6 65.4192C111.697 66.432 111.795 67.4765 111.909 68.5842C112.935 69.5021 114.074 70.4674 115.344 71.4644C115.035 70.3566 114.725 69.2331 114.432 68.0778C113.374 67.1283 112.43 66.2738 111.6 65.4192ZM123.419 111.312C123.799 112.082 124.19 112.857 124.591 113.638C125.959 113.891 127.57 114.128 129.378 114.318V112.182C127.115 111.929 125.112 111.596 123.387 111.248L123.419 111.312ZM129.378 121.408V119.351L127.75 119.161C128.189 119.905 128.645 120.648 129.117 121.376L129.378 121.408ZM125.454 115.284C125.867 116.043 126.29 116.803 126.724 117.562C127.505 117.673 128.352 117.768 129.378 117.863V115.711C127.88 115.569 126.577 115.41 125.422 115.22L125.454 115.284ZM85.3353 169.998C85.3353 169.998 84.8901 169.285 84.5535 169.019C84.0271 168.604 83.3641 168.387 82.6862 168.408C82.4286 168.415 82.1723 168.447 81.9211 168.503C82.225 168.275 82.4711 167.983 82.6405 167.648C82.8098 167.313 82.8979 166.945 82.8979 166.572C82.8431 165.864 82.5149 165.201 81.979 164.718C81.4431 164.235 80.7391 163.966 80.0081 163.966C79.2772 163.966 78.5732 164.235 78.0373 164.718C77.5014 165.201 77.1732 165.864 77.1184 166.572C77.1215 166.946 77.2126 167.315 77.3847 167.65C77.5569 167.984 77.8055 168.276 78.1115 168.503C77.8812 168.453 77.6471 168.421 77.4115 168.408C76.7426 168.385 76.0874 168.596 75.5648 169.003C75.147 169.328 74.8155 169.998 74.8155 169.998H73.6581L70.7366 154.166L74.7904 145.414C79.7063 146.579 84.7288 147.269 89.7843 147.472C89.3275 153.123 86.7641 169.998 86.7641 169.998H85.3353ZM86.1702 154.846C86.1203 154.04 85.7554 153.283 85.1501 152.73C84.5448 152.177 83.7449 151.869 82.9141 151.871C82.6069 151.875 82.3011 151.912 82.0025 151.982C82.3548 151.719 82.6406 151.381 82.8381 150.994C83.0357 150.608 83.1396 150.182 83.1421 149.75C83.0829 148.927 82.7048 148.156 82.0839 147.593C81.463 147.03 80.6455 146.717 79.7965 146.717C78.9475 146.717 78.13 147.03 77.5091 147.593C76.8882 148.156 76.5101 148.927 76.4509 149.75C76.4534 150.182 76.5573 150.608 76.7549 150.994C76.9524 151.381 77.2382 151.719 77.5905 151.982C77.2974 151.912 76.997 151.875 76.6951 151.871C76.2667 151.828 75.8337 151.873 75.4242 152.003C75.0148 152.133 74.6379 152.345 74.3181 152.625C73.9983 152.906 73.7426 153.248 73.5675 153.631C73.3925 154.013 73.3021 154.427 73.3021 154.846C73.3021 155.265 73.3925 155.679 73.5675 156.061C73.7426 156.444 73.9983 156.786 74.3181 157.067C74.6379 157.347 75.0148 157.559 75.4242 157.689C75.8337 157.819 76.2667 157.864 76.6951 157.821C77.2123 157.827 77.7242 157.72 78.1923 157.506C78.6605 157.292 79.0726 156.978 79.3976 156.587L77.0696 160.337H82.2955L80.0651 156.523C80.3935 156.915 80.8085 157.229 81.2793 157.443C81.75 157.657 82.2644 157.764 82.7839 157.758C83.6314 157.784 84.4559 157.488 85.0822 156.932C85.7085 156.377 86.0872 155.605 86.1376 154.783L86.1702 154.846ZM116.972 94.4422C117.216 95.2809 117.477 96.1355 117.754 96.99C120.693 98.1196 123.706 99.0605 126.773 99.8069C126.366 99.0631 125.975 98.2244 125.568 97.5122C122.644 96.6523 119.774 95.6272 116.972 94.4422ZM103.388 169.998C103.367 169.922 103.342 169.848 103.312 169.774C103.198 169.489 103.023 169.231 102.798 169.017C102.573 168.802 102.304 168.637 102.008 168.532C101.712 168.427 101.397 168.385 101.083 168.408C100.825 168.407 100.567 168.439 100.318 168.503C100.638 168.294 100.91 168.023 101.117 167.707C101.324 167.391 101.462 167.037 101.522 166.667C101.561 166.346 101.525 166.02 101.416 165.714C101.307 165.408 101.129 165.13 100.894 164.9C100.659 164.67 100.374 164.495 100.06 164.387C99.7463 164.28 99.4113 164.242 99.0803 164.278C98.3471 164.285 97.638 164.533 97.0677 164.981C96.4975 165.429 96.0995 166.051 95.9382 166.746C95.8869 167.08 95.9243 167.421 96.0468 167.737C96.1694 168.053 96.373 168.333 96.6383 168.55C96.3948 168.525 96.1492 168.525 95.9057 168.55C95.2088 168.556 94.5323 168.779 93.9755 169.187C93.6674 169.412 93.1983 169.998 93.1983 169.998H92.0654L98.4454 147.361C105.989 146.862 113.425 145.344 120.537 142.851L105.096 169.998C105.096 169.998 104.81 169.998 103.388 169.998ZM106.553 161.556L104.729 157.536C105.046 157.952 105.462 158.286 105.941 158.51C106.421 158.733 106.949 158.839 107.481 158.818C108.426 158.818 109.343 158.504 110.081 157.929C110.818 157.353 111.331 156.55 111.535 155.653C111.594 155.224 111.55 154.787 111.407 154.377C111.264 153.967 111.026 153.594 110.711 153.288C110.396 152.982 110.013 152.751 109.591 152.612C109.169 152.473 108.72 152.431 108.279 152.488C107.949 152.503 107.622 152.551 107.302 152.631C107.726 152.361 108.089 152.01 108.369 151.599C108.649 151.188 108.84 150.726 108.93 150.241C108.989 149.819 108.949 149.389 108.812 148.984C108.675 148.579 108.444 148.21 108.138 147.904C107.832 147.599 107.458 147.366 107.045 147.222C106.632 147.079 106.191 147.029 105.755 147.076C104.806 147.069 103.884 147.38 103.143 147.957C102.401 148.533 101.887 149.34 101.685 150.241C101.617 150.677 101.665 151.123 101.825 151.535C101.984 151.948 102.25 152.314 102.597 152.599C102.283 152.521 101.96 152.484 101.636 152.488C100.687 152.482 99.7648 152.793 99.0237 153.369C98.2826 153.945 97.768 154.752 97.5662 155.653C97.5038 156.083 97.545 156.521 97.6866 156.933C97.8282 157.344 98.0662 157.718 98.382 158.025C98.6977 158.332 99.0825 158.563 99.506 158.701C99.9295 158.839 100.38 158.879 100.822 158.818C101.407 158.808 101.983 158.683 102.518 158.452C103.052 158.221 103.533 157.888 103.932 157.473L100.969 161.54L106.553 161.556ZM128.938 103.731L127.701 101.532C124.527 100.795 121.401 99.8757 118.34 98.7782C118.616 99.617 118.909 100.361 119.219 101.279C122.398 102.308 125.645 103.127 128.938 103.731ZM114.644 85.422C114.839 86.3082 115.051 87.2102 115.263 88.1122C117.655 89.3371 120.112 90.441 122.621 91.4196C122.247 90.5809 121.872 89.7422 121.498 88.8718C118.893 87.7008 116.63 86.5456 114.644 85.422ZM119.854 103.019C120.179 103.842 120.489 104.602 120.831 105.472C123.631 106.219 126.507 106.824 129.378 107.248V105.246C126.168 104.692 122.966 103.962 119.854 103.019ZM27.2938 169.998C27.2938 169.143 27.285 168.914 27.171 168.044C26.431 168.858 26.1641 169.064 25.5938 169.998H27.2938ZM110.981 38.4061C107.494 36.7993 103.676 35.9857 99.8173 36.0268C95.9584 36.0679 92.1599 36.9628 88.7099 38.6434C95.5637 37.0219 102.78 37.6966 109.19 40.5583C116.94 44.1663 125.503 57.8627 129.378 64.4934V57.6576C126.17 52.0714 119.577 42.2199 110.981 38.4061ZM121.547 107.181C121.889 107.973 122.231 108.764 122.605 109.571C124.829 110.071 127.112 110.455 129.378 110.725V108.693C126.752 108.322 124.117 107.822 121.547 107.181ZM126.333 41.9192C124.505 41.8817 122.73 42.5209 121.368 43.7074C122.068 44.4037 122.703 45.1 123.289 45.7488C124.759 44.886 125.845 43.5201 126.333 41.9192ZM127.359 51.2559C128.073 52.0824 128.768 53.2787 129.378 54.1809V51.7949C128.746 51.5305 128.043 51.364 127.359 51.3034V51.2559ZM124.201 30.3828C120.782 35.2252 118.095 38.137 116.793 39.8778L117.428 40.3367C121.01 38.3176 125.249 37.2248 129.378 37.5222V34.3492L124.201 30.3828ZM104.664 114.097C109.74 112.62 114.527 110.331 118.828 107.324C117.9 105.266 116.223 99.8702 116.223 99.8702C113.917 105.636 109.878 110.594 104.632 114.097H104.664ZM128.271 47.5212C128.612 47.5212 129.019 47.5529 129.378 47.5212V45.4549C129.378 46.2482 128.66 46.9869 128.271 47.5212ZM73.9438 104.127L72.5274 111.438C75.4162 112.776 78.5039 113.663 81.6768 114.065C78.2497 111.467 75.5834 108.04 73.9438 104.127ZM46.0071 146.854C45.6951 146.651 45.3205 146.559 44.9466 146.594C44.5728 146.628 44.2228 146.788 43.9558 147.044L41.237 149.814C41.1255 149.898 41.0352 150.006 40.9731 150.129C40.9109 150.253 40.8787 150.388 40.8787 150.526C40.8787 150.663 40.9109 150.799 40.9731 150.922C41.0352 151.046 41.1255 151.154 41.237 151.238C41.3272 151.344 41.4403 151.429 41.5684 151.488C41.6964 151.547 41.8362 151.577 41.9778 151.577C42.1194 151.577 42.2592 151.547 42.3872 151.488C42.5153 151.429 42.6284 151.344 42.7185 151.238L46.1536 148.785C46.1536 148.785 47.0979 147.661 46.0071 146.918V146.854ZM32.983 162.948C31.5533 165.325 30.662 167.273 30.253 169.998H34.056C34.6361 167.403 34.2143 165.366 32.9505 163.012L32.983 162.948ZM101.832 117.436C101.39 117.549 100.977 117.748 100.616 118.02C100.255 118.291 99.9544 118.631 99.7315 119.018C99.363 118.633 98.897 118.348 98.3799 118.193C97.8628 118.037 97.3128 118.016 96.7848 118.132C95.9776 118.305 95.2645 118.761 94.7823 119.414C94.5143 119.011 94.1482 118.68 93.7165 118.448C93.2849 118.216 92.8009 118.091 92.3078 118.085C91.4017 118.076 90.5292 118.418 89.882 119.034C89.6464 118.591 89.2986 118.213 88.8714 117.936C88.4443 117.659 87.9517 117.493 87.44 117.452C86.9594 117.404 86.474 117.458 86.0163 117.608C85.5586 117.758 85.1392 118.001 84.7864 118.322C84.5554 117.888 84.2174 117.516 83.8027 117.24C83.3879 116.964 82.9093 116.792 82.4095 116.74C81.9634 116.683 81.5101 116.714 81.0766 116.83C80.6431 116.947 80.2382 117.148 79.886 117.42C79.7128 116.886 79.3891 116.411 78.9517 116.047C78.5142 115.683 77.9806 115.446 77.4115 115.363C76.9756 115.292 76.5295 115.305 76.0991 115.403C75.6687 115.501 75.2626 115.681 74.9043 115.932C74.7623 115.44 74.4911 114.991 74.1173 114.63C73.7435 114.27 73.2798 114.01 72.7716 113.875C72.3295 113.751 71.8658 113.716 71.4092 113.773C70.9527 113.83 70.5132 113.978 70.118 114.208C70.008 113.715 69.771 113.257 69.4293 112.878C69.0875 112.499 68.6523 112.21 68.1644 112.04C67.4728 111.824 66.7315 111.81 66.0316 111.998C65.3317 112.186 64.7037 112.569 64.2246 113.1C64.1615 113.172 64.1136 113.255 64.0835 113.344C64.0535 113.434 64.0419 113.529 64.0495 113.623C64.057 113.717 64.0836 113.808 64.1276 113.892C64.1716 113.976 64.2322 114.051 64.306 114.113C64.4549 114.236 64.6484 114.298 64.8438 114.283C64.9405 114.275 65.0349 114.25 65.1214 114.207C65.2078 114.164 65.2848 114.105 65.3479 114.033C65.631 113.725 65.999 113.501 66.4086 113.389C66.8183 113.277 67.2524 113.281 67.6597 113.4C68.9295 113.828 68.783 115.505 68.783 115.569V115.758C68.783 115.758 68.783 115.758 68.783 115.853V115.964C68.8676 116.078 68.9793 116.17 69.1086 116.233H69.2388H69.3365C69.4526 116.233 69.5671 116.208 69.6715 116.158C69.7758 116.109 69.8673 116.037 69.9389 115.948C70.1982 115.619 70.5488 115.368 70.9496 115.225C71.3503 115.082 71.7847 115.053 72.2018 115.141C73.488 115.489 73.4717 117.167 73.4717 117.23C73.4527 117.394 73.4925 117.558 73.5843 117.697C73.6762 117.835 73.8144 117.938 73.9755 117.988C74.1366 118.038 74.3106 118.033 74.4681 117.973C74.6255 117.912 74.7567 117.801 74.8392 117.657C75.058 117.298 75.3783 117.007 75.7621 116.819C76.1458 116.631 76.577 116.554 77.0045 116.597C78.1278 116.771 78.4208 117.99 78.5022 118.401C78.4617 118.497 78.4438 118.601 78.4499 118.705C78.456 118.809 78.4859 118.91 78.5374 119.001C78.5889 119.092 78.6608 119.17 78.7476 119.231C78.8345 119.292 78.9342 119.332 79.0395 119.351C79.1249 119.395 79.2185 119.422 79.3147 119.431C79.411 119.439 79.5081 119.429 79.6004 119.401C79.6928 119.373 79.7785 119.328 79.8526 119.268C79.9268 119.207 79.988 119.133 80.0326 119.05C80.239 118.687 80.5477 118.388 80.9225 118.189C81.2974 117.99 81.7228 117.899 82.149 117.926C83.4839 118.085 83.777 119.746 83.777 119.81C83.8004 119.983 83.8874 120.143 84.0219 120.259C84.1565 120.375 84.3296 120.44 84.5096 120.443H84.6073C84.7767 120.419 84.9329 120.34 85.0509 120.22C85.169 120.099 85.2421 119.944 85.2585 119.778C85.4628 119.466 85.7476 119.211 86.0846 119.039C86.4216 118.867 86.7991 118.783 87.1795 118.797C88.4982 118.908 88.8075 120.569 88.8075 120.632C88.8005 120.664 88.8005 120.696 88.8075 120.727V120.822H88.9052C89.0349 120.892 89.1802 120.93 89.3285 120.933H89.4262C89.5851 120.907 89.7324 120.835 89.8495 120.727L89.9309 120.632V120.538C90.0993 120.156 90.3752 119.829 90.7266 119.594C91.0781 119.359 91.4907 119.225 91.917 119.208C93.252 119.208 93.6753 120.791 93.6916 120.933C93.7079 121.076 93.6916 120.933 93.6916 121.012C93.7176 121.161 93.7915 121.298 93.9027 121.403C94.0139 121.508 94.1566 121.576 94.3102 121.598H94.4242C94.5994 121.597 94.7686 121.536 94.9025 121.426C95.0363 121.316 95.1263 121.164 95.1568 120.996C95.2192 120.578 95.4069 120.187 95.6964 119.872C95.9859 119.557 96.3644 119.332 96.7848 119.224C97.8919 118.971 98.6407 119.999 98.8524 120.348C98.8666 120.517 98.941 120.676 99.0629 120.797C99.1848 120.918 99.3464 120.994 99.5199 121.012C99.7034 121.013 99.8805 120.947 100.016 120.827C100.152 120.706 100.236 120.541 100.252 120.363C100.303 119.952 100.475 119.563 100.746 119.244C101.017 118.924 101.377 118.687 101.783 118.559C103.085 118.227 103.932 119.683 103.964 119.746C104.06 119.913 104.22 120.036 104.409 120.09C104.598 120.143 104.801 120.122 104.974 120.031C105.093 119.968 105.191 119.874 105.258 119.759C105.324 119.645 105.355 119.514 105.348 119.382C105.339 118.966 105.454 118.556 105.679 118.202C105.905 117.849 106.231 117.566 106.618 117.388C107.027 117.28 107.46 117.296 107.859 117.435C108.258 117.574 108.603 117.828 108.848 118.164C108.888 118.319 108.981 118.456 109.111 118.553C109.241 118.651 109.401 118.703 109.565 118.702C109.76 118.69 109.944 118.603 110.074 118.461C110.205 118.319 110.274 118.133 110.265 117.942C110.334 117.524 110.529 117.134 110.824 116.822C111.119 116.51 111.502 116.289 111.925 116.186C113.146 115.632 114.237 116.929 114.286 116.993C114.387 117.114 114.526 117.2 114.682 117.237C114.837 117.274 115.002 117.261 115.149 117.198H115.295C115.479 117.137 115.629 117.008 115.715 116.839C115.8 116.67 115.813 116.475 115.751 116.296C115.621 115.899 115.61 115.473 115.72 115.07C115.83 114.666 116.055 114.301 116.37 114.018C117.395 113.195 118.796 114.16 118.861 114.192C118.938 114.249 119.026 114.291 119.12 114.314C119.214 114.337 119.312 114.341 119.408 114.327C119.504 114.312 119.596 114.278 119.678 114.228C119.76 114.177 119.831 114.111 119.886 114.033C119.947 113.958 119.991 113.872 120.016 113.78C120.041 113.688 120.047 113.591 120.034 113.497C120.02 113.402 119.987 113.312 119.936 113.23C119.886 113.148 119.819 113.077 119.74 113.021C119.126 112.558 118.377 112.298 117.601 112.278C116.825 112.258 116.063 112.48 115.426 112.91C115.083 113.173 114.798 113.501 114.588 113.873C114.379 114.246 114.248 114.655 114.205 115.078C113.775 114.815 113.286 114.661 112.78 114.628C112.274 114.594 111.768 114.684 111.307 114.888C110.895 115.067 110.524 115.324 110.216 115.645C109.909 115.966 109.671 116.343 109.516 116.755C109.088 116.431 108.58 116.221 108.043 116.149C107.505 116.077 106.957 116.144 106.455 116.344C106.043 116.5 105.666 116.734 105.347 117.033C105.029 117.332 104.774 117.689 104.599 118.085C104.23 117.762 103.783 117.533 103.3 117.42C102.817 117.307 102.312 117.312 101.832 117.436ZM49.1166 158.407C49.0946 158.044 48.9451 157.7 48.6931 157.432C48.4412 157.164 48.1021 156.989 47.7328 156.935L43.8093 156.492C43.6733 156.456 43.5309 156.451 43.3925 156.476C43.254 156.5 43.123 156.555 43.0091 156.635C42.8951 156.716 42.8011 156.82 42.734 156.94C42.6668 157.06 42.6282 157.194 42.6209 157.331C42.5845 157.464 42.5789 157.603 42.6044 157.738C42.6299 157.874 42.6859 158.002 42.7683 158.114C42.8508 158.226 42.9577 158.318 43.0814 158.386C43.205 158.453 43.3424 158.492 43.4837 158.502L47.6677 159.657C47.6677 159.657 49.1655 159.72 49.1166 158.407ZM42.6046 154.166C42.636 154.299 42.6973 154.425 42.7842 154.533C42.871 154.641 42.9813 154.729 43.1072 154.791C43.2331 154.853 43.3715 154.887 43.5126 154.891C43.6536 154.895 43.7938 154.869 43.9233 154.814L48.2049 154.055C48.2049 154.055 49.5562 153.453 48.9213 152.298C48.7342 151.983 48.441 151.74 48.091 151.61C47.7411 151.48 47.3558 151.472 47.0002 151.586L43.2883 152.884C43.1506 152.914 43.0216 152.973 42.9106 153.058C42.7997 153.142 42.7097 153.25 42.6472 153.373C42.5847 153.496 42.5514 153.631 42.5497 153.768C42.5479 153.905 42.5778 154.041 42.6371 154.166H42.6046ZM41.351 161.587L44.607 164.436C44.607 164.436 45.9094 165.132 46.4792 163.945C46.6104 163.615 46.624 163.252 46.5177 162.913C46.4115 162.575 46.1916 162.281 45.8932 162.078L42.6371 159.989C42.5341 159.895 42.4102 159.825 42.2749 159.784C42.1397 159.743 41.9967 159.733 41.8568 159.755C41.717 159.776 41.584 159.828 41.4682 159.907C41.3523 159.986 41.2565 160.09 41.1882 160.211C41.1011 160.311 41.0366 160.428 40.999 160.553C40.9614 160.679 40.9514 160.812 40.9699 160.941C40.9883 161.071 41.0347 161.196 41.1059 161.307C41.1772 161.419 41.2718 161.514 41.3836 161.587H41.351Z" fill="#F4C900"/>
</g>
<path d="M34.4608 86.537C33.5377 86.537 32.6146 86.6908 31.6916 86.9985C33.3839 85.46 34.4608 83.46 34.4608 81.1523C34.4608 76.6908 30.6146 73.1523 25.9992 73.1523C21.3839 73.1523 17.5377 76.8447 17.5377 81.1523C17.5377 83.46 18.6146 85.6139 20.3069 86.9985C19.3839 86.6908 18.6146 86.537 17.5377 86.537C12.9223 86.537 9.07617 90.0754 9.07617 94.537C9.07617 98.9985 12.9223 102.537 17.5377 102.537C20.9223 102.537 23.6916 100.691 25.0762 98.0754C24.9223 100.383 24.1531 103.922 21.8454 106.229C21.5377 106.537 21.6916 106.845 22.1531 106.845H25.9992H29.8454C30.1531 106.845 30.3069 106.383 30.1531 106.229C27.8454 103.922 27.0762 100.537 26.9223 98.0754C28.3069 100.691 31.23 102.537 34.4608 102.537C39.0762 102.537 42.9223 98.9985 42.9223 94.537C42.9223 90.2293 39.0762 86.537 34.4608 86.537Z" fill="#24242E"/>
<path d="M39.3166 68.514L35.6906 72.362L27.8466 64.666C27.2546 64.666 26.8846 64.74 25.9966 64.74C22.5186 64.74 16.3026 64.518 14.0086 58.228C13.4166 56.6 12.8246 54.528 12.8246 42.17C12.8246 37.878 12.8246 26.186 13.1946 22.56C13.4906 19.748 14.5266 10.942 26.4406 10.942C28.4386 10.942 33.1746 11.164 36.0606 14.864C38.4286 17.972 38.8726 21.894 38.8726 31.81C38.8726 36.546 38.6506 44.538 38.5026 48.46C38.2806 54.232 37.9846 60.226 32.8786 63.112L39.3166 68.514ZM19.4846 37.138C19.4846 47.942 19.4846 51.494 19.7066 53.418C19.8546 55.12 20.2986 59.412 25.7746 59.412C31.4726 59.412 31.7686 54.454 31.9166 51.05C32.0646 47.35 32.2126 40.838 32.2126 37.138C32.2126 34.4 32.2866 29.812 32.1386 24.854C32.0646 22.042 31.9166 16.418 26.1446 16.418C20.2986 16.418 19.9286 21.302 19.6326 24.78C19.4846 26.704 19.4846 28.628 19.4846 37.138Z" fill="#24242E"/>
<defs>
<linearGradient id="paint0_linear_324_104541" x1="92" y1="2" x2="92" y2="182" gradientUnits="userSpaceOnUse">
<stop stop-color="white" stop-opacity="0.85"/>
<stop offset="1" stop-color="white" stop-opacity="0.15"/>
</linearGradient>
<clipPath id="clip0_324_104541">
<rect width="120" height="165" fill="white" transform="translate(11 5)"/>
</clipPath>
</defs>
</svg>
