<svg width="184" height="184" viewBox="0 0 184 184" fill="none" xmlns="http://www.w3.org/2000/svg">
<rect x="1" y="1" width="182" height="182" rx="13" stroke="black" stroke-opacity="0.25" stroke-width="2"/>
<rect x="2.5" y="2.5" width="179" height="179" rx="11.5" fill="#E9E9E9" stroke="url(#paint0_linear_324_104470)"/>
<rect x="41.0449" y="30.5" width="101.909" height="123" rx="1.5" fill="#D7D5D7" stroke="#CDCFD6"/>
<path d="M85.6154 90.8257C76.2692 103.287 65.5385 115.057 53.7692 125.787C53.0769 126.48 53.0769 127.518 53.7692 128.21C65.5385 138.941 76.2692 150.71 85.6154 163.172C86.3077 164.21 87.6923 164.21 88.3846 163.172C97.7308 150.71 108.462 138.941 120.231 128.21C120.923 127.518 120.923 126.48 120.231 125.787C108.462 115.057 97.7308 103.287 88.3846 90.8257C87.6923 89.7873 86.3077 89.7873 85.6154 90.8257Z" fill="#BF3030"/>
<path d="M27.3846 73.9243C23.2308 79.4627 18.4615 84.6935 13.2308 89.4627C12.9231 89.7704 12.9231 90.232 13.2308 90.5397C18.4615 95.3089 23.2308 100.54 27.3846 106.078C27.6923 106.54 28.3077 106.54 28.6154 106.078C32.7692 100.54 37.5385 95.3089 42.7692 90.5397C43.0769 90.232 43.0769 89.7704 42.7692 89.4627C37.5385 84.6935 32.7692 79.4627 28.6154 73.9243C28.3077 73.4627 27.6923 73.4627 27.3846 73.9243Z" fill="#BF3030"/>
<path d="M16.361 47.276V28.406C16.361 21.968 16.361 21.228 16.805 19.23C17.323 16.566 19.025 11.09 27.461 11.09C30.791 11.09 34.121 11.978 36.267 14.568C38.487 17.158 38.487 20.118 38.487 24.188H32.419C32.419 19.896 32.419 16.862 27.609 16.862C23.687 16.862 22.947 19.6 22.725 20.488C22.355 22.042 22.355 24.188 22.355 29.664V33.586C23.539 32.18 25.537 29.886 29.681 29.886C31.975 29.886 34.491 30.626 36.415 32.698C38.783 35.14 39.153 37.804 39.153 46.166C39.153 50.606 39.153 57.192 37.525 60.004C35.453 63.408 31.383 64.666 27.387 64.666C25.611 64.666 18.137 64.666 16.731 56.526C16.361 54.306 16.361 51.124 16.361 47.276ZM32.789 47.498C32.789 46.166 32.715 41.282 32.641 40.246C32.567 39.136 32.197 35.288 27.535 35.288C22.429 35.288 22.429 39.58 22.429 47.572C22.429 49.792 22.429 53.196 22.651 54.824C22.873 55.786 23.391 58.968 27.757 58.968C32.789 58.968 32.789 55.12 32.789 47.498Z" fill="#BF3030"/>
<defs>
<linearGradient id="paint0_linear_324_104470" x1="92" y1="2" x2="92" y2="182" gradientUnits="userSpaceOnUse">
<stop stop-color="white" stop-opacity="0.85"/>
<stop offset="1" stop-color="white" stop-opacity="0.15"/>
</linearGradient>
</defs>
</svg>
