<svg width="184" height="184" viewBox="0 0 184 184" fill="none" xmlns="http://www.w3.org/2000/svg">
<rect x="1" y="1" width="182" height="182" rx="13" stroke="black" stroke-opacity="0.25" stroke-width="2"/>
<rect x="2.5" y="2.5" width="179" height="179" rx="11.5" fill="#E9E9E9" stroke="url(#paint0_linear_324_104541)"/>
<rect x="41.0449" y="30.5" width="101.909" height="123" rx="1.5" fill="#D7D5D7" stroke="#CDCFD6"/>
<g clip-path="url(#clip0_324_104541)">
<path d="M131.378 54.3665V165.226C131.378 166.488 130.658 167.522 129.757 168.414C128.855 169.307 127.847 169.985 126.572 169.985L123.783 170.001H122.459C121.648 170.001 121.382 170.001 120.838 170.001C120.135 170.001 120.838 170.001 120.027 170.001H118.978H20.8321C20.3759 169.996 19.9228 169.926 19.4863 169.795L52.4899 137.817L51.016 134.2C51.5607 133.55 58.0974 125.651 60.0519 119.449C60.0519 119.353 59.1868 109.931 62.4391 103C63.0799 101.604 63.865 100.097 64.6821 98.4948C68.0786 91.8803 71.4681 83.9131 72.189 73.2221V68.4624C73.1503 55.2652 75.3201 39.4562 95.2825 34.4755C117.119 29.1458 128.334 48.7513 128.767 49.6555L129.167 50.401C129.936 51.7334 130.641 53.05 131.378 54.3665Z" fill="#E7E7E7"/>
<path d="M90.7913 129.818C90.7222 130.375 90.4286 130.882 89.975 131.229C89.5214 131.575 88.9449 131.732 88.3723 131.665L87.4145 131.555L87.3008 132.486C87.2319 133.045 86.9375 133.555 86.4823 133.903C86.257 134.075 85.9989 134.202 85.7229 134.278C85.4469 134.353 85.1583 134.375 84.8737 134.341C84.2989 134.274 83.775 133.988 83.4173 133.546C83.0595 133.103 82.8972 132.54 82.9661 131.981L83.0798 131.05L82.1382 130.939C81.5634 130.872 81.0394 130.586 80.6817 130.143C80.324 129.7 80.1617 129.138 80.2306 128.579C80.2995 128.02 80.5939 127.51 81.0491 127.162C81.5042 126.814 82.0829 126.657 82.6577 126.724L83.5993 126.834L83.7129 125.918C83.747 125.642 83.8369 125.374 83.9773 125.131C84.1178 124.888 84.306 124.674 84.5314 124.502C84.7568 124.33 85.0148 124.202 85.2909 124.127C85.5669 124.052 85.8554 124.03 86.14 124.063C86.4247 124.096 86.6998 124.184 86.9497 124.32C87.1996 124.457 87.4194 124.64 87.5965 124.859C87.7736 125.078 87.9046 125.329 87.982 125.598C88.0594 125.866 88.0817 126.147 88.0476 126.424L87.934 127.339L88.8918 127.45C89.4658 127.521 89.9875 127.81 90.3434 128.253C90.6992 128.697 90.8602 129.259 90.7913 129.818ZM89.5412 109.641C89.1191 110.62 92.3985 109.183 93.0479 109.183C93.0479 109.293 89.9796 108.693 89.5412 109.688V109.641ZM73.5175 123.755L72.6246 123.44L72.9493 122.556C73.1495 122.028 73.126 121.445 72.884 120.934C72.6419 120.423 72.2011 120.027 71.6586 119.832C71.1161 119.637 70.5163 119.66 69.9911 119.896C69.4659 120.131 69.0583 120.56 68.8581 121.087L68.5334 121.956L67.6243 121.64C67.3556 121.543 67.0701 121.499 66.784 121.51C66.4979 121.521 66.2168 121.587 65.9567 121.703C65.6967 121.82 65.4628 121.985 65.2684 122.19C65.074 122.394 64.9229 122.634 64.8238 122.895C64.7246 123.156 64.6794 123.434 64.6906 123.712C64.7018 123.99 64.7693 124.264 64.8891 124.517C65.009 124.77 65.1789 124.997 65.3891 125.186C65.5993 125.375 65.8458 125.522 66.1144 125.618L67.0074 125.934L66.6827 126.818C66.5817 127.078 66.5347 127.355 66.5447 127.633C66.5546 127.911 66.6211 128.184 66.7404 128.437C66.8597 128.689 67.0294 128.916 67.2397 129.105C67.4499 129.293 67.6965 129.439 67.9652 129.534C68.2337 129.632 68.5197 129.678 68.8065 129.669C69.0933 129.659 69.3754 129.595 69.6365 129.479C69.8976 129.363 70.1325 129.198 70.3277 128.993C70.5229 128.789 70.6745 128.549 70.7738 128.287L71.0985 127.418L72.0077 127.734C72.2751 127.832 72.5599 127.878 72.8456 127.868C73.1312 127.859 73.4121 127.794 73.6719 127.678C73.9316 127.562 74.1651 127.397 74.3588 127.192C74.5524 126.988 74.7024 126.748 74.8 126.487C74.9896 125.965 74.9614 125.392 74.7217 124.89C74.482 124.389 74.0497 123.998 73.5175 123.803V123.755ZM85.0279 76.7851V76.6273C84.1802 75.3685 82.876 74.4666 81.3751 74.1011C79.9647 73.8388 78.5159 73.8388 77.1054 74.1011C78.3736 74.06 79.6403 74.22 80.8556 74.5748C82.4098 74.9972 83.8394 75.7708 85.0279 76.8325V76.7851ZM121.215 63.8229H121.313C121.313 63.8229 118.829 55.2972 116.897 49.9292C114.543 42.9823 105.078 38.53 96.2137 38.5458C90.7994 38.7963 85.6392 40.8538 81.6024 44.3717C84.8161 41.9652 88.6334 40.4388 92.6583 39.951C106.117 38.5616 114.51 47.1031 115.858 51.2712C116.799 54.192 119.689 63.744 119.689 63.744C122.754 74.1488 126.663 84.3009 131.378 94.1049V150.343C130.211 149.826 128.913 149.65 127.645 149.838C126.376 150.026 125.191 150.569 124.235 151.401L126.54 153.28C127.101 152.9 127.758 152.676 128.44 152.632C129.054 152.603 129.666 152.717 130.226 152.964L131.378 151.638V160.305L130.29 159.421C129.843 159.632 129.358 159.755 128.862 159.784C128.428 159.812 127.993 159.758 127.579 159.626L127.384 159.848C128.045 160.663 128.476 161.631 128.635 162.658H129.04C129.849 162.609 130.641 162.417 131.378 162.089V165.247C131.378 166.503 130.865 167.708 129.952 168.596C129.038 169.485 127.805 169.999 126.513 169.999H123.494L122.222 168.942C121.779 169.165 121.292 169.294 120.793 169.32C120.359 169.341 119.941 169.306 119.526 169.181L118.817 169.999H115.684L117.562 167.71C117.183 167.183 116.954 166.567 116.897 165.926C116.877 165.509 116.931 165.093 117.059 164.695L114.689 162.753C114.135 163.794 113.883 164.961 113.958 166.131C114.033 167.562 114.605 168.926 115.582 169.999H19.3258C18.8292 169.993 18.3175 169.952 17.8457 169.801L51.3408 137.87L49.8472 134.286C49.8472 134.286 56.958 126.061 59.0199 119.603C59.0199 119.603 58.1107 110.256 61.4551 103.183C64.7994 96.1101 69.4101 86.5423 70.3193 73.2959C71.2284 60.0495 69.9458 40.5194 94.1681 34.504C103.227 32.2621 111.263 33.7304 116.751 36.9354C119.735 34.2214 122.393 31.1864 124.673 27.8887C124.781 27.7218 124.924 27.5781 125.091 27.4663C125.258 27.3546 125.447 27.2771 125.646 27.2387C125.845 27.2003 126.05 27.2017 126.248 27.2429C126.447 27.2841 126.634 27.3641 126.8 27.4782C128.231 28.8243 129.782 30.0209 131.378 31.1773V90.6601C127.402 81.9382 123.985 72.9753 121.215 63.8229ZM124.787 121.608C125.246 122.307 125.961 122.809 126.787 123.015C127.613 123.22 128.488 123.112 129.235 122.713C129.648 123.245 130.213 123.646 130.859 123.866C130.242 123.061 129.674 122.287 129.122 121.466L128.813 121.656C128.324 121.957 127.733 122.057 127.168 121.935C126.603 121.812 126.112 121.476 125.802 121C125.492 120.525 125.388 119.95 125.515 119.4C125.641 118.851 125.987 118.373 126.475 118.072L126.784 117.882C126.248 117.03 125.761 116.177 125.29 115.34C125.219 115.996 125.355 116.657 125.68 117.235C124.989 117.718 124.513 118.439 124.347 119.25C124.182 120.062 124.339 120.905 124.787 121.608ZM73.9396 65.7333C76.5711 64.4421 79.0529 62.8807 81.3427 61.0758C85.5233 57.9127 88.3281 53.3365 89.2003 48.2556C87.7766 52.0267 85.2967 55.3353 82.0408 57.8076C79.6054 59.7195 76.9656 61.371 74.1669 62.7335C74.0532 63.8071 73.9721 64.8176 73.9396 65.7333ZM70.5303 169.147C70.2343 167.838 69.5179 166.655 68.4847 165.768C67.5026 164.915 66.282 164.366 64.978 164.189L65.2378 167.189C65.7703 167.357 66.2557 167.642 66.6557 168.023C67.0557 168.404 67.3594 168.869 67.5431 169.384L70.5303 169.147ZM71.683 144.028L64.0526 141.407C63.9231 141.36 63.7827 141.35 63.6476 141.378C63.5126 141.406 63.3884 141.471 63.2896 141.565C63.1887 141.658 63.1181 141.778 63.0863 141.91C63.0546 142.042 63.0632 142.18 63.111 142.307C64.6746 147.06 65.2971 152.058 64.9455 157.037C64.9271 157.196 64.9633 157.357 65.0485 157.494C65.1336 157.631 65.2629 157.737 65.4163 157.795H65.6761C65.7976 157.795 65.9173 157.766 66.0248 157.711C66.1323 157.656 66.2244 157.577 66.293 157.479L70.7089 151.164C70.764 151.086 70.8027 150.999 70.8227 150.907C70.8428 150.815 70.8438 150.719 70.8256 150.627C70.8075 150.534 70.7706 150.446 70.7171 150.368C70.6636 150.289 70.5946 150.222 70.5141 150.169C70.4351 150.114 70.3453 150.074 70.2501 150.053C70.1549 150.033 70.0564 150.031 69.9605 150.049C69.8647 150.067 69.7736 150.103 69.6929 150.157C69.6122 150.21 69.5436 150.279 69.4913 150.359L66.569 154.527C66.5666 150.699 66.0203 146.889 64.9455 143.207L71.1959 145.37C71.3745 145.411 71.5624 145.387 71.7238 145.302C71.8853 145.217 72.0089 145.077 72.0711 144.909C72.1334 144.741 72.1298 144.557 72.0612 144.392C71.9926 144.226 71.8638 144.091 71.6992 144.012L71.683 144.028ZM74.102 122.84C74.3313 122.053 74.2473 121.211 73.8668 120.481C73.4863 119.752 72.8372 119.189 72.0488 118.904C71.2604 118.619 70.3906 118.634 69.6127 118.945C68.8349 119.256 68.2061 119.84 67.8516 120.582C67.0424 120.359 66.1766 120.441 65.4266 120.811C64.6765 121.181 64.0974 121.812 63.8046 122.579C63.5118 123.345 63.5267 124.191 63.8465 124.948C64.1662 125.704 64.7673 126.316 65.53 126.66C65.3007 127.447 65.3846 128.289 65.7652 129.019C66.1457 129.748 66.7948 130.311 67.5832 130.596C68.3716 130.881 69.2413 130.866 70.0192 130.555C70.7971 130.244 71.4259 129.66 71.7804 128.918C72.5895 129.141 73.4554 129.06 74.2054 128.689C74.9554 128.319 75.5345 127.688 75.8273 126.921C76.1202 126.155 76.1052 125.309 75.7855 124.552C75.4657 123.796 74.8646 123.184 74.102 122.84ZM89.2977 126.408C89.3378 125.587 89.0567 124.781 88.511 124.153C87.9652 123.526 87.1952 123.122 86.3559 123.024C85.5166 122.926 84.6703 123.141 83.9872 123.625C83.3041 124.109 82.8348 124.827 82.6739 125.634C81.8295 125.595 81.0013 125.869 80.3558 126.399C79.7103 126.93 79.2954 127.679 79.1946 128.495C79.0938 129.311 79.3146 130.134 79.8125 130.799C80.3104 131.463 81.0485 131.919 81.8784 132.076C81.8383 132.897 82.1194 133.702 82.6651 134.33C83.2109 134.958 83.9809 135.361 84.8202 135.459C85.6595 135.558 86.5058 135.343 87.1889 134.859C87.872 134.374 88.3413 133.657 88.5022 132.849C89.3466 132.889 90.1748 132.615 90.8203 132.084C91.4658 131.554 91.8807 130.805 91.9815 129.989C92.0823 129.172 91.8615 128.349 91.3636 127.685C90.8657 127.021 90.1276 126.564 89.2977 126.408ZM107.935 129.566C107.882 128.738 107.506 127.96 106.885 127.392C106.264 126.823 105.444 126.505 104.591 126.503C104.475 125.692 104.05 124.954 103.4 124.435C102.75 123.917 101.922 123.655 101.083 123.703C100.243 123.751 99.4529 124.104 98.8694 124.693C98.286 125.282 97.9522 126.064 97.9346 126.882C97.0737 126.963 96.2786 127.365 95.7162 128.004C95.1537 128.643 94.8677 129.469 94.9181 130.308C94.9685 131.148 95.3515 131.936 95.9866 132.507C96.6217 133.078 97.4595 133.387 98.3242 133.37C98.4398 134.181 98.8651 134.919 99.5152 135.438C100.165 135.957 100.993 136.218 101.832 136.17C102.672 136.123 103.462 135.769 104.046 135.18C104.629 134.591 104.963 133.809 104.98 132.992C105.817 132.874 106.577 132.455 107.109 131.817C107.642 131.179 107.908 130.37 107.854 129.55L107.935 129.566ZM121.443 162.247C120.857 161.359 120.532 160.333 120.501 159.279H120.144C118.658 159.352 117.24 159.908 116.118 160.858L118.52 162.8C119.077 162.412 119.736 162.187 120.42 162.153C120.764 162.134 121.108 162.166 121.443 162.247ZM124.024 164.458C124.158 164.796 124.235 165.153 124.251 165.516C124.297 166.119 124.18 166.723 123.91 167.268L126.199 169.147C126.928 168.009 127.28 166.681 127.206 165.342V164.963H127.011C125.988 165.036 124.962 164.862 124.024 164.458ZM122.741 153.185C122.189 154.216 121.932 155.371 121.995 156.532C122.014 156.884 122.069 157.232 122.157 157.574C123.329 157.49 124.502 157.736 125.534 158.284C125.144 157.746 124.919 157.111 124.884 156.453C124.85 156.032 124.899 155.608 125.03 155.206L122.741 153.185ZM114.153 120.456C113.373 120.781 112.749 121.383 112.408 122.14C112.067 122.896 112.035 123.75 112.319 124.529C111.531 124.884 110.917 125.523 110.605 126.311C110.293 127.099 110.309 127.974 110.648 128.751C110.988 129.528 111.624 130.146 112.424 130.475C113.223 130.804 114.123 130.817 114.932 130.513C115.298 131.279 115.955 131.876 116.765 132.179C117.575 132.482 118.475 132.467 119.274 132.137C120.073 131.807 120.708 131.188 121.046 130.411C121.384 129.633 121.398 128.758 121.085 127.971C121.91 127.64 122.566 127.004 122.908 126.203C123.251 125.402 123.252 124.502 122.912 123.7C122.572 122.898 121.918 122.261 121.094 121.928C120.271 121.594 119.345 121.593 118.52 121.924C118.129 121.177 117.456 120.606 116.641 120.333C115.827 120.059 114.935 120.103 114.153 120.456ZM95.2721 41.4035C96.2653 42.5714 97.3868 43.6302 98.6165 44.5612C102.006 47.3755 105.926 49.5206 110.159 50.8765C109.189 49.1476 107.863 47.6319 106.263 46.4242C103.115 43.8428 99.3249 42.1114 95.2721 41.4035ZM92.5446 41.3088C93.9523 44.2183 96.0433 46.7655 98.6489 48.7451C104.964 53.6079 109.51 54.9657 111.637 55.3446C111.497 54.261 111.213 53.1996 110.793 52.1869C106.054 50.9102 101.667 48.6235 97.9508 45.4927C96.3753 44.2903 94.972 42.8886 93.7785 41.3246L92.5446 41.3088ZM91.0673 41.4035C92.1668 45.9407 94.831 49.9748 98.6165 52.8342C104.997 57.7602 109.575 59.1496 111.702 59.4653C111.702 58.7707 111.702 58.1075 111.702 57.476C111.702 57.1287 111.702 56.7813 111.702 56.4498C109.494 56.1182 104.672 54.7762 97.9184 49.5661C95.067 47.4112 92.8036 44.6083 91.327 41.4035H91.0673ZM90.7751 44.1665C91.6507 49.2335 94.4488 53.7969 98.6165 56.955C105.11 61.9441 109.737 63.2703 111.799 63.5861C111.799 62.5756 111.799 61.5494 111.702 60.5547C109.494 60.2232 104.672 58.8812 97.9346 53.6868C94.686 51.2274 92.2067 47.9361 90.7751 44.1822V44.1665ZM90.7751 48.2714C91.6507 53.3385 94.4488 57.9019 98.6165 61.06C105.386 66.2701 110.127 67.4542 112.043 67.7384C112.043 66.7753 111.913 65.7491 111.848 64.6913C109.721 64.3913 104.834 63.1125 97.9346 57.7918C94.6829 55.3354 92.2028 52.043 90.7751 48.2872V48.2714ZM89.9796 49.8503C88.8378 54.6433 86.0345 58.9082 82.0408 61.9283C79.5358 63.8998 76.8133 65.5943 73.9234 66.9806C73.8946 68.3035 73.9488 69.6269 74.0857 70.9435C74.1253 71.9388 74.2338 72.9305 74.4104 73.9117C74.8464 76.1801 74.9936 78.492 74.8487 80.7954C74.6984 86.0889 75.1393 91.3827 76.1638 96.5837C78.7613 111.772 89.1516 116.493 92.6421 116.493C105.776 116.493 116.312 98.873 117.384 97.0258C114.527 90.8841 113.179 81.348 112.513 73.3433C112.513 73.2486 112.302 71.4171 112.091 68.8278C110.127 68.6068 105.11 67.4542 97.9021 61.8967C93.9173 58.8715 91.1207 54.608 89.9796 49.8187V49.8503ZM89.2003 44.1822C87.7596 47.9226 85.2814 51.2015 82.0408 53.6552C79.8321 55.3775 77.4623 56.8945 74.9624 58.1865C74.7026 59.2759 74.4916 60.3495 74.3455 61.3442C76.8218 60.0798 79.1653 58.5833 81.3427 56.8761C85.5026 53.7361 88.3052 49.1972 89.2003 44.1507V44.1822ZM88.3236 42.0192C86.8569 44.9775 84.7066 47.5658 82.0408 49.5819C80.3278 50.9179 78.5214 52.1366 76.6346 53.229C76.1201 54.3942 75.6862 55.5915 75.3358 56.8129C77.445 55.652 79.4538 54.3267 81.3427 52.85C84.9926 50.0951 87.6015 46.2421 88.7619 41.8929L88.3236 42.0192ZM77.495 51.4922C78.8261 50.6652 80.1105 49.7693 81.3427 48.8082C83.5533 47.1332 85.3969 45.045 86.7651 42.6666C85.413 43.2706 84.1426 44.0342 82.9824 44.9401C80.7067 46.706 78.8373 48.9167 77.495 51.4291V51.4922ZM83.2097 82.7531H83.096C81.5649 83.4266 79.906 83.7815 78.2256 83.7952C78.2256 83.7952 77.7385 83.9057 79.1834 84.1267C80.6283 84.3477 83.3071 83.9057 83.5831 83.4162C83.5668 83.3847 84.2487 82.4532 83.2097 82.69V82.7531ZM79.2971 81.7111C78.5827 81.6322 77.2515 81.4901 76.6833 81.4901C76.1681 81.4966 75.6577 81.5873 75.1734 81.7585C75.1734 81.7585 76.3424 80.3059 77.5113 80.6059C77.5187 80.5694 77.5187 80.5319 77.5113 80.4954C77.451 80.4041 77.3968 80.3092 77.3489 80.2112C77.1589 80.066 76.9798 79.9077 76.8132 79.7376C76.3558 78.8552 76.2076 77.8517 76.3911 76.8799C76.2591 76.8459 76.1332 76.7927 76.0177 76.722C75.5108 76.3161 75.0532 75.8553 74.6539 75.3484C75.6767 75.6168 79.8653 76.422 79.8815 76.422C79.995 76.4421 80.1046 76.4794 80.2062 76.5325C81.66 77.3212 83.2014 77.9462 84.8007 78.3955C87.0573 78.8692 86.5865 79.3586 86.5865 79.3586C86.479 79.5104 86.3409 79.6393 86.1806 79.7376C85.512 80.4844 84.6395 81.0318 83.6642 81.3164C82.3842 81.73 81.0297 81.8805 79.6867 81.7585C79.5357 81.7748 79.3832 81.7748 79.2321 81.7585L79.2971 81.7111ZM82.9012 78.3324C82.8752 79.1944 82.5995 80.0317 82.1057 80.748C82.1057 80.748 81.7648 81.1427 83.2421 80.9217C83.692 80.8432 84.1198 80.6733 84.4974 80.423C84.8751 80.1727 85.1942 79.8476 85.4338 79.4692C85.3542 79.4473 85.2778 79.4154 85.2065 79.3744C84.49 78.9114 83.7152 78.54 82.9012 78.2692V78.3324ZM79.8815 81.2532C80.6205 81.1474 81.2903 80.7718 81.7547 80.2028C82.2191 79.6338 82.4433 78.9142 82.3817 78.1903C81.9452 78.041 81.5008 77.9145 81.0504 77.8114C81.0585 77.8796 81.0585 77.9484 81.0504 78.0166C81.0504 78.9481 80.466 79.6902 79.7517 79.6902C79.3591 79.6175 79.0079 79.4066 78.7652 79.0978C78.5226 78.789 78.4056 78.4041 78.4366 78.0166C78.4427 77.7682 78.4921 77.5227 78.5828 77.2904L77.4625 77.0693C77.3774 77.3783 77.3338 77.6967 77.3327 78.0166C77.244 78.7721 77.4601 79.5315 77.9355 80.1351C78.4109 80.7388 79.1085 81.1396 79.8815 81.2532ZM77.9334 69.3488C76.6433 70.2102 75.54 71.31 74.6864 72.5854C75.2385 72.5531 75.7841 72.4523 76.3099 72.2855C77.9369 71.4066 79.7972 71.0217 81.6511 71.1803C82.9651 71.3629 84.1986 71.9052 85.2076 72.7438C86.2165 73.5825 86.9594 74.683 87.3495 75.9168C87.715 78.1333 87.6655 80.3958 87.2034 82.5952C86.4241 86.1318 83.7941 89.9842 84.1188 92.4472C84.1893 93.2694 84.5519 94.0422 85.1444 94.6327C85.7369 95.2233 86.5223 95.5949 87.3658 95.6838C88.4697 95.9522 89.6224 96.7574 89.525 97.831C89.6293 97.5641 89.6766 97.2793 89.6639 96.9941C89.6512 96.7088 89.5788 96.4291 89.4512 96.1719C89.3235 95.9148 89.1433 95.6857 88.9215 95.4986C88.6997 95.3115 88.441 95.1704 88.1613 95.0838C86.1319 94.326 85.0604 94.6417 84.752 92.5261C84.4435 90.4105 86.9112 85.0898 87.5606 82.8005C88.2144 80.3717 88.3086 77.8325 87.8366 75.3642C87.7777 73.5658 87.0036 71.8598 85.6773 70.6053C84.351 69.3507 82.5759 68.6456 80.7257 68.6384C79.741 68.5807 78.7629 68.8295 77.9334 69.3488ZM107.253 77.3377C108.211 77.7009 109.494 78.4113 109.754 78.4587C110.013 78.5061 109.542 78.7271 109.169 78.8376C108.796 78.9481 107.773 80.1481 106.344 80.9059C104.916 81.6637 99.7204 81.3953 98.9411 81.2374C98.1619 81.0796 95.337 80.5112 95.1097 80.5112C95.0377 80.507 94.9678 80.4862 94.9057 80.4505C94.8436 80.4148 94.7911 80.3653 94.7526 80.3059C95.331 78.9502 96.1436 77.7007 97.1553 76.6115C96.3317 76.1846 95.6798 75.5006 95.3046 74.6695C95.1909 74.2906 97.4476 73.0907 102.286 73.3591C107.123 73.6275 108.162 76.643 108.162 76.643C106.692 75.1733 104.762 74.2184 102.675 73.9275C99.5581 73.7064 97.1878 74.3537 96.7819 74.9063C96.3761 75.4589 97.8859 75.8221 97.8859 75.8221C99.1338 75.7206 100.388 75.7206 101.636 75.8221C103.585 76.0055 105.486 76.5184 107.253 77.3377ZM98.9736 80.4954C98.2451 79.5612 97.8618 78.4153 97.8859 77.243C97.8778 77.1432 97.8778 77.0429 97.8859 76.943H97.6748H97.5774C96.8469 78.064 95.613 79.9112 95.6293 79.9902C95.6455 80.0691 95.9215 80.1323 99.0386 80.4322L98.9736 80.4954ZM103.909 77.1798V77.0693C103.526 77.0338 103.14 77.0338 102.756 77.0693V77.2272C102.756 78.4903 101.993 79.5165 101.133 79.5165C100.272 79.5165 99.4282 78.4903 99.4282 77.2272C99.4282 77.1483 99.4282 77.0535 99.4282 76.9746H98.2755C98.2755 77.0693 98.2755 77.1641 98.2755 77.2588C98.2521 77.8791 98.3677 78.497 98.6144 79.0696C98.8611 79.6421 99.233 80.1556 99.7042 80.5743L101.555 80.7322H102.286C102.841 80.3205 103.281 79.7792 103.565 79.1583C103.849 78.5374 103.967 77.857 103.909 77.1798ZM107.887 78.7587C107.058 78.1719 106.144 77.7089 105.175 77.3851C104.883 77.293 104.585 77.2192 104.282 77.1641C104.32 78.4633 103.837 79.7259 102.935 80.6849C107.156 80.6533 107.935 78.7113 107.935 78.7113L107.887 78.7587ZM104.331 127.702H103.389V126.771C103.355 126.21 103.093 125.685 102.66 125.312C102.228 124.939 101.661 124.748 101.084 124.782C100.507 124.815 99.9675 125.07 99.5839 125.491C99.2003 125.911 99.0041 126.462 99.0386 127.024V127.955H98.0807C97.5272 128.021 97.0203 128.29 96.6633 128.706C96.3063 129.123 96.126 129.656 96.1591 130.197C96.1922 130.739 96.4362 131.247 96.8415 131.62C97.2468 131.992 97.7828 132.201 98.3405 132.202H99.2983V133.134C99.2953 133.425 99.3539 133.714 99.4705 133.983C99.5871 134.252 99.7591 134.495 99.976 134.696C100.193 134.898 100.45 135.054 100.731 135.155C101.013 135.256 101.312 135.299 101.612 135.283C101.911 135.267 102.204 135.191 102.472 135.06C102.74 134.929 102.978 134.747 103.171 134.523C103.363 134.299 103.506 134.039 103.591 133.76C103.677 133.48 103.702 133.186 103.665 132.897V131.965H104.623C105.2 131.932 105.74 131.677 106.124 131.256C106.507 130.836 106.703 130.284 106.669 129.723C106.634 129.162 106.372 128.637 105.94 128.264C105.508 127.891 104.941 127.701 104.364 127.734L104.331 127.702ZM88.0963 105.725C87.7804 106.057 87.5828 106.478 87.5331 106.928C87.4834 107.377 87.5841 107.83 87.8203 108.22C88.8918 109.656 92.983 107.336 92.983 107.336C91.8175 107.564 90.6326 107.685 89.4438 107.699C87.9664 107.572 88.1937 105.646 88.1937 105.646L88.0963 105.725ZM113.358 124.355L113.747 125.208L112.854 125.571C112.591 125.681 112.353 125.84 112.153 126.04C111.953 126.239 111.795 126.475 111.689 126.734C111.582 126.993 111.53 127.269 111.533 127.548C111.537 127.826 111.597 128.102 111.71 128.358C111.823 128.614 111.987 128.846 112.192 129.04C112.397 129.235 112.639 129.388 112.905 129.491C113.172 129.595 113.456 129.646 113.742 129.643C114.029 129.639 114.312 129.581 114.575 129.471L115.452 129.108L115.825 129.976C115.943 130.238 116.112 130.476 116.323 130.674C116.535 130.873 116.785 131.029 117.058 131.134C117.332 131.239 117.624 131.29 117.918 131.285C118.212 131.28 118.502 131.219 118.772 131.105C119.042 130.991 119.286 130.826 119.49 130.621C119.694 130.415 119.855 130.172 119.963 129.906C120.07 129.64 120.123 129.356 120.118 129.07C120.113 128.784 120.05 128.502 119.933 128.239L119.559 127.387L120.452 127.024C120.73 126.923 120.984 126.768 121.198 126.569C121.413 126.37 121.584 126.131 121.701 125.866C121.817 125.601 121.878 125.316 121.878 125.028C121.878 124.739 121.818 124.454 121.702 124.189C121.585 123.924 121.414 123.684 121.2 123.485C120.986 123.286 120.732 123.131 120.454 123.03C120.177 122.929 119.881 122.884 119.585 122.897C119.288 122.911 118.998 122.982 118.731 123.108L117.855 123.487L117.481 122.619C117.236 122.125 116.804 121.743 116.277 121.551C115.749 121.359 115.165 121.372 114.647 121.587C114.129 121.803 113.716 122.204 113.494 122.708C113.272 123.211 113.258 123.779 113.455 124.292L113.358 124.355ZM86.7001 102.82C86.5202 103.159 86.2439 103.44 85.9043 103.63C85.5647 103.821 85.176 103.912 84.7844 103.894C84.7844 103.894 84.2812 103.767 84.7844 103.988C85.4948 104.297 86.2956 104.348 87.0411 104.131L87.7716 103.909C87.8743 103.867 87.9847 103.845 88.0963 103.845C88.2079 103.845 88.3184 103.867 88.421 103.909C88.9653 104.23 89.5871 104.404 90.2231 104.415C91.0303 104.461 91.8347 104.286 92.5446 103.909C92.6666 103.845 92.8034 103.81 92.9424 103.81C93.0814 103.81 93.2182 103.845 93.3402 103.909C94.4833 104.502 95.7629 104.801 97.0579 104.778C98.86 104.541 98.9411 103.199 98.9411 103.199C98.372 103.65 97.6624 103.901 96.928 103.909C95.7267 103.909 93.6811 101.494 93.6811 101.494C93.4231 101.291 93.1199 101.15 92.7957 101.081C92.4716 101.013 92.1354 101.019 91.8141 101.099C91.642 101.164 91.4785 101.249 91.327 101.352C91.0955 101.528 90.8096 101.625 90.5153 101.625C90.221 101.625 89.9351 101.528 89.7036 101.352C89.3473 101.093 88.9142 100.955 88.4697 100.957C87.6742 100.941 87.2846 101.652 86.7001 102.82ZM92.5446 93.505C93.1914 93.8433 93.7475 94.3246 94.1681 94.9101C94.2655 94.9101 95.7916 95.9522 96.4085 94.547C97.0254 93.1418 95.5318 92.0998 95.5318 92.0998C95.5318 92.0998 96.717 93.9155 95.5318 94.247C93.9084 94.6891 94.2006 92.1788 92.2849 92.2735C91.7172 92.306 91.1753 92.5155 90.7396 92.871C90.3039 93.2264 89.9975 93.709 89.8659 94.247C90.1906 93.505 91.7329 93.2366 92.5446 93.505ZM94.7363 71.4013C95.2559 71.5276 95.7591 70.8172 99.6068 70.0593C102.081 69.5565 104.659 70.0216 106.783 71.354C107.077 71.5432 107.421 71.6479 107.774 71.6563C108.127 71.6647 108.475 71.5763 108.779 71.4013C106.791 69.5174 104.238 68.2957 101.49 67.9121C99.0456 67.6885 96.6045 68.3708 94.6552 69.8225C93.5999 70.8014 94.2818 71.3066 94.785 71.4013H94.7363Z" fill="#24242E"/>
<path d="M115.014 127.003C115.125 127.302 115.116 127.63 114.99 127.923C114.864 128.216 114.629 128.452 114.333 128.584C114.027 128.696 113.689 128.689 113.387 128.566C113.086 128.443 112.844 128.211 112.712 127.92C112.581 127.611 112.579 127.265 112.706 126.955C112.833 126.644 113.08 126.395 113.393 126.26C113.709 126.156 114.054 126.176 114.356 126.314C114.658 126.453 114.894 126.699 115.014 127.003ZM121.648 41.4889C122.183 41.9474 122.783 42.6169 123.27 43.0754C124.955 41.6901 126.775 40.826 128.976 40.931C129.032 40.9354 129.036 40.9031 129.085 40.931C129.133 40.9588 129.107 40.8853 129.138 40.931C129.169 40.9766 129.307 41.1892 129.315 41.2435C129.322 41.2978 129.317 41.3531 129.3 41.4053C128.783 43.3209 127.424 45.1985 125.702 46.2485C126.513 47.0418 126.513 47.0418 127.324 47.835C129.568 45.6485 130.174 42.9724 130.567 39.9023C127.324 39.9023 124.664 39.9651 121.648 41.4889ZM115.954 124.694C116.256 124.568 116.497 124.334 116.626 124.04C116.756 123.745 116.765 123.414 116.651 123.113C116.516 122.824 116.275 122.594 115.975 122.468C115.676 122.342 115.339 122.33 115.03 122.433C114.714 122.566 114.465 122.815 114.337 123.126C114.21 123.437 114.214 123.785 114.349 124.094C114.49 124.373 114.733 124.589 115.031 124.701C115.329 124.812 115.658 124.81 115.954 124.694ZM118.386 130.244C118.631 130.157 118.844 130.001 118.997 129.794C119.149 129.588 119.234 129.341 119.241 129.086C119.248 128.832 119.175 128.582 119.034 128.368C118.892 128.154 118.687 127.987 118.447 127.888C118.206 127.79 117.941 127.764 117.685 127.815C117.429 127.866 117.195 127.991 117.013 128.174C116.832 128.357 116.711 128.589 116.666 128.839C116.622 129.09 116.656 129.348 116.765 129.58C116.903 129.867 117.145 130.093 117.444 130.216C117.744 130.338 118.079 130.348 118.386 130.244ZM103.164 129.928C103.174 130.094 103.218 130.257 103.293 130.406C103.368 130.556 103.472 130.69 103.6 130.8C103.728 130.91 103.877 130.994 104.039 131.048C104.2 131.102 104.371 131.124 104.542 131.114C104.797 131.097 105.042 131.008 105.246 130.856C105.45 130.704 105.602 130.497 105.685 130.26C105.768 130.024 105.777 129.769 105.712 129.527C105.646 129.285 105.508 129.068 105.316 128.903C105.124 128.737 104.886 128.631 104.632 128.598C104.378 128.564 104.12 128.605 103.889 128.715C103.659 128.824 103.467 128.998 103.338 129.214C103.209 129.43 103.148 129.678 103.164 129.928ZM120.007 126.291C120.165 126.228 120.308 126.134 120.428 126.015C120.548 125.897 120.643 125.756 120.706 125.601C120.769 125.446 120.801 125.281 120.797 125.114C120.794 124.948 120.757 124.783 120.688 124.631C120.552 124.342 120.311 124.113 120.01 123.99C119.71 123.867 119.373 123.859 119.067 123.967C118.909 124.031 118.766 124.125 118.646 124.243C118.526 124.362 118.431 124.502 118.368 124.657C118.304 124.812 118.273 124.977 118.276 125.144C118.279 125.311 118.317 125.475 118.386 125.627C118.521 125.916 118.763 126.145 119.063 126.268C119.364 126.391 119.701 126.399 120.007 126.291ZM101.64 134.197C101.981 134.176 102.3 134.025 102.528 133.777C102.756 133.528 102.873 133.202 102.856 132.869C102.845 132.702 102.801 132.54 102.727 132.39C102.652 132.24 102.547 132.107 102.419 131.997C102.291 131.886 102.142 131.802 101.98 131.748C101.819 131.694 101.648 131.672 101.478 131.683C101.136 131.703 100.817 131.854 100.59 132.103C100.362 132.352 100.244 132.678 100.262 133.011C100.266 133.181 100.305 133.349 100.377 133.504C100.449 133.659 100.553 133.799 100.682 133.914C100.81 134.029 100.961 134.117 101.126 134.174C101.291 134.231 101.465 134.255 101.64 134.244V134.197ZM129.426 75.1905L127.804 76.0759C128.323 77.2143 128.874 78.3843 129.426 79.5859L131.371 78.575V75.4068C131.142 75.1633 130.715 74.9832 130.378 74.9483C130.041 74.9133 129.702 74.9995 129.426 75.1905ZM131.371 83.3837V80.81L130.285 81.3568C130.609 82.0208 131.031 82.7197 131.371 83.3837ZM125.94 65.4352C125.847 65.2534 125.714 65.0941 125.55 64.9685C125.386 64.8429 125.196 64.7542 124.993 64.7089C124.79 64.6635 124.579 64.6626 124.376 64.7062C124.172 64.7497 123.981 64.8367 123.817 64.9609L123.201 65.2929L124.643 68.8504L125.632 68.2654C125.971 67.8792 126.181 67.4021 126.236 66.8969C126.291 66.3917 126.188 65.882 125.94 65.4352ZM102.499 126.908C102.489 126.742 102.445 126.579 102.37 126.429C102.295 126.28 102.191 126.146 102.063 126.036C101.934 125.926 101.785 125.841 101.624 125.787C101.462 125.734 101.291 125.711 101.121 125.722C100.865 125.738 100.62 125.828 100.417 125.98C100.213 126.131 100.06 126.339 99.9772 126.575C99.8944 126.812 99.8852 127.067 99.9509 127.309C100.017 127.55 100.154 127.767 100.346 127.933C100.539 128.098 100.777 128.204 101.031 128.238C101.285 128.271 101.543 128.231 101.773 128.121C102.004 128.011 102.196 127.838 102.325 127.622C102.454 127.406 102.514 127.157 102.499 126.908ZM126.605 70.0836L125.421 70.716C125.892 71.8228 126.394 73.0086 127.043 74.2577L128.502 73.3881C128.848 73.0027 129.063 72.5223 129.118 72.0127C129.174 71.5032 129.066 70.9895 128.81 70.5421C128.717 70.3487 128.581 70.1789 128.41 70.0459C128.239 69.913 128.038 69.8207 127.825 69.7762C127.611 69.7317 127.389 69.7364 127.178 69.7897C126.966 69.8431 126.77 69.9437 126.605 70.0836ZM126.897 118.86C126.684 119.061 126.549 119.326 126.512 119.612C126.475 119.898 126.54 120.187 126.695 120.432C126.85 120.678 127.086 120.864 127.365 120.96C127.643 121.057 127.947 121.058 128.226 120.963L128.453 120.789C127.977 120.093 127.523 119.398 127.091 118.702L126.897 118.86ZM36.3902 156.806C36.1533 156.576 35.8328 156.447 35.4986 156.447C35.1645 156.447 34.844 156.576 34.607 156.806L21.1074 169.998L25.6801 169.999L34.6719 161.154C34.8661 160.967 35.1282 160.862 35.4014 160.862C35.6745 160.862 35.9366 160.967 36.1309 161.154L44.7603 170.005H49.2198L36.3902 156.806ZM97.0034 130.228C97.0168 130.478 97.106 130.719 97.26 130.92C97.4139 131.121 97.6255 131.272 97.8679 131.356C98.1104 131.439 98.3727 131.45 98.6216 131.388C98.8705 131.325 99.0948 131.192 99.266 131.005C99.4371 130.818 99.5475 130.586 99.583 130.337C99.6185 130.089 99.5776 129.836 99.4655 129.611C99.3533 129.385 99.175 129.197 98.9531 129.071C98.7312 128.944 98.4758 128.885 98.2193 128.9C98.0496 128.908 97.8832 128.949 97.7299 129.02C97.5765 129.092 97.4393 129.192 97.3261 129.316C97.213 129.439 97.1262 129.584 97.0708 129.74C97.0154 129.897 96.9925 130.063 97.0034 130.228ZM125.6 160.269C125.106 159.84 124.523 159.522 123.89 159.336C123.257 159.151 122.59 159.102 121.936 159.194C121.932 159.844 122.076 160.487 122.356 161.078C122.636 161.668 123.046 162.191 123.557 162.609C124.052 163.036 124.636 163.354 125.268 163.542C125.9 163.73 126.566 163.784 127.221 163.7C127.227 163.044 127.085 162.396 126.805 161.8C126.525 161.204 126.113 160.676 125.6 160.253V160.269ZM72.3302 127.066C72.5687 127.153 72.8281 127.168 73.0756 127.11C73.3231 127.053 73.5474 126.924 73.7198 126.742C73.8922 126.559 74.0049 126.331 74.0435 126.085C74.0821 125.84 74.045 125.589 73.9367 125.364C73.8285 125.14 73.6541 124.952 73.4357 124.824C73.2174 124.697 72.9651 124.635 72.711 124.648C72.4569 124.661 72.2124 124.748 72.0089 124.897C71.8054 125.046 71.652 125.25 71.5683 125.485C71.4685 125.787 71.492 126.115 71.634 126.401C71.7759 126.686 72.0253 126.908 72.3302 127.019V127.066ZM131.371 132.837C121.388 138.008 110.326 141.063 99.046 141.77C80.3546 143.051 58.2752 132.884 55.7139 131.272L54.3035 133.201C54.3035 133.201 75.0536 145.628 99.046 144.268C114.868 143.32 125.438 139.003 131.371 135.699V132.837ZM72.1681 122.402C72.2653 122.092 72.2372 121.758 72.0896 121.469C71.942 121.179 71.6861 120.955 71.3746 120.844C71.063 120.732 70.7196 120.742 70.4149 120.87C70.1102 120.998 69.8674 121.235 69.7364 121.532C69.6346 121.841 69.6567 122.176 69.7981 122.469C69.9395 122.763 70.1897 122.993 70.4984 123.113C70.8167 123.233 71.1704 123.225 71.4829 123.092C71.7955 122.959 72.0416 122.711 72.1681 122.402ZM128.583 49.8615L128.696 50.067C129.576 50.1047 130.515 50.2431 131.371 50.4473V49.1052C130.43 49.2273 129.448 49.4803 128.583 49.8615ZM74.0647 87.0645C72.5072 94.367 70.5648 101.586 68.245 108.694C68.9573 109.435 69.895 109.934 70.9199 110.117C72.93 103.95 74.0323 88.2029 74.0323 88.2029L74.0647 87.0645ZM68.245 124.188C68.3509 123.88 68.3308 123.543 68.1889 123.249C68.047 122.955 67.7942 122.725 67.4831 122.607C67.1666 122.508 66.8233 122.53 66.5225 122.667C66.2216 122.805 65.9856 123.049 65.862 123.35C65.7416 123.665 65.7543 124.013 65.8971 124.319C66.04 124.624 66.3015 124.862 66.6239 124.979C66.9464 125.096 67.3035 125.084 67.6166 124.945C67.9297 124.805 68.1733 124.55 68.2937 124.236L68.245 124.188ZM87.2444 126.465C87.2746 126.217 87.2286 125.965 87.1123 125.742C86.996 125.52 86.8146 125.335 86.591 125.213C86.3674 125.091 86.1116 125.036 85.8559 125.055C85.6003 125.074 85.3563 125.167 85.1547 125.322C84.9532 125.477 84.8032 125.686 84.7236 125.924C84.6441 126.161 84.6385 126.417 84.7078 126.658C84.777 126.898 84.9178 127.114 85.1125 127.277C85.3072 127.439 85.547 127.542 85.8016 127.572C86.1347 127.595 86.4643 127.493 86.7233 127.288C86.9823 127.082 87.1512 126.788 87.1957 126.465H87.2444ZM87.374 129.517C87.3438 129.765 87.3898 130.017 87.5061 130.239C87.6223 130.462 87.8038 130.647 88.0274 130.769C88.251 130.891 88.5068 130.946 88.7625 130.927C89.0181 130.907 89.2621 130.815 89.4636 130.66C89.6652 130.505 89.8152 130.296 89.8948 130.058C89.9743 129.82 89.9798 129.565 89.9106 129.324C89.8414 129.083 89.7005 128.868 89.5059 128.705C89.3112 128.543 89.0714 128.44 88.8168 128.41C88.6439 128.383 88.4671 128.391 88.2973 128.433C88.1275 128.474 87.9681 128.549 87.8287 128.653C87.6894 128.756 87.5729 128.886 87.4864 129.034C87.3999 129.183 87.3451 129.347 87.3254 129.517H87.374ZM83.8887 132.141C83.8552 132.39 83.8982 132.642 84.0123 132.867C84.1263 133.092 84.3062 133.278 84.5291 133.403C84.752 133.528 85.0079 133.585 85.2643 133.568C85.5207 133.55 85.766 133.459 85.9691 133.306C86.1722 133.152 86.324 132.943 86.4051 132.705C86.4862 132.467 86.493 132.211 86.4247 131.97C86.3564 131.728 86.216 131.512 86.0213 131.348C85.8267 131.184 85.5866 131.081 85.3314 131.05C84.9921 131.01 84.6501 131.102 84.3799 131.306C84.1097 131.511 83.9332 131.811 83.8887 132.141ZM68.3585 128.805C68.675 128.904 69.0183 128.883 69.3191 128.745C69.62 128.607 69.856 128.363 69.9796 128.062C70.0731 127.826 70.0921 127.569 70.0341 127.323C69.9761 127.076 69.8439 126.853 69.6544 126.68C69.4649 126.508 69.2268 126.395 68.9709 126.356C68.715 126.317 68.4529 126.353 68.2184 126.461C67.984 126.568 67.7879 126.742 67.6555 126.959C67.5231 127.176 67.4603 127.427 67.4754 127.679C67.4905 127.932 67.5826 128.174 67.74 128.374C67.8974 128.575 68.1128 128.725 68.3585 128.805ZM81.1976 128.805C81.1925 129.118 81.3064 129.421 81.5173 129.657C81.7282 129.893 82.0211 130.044 82.3395 130.081C82.6579 130.118 82.9792 130.039 83.2413 129.859C83.5035 129.679 83.6879 129.411 83.759 129.106C83.8094 128.93 83.8202 128.746 83.7908 128.566C83.7614 128.386 83.6924 128.214 83.5886 128.062C83.4848 127.911 83.3485 127.783 83.1893 127.687C83.03 127.592 82.8515 127.531 82.6659 127.509C82.4803 127.487 82.292 127.505 82.114 127.56C81.936 127.616 81.7724 127.709 81.6345 127.832C81.4965 127.955 81.3876 128.106 81.3149 128.274C81.2423 128.442 81.2078 128.623 81.2138 128.805H81.1976Z" fill="#C72F2A"/>
<path d="M125.5 93.3028C125.891 94.1257 126.266 94.8853 126.656 95.724C123.884 94.8196 121.166 93.7629 118.516 92.559C118.272 91.6887 118.044 90.8183 117.816 89.9479C120.316 91.1946 122.881 92.3144 125.5 93.3028ZM115.732 80.722C115.911 81.624 116.091 82.5577 116.286 83.4755C118.142 84.5833 120.275 85.7385 122.798 86.8937L121.723 84.1876C119.363 82.9533 117.393 81.8297 115.667 80.722H115.732ZM114.202 70.7523C114.321 71.7334 114.452 72.7304 114.593 73.7432C115.911 74.7718 117.393 75.8479 119.054 76.9082C118.712 75.8954 118.386 74.8509 118.077 73.7432C116.579 72.7778 115.228 71.7492 114.137 70.7523H114.202ZM113.242 59.7697C113.242 60.8142 113.372 61.9378 113.453 63.1088C114.186 63.8684 114.967 64.6913 115.846 65.4825C115.553 64.264 115.277 63.0139 115.032 61.7479C114.332 61.0674 113.73 60.4186 113.176 59.7697H113.242ZM113.128 57.3327C113.551 57.8602 114.007 58.3877 114.495 58.9152C113.925 55.7502 113.453 52.5852 113.111 49.2145C113.046 49.2461 112.883 52.2845 113.062 57.3327H113.128ZM114.837 75.8321C114.984 76.7816 115.146 77.7311 115.309 78.7122C116.937 79.7883 118.712 80.9277 120.779 82.0829C120.421 81.1334 120.079 80.1839 119.737 79.2028C117.914 78.0476 116.286 76.924 114.837 75.8321ZM113.6 65.4192C113.697 66.432 113.795 67.4765 113.909 68.5842C114.935 69.5021 116.074 70.4674 117.344 71.4644C117.035 70.3566 116.725 69.2331 116.432 68.0778C115.374 67.1283 114.43 66.2738 113.6 65.4192ZM125.419 111.312C125.799 112.082 126.19 112.857 126.591 113.638C127.959 113.891 129.57 114.128 131.378 114.318V112.182C129.115 111.929 127.112 111.596 125.387 111.248L125.419 111.312ZM131.378 121.408V119.351L129.75 119.161C130.189 119.905 130.645 120.648 131.117 121.376L131.378 121.408ZM127.454 115.284C127.867 116.043 128.29 116.803 128.724 117.562C129.505 117.673 130.352 117.768 131.378 117.863V115.711C129.88 115.569 128.577 115.41 127.422 115.22L127.454 115.284ZM87.3353 169.998C87.3353 169.998 86.8901 169.285 86.5535 169.019C86.0271 168.604 85.3641 168.387 84.6862 168.408C84.4286 168.415 84.1723 168.447 83.9211 168.503C84.225 168.275 84.4711 167.983 84.6405 167.648C84.8098 167.313 84.8979 166.945 84.8979 166.572C84.8431 165.864 84.5149 165.201 83.979 164.718C83.4431 164.235 82.7391 163.966 82.0081 163.966C81.2772 163.966 80.5732 164.235 80.0373 164.718C79.5014 165.201 79.1732 165.864 79.1184 166.572C79.1215 166.946 79.2126 167.315 79.3847 167.65C79.5569 167.984 79.8055 168.276 80.1115 168.503C79.8812 168.453 79.6471 168.421 79.4115 168.408C78.7426 168.385 78.0874 168.596 77.5648 169.003C77.147 169.328 76.8155 169.998 76.8155 169.998H75.6581L72.7366 154.166L76.7904 145.414C81.7063 146.579 86.7288 147.269 91.7843 147.472C91.3275 153.123 88.7641 169.998 88.7641 169.998H87.3353ZM88.1702 154.846C88.1203 154.04 87.7554 153.283 87.1501 152.73C86.5448 152.177 85.7449 151.869 84.9141 151.871C84.6069 151.875 84.3011 151.912 84.0025 151.982C84.3548 151.719 84.6406 151.381 84.8381 150.994C85.0357 150.608 85.1396 150.182 85.1421 149.75C85.0829 148.927 84.7048 148.156 84.0839 147.593C83.463 147.03 82.6455 146.717 81.7965 146.717C80.9475 146.717 80.13 147.03 79.5091 147.593C78.8882 148.156 78.5101 148.927 78.4509 149.75C78.4534 150.182 78.5573 150.608 78.7549 150.994C78.9524 151.381 79.2382 151.719 79.5905 151.982C79.2974 151.912 78.997 151.875 78.6951 151.871C78.2667 151.828 77.8337 151.873 77.4242 152.003C77.0148 152.133 76.6379 152.345 76.3181 152.625C75.9983 152.906 75.7426 153.248 75.5675 153.631C75.3925 154.013 75.3021 154.427 75.3021 154.846C75.3021 155.265 75.3925 155.679 75.5675 156.061C75.7426 156.444 75.9983 156.786 76.3181 157.067C76.6379 157.347 77.0148 157.559 77.4242 157.689C77.8337 157.819 78.2667 157.864 78.6951 157.821C79.2123 157.827 79.7242 157.72 80.1923 157.506C80.6605 157.292 81.0726 156.978 81.3976 156.587L79.0696 160.337H84.2955L82.0651 156.523C82.3935 156.915 82.8085 157.229 83.2793 157.443C83.75 157.657 84.2644 157.764 84.7839 157.758C85.6314 157.784 86.4559 157.488 87.0822 156.932C87.7085 156.377 88.0872 155.605 88.1376 154.783L88.1702 154.846ZM118.972 94.4422C119.216 95.2809 119.477 96.1355 119.754 96.99C122.693 98.1196 125.706 99.0605 128.773 99.8069C128.366 99.0631 127.975 98.2244 127.568 97.5122C124.644 96.6523 121.774 95.6272 118.972 94.4422ZM105.388 169.998C105.367 169.922 105.342 169.848 105.312 169.774C105.198 169.489 105.023 169.231 104.798 169.017C104.573 168.802 104.304 168.637 104.008 168.532C103.712 168.427 103.397 168.385 103.083 168.408C102.825 168.407 102.567 168.439 102.318 168.503C102.638 168.294 102.91 168.023 103.117 167.707C103.324 167.391 103.462 167.037 103.522 166.667C103.561 166.346 103.525 166.02 103.416 165.714C103.307 165.408 103.129 165.13 102.894 164.9C102.659 164.67 102.374 164.495 102.06 164.387C101.746 164.28 101.411 164.242 101.08 164.278C100.347 164.285 99.638 164.533 99.0677 164.981C98.4975 165.429 98.0995 166.051 97.9382 166.746C97.8869 167.08 97.9243 167.421 98.0468 167.737C98.1694 168.053 98.373 168.333 98.6383 168.55C98.3948 168.525 98.1492 168.525 97.9057 168.55C97.2088 168.556 96.5323 168.779 95.9755 169.187C95.6674 169.412 95.1983 169.998 95.1983 169.998H94.0654L100.445 147.361C107.989 146.862 115.425 145.344 122.537 142.851L107.096 169.998C107.096 169.998 106.81 169.998 105.388 169.998ZM108.553 161.556L106.729 157.536C107.046 157.952 107.462 158.286 107.941 158.51C108.421 158.733 108.949 158.839 109.481 158.818C110.426 158.818 111.343 158.504 112.081 157.929C112.818 157.353 113.331 156.55 113.535 155.653C113.594 155.224 113.55 154.787 113.407 154.377C113.264 153.967 113.026 153.594 112.711 153.288C112.396 152.982 112.013 152.751 111.591 152.612C111.169 152.473 110.72 152.431 110.279 152.488C109.949 152.503 109.622 152.551 109.302 152.631C109.726 152.361 110.089 152.01 110.369 151.599C110.649 151.188 110.84 150.726 110.93 150.241C110.989 149.819 110.949 149.389 110.812 148.984C110.675 148.579 110.444 148.21 110.138 147.904C109.832 147.599 109.458 147.366 109.045 147.222C108.632 147.079 108.191 147.029 107.755 147.076C106.806 147.069 105.884 147.38 105.143 147.957C104.401 148.533 103.887 149.34 103.685 150.241C103.617 150.677 103.665 151.123 103.825 151.535C103.984 151.948 104.25 152.314 104.597 152.599C104.283 152.521 103.96 152.484 103.636 152.488C102.687 152.482 101.765 152.793 101.024 153.369C100.283 153.945 99.768 154.752 99.5662 155.653C99.5038 156.083 99.545 156.521 99.6866 156.933C99.8282 157.344 100.066 157.718 100.382 158.025C100.698 158.332 101.083 158.563 101.506 158.701C101.93 158.839 102.38 158.879 102.822 158.818C103.407 158.808 103.983 158.683 104.518 158.452C105.052 158.221 105.533 157.888 105.932 157.473L102.969 161.54L108.553 161.556ZM130.938 103.731L129.701 101.532C126.527 100.795 123.401 99.8757 120.34 98.7782C120.616 99.617 120.909 100.361 121.219 101.279C124.398 102.308 127.645 103.127 130.938 103.731ZM116.644 85.422C116.839 86.3082 117.051 87.2102 117.263 88.1122C119.655 89.3371 122.112 90.441 124.621 91.4196C124.247 90.5809 123.872 89.7422 123.498 88.8718C120.893 87.7008 118.63 86.5456 116.644 85.422ZM121.854 103.019C122.179 103.842 122.489 104.602 122.831 105.472C125.631 106.219 128.507 106.824 131.378 107.248V105.246C128.168 104.692 124.966 103.962 121.854 103.019ZM29.2938 169.998C29.2938 169.143 29.285 168.914 29.171 168.044C28.431 168.858 28.1641 169.064 27.5938 169.998H29.2938ZM112.981 38.4061C109.494 36.7993 105.676 35.9857 101.817 36.0268C97.9584 36.0679 94.1599 36.9628 90.7099 38.6434C97.5637 37.0219 104.78 37.6966 111.19 40.5583C118.94 44.1663 127.503 57.8627 131.378 64.4934V57.6576C128.17 52.0714 121.577 42.2199 112.981 38.4061ZM123.547 107.181C123.889 107.973 124.231 108.764 124.605 109.571C126.829 110.071 129.112 110.455 131.378 110.725V108.693C128.752 108.322 126.117 107.822 123.547 107.181ZM128.333 41.9192C126.505 41.8817 124.73 42.5209 123.368 43.7074C124.068 44.4037 124.703 45.1 125.289 45.7488C126.759 44.886 127.845 43.5201 128.333 41.9192ZM129.359 51.2559C130.073 52.0824 130.768 53.2787 131.378 54.1809V51.7949C130.746 51.5305 130.043 51.364 129.359 51.3034V51.2559ZM126.201 30.3828C122.782 35.2252 120.095 38.137 118.793 39.8778L119.428 40.3367C123.01 38.3176 127.249 37.2248 131.378 37.5222V34.3492L126.201 30.3828ZM106.664 114.097C111.74 112.62 116.527 110.331 120.828 107.324C119.9 105.266 118.223 99.8702 118.223 99.8702C115.917 105.636 111.878 110.594 106.632 114.097H106.664ZM130.271 47.5212C130.612 47.5212 131.019 47.5529 131.378 47.5212V45.4549C131.378 46.2482 130.66 46.9869 130.271 47.5212ZM75.9438 104.127L74.5274 111.438C77.4162 112.776 80.5039 113.663 83.6768 114.065C80.2497 111.467 77.5834 108.04 75.9438 104.127ZM48.0071 146.854C47.6951 146.651 47.3205 146.559 46.9466 146.594C46.5728 146.628 46.2228 146.788 45.9558 147.044L43.237 149.814C43.1255 149.898 43.0352 150.006 42.9731 150.129C42.9109 150.253 42.8787 150.388 42.8787 150.526C42.8787 150.663 42.9109 150.799 42.9731 150.922C43.0352 151.046 43.1255 151.154 43.237 151.238C43.3272 151.344 43.4403 151.429 43.5684 151.488C43.6964 151.547 43.8362 151.577 43.9778 151.577C44.1194 151.577 44.2592 151.547 44.3872 151.488C44.5153 151.429 44.6284 151.344 44.7185 151.238L48.1536 148.785C48.1536 148.785 49.0979 147.661 48.0071 146.918V146.854ZM34.983 162.948C33.5533 165.325 32.662 167.273 32.253 169.998H36.056C36.6361 167.403 36.2143 165.366 34.9505 163.012L34.983 162.948ZM103.832 117.436C103.39 117.549 102.977 117.748 102.616 118.02C102.255 118.291 101.954 118.631 101.732 119.018C101.363 118.633 100.897 118.348 100.38 118.193C99.8628 118.037 99.3128 118.016 98.7848 118.132C97.9776 118.305 97.2645 118.761 96.7823 119.414C96.5143 119.011 96.1482 118.68 95.7165 118.448C95.2849 118.216 94.8009 118.091 94.3078 118.085C93.4017 118.076 92.5292 118.418 91.882 119.034C91.6464 118.591 91.2986 118.213 90.8714 117.936C90.4443 117.659 89.9517 117.493 89.44 117.452C88.9594 117.404 88.474 117.458 88.0163 117.608C87.5586 117.758 87.1392 118.001 86.7864 118.322C86.5554 117.888 86.2174 117.516 85.8027 117.24C85.3879 116.964 84.9093 116.792 84.4095 116.74C83.9634 116.683 83.5101 116.714 83.0766 116.83C82.6431 116.947 82.2382 117.148 81.886 117.42C81.7128 116.886 81.3891 116.411 80.9517 116.047C80.5142 115.683 79.9806 115.446 79.4115 115.363C78.9756 115.292 78.5295 115.305 78.0991 115.403C77.6687 115.501 77.2626 115.681 76.9043 115.932C76.7623 115.44 76.4911 114.991 76.1173 114.63C75.7435 114.27 75.2798 114.01 74.7716 113.875C74.3295 113.751 73.8658 113.716 73.4092 113.773C72.9527 113.83 72.5132 113.978 72.118 114.208C72.008 113.715 71.771 113.257 71.4293 112.878C71.0875 112.499 70.6523 112.21 70.1644 112.04C69.4728 111.824 68.7315 111.81 68.0316 111.998C67.3317 112.186 66.7037 112.569 66.2246 113.1C66.1615 113.172 66.1136 113.255 66.0835 113.344C66.0535 113.434 66.0419 113.529 66.0495 113.623C66.057 113.717 66.0836 113.808 66.1276 113.892C66.1716 113.976 66.2322 114.051 66.306 114.113C66.4549 114.236 66.6484 114.298 66.8438 114.283C66.9405 114.275 67.0349 114.25 67.1214 114.207C67.2078 114.164 67.2848 114.105 67.3479 114.033C67.631 113.725 67.999 113.501 68.4086 113.389C68.8183 113.277 69.2524 113.281 69.6597 113.4C70.9295 113.828 70.783 115.505 70.783 115.569V115.758C70.783 115.758 70.783 115.758 70.783 115.853V115.964C70.8676 116.078 70.9793 116.17 71.1086 116.233H71.2388H71.3365C71.4526 116.233 71.5671 116.208 71.6715 116.158C71.7758 116.109 71.8673 116.037 71.9389 115.948C72.1982 115.619 72.5488 115.368 72.9496 115.225C73.3503 115.082 73.7847 115.053 74.2018 115.141C75.488 115.489 75.4717 117.167 75.4717 117.23C75.4527 117.394 75.4925 117.558 75.5843 117.697C75.6762 117.835 75.8144 117.938 75.9755 117.988C76.1366 118.038 76.3106 118.033 76.4681 117.973C76.6255 117.912 76.7567 117.801 76.8392 117.657C77.058 117.298 77.3783 117.007 77.7621 116.819C78.1458 116.631 78.577 116.554 79.0045 116.597C80.1278 116.771 80.4208 117.99 80.5022 118.401C80.4617 118.497 80.4438 118.601 80.4499 118.705C80.456 118.809 80.4859 118.91 80.5374 119.001C80.5889 119.092 80.6608 119.17 80.7476 119.231C80.8345 119.292 80.9342 119.332 81.0395 119.351C81.1249 119.395 81.2185 119.422 81.3147 119.431C81.411 119.439 81.5081 119.429 81.6004 119.401C81.6928 119.373 81.7785 119.328 81.8526 119.268C81.9268 119.207 81.988 119.133 82.0326 119.05C82.239 118.687 82.5477 118.388 82.9225 118.189C83.2974 117.99 83.7228 117.899 84.149 117.926C85.4839 118.085 85.777 119.746 85.777 119.81C85.8004 119.983 85.8874 120.143 86.0219 120.259C86.1565 120.375 86.3296 120.44 86.5096 120.443H86.6073C86.7767 120.419 86.9329 120.34 87.0509 120.22C87.169 120.099 87.2421 119.944 87.2585 119.778C87.4628 119.466 87.7476 119.211 88.0846 119.039C88.4216 118.867 88.7991 118.783 89.1795 118.797C90.4982 118.908 90.8075 120.569 90.8075 120.632C90.8005 120.664 90.8005 120.696 90.8075 120.727V120.822H90.9052C91.0349 120.892 91.1802 120.93 91.3285 120.933H91.4262C91.5851 120.907 91.7324 120.835 91.8495 120.727L91.9309 120.632V120.538C92.0993 120.156 92.3752 119.829 92.7266 119.594C93.0781 119.359 93.4907 119.225 93.917 119.208C95.252 119.208 95.6753 120.791 95.6916 120.933C95.7079 121.076 95.6916 120.933 95.6916 121.012C95.7176 121.161 95.7915 121.298 95.9027 121.403C96.0139 121.508 96.1566 121.576 96.3102 121.598H96.4242C96.5994 121.597 96.7686 121.536 96.9025 121.426C97.0363 121.316 97.1263 121.164 97.1568 120.996C97.2192 120.578 97.4069 120.187 97.6964 119.872C97.9859 119.557 98.3644 119.332 98.7848 119.224C99.8919 118.971 100.641 119.999 100.852 120.348C100.867 120.517 100.941 120.676 101.063 120.797C101.185 120.918 101.346 120.994 101.52 121.012C101.703 121.013 101.88 120.947 102.016 120.827C102.152 120.706 102.236 120.541 102.252 120.363C102.303 119.952 102.475 119.563 102.746 119.244C103.017 118.924 103.377 118.687 103.783 118.559C105.085 118.227 105.932 119.683 105.964 119.746C106.06 119.913 106.22 120.036 106.409 120.09C106.598 120.143 106.801 120.122 106.974 120.031C107.093 119.968 107.191 119.874 107.258 119.759C107.324 119.645 107.355 119.514 107.348 119.382C107.339 118.966 107.454 118.556 107.679 118.202C107.905 117.849 108.231 117.566 108.618 117.388C109.027 117.28 109.46 117.296 109.859 117.435C110.258 117.574 110.603 117.828 110.848 118.164C110.888 118.319 110.981 118.456 111.111 118.553C111.241 118.651 111.401 118.703 111.565 118.702C111.76 118.69 111.944 118.603 112.074 118.461C112.205 118.319 112.274 118.133 112.265 117.942C112.334 117.524 112.529 117.134 112.824 116.822C113.119 116.51 113.502 116.289 113.925 116.186C115.146 115.632 116.237 116.929 116.286 116.993C116.387 117.114 116.526 117.2 116.682 117.237C116.837 117.274 117.002 117.261 117.149 117.198H117.295C117.479 117.137 117.629 117.008 117.715 116.839C117.8 116.67 117.813 116.475 117.751 116.296C117.621 115.899 117.61 115.473 117.72 115.07C117.83 114.666 118.055 114.301 118.37 114.018C119.395 113.195 120.796 114.16 120.861 114.192C120.938 114.249 121.026 114.291 121.12 114.314C121.214 114.337 121.312 114.341 121.408 114.327C121.504 114.312 121.596 114.278 121.678 114.228C121.76 114.177 121.831 114.111 121.886 114.033C121.947 113.958 121.991 113.872 122.016 113.78C122.041 113.688 122.047 113.591 122.034 113.497C122.02 113.402 121.987 113.312 121.936 113.23C121.886 113.148 121.819 113.077 121.74 113.021C121.126 112.558 120.377 112.298 119.601 112.278C118.825 112.258 118.063 112.48 117.426 112.91C117.083 113.173 116.798 113.501 116.588 113.873C116.379 114.246 116.248 114.655 116.205 115.078C115.775 114.815 115.286 114.661 114.78 114.628C114.274 114.594 113.768 114.684 113.307 114.888C112.895 115.067 112.524 115.324 112.216 115.645C111.909 115.966 111.671 116.343 111.516 116.755C111.088 116.431 110.58 116.221 110.043 116.149C109.505 116.077 108.957 116.144 108.455 116.344C108.043 116.5 107.666 116.734 107.347 117.033C107.029 117.332 106.774 117.689 106.599 118.085C106.23 117.762 105.783 117.533 105.3 117.42C104.817 117.307 104.312 117.312 103.832 117.436ZM51.1166 158.407C51.0946 158.044 50.9451 157.7 50.6931 157.432C50.4412 157.164 50.1021 156.989 49.7328 156.935L45.8093 156.492C45.6733 156.456 45.5309 156.451 45.3925 156.476C45.254 156.5 45.123 156.555 45.0091 156.635C44.8951 156.716 44.8011 156.82 44.734 156.94C44.6668 157.06 44.6282 157.194 44.6209 157.331C44.5845 157.464 44.5789 157.603 44.6044 157.738C44.6299 157.874 44.6859 158.002 44.7683 158.114C44.8508 158.226 44.9577 158.318 45.0814 158.386C45.205 158.453 45.3424 158.492 45.4837 158.502L49.6677 159.657C49.6677 159.657 51.1655 159.72 51.1166 158.407ZM44.6046 154.166C44.636 154.299 44.6973 154.425 44.7842 154.533C44.871 154.641 44.9813 154.729 45.1072 154.791C45.2331 154.853 45.3715 154.887 45.5126 154.891C45.6536 154.895 45.7938 154.869 45.9233 154.814L50.2049 154.055C50.2049 154.055 51.5562 153.453 50.9213 152.298C50.7342 151.983 50.441 151.74 50.091 151.61C49.7411 151.48 49.3558 151.472 49.0002 151.586L45.2883 152.884C45.1506 152.914 45.0216 152.973 44.9106 153.058C44.7997 153.142 44.7097 153.25 44.6472 153.373C44.5847 153.496 44.5514 153.631 44.5497 153.768C44.5479 153.905 44.5778 154.041 44.6371 154.166H44.6046ZM43.351 161.587L46.607 164.436C46.607 164.436 47.9094 165.132 48.4792 163.945C48.6104 163.615 48.624 163.252 48.5177 162.913C48.4115 162.575 48.1916 162.281 47.8932 162.078L44.6371 159.989C44.5341 159.895 44.4102 159.825 44.2749 159.784C44.1397 159.743 43.9967 159.733 43.8568 159.755C43.717 159.776 43.584 159.828 43.4682 159.907C43.3523 159.986 43.2565 160.09 43.1882 160.211C43.1011 160.311 43.0366 160.428 42.999 160.553C42.9614 160.679 42.9514 160.812 42.9699 160.941C42.9883 161.071 43.0347 161.196 43.1059 161.307C43.1772 161.419 43.2718 161.514 43.3836 161.587H43.351Z" fill="#F4C900"/>
</g>
<path d="M36.4608 86.537C35.5377 86.537 34.6146 86.6908 33.6916 86.9985C35.3839 85.46 36.4608 83.46 36.4608 81.1523C36.4608 76.6908 32.6146 73.1523 27.9992 73.1523C23.3839 73.1523 19.5377 76.8447 19.5377 81.1523C19.5377 83.46 20.6146 85.6139 22.3069 86.9985C21.3839 86.6908 20.6146 86.537 19.5377 86.537C14.9223 86.537 11.0762 90.0754 11.0762 94.537C11.0762 98.9985 14.9223 102.537 19.5377 102.537C22.9223 102.537 25.6916 100.691 27.0762 98.0754C26.9223 100.383 26.1531 103.922 23.8454 106.229C23.5377 106.537 23.6916 106.845 24.1531 106.845H27.9992H31.8454C32.1531 106.845 32.3069 106.383 32.1531 106.229C29.8454 103.922 29.0762 100.537 28.9223 98.0754C30.3069 100.691 33.23 102.537 36.4608 102.537C41.0762 102.537 44.9223 98.9985 44.9223 94.537C44.9223 90.2293 41.0762 86.537 36.4608 86.537Z" fill="#24242E"/>
<path d="M41.3166 68.514L37.6906 72.362L29.8466 64.666C29.2546 64.666 28.8846 64.74 27.9966 64.74C24.5186 64.74 18.3026 64.518 16.0086 58.228C15.4166 56.6 14.8246 54.528 14.8246 42.17C14.8246 37.878 14.8246 26.186 15.1946 22.56C15.4906 19.748 16.5266 10.942 28.4406 10.942C30.4386 10.942 35.1746 11.164 38.0606 14.864C40.4286 17.972 40.8726 21.894 40.8726 31.81C40.8726 36.546 40.6506 44.538 40.5026 48.46C40.2806 54.232 39.9846 60.226 34.8786 63.112L41.3166 68.514ZM21.4846 37.138C21.4846 47.942 21.4846 51.494 21.7066 53.418C21.8546 55.12 22.2986 59.412 27.7746 59.412C33.4726 59.412 33.7686 54.454 33.9166 51.05C34.0646 47.35 34.2126 40.838 34.2126 37.138C34.2126 34.4 34.2866 29.812 34.1386 24.854C34.0646 22.042 33.9166 16.418 28.1446 16.418C22.2986 16.418 21.9286 21.302 21.6326 24.78C21.4846 26.704 21.4846 28.628 21.4846 37.138Z" fill="#24242E"/>
<defs>
<linearGradient id="paint0_linear_324_104541" x1="92" y1="2" x2="92" y2="182" gradientUnits="userSpaceOnUse">
<stop stop-color="white" stop-opacity="0.85"/>
<stop offset="1" stop-color="white" stop-opacity="0.15"/>
</linearGradient>
<clipPath id="clip0_324_104541">
<rect width="120" height="165" fill="white" transform="translate(13 5)"/>
</clipPath>
</defs>
</svg>
