<svg width="184" height="184" viewBox="0 0 184 184" fill="none" xmlns="http://www.w3.org/2000/svg">
<rect x="1" y="1" width="182" height="182" rx="13" stroke="black" stroke-opacity="0.25" stroke-width="2"/>
<rect x="2.5" y="2.5" width="179" height="179" rx="11.5" fill="#E9E9E9" stroke="url(#paint0_linear_324_104573)"/>
<rect x="41.0449" y="30.5" width="101.909" height="123" rx="1.5" fill="#D7D5D7" stroke="#CDCFD6"/>
<g clip-path="url(#clip0_324_104573)">
<path d="M14.6211 165.201V156.994C32.6697 131.398 67.1292 118.088 74.2481 115.528L74.8806 115.304L74.3616 114.904C73.9206 114.576 73.5533 114.161 73.2827 113.685C73.0121 113.21 72.8441 112.685 72.7893 112.142C72.7344 111.6 72.7939 111.052 72.9641 110.534C73.1342 110.015 73.4113 109.537 73.7778 109.129C74.0493 108.72 74.2672 108.28 74.4265 107.817C74.5139 107.482 74.5214 107.131 74.4482 106.792C74.375 106.454 74.2233 106.136 74.0049 105.865C73.6597 105.394 73.4421 104.843 73.3724 104.266C73.3491 104.066 73.3704 103.864 73.4348 103.673C73.4993 103.482 73.6053 103.308 73.7454 103.162L73.8589 103.066L74.1508 102.842L73.94 102.554C73.3589 101.917 72.8927 101.186 72.5616 100.394V100.282C72.7757 99.3909 72.8846 98.4783 72.886 97.5625C72.886 96.6026 71.9941 95.9627 70.1778 95.4508C69.2123 95.2402 68.3586 94.6873 67.7787 93.8971C67.1989 93.1068 66.9331 92.1341 67.0319 91.1634C67.1616 88.5717 71.2643 83.1645 73.2427 80.6209C75.2211 78.0772 74.2968 76.2535 73.5833 74.3017V74.2217C72.9833 72.622 73.3076 67.6627 73.4697 65.6149V65.487L59.1833 42.0982V42.0022C58.9841 41.3774 58.9841 40.7073 59.1833 40.0825C59.2643 39.8745 59.3454 39.6506 61.3238 38.6587C62.313 38.1628 63.9995 37.3789 66.367 36.467C76.6592 32.9656 100.356 26.3594 131.378 34.9792V70.8782L130.648 70.7022L130.064 70.5583L130.194 71.1342C130.518 72.622 130.924 74.1098 131.378 75.5656V105.209H131.183L130.34 104.937L130.745 105.721C130.951 106.137 131.162 106.521 131.378 106.873V165.201C131.378 166.474 130.865 167.695 129.953 168.595C129.041 169.495 127.803 170 126.513 170H19.486C18.1957 170 16.9583 169.495 16.046 168.595C15.1336 167.695 14.6211 166.474 14.6211 165.201Z" fill="#E7E7E7"/>
<path d="M131.378 67.7065C123.464 65.7918 103.34 61.4199 98.9453 65.0897C99.1934 70.4145 100.379 75.6567 102.448 80.5828C104.996 85.8531 107.227 91.2662 109.129 96.7939C109.324 98.1183 109.389 98.6129 109.389 98.6129C109.193 98.0808 108.817 97.6315 108.323 97.3407C107.83 97.05 107.25 96.9358 106.68 97.0173C105.938 96.9917 105.198 97.1219 104.51 97.3993C103.822 97.6767 103.203 98.0949 102.692 98.6261C102.181 99.1573 101.791 99.7895 101.548 100.48C101.304 101.171 101.213 101.905 101.28 102.634C101.589 106.671 106.891 107.995 109.794 106.83C109.794 106.83 110.556 113.962 116.507 116.244C121.325 117.817 126.318 118.808 131.378 119.196V67.7065Z" fill="#F4C900"/>
<path d="M115.889 164.502L118.415 166.992V170.088H113.411V167.008L115.889 164.502ZM130.205 97.9197C129.782 98.1089 129.418 98.4077 129.153 98.7842C128.887 99.1607 128.731 99.601 128.699 100.058C128.705 100.614 128.869 101.157 129.172 101.625C129.476 102.094 129.907 102.469 130.416 102.708C130.571 102.788 130.733 102.852 130.902 102.899C131.001 103.018 131.255 103.258 131.371 103.362V101.878L130.918 101.734C130.603 101.591 130.333 101.368 130.137 101.087C129.94 100.806 129.824 100.479 129.8 100.138C129.808 99.8818 129.885 99.6321 130.025 99.4158C130.165 99.1994 130.361 99.0244 130.594 98.9092C130.702 98.8605 130.823 98.8498 130.938 98.8789C131.053 98.9079 131.3 99.1019 131.371 99.1957V97.9357C131.035 97.8428 130.531 97.8117 130.205 97.9357V97.9197ZM123.581 167.008V170H126.513C127.305 169.994 127.805 169.963 128.634 169.523V167.008L126.108 164.502L123.581 167.008ZM129.606 148.91C130.212 147.941 130.899 146.921 131.371 145.882V165.327C131.38 165.227 131.38 165.428 131.371 165.327L127.565 161.997H124.747L120.99 165.619L117.314 161.997H114.447L110.723 165.683L106.933 161.997H104.18L100.455 165.986V167.008L102.188 169.13V167.694L105.427 164.502L108.018 167.056V170.088H43.2378C47.1032 162.37 48.819 153.778 48.2096 145.191C46.9216 145.786 45.7444 146.589 44.7277 147.569C44.8296 155.434 42.8658 163.192 39.027 170.088H19.4796C18.1911 170.088 16.9553 169.584 16.0441 168.686C15.133 167.788 14.6211 166.57 14.6211 165.3V156.523C32.9539 130.988 67.7085 117.677 74.057 115.411C73.6862 115.135 73.3634 114.8 73.1014 114.422C72.5805 113.629 72.3281 112.693 72.3805 111.75C72.4329 110.806 72.7873 109.904 73.393 109.171C73.643 108.79 73.8494 108.384 74.0084 107.958C74.0654 107.679 74.0587 107.391 73.9887 107.115C73.9186 106.839 73.7871 106.582 73.6035 106.362C73.215 105.797 72.9808 105.143 72.9233 104.463C72.8944 104.211 72.923 103.955 73.007 103.715C73.0911 103.475 73.2284 103.256 73.4092 103.075C73.4556 103.024 73.5103 102.98 73.5711 102.947C73.1338 102.372 71.9516 100.761 72.1297 100.457C72.1373 100.426 72.1373 100.393 72.1297 100.362C72.3307 99.5027 72.4393 98.6254 72.4536 97.7442C72.4536 97.2654 72.1621 96.5632 70.0082 95.9887C68.9611 95.7597 68.0354 95.1608 67.4058 94.3052C66.7763 93.4496 66.4864 92.3963 66.591 91.3445C66.7206 88.6474 70.8665 83.2371 72.8585 80.6357C74.478 78.4334 73.8788 76.598 73.15 74.6669V74.5871C72.5508 72.9912 72.8423 68.0917 73.0367 65.8414L58.785 42.6365V42.4928C58.5693 41.7904 58.5693 41.0408 58.785 40.3383C58.8984 40.0351 58.9956 39.7957 61.0847 38.7424C62.105 38.2317 63.7893 37.4497 66.17 36.524C76.1623 32.6619 100.763 25.8863 131.371 35.0629V71.7035L130.4 71.3793C130.626 72.3688 131.047 73.7601 131.371 74.8772V78.0509C130.537 75.7306 129.715 73.4691 129.201 71.0601L127.582 70.6611C128.508 74.48 129.819 78.402 131.371 82.018V85.1917C129.279 80.572 127.587 75.2748 126.448 70.342L124.828 69.9908C125.444 73.2631 126.377 76.4697 127.614 79.5665C128.926 82.8701 130.205 85.6629 131.371 88.1367V90.7699L130.626 89.174C129.46 86.6844 128.003 83.5723 126.578 79.9974C125.27 76.7042 124.289 73.2944 123.646 69.8153L122.027 69.4961C123.203 75.2681 125.152 80.8604 127.825 86.1258C129.007 88.6793 130.335 91.2542 131.371 93.9194V97.0931C131.012 97.0948 130.508 96.9216 130.157 96.9941C129.495 97.2308 128.925 97.6661 128.527 98.2386C128.129 98.8111 127.923 99.4922 127.938 100.186C127.858 101.143 128.102 102.099 128.633 102.905C129.163 103.711 129.95 104.321 130.869 104.639H131.371V105.868H130.918L131.371 106.614V108.644C130.675 107.559 129.914 106.33 129.347 105.229C129.354 105.198 129.354 105.165 129.347 105.133C128.348 104.52 127.589 103.592 127.193 102.5C126.956 102.856 126.691 103.192 126.399 103.506C127.5 105.917 128.933 108.167 130.659 110.193C130.838 109.981 131.152 109.753 131.371 109.582V111.086C131.226 111.345 131.008 111.753 130.95 112.044C130.781 112.924 131.023 113.898 131.371 114.725V116.163C131.164 116.03 130.818 115.852 130.626 115.698C130.556 115.665 130.495 115.616 130.448 115.555C127.209 112.922 124.116 107.256 123.241 105.58C122.77 105.768 122.282 105.912 121.784 106.011C121.973 106.556 122.195 107.088 122.448 107.607C122.885 107.743 123.313 107.908 123.727 108.102C124.677 108.69 125.42 109.553 125.855 110.572C126.29 111.592 126.395 112.719 126.156 113.799C126.089 114.118 125.986 114.429 125.849 114.725C127.331 116.332 129.317 117.73 131.371 118.516V143.087C130.664 144.879 129.68 146.664 128.715 148.335C128.677 148.396 128.651 148.464 128.639 148.534C128.627 148.605 128.629 148.677 128.646 148.747C128.662 148.817 128.693 148.883 128.735 148.941C128.778 148.999 128.832 149.048 128.893 149.085C128.979 149.146 129.08 149.179 129.185 149.181C129.272 149.172 129.356 149.143 129.429 149.096C129.502 149.049 129.563 148.985 129.606 148.91ZM125.476 104.224C125.077 104.57 124.643 104.875 124.181 105.133C125.725 108.091 127.593 110.874 129.752 113.432C129.67 112.903 129.67 112.365 129.752 111.836C129.8 111.579 129.876 111.328 129.978 111.086C128.16 109.021 126.659 106.703 125.525 104.208L125.476 104.224ZM119.5 69.1131C120.121 72.7319 121.119 76.2778 122.48 79.6941C123.889 83.2531 125.266 86.2056 126.497 88.8069C127.762 91.1206 128.803 93.5465 129.606 96.0525L129.995 95.9408C130.271 95.8761 130.553 95.8334 130.837 95.8131C129.703 92.6212 128.278 89.573 126.901 86.5726C124.375 81.0347 121.768 75.4011 120.877 69.2567L119.5 69.1131ZM117.217 68.6822C117.84 72.4473 118.86 76.138 120.261 79.6941C121.719 83.3808 123.193 86.429 124.391 88.8708C125.634 91.0854 126.607 93.4371 127.29 95.877C127.482 96.3955 127.629 96.9295 127.727 97.4729C127.953 97.1578 128.22 96.8734 128.521 96.627C127.814 94.0634 126.82 91.5851 125.557 89.2379C124.391 86.7482 122.934 83.6361 121.508 80.0612C120.072 76.4568 119.03 72.7118 118.399 68.8896L117.217 68.6822ZM114.334 68.1555C115.597 75.6883 118.691 82.519 121.946 89.7007L123.403 92.8925L123.662 93.483C124.747 95.8769 126.367 99.2923 124.456 102.261C124.096 102.826 123.604 103.298 123.021 103.637C122.437 103.976 121.78 104.172 121.104 104.208H120.925C120.41 104.216 119.901 104.103 119.439 103.878C118.977 103.653 118.576 103.323 118.269 102.915C118.102 102.865 117.94 102.801 117.784 102.724C117.276 102.484 116.848 102.108 116.547 101.64C116.246 101.171 116.086 100.629 116.083 100.074C116.112 99.6182 116.265 99.1784 116.528 98.8017C116.79 98.425 117.151 98.1257 117.573 97.9357C117.846 97.8387 118.14 97.8157 118.425 97.8691C118.71 97.9224 118.975 98.0501 119.193 98.2389C119.249 98.2862 119.296 98.3442 119.329 98.4096C119.362 98.475 119.382 98.5463 119.386 98.6193C119.391 98.6924 119.381 98.7655 119.356 98.8345C119.331 98.9035 119.292 98.9667 119.242 99.0206C119.192 99.0744 119.131 99.1177 119.063 99.1478C118.996 99.1779 118.923 99.1942 118.848 99.1957C118.774 99.1972 118.7 99.1839 118.632 99.1567C118.563 99.1294 118.5 99.0886 118.448 99.0369C118.365 98.9859 118.27 98.9589 118.172 98.9589C118.075 98.9589 117.979 98.9859 117.897 99.0369C117.664 99.1521 117.468 99.3271 117.328 99.5435C117.188 99.7598 117.111 100.009 117.103 100.266C117.127 100.606 117.243 100.934 117.44 101.215C117.637 101.496 117.906 101.719 118.221 101.862C118.547 102.044 118.924 102.119 119.297 102.076C119.67 102.033 120.019 101.874 120.294 101.622C120.688 101.16 120.966 100.613 121.104 100.025C121.242 99.4366 121.236 98.8245 121.087 98.2389C120.692 97.685 120.123 97.2742 119.467 97.0695C118.812 96.8649 118.107 96.8776 117.46 97.1058C116.797 97.344 116.227 97.779 115.826 98.3509C115.426 98.9227 115.216 99.603 115.225 100.298C115.188 101.245 115.465 102.177 116.014 102.955C116.564 103.733 117.356 104.312 118.269 104.607C119.043 104.921 119.874 105.073 120.711 105.054C121.547 105.034 122.37 104.844 123.128 104.495C124.604 103.842 125.814 102.717 126.561 101.303C127.031 99.5872 126.952 97.7703 126.335 96.1004C126.335 96.1004 126.335 96.1004 126.335 96.0206C125.677 93.6503 124.742 91.3634 123.549 89.2059C122.351 86.7482 120.877 83.684 119.403 79.9655C117.878 76.2213 116.791 72.3179 116.164 68.3311L114.334 68.1555ZM120.602 106.219H120.537C120.036 106.214 119.537 106.16 119.047 106.059C119.29 106.618 119.549 107.208 119.743 107.655C120.19 107.526 120.656 107.477 121.12 107.511C120.99 107.049 120.828 106.634 120.65 106.123L120.602 106.219ZM117.006 110.623L117.136 110.256C115.869 108.457 114.866 106.491 114.156 104.415C113.794 105.003 113.353 105.54 112.844 106.011C113.719 108.198 115.371 111.741 116.731 112.746L117.055 112.985C116.751 112.193 116.751 111.32 117.055 110.528L117.006 110.623ZM117.67 109.155C117.942 108.732 118.294 108.363 118.707 108.07C118.334 107.32 117.816 106.123 117.605 105.628C116.524 105.162 115.622 104.368 115.03 103.362C115.704 105.355 116.606 107.267 117.719 109.059L117.67 109.155ZM111.629 67.6608C112.226 71.7677 113.314 75.7908 114.868 79.6463C116.277 83.2052 117.67 86.1577 118.901 88.7591C120.187 91.1867 121.203 93.7445 121.93 96.3876C122.075 96.8505 123.225 100.649 121.12 102.388C120.819 102.649 120.466 102.844 120.083 102.963C120.398 103.081 120.735 103.13 121.071 103.107C121.567 103.088 122.05 102.95 122.479 102.705C122.908 102.46 123.27 102.116 123.533 101.702C125.152 99.2444 123.776 96.2919 122.723 93.9299C122.626 93.7224 122.545 93.515 122.464 93.3235L121.006 90.1316C117.654 82.7583 114.528 75.7681 113.249 67.948L111.629 67.6608ZM109.022 67.2777C109.573 73.9168 112.423 80.141 115.176 86.1736C116.618 89.3655 118.124 92.5574 119.29 95.8929C119.796 95.9646 120.284 96.1269 120.731 96.3717C120.002 93.9017 119.031 91.5072 117.832 89.2219C116.65 86.7322 115.192 83.6201 113.783 80.0452C112.188 76.0043 111.101 71.7863 110.544 67.4852L109.022 67.2777ZM106.593 66.9426C107.127 71.3152 108.215 75.6045 109.832 79.7101C111.241 83.269 112.634 86.2215 113.864 88.8229C115.087 91.1715 116.079 93.6298 116.828 96.1642L117.233 96.0525C117.51 95.9878 117.791 95.9451 118.075 95.9248C116.941 92.7329 115.516 89.6847 114.14 86.6844C111.306 80.4921 108.374 74.0924 107.872 67.182L106.593 66.9426ZM104.245 66.6394C104.957 73.0231 108.633 83.3169 111.872 89.4772C113.287 92.0972 114.296 94.9104 114.868 97.824C115.136 97.384 115.475 96.9904 115.873 96.659C115.151 94.1002 114.157 91.6235 112.909 89.2698C111.743 86.7801 110.285 83.668 108.86 80.0931C107.149 75.8369 106.012 71.3782 105.475 66.8309L104.245 66.6394ZM101.929 66.384C102.026 71.1718 104.261 78.194 108.569 87.4664V87.5621C109.832 90.5604 110.914 93.63 111.808 96.7547V96.9143C111.808 96.9143 113.038 101.112 111.468 103.681C110.988 104.361 110.337 104.907 109.579 105.265C108.821 105.623 107.982 105.781 107.143 105.724C106.456 105.713 105.786 105.509 105.212 105.136C104.639 104.763 104.185 104.236 103.904 103.617C103.457 102.844 103.336 101.927 103.57 101.067C103.803 100.206 104.372 99.4711 105.151 99.0209C105.276 98.9592 105.418 98.9446 105.553 98.9799C105.687 99.0152 105.804 99.098 105.88 99.2125C105.957 99.3255 105.986 99.4634 105.962 99.5972C105.938 99.7311 105.862 99.8505 105.751 99.9306C105.538 100.087 105.381 100.305 105.3 100.554C105.218 100.802 105.217 101.07 105.297 101.319C105.354 101.528 105.454 101.724 105.591 101.894C105.727 102.064 105.897 102.205 106.091 102.309C106.775 102.526 107.517 102.475 108.164 102.165C108.379 102.075 108.562 101.924 108.69 101.73C108.817 101.537 108.882 101.31 108.876 101.08C108.914 100.489 108.8 99.8995 108.545 99.3641C108.29 98.8286 107.903 98.3649 107.419 98.0155C106.842 97.7431 106.208 97.6097 105.569 97.6264C104.93 97.643 104.304 97.8092 103.742 98.1113C103.031 98.4859 102.44 99.0491 102.037 99.7372C101.633 100.425 101.433 101.211 101.459 102.005C101.444 103.295 101.911 104.544 102.771 105.516C103.298 106.007 103.923 106.386 104.606 106.627C105.289 106.869 106.015 106.969 106.739 106.921C112.65 106.921 113.702 102.388 113.8 101.878C113.8 101.878 114.593 97.409 110.69 89.972C107.451 83.5882 103.597 73.0072 102.917 66.5117L101.929 66.384ZM99.6128 66.1606C99.9663 70.9505 101.059 75.6594 102.852 80.125C103.581 81.8806 104.471 83.7478 105.232 85.5512C108.067 91.8233 110.739 97.7442 110.221 101C110.221 101 110.221 101.128 110.221 101.191C110.205 101.624 110.062 102.043 109.809 102.397C109.556 102.752 109.204 103.026 108.795 103.186C108.339 103.396 107.844 103.514 107.341 103.533C106.838 103.552 106.336 103.472 105.864 103.298C105.486 103.104 105.158 102.825 104.909 102.484C104.963 102.721 105.044 102.951 105.151 103.17C105.353 103.602 105.674 103.969 106.078 104.229C106.482 104.489 106.953 104.631 107.435 104.639C108.068 104.666 108.698 104.534 109.265 104.255C109.831 103.975 110.316 103.558 110.674 103.043C111.791 101.191 111.127 97.9357 110.885 97.1537V96.9941C110.005 93.9118 108.923 90.8891 107.646 87.9451V87.8334C103.208 78.3216 100.941 71.124 100.876 66.2244L99.6128 66.1606ZM109.702 108.98C109.524 108.485 109.395 108.07 109.297 107.751C108.522 107.924 107.728 108.01 106.933 108.006C106.044 108.069 105.153 107.947 104.315 107.647C103.478 107.347 102.715 106.877 102.074 106.266C101.007 105.074 100.429 103.532 100.455 101.942C100.448 100.963 100.712 100 101.216 99.157C101.721 98.3139 102.449 97.6215 103.321 97.1537C104.068 96.757 104.903 96.5493 105.751 96.5493C106.599 96.5493 107.434 96.757 108.18 97.1537C108.378 97.2841 108.563 97.4338 108.731 97.6006C107.512 93.6443 105.985 89.7867 104.164 86.0619C103.354 84.2585 102.544 82.3753 101.767 80.6038C99.9387 75.977 98.8462 71.0999 98.5277 66.1446C88.8107 65.3945 79.5633 65.8095 74.6562 69.0812C74.4892 70.8287 74.571 72.5906 74.8991 74.3158V74.4116C75.6441 76.4384 76.5186 78.7366 74.4618 81.3858C72.6804 83.7159 68.5182 89.1421 68.4049 91.5041C68.2991 92.3085 68.508 93.1225 68.9893 93.7806C69.4707 94.4387 70.1882 94.8915 70.9961 95.0471C72.3565 95.4141 74.2351 96.1004 74.2351 97.824C74.2407 98.6282 74.1593 99.4307 73.9922 100.218H74.1541C74.8876 100.138 75.6291 100.265 76.2919 100.585C77.4255 101.255 78.5592 103.665 80.5836 103.282C80.425 103.594 80.1971 103.866 79.9166 104.079C79.6362 104.292 79.3105 104.44 78.9641 104.511C78.0261 104.348 77.1327 103.995 76.3405 103.474C76.2848 103.553 76.2093 103.616 76.1214 103.658C76.0334 103.7 75.9359 103.719 75.8384 103.713C75.5113 103.679 75.1829 103.764 74.9153 103.952C74.8498 104.022 74.8023 104.106 74.7769 104.198C74.7516 104.29 74.749 104.386 74.7695 104.479C74.8166 104.969 74.9955 105.437 75.2878 105.836C75.5627 106.19 75.7523 106.601 75.842 107.037C75.9318 107.474 75.9195 107.926 75.806 108.357C75.6227 108.873 75.3781 109.366 75.0772 109.825C74.5758 110.381 74.274 111.084 74.2184 111.825C74.1628 112.566 74.3565 113.305 74.7695 113.927C76.1137 115.986 81.9763 117.119 84.1141 117.358C84.2113 117.358 93.9769 118.364 99.0945 116.656C103.694 115.028 108.828 109.889 109.751 108.932L109.702 108.98ZM107.257 112.778L110.804 111.501C110.561 111.022 110.334 110.544 110.14 110.097C109.605 110.639 108.552 111.629 107.305 112.73L107.257 112.778ZM112.115 113.576C111.856 113.209 111.597 112.842 111.37 112.475L104.52 114.901C103.985 115.284 103.435 115.651 102.9 115.986C103.678 116.097 104.406 116.177 105.087 116.241C105.116 116.178 105.159 116.121 105.212 116.074C105.265 116.027 105.327 115.992 105.394 115.97L112.115 113.576ZM113.411 115.028L112.86 114.438L107.613 116.305C109.627 116.4 111.63 115.959 113.411 115.028ZM119.986 116.624H120.375C121.224 116.686 122.075 116.527 122.843 116.163C123.61 115.799 124.267 115.243 124.747 114.549C124.899 114.234 125.014 113.902 125.088 113.56C125.272 112.719 125.198 111.844 124.875 111.045C124.552 110.246 123.994 109.56 123.274 109.075C122.759 108.761 122.181 108.56 121.58 108.485C120.98 108.411 120.369 108.465 119.792 108.644C119.378 108.88 119.019 109.199 118.74 109.582C118.46 109.964 118.267 110.401 118.172 110.863C117.973 111.423 117.993 112.037 118.23 112.584C118.467 113.13 118.903 113.57 119.452 113.815C120.16 113.868 120.869 113.736 121.508 113.432C121.739 113.346 121.938 113.193 122.08 112.994C122.221 112.795 122.299 112.558 122.302 112.315C122.312 112.026 122.242 111.739 122.099 111.486C121.957 111.233 121.747 111.023 121.492 110.879C121.303 110.776 121.084 110.741 120.872 110.778C120.66 110.816 120.467 110.925 120.326 111.086C120.223 111.188 120.083 111.244 119.938 111.244C119.792 111.244 119.652 111.188 119.549 111.086C119.498 111.037 119.458 110.979 119.431 110.914C119.404 110.85 119.39 110.781 119.39 110.711C119.39 110.641 119.404 110.572 119.431 110.508C119.458 110.444 119.498 110.385 119.549 110.336C119.848 109.98 120.261 109.735 120.721 109.642C121.18 109.549 121.658 109.614 122.075 109.825C122.504 110.071 122.861 110.423 123.111 110.845C123.361 111.267 123.495 111.746 123.5 112.235C123.492 112.684 123.351 113.12 123.095 113.492C122.839 113.863 122.479 114.153 122.059 114.326C121.364 114.666 120.6 114.846 119.824 114.853H119.452C119.342 114.892 119.222 114.892 119.112 114.853C118.033 114.657 117.021 114.202 116.164 113.528C114.464 112.267 112.747 108.357 112.034 106.618C111.528 106.942 110.985 107.204 110.415 107.4C110.949 109.347 113.411 116.624 120.002 116.624H119.986ZM117.557 150.634C119.543 146.816 121.238 142.858 122.626 138.792C122.649 138.724 122.659 138.652 122.654 138.58C122.649 138.508 122.63 138.438 122.598 138.374C122.565 138.309 122.52 138.252 122.466 138.204C122.411 138.157 122.347 138.121 122.278 138.097C122.209 138.074 122.136 138.065 122.063 138.07C121.99 138.075 121.919 138.093 121.853 138.125C121.788 138.157 121.73 138.201 121.681 138.255C121.633 138.31 121.597 138.372 121.573 138.441C120.236 142.457 118.59 146.368 116.65 150.139C116.611 150.2 116.585 150.267 116.573 150.338C116.562 150.408 116.564 150.481 116.581 150.55C116.597 150.62 116.627 150.686 116.67 150.744C116.712 150.802 116.766 150.851 116.828 150.889C116.924 150.91 117.024 150.91 117.12 150.889C117.208 150.884 117.294 150.858 117.37 150.814C117.446 150.769 117.51 150.708 117.557 150.634ZM121.589 150.139C123.581 146.324 125.276 142.365 126.658 138.297C126.696 138.229 126.718 138.153 126.723 138.076C126.729 137.999 126.717 137.921 126.69 137.849C126.662 137.776 126.619 137.71 126.563 137.655C126.508 137.6 126.441 137.558 126.367 137.531C126.298 137.506 126.224 137.494 126.151 137.498C126.077 137.501 126.005 137.519 125.939 137.55C125.872 137.581 125.813 137.625 125.764 137.68C125.715 137.734 125.678 137.797 125.654 137.866C124.303 141.857 122.646 145.741 120.699 149.484C120.66 149.545 120.634 149.613 120.622 149.683C120.61 149.754 120.613 149.826 120.629 149.896C120.646 149.966 120.676 150.032 120.719 150.09C120.761 150.148 120.815 150.197 120.877 150.235C120.973 150.256 121.072 150.256 121.168 150.235C121.241 150.247 121.316 150.246 121.389 150.229C121.461 150.213 121.529 150.182 121.589 150.139ZM130.691 137.722C130.738 137.581 130.726 137.426 130.658 137.293C130.59 137.16 130.471 137.059 130.327 137.012C130.255 136.989 130.18 136.98 130.106 136.986C130.031 136.991 129.958 137.011 129.891 137.045C129.756 137.112 129.653 137.23 129.606 137.371C128.277 141.33 126.653 145.187 124.747 148.91C124.709 148.971 124.683 149.038 124.671 149.109C124.659 149.18 124.661 149.252 124.678 149.322C124.695 149.391 124.725 149.457 124.767 149.515C124.81 149.573 124.864 149.622 124.926 149.66C125.021 149.688 125.122 149.688 125.217 149.66C125.311 149.662 125.404 149.639 125.487 149.595C125.569 149.55 125.638 149.484 125.687 149.405C127.653 145.614 129.326 141.682 130.691 137.643V137.722ZM77.3446 92.6851C77.1502 93.9618 76.2595 94.9194 76.9235 94.9194C77.5875 94.9194 78.2029 93.5948 78.2029 92.6851C78.2029 91.7754 78.2029 91.0891 76.4862 89.7326C77.0435 90.6198 77.3406 91.6417 77.3446 92.6851ZM81.6362 70.0866C76.7777 70.8367 79.1098 73.1668 79.7252 73.2785C81.4304 72.5863 83.2935 72.3603 85.1182 72.6241C88.2011 72.9216 91.2031 73.7707 93.9769 75.1298C94.8514 75.6085 94.1874 74.7467 94.1874 74.7467C94.1874 74.7467 87.1426 69.1929 81.6362 70.0387V70.0866ZM76.0166 96.1163C76.0166 96.1163 75.3688 98.2549 76.9397 98.989C78.5106 99.7232 82.948 101.287 83.9035 101.702C84.9042 101.951 85.946 101.994 86.9644 101.83C84.6409 100.113 82.2005 98.5564 79.6604 97.1697C77.2798 96.0844 76.1623 95.7333 76.0166 96.1163ZM89.588 78.976C87.9685 77.8429 86.349 76.5023 86.349 76.5023H86.2518C87.565 78.3045 89.3353 79.7353 91.3857 80.6517C91.3857 80.6517 92.1954 80.939 92.1954 80.6517C92.1954 80.3644 91.2075 80.1091 89.588 78.976ZM86.5109 79.1036C88.3483 79.5633 90.0546 80.4313 91.499 81.6412H90.4625C90.094 81.4738 89.6886 81.4006 89.2838 81.4285C88.879 81.4564 88.4879 81.5844 88.1467 81.8008C86.6957 82.3474 85.1484 82.6025 83.5958 82.5509C83.1527 82.5784 82.7238 82.7156 82.3488 82.9499C82.4948 83.6664 82.4492 84.4081 82.2164 85.102C81.9835 85.7959 81.5715 86.4182 81.0208 86.9078C81.6121 85.2609 81.779 83.4951 81.5067 81.7689C81.28 80.4921 80.9399 79.0877 80.7455 77.8269C78.3648 76.5821 78.0085 75.2255 78.0085 75.2255C78.7301 76.014 79.6363 76.6167 80.6483 76.981C80.4668 76.1027 80.5984 75.1895 81.0208 74.3956C81.4777 75.4849 81.9912 76.5503 82.5594 77.5875C82.6125 77.6972 82.672 77.8037 82.7375 77.9067C83.9521 78.3216 85.3125 78.7845 86.5109 79.1036ZM84.3894 80.1091C84.3322 79.8556 84.2181 79.618 84.0556 79.4137C83.8931 79.2093 83.6862 79.0434 83.4501 78.9281L83.2072 78.8483L83.4015 79.2154C83.5291 79.467 83.5797 79.7498 83.5473 80.0293C83.5331 80.5301 83.3759 81.0169 83.0938 81.4337C83.3392 81.5497 83.5937 81.6458 83.855 81.721C84.0551 81.5051 84.2063 81.2497 84.2984 80.9718C84.3906 80.6938 84.4216 80.3998 84.3894 80.1091ZM88.6163 80.6357C87.6284 80.2208 86.4462 79.8697 85.1992 79.4867C85.2963 79.8127 85.3347 80.153 85.3125 80.4921C85.2607 81.0109 85.0583 81.5041 84.7295 81.9125C85.0359 81.9521 85.3462 81.9521 85.6526 81.9125C86.7215 81.6996 87.7319 81.2644 88.6163 80.6357ZM72.6156 92.6851C70.2997 92.7808 71.2714 94.1214 72.6156 93.8182C73.6266 93.687 74.6545 93.7741 75.6279 94.0735C75.2792 93.6171 74.8222 93.2519 74.2971 93.0098C73.772 92.7678 73.1946 92.6563 72.6156 92.6851Z" fill="#24242E"/>
<path d="M97.9887 138.533C97.9887 138.533 117.643 138.084 131.378 136.176L131.378 120.591C117.151 123.195 102.711 124.337 88.2427 124.314C90.4319 128.674 97.9887 138.533 97.9887 138.533ZM116.07 128.77C116.065 128.713 116.074 128.656 116.097 128.603C116.119 128.551 116.154 128.504 116.199 128.468C116.243 128.432 116.296 128.407 116.353 128.395C116.41 128.384 116.468 128.386 116.524 128.402C117.589 128.756 118.671 129.055 119.767 129.299C119.313 128.969 118.973 128.509 118.793 127.981C118.613 127.454 118.602 126.884 118.762 126.35C119.41 124.217 121.81 124.025 124.048 125.292C124.924 125.772 127.032 126.895 128.232 127.424C128.341 127.48 128.437 127.56 128.512 127.657C128.587 127.754 128.639 127.866 128.666 127.985C128.692 128.104 128.691 128.228 128.664 128.347C128.637 128.466 128.583 128.578 128.508 128.674C127.502 130.005 125.556 132.57 124.94 133.307C124.113 134.333 120.983 136.225 119.41 133.307C119.244 132.842 119.201 132.343 119.286 131.857C119.371 131.372 119.582 130.916 119.897 130.534C118.749 131.2 117.564 131.8 116.345 132.329C116.287 132.353 116.222 132.361 116.16 132.352C116.097 132.342 116.038 132.317 115.988 132.278C115.938 132.239 115.9 132.187 115.878 132.128C115.855 132.07 115.848 132.006 115.859 131.944C116.051 130.898 116.121 129.833 116.07 128.77ZM98.6049 129.828C98.6018 129.771 98.6131 129.713 98.6376 129.661C98.6621 129.609 98.6992 129.564 98.7455 129.529C98.7919 129.494 98.8462 129.471 98.9037 129.462C98.9611 129.452 99.02 129.457 99.0752 129.476C100.139 129.851 101.221 130.172 102.318 130.437C101.885 130.1 101.565 129.64 101.4 129.12C101.235 128.599 101.233 128.042 101.394 127.52C102.075 125.404 104.491 125.276 106.713 126.574C107.556 127.087 109.648 128.177 110.848 128.786C110.955 128.846 111.048 128.927 111.119 129.026C111.191 129.124 111.24 129.237 111.263 129.356C111.286 129.475 111.283 129.597 111.253 129.715C111.224 129.833 111.168 129.942 111.091 130.037C110.07 131.351 108.059 133.884 107.443 134.605C106.567 135.615 103.421 137.443 101.897 134.605C101.746 134.138 101.716 133.641 101.809 133.159C101.903 132.678 102.117 132.227 102.432 131.848C101.263 132.46 100.055 132.995 98.8157 133.451C98.7555 133.471 98.6913 133.475 98.629 133.463C98.5668 133.452 98.5086 133.425 98.4599 133.384C98.4112 133.344 98.3737 133.293 98.3508 133.234C98.3279 133.176 98.3205 133.113 98.3292 133.05C98.5526 131.991 98.6452 130.909 98.6049 129.828ZM93.4806 135.776C94.4211 137.138 94.6806 138.565 94.0968 138.982C93.513 139.399 92.2481 138.597 91.3238 137.235C90.3995 135.872 90.1076 134.429 90.7076 134.028C91.3076 133.628 92.54 134.397 93.4806 135.776ZM98.4914 143.102C99.4157 144.464 99.6914 145.907 99.0914 146.308C98.4914 146.709 97.259 145.907 96.3184 144.545C95.3779 143.182 95.1184 141.739 95.7184 141.338C96.3184 140.938 97.5508 141.739 98.4914 143.102ZM103.502 150.428C104.427 151.807 104.702 153.233 104.102 153.634C103.502 154.035 102.27 153.249 101.329 151.871C100.389 150.492 100.129 149.081 100.729 148.664C101.329 148.248 102.562 149.065 103.502 150.428ZM131.378 149.963V152.255C123.842 153.097 116.255 153.402 108.675 153.169L106.891 151.149C115.07 151.251 123.248 150.854 131.378 149.963ZM131.378 42.284V59.0041C128.626 57.9834 125.802 57.1637 122.929 56.5514L122.735 43.4863C125.569 42.8065 128.464 42.4038 131.378 42.284ZM14.6211 163.225V158.784C31.3076 137.175 55.6157 125.292 61.3563 122.823L62.8481 125.003C56.459 127.824 31.0643 140.429 14.6211 163.225ZM19.7941 170.001H19.486C18.6239 169.996 17.757 169.767 17.0155 169.332C34.0588 144.805 61.2265 132.329 66.3508 130.149L67.8427 132.329C62.1509 134.782 36.5779 146.757 19.7941 170.001ZM86.5563 32.938C72.1238 35.006 62.6373 39.671 60.8536 40.7611C60.8377 40.8942 60.8377 41.0287 60.8536 41.1618L73.5346 62.0019C77.8157 60.1904 94.6644 55.0664 131.378 65.5666V62.3604C128.089 61.0614 124.637 60.0627 121.162 59.3889C120.807 59.305 120.496 59.0956 120.286 58.8002C120.077 58.5049 119.985 58.144 120.027 57.7858L119.783 42.5565C119.773 42.2518 119.863 41.9519 120.038 41.701C120.213 41.45 120.465 41.261 120.756 41.1618C124.204 40.1138 127.774 39.5051 131.378 39.3504V36.6251C116.898 32.1315 101.589 30.8721 86.5563 32.938ZM88.9238 55.3812C88.8807 55.7313 88.7108 56.0541 88.4454 56.2899C88.1801 56.5257 87.8373 56.6585 87.4806 56.6636C84.0529 56.8092 80.645 57.2545 77.2968 57.9942C77.1838 58.01 77.0692 58.01 76.9563 57.9942C76.6999 57.9944 76.448 57.9278 76.226 57.8011C76.004 57.6745 75.8196 57.4923 75.6914 57.2728L68.0373 44.1596C67.8734 43.877 67.8098 43.5482 67.8568 43.2257C67.9039 42.9032 68.0587 42.6055 68.2968 42.3802C71.186 39.9783 74.4078 37.9971 77.8644 36.4969C78.0956 36.4045 78.3454 36.3661 78.5941 36.3847C82.3404 36.7942 86.035 37.5784 89.6211 38.7252C89.9487 38.8372 90.2266 39.0584 90.4071 39.351C90.5876 39.6435 90.6595 39.989 90.6103 40.3282L88.9238 55.3812ZM106.47 34.5411C110.119 35.834 113.585 37.585 116.783 39.7511C117.056 39.9383 117.256 40.2118 117.351 40.5266C117.445 40.8414 117.428 41.1786 117.302 41.4825L111.367 56.0865C111.259 56.3566 111.072 56.5884 110.829 56.7514C110.586 56.9144 110.299 57.0012 110.005 57.0003H109.697C106.324 56.3654 102.898 56.0434 99.4644 56.0384C99.1409 56.0366 98.8267 55.9308 98.5693 55.7371C98.312 55.5433 98.1252 55.2721 98.0373 54.9644L93.9995 40.216C93.9225 39.9137 93.9455 39.5948 94.0651 39.3063C94.1848 39.0178 94.3948 38.7748 94.6644 38.6129C98.1539 36.8065 101.858 35.4386 105.691 34.5411C105.946 34.469 106.215 34.469 106.47 34.5411ZM78.7725 39.3504C81.7613 39.6875 84.7136 40.2883 87.5941 41.1458L86.1346 53.7781C83.301 53.9682 80.4837 54.3484 77.7022 54.9163L71.2157 43.839C73.5579 42.0696 76.0925 40.5641 78.7725 39.3504ZM88.5022 128.466C89.4427 129.844 89.7184 131.271 89.1184 131.672C88.5184 132.073 87.2698 131.287 86.3454 129.908C85.4211 128.53 85.1292 127.119 85.7292 126.702C86.3292 126.285 87.5941 127.071 88.4698 128.434L88.5022 128.466ZM100.599 53.1208L97.113 40.5366C99.9537 39.2484 102.913 38.2338 105.951 37.5068C108.796 38.5413 111.515 39.8855 114.059 41.5145L109.032 53.8903C106.232 53.4382 103.403 53.1758 100.567 53.1048L100.599 53.1208ZM108.529 157.786C109.47 159.149 109.745 160.575 109.145 160.992C108.545 161.409 107.313 160.607 106.372 159.245C105.432 157.882 105.172 156.439 105.756 156.039C106.34 155.638 107.572 156.375 108.497 157.77L108.529 157.786ZM38.7995 144.545C38.7995 144.353 38.8764 144.17 39.0132 144.034C39.1501 143.899 39.3357 143.823 39.5292 143.823C39.7228 143.823 39.9084 143.899 40.0452 144.034C40.1821 144.17 40.259 144.353 40.259 144.545C40.259 144.736 40.1821 144.919 40.0452 145.055C39.9084 145.19 39.7228 145.266 39.5292 145.266C39.3357 145.266 39.1501 145.19 39.0132 145.055C38.8764 144.919 38.7995 144.736 38.7995 144.545ZM83.459 121.108C84.3995 122.47 84.6752 123.897 84.0752 124.314C83.4752 124.73 82.2427 123.929 81.3022 122.566C80.3617 121.204 80.1022 119.761 80.686 119.36C81.2698 118.959 82.5346 119.729 83.459 121.108ZM33.5779 148.632C33.582 148.438 33.6619 148.253 33.801 148.116C33.94 147.978 34.1273 147.899 34.3238 147.895C34.5188 147.899 34.7044 147.979 34.8408 148.117C34.9773 148.254 35.0536 148.44 35.0536 148.632C35.0536 148.727 35.0347 148.821 34.998 148.908C34.9613 148.996 34.9076 149.076 34.8398 149.143C34.7721 149.21 34.6916 149.263 34.6031 149.299C34.5146 149.335 34.4197 149.354 34.3238 149.354C34.1288 149.354 33.9415 149.278 33.802 149.144C33.6626 149.009 33.5821 148.825 33.5779 148.632ZM38.7022 141.627C38.698 141.82 38.6175 142.003 38.4781 142.138C38.3386 142.273 38.1513 142.348 37.9563 142.348C37.7627 142.348 37.5771 142.272 37.4403 142.137C37.3034 142.002 37.2265 141.818 37.2265 141.627C37.2265 141.434 37.3029 141.249 37.4393 141.111C37.5757 140.973 37.7613 140.894 37.9563 140.89C38.1528 140.894 38.3401 140.973 38.4792 141.11C38.6182 141.247 38.6981 141.433 38.7022 141.627ZM28.9725 152.993C28.9725 152.801 29.0494 152.618 29.1862 152.483C29.3231 152.347 29.5087 152.271 29.7022 152.271C29.8973 152.271 30.0846 152.347 30.224 152.482C30.3635 152.617 30.4439 152.8 30.4482 152.993C30.444 153.187 30.3641 153.372 30.2251 153.51C30.0861 153.647 29.8988 153.726 29.7022 153.73C29.5989 153.739 29.4949 153.727 29.3968 153.694C29.2987 153.661 29.2086 153.608 29.1323 153.538C29.056 153.469 28.9952 153.385 28.9537 153.291C28.9122 153.197 28.891 153.095 28.8914 152.993H28.9725ZM131.378 159.643C125.443 160.087 119.571 159.998 113.621 159.854L111.902 157.882C111.902 157.882 121.081 158.15 131.378 157.252V159.643ZM99.7887 170.001H96.3833L63.4319 121.749L65.913 120.402L99.7887 170.001ZM28.8914 150.091C28.8872 150.284 28.8067 150.467 28.6673 150.602C28.5278 150.737 28.3405 150.813 28.1455 150.813C27.9519 150.813 27.7663 150.737 27.6295 150.601C27.4926 150.466 27.4157 150.283 27.4157 150.091C27.4157 149.898 27.492 149.713 27.6284 149.575C27.7649 149.438 27.9504 149.358 28.1455 149.354C28.342 149.358 28.5293 149.437 28.6683 149.574C28.8073 149.712 28.8873 149.897 28.8914 150.091ZM33.5779 145.715C33.5779 145.906 33.501 146.09 33.3642 146.225C33.2273 146.36 33.0417 146.436 32.8482 146.436C32.6546 146.436 32.469 146.36 32.3322 146.225C32.1953 146.09 32.1184 145.906 32.1184 145.715C32.1184 145.523 32.1953 145.34 32.3322 145.205C32.469 145.069 32.6546 144.993 32.8482 144.993C33.0417 144.993 33.2273 145.069 33.3642 145.205C33.501 145.34 33.5779 145.523 33.5779 145.715ZM60.286 128.225C60.286 128.417 60.2091 128.6 60.0723 128.735C59.9354 128.871 59.7498 128.947 59.5563 128.947C59.3627 128.947 59.1771 128.871 59.0403 128.735C58.9034 128.6 58.8265 128.417 58.8265 128.225C58.8265 128.034 58.9034 127.85 59.0403 127.715C59.1771 127.58 59.3627 127.504 59.5563 127.504C59.7498 127.504 59.9354 127.58 60.0723 127.715C60.2091 127.85 60.286 128.034 60.286 128.225ZM54.5779 131.127C54.58 131.223 54.5628 131.318 54.5271 131.408C54.4914 131.497 54.4379 131.579 54.37 131.647C54.302 131.716 54.2208 131.771 54.1312 131.808C54.0416 131.845 53.9454 131.864 53.8482 131.864C53.7421 131.88 53.6339 131.873 53.5309 131.843C53.4279 131.814 53.3325 131.762 53.2513 131.693C53.1701 131.624 53.105 131.538 53.0603 131.442C53.0156 131.346 52.9925 131.241 52.9925 131.135C52.9925 131.029 53.0156 130.924 53.0603 130.828C53.105 130.731 53.1701 130.646 53.2513 130.576C53.3325 130.507 53.4279 130.456 53.5309 130.426C53.6339 130.397 53.7421 130.39 53.8482 130.405C54.0417 130.405 54.2273 130.481 54.3641 130.617C54.501 130.752 54.5779 130.935 54.5779 131.127ZM43.713 137.796C43.7131 137.988 43.6367 138.174 43.5003 138.311C43.3639 138.449 43.1783 138.529 42.9833 138.533C42.7868 138.529 42.5994 138.45 42.4604 138.312C42.3214 138.175 42.2415 137.99 42.2373 137.796C42.2416 137.603 42.322 137.419 42.4615 137.284C42.6009 137.15 42.7882 137.074 42.9833 137.074C43.1768 137.074 43.3624 137.15 43.4993 137.285C43.6361 137.421 43.713 137.604 43.713 137.796ZM60.286 131.127C60.2902 130.934 60.3707 130.751 60.5101 130.616C60.6496 130.481 60.8369 130.405 61.0319 130.405C61.2088 130.431 61.3704 130.519 61.4872 130.653C61.6039 130.787 61.6682 130.958 61.6682 131.135C61.6682 131.312 61.6039 131.482 61.4872 131.616C61.3704 131.75 61.2088 131.838 61.0319 131.864C60.934 131.864 60.837 131.845 60.7465 131.808C60.656 131.771 60.5737 131.717 60.5045 131.648C60.4352 131.58 60.3803 131.498 60.3428 131.409C60.3053 131.319 60.286 131.224 60.286 131.127ZM54.5779 134.044C54.5821 133.852 54.6626 133.668 54.802 133.533C54.9414 133.398 55.1288 133.323 55.3238 133.323C55.5174 133.323 55.703 133.399 55.8398 133.534C55.9767 133.67 56.0536 133.853 56.0536 134.044C56.0536 134.236 55.9767 134.419 55.8398 134.554C55.703 134.69 55.5174 134.766 55.3238 134.766C55.1288 134.766 54.9414 134.69 54.802 134.555C54.6626 134.421 54.5821 134.237 54.5779 134.044ZM49.0157 137.251C49.0136 137.154 49.0308 137.059 49.0665 136.97C49.1022 136.88 49.1557 136.799 49.2236 136.73C49.2916 136.661 49.3728 136.607 49.4624 136.57C49.552 136.532 49.6482 136.513 49.7455 136.513C49.8515 136.498 49.9597 136.505 50.0627 136.534C50.1657 136.564 50.2611 136.615 50.3423 136.684C50.4235 136.753 50.4886 136.839 50.5333 136.935C50.578 137.032 50.6011 137.137 50.6011 137.243C50.6011 137.349 50.578 137.453 50.5333 137.55C50.4886 137.646 50.4235 137.732 50.3423 137.801C50.2611 137.87 50.1657 137.921 50.0627 137.951C49.9597 137.98 49.8515 137.988 49.7455 137.972C49.5547 137.972 49.3715 137.898 49.2351 137.766C49.0987 137.634 49.02 137.455 49.0157 137.267V137.251ZM43.713 140.697C43.7172 140.503 43.7971 140.318 43.9361 140.18C44.0751 140.043 44.2624 139.964 44.459 139.96C44.654 139.964 44.8396 140.043 44.976 140.181C45.1124 140.319 45.1887 140.504 45.1887 140.697C45.1887 140.888 45.1118 141.072 44.975 141.207C44.8381 141.343 44.6525 141.419 44.459 141.419C44.2666 141.419 44.0816 141.345 43.9426 141.214C43.8037 141.083 43.7214 140.903 43.713 140.713V140.697ZM49.0157 134.285C49.0115 134.478 48.931 134.661 48.7916 134.796C48.6522 134.931 48.4648 135.006 48.2698 135.006C48.0762 135.006 47.8906 134.93 47.7538 134.795C47.6169 134.66 47.54 134.476 47.54 134.285C47.54 134.094 47.6169 133.91 47.7538 133.775C47.8906 133.639 48.0762 133.563 48.2698 133.563C48.372 133.563 48.4731 133.584 48.5669 133.624C48.6608 133.664 48.7453 133.723 48.8152 133.796C48.8852 133.87 48.939 133.957 48.9735 134.052C49.008 134.147 49.0224 134.248 49.0157 134.349V134.285Z" fill="#C72F2A"/>
<path d="M75.2962 169.998H71.3786L67.9748 165.06C67.9635 165.038 67.9576 165.014 67.9576 164.99C67.9576 164.965 67.9635 164.941 67.9748 164.919C68.2414 163.562 68.4131 162.189 68.4886 160.809C68.487 160.769 68.4996 160.73 68.5243 160.699C68.549 160.667 68.5843 160.644 68.6241 160.635C68.664 160.626 68.7058 160.63 68.7426 160.648C68.7794 160.665 68.8088 160.695 68.8257 160.731L75.2962 169.998ZM67.2683 167.123C67.0286 168.102 66.7174 169.063 66.3371 169.998H69.6606L67.6055 167.06C67.583 167.041 67.5559 167.026 67.5265 167.018C67.4972 167.011 67.4664 167.01 67.4366 167.016C67.4069 167.022 67.379 167.035 67.3554 167.054C67.3317 167.072 67.3129 167.096 67.3005 167.123H67.2683ZM31.9459 165.982C31.9459 165.982 33.7281 168.842 34.579 169.998H38.5769C38.4739 168.819 38.0771 167.682 37.4209 166.685C36.1707 165.693 34.8685 164.764 33.5193 163.904C32.9092 163.669 32.6202 162.841 33.0858 162.544C33.5515 162.247 34.2418 163.153 34.2418 163.153L36.2006 164.56C36.2006 164.56 37.164 165.326 37.8062 165.154C39.0908 164.723 40.3279 164.168 41.499 163.497C40.9426 162.372 40.1872 161.351 39.2673 160.481C38.5448 160.059 34.9965 160.653 34.563 160.731C34.1295 160.809 33.9047 160.95 33.4712 160.356C33.0377 159.762 34.1937 159.528 34.1937 159.528C36.1583 159.334 38.0993 158.958 39.9898 158.402C41.5151 157.762 42.4784 155.386 42.4784 155.386C41.1971 155.024 39.8596 154.886 38.5287 154.98C32.6412 158.815 27.7804 163.964 24.3516 169.998H26.2622C26.0989 169.458 26.0989 168.883 26.2622 168.342C26.6315 167.701 26.9205 168.654 26.9205 168.654L27.2255 169.998H28.9916C29.0102 169.387 28.978 168.776 28.8953 168.17C28.799 167.873 28.8953 167.154 29.3609 167.154C29.8265 167.154 29.6339 167.748 29.6339 167.748V169.998H33.0216C32.3838 168.927 31.8102 167.821 31.3037 166.685C31.1271 165.966 31.978 165.982 31.978 165.982H31.9459ZM87.7554 136.664L81.2368 139.914L83.6291 143.384L90.1958 140.118L89.3609 138.93L84.0465 141.587L83.2116 140.399L88.526 137.742L87.7554 136.664ZM76.6288 120.864L70.2065 123.99L72.6149 127.459L79.0371 124.333L78.2344 123.208L73.3053 125.693L72.4704 124.521L77.4797 122.02L76.6288 120.864ZM62.9173 144.556C62.4516 142.009 59.2726 139.696 59.2726 139.696C57.464 140.391 55.7954 141.39 54.3435 142.649C60.7176 145.603 62.9173 144.556 62.9173 144.556ZM52.9467 167.857C52.9467 167.857 59.7382 167.857 61.1833 163.388C58.911 162.328 56.3658 161.95 53.8723 162.304C51.3787 162.657 49.0499 163.726 47.1827 165.373C46.8848 166.942 47.0555 168.5 47.6162 170H54.8412C54.4159 169.218 53.5249 168.54 52.9467 167.857ZM50.2815 152.229C50.2815 152.229 50.6989 160.34 61.9058 160.919C61.6687 159.29 61.0632 157.734 60.1331 156.361C59.203 154.988 57.9713 153.833 56.5271 152.98C56.5271 152.98 63.0457 151.104 63.0939 146.385C60.6099 146.004 58.0657 146.35 55.7844 147.379C53.5031 148.409 51.5877 150.075 50.2815 152.167V152.229ZM82.2001 128.787L75.7778 132.007L78.122 135.445L84.5442 132.21L83.7575 131.085L78.5715 133.679L77.7366 132.507L82.9387 129.913L82.2001 128.787ZM93.3267 144.587L86.7117 147.885L89.1201 151.354L95.7832 148.01L95.0125 146.916L89.6339 149.604L88.799 148.416L94.1776 145.775L93.3267 144.587ZM73.4819 128.694L74.9269 130.803L81.3492 127.584L79.8881 125.459L73.4819 128.694ZM98.9943 165.56L103.811 160.731L97.8062 163.732L98.9943 165.56ZM78.9729 136.633L80.4179 138.727L86.9365 135.476L85.4594 133.398L78.9729 136.633ZM67.9587 120.77L69.4359 122.927L75.8581 119.801L74.3971 117.645C72.1757 118.533 70.0239 119.577 67.9587 120.77ZM84.4479 144.572L85.8929 146.666L92.5721 143.384L90.9665 141.29L84.4479 144.572ZM98.898 152.386L92.2028 155.73L94.5951 159.199L101.322 155.839L100.52 154.699L95.1731 157.355L94.3542 156.183L99.6847 153.589L98.898 152.386ZM103.715 159.106L102.205 157.09L95.4621 160.45L96.9231 162.544L103.715 159.106ZM90.0192 152.448L91.4642 154.542L98.1434 151.214L96.6823 149.119L90.0192 152.448Z" fill="#F4C900"/>
</g>
<path d="M35.5383 80.7311C33.2306 78.8849 29.846 75.0388 28.4614 73.5003C28.1537 73.1926 27.5383 73.1926 27.2306 73.5003C25.846 75.0388 22.6152 78.8849 20.1537 80.7311C14.7691 85.3465 12.6152 87.5003 12.6152 91.5003C12.6152 96.1157 16.6152 99.9618 21.5383 99.9618C23.3845 99.9618 25.5383 99.3465 26.9229 98.2695L27.0768 98.1157C26.7691 100.423 25.9998 103.808 23.6922 106.116C23.3845 106.423 23.5383 106.731 23.9998 106.731H27.9998H31.9998C32.3075 106.731 32.4614 106.27 32.3075 106.116C29.9998 103.808 29.2306 100.577 28.9229 98.1157L29.0768 98.2695C30.3075 99.3465 32.6152 99.9618 34.4614 99.9618C39.3845 99.9618 43.3845 96.1157 43.3845 91.5003C43.3845 87.5003 41.2306 85.3465 35.5383 80.7311Z" fill="#24242E"/>
<path d="M32.4381 11.756H38.8761V46.906C38.8761 54.528 38.5801 56.008 38.0621 57.562C35.6941 64.74 27.8501 64.74 26.0741 64.74C19.1181 64.74 16.0101 60.892 15.0481 57.34C14.4561 55.194 14.4561 53.566 14.4561 48.312H20.7461C20.7461 53.936 20.8201 54.75 21.3381 56.082C22.1521 58.08 23.9281 59.19 26.0001 59.19C31.2541 59.264 32.2161 55.416 32.3641 53.27C32.4381 52.234 32.4381 48.46 32.4381 47.276V11.756Z" fill="#24242E"/>
<defs>
<linearGradient id="paint0_linear_324_104573" x1="92" y1="2" x2="92" y2="182" gradientUnits="userSpaceOnUse">
<stop stop-color="white" stop-opacity="0.85"/>
<stop offset="1" stop-color="white" stop-opacity="0.15"/>
</linearGradient>
<clipPath id="clip0_324_104573">
<rect width="116.757" height="165" fill="white" transform="translate(14.6211 5)"/>
</clipPath>
</defs>
</svg>
