<svg width="184" height="184" viewBox="0 0 184 184" fill="none" xmlns="http://www.w3.org/2000/svg">
<rect x="1" y="1" width="182" height="182" rx="13" stroke="black" stroke-opacity="0.25" stroke-width="2"/>
<rect x="2.5" y="2.5" width="179" height="179" rx="11.5" fill="#E9E9E9" stroke="url(#paint0_linear_324_104587)"/>
<rect x="41.0449" y="30.5" width="101.909" height="123" rx="1.5" fill="#D7D5D7" stroke="#CDCFD6"/>
<path d="M85.6154 90.8257C76.2692 103.287 65.5385 115.057 53.7692 125.787C53.0769 126.48 53.0769 127.518 53.7692 128.21C65.5385 138.941 76.2692 150.71 85.6154 163.172C86.3077 164.21 87.6923 164.21 88.3846 163.172C97.7308 150.71 108.462 138.941 120.231 128.21C120.923 127.518 120.923 126.48 120.231 125.787C108.462 115.057 97.7308 103.287 88.3846 90.8257C87.6923 89.7873 86.3077 89.7873 85.6154 90.8257Z" fill="#BF3030"/>
<path d="M27.3846 73.9243C23.2308 79.4627 18.4615 84.6935 13.2308 89.4627C12.9231 89.7704 12.9231 90.232 13.2308 90.5397C18.4615 95.3089 23.2308 100.54 27.3846 106.078C27.6923 106.54 28.3077 106.54 28.6154 106.078C32.7692 100.54 37.5385 95.3089 42.7692 90.5397C43.0769 90.232 43.0769 89.7704 42.7692 89.4627C37.5385 84.6935 32.7692 79.4627 28.6154 73.9243C28.3077 73.4627 27.6923 73.4627 27.3846 73.9243Z" fill="#BF3030"/>
<path d="M39.227 58.376V64H16.361V57.784L27.165 39.506C31.605 31.884 32.419 29.812 32.419 24.188C32.419 21.82 32.345 17.084 27.609 17.084C22.947 17.084 22.947 21.524 22.947 24.41V30.404H16.953V23.892C16.953 19.452 17.471 16.418 19.617 14.124C21.171 12.496 23.835 11.09 27.461 11.09C31.531 11.09 33.825 12.644 35.231 14.124C37.895 16.936 38.561 20.34 38.561 24.706C38.561 31.366 36.489 35.732 33.677 40.394L22.947 58.376H39.227Z" fill="#BF3030"/>
<g clip-path="url(#clip0_324_104587)">
<path d="M65.9267 38L67.5467 30.08C68.0507 27.704 68.4467 25.004 68.8787 22.088H68.9507C69.2747 25.04 69.6347 27.812 70.0307 30.044L71.4707 38H76.3307L80.6147 13.736H76.0067L74.8187 23.348C74.4947 26.156 74.2067 28.748 73.8827 31.916H73.8107C73.5227 28.748 73.0907 26.048 72.6587 23.312L71.0387 13.736H67.2227L65.4947 23.384C64.9907 26.3 64.4507 28.928 64.1267 31.916H64.0187C63.7307 28.964 63.5147 26.192 63.1907 23.42L62.0027 13.736H57.1067L61.2467 38H65.9267ZM83.1603 13.736V38H87.8763V13.736H83.1603ZM92.09 38H102.998V34.004H96.806V13.736H92.09V38ZM105.766 37.892C106.702 38.036 108.178 38.18 109.69 38.18C113.038 38.18 115.414 37.388 117.07 35.84C119.194 33.968 120.454 30.476 120.454 25.58C120.454 20.864 119.374 17.66 117.286 15.788C115.738 14.348 113.614 13.628 110.554 13.628C108.682 13.628 106.954 13.808 105.766 14.096V37.892ZM110.482 17.516C110.77 17.408 111.094 17.408 111.418 17.408C114.262 17.408 115.558 20.432 115.558 25.4C115.558 32.096 113.578 34.328 111.31 34.328C111.058 34.328 110.734 34.328 110.482 34.256V17.516Z" fill="#BF3030"/>
<path opacity="0.8" d="M69.7722 63L71.1222 56.4C71.5422 54.42 71.8722 52.17 72.2322 49.74H72.2922C72.5622 52.2 72.8622 54.51 73.1922 56.37L74.3922 63H78.4422L82.0122 42.78H78.1722L77.1822 50.79C76.9122 53.13 76.6722 55.29 76.4022 57.93H76.3422C76.1022 55.29 75.7422 53.04 75.3822 50.76L74.0322 42.78H70.8522L69.4122 50.82C68.9922 53.25 68.5422 55.44 68.2722 57.93H68.1822C67.9422 55.47 67.7622 53.16 67.4922 50.85L66.5022 42.78H62.4222L65.8722 63H69.7722ZM84.1336 42.78V63H88.0636V42.78H84.1336ZM91.575 63H100.665V59.67H95.505V42.78H91.575V63ZM102.971 62.91C103.751 63.03 104.981 63.15 106.241 63.15C109.031 63.15 111.011 62.49 112.391 61.2C114.161 59.64 115.211 56.73 115.211 52.65C115.211 48.72 114.311 46.05 112.571 44.49C111.281 43.29 109.511 42.69 106.961 42.69C105.401 42.69 103.961 42.84 102.971 43.08V62.91ZM106.901 45.93C107.141 45.84 107.411 45.84 107.681 45.84C110.051 45.84 111.131 48.36 111.131 52.5C111.131 58.08 109.481 59.94 107.591 59.94C107.381 59.94 107.111 59.94 106.901 59.88V45.93Z" fill="#BF3030"/>
<path opacity="0.5" d="M73.6178 84L74.6978 78.72C75.0338 77.136 75.2978 75.336 75.5858 73.392H75.6338C75.8498 75.36 76.0898 77.208 76.3538 78.696L77.3138 84H80.5538L83.4098 67.824H80.3378L79.5458 74.232C79.3298 76.104 79.1378 77.832 78.9218 79.944H78.8738C78.6818 77.832 78.3938 76.032 78.1058 74.208L77.0258 67.824H74.4818L73.3298 74.256C72.9938 76.2 72.6338 77.952 72.4178 79.944H72.3458C72.1538 77.976 72.0098 76.128 71.7938 74.28L71.0018 67.824H67.7378L70.4978 84H73.6178ZM85.1068 67.824V84H88.2508V67.824H85.1068ZM91.06 84H98.332V81.336H94.204V67.824H91.06V84ZM100.177 83.928C100.801 84.024 101.785 84.12 102.793 84.12C105.025 84.12 106.609 83.592 107.713 82.56C109.129 81.312 109.969 78.984 109.969 75.72C109.969 72.576 109.249 70.44 107.857 69.192C106.825 68.232 105.409 67.752 103.369 67.752C102.121 67.752 100.969 67.872 100.177 68.064V83.928ZM103.321 70.344C103.513 70.272 103.729 70.272 103.945 70.272C105.841 70.272 106.705 72.288 106.705 75.6C106.705 80.064 105.385 81.552 103.873 81.552C103.705 81.552 103.489 81.552 103.321 81.504V70.344Z" fill="#BF3030"/>
</g>
<defs>
<linearGradient id="paint0_linear_324_104587" x1="92" y1="2" x2="92" y2="182" gradientUnits="userSpaceOnUse">
<stop stop-color="white" stop-opacity="0.85"/>
<stop offset="1" stop-color="white" stop-opacity="0.15"/>
</linearGradient>
<clipPath id="clip0_324_104587">
<rect width="74" height="88" fill="white" transform="translate(52 2)"/>
</clipPath>
</defs>
</svg>
