<svg width="184" height="184" viewBox="0 0 184 184" fill="none" xmlns="http://www.w3.org/2000/svg">
<rect x="1" y="1" width="182" height="182" rx="13" stroke="black" stroke-opacity="0.25" stroke-width="2"/>
<rect x="2.5" y="2.5" width="179" height="179" rx="11.5" fill="#E9E9E9" stroke="url(#paint0_linear_324_104491)"/>
<rect x="41.0449" y="30.5" width="101.909" height="123" rx="1.5" fill="#D7D5D7" stroke="#CDCFD6"/>
<g clip-path="url(#clip0_324_104491)">
<path d="M131.378 39.5256V165.256C131.378 166.513 130.865 167.72 129.953 168.609C129.041 169.498 127.803 169.998 126.513 169.998H19.486C18.1957 169.998 17.1551 169.301 16.2427 168.411C15.3304 167.522 14.6211 166.513 14.6211 165.256V162.679L58.8265 124.472L59.7022 123.982C59.4103 77.1118 81.5779 57.7632 84.4806 55.2182L85.5995 52.2463C86.2588 50.3321 87.1807 48.5135 88.34 46.8401C88.34 46.603 92.1022 37.3555 107.426 35.1898C111.254 34.6682 120.837 33.5556 131.378 39.5256Z" fill="#E7E7E7"/>
<path d="M129.837 166.413C129.741 166.774 129.538 167.1 129.253 167.349C128.968 167.597 128.613 167.757 128.235 167.809C127.857 167.86 127.472 167.8 127.128 167.638C126.784 167.475 126.498 167.216 126.305 166.893C126.112 166.571 126.021 166.2 126.043 165.827C126.066 165.454 126.201 165.096 126.431 164.798C126.662 164.5 126.978 164.276 127.339 164.154C127.7 164.032 128.09 164.018 128.459 164.112C128.705 164.173 128.936 164.281 129.139 164.43C129.341 164.579 129.512 164.766 129.64 164.98C129.768 165.194 129.852 165.431 129.886 165.677C129.92 165.923 129.903 166.173 129.837 166.413ZM118.486 35.5392C118.778 35.5392 126.983 45.4018 131.378 50.7167V66.2251V81.7335L117.091 63.3037C116.999 63.3756 116.885 63.4148 116.767 63.4147C105.416 62.4152 100.356 56.8147 98.167 52.309C97.3365 50.598 96.7526 48.7826 96.4319 46.9147C95.6247 50.1293 94.0934 53.1268 91.9498 55.6879C89.8062 58.249 87.1047 60.3089 84.0427 61.7171C84.0021 62.4411 84.0021 63.1667 84.0427 63.8907C84.0536 64.3216 84.097 64.7511 84.1724 65.1758C84.1724 65.3503 84.1724 65.5407 84.1724 65.7152C84.1724 66.2705 84.1724 66.8258 84.286 67.3017C85.6984 66.6401 87.2955 66.4559 88.8265 66.7782C90.229 67.2214 91.4852 68.0225 92.4658 69.099C93.4463 70.1755 94.1157 71.4883 94.4049 72.9022C94.5745 74.0013 94.5745 75.119 94.4049 76.2181C94.2622 78.5598 93.9752 80.891 93.5454 83.1989C92.9454 85.896 90.5941 88.958 90.6427 90.5763C90.623 91.2445 90.8421 91.8986 91.2625 92.4258C91.6829 92.9529 92.278 93.32 92.9454 93.4638C93.5193 93.5923 94.0582 93.8402 94.5255 94.1906C94.9928 94.541 95.3775 94.9857 95.6535 95.4945C94.961 94.8573 94.0928 94.4326 93.1562 94.2729C92.5114 94.1593 91.9061 93.8889 91.396 93.4865C90.8858 93.0842 90.4873 92.5628 90.237 91.9704C89.9867 91.378 89.8927 90.7335 89.9636 90.0962C90.0345 89.4589 90.268 88.8493 90.6427 88.3234C91.7198 86.4267 92.5531 84.4071 93.1238 82.3104C92.1702 82.9068 91.1073 83.3163 89.9941 83.5162C89.5724 83.5162 89.6211 83.1989 89.6211 83.1989C91.1229 82.7387 92.4389 81.8285 93.3833 80.5969C93.4081 80.116 93.4081 79.6341 93.3833 79.1532C91.8521 79.8419 90.2013 80.2403 88.5184 80.3272C88.3558 80.3779 88.1863 80.4047 88.0157 80.4065C87.4811 80.395 86.971 80.1852 86.5887 79.8195C84.9283 84.3102 84.3728 89.1205 84.967 93.8604C85.7941 99.7147 88.0968 108.139 92.8319 113.518C97.8589 119.245 103.518 116.929 103.583 116.897C112.551 115.31 119.799 109.948 124.664 105.172C127.198 102.701 129.449 99.9664 131.378 97.0176V137.617C131.264 137.637 131.155 137.675 131.054 137.728L130.421 137.998C129.708 138.331 129.237 139.029 129.416 139.584L129.902 142.393C130.048 142.9 130.697 143.059 131.378 142.805V146.819C130.917 146.861 130.481 147.047 130.137 147.35C129.792 147.653 129.556 148.057 129.464 148.501L129.091 150.087L127.47 149.722C126.902 149.598 126.307 149.7 125.816 150.005C125.325 150.31 124.978 150.793 124.851 151.349C124.724 151.904 124.828 152.486 125.14 152.967C125.451 153.447 125.945 153.787 126.513 153.911L128.135 154.276L127.762 155.862C127.656 156.417 127.777 156.99 128.098 157.459C128.42 157.927 128.916 158.254 129.481 158.369C129.809 158.448 130.152 158.451 130.481 158.376C130.811 158.302 131.118 158.153 131.378 157.941V164.43L130.535 164.271L130.908 162.684C130.976 162.148 130.835 161.606 130.512 161.167C130.189 160.728 129.708 160.425 129.166 160.319C128.624 160.212 128.061 160.31 127.59 160.593C127.119 160.876 126.775 161.323 126.626 161.844L126.254 163.43L124.632 163.065C124.342 162.986 124.038 162.966 123.74 163.007C123.442 163.048 123.156 163.149 122.899 163.303C122.643 163.457 122.421 163.661 122.249 163.903C122.077 164.144 121.957 164.418 121.898 164.707C121.839 164.996 121.841 165.293 121.904 165.581C121.968 165.869 122.092 166.141 122.268 166.38C122.444 166.619 122.668 166.82 122.927 166.97C123.186 167.121 123.474 167.217 123.772 167.254L125.394 167.619L125.021 169.205C124.981 169.436 124.981 169.77 125.021 170.001H30.8373L30.9995 168.539C31.0167 168.471 31.0058 168.4 30.9693 168.341C30.9329 168.281 30.8737 168.238 30.8049 168.221C30.7361 168.205 30.6632 168.215 30.6024 168.251C30.5416 168.287 30.4978 168.345 30.4806 168.412L28.8589 169.998H19.486C18.1957 169.998 16.9583 169.497 16.046 168.604C15.1336 167.712 14.6211 166.501 14.6211 165.239V160.781L57.7238 123.989C56.5238 78.5503 80.1995 56.4022 83.2968 53.7051C84.302 50.919 85.6353 48.2569 87.2697 45.7724C89.5534 42.4642 92.5503 39.6859 96.0495 37.6328C99.5488 35.5798 103.465 34.302 107.524 33.8892C113.22 33.2276 118.99 33.5607 124.567 34.8729C127.02 35.6345 129.323 36.7987 131.378 38.3157V47.6287C127.794 43.2657 121.875 36.1897 120.935 35.9041C120.168 35.6684 119.37 35.5455 118.567 35.5392H118.486ZM39.0265 162.288C38.686 161.923 38.2806 161.574 38.0373 161.352C37.967 161.294 37.878 161.262 37.786 161.262C37.6939 161.262 37.6049 161.294 37.5346 161.352L36.5941 162.256C36.5436 162.307 36.5094 162.371 36.4957 162.441C36.4819 162.511 36.4893 162.583 36.5168 162.649C36.5444 162.714 36.5909 162.771 36.6507 162.811C36.7105 162.851 36.781 162.873 36.8535 162.875H38.7508C38.8267 162.892 38.9063 162.886 38.9783 162.857C39.0504 162.827 39.1112 162.777 39.1524 162.712C39.1936 162.647 39.2129 162.572 39.2078 162.495C39.2027 162.419 39.1733 162.347 39.1238 162.288H39.0265ZM40.9562 147.66C40.9562 147.283 40.8421 146.915 40.6283 146.602C40.4145 146.289 40.1105 146.045 39.755 145.901C39.3994 145.757 39.0081 145.719 38.6306 145.793C38.2532 145.866 37.9064 146.047 37.6343 146.314C37.3621 146.58 37.1768 146.919 37.1017 147.288C37.0266 147.658 37.0652 148.041 37.2125 148.388C37.3597 148.736 37.6092 149.034 37.9292 149.243C38.2492 149.452 38.6254 149.564 39.0103 149.564C39.2739 149.577 39.5374 149.537 39.7849 149.447C40.0323 149.357 40.2585 149.219 40.4496 149.041C40.6407 148.863 40.7928 148.649 40.8967 148.411C41.0005 148.174 41.0539 147.918 41.0535 147.66H40.9562ZM73.8914 130.906C73.8882 131.284 74 131.654 74.2126 131.97C74.4251 132.285 74.7289 132.532 75.0851 132.678C75.4413 132.824 75.8339 132.863 76.2129 132.79C76.5919 132.717 76.9401 132.535 77.2132 132.268C77.4864 132.001 77.672 131.66 77.7466 131.289C77.8211 130.919 77.7812 130.535 77.632 130.186C77.4827 129.837 77.2307 129.54 76.9083 129.332C76.5858 129.124 76.2073 129.015 75.8211 129.018C75.3093 129.018 74.8185 129.217 74.4566 129.571C74.0947 129.925 73.8914 130.405 73.8914 130.906ZM65.2157 132.366L64.7941 132.191C65.0049 132.794 65.2157 133.429 65.4265 134.127L65.8157 133.762C66.1887 133.318 65.9292 132.699 65.2157 132.366ZM68.8481 138.363L70.8914 136.142C71.2319 135.682 70.8914 135.079 70.1778 134.793L69.5616 134.571C69.2387 134.425 68.878 134.379 68.5274 134.438C68.1769 134.498 67.8532 134.66 67.5995 134.904L66.0914 136.491C66.2535 137.157 66.4157 137.839 66.5779 138.537L66.9022 138.664C67.2185 138.818 67.5756 138.871 67.9242 138.817C68.2729 138.763 68.5957 138.604 68.8481 138.363ZM72.9995 159.258C72.9995 158.884 72.8863 158.519 72.6743 158.209C72.4622 157.898 72.1608 157.656 71.8082 157.513C71.4556 157.37 71.0676 157.333 70.6933 157.406C70.3189 157.479 69.9751 157.658 69.7052 157.922C69.4353 158.187 69.2515 158.523 69.1771 158.889C69.1026 159.255 69.1408 159.635 69.2869 159.98C69.433 160.325 69.6803 160.62 69.9976 160.827C70.315 161.035 70.6881 161.145 71.0697 161.145C71.5815 161.145 72.0724 160.947 72.4343 160.593C72.7962 160.238 72.9995 159.758 72.9995 159.258ZM75.367 136.903L74.7022 136.681C74.3735 136.557 74.0136 136.534 73.6713 136.616C73.3291 136.699 73.0209 136.882 72.7887 137.141L70.9238 139.489C70.6319 139.981 71.0049 140.568 71.767 140.79L72.4157 140.981C72.7447 141.103 73.1039 141.124 73.4457 141.042C73.7874 140.96 74.0956 140.778 74.3292 140.52L76.2427 138.268C76.4697 137.712 76.0968 137.125 75.3346 136.903H75.367ZM80.7022 138.664L80.0373 138.521C79.7036 138.407 79.3407 138.402 79.004 138.508C78.6674 138.614 78.3753 138.825 78.1724 139.108L76.5508 141.568C76.2914 142.075 76.713 142.631 77.4914 142.805L78.14 142.964C78.4788 143.065 78.8414 143.062 79.1782 142.954C79.5149 142.846 79.8093 142.639 80.0211 142.361L81.6427 139.918C81.8697 139.41 81.4481 138.855 80.6697 138.664H80.7022ZM126.805 133.905C126.802 134.282 126.913 134.653 127.126 134.968C127.339 135.284 127.642 135.53 127.999 135.676C128.355 135.822 128.747 135.861 129.126 135.788C129.505 135.715 129.854 135.534 130.127 135.267C130.4 134.999 130.586 134.659 130.66 134.288C130.735 133.917 130.695 133.533 130.545 133.185C130.396 132.836 130.144 132.539 129.822 132.331C129.499 132.123 129.121 132.014 128.735 132.017C128.473 132.012 128.213 132.06 127.971 132.157C127.729 132.254 127.509 132.398 127.325 132.58C127.142 132.763 126.998 132.98 126.903 133.219C126.808 133.457 126.764 133.712 126.772 133.968L126.805 133.905ZM123.935 141.266L124.178 144.122C124.291 144.661 125.005 144.868 125.799 144.582L126.432 144.344C127.178 144.058 127.697 143.392 127.567 142.853L127.324 139.997C127.21 139.457 126.497 139.251 125.702 139.537L125.07 139.775C124.291 140.124 123.772 140.79 123.902 141.33L123.935 141.266ZM118.162 142.44V145.28C118.162 145.835 118.924 146.137 119.702 145.962L120.367 145.804C121.129 145.629 121.713 145.042 121.632 144.487V141.71C121.632 141.155 120.87 140.854 120.01 141.044L119.362 141.187C118.632 141.441 118.048 141.948 118.129 142.504L118.162 142.44ZM114.27 122.529C114.267 122.907 114.378 123.277 114.591 123.593C114.804 123.908 115.107 124.155 115.463 124.301C115.82 124.447 116.212 124.486 116.591 124.413C116.97 124.34 117.318 124.158 117.592 123.891C117.865 123.624 118.05 123.283 118.125 122.912C118.2 122.542 118.16 122.158 118.01 121.809C117.861 121.461 117.609 121.163 117.287 120.955C116.964 120.747 116.586 120.638 116.199 120.641C115.688 120.641 115.197 120.84 114.835 121.194C114.473 121.548 114.27 122.028 114.27 122.529ZM112.113 145.962C112.113 146.518 112.794 146.851 113.589 146.724L114.254 146.629C115.048 146.502 115.664 145.946 115.648 145.391L115.891 142.567C115.891 142.012 115.21 141.663 114.432 141.79L113.751 141.901C112.972 142.028 112.34 142.583 112.372 143.122L112.113 145.962ZM106.081 146.2C106.081 146.756 106.681 147.136 107.475 147.073H108.156C108.951 147.073 109.616 146.486 109.648 145.931L110.151 143.027C110.151 142.472 109.535 142.091 108.74 142.17H108.059C107.264 142.17 106.599 142.742 106.567 143.297L106.081 146.2ZM105.756 162.589C105.753 162.966 105.864 163.336 106.076 163.651C106.288 163.966 106.591 164.213 106.946 164.359C107.301 164.506 107.693 164.546 108.072 164.474C108.45 164.403 108.799 164.223 109.072 163.957C109.346 163.691 109.533 163.352 109.609 162.982C109.686 162.613 109.648 162.229 109.501 161.88C109.355 161.531 109.105 161.233 108.785 161.023C108.465 160.813 108.088 160.701 107.702 160.701C107.449 160.699 107.197 160.746 106.962 160.839C106.728 160.932 106.514 161.069 106.333 161.243C106.152 161.417 106.008 161.624 105.909 161.852C105.81 162.08 105.758 162.325 105.756 162.573V162.589ZM103.032 142.202H102.351C101.556 142.202 100.843 142.694 100.729 143.249L99.9833 146.01C99.9833 146.565 100.502 146.994 101.313 146.962H101.994C102.344 146.982 102.691 146.891 102.983 146.702C103.275 146.513 103.497 146.237 103.616 145.915L104.345 143.154C104.427 142.599 103.81 142.17 103.032 142.202ZM98.8481 135.856C98.8513 136.229 98.9672 136.592 99.1812 136.901C99.3952 137.209 99.6977 137.449 100.051 137.589C100.403 137.729 100.791 137.765 101.164 137.69C101.537 137.615 101.88 137.434 102.148 137.17C102.416 136.905 102.598 136.569 102.672 136.203C102.745 135.837 102.706 135.458 102.559 135.114C102.413 134.77 102.165 134.476 101.848 134.269C101.531 134.063 101.159 133.952 100.778 133.952C100.522 133.952 100.268 134.002 100.032 134.099C99.7955 134.196 99.5813 134.338 99.4017 134.516C99.2221 134.695 99.0806 134.907 98.9856 135.14C98.8905 135.372 98.8438 135.621 98.8481 135.872V135.856ZM93.9833 145.47C93.8535 146.01 94.4049 146.47 95.2157 146.502H95.8968C96.233 146.53 96.57 146.455 96.8607 146.288C97.1513 146.12 97.3813 145.867 97.5184 145.566L98.4914 142.853C98.6049 142.313 98.0535 141.853 97.2589 141.821H96.5616C96.2254 141.793 95.8884 141.868 95.5977 142.036C95.3071 142.203 95.0771 142.456 94.94 142.758L93.9833 145.47ZM89.2806 120.625C89.2773 121.002 89.3887 121.372 89.6006 121.687C89.8125 122.002 90.1152 122.249 90.4705 122.395C90.8258 122.542 91.2176 122.582 91.5961 122.51C91.9746 122.439 92.3229 122.259 92.5967 121.993C92.8704 121.727 93.0574 121.388 93.1338 121.018C93.2102 120.649 93.1726 120.265 93.0258 119.916C92.879 119.567 92.6296 119.269 92.3093 119.059C91.9889 118.849 91.6121 118.737 91.2265 118.737C90.7175 118.746 90.2325 118.95 89.8772 119.307C89.5218 119.664 89.3249 120.143 89.3292 120.641L89.2806 120.625ZM89.2157 145.661H89.8968C90.2406 145.727 90.5971 145.682 90.9128 145.534C91.2285 145.385 91.4865 145.14 91.6481 144.836L92.8481 142.202C93.0103 141.663 92.5076 141.171 91.6968 141.092H91.0157C90.6646 141.014 90.2972 141.053 89.9713 141.203C89.6455 141.352 89.3796 141.603 89.2157 141.917L88.0806 144.614C87.9022 145.09 88.4211 145.582 89.2157 145.661ZM89.9779 76.8686C89.9779 76.7734 89.9779 76.694 89.9779 76.5989L89.1346 76.2498C89.1875 76.452 89.2148 76.6598 89.2157 76.8686C89.2157 77.8522 88.6319 78.6455 87.9184 78.6455C87.2049 78.6455 86.6049 77.8522 86.6049 76.8686C86.6006 76.4167 86.7363 75.9742 86.9941 75.5993C86.7022 75.52 86.4103 75.4724 86.1346 75.4248C85.9431 75.8831 85.8439 76.3734 85.8427 76.8686C85.8427 78.4551 86.767 79.7085 87.9184 79.7085C89.0697 79.7085 89.9779 78.4392 89.9779 76.8686ZM92.3779 78.1061C91.8192 77.6018 91.1848 77.1845 90.4968 76.8686C90.5276 77.8415 90.2123 78.7948 89.6049 79.5657C91.94 79.1849 92.4589 78.1061 92.4589 78.1061H92.3779ZM84.4481 69.507C84.8211 71.6171 85.3887 73.632 85.5833 74.2666H85.9562C87.6594 74.5162 89.3055 75.053 90.8211 75.8532C91.5057 76.2631 92.128 76.7651 92.6697 77.3445C92.6697 77.3445 93.2373 77.9315 93.3022 77.1541C92.718 75.9188 91.7543 74.8927 90.5454 74.219C89.4624 73.6546 88.2289 73.4276 87.0103 73.5686C87.0103 73.5686 86.7022 72.696 88.4211 72.696C90.3109 73.1372 91.9543 74.2735 93.0103 75.869C93.0103 75.869 93.5778 76.3291 93.7887 76.0594C93.9824 75.1679 93.9601 74.2444 93.7236 73.3628C93.4871 72.4812 93.0428 71.666 92.4265 70.9825C91.6698 70.1797 90.7264 69.5672 89.6763 69.1971C88.6261 68.827 87.5002 68.7102 86.3941 68.8565C85.7229 69.0025 85.0703 69.2207 84.4481 69.507ZM83.6535 140.695L82.2265 143.249C82.0157 143.773 82.486 144.296 83.2643 144.423L83.9454 144.534C84.284 144.621 84.6423 144.599 84.9668 144.47C85.2912 144.342 85.5644 144.114 85.7454 143.82L87.1724 141.266C87.3833 140.743 86.9292 140.219 86.1346 140.092L85.4535 139.981C85.1149 139.894 84.7566 139.917 84.4322 140.045C84.1077 140.174 83.8346 140.402 83.6535 140.695ZM85.9724 53.134C88.1767 50.779 89.836 47.9867 90.8373 44.9474C89.0672 46.7864 87.6745 48.9408 86.7346 51.2936C86.4914 51.6585 86.2319 52.309 85.9724 53.134ZM84.6914 57.4811C89.51 54.0153 92.7564 48.8469 93.74 43.0753C93.2285 43.2674 92.7393 43.5121 92.2806 43.8051C91.1356 48.2732 88.6709 52.3124 85.1941 55.4186C84.9995 56.0215 84.8049 56.7354 84.6427 57.4811H84.6914ZM96.0427 42.5993C95.6619 42.591 95.2813 42.6229 94.9076 42.6945C94.3724 46.0421 92.2481 54.1811 84.3508 58.9407C84.2697 59.4166 84.2049 59.9085 84.14 60.4003C94.9238 55.2282 96.0103 43.5989 96.0751 42.6311L96.0427 42.5993ZM104.508 47.0258V47.1527C105.475 49.17 106.9 50.9445 108.675 52.3407L104.508 47.0258ZM100.291 43.5037C100.444 45.6606 100.993 47.7728 101.913 49.7388C103.003 51.9163 104.596 53.8157 106.566 55.2862C108.536 56.7567 110.83 57.7581 113.264 58.2109L110.767 54.895C108.757 53.8514 106.989 52.4142 105.571 50.6727C104.154 48.9313 103.119 46.923 102.529 44.7729C101.857 44.2447 101.108 43.817 100.308 43.5037H100.291ZM116.313 62.2883L114.237 59.5118C101.264 57.0368 99.3995 46.9147 99.1724 43.107C98.5085 42.919 97.8309 42.7811 97.1454 42.6945C97.0743 45.8527 97.7456 48.9847 99.1076 51.8489C102.189 57.9253 107.881 61.4315 116.329 62.2883H116.313ZM104.799 66.0801C100.616 66.9844 100.989 68.8407 101.297 69.2532C101.605 69.6657 102.156 69.2532 105.837 68.4599C109.518 67.6666 113.459 69.7291 114.318 70.0465C114.873 70.2482 115.483 70.2482 116.037 70.0465C114.367 68.5392 108.967 65.1758 104.799 66.0801ZM102.189 79.3436C101.612 79.1333 101.004 79.0154 100.389 78.9945C99.9508 79.0739 99.6427 79.0739 99.9995 78.8359C100.893 77.796 101.63 76.6367 102.189 75.3931C101.979 75.3576 101.773 75.3046 101.572 75.2344C100.518 74.8061 100.437 73.1085 100.437 73.1085C100.832 73.3443 101.244 73.5512 101.67 73.7272C102.015 73.8174 102.368 73.8759 102.724 73.9017C103.34 73.394 105.529 72.3152 109.21 73.759C111.803 74.8445 114.045 76.5995 115.697 78.8359H115.162C114.206 78.9444 113.278 79.2184 112.421 79.645C109.095 80.822 105.436 80.7142 102.189 79.3436ZM104.264 74.0921C105.59 74.2891 106.901 74.57 108.189 74.933C109.507 75.33 110.779 75.8618 111.983 76.5195H112.113C112.405 76.6623 113.086 76.9955 112.664 76.5195C111.005 74.9911 108.945 73.9422 106.713 73.4892C105.091 73.3465 104.459 73.8224 104.248 74.0921H104.264ZM103.194 76.3926C103.155 76.7196 103.187 77.0509 103.288 77.3649C103.389 77.6789 103.557 77.9684 103.781 78.2143C104.004 78.4603 104.279 78.6571 104.586 78.7919C104.893 78.9267 105.225 78.9964 105.562 78.9964C105.898 78.9964 106.231 78.9267 106.538 78.7919C106.845 78.6571 107.119 78.4603 107.343 78.2143C107.566 77.9684 107.734 77.6789 107.835 77.3649C107.936 77.0509 107.968 76.7196 107.929 76.3926C107.929 76.3133 107.929 76.2498 107.929 76.1705L106.972 76.0118C107.015 76.135 107.043 76.2629 107.054 76.3926C107.085 76.5958 107.071 76.8031 107.013 77.0006C106.954 77.198 106.853 77.3808 106.716 77.5365C106.579 77.6922 106.41 77.8171 106.219 77.9028C106.028 77.9884 105.82 78.0328 105.61 78.0328C105.4 78.0328 105.193 77.9884 105.002 77.9028C104.811 77.8171 104.641 77.6922 104.504 77.5365C104.367 77.3808 104.266 77.198 104.208 77.0006C104.15 76.8031 104.136 76.5958 104.167 76.3926C104.171 76.1514 104.226 75.9136 104.329 75.6945L103.356 75.6152C103.268 75.8664 103.213 76.1277 103.194 76.3926ZM112.259 79.1214C112.989 78.7565 112.956 78.4392 112.875 78.2806C112.114 77.4765 111.117 76.9223 110.021 76.694C109.535 76.5513 109.064 76.4243 108.578 76.3133V76.3926C108.622 77.2241 108.331 78.0393 107.767 78.6626C107.203 79.2859 106.411 79.6672 105.562 79.7243C104.809 79.686 104.096 79.3846 103.551 78.8751C103.006 78.3656 102.667 77.6817 102.594 76.9479L101.978 78.0109C101.931 78.0905 101.906 78.1807 101.906 78.2727C101.906 78.3646 101.931 78.4548 101.978 78.5344C103.459 79.2768 105.052 79.7804 106.697 80.0258C108.606 80.1683 110.521 79.8296 112.259 79.0421V79.1214ZM128.929 152.118C128.8 152.604 128.873 153.12 129.131 153.554C129.389 153.988 129.812 154.304 130.308 154.434C130.657 154.538 131.029 154.538 131.378 154.434V150.817C131.378 150.817 131.378 150.817 131.281 150.817C130.793 150.69 130.273 150.755 129.833 150.998C129.394 151.241 129.069 151.643 128.929 152.118ZM94.4211 104.268C93.7562 103.983 93.1724 105.553 94.6319 106.267C95.5544 106.698 96.6109 106.766 97.5833 106.458C94.6319 106.267 94.4211 104.268 94.4211 104.268ZM97.3238 108.298C97.5508 108.663 98.5238 108.472 98.1995 107.758C97.8751 107.045 95.1995 107.758 95.1995 107.758C95.5562 107.711 97.0806 107.933 97.3238 108.298ZM103.21 104.062C103.345 104.151 103.499 104.21 103.66 104.234C103.822 104.257 103.986 104.245 104.142 104.198C104.298 104.15 104.441 104.069 104.56 103.961C104.68 103.852 104.772 103.719 104.832 103.57C105.189 102.808 104.183 102.348 104.216 102.348C104.248 102.348 104.005 103.031 103.729 103.126C103.454 103.221 102.708 102.888 101.864 102.221C101.021 101.555 99.4319 99.7782 98.6211 99.7464C97.8103 99.7147 96.9995 100.508 95.9941 100.508C94.9887 100.508 94.3724 99.7782 93.6751 100.048C92.9778 100.318 92.7346 102.618 91.9076 102.761C91.0806 102.904 90.9346 102.301 90.9346 102.301C90.2535 102.666 90.6589 104.014 91.486 104.109C92.313 104.205 92.686 103.348 94.0157 103.078C94.4123 103.002 94.8214 103.015 95.212 103.117C95.6026 103.219 95.9643 103.406 96.2697 103.665C98.7833 102.269 102.61 103.697 103.194 104.062H103.21ZM101.913 81.2791C101.913 81.2791 102.059 83.5479 105.156 83.1671C103.986 82.6879 102.889 82.0526 101.897 81.2791H101.913ZM100.454 91.5916C99.9925 91.358 99.4809 91.236 98.9616 91.236C98.4424 91.236 97.9308 91.358 97.4697 91.5916C97.1578 91.809 96.9346 92.1274 96.8396 92.4904C96.7446 92.8534 96.784 93.2375 96.9508 93.5748C96.9508 92.4801 98.0535 92.0676 99.1238 92.1787C100.194 92.2897 101.102 93.7652 102.254 92.9878C103.097 92.3849 102.626 91.0998 102.254 90.4652C102.464 90.9888 102.545 91.7027 102.043 92.0517C101.54 92.4008 100.81 91.8138 100.437 91.5916H100.454ZM102.075 90.1003C102.152 90.218 102.223 90.3398 102.286 90.4652C102.238 90.3358 102.172 90.2131 102.091 90.1003H102.075Z" fill="#24242E"/>
<path d="M117.675 44.8332C116.151 42.8282 116.654 41.9371 117.059 41.6507C117.464 41.3643 118.518 41.4916 119.086 40.8232C119.346 40.5329 119.489 40.1595 119.489 39.773C119.489 39.3865 119.346 39.0132 119.086 38.7228L124.081 44.5149C123.839 44.2079 123.491 43.998 123.103 43.9247C122.715 43.8515 122.313 43.9199 121.972 44.1171C121.21 44.5627 121.275 45.5651 120.837 45.963C120.399 46.3608 119.491 46.6631 117.708 44.865L117.675 44.8332ZM123.27 51.8187C125.054 53.6168 126.026 53.2508 126.399 52.9008C126.772 52.5507 126.772 51.5164 127.535 51.0708C127.875 50.8736 128.277 50.8052 128.665 50.8784C129.054 50.9517 129.401 51.1616 129.643 51.4687L124.535 45.6765C124.795 45.9669 124.938 46.3402 124.938 46.7267C124.938 47.1133 124.795 47.4866 124.535 47.777C123.967 48.4453 122.913 48.2384 122.508 48.5885C122.102 48.9386 121.583 49.7978 123.124 51.771L123.27 51.8187ZM116.264 125.732C117.121 125.828 117.968 125.998 118.794 126.241L123.043 119.653C123.043 119.653 121.664 119.844 118.745 120.163C119.181 120.64 119.467 121.23 119.57 121.862C119.673 122.494 119.589 123.142 119.328 123.729C119.067 124.316 118.639 124.817 118.096 125.172C117.553 125.527 116.917 125.721 116.264 125.732ZM112.794 122.39C112.8 121.83 112.957 121.281 113.248 120.799L107.41 121.356L110.508 126.734C111.836 126.059 113.309 125.705 114.805 125.7H115.518C114.743 125.545 114.047 125.13 113.55 124.526C113.053 123.922 112.786 123.167 112.794 122.39ZM108.675 137.125L106.064 132.765C105.394 133.086 104.7 133.357 103.989 133.577L103.47 133.72C103.87 134.223 104.113 134.828 104.17 135.463C104.228 136.098 104.097 136.736 103.794 137.3C105.432 137.316 107.054 137.253 108.675 137.125ZM130.129 54.7307C129.578 55.4149 128.508 55.2081 128.118 55.5581C127.729 55.9082 127.194 56.7516 128.735 58.7406C129.983 59.9818 130.843 60.1792 131.378 60.0678V54.1628L130.048 52.6303C130.32 52.9109 130.477 53.2789 130.492 53.6655C130.507 54.0521 130.378 54.4308 130.129 54.7307ZM32.0535 149.76L14.6211 164.956V165.227C14.6258 166.053 14.8428 166.948 15.2672 167.607L31.7454 153.611C31.7454 153.611 39.8535 158.257 46.2427 170H49.6806C46.1616 163.635 40.0806 154.724 32.0535 149.76ZM36.9995 160.182C37.077 160.1 37.12 159.992 37.12 159.88C37.12 159.768 37.077 159.66 36.9995 159.578C36.4319 158.989 35.8643 158.448 35.3779 157.986C35.294 157.91 35.1839 157.868 35.0697 157.868C34.9555 157.868 34.8455 157.91 34.7616 157.986L22.7292 170H27.2373L36.9995 160.182ZM131.378 127.912V126.321L128.702 122.677L125.054 128.628C125.562 129.02 126.154 129.297 126.785 129.437C127.416 129.577 128.071 129.578 128.702 129.44C129.759 129.282 130.716 128.736 131.378 127.912ZM114.205 170H118.502L123.075 151.319C123.174 151.069 123.207 150.799 123.171 150.534C123.135 150.268 123.032 150.016 122.87 149.8C122.708 149.584 122.494 149.412 122.246 149.299C121.999 149.186 121.726 149.137 121.454 149.155C114.399 150.03 102.221 149.887 101.54 149.998C101.313 150.052 101.101 150.155 100.921 150.301C100.741 150.448 100.598 150.633 100.502 150.842C98.3292 156.172 95.4371 164.606 93.6371 170H97.2858C99.3452 163.635 102.626 153.77 102.789 153.245C102.951 152.719 104.054 152.767 104.054 152.767C106.518 152.879 114.789 152.481 117.367 152.369C117.471 152.368 117.574 152.389 117.669 152.431C117.764 152.473 117.848 152.535 117.916 152.612C117.984 152.689 118.034 152.78 118.063 152.879C118.091 152.977 118.097 153.08 118.081 153.181L114.205 170ZM124.567 107.114C121.821 109.802 118.684 112.075 115.259 113.861C115.191 113.9 115.139 113.96 115.112 114.032C115.084 114.104 115.083 114.183 115.107 114.256C115.132 114.328 115.182 114.391 115.248 114.432C115.314 114.473 115.392 114.491 115.47 114.482C117.594 114.164 120.983 113.591 124.567 112.763C126.913 112.238 129.196 111.47 131.378 110.472V99.5242C129.425 102.312 127.138 104.86 124.567 107.114ZM27.9833 163.508L28.7292 162.728C28.7879 162.678 28.8349 162.615 28.867 162.545C28.8992 162.475 28.9159 162.399 28.9159 162.323C28.9159 162.246 28.8992 162.17 28.867 162.1C28.8349 162.03 28.7879 161.968 28.7292 161.917C28.0643 161.392 26.9779 160.564 26.4427 160.166C26.3435 160.096 26.2244 160.059 26.1022 160.059C25.98 160.059 25.8609 160.096 25.7616 160.166C25.486 160.373 25.1616 160.644 24.9022 160.867C24.8401 160.92 24.7903 160.986 24.7562 161.061C24.7222 161.135 24.7045 161.215 24.7045 161.296C24.7045 161.377 24.7222 161.458 24.7562 161.532C24.7903 161.606 24.8401 161.672 24.9022 161.726L27.2049 163.635C27.3261 163.717 27.4751 163.75 27.6203 163.726C27.7655 163.702 27.8957 163.624 27.9833 163.508ZM32.9778 158.161L33.6103 157.509C33.659 157.466 33.6979 157.413 33.7246 157.354C33.7512 157.295 33.765 157.231 33.765 157.167C33.765 157.102 33.7512 157.039 33.7246 156.98C33.6979 156.921 33.659 156.868 33.6103 156.825C33.0589 156.379 32.1346 155.695 31.6968 155.361C31.6141 155.303 31.5148 155.271 31.413 155.271C31.3112 155.271 31.2119 155.303 31.1292 155.361C30.8756 155.544 30.632 155.741 30.3995 155.95C30.3452 155.993 30.3015 156.047 30.2715 156.109C30.2415 156.171 30.2259 156.239 30.2259 156.308C30.2259 156.376 30.2415 156.444 30.2715 156.506C30.3015 156.568 30.3452 156.622 30.3995 156.666L32.3616 158.257C32.4603 158.311 32.5748 158.332 32.6867 158.314C32.7985 158.297 32.9011 158.243 32.9778 158.161ZM22.0643 169.3L22.9238 168.409C22.9902 168.349 23.0432 168.277 23.0794 168.196C23.1157 168.115 23.1344 168.028 23.1344 167.94C23.1344 167.851 23.1157 167.764 23.0794 167.683C23.0432 167.602 22.9902 167.53 22.9238 167.47C22.1779 166.881 20.9292 165.879 20.3292 165.481C20.2159 165.401 20.0797 165.358 19.94 165.358C19.8003 165.358 19.6641 165.401 19.5508 165.481C19.2265 165.72 18.8535 166.022 18.5616 166.277C18.4899 166.337 18.4322 166.411 18.3927 166.495C18.3531 166.579 18.3327 166.67 18.3327 166.762C18.3327 166.854 18.3531 166.946 18.3927 167.03C18.4322 167.113 18.4899 167.188 18.5616 167.247L21.2373 169.364C21.361 169.45 21.5115 169.49 21.6625 169.479C21.8136 169.467 21.9558 169.404 22.0643 169.3ZM102.708 127.037L99.0589 130.219C99.6518 130.597 100.319 130.85 101.017 130.959C101.715 131.069 102.429 131.034 103.113 130.856C103.614 130.704 104.103 130.512 104.572 130.283L102.708 127.037ZM111.918 129.201L114.237 133.243L117.108 128.803C116.341 128.634 115.558 128.543 114.772 128.533C113.781 128.535 112.804 128.764 111.918 129.201ZM79.6643 125.652L78.967 122.024L76.6643 123.982C76.9943 124.473 77.4382 124.88 77.9597 125.171C78.4811 125.461 79.0653 125.626 79.6643 125.652ZM90.1238 112.27C88.2469 109.603 86.7773 106.682 85.7616 103.598C85.7397 103.534 85.7019 103.477 85.6515 103.432C85.6012 103.387 85.5401 103.355 85.4737 103.339C85.4074 103.323 85.3381 103.324 85.2722 103.341C85.2063 103.359 85.146 103.392 85.0968 103.439L80.8968 107.242C80.6535 107.401 78.0427 109.231 79.486 109.66C80.6697 110.01 86.913 111.968 89.7346 112.843C89.8055 112.847 89.8764 112.833 89.9401 112.802C90.0038 112.771 90.058 112.725 90.0975 112.667C90.1369 112.608 90.1601 112.541 90.1647 112.472C90.1693 112.402 90.1552 112.333 90.1238 112.27ZM116.459 37.1634C116.798 36.9644 117.198 36.8935 117.586 36.9638C117.975 37.0341 118.323 37.2408 118.567 37.5453L116.67 35.3971C114.852 35.1711 113.019 35.0966 111.189 35.1743C111.01 35.6835 111.189 36.5269 112.145 37.8794C113.929 39.6616 114.902 39.3116 115.291 38.9615C115.681 38.6114 115.697 37.6089 116.459 37.1634ZM89.0535 123.09C88.706 122.802 88.421 122.449 88.2158 122.05C88.0106 121.652 87.8892 121.217 87.8589 120.771C87.8287 120.326 87.8901 119.879 88.0396 119.457C88.1892 119.035 88.4237 118.648 88.7292 118.317C87.4157 117.967 86.1346 117.617 85.0319 117.282L86.4427 123.647C87.2892 123.354 88.164 123.146 89.0535 123.027V123.09ZM91.5022 126.528C90.9015 126.113 90.1755 125.911 89.4427 125.955C88.6294 126.069 87.8305 126.266 87.0589 126.543L87.74 129.599L91.5022 126.528ZM125.556 133.306L124.632 132.511C124.324 132.288 123.967 132.017 123.545 131.747L120.399 136.727C121.823 136.656 123.239 136.47 124.632 136.17L126.513 135.773C125.735 135.343 125.491 133.243 125.491 133.243L125.556 133.306ZM78.6589 170C81.1076 163.476 85.9724 150.301 86.0697 149.982C86.167 149.664 86.686 148.773 86.0697 148.534C85.4535 148.296 71.9941 144.636 68.7184 143.458C68.7184 143.458 68.086 143.029 67.4697 144.19C67.4697 144.19 67.5995 147.993 67.4697 148.423C67.4697 148.423 69.4319 145.813 69.6914 146.004C73.9 147.494 78.2073 148.701 82.5833 149.616C82.7155 149.8 82.8142 150.005 82.8751 150.221C82.8751 150.38 77.8319 163.476 75.4319 170L78.6589 170ZM81.286 133.943L80.2643 128.596H80.086C79.4436 128.643 78.7976 128.589 78.1724 128.437C78.5141 128.751 78.7865 129.131 78.9728 129.552C79.159 129.974 79.255 130.428 79.255 130.888C79.255 131.347 79.159 131.801 78.9728 132.223C78.7865 132.645 78.5141 133.024 78.1724 133.338C79.1904 133.612 80.2332 133.788 81.286 133.863V133.943ZM94.5508 119.701C94.6354 119.986 94.679 120.28 94.6806 120.576C94.6826 121.272 94.4655 121.951 94.0591 122.52C93.6527 123.09 93.0768 123.523 92.4103 123.759C92.9204 124.012 93.3992 124.321 93.8373 124.682L98.8481 120.608C98.8481 120.608 97.0157 120.147 94.5508 119.622V119.701ZM75.8211 127.45H76.2427C75.6298 126.996 75.084 126.461 74.6211 125.859L69.7562 129.949C69.7562 129.949 70.8751 130.522 72.513 131.222C72.5044 131.068 72.5044 130.914 72.513 130.76C72.521 129.896 72.8701 129.068 73.487 128.451C74.1039 127.834 74.9405 127.475 75.8211 127.45ZM96.74 132.224L91.8751 136.282C93.7525 136.635 95.6468 136.895 97.5508 137.062C97.3881 136.673 97.3054 136.257 97.3076 135.836C97.3071 135.346 97.4156 134.861 97.6257 134.416C97.8357 133.97 98.1422 133.576 98.5238 133.259C97.8878 132.962 97.2892 132.593 96.74 132.161V132.224ZM70.0481 118.54C69.6682 118.354 69.2646 118.221 68.8481 118.142V121.404L70.9238 119.813C70.7186 119.337 70.4212 118.904 70.0481 118.54ZM73.8914 113.32L71.1995 115.898H71.3779C72.1891 116.358 72.8479 117.037 73.2751 117.855L77.1508 114.752L73.8914 113.32ZM63.2697 119.081L74.4427 109.533C75.5641 98.1676 79.1526 87.1696 84.967 77.2786C84.4943 76.3911 84.0878 75.4711 83.7508 74.5258C83.1279 74.2348 82.5751 73.8171 82.1292 73.3005L83.4103 73.571C82.4509 70.4793 82.0181 67.2535 82.1292 64.0236C82.1292 63.1643 82.1292 62.4323 82.2265 61.7163C69.4598 78.1743 62.7751 98.4027 63.2697 119.081Z" fill="#F4C900"/>
<path d="M111.043 170C111.643 166.97 113.167 159.214 114.286 155.725H105.27C104.556 157.152 102.205 164.099 100.405 170H98.5563C100.697 163.084 103.745 154.646 103.891 154.392C103.968 154.246 104.084 154.123 104.227 154.036C104.37 153.95 104.534 153.903 104.702 153.901H115.486C115.634 153.905 115.778 153.943 115.907 154.013C116.037 154.082 116.148 154.18 116.232 154.299C116.315 154.417 116.369 154.554 116.389 154.697C116.409 154.84 116.394 154.986 116.345 155.122C115.373 157.691 113.459 166.796 112.81 170H111.043ZM83.8968 88.4418C84.0175 86.7981 84.2614 85.1653 84.6266 83.5565C80.456 90.8374 77.9238 98.9057 77.1995 107.221L79.1617 105.54C79.8174 99.6337 81.4152 93.8643 83.8968 88.4418ZM74.3941 120.243C74.8968 121.227 75.3671 122.147 75.8698 122.924L80.1833 119.482L81.513 125.446C82.3401 125.208 83.2968 124.875 84.2374 124.542L84.9022 124.304L83.0374 116.786L79.0157 115.517L74.0212 119.482L74.3941 120.243ZM92.459 150.966L88.1941 154.361C88.0527 154.475 87.9494 154.629 87.8974 154.801C87.8454 154.973 87.8471 155.157 87.9022 155.328L89.686 160.483C89.7324 160.618 89.8115 160.741 89.9166 160.84C90.0217 160.939 90.1497 161.012 90.2898 161.053C90.4298 161.093 90.5778 161.1 90.7211 161.073C90.8644 161.045 90.9988 160.984 91.113 160.895L95.1347 157.723C95.2762 157.616 95.3814 157.469 95.4363 157.302C95.4913 157.135 95.4935 156.956 95.4428 156.787L93.8212 151.426C93.7799 151.295 93.7076 151.175 93.61 151.076C93.5124 150.977 93.3924 150.903 93.2596 150.858C93.1268 150.813 92.9851 150.799 92.846 150.818C92.7069 150.837 92.5743 150.888 92.459 150.966ZM101.897 120.608L95.2157 126.112C95.6622 126.658 96.0737 127.23 96.4482 127.825C96.7411 128.292 97.0895 128.723 97.486 129.11L103.113 124.431L106.194 129.506L107.67 128.539C108.14 128.221 108.627 127.888 109.129 127.587L104.945 120.656L101.897 120.608ZM118.113 137.357L122.086 130.918C121.002 130.28 119.856 129.748 118.664 129.332C116.783 132.314 115.162 134.756 114.983 135.105C114.351 136.184 113.702 135.105 113.702 135.105L110.621 130.03L109.34 130.87C108.821 131.219 108.27 131.584 107.718 131.933L111.221 137.722C113.329 137.849 118.145 137.405 118.145 137.405L118.113 137.357ZM92.913 127.841L86.9617 132.71L85.5995 127.175L85.2428 127.302C84.1563 127.682 83.1022 128.047 82.1455 128.317L83.5887 134.836C85.4543 135.41 87.3799 135.777 89.3293 135.93L95.232 131.029C94.7466 130.544 94.312 130.012 93.9347 129.443C93.6427 128.923 93.3121 128.424 92.9455 127.952L92.913 127.841ZM41.5076 170L41.832 166.827C41.85 166.65 41.83 166.47 41.7731 166.301C41.7162 166.131 41.6238 165.974 41.5017 165.842C41.3797 165.709 41.2306 165.602 41.0641 165.529C40.8976 165.456 40.7173 165.417 40.5347 165.416H34.6157C34.2864 165.419 33.9703 165.543 33.73 165.763C33.4897 165.984 33.2942 166.284 33.2698 166.605L32.459 170L41.5076 170ZM106.243 42.7776C105.35 41.5718 104.17 40.5972 102.805 39.9384C96.3185 36.8614 91.2752 43.4438 91.2752 43.4438C92.1594 42.7428 93.181 42.2263 94.2771 41.9262C95.3731 41.6262 96.5204 41.5488 97.6482 41.699C98.9767 41.8122 100.266 42.1984 101.431 42.8325C102.596 43.4667 103.612 44.3344 104.41 45.3788L131.378 80.5747V75.8163L106.243 42.7776ZM111.805 39.7798C110.486 38.1133 109.835 37.6189 107.864 36.7662C107.459 36.8455 105.854 36.6552 105.432 36.7662C106.972 37.6475 107.956 38.1738 109.227 39.3992C110.102 40.2081 122.394 56.4023 131.378 68.3774V65.8238L111.805 39.7798ZM131.378 124.304V118.61L130.648 117.737L125.783 118.768L124.486 120.354L120.221 126.953C121.378 127.389 122.496 127.919 123.562 128.539L128.621 120.957L131.378 124.304ZM48.5617 163.259C48.5617 163.259 60.8698 149.428 51.3671 133.123L44.7671 138.848C45.0266 139.404 49.113 148.666 42.9185 156.296C42.9185 156.169 47.9617 161.688 48.5617 163.259ZM91.632 169.08L90.0103 163.719C89.9724 163.575 89.8978 163.444 89.7936 163.337C89.6894 163.229 89.559 163.15 89.4146 163.105C89.2703 163.061 89.1167 163.053 88.9685 163.083C88.8202 163.112 88.6821 163.178 88.5671 163.275L84.3509 166.653C84.2094 166.768 84.1061 166.921 84.0541 167.093C84.0022 167.266 84.0038 167.449 84.059 167.621L84.886 170H91.3725C91.5024 169.888 91.5962 169.741 91.6422 169.577C91.6883 169.414 91.6848 169.241 91.632 169.08ZM66.513 119.926L63.9022 122.543V126.651C64.6935 127.523 65.5677 128.32 66.513 129.03C67.0352 129.226 67.6126 129.226 68.1347 129.03L73.4698 124.764C72.814 123.738 72.2132 122.679 71.6698 121.592V121.433L67.113 125.049V119.387L66.513 119.926ZM73.8914 170H68.0374L61.3401 166.827C63.7504 162.96 65.4978 158.732 66.513 154.313C68.1347 150.966 69.7563 148.064 69.7563 148.064C69.8576 147.868 70.0318 147.718 70.243 147.644C70.4542 147.57 70.6863 147.579 70.8914 147.667C71.7185 147.937 79.1455 150.221 80.1833 150.459C81.2212 150.697 81.1076 151.49 80.7995 152.441C80.4914 153.393 75.3833 166.161 73.8914 170ZM62.7995 165.685C65.7979 167.18 68.8722 168.525 72.0103 169.714C74.5563 162.815 78.4968 153.377 78.9347 152.092C76.9887 151.553 72.4482 150.173 70.8266 149.65L62.7995 165.685Z" fill="#C72F2A"/>
</g>
<path d="M27.3846 73.9243C23.2308 79.4627 18.4615 84.6935 13.2308 89.4627C12.9231 89.7704 12.9231 90.232 13.2308 90.5397C18.4615 95.3089 23.2308 100.54 27.3846 106.078C27.6923 106.54 28.3077 106.54 28.6154 106.078C32.7692 100.54 37.5385 95.3089 42.7692 90.5397C43.0769 90.232 43.0769 89.7704 42.7692 89.4627C37.5385 84.6935 32.7692 79.4627 28.6154 73.9243C28.3077 73.4627 27.6923 73.4627 27.3846 73.9243Z" fill="#BF3030"/>
<path d="M41.3166 68.514L37.6906 72.362L29.8466 64.666C29.2546 64.666 28.8846 64.74 27.9966 64.74C24.5186 64.74 18.3026 64.518 16.0086 58.228C15.4166 56.6 14.8246 54.528 14.8246 42.17C14.8246 37.878 14.8246 26.186 15.1946 22.56C15.4906 19.748 16.5266 10.942 28.4406 10.942C30.4386 10.942 35.1746 11.164 38.0606 14.864C40.4286 17.972 40.8726 21.894 40.8726 31.81C40.8726 36.546 40.6506 44.538 40.5026 48.46C40.2806 54.232 39.9846 60.226 34.8786 63.112L41.3166 68.514ZM21.4846 37.138C21.4846 47.942 21.4846 51.494 21.7066 53.418C21.8546 55.12 22.2986 59.412 27.7746 59.412C33.4726 59.412 33.7686 54.454 33.9166 51.05C34.0646 47.35 34.2126 40.838 34.2126 37.138C34.2126 34.4 34.2866 29.812 34.1386 24.854C34.0646 22.042 33.9166 16.418 28.1446 16.418C22.2986 16.418 21.9286 21.302 21.6326 24.78C21.4846 26.704 21.4846 28.628 21.4846 37.138Z" fill="#BF3030"/>
<defs>
<linearGradient id="paint0_linear_324_104491" x1="92" y1="2" x2="92" y2="182" gradientUnits="userSpaceOnUse">
<stop stop-color="white" stop-opacity="0.85"/>
<stop offset="1" stop-color="white" stop-opacity="0.15"/>
</linearGradient>
<clipPath id="clip0_324_104491">
<rect width="116.757" height="165" fill="white" transform="translate(14.6211 5)"/>
</clipPath>
</defs>
</svg>
