<svg width="184" height="184" viewBox="0 0 184 184" fill="none" xmlns="http://www.w3.org/2000/svg">
<rect x="1" y="1" width="182" height="182" rx="13" stroke="black" stroke-opacity="0.25" stroke-width="2"/>
<rect x="2.5" y="2.5" width="179" height="179" rx="11.5" fill="#E9E9E9" stroke="url(#paint0_linear_324_104579)"/>
<rect x="41.0469" y="30.5" width="101.909" height="123" rx="1.5" fill="#D7D5D7" stroke="#CDCFD6"/>
<path d="M103.96 106.144C98.7674 101.99 91.152 93.3362 88.0367 89.8747C87.3443 89.1824 85.9597 89.1824 85.2674 89.8747C82.152 93.3362 74.8828 101.99 69.3443 106.144C57.229 116.529 52.3828 121.375 52.3828 130.375C52.3828 140.759 61.3828 149.413 72.4597 149.413C76.6136 149.413 81.4597 148.029 84.5751 145.605L84.9213 145.259C84.229 150.452 82.4982 158.067 77.3059 163.259C76.6136 163.952 76.9597 164.644 77.9982 164.644H86.9982H95.9982C96.6905 164.644 97.0367 163.605 96.6905 163.259C91.4982 158.067 89.7674 150.798 89.0751 145.259L89.4213 145.605C92.1905 148.029 97.3828 149.413 101.537 149.413C112.614 149.413 121.614 140.759 121.614 130.375C121.614 121.375 116.767 116.529 103.96 106.144Z" fill="#24242E"/>
<path d="M35.5383 80.7311C33.2306 78.8849 29.846 75.0388 28.4614 73.5003C28.1537 73.1926 27.5383 73.1926 27.2306 73.5003C25.846 75.0388 22.6152 78.8849 20.1537 80.7311C14.7691 85.3465 12.6152 87.5003 12.6152 91.5003C12.6152 96.1157 16.6152 99.9618 21.5383 99.9618C23.3845 99.9618 25.5383 99.3465 26.9229 98.2695L27.0768 98.1157C26.7691 100.423 25.9998 103.808 23.6922 106.116C23.3845 106.423 23.5383 106.731 23.9998 106.731H27.9998H31.9998C32.3075 106.731 32.4614 106.27 32.3075 106.116C29.9998 103.808 29.2306 100.577 28.9229 98.1157L29.0768 98.2695C30.3075 99.3465 32.6152 99.9618 34.4614 99.9618C39.3845 99.9618 43.3845 96.1157 43.3845 91.5003C43.3845 87.5003 41.2306 85.3465 35.5383 80.7311Z" fill="#24242E"/>
<path d="M30.8101 11.756L42.3541 64H35.5461L33.6961 53.936H21.5601L19.7841 64H13.0501L24.2981 11.756H30.8101ZM22.6701 48.312H32.5861L27.4801 21.45L22.6701 48.312Z" fill="#24242E"/>
<defs>
<linearGradient id="paint0_linear_324_104579" x1="92" y1="2" x2="92" y2="182" gradientUnits="userSpaceOnUse">
<stop stop-color="white" stop-opacity="0.85"/>
<stop offset="1" stop-color="white" stop-opacity="0.15"/>
</linearGradient>
</defs>
</svg>
