<svg width="184" height="184" viewBox="0 0 184 184" fill="none" xmlns="http://www.w3.org/2000/svg">
<rect x="1" y="1" width="182" height="182" rx="13" stroke="black" stroke-opacity="0.25" stroke-width="2"/>
<rect x="2.5" y="2.5" width="179" height="179" rx="11.5" fill="#E9E9E9" stroke="url(#paint0_linear_324_104513)"/>
<rect x="41.0449" y="30.5" width="101.909" height="123" rx="1.5" fill="#D7D5D7" stroke="#CDCFD6"/>
<path d="M104.039 119.213C101.962 119.213 99.8854 119.559 97.8084 120.252C101.616 116.79 104.039 112.29 104.039 107.098C104.039 97.0592 95.3854 89.0977 85.0008 89.0977C74.6161 89.0977 65.9623 97.4054 65.9623 107.098C65.9623 112.29 68.3854 117.136 72.1931 120.252C70.1161 119.559 68.3854 119.213 65.9623 119.213C55.5777 119.213 46.9238 127.175 46.9238 137.213C46.9238 147.252 55.5777 155.213 65.9623 155.213C73.5777 155.213 79.8084 151.059 82.9238 145.175C82.5777 150.367 80.8469 158.328 75.6546 163.521C74.9623 164.213 75.3084 164.905 76.3469 164.905H85.0008H93.6546C94.3469 164.905 94.6931 163.867 94.3469 163.521C89.1546 158.328 87.4238 150.713 87.0777 145.175C90.1931 151.059 96.77 155.213 104.039 155.213C114.424 155.213 123.078 147.252 123.078 137.213C123.078 127.521 114.424 119.213 104.039 119.213Z" fill="#24242E"/>
<path d="M34.4608 86.537C33.5377 86.537 32.6146 86.6908 31.6916 86.9985C33.3839 85.46 34.4608 83.46 34.4608 81.1523C34.4608 76.6908 30.6146 73.1523 25.9992 73.1523C21.3839 73.1523 17.5377 76.8447 17.5377 81.1523C17.5377 83.46 18.6146 85.6139 20.3069 86.9985C19.3839 86.6908 18.6146 86.537 17.5377 86.537C12.9223 86.537 9.07617 90.0754 9.07617 94.537C9.07617 98.9985 12.9223 102.537 17.5377 102.537C20.9223 102.537 23.6916 100.691 25.0762 98.0754C24.9223 100.383 24.1531 103.922 21.8454 106.229C21.5377 106.537 21.6916 106.845 22.1531 106.845H25.9992H29.8454C30.1531 106.845 30.3069 106.383 30.1531 106.229C27.8454 103.922 27.0762 100.537 26.9223 98.0754C28.3069 100.691 31.23 102.537 34.4608 102.537C39.0762 102.537 42.9223 98.9985 42.9223 94.537C42.9223 90.2293 39.0762 86.537 34.4608 86.537Z" fill="#24242E"/>
<path d="M36.857 23.3C36.857 30.922 36.413 34.548 32.639 35.88C32.195 36.028 31.529 36.102 31.233 36.176C31.455 36.25 32.269 36.472 32.861 36.694C37.227 38.618 37.227 43.428 37.227 48.312C37.227 52.456 37.227 55.786 36.043 58.746C33.675 64.592 26.127 64.666 25.461 64.666C20.873 64.666 17.839 62.742 16.433 60.966C14.657 58.746 14.139 55.49 14.139 52.604C14.139 41.652 14.139 37.952 20.207 36.176C15.471 35.362 14.805 32.254 14.805 23.744C14.805 20.118 14.879 11.09 25.831 11.09C30.567 11.09 33.527 13.014 34.933 14.79C36.857 17.38 36.857 21.08 36.857 23.3ZM30.715 24.41C30.789 20.858 30.937 16.27 25.905 16.27C21.243 16.27 20.799 19.97 20.799 24.78C20.799 29.738 20.799 33.438 25.979 33.438C30.493 33.438 30.567 30.034 30.715 24.41ZM30.863 49.348C30.863 44.168 30.863 39.728 25.683 39.728C24.869 39.728 23.537 39.876 22.427 40.69C20.577 42.17 20.577 44.168 20.577 49.644C20.577 55.046 20.577 58.82 25.683 58.82C30.863 58.82 30.863 54.528 30.863 49.348Z" fill="#24242E"/>
<defs>
<linearGradient id="paint0_linear_324_104513" x1="92" y1="2" x2="92" y2="182" gradientUnits="userSpaceOnUse">
<stop stop-color="white" stop-opacity="0.85"/>
<stop offset="1" stop-color="white" stop-opacity="0.15"/>
</linearGradient>
</defs>
</svg>
