<svg width="184" height="184" viewBox="0 0 184 184" fill="none" xmlns="http://www.w3.org/2000/svg">
<rect x="1" y="1" width="182" height="182" rx="13" stroke="black" stroke-opacity="0.25" stroke-width="2"/>
<rect x="2.5" y="2.5" width="179" height="179" rx="11.5" fill="#E9E9E9" stroke="url(#paint0_linear_324_104507)"/>
<rect x="41.0449" y="30.5" width="101.909" height="123" rx="1.5" fill="#D7D5D7" stroke="#CDCFD6"/>
<path d="M99.1925 94.5898C94.0002 94.5898 89.154 96.6668 85.3463 100.128C85.0002 100.474 84.654 100.474 84.3079 100.128C80.8463 96.6668 76.0002 94.5898 70.4617 94.5898C59.3848 94.5898 50.3848 103.59 50.3848 115.013C50.3848 125.051 55.2309 130.244 68.0386 140.974C73.2309 145.474 80.8463 154.821 83.6156 158.628C84.3079 159.667 85.6925 159.667 86.3848 158.628C89.5002 154.821 96.7694 145.474 101.962 140.974C114.423 129.898 119.616 125.051 119.616 115.013C119.616 103.59 110.616 94.5898 99.1925 94.5898Z" fill="#BF3030"/>
<path d="M32.3076 75.5977C29.9999 75.5977 27.846 76.5207 26.1537 78.0592C25.9999 78.213 25.846 78.213 25.6922 78.0592C24.1537 76.5207 21.9999 75.5977 19.5383 75.5977C14.6152 75.5977 10.6152 79.5977 10.6152 84.6746C10.6152 89.1361 12.7691 91.4438 18.4614 96.213C20.7691 98.213 24.1537 102.367 25.3845 104.059C25.6922 104.521 26.3076 104.521 26.6152 104.059C27.9999 102.367 31.2306 98.213 33.5383 96.213C39.0768 91.29 41.3845 89.1361 41.3845 84.6746C41.3845 79.5977 37.3845 75.5977 32.3076 75.5977Z" fill="#BF3030"/>
<path d="M14.361 47.276V28.406C14.361 21.968 14.361 21.228 14.805 19.23C15.323 16.566 17.025 11.09 25.461 11.09C28.791 11.09 32.121 11.978 34.267 14.568C36.487 17.158 36.487 20.118 36.487 24.188H30.419C30.419 19.896 30.419 16.862 25.609 16.862C21.687 16.862 20.947 19.6 20.725 20.488C20.355 22.042 20.355 24.188 20.355 29.664V33.586C21.539 32.18 23.537 29.886 27.681 29.886C29.975 29.886 32.491 30.626 34.415 32.698C36.783 35.14 37.153 37.804 37.153 46.166C37.153 50.606 37.153 57.192 35.525 60.004C33.453 63.408 29.383 64.666 25.387 64.666C23.611 64.666 16.137 64.666 14.731 56.526C14.361 54.306 14.361 51.124 14.361 47.276ZM30.789 47.498C30.789 46.166 30.715 41.282 30.641 40.246C30.567 39.136 30.197 35.288 25.535 35.288C20.429 35.288 20.429 39.58 20.429 47.572C20.429 49.792 20.429 53.196 20.651 54.824C20.873 55.786 21.391 58.968 25.757 58.968C30.789 58.968 30.789 55.12 30.789 47.498Z" fill="#BF3030"/>
<defs>
<linearGradient id="paint0_linear_324_104507" x1="92" y1="2" x2="92" y2="182" gradientUnits="userSpaceOnUse">
<stop stop-color="white" stop-opacity="0.85"/>
<stop offset="1" stop-color="white" stop-opacity="0.15"/>
</linearGradient>
</defs>
</svg>
