<svg width="184" height="184" viewBox="0 0 184 184" fill="none" xmlns="http://www.w3.org/2000/svg">
<rect x="1" y="1" width="182" height="182" rx="13" stroke="black" stroke-opacity="0.25" stroke-width="2"/>
<rect x="2.5" y="2.5" width="179" height="179" rx="11.5" fill="#E9E9E9" stroke="url(#paint0_linear_324_104539)"/>
<rect x="41.0449" y="30.5" width="101.909" height="123" rx="1.5" fill="#D7D5D7" stroke="#CDCFD6"/>
<g clip-path="url(#clip0_324_104539)">
<path d="M129.378 71.1081V34.8307C120.322 32.9144 111.079 31.9596 101.81 31.9833C91.112 31.7974 80.4602 33.3938 70.3184 36.7028C62.7941 39.33 58.4806 42.4606 57.54 44.4113C57.395 44.6177 57.3174 44.8617 57.3174 45.1114C57.3174 45.3612 57.395 45.6051 57.54 45.8115C59.3914 48.394 61.0966 51.0724 62.6481 53.8346L62.7454 54.0077H62.5508C60.7346 53.6616 57.2643 53.7875 54.2806 58.3811C51.9277 61.8509 50.6811 65.9165 50.6968 70.0698C50.6968 70.2585 51.5724 74.8994 49.0751 76.7557C48.54 77.149 48.3454 77.5109 48.4914 77.8098C48.9454 78.7379 52.0589 79.0368 53.3562 78.7851H53.6643C60.3292 77.5738 65.0968 71.8789 67.8049 61.8893V61.6848L67.9022 61.8735C69.3941 64.4693 70.4481 66.3571 70.4643 66.3728L71.1454 70.7777C71.1027 72.5621 71.1569 74.3475 71.3076 76.1265H71.2103C71.0319 76.3467 66.8157 81.6483 67.0103 94.2494C67.144 98.916 67.7523 103.558 68.8265 108.109C69.2842 110.021 69.6093 111.96 69.7995 113.914V114.307L69.6049 113.961C69.1793 113.162 68.5274 112.498 67.7259 112.047C66.9244 111.595 66.0066 111.375 65.0806 111.413C64.2608 111.377 63.4434 111.522 62.6904 111.838C61.9373 112.155 61.2685 112.633 60.7346 113.238C60.1002 114.001 59.6298 114.881 59.3513 115.824C59.0728 116.767 58.9918 117.754 59.113 118.728C59.3919 120.32 60.2775 121.752 61.5941 122.74L61.7076 122.834H61.5616L12.6211 143.789V165.278C12.6211 166.53 13.2799 167.506 14.135 168.547C15.1549 169.39 16.1957 169.998 17.486 169.998H124.513C125.803 169.998 126.831 169.316 127.82 168.516C128.624 167.5 129.378 164.943 129.378 163.692V73.2004C129.216 72.5239 129.037 71.8475 128.827 71.1867V71.0609H128.956L129.378 71.1081Z" fill="#E7E7E7"/>
<path d="M127.756 70.0469L129.377 73.22V70.0469H127.756Z" fill="#F4C900"/>
<path d="M94.5292 102.211C94.66 101.899 94.685 101.554 94.6004 101.227C94.5158 100.9 94.326 100.608 94.0589 100.393C93.6535 99.8559 94.0589 98.8127 94.0589 98.6388C94.1902 99.038 94.3473 99.4287 94.5292 99.8085C94.6589 100.03 95.8103 100.836 95.7292 101.832C95.6481 102.828 94.1076 103.586 93.8968 103.65C93.686 103.713 94.2049 103.096 94.5292 102.211ZM106.967 84.681C106.967 84.681 107.064 85.2026 106.756 85.1394C106.436 84.9246 106.063 84.7968 105.676 84.769C105.288 84.7412 104.9 84.8145 104.551 84.9813C103.108 85.5188 100.951 87.4156 97.1887 86.815C95.133 86.4783 93.185 85.6831 91.4968 84.4913C91.2535 84.4913 91.1562 84.3332 91.14 84.2226C90.7346 84.0487 91.7238 83.2109 91.7238 83.2109C92.1992 82.4824 92.8338 81.8652 93.5823 81.4034C94.3308 80.9416 95.1746 80.6466 96.0535 80.5395C98.0403 80.6381 99.9842 81.1388 101.762 82.0096C102.589 82.3257 104.908 83.5903 106.172 84.2384C106.446 84.3705 106.711 84.5183 106.967 84.681ZM94.4157 85.171C93.8288 84.5355 93.4701 83.7309 93.3941 82.879L92.8751 83.3058C92.8751 83.3058 92.4049 83.78 93.6211 84.681C93.8701 84.8676 94.1361 85.0316 94.4157 85.171ZM100.999 82.547C100.588 82.3684 100.166 82.2152 99.7346 82.0886C99.7426 82.2255 99.7426 82.3627 99.7346 82.4996C99.651 83.0076 99.3859 83.4705 98.9861 83.8064C98.5862 84.1423 98.0775 84.3296 97.5497 84.3353C97.0219 84.341 96.509 84.1646 96.1017 83.8374C95.6944 83.5102 95.4189 83.0531 95.3238 82.547C95.3069 82.3735 95.3069 82.1989 95.3238 82.0254C94.8776 82.1362 94.4472 82.3008 94.0427 82.5154C94.0427 83.4126 94.4083 84.273 95.0591 84.9074C95.7099 85.5418 96.5926 85.8982 97.513 85.8982C98.4334 85.8982 99.316 85.5418 99.9668 84.9074C100.618 84.273 100.983 83.4126 100.983 82.5154L100.999 82.547ZM104.243 84.2384H104.097C103.352 83.7109 102.56 83.2506 101.729 82.8632C101.642 83.832 101.205 84.7394 100.497 85.4239C100.497 85.4239 103.659 85.171 104.194 84.2384H104.243ZM96.8481 88.3325C96.9216 88.3427 96.9965 88.3304 97.0625 88.2971C97.1284 88.2639 97.1821 88.2114 97.216 88.1471C97.2499 88.0827 97.2624 88.0096 97.2517 87.938C97.241 87.8664 97.2076 87.7998 97.1562 87.7476C96.9831 87.5963 96.7561 87.5169 96.5238 87.5263C95.7369 87.4765 94.9614 87.3168 94.2211 87.0521C93.5887 86.8466 93.767 87.3524 94.0103 87.5579C94.5687 87.8552 95.1792 88.0482 95.8103 88.127C96.1445 88.1732 96.475 88.2419 96.7995 88.3325H96.8481ZM54.086 163.875L54.2643 164.286L54.4265 164.191V164.302L54.6697 163.923C55.5235 162.581 55.988 161.039 56.0137 159.461C56.0394 157.883 55.6253 156.327 54.8157 154.96L54.7346 155.055L54.4265 154.644L54.2157 154.976C53.3724 156.288 52.1562 159.275 54.086 163.875ZM123.945 46.1904L123.183 51.391C123.127 51.7557 122.755 52.503 122.98 52.7994C123.205 53.0958 124.012 53.798 124.386 53.8527C125.716 54.0529 127.067 54.3414 128.364 54.5838C128.732 54.6407 129.067 54.783 129.378 54.5838V70.5968H128.924C129.102 71.15 129.232 71.6292 129.378 72.1983V165.124C129.378 166.382 128.865 167.588 127.953 168.477C127.041 169.367 125.772 170.004 124.481 170.004H109.127C109.54 161.559 109.169 152.956 108.021 144.575L105.994 145.381C105.994 145.381 107.209 160.498 106.853 169.998H69.472C69.472 169.556 69.5076 168.965 69.167 168.918C68.5508 168.839 66.7346 169.218 66.4265 166.626C66.1909 165.256 66.3948 163.848 67.0103 162.595C66.9268 161.799 66.6169 161.041 66.1156 160.407C65.6142 159.773 64.9412 159.288 64.1724 159.007C63.4692 162.748 64.3067 166.805 66.4265 169.998H56.3035C56.2004 168.586 55.8048 167.006 55.2211 165.709C56.6104 163.995 57.4165 161.901 57.5269 159.719C57.6374 157.537 57.0467 155.376 55.8373 153.537C57.0047 151.673 57.5477 149.502 57.3908 147.323C57.2339 145.145 56.3848 143.068 54.9616 141.382C55.9776 139.245 56.2294 136.838 55.6768 134.546C55.1241 132.253 53.7989 130.208 51.913 128.736L51.313 128.388L50.8589 129.036C50.6968 129.257 47.0319 134.616 52.7238 141.492C51.6697 143.073 49.8535 147.388 53.6157 153.348C52.367 154.833 50.0481 158.801 53.0481 165.219C51.7085 166.503 50.8205 168.196 50.4822 169.998H33.9682H17.4606C16.1704 169.998 14.9583 169.461 14.046 168.572C13.1336 167.683 12.6211 166.477 12.6211 165.219V142.615L60.2157 122.239C59.2679 121.198 58.6288 119.924 58.367 118.556C58.2188 117.465 58.296 116.356 58.594 115.295C58.892 114.233 59.4048 113.241 60.1022 112.375C61.1936 111.222 62.6686 110.484 64.2656 110.29C65.8625 110.096 67.4783 110.46 68.8265 111.316C68.6481 110.257 68.4049 109.103 68.1454 107.854C67.0657 103.229 66.4466 98.5119 66.2968 93.7702C66.1346 82.057 69.7022 76.3822 70.5292 75.2599C70.3995 73.9163 70.3833 71.7665 70.3995 70.1383L69.7346 65.8862L68.113 63.0093C65.2427 72.3355 60.4427 77.6626 53.8265 78.8955H53.5346C52.1724 79.1801 48.5076 78.8955 47.8103 77.4729C47.6157 77.0777 47.486 76.2874 48.6373 75.418C50.3562 74.1218 50.1454 70.6758 49.9022 69.4902V69.4112C49.8677 65.0888 51.1611 60.8553 53.6157 57.2554C56.2103 53.2404 59.2589 52.4026 61.2535 52.371C59.9458 50.0208 58.5002 47.7461 56.9238 45.5581C56.6693 45.2387 56.5206 44.8514 56.4974 44.4476C56.4742 44.0438 56.5777 43.6427 56.7941 43.2977C58.886 38.9349 74.713 30.3831 101.81 30.3831C111.077 30.3623 120.319 31.3109 129.378 33.2126V45.7548C128.145 45.4703 126.893 45.2181 125.628 44.9494C125.435 44.9108 125.126 44.8243 124.975 44.9184C124.782 44.9579 124.703 45.1236 124.541 45.2347C124.38 45.3458 124.244 45.4879 124.142 45.6523C124.039 45.8167 123.972 45.9998 123.945 46.1904ZM64.513 135.359C64.8399 135.568 65.2058 135.712 65.5899 135.782C65.9739 135.853 66.3684 135.848 66.7508 135.77C66.8726 135.761 66.9914 135.729 67.1001 135.675C67.2088 135.62 67.3051 135.545 67.3833 135.454C67.6914 134.948 67.3833 133.304 66.767 133.478C66.1508 133.652 64.6103 134.695 63.3616 132.419C62.6245 131.232 62.2845 129.851 62.3887 128.467C62.0086 127.765 61.4318 127.183 60.7256 126.789C60.0194 126.394 59.2127 126.203 58.3995 126.238C59.1463 129.936 61.3384 133.207 64.513 135.359ZM66.6373 146.74C67.2425 147.238 68.0195 147.492 68.8103 147.452C69.0222 147.428 69.221 147.339 69.3779 147.199C69.7346 146.74 69.6211 145.08 69.0049 145.159C68.6906 145.315 68.3431 145.397 67.9904 145.399C67.6377 145.4 67.2896 145.32 66.9742 145.167C66.6587 145.013 66.3846 144.789 66.1741 144.513C65.9635 144.238 65.8222 143.917 65.7616 143.579C65.1961 142.311 65.0378 140.905 65.3076 139.548C65.0263 138.803 64.5344 138.151 63.8887 137.667C63.243 137.183 62.4699 136.887 61.6589 136.813C61.8946 140.62 63.653 144.184 66.5562 146.74H66.6373ZM69.9616 157.062C69.3292 157.062 67.5779 157.695 66.9454 155.15C66.5247 153.827 66.5247 152.41 66.9454 151.087C66.761 150.318 66.3596 149.614 65.7865 149.055C65.2134 148.497 64.4914 148.105 63.7022 147.926C63.4611 151.718 64.7402 155.452 67.2697 158.343C67.7972 158.921 68.5372 159.273 69.3292 159.323C69.4504 159.343 69.5745 159.339 69.6942 159.312C69.8139 159.285 69.9269 159.235 70.0265 159.165C70.3995 158.738 70.4968 157.062 69.8806 157.062H69.9616ZM124.854 156.398L127.059 153.98L126.297 135.754L123.767 137.335C123.67 137.73 124.772 156.398 124.772 156.398H124.854ZM97.286 44.5538L98.0531 50.4961C98.0936 50.8425 98.3547 51.1626 98.6249 51.391C98.8952 51.6193 99.3872 51.5899 99.7447 51.5797C100.864 51.5797 101.973 51.4982 103.092 51.4982C103.437 51.5009 103.657 51.2729 103.917 51.0515C104.177 50.8301 104.345 50.5234 104.389 50.1896L105.264 44.2145C105.292 44.0192 105.277 43.8204 105.219 43.6313C105.162 43.4422 105.064 43.2671 104.933 43.1177C104.801 42.9682 104.638 42.8477 104.455 42.7643C104.271 42.6809 104.12 42.4941 103.917 42.4914C102.182 42.4914 100.562 42.4914 98.8751 42.4914C98.6674 42.4849 98.3991 42.4819 98.208 42.5613C98.0169 42.6408 97.6788 42.6747 97.5623 43.0039C97.4233 43.1544 97.2683 43.4377 97.2074 43.6313C97.1464 43.8249 97.2575 44.0139 97.286 44.2145V44.5538ZM74.34 48.6879C75.0049 49.9209 75.9616 51.5806 76.5941 52.7504C76.7379 53.003 76.9588 53.2056 77.2261 53.3303C77.4935 53.4549 77.7894 53.6233 78.0814 53.5738C78.4525 53.5155 78.9303 53.306 79.1519 53.01C79.3736 52.7141 79.474 52.1704 79.418 51.8081L78.8162 47.0187C78.7877 46.8173 78.6689 46.4466 78.5565 46.2753C78.444 46.1039 78.1874 45.9681 78.0117 45.8584C77.836 45.7487 77.6122 45.839 77.4055 45.8111C77.1988 45.7832 76.9883 45.7994 76.7887 45.8584C76.0914 46.0797 75.4103 46.301 74.7454 46.5381C74.3887 46.712 73.5616 47.2495 74.34 48.6879ZM97.8697 122.871C101.616 121.401 107.34 118.777 109.221 117.892C108.893 116.74 108.756 115.545 108.816 114.351V114.161C108.816 113.118 109.156 111 109.61 107.839C110.786 101.319 111.485 94.7269 111.702 88.1112C111.47 81.7101 110.092 75.3977 107.632 69.4586C86.5508 69.0634 75.1995 71.1816 72.2481 71.8613C72.379 73.1491 72.379 74.4463 72.2481 75.7341C72.2866 75.8524 72.2866 75.9794 72.2481 76.0977C72.0697 77.1093 72.2481 77.6784 73.0914 76.7616C75.2968 74.4537 77.1454 74.5486 80.2427 76.5561C83.34 78.5636 84.6373 83.1161 84.6373 83.1161C84.8169 84.7765 84.8169 86.4507 84.6373 88.1112C84.3292 90.6087 82.2535 97.7852 83.0157 100.662C83.3478 101.116 83.7729 101.499 84.2643 101.784C85.14 102.322 87.5076 104.25 85.886 105.863C85.9434 105.314 85.8659 104.759 85.6601 104.245C85.4543 103.731 85.1259 103.273 84.7022 102.907C83.3076 102.006 82.5292 101.784 82.0752 100.567C81.2643 98.3701 83.0806 92.221 83.5508 90.0238C84.1796 87.5484 84.3227 84.9794 83.9724 82.4522C83.3 80.7754 82.1216 79.3369 80.5929 78.3265C79.0643 77.3162 77.2572 76.7815 75.4103 76.7932C72.4265 76.9355 72.0697 78.1368 72.3616 79.2117C72.4041 79.3545 72.4775 79.4867 72.5767 79.5996C72.6759 79.7125 72.7987 79.8034 72.9369 79.8663C73.0751 79.9292 73.2255 79.9625 73.378 79.9641C73.5305 79.9657 73.6815 79.9355 73.8211 79.8756C74.1482 79.7217 74.4987 79.6202 74.8589 79.5753C76.8659 79.3046 78.9088 79.6762 80.6806 80.6343C81.2087 80.9852 81.5843 81.5147 81.7346 82.1202C80.0878 80.957 78.1237 80.2968 76.0914 80.2234C73.513 80.2234 73.3833 81.567 73.3833 81.8041C74.0779 81.5517 74.815 81.4283 75.5562 81.4405C77.7791 81.5978 79.9053 82.3894 81.6697 83.7168C82.2039 84.0367 82.6582 84.4687 82.9995 84.9813C83.1941 85.2975 82.8373 85.8349 82.4968 86.1353C80.6609 87.026 78.6276 87.4604 76.5778 87.3998C75.5644 87.4449 74.5515 87.3001 73.5941 86.973C73.4806 88.9964 73.2211 93.5489 73.0103 95.9357C72.703 99.6957 73.2569 103.475 74.6319 107.001C74.6991 107.074 74.7489 107.16 74.7779 107.254C74.7779 107.254 74.7779 107.364 74.7779 107.491C75.4337 109.091 76.2144 110.639 77.113 112.122C80.1074 117.044 84.3664 121.119 89.4697 123.946C90.1833 124.262 92.7454 124.863 97.8697 122.871ZM73.886 83.2583C73.886 83.2583 73.886 83.1793 73.886 83.1477C73.5898 83.2174 73.2976 83.3018 73.0103 83.4006V83.5745C73.1592 84.2892 73.5569 84.9317 74.1362 85.3932C74.7154 85.8547 75.4405 86.1068 76.1887 86.1068C76.9368 86.1068 77.6619 85.8547 78.2412 85.3932C78.8204 84.9317 79.2182 84.2892 79.367 83.5745C78.9969 83.4213 78.6178 83.2894 78.2319 83.1793C78.2398 83.2264 78.2398 83.2745 78.2319 83.3216C78.2319 83.8875 78.0013 84.4303 77.5907 84.8305C77.1802 85.2307 76.6233 85.4555 76.0427 85.4555C75.4621 85.4555 74.9053 85.2307 74.4947 84.8305C74.0842 84.4303 73.8535 83.8875 73.8535 83.3216L73.886 83.2583ZM78.2643 86.7043L79.3833 86.5621C80.3851 86.4601 81.3277 86.0505 82.0752 85.3923C81.4743 84.7607 80.7736 84.227 79.9995 83.8116C79.9605 84.392 79.7834 84.9555 79.4822 85.4576C79.181 85.9597 78.7641 86.3865 78.2643 86.7043ZM114.686 122.571C113.586 122.449 112.538 122.046 111.649 121.402C110.761 120.758 110.063 119.896 109.626 118.904C107.616 119.836 101.989 122.429 98.2751 123.867L97.8211 124.041C99.4226 125.588 101.332 126.798 103.432 127.598C103.432 127.598 111.54 124.752 114.686 122.571ZM94.3184 110.51C93.2806 110.178 91.6265 107.728 90.0049 107.491C89.5477 107.409 89.0768 107.44 88.635 107.581C88.1932 107.722 87.7945 107.968 87.4751 108.297C86.7789 107.761 85.9137 107.476 85.0265 107.491C83.4049 107.491 82.6589 110.241 81.3779 110.478C81.0144 110.526 80.6457 110.439 80.3452 110.234C80.0447 110.029 79.8344 109.721 79.7562 109.372C79.886 111.696 81.5076 111.506 81.5076 111.506C82.6275 111.023 83.7887 110.637 84.9778 110.352C85.4626 110.283 85.9575 110.342 86.4109 110.523C86.8644 110.703 87.2599 110.999 87.5562 111.379C87.686 111.379 89.34 110.241 90.5076 110.32C91.6751 110.399 93.3616 111.585 95.3724 111.49C97.3833 111.395 97.4643 109.245 97.4643 109.245C97.32 109.61 97.1115 109.947 96.8481 110.241C96.487 110.497 96.0636 110.656 95.6199 110.703C95.1762 110.751 94.7275 110.684 94.3184 110.51ZM91.9346 80.824C92.5406 80.2552 93.2576 79.811 94.0432 79.5177C94.8288 79.2244 95.6669 79.0881 96.5076 79.1169C99.7508 79.1169 105.751 83.1003 105.962 83.1319C106.172 83.1635 105.654 82.2941 105.345 82.057C103.089 80.3246 100.471 79.0945 97.6751 78.4529C95.8311 78.1052 93.9587 77.92 92.0806 77.8997C91.3833 77.8997 93.0373 78.9114 93.313 78.9746C93.5887 79.0378 91.7238 79.7175 91.9346 80.824ZM53.8265 140.117L53.9076 140.212L54.0373 139.801C54.5481 138.306 54.6307 136.703 54.2764 135.166C53.9221 133.628 53.1442 132.214 52.0265 131.075L51.54 130.633L51.3454 131.217C50.8103 132.798 50.3562 135.96 53.34 139.911L53.6157 140.275L53.8265 140.117ZM54.8192 169.998C54.7421 169.014 54.4879 167.914 54.1346 166.989L54.0535 167.084L53.8103 166.626L53.5508 166.926C52.8208 167.797 52.3153 168.903 52.0531 169.998H54.8192ZM54.7833 152.257L54.9454 152.13V152.241L55.14 151.83C55.8268 150.401 56.102 148.816 55.9364 147.246C55.7707 145.675 55.1704 144.178 54.1995 142.915V143.025L53.7454 142.615L53.567 142.978C52.8373 144.448 51.9454 147.562 54.4751 151.862L54.7833 152.257ZM90.7995 102.132C92.1616 102.859 92.113 103.428 92.0481 103.586L92.1292 103.492C92.3094 103.277 92.4285 103.02 92.4746 102.747C92.5208 102.473 92.4923 102.193 92.3921 101.933C92.2919 101.674 92.1234 101.445 91.9037 101.269C91.6839 101.093 91.4205 100.976 91.14 100.931C90.6198 100.788 90.0751 100.751 89.5396 100.822C89.0041 100.893 88.4892 101.07 88.0265 101.342C88.0265 101.342 88.7238 101.026 90.7995 102.132ZM92.0806 76.4296C94.3508 76.3348 96.1346 75.0386 98.4373 75.3073C101.465 75.9976 104.403 77.0211 107.194 78.3581C107.826 78.7691 107.648 77.6784 106.772 77.0619C105.897 76.4454 99.8157 73.4737 99.2643 73.1575C98.713 72.8414 98.1616 72.6991 96.5562 73.3314C94.698 73.9884 92.765 74.4236 90.7995 74.6276C90.468 74.5944 90.1334 74.6433 89.8265 74.7699C89.8265 74.7699 89.7778 76.5245 92.0806 76.4296ZM89.3887 113.087C90.1508 112.818 89.5995 112.597 89.5995 112.597C88.7332 112.712 87.8549 112.712 86.9887 112.597C85.0265 112.454 85.2373 111.506 85.2373 111.506C85.1249 111.652 85.0509 111.823 85.0217 112.004C84.9925 112.184 85.009 112.369 85.0698 112.542C85.1305 112.715 85.2336 112.871 85.3702 112.996C85.5068 113.121 85.6727 113.212 85.8535 113.26C87.0257 113.523 88.2496 113.463 89.3887 113.087ZM89.7941 114.241C88.8673 114.413 87.9155 114.413 86.9887 114.241C87.2112 114.518 87.5012 114.737 87.8325 114.878C88.1638 115.019 88.5259 115.077 88.886 115.047C90.3616 115.11 91.14 113.94 89.7941 114.241ZM82.2373 87.3682C81.1987 87.8018 80.1095 88.1097 78.9941 88.2851C77.3724 88.4905 78.9941 88.8857 80.2265 88.7118C81.4589 88.538 82.0427 88.1902 82.2373 87.4156V87.3682Z" fill="#24242E"/>
<path d="M129.377 128.747V124.541C129.076 124.208 128.707 123.941 128.295 123.757C127.883 123.573 127.436 123.477 126.983 123.474C126.125 123.474 125.302 123.809 124.695 124.407C124.089 125.004 123.748 125.815 123.748 126.66C123.748 127.505 124.089 128.315 124.695 128.913C125.302 129.51 126.125 129.846 126.983 129.846C127.438 129.839 127.887 129.737 128.299 129.548C128.712 129.358 129.079 129.085 129.377 128.747ZM126.983 128.428C126.625 128.428 126.274 128.323 125.977 128.127C125.679 127.931 125.446 127.653 125.309 127.327C125.172 127.001 125.136 126.642 125.206 126.296C125.276 125.95 125.449 125.632 125.702 125.382C125.955 125.133 126.278 124.963 126.63 124.894C126.981 124.825 127.345 124.86 127.676 124.995C128.007 125.13 128.29 125.359 128.489 125.653C128.688 125.946 128.795 126.291 128.795 126.644C128.795 127.117 128.604 127.571 128.264 127.905C127.924 128.24 127.464 128.428 126.983 128.428ZM123.958 45.7331L123.198 50.9742C123.142 51.3418 123.237 51.716 123.462 52.0147C123.686 52.3135 124.022 52.5122 124.395 52.5672C125.721 52.769 127.032 52.9921 128.326 53.2363C128.692 53.2937 129.067 53.2141 129.377 53.0133V56.0401C126.352 55.4347 123.263 54.925 120.092 54.5426L122.001 41.2885C124.67 41.7345 127.129 42.2443 129.377 42.77V45.3189C128.148 45.0321 126.935 44.7295 125.673 44.4587C125.474 44.4198 125.269 44.4228 125.071 44.4675C124.873 44.5121 124.688 44.5974 124.526 44.7177C124.364 44.8381 124.23 44.9907 124.132 45.1657C124.034 45.3407 123.975 45.534 123.958 45.7331ZM129.377 151.766L128.665 152.371L128.099 135.421L129.377 134.752V151.766ZM94.2595 39.8229L96.0711 53.6983C99.5651 53.5231 103.027 53.4753 106.424 53.539L108.349 39.7432C103.655 39.4929 98.95 39.5195 94.2595 39.8229ZM105.243 43.7259L104.369 49.7476C104.326 50.084 104.158 50.393 103.899 50.6161C103.64 50.8393 103.306 50.961 102.962 50.9583C101.846 50.9583 100.73 50.9583 99.6136 50.9583C99.257 50.9685 98.9095 50.8465 98.6399 50.6164C98.3702 50.3863 98.1982 50.0648 98.1578 49.7157L97.3652 43.6781C97.3378 43.4825 97.3527 43.2835 97.4087 43.0941C97.4648 42.9046 97.5609 42.7289 97.6907 42.5785C97.8205 42.4282 97.9811 42.3065 98.1619 42.2214C98.3428 42.1364 98.5398 42.0899 98.7401 42.085C100.358 42.085 102.121 42.085 103.852 42.085C104.058 42.0867 104.262 42.1325 104.449 42.2195C104.635 42.3064 104.8 42.4323 104.933 42.5884C105.065 42.7445 105.161 42.9271 105.215 43.1235C105.269 43.3199 105.278 43.5255 105.243 43.7259ZM101.878 31.9692C86.398 31.9692 75.997 34.7889 69.8502 37.1306C62.4255 40.03 59.7242 42.9771 59.5139 43.8374C62.1667 47.119 71.484 63.9416 71.8883 64.6585C71.8883 64.6585 100.05 57.3782 129.377 63.7186V59.6722C125.556 58.8659 121.696 58.2544 117.811 57.8402C117.567 57.8128 117.331 57.7375 117.116 57.6187C116.902 57.4998 116.714 57.34 116.563 57.1485C116.412 56.957 116.302 56.7377 116.238 56.5036C116.175 56.2694 116.16 56.0252 116.194 55.7852L118.62 38.8671C118.698 38.3917 118.959 37.964 119.348 37.6723C119.543 37.5284 119.765 37.4247 120.001 37.3672C120.237 37.3097 120.483 37.2997 120.723 37.3377C123.877 37.8157 126.757 38.3732 129.377 38.9308V34.9004C120.349 32.928 111.126 31.945 101.878 31.9692ZM85.9774 57.6331C85.6728 58.0092 85.2323 58.2546 84.7481 58.3181C81.5129 58.7323 78.2778 59.2421 75.2691 59.9112C75.151 59.9269 75.0313 59.9269 74.9132 59.9112C74.5851 59.9099 74.2631 59.8239 73.9792 59.6618C73.6954 59.4997 73.4597 59.2671 73.2956 58.9872C71.1443 55.0843 68.0385 49.6679 65.6121 45.7331C65.3583 45.3168 65.2827 44.8183 65.4019 44.3471C65.4611 44.114 65.5676 43.895 65.7149 43.7034C65.8623 43.5118 66.0474 43.3514 66.2592 43.232C67.8887 42.3107 69.5866 41.5119 71.3384 40.8424C74.7744 39.5212 78.3191 38.4926 81.9335 37.7679C82.1818 37.7211 82.4372 37.7237 82.6844 37.7757C82.9317 37.8277 83.1659 37.9279 83.3732 38.0705C83.5757 38.2257 83.7436 38.4204 83.866 38.6424C83.9885 38.8645 84.063 39.1091 84.0849 39.3609L86.3495 56.295C86.4084 56.7718 86.2748 57.2524 85.9774 57.6331ZM109.837 55.6259C109.784 56.0749 109.562 56.4881 109.214 56.7832C108.867 57.0784 108.419 57.2339 107.96 57.2189C103.609 57.0915 99.096 57.2189 94.583 57.442H94.4697C94.0193 57.4449 93.5836 57.2839 93.2462 56.9899C92.9089 56.6959 92.6937 56.2896 92.6419 55.8489L90.3611 38.4051C90.3298 38.1628 90.348 37.9167 90.4147 37.6815C90.4814 37.4462 90.5951 37.2264 90.7493 37.0351C91.0684 36.6541 91.528 36.4135 92.0272 36.366C98.2212 35.8578 104.446 35.8205 110.646 36.2545C110.895 36.2694 111.139 36.3352 111.362 36.4476C111.585 36.56 111.781 36.7166 111.94 36.9076C112.099 37.1026 112.217 37.3272 112.287 37.568C112.356 37.8089 112.376 38.0611 112.344 38.3095L109.837 55.6259ZM47.4071 169.989C48.6551 157.092 47.8444 144.418 45.0527 131.757L47.9967 130.403C50.8588 143.538 51.7334 156.605 50.5658 169.989H47.4071ZM72.7618 44.14C71.7104 44.5542 70.7237 44.9844 69.834 45.4145C71.8398 48.7599 74.1368 52.7584 75.9485 55.9764C78.0675 55.5781 80.2836 55.2117 82.5482 54.909L80.7365 41.7664C78.0249 42.3719 75.3601 43.1651 72.7618 44.14ZM78.3101 52.9814C78.0189 53.0312 77.7191 52.9905 77.4524 52.8649C77.1858 52.7393 76.9654 52.535 76.822 52.2805C76.1426 51.1016 75.2044 49.429 74.5735 48.1864C73.7971 46.7367 74.5735 46.1951 74.9941 46.0358C75.6573 45.7968 76.3367 45.5738 77.0322 45.3508C77.2314 45.2913 77.4413 45.275 77.6475 45.3031C77.8537 45.3312 78.0512 45.403 78.2265 45.5135C78.4018 45.6241 78.5506 45.7707 78.6628 45.9434C78.775 46.1161 78.8478 46.3106 78.8763 46.5137L79.5071 51.4043C79.5415 51.5958 79.5351 51.7923 79.4883 51.9812C79.4414 52.1702 79.3551 52.3474 79.2349 52.5018C79.1148 52.6561 78.9633 52.7841 78.7901 52.8776C78.617 52.9712 78.426 53.0282 78.2293 53.0452L78.3101 52.9814ZM111.745 134.944C111.745 134.313 111.556 133.697 111.2 133.173C110.845 132.65 110.34 132.241 109.748 132C109.157 131.759 108.507 131.696 107.879 131.819C107.252 131.942 106.675 132.245 106.223 132.691C105.77 133.136 105.462 133.704 105.337 134.322C105.212 134.94 105.277 135.581 105.521 136.163C105.766 136.745 106.181 137.243 106.713 137.593C107.245 137.943 107.87 138.13 108.51 138.13C109.368 138.13 110.191 137.794 110.798 137.196C111.405 136.599 111.745 135.789 111.745 134.944ZM106.731 134.944C106.728 134.59 106.831 134.244 107.028 133.948C107.226 133.653 107.507 133.421 107.838 133.284C108.169 133.146 108.534 133.109 108.886 133.176C109.239 133.243 109.563 133.411 109.818 133.66C110.073 133.909 110.247 134.227 110.318 134.574C110.389 134.92 110.355 135.28 110.218 135.607C110.081 135.934 109.849 136.213 109.551 136.41C109.253 136.607 108.902 136.712 108.543 136.712C108.065 136.712 107.607 136.526 107.267 136.195C106.928 135.864 106.735 135.414 106.731 134.944ZM111.4 169.998C111.686 161.341 111.281 153.113 110.338 144.502L122.033 138.48L122.907 159.445L115.015 169.998H111.4ZM121.03 131.009C121.03 130.379 120.841 129.763 120.485 129.239C120.13 128.715 119.624 128.306 119.033 128.065C118.442 127.824 117.792 127.761 117.164 127.884C116.537 128.007 115.96 128.31 115.508 128.756C115.055 129.201 114.747 129.769 114.622 130.387C114.497 131.005 114.561 131.646 114.806 132.228C115.051 132.81 115.466 133.308 115.998 133.658C116.53 134.008 117.155 134.195 117.795 134.195C118.22 134.187 118.639 134.096 119.028 133.928C119.418 133.76 119.77 133.519 120.064 133.217C120.358 132.915 120.59 132.559 120.744 132.169C120.899 131.779 120.974 131.363 120.966 130.945L121.03 131.009ZM116.016 131.009C116.013 130.655 116.116 130.309 116.313 130.013C116.51 129.718 116.792 129.487 117.123 129.349C117.454 129.212 117.818 129.174 118.171 129.241C118.523 129.308 118.848 129.477 119.103 129.726C119.358 129.974 119.532 130.292 119.603 130.639C119.674 130.985 119.639 131.345 119.503 131.672C119.366 131.999 119.134 132.278 118.836 132.475C118.537 132.672 118.187 132.777 117.828 132.777C117.58 132.786 117.333 132.745 117.103 132.656C116.872 132.567 116.663 132.433 116.487 132.261C116.311 132.089 116.173 131.884 116.08 131.658C115.988 131.431 115.944 131.189 115.951 130.945L116.016 131.009ZM129.377 64.9452V67.1117C120.432 65.3275 99.6622 62.6034 72.503 68.1154L72.1795 66.0125C99.4842 60.405 120.4 63.1451 129.377 64.9452ZM97.8343 169.991C99.3387 160.321 97.3328 142.59 97.5108 142.335L104.402 145.394V145.856C105.049 152.547 105.065 164.08 105.113 169.991H97.8343ZM70.7075 161.101C70.7075 161.101 72.5192 165.88 67.9738 167.697C67.6137 166.455 67.6873 165.129 68.183 163.934C68.6787 162.738 69.5677 161.74 70.7075 161.101ZM102.008 134.944C102.008 134.313 101.818 133.697 101.462 133.173C101.107 132.65 100.602 132.241 100.011 132C99.4194 131.759 98.7689 131.696 98.1413 131.819C97.5138 131.942 96.9373 132.245 96.4849 132.691C96.0324 133.136 95.7243 133.704 95.5995 134.322C95.4747 134.94 95.5387 135.581 95.7836 136.163C96.0285 136.745 96.4431 137.243 96.9751 137.593C97.5072 137.943 98.1326 138.13 98.7725 138.13C99.6305 138.13 100.453 137.794 101.06 137.196C101.667 136.599 102.008 135.789 102.008 134.944ZM97.0255 134.944C97.0223 134.59 97.1258 134.244 97.3229 133.948C97.5201 133.653 97.8019 133.421 98.1326 133.284C98.4634 133.146 98.8281 133.109 99.1806 133.176C99.5331 133.243 99.8574 133.411 100.112 133.66C100.367 133.909 100.542 134.227 100.613 134.574C100.684 134.92 100.649 135.28 100.512 135.607C100.376 135.934 100.144 136.213 99.8454 136.41C99.5471 136.607 99.1962 136.712 98.8372 136.712C98.3595 136.712 97.9011 136.526 97.5618 136.195C97.2225 135.864 97.0298 135.414 97.0255 134.944ZM64.9166 132.57C64.1135 131.535 63.6851 130.266 63.6998 128.964C63.7144 127.662 64.1713 126.402 64.9975 125.385C64.9975 125.385 68.4591 129.161 64.9166 132.57ZM70.3355 148.978C70.3355 148.978 72.7295 153.518 68.4591 155.892C67.9443 154.699 67.8493 153.37 68.1893 152.117C68.5293 150.865 69.2847 149.76 70.3355 148.978ZM68.4106 137.015C68.4106 137.015 71.3707 141.188 67.44 144.104C66.7765 142.984 66.5116 141.679 66.6874 140.395C66.8633 139.11 67.4697 137.921 68.4106 137.015ZM58.3858 169.989C59.5825 155.525 58.3942 141.348 54.9685 127.233L57.1522 126.469L57.314 127.233C60.7505 141.347 61.9497 155.523 60.7636 169.989H58.3858Z" fill="#C72F2A"/>
<path d="M121.913 119.302C122.307 118.491 122.485 117.596 122.433 116.7C122.381 115.804 122.1 114.935 121.615 114.172C121.13 113.409 120.457 112.776 119.657 112.33C118.857 111.885 117.956 111.641 117.034 111.621C117.296 111.44 117.58 111.291 117.88 111.178C118.502 110.987 119.158 110.926 119.805 111C120.453 111.074 121.077 111.28 121.637 111.605C122.249 111.988 122.758 112.509 123.12 113.124C123.483 113.738 123.688 114.429 123.719 115.137C123.847 115.926 123.747 116.735 123.427 117.471C123.108 118.207 122.584 118.842 121.913 119.302ZM119.62 101.058C119.62 100.757 119.62 100.472 119.62 100.171C119.62 98.112 119.783 95.9898 119.88 93.9468C120.271 85.9332 120.694 77.6504 117.522 70.1911L115.343 70.0802C116.757 73.53 117.671 77.1545 118.059 80.8495C118.439 85.1608 118.418 89.4968 117.994 93.8043C117.815 96.2591 117.636 98.793 117.62 101.279C117.388 104.128 117.816 106.991 118.872 109.657C119.356 109.303 119.909 109.049 120.498 108.913C119.684 106.375 119.385 103.707 119.62 101.058ZM121.572 127.585C121.831 127.585 122.079 127.485 122.262 127.307C122.445 127.128 122.548 126.887 122.548 126.635C122.548 126.383 122.445 126.141 122.262 125.963C122.079 125.785 121.831 125.685 121.572 125.685C121.313 125.685 121.065 125.785 120.882 125.963C120.699 126.141 120.596 126.383 120.596 126.635C120.596 126.887 120.699 127.128 120.882 127.307C121.065 127.485 121.313 127.585 121.572 127.585ZM93.9241 137.816C93.485 136.881 92.2978 137.436 92.005 138.307C91.7123 139.178 93.4199 141.062 93.4199 141.062C93.4199 141.062 94.4608 138.734 94.0054 137.816H93.9241ZM94.4771 129.644C94.2183 129.644 93.97 129.744 93.7871 129.922C93.6041 130.1 93.5012 130.342 93.5012 130.594C93.5012 130.718 93.5266 130.841 93.5758 130.955C93.625 131.07 93.6972 131.173 93.788 131.26C93.8788 131.347 93.9866 131.416 94.1049 131.462C94.2232 131.508 94.3497 131.531 94.4771 131.528C94.6037 131.531 94.7294 131.508 94.8468 131.462C94.9643 131.416 95.0709 131.347 95.1605 131.26C95.25 131.172 95.3206 131.069 95.368 130.954C95.4155 130.84 95.4388 130.717 95.4366 130.594C95.4416 130.357 95.3536 130.126 95.1905 129.95C95.0273 129.773 94.8013 129.664 94.5584 129.644H94.4771ZM90.9804 127.015C90.4275 126.16 89.3541 126.888 89.1427 127.807C88.9312 128.725 90.9804 130.388 90.9804 130.388C90.9804 130.388 91.6147 127.87 91.0617 127.015H90.9804ZM116.839 93.7568C117.267 89.4872 117.306 85.189 116.953 80.9129C116.559 77.1475 115.594 73.4597 114.091 69.9694L111.846 69.8902C117.376 81.9423 115.603 95.2297 113.863 108.01C113.668 109.499 113.456 111.019 113.261 112.54C113.911 112.03 114.694 111.707 115.522 111.605C115.925 110.903 116.588 110.376 117.376 110.132L117.75 110.006C116.675 107.223 116.237 104.245 116.465 101.279C116.563 98.7138 116.742 96.1957 116.92 93.741L116.839 93.7568ZM92.7043 132.352C92.2002 131.465 91.078 132.099 90.8341 133.001C90.5901 133.904 92.4604 135.646 92.4604 135.646C92.4604 135.646 93.2085 133.255 92.7043 132.352ZM93.5988 149.155C93.2573 149.995 94.6559 152.101 94.6559 152.101C94.6559 152.101 95.892 149.947 95.5667 148.934C95.2414 147.92 93.9241 148.316 93.5988 149.155ZM127.345 93.1233C127.345 94.707 127.183 96.1957 127.134 97.7161C127.134 98.3021 127.134 98.9039 127.036 99.5532C126.797 101.665 126.879 103.8 127.28 105.888C127.93 105.566 128.649 105.402 129.378 105.401C129.119 104.473 129.015 103.507 129.069 102.546V102.198C129.069 99.2523 129.216 96.069 129.378 93.1708V92.379V78.9174C129.155 76.1371 128.626 73.4378 127.768 70.7771L125.638 70.6028C128.126 77.8246 127.752 85.5848 127.345 93.1233ZM19.5624 169.981C20.5863 161.569 20.6033 153.454 19.7632 145.022C19.7712 144.885 19.7712 144.747 19.7632 144.61C19.7632 144.119 19.6656 143.628 19.6006 143.153L17.4863 144.072C18.4652 152.798 18.5279 161.254 17.5491 169.981H19.5624ZM37.5667 169.981H33.6964C32.9191 169.981 32.8981 169.999 32.4486 169.981C32.2328 169.951 32.0139 169.951 31.7981 169.981C32.0752 169.775 32.302 169.513 32.4623 169.211C32.6226 168.91 32.7123 168.578 32.7251 168.239C32.7316 167.922 32.6735 167.606 32.5542 167.311C32.4349 167.015 32.2567 166.745 32.03 166.517C31.8032 166.289 31.5323 166.107 31.233 165.981C30.9336 165.855 30.6116 165.788 30.2856 165.784C29.6291 165.749 28.9848 165.967 28.4919 166.391C27.999 166.815 27.6969 167.41 27.6509 168.049C27.6166 168.407 27.6678 168.767 27.8004 169.102C27.933 169.438 28.1435 169.738 28.4153 169.981C28.1934 169.913 27.9642 169.871 27.7322 169.854C27.0982 169.837 26.9889 169.854 26.6268 169.981H21.4873C22.602 160.679 22.618 151.742 21.5034 142.44L35.0508 136.39L37.1487 135.472C37.4577 137.547 37.783 139.906 38.0432 142.488C38.0512 142.62 38.0512 142.752 38.0432 142.884C38.9941 152.03 38.8417 160.873 37.5667 169.981ZM27.8786 149.646C28.2745 149.61 28.6566 149.486 28.9951 149.282C29.3336 149.079 29.6194 148.803 29.8302 148.474L28.4478 151.642L32.3998 151.277L30.432 148.427C30.7045 148.709 31.0395 148.927 31.4115 149.064C31.7834 149.201 32.1826 149.254 32.5787 149.219C33.2348 149.166 33.8432 148.864 34.2723 148.378C34.7014 147.892 34.9168 147.261 34.8719 146.621C34.8336 146.306 34.7316 146.001 34.5717 145.724C34.4118 145.447 34.1971 145.203 33.9401 145.007C33.683 144.811 33.3887 144.667 33.0741 144.583C32.7595 144.498 32.4309 144.475 32.1071 144.515C31.8788 144.53 31.6541 144.578 31.4403 144.658C31.6887 144.421 31.8791 144.133 31.9974 143.815C32.1157 143.497 32.1587 143.157 32.1233 142.82C32.0608 142.167 31.7344 141.565 31.2159 141.146C30.6974 140.727 30.0293 140.526 29.3586 140.587C28.6879 140.648 28.0695 140.966 27.6394 141.471C27.2094 141.976 27.0029 142.627 27.0654 143.28C27.103 143.619 27.2154 143.946 27.3951 144.238C27.5748 144.531 27.8174 144.782 28.1063 144.974C27.8792 144.951 27.6503 144.951 27.4232 144.974C26.7762 145.033 26.1797 145.34 25.7649 145.827C25.5596 146.068 25.405 146.346 25.31 146.646C25.215 146.945 25.1815 147.26 25.2114 147.572C25.2413 147.884 25.334 148.187 25.4843 148.464C25.6345 148.741 25.8393 148.986 26.0869 149.186C26.5871 149.59 27.2316 149.784 27.8786 149.725V149.646ZM35.7826 160.035C35.7784 159.717 35.7092 159.402 35.579 159.109C35.4488 158.817 35.2602 158.552 35.0242 158.331C34.7881 158.11 34.5093 157.937 34.204 157.822C33.8987 157.706 33.5729 157.651 33.2455 157.66C33.0239 157.636 32.8003 157.636 32.5787 157.66C32.8332 157.45 33.0398 157.191 33.1855 156.9C33.3311 156.608 33.4125 156.29 33.4244 155.965C33.4244 155.31 33.1571 154.682 32.6813 154.218C32.2055 153.755 31.5602 153.495 30.8873 153.495C30.2145 153.495 29.5691 153.755 29.0933 154.218C28.6175 154.682 28.3502 155.31 28.3502 155.965C28.3504 156.305 28.4278 156.64 28.5769 156.946C28.7259 157.253 28.9429 157.524 29.2122 157.739C28.8679 157.614 28.499 157.566 28.133 157.598C27.7669 157.63 27.4129 157.741 27.097 157.925C26.7812 158.108 26.5116 158.357 26.3081 158.656C26.1046 158.954 25.9725 159.292 25.9214 159.647C25.8703 160.001 25.9015 160.362 26.0128 160.704C26.1241 161.045 26.3127 161.357 26.5645 161.618C26.8163 161.879 27.1251 162.081 27.4679 162.21C27.8107 162.339 28.179 162.391 28.5454 162.363C28.9435 162.362 29.3362 162.273 29.6939 162.103C30.0516 161.933 30.3651 161.687 30.6109 161.382L28.8707 164.406H32.8389L31.2126 161.366C31.4499 161.677 31.759 161.929 32.115 162.103C32.4709 162.276 32.8638 162.365 33.2618 162.363C33.9096 162.368 34.5341 162.128 35.0041 161.694C35.4741 161.26 35.7532 160.666 35.7826 160.035ZM122.222 70.3811C125.003 77.7296 124.564 85.6323 124.125 93.3134C124.011 95.4197 123.881 97.6052 123.832 99.6482C123.655 102.134 123.919 104.63 124.613 107.028C125.144 106.745 125.722 106.558 126.321 106.474C126.284 106.427 126.256 106.373 126.239 106.316C125.752 104.051 125.648 101.724 125.93 99.4265C125.93 98.793 125.963 98.1912 126.028 97.6211C126.028 96.0374 126.158 94.4536 126.239 93.0125C126.63 85.4264 127.02 77.6029 124.385 70.4603L122.222 70.3811ZM113.912 136.581C114.039 136.583 114.166 136.56 114.284 136.514C114.402 136.468 114.51 136.399 114.601 136.313C114.692 136.226 114.764 136.122 114.813 136.007C114.862 135.893 114.888 135.77 114.888 135.646C114.888 135.394 114.785 135.152 114.602 134.974C114.419 134.796 114.171 134.696 113.912 134.696C113.653 134.696 113.405 134.796 113.222 134.974C113.039 135.152 112.936 135.394 112.936 135.646C112.936 135.77 112.961 135.893 113.011 136.007C113.06 136.122 113.132 136.226 113.223 136.313C113.314 136.399 113.421 136.468 113.54 136.514C113.658 136.56 113.784 136.583 113.912 136.581ZM112.285 130.04C112.159 130.038 112.033 130.06 111.916 130.107C111.798 130.153 111.692 130.221 111.602 130.309C111.512 130.396 111.442 130.5 111.394 130.614C111.347 130.728 111.324 130.851 111.326 130.974C111.324 131.098 111.347 131.221 111.394 131.337C111.441 131.452 111.512 131.557 111.601 131.645C111.69 131.734 111.797 131.804 111.914 131.852C112.032 131.9 112.158 131.924 112.285 131.924C112.414 131.924 112.54 131.9 112.659 131.852C112.777 131.804 112.885 131.734 112.975 131.646C113.066 131.558 113.138 131.453 113.187 131.338C113.236 131.223 113.261 131.099 113.261 130.974C113.262 130.737 113.17 130.508 113.004 130.335C112.837 130.161 112.61 130.056 112.367 130.04H112.285ZM120.726 100.203C120.726 100.488 120.726 100.789 120.726 101.074C120.484 103.609 120.76 106.166 121.539 108.596C121.581 108.458 121.674 108.34 121.799 108.264C122.349 107.93 122.964 107.709 123.605 107.614C122.798 105.053 122.484 102.368 122.678 99.6957C122.678 97.5577 122.857 95.3722 122.97 93.25C123.41 85.5373 123.849 77.5712 120.954 70.3019L118.807 70.2069C121.848 77.8404 121.442 86.0441 121.051 93.9627C120.954 96.0374 120.84 98.1437 120.807 100.203H120.726ZM120.466 119.603C120.892 118.888 121.14 118.085 121.188 117.26C121.236 116.434 121.083 115.609 120.742 114.852C120.259 114.086 119.562 113.47 118.733 113.075C117.903 112.68 116.976 112.521 116.059 112.619C115.419 112.635 114.799 112.835 114.275 113.192C113.752 113.55 113.348 114.05 113.115 114.63C113.115 114.63 113.115 114.709 113.115 114.757C113.115 115.248 112.985 115.755 112.936 116.246C113.02 117.026 113.369 117.756 113.928 118.32C114.342 118.762 114.881 119.075 115.476 119.221C116.072 119.368 116.698 119.341 117.278 119.144C117.663 119.063 118.017 118.882 118.304 118.62C118.59 118.357 118.798 118.024 118.905 117.655C118.969 117.315 118.961 116.965 118.881 116.627C118.8 116.29 118.649 115.972 118.437 115.694C118.225 115.416 117.956 115.184 117.648 115.012C117.339 114.84 116.998 114.731 116.644 114.694C116.403 114.641 116.151 114.677 115.935 114.794C115.719 114.91 115.555 115.1 115.473 115.327C115.339 115.589 115.298 115.886 115.356 116.173C115.415 116.46 115.571 116.72 115.798 116.911C115.919 116.993 116.001 117.118 116.027 117.259C116.053 117.4 116.021 117.545 115.937 117.663C115.852 117.781 115.724 117.861 115.579 117.886C115.434 117.911 115.285 117.88 115.164 117.798C114.742 117.467 114.444 117.01 114.315 116.498C114.185 115.986 114.232 115.446 114.448 114.963C114.624 114.509 114.958 114.129 115.392 113.892C115.827 113.654 116.333 113.573 116.823 113.664C117.32 113.72 117.8 113.873 118.235 114.114C118.67 114.355 119.051 114.679 119.354 115.066C119.658 115.453 119.878 115.896 120.002 116.368C120.126 116.84 120.151 117.332 120.076 117.813C119.952 118.38 119.671 118.902 119.264 119.323C118.857 119.745 118.339 120.05 117.766 120.205C116.965 120.505 116.088 120.557 115.255 120.353C114.422 120.148 113.675 119.699 113.115 119.065C112.534 118.476 112.124 117.749 111.927 116.956C111.73 116.163 111.753 115.333 111.993 114.551C112.253 112.35 112.546 110.101 112.855 107.915C114.579 95.0713 116.368 81.7997 110.692 69.906H108.756C111.181 75.8601 112.535 82.1765 112.757 88.578C112.548 95.2947 111.857 101.989 110.692 108.612C110.313 110.577 110.036 112.559 109.862 114.551V114.741C109.765 117.813 110.659 121.567 115.392 121.947C116.395 122.131 117.432 122.003 118.357 121.583C119.281 121.162 120.048 120.47 120.547 119.603H120.466ZM102.04 139.194C102.04 139.446 102.142 139.687 102.325 139.866C102.508 140.044 102.757 140.144 103.015 140.144C103.143 140.144 103.269 140.119 103.386 140.071C103.504 140.023 103.61 139.953 103.7 139.865C103.789 139.776 103.859 139.671 103.907 139.556C103.954 139.441 103.977 139.318 103.975 139.194C103.977 139.07 103.954 138.948 103.906 138.834C103.859 138.719 103.788 138.615 103.699 138.528C103.609 138.441 103.503 138.372 103.385 138.326C103.268 138.28 103.142 138.257 103.015 138.259C102.888 138.257 102.761 138.28 102.643 138.326C102.525 138.372 102.417 138.44 102.326 138.527C102.235 138.614 102.163 138.718 102.114 138.832C102.065 138.947 102.039 139.07 102.04 139.194ZM91.1593 169.981C91.9262 159.074 91.3983 148.496 89.0776 137.8C89.0848 137.747 89.0848 137.694 89.0776 137.642C89.085 137.563 89.085 137.483 89.0776 137.404C88.0424 132.42 86.6788 127.505 84.9955 122.691C84.8997 122.44 84.7127 122.232 84.4698 122.107C84.227 121.981 83.9453 121.947 83.6782 122.01L75.0586 124.164C74.5382 122.786 73.7413 120.997 73.6925 120.838C73.5778 120.576 73.361 120.369 73.0897 120.262C72.8184 120.155 72.5147 120.157 72.245 120.268C72.1103 120.322 71.988 120.401 71.8852 120.502C71.7825 120.602 71.7014 120.721 71.6469 120.853C71.5923 120.984 71.5653 121.125 71.5675 121.266C71.5697 121.408 71.601 121.548 71.6596 121.678C71.6596 121.678 72.9281 124.639 73.2859 125.764C73.3657 126.032 73.5494 126.26 73.7982 126.398C74.047 126.537 74.3415 126.577 74.6195 126.508L83.1578 124.354C84.5468 128.515 85.7086 132.744 86.6381 137.024C83.4993 137.515 80.2954 137.99 78.7992 138.18C78.6203 137.388 78.295 135.979 77.677 133.429L79.7587 132.97C80.0456 132.907 80.2949 132.735 80.452 132.493C80.6091 132.251 80.661 131.958 80.5963 131.679C80.5316 131.4 80.3556 131.157 80.107 131.004C79.8584 130.851 79.5576 130.8 79.2708 130.863L76.0995 131.56C75.8119 131.624 75.5612 131.795 75.4001 132.035C75.3225 132.157 75.271 132.293 75.2486 132.434C75.2262 132.576 75.2335 132.72 75.27 132.859C75.8392 135.219 76.75 139.083 76.8964 139.479C76.9379 139.752 77.0829 140.001 77.3029 140.176C77.4106 140.262 77.5355 140.327 77.6697 140.365C77.804 140.403 77.9448 140.414 78.0836 140.397C81.1237 140.128 84.1473 139.705 87.1423 139.13C88.0283 143.571 88.6744 148.054 89.0776 152.56C85.8249 152.671 82.1982 152.734 80.6044 152.734C80.6044 151.895 80.4093 150.375 80.1653 147.619L82.3121 147.429C82.465 147.428 82.6161 147.396 82.7558 147.336C82.8955 147.275 83.0208 147.187 83.1238 147.077C83.2267 146.967 83.305 146.837 83.3539 146.696C83.4027 146.555 83.4209 146.405 83.4073 146.257C83.3938 146.108 83.3488 145.964 83.2752 145.834C83.2016 145.703 83.1009 145.589 82.9797 145.498C82.8584 145.407 82.7191 145.342 82.5706 145.307C82.4221 145.271 82.2676 145.266 82.1169 145.291L78.8642 145.576C78.7209 145.588 78.5815 145.627 78.4539 145.692C78.3263 145.757 78.2131 145.845 78.1209 145.953C78.0287 146.06 77.9592 146.185 77.9165 146.318C77.8738 146.452 77.8588 146.593 77.8722 146.732C78.0836 149.25 78.4414 153.336 78.4576 153.748C78.459 154.03 78.5693 154.302 78.7667 154.508C79.0269 154.762 79.157 154.888 81.4664 154.888C82.9626 154.888 85.3533 154.888 89.2565 154.714C89.5916 159.062 89.6405 163.426 89.4029 167.78C86.1502 167.685 82.8975 167.558 81.2712 167.463C81.2712 166.624 81.2712 165.103 81.1411 162.348H83.2879C83.5601 162.316 83.8109 162.187 83.9928 161.988C84.1747 161.788 84.2752 161.53 84.2752 161.263C84.2752 160.996 84.1747 160.738 83.9928 160.538C83.8109 160.338 83.5601 160.21 83.2879 160.178L80.0352 160.289C79.8893 160.291 79.7452 160.321 79.6117 160.379C79.4781 160.436 79.3577 160.518 79.2575 160.622C79.1574 160.725 79.0797 160.847 79.0289 160.98C78.9781 161.114 78.9553 161.255 78.9618 161.397C78.9618 163.916 79.1407 168.017 79.1244 168.429C79.1112 168.713 79.2101 168.99 79.4009 169.205C79.7912 169.633 80.1328 169.728 89.533 169.981H91.1593ZM126.321 114.298C126.338 113.295 126.006 112.316 125.38 111.52C124.755 110.724 123.871 110.157 122.873 109.911C122.112 109.703 121.308 109.703 120.547 109.911C121.12 110.046 121.668 110.265 122.174 110.56C122.937 111.023 123.573 111.66 124.026 112.416C124.48 113.172 124.737 114.025 124.776 114.899C124.925 116.061 124.703 117.238 124.141 118.273C124.826 117.849 125.386 117.261 125.768 116.564C126.15 115.868 126.34 115.087 126.321 114.298ZM123.458 130.594C123.331 130.592 123.204 130.615 123.086 130.661C122.968 130.707 122.86 130.775 122.769 130.862C122.678 130.949 122.606 131.053 122.557 131.167C122.508 131.282 122.483 131.404 122.483 131.528C122.483 131.78 122.585 132.022 122.768 132.2C122.951 132.379 123.2 132.479 123.458 132.479C123.586 132.479 123.712 132.454 123.829 132.406C123.947 132.358 124.053 132.288 124.143 132.199C124.232 132.111 124.302 132.006 124.35 131.891C124.397 131.776 124.42 131.653 124.418 131.528C124.42 131.405 124.397 131.283 124.349 131.168C124.302 131.054 124.231 130.95 124.142 130.863C124.052 130.776 123.946 130.707 123.828 130.661C123.711 130.615 123.585 130.592 123.458 130.594ZM77.1403 169.997C77.4499 166.125 77.4934 162.602 77.3355 158.721C79.0919 158.721 82.9626 158.721 85.9225 158.721C86.0364 160.178 86.0526 162.474 86.0364 163.995H83.8408C83.5685 164.027 83.3178 164.155 83.1358 164.355C82.9539 164.555 82.8535 164.812 82.8535 165.08C82.8535 165.347 82.9539 165.604 83.1358 165.804C83.3178 166.004 83.5685 166.132 83.8408 166.164H87.0935C87.3827 166.16 87.6592 166.048 87.8653 165.85C88.0713 165.652 88.191 165.385 88.1994 165.103C88.281 162.557 88.205 160.008 87.9717 157.47C87.9269 157.222 87.7956 156.997 87.6 156.832C87.4045 156.668 87.1566 156.574 86.8983 156.567C82.0193 156.567 78.7667 156.567 77.1403 156.567C76.8964 152.212 76.4085 148.047 75.8067 144.23C77.986 144.056 82.5397 143.786 84.4914 143.691C84.7841 145.053 85.0443 147.334 85.1907 148.902H82.8C82.5277 148.934 82.2769 149.062 82.095 149.262C81.9131 149.462 81.8126 149.72 81.8126 149.987C81.8126 150.254 81.9131 150.512 82.095 150.711C82.2769 150.911 82.5277 151.039 82.8 151.072H86.5243C86.6772 151.071 86.8284 151.04 86.9684 150.98C87.1083 150.92 87.234 150.833 87.3374 150.723C87.4433 150.614 87.5242 150.484 87.5746 150.342C87.6251 150.2 87.644 150.049 87.6302 149.9C87.4575 147.31 87.0823 144.737 86.508 142.203C86.4337 141.991 86.2935 141.807 86.107 141.677C85.9205 141.546 85.6969 141.475 85.4672 141.474C85.1581 141.474 78.3601 141.87 75.7091 142.092C74.9448 137.768 74.0828 133.967 73.2371 130.895L81.2712 129.2C81.7327 130.674 82.1127 132.17 82.4096 133.682L79.9864 134.142C79.7114 134.188 79.4644 134.333 79.295 134.549C79.1256 134.765 79.0463 135.036 79.073 135.306C79.0998 135.577 79.2306 135.827 79.4392 136.008C79.6478 136.188 79.9188 136.286 80.1978 136.28H80.4092L83.8408 135.583C84.1249 135.525 84.3751 135.363 84.5388 135.13C84.7026 134.896 84.7672 134.61 84.719 134.332C84.3173 132.001 83.6967 129.711 82.865 127.49C82.7549 127.273 82.5737 127.097 82.3499 126.991C82.1262 126.885 81.8726 126.854 81.629 126.904L72.5378 128.804C71.4481 124.988 70.6187 122.739 70.5862 122.675C70.5372 122.541 70.461 122.416 70.3622 122.31C70.2634 122.204 70.1438 122.119 70.0106 122.058C69.8773 121.998 69.733 121.964 69.5861 121.958C69.4392 121.953 69.2926 121.976 69.155 122.026C68.8807 122.129 68.6589 122.333 68.5372 122.594C68.4156 122.854 68.4038 123.151 68.5045 123.42C68.5045 123.657 76.985 145.782 74.887 169.997H77.1403ZM128.402 106.632C128.738 106.72 129.064 106.836 129.378 106.981V106.474C129.047 106.484 128.719 106.537 128.402 106.632ZM125.8 107.741H126.044C126.747 107.948 127.399 108.294 127.958 108.758C128.518 109.221 129.055 109.844 129.378 110.487V108.21C128.995 107.982 128.497 107.817 128.061 107.709C127.316 107.531 126.536 107.532 125.8 107.741ZM125.8 108.834C124.972 108.596 124.091 108.596 123.263 108.834C124.483 109.15 125.561 109.852 126.326 110.83C127.092 111.807 127.502 113.005 127.492 114.234C127.517 115.28 127.271 116.315 126.776 117.243C127.471 116.825 128.041 116.236 128.43 115.536C128.818 114.835 129.01 114.048 128.988 113.252C129.02 112.272 128.718 111.309 128.13 110.513C127.542 109.717 126.7 109.132 125.735 108.85L125.8 108.834ZM41.7136 169.981C43.0863 160.718 43.2286 151.707 42.2879 142.393V141.981C41.9952 138.972 41.6049 136.264 41.2308 133.952C41.24 133.894 41.24 133.835 41.2308 133.777L39.1329 134.696C41.0864 146.507 41.3116 158.121 39.7032 169.981H41.7136ZM95.1113 165.832C94.9812 164.787 93.6639 164.85 93.1435 165.578C92.623 166.307 93.5988 168.746 93.5988 168.746C93.5988 168.746 95.2252 166.814 95.1113 165.832ZM95.7619 154.587C95.5016 153.574 94.1355 153.827 93.7777 154.587C93.4199 155.348 94.6397 157.612 94.6397 157.612C94.6397 157.612 96.0058 155.601 95.7619 154.587ZM64.7314 56.6978C64.7314 56.6978 65.1705 59.0259 65.3494 61.0689C65.3164 62.5178 64.7376 63.9044 63.723 64.9648C64.0624 63.4945 64.0624 61.9691 63.723 60.4987C63.4791 60.0553 61.2022 61.2431 60.6493 62.3833C59.7018 64.2062 59.1956 66.2161 59.1693 68.2589C59.1151 70.1288 58.6021 71.9588 57.6731 73.5961C57.7433 73.4782 57.7928 73.3497 57.8194 73.216C57.9077 72.0491 57.875 70.8765 57.7219 69.716C57.442 71.0582 56.859 72.3229 56.0152 73.4186C55.1713 74.5143 54.0877 75.4134 52.8429 76.0508C54.0569 74.365 54.9544 72.4829 55.4938 70.492L53.2169 71.7431C53.3847 70.9396 53.7365 70.1834 54.2462 69.5308C54.7559 68.8781 55.4103 68.3459 56.1606 67.9739C57.5267 67.1345 57.7869 64.7273 57.7869 64.7273L55.8353 66.0576C55.7052 63.3811 57.3641 62.9852 59.2831 61.734C60.2618 61.1071 61.0085 60.1913 61.4136 59.1209C59.4458 58.5507 56.1931 60.2295 56.1931 60.2295C57.1201 56.9354 64.8127 56.6978 64.8127 56.6978L62.9749 54.1797C62.9749 54.1797 57.5592 54.7182 54.3554 61.0689C51.1515 67.4196 53.6723 72.6934 50.5335 76.716C50.5335 76.716 50.2245 76.9536 51.1515 77.0803C54.5167 76.7725 57.6591 75.307 60.015 72.9467C63.3978 69.5893 66.7806 60.4987 66.7806 60.4987L64.7314 56.6978ZM93.5988 160.115C93.1272 160.891 94.2494 163.187 94.2494 163.187C94.2494 163.187 95.7456 161.255 95.5667 160.225C95.3878 159.196 94.103 159.339 93.5988 160.115ZM94.8999 143.359C94.5258 142.393 93.2736 142.836 92.9646 143.707C92.6556 144.578 94.2006 146.558 94.2006 146.558C94.2006 146.558 95.339 144.309 94.9487 143.359H94.8999ZM76.5223 117.877C76.5223 117.877 76.5223 117.877 76.5223 117.798C76.7794 116.676 76.8724 115.524 76.7988 114.377C76.5386 113.997 76.2784 113.601 76.0344 113.189C75.7905 112.777 75.5628 112.413 75.3513 112.017C75.7107 114.114 75.7107 116.255 75.3513 118.352L76.5223 117.877ZM76.6524 122.137H76.8964L80.5881 121.266C80.8726 121.198 81.118 121.024 81.2704 120.78C81.4229 120.537 81.4699 120.245 81.4013 119.967C81.3708 119.828 81.3116 119.695 81.2274 119.579C81.1431 119.462 81.0355 119.363 80.911 119.287C80.7865 119.212 80.6476 119.162 80.5027 119.14C80.3578 119.118 80.2099 119.125 80.0677 119.16L76.441 119.999C76.1558 120.067 75.9092 120.241 75.7541 120.483C75.5991 120.726 75.5479 121.019 75.6116 121.298C75.6702 121.527 75.8029 121.733 75.9902 121.884C76.1775 122.035 76.4096 122.124 76.6524 122.137ZM65.4307 123.056H65.5771C68.8297 123.056 71.0253 121.155 72.0824 117.608C72.5053 116.119 71.8872 110.845 70.7163 106.094C68.537 97.2568 68.8948 87.5645 71.6433 81.388C71.5457 80.0893 71.2692 78.5531 71.253 77.6662C70.0658 79.8359 67.8702 85.078 68.0003 94.0894C68.1399 98.7284 68.7445 103.343 69.8055 107.868C70.6024 111.669 71.2205 114.63 70.5211 116.942V117.053C70.3423 117.625 70.0616 118.161 69.6917 118.637C69.2481 119.363 68.6299 119.973 67.8904 120.414C67.151 120.855 66.3124 121.115 65.447 121.171C64.8182 121.158 64.2002 121.009 63.6376 120.735C63.0751 120.462 62.5821 120.069 62.1943 119.587C61.8598 119.037 61.6713 118.415 61.6457 117.776C61.6202 117.137 61.7584 116.503 62.0479 115.929C62.2923 115.404 62.6788 114.955 63.1659 114.628C63.6531 114.302 64.2224 114.111 64.8127 114.076C65.2629 114.011 65.7229 114.068 66.1419 114.241C66.5608 114.415 66.9226 114.697 67.1871 115.058C67.4224 115.426 67.5669 115.842 67.6092 116.273C67.6516 116.705 67.5906 117.14 67.4311 117.544C67.2946 117.883 67.075 118.184 66.7915 118.422C66.5081 118.659 66.1693 118.826 65.8048 118.906C65.6562 118.92 65.5083 118.876 65.3927 118.784C65.2771 118.692 65.2032 118.56 65.1867 118.415C65.1775 118.273 65.2246 118.133 65.3185 118.024C65.4124 117.915 65.5457 117.845 65.6909 117.829C65.8733 117.773 66.04 117.676 66.1782 117.547C66.3163 117.418 66.4222 117.26 66.4878 117.085C66.5751 116.854 66.6058 116.606 66.5776 116.361C66.5494 116.117 66.4629 115.882 66.3252 115.675C66.1646 115.475 65.9513 115.321 65.7079 115.229C65.4646 115.137 65.2002 115.11 64.9428 115.153C64.5481 115.169 64.1662 115.294 63.8411 115.513C63.516 115.731 63.2609 116.035 63.105 116.388C62.8953 116.785 62.7859 117.225 62.7859 117.671C62.7859 118.117 62.8953 118.557 63.105 118.954C63.3927 119.31 63.7577 119.6 64.1738 119.802C64.5899 120.005 65.0469 120.115 65.512 120.126C66.1993 120.063 66.8614 119.842 67.4438 119.481C68.0263 119.121 68.5124 118.63 68.8623 118.051C69.1513 117.665 69.3763 117.238 69.5291 116.784C69.538 116.21 69.4277 115.64 69.2047 115.108C68.9816 114.577 68.6505 114.094 68.2313 113.69C67.812 113.287 67.3132 112.969 66.7648 112.758C66.2165 112.547 65.6299 112.446 65.0404 112.461C64.3675 112.431 63.6965 112.55 63.0772 112.808C62.4578 113.065 61.9059 113.456 61.4624 113.949C60.4054 115.306 59.9276 117.008 60.1288 118.7C60.3405 119.92 60.9894 121.027 61.9602 121.824C62.9309 122.622 64.1607 123.058 65.4307 123.056ZM73.5624 108.264C71.9738 104.445 71.3115 100.32 71.627 96.2116C71.8873 93.3609 72.2125 85.8382 72.2613 84.6187C72.2365 84.3818 72.2365 84.143 72.2613 83.9061H71.871C69.9663 91.0839 69.9663 98.6153 71.871 105.793C72.9606 110.243 73.7738 115.961 73.2371 117.845C73.0822 118.386 72.8865 118.916 72.6516 119.429L74.5382 118.653C74.4512 118.591 74.3849 118.505 74.3473 118.406C74.3098 118.308 74.3026 118.201 74.3268 118.099C75.0261 115.185 73.9039 109.641 73.5949 108.216L73.5624 108.264ZM77.7258 117.386L78.7667 116.99L77.8884 115.866C77.8853 116.375 77.8418 116.883 77.7583 117.386H77.7258Z" fill="#F4C900"/>
</g>
<path d="M34.4608 86.537C33.5377 86.537 32.6146 86.6908 31.6916 86.9985C33.3839 85.46 34.4608 83.46 34.4608 81.1523C34.4608 76.6908 30.6146 73.1523 25.9992 73.1523C21.3839 73.1523 17.5377 76.8447 17.5377 81.1523C17.5377 83.46 18.6146 85.6139 20.3069 86.9985C19.3839 86.6908 18.6146 86.537 17.5377 86.537C12.9223 86.537 9.07617 90.0754 9.07617 94.537C9.07617 98.9985 12.9223 102.537 17.5377 102.537C20.9223 102.537 23.6916 100.691 25.0762 98.0754C24.9223 100.383 24.1531 103.922 21.8454 106.229C21.5377 106.537 21.6916 106.845 22.1531 106.845H25.9992H29.8454C30.1531 106.845 30.3069 106.383 30.1531 106.229C27.8454 103.922 27.0762 100.537 26.9223 98.0754C28.3069 100.691 31.23 102.537 34.4608 102.537C39.0762 102.537 42.9223 98.9985 42.9223 94.537C42.9223 90.2293 39.0762 86.537 34.4608 86.537Z" fill="#24242E"/>
<path d="M30.4381 11.756H36.8761V46.906C36.8761 54.528 36.5801 56.008 36.0621 57.562C33.6941 64.74 25.8501 64.74 24.0741 64.74C17.1181 64.74 14.0101 60.892 13.0481 57.34C12.4561 55.194 12.4561 53.566 12.4561 48.312H18.7461C18.7461 53.936 18.8201 54.75 19.3381 56.082C20.1521 58.08 21.9281 59.19 24.0001 59.19C29.2541 59.264 30.2161 55.416 30.3641 53.27C30.4381 52.234 30.4381 48.46 30.4381 47.276V11.756Z" fill="#24242E"/>
<defs>
<linearGradient id="paint0_linear_324_104539" x1="92" y1="2" x2="92" y2="182" gradientUnits="userSpaceOnUse">
<stop stop-color="white" stop-opacity="0.85"/>
<stop offset="1" stop-color="white" stop-opacity="0.15"/>
</linearGradient>
<clipPath id="clip0_324_104539">
<rect width="116.757" height="165" fill="white" transform="translate(12.6211 5)"/>
</clipPath>
</defs>
</svg>
