<svg width="184" height="184" viewBox="0 0 184 184" fill="none" xmlns="http://www.w3.org/2000/svg">
<rect x="1" y="1" width="182" height="182" rx="13" stroke="black" stroke-opacity="0.25" stroke-width="2"/>
<rect x="2.5" y="2.5" width="179" height="179" rx="11.5" fill="#E9E9E9" stroke="url(#paint0_linear_324_104505)"/>
<rect x="41.0449" y="30.5" width="101.909" height="123" rx="1.5" fill="#D7D5D7" stroke="#CDCFD6"/>
<path d="M101.192 94.5898C96.0002 94.5898 91.154 96.6668 87.3463 100.128C87.0002 100.474 86.654 100.474 86.3079 100.128C82.8463 96.6668 78.0002 94.5898 72.4617 94.5898C61.3848 94.5898 52.3848 103.59 52.3848 115.013C52.3848 125.051 57.2309 130.244 70.0386 140.974C75.2309 145.474 82.8463 154.821 85.6156 158.628C86.3079 159.667 87.6925 159.667 88.3848 158.628C91.5002 154.821 98.7694 145.474 103.962 140.974C116.423 129.898 121.616 125.051 121.616 115.013C121.616 103.59 112.616 94.5898 101.192 94.5898Z" fill="#BF3030"/>
<path d="M34.3076 75.5977C31.9999 75.5977 29.846 76.5207 28.1537 78.0592C27.9999 78.213 27.846 78.213 27.6922 78.0592C26.1537 76.5207 23.9999 75.5977 21.5383 75.5977C16.6152 75.5977 12.6152 79.5977 12.6152 84.6746C12.6152 89.1361 14.7691 91.4438 20.4614 96.213C22.7691 98.213 26.1537 102.367 27.3845 104.059C27.6922 104.521 28.3076 104.521 28.6152 104.059C29.9999 102.367 33.2306 98.213 35.5383 96.213C41.0768 91.29 43.3845 89.1361 43.3845 84.6746C43.3845 79.5977 39.3845 75.5977 34.3076 75.5977Z" fill="#BF3030"/>
<path d="M18.285 11.756H38.561V17.454H24.205L23.761 30.404C25.759 28.406 28.571 28.11 30.125 28.11C34.565 28.11 36.711 30.774 37.451 31.958C38.043 32.92 39.079 34.622 39.079 42.17C39.079 44.908 39.079 52.53 38.857 54.75C38.191 60.522 34.195 64.666 27.165 64.666C15.917 64.666 15.917 54.972 15.917 51.642C15.917 50.458 15.991 49.644 15.991 48.682H22.133C21.985 54.306 21.911 58.82 27.387 58.82C31.901 58.82 32.419 55.194 32.493 54.084C32.641 52.678 32.715 42.836 32.715 42.54C32.715 38.544 32.715 33.882 27.757 33.882C23.391 33.882 23.391 37.73 23.317 40.024H17.471L18.285 11.756Z" fill="#BF3030"/>
<defs>
<linearGradient id="paint0_linear_324_104505" x1="92" y1="2" x2="92" y2="182" gradientUnits="userSpaceOnUse">
<stop stop-color="white" stop-opacity="0.85"/>
<stop offset="1" stop-color="white" stop-opacity="0.15"/>
</linearGradient>
</defs>
</svg>
