<svg width="184" height="184" viewBox="0 0 184 184" fill="none" xmlns="http://www.w3.org/2000/svg">
<rect x="1" y="1" width="182" height="182" rx="13" stroke="black" stroke-opacity="0.25" stroke-width="2"/>
<rect x="2.5" y="2.5" width="179" height="179" rx="11.5" fill="#E9E9E9" stroke="url(#paint0_linear_324_104491)"/>
<rect x="41.0449" y="30.5" width="101.909" height="123" rx="1.5" fill="#D7D5D7" stroke="#CDCFD6"/>
<g clip-path="url(#clip0_324_104491)">
<path d="M129.378 39.5256V165.256C129.378 166.513 128.865 167.72 127.953 168.609C127.041 169.498 125.803 169.998 124.513 169.998H17.486C16.1957 169.998 15.1551 169.301 14.2427 168.411C13.3304 167.522 12.6211 166.513 12.6211 165.256V162.679L56.8265 124.472L57.7022 123.982C57.4103 77.1118 79.5779 57.7632 82.4806 55.2182L83.5995 52.2463C84.2588 50.3321 85.1807 48.5135 86.34 46.8401C86.34 46.603 90.1022 37.3555 105.426 35.1898C109.254 34.6682 118.837 33.5556 129.378 39.5256Z" fill="#E7E7E7"/>
<path d="M127.837 166.413C127.741 166.774 127.538 167.1 127.253 167.349C126.968 167.597 126.613 167.757 126.235 167.809C125.857 167.86 125.472 167.8 125.128 167.638C124.784 167.475 124.498 167.216 124.305 166.893C124.112 166.571 124.021 166.2 124.043 165.827C124.066 165.454 124.201 165.096 124.431 164.798C124.662 164.5 124.978 164.276 125.339 164.154C125.7 164.032 126.09 164.018 126.459 164.112C126.705 164.173 126.936 164.281 127.139 164.43C127.341 164.579 127.512 164.766 127.64 164.98C127.768 165.194 127.852 165.431 127.886 165.677C127.92 165.923 127.903 166.173 127.837 166.413ZM116.486 35.5392C116.778 35.5392 124.983 45.4018 129.378 50.7167V66.2251V81.7335L115.091 63.3037C114.999 63.3756 114.885 63.4148 114.767 63.4147C103.416 62.4152 98.3562 56.8147 96.167 52.309C95.3365 50.598 94.7526 48.7826 94.4319 46.9147C93.6247 50.1293 92.0934 53.1268 89.9498 55.6879C87.8062 58.249 85.1047 60.3089 82.0427 61.7171C82.0021 62.4411 82.0021 63.1667 82.0427 63.8907C82.0536 64.3216 82.097 64.7511 82.1724 65.1758C82.1724 65.3503 82.1724 65.5407 82.1724 65.7152C82.1724 66.2705 82.1724 66.8258 82.286 67.3017C83.6984 66.6401 85.2955 66.4559 86.8265 66.7782C88.229 67.2214 89.4852 68.0225 90.4658 69.099C91.4463 70.1755 92.1157 71.4883 92.4049 72.9022C92.5745 74.0013 92.5745 75.119 92.4049 76.2181C92.2622 78.5598 91.9752 80.891 91.5454 83.1989C90.9454 85.896 88.5941 88.958 88.6427 90.5763C88.623 91.2445 88.8421 91.8986 89.2625 92.4258C89.6829 92.9529 90.278 93.32 90.9454 93.4638C91.5193 93.5923 92.0582 93.8402 92.5255 94.1906C92.9928 94.541 93.3775 94.9857 93.6535 95.4945C92.961 94.8573 92.0928 94.4326 91.1562 94.2729C90.5114 94.1593 89.9061 93.8889 89.396 93.4865C88.8858 93.0842 88.4873 92.5628 88.237 91.9704C87.9867 91.378 87.8927 90.7335 87.9636 90.0962C88.0345 89.4589 88.268 88.8493 88.6427 88.3234C89.7198 86.4267 90.5531 84.4071 91.1238 82.3104C90.1702 82.9068 89.1073 83.3163 87.9941 83.5162C87.5724 83.5162 87.6211 83.1989 87.6211 83.1989C89.1229 82.7387 90.4389 81.8285 91.3833 80.5969C91.4081 80.116 91.4081 79.6341 91.3833 79.1532C89.8521 79.8419 88.2013 80.2403 86.5184 80.3272C86.3558 80.3779 86.1863 80.4047 86.0157 80.4065C85.4811 80.395 84.971 80.1852 84.5887 79.8195C82.9283 84.3102 82.3728 89.1205 82.967 93.8604C83.7941 99.7147 86.0968 108.139 90.8319 113.518C95.8589 119.245 101.518 116.929 101.583 116.897C110.551 115.31 117.799 109.948 122.664 105.172C125.198 102.701 127.449 99.9664 129.378 97.0176V137.617C129.264 137.637 129.155 137.675 129.054 137.728L128.421 137.998C127.708 138.331 127.237 139.029 127.416 139.584L127.902 142.393C128.048 142.9 128.697 143.059 129.378 142.805V146.819C128.917 146.861 128.481 147.047 128.137 147.35C127.792 147.653 127.556 148.057 127.464 148.501L127.091 150.087L125.47 149.722C124.902 149.598 124.307 149.7 123.816 150.005C123.325 150.31 122.978 150.793 122.851 151.349C122.724 151.904 122.828 152.486 123.14 152.967C123.451 153.447 123.945 153.787 124.513 153.911L126.135 154.276L125.762 155.862C125.656 156.417 125.777 156.99 126.098 157.459C126.42 157.927 126.916 158.254 127.481 158.369C127.809 158.448 128.152 158.451 128.481 158.376C128.811 158.302 129.118 158.153 129.378 157.941V164.43L128.535 164.271L128.908 162.684C128.976 162.148 128.835 161.606 128.512 161.167C128.189 160.728 127.708 160.425 127.166 160.319C126.624 160.212 126.061 160.31 125.59 160.593C125.119 160.876 124.775 161.323 124.626 161.844L124.254 163.43L122.632 163.065C122.342 162.986 122.038 162.966 121.74 163.007C121.442 163.048 121.156 163.149 120.899 163.303C120.643 163.457 120.421 163.661 120.249 163.903C120.077 164.144 119.957 164.418 119.898 164.707C119.839 164.996 119.841 165.293 119.904 165.581C119.968 165.869 120.092 166.141 120.268 166.38C120.444 166.619 120.668 166.82 120.927 166.97C121.186 167.121 121.474 167.217 121.772 167.254L123.394 167.619L123.021 169.205C122.981 169.436 122.981 169.77 123.021 170.001H28.8373L28.9995 168.539C29.0167 168.471 29.0058 168.4 28.9693 168.341C28.9329 168.281 28.8737 168.238 28.8049 168.221C28.7361 168.205 28.6632 168.215 28.6024 168.251C28.5416 168.287 28.4978 168.345 28.4806 168.412L26.8589 169.998H17.486C16.1957 169.998 14.9583 169.497 14.046 168.604C13.1336 167.712 12.6211 166.501 12.6211 165.239V160.781L55.7238 123.989C54.5238 78.5503 78.1995 56.4022 81.2968 53.7051C82.302 50.919 83.6353 48.2569 85.2697 45.7724C87.5534 42.4642 90.5503 39.6859 94.0495 37.6328C97.5488 35.5798 101.465 34.302 105.524 33.8892C111.22 33.2276 116.99 33.5607 122.567 34.8729C125.02 35.6345 127.323 36.7987 129.378 38.3157V47.6287C125.794 43.2657 119.875 36.1897 118.935 35.9041C118.168 35.6684 117.37 35.5455 116.567 35.5392H116.486ZM37.0265 162.288C36.686 161.923 36.2806 161.574 36.0373 161.352C35.967 161.294 35.878 161.262 35.786 161.262C35.6939 161.262 35.6049 161.294 35.5346 161.352L34.5941 162.256C34.5436 162.307 34.5094 162.371 34.4957 162.441C34.4819 162.511 34.4893 162.583 34.5168 162.649C34.5444 162.714 34.5909 162.771 34.6507 162.811C34.7105 162.851 34.781 162.873 34.8535 162.875H36.7508C36.8267 162.892 36.9063 162.886 36.9783 162.857C37.0504 162.827 37.1112 162.777 37.1524 162.712C37.1936 162.647 37.2129 162.572 37.2078 162.495C37.2027 162.419 37.1733 162.347 37.1238 162.288H37.0265ZM38.9562 147.66C38.9562 147.283 38.8421 146.915 38.6283 146.602C38.4145 146.289 38.1105 146.045 37.755 145.901C37.3994 145.757 37.0081 145.719 36.6306 145.793C36.2532 145.866 35.9064 146.047 35.6343 146.314C35.3621 146.58 35.1768 146.919 35.1017 147.288C35.0266 147.658 35.0652 148.041 35.2125 148.388C35.3597 148.736 35.6092 149.034 35.9292 149.243C36.2492 149.452 36.6254 149.564 37.0103 149.564C37.2739 149.577 37.5374 149.537 37.7849 149.447C38.0323 149.357 38.2585 149.219 38.4496 149.041C38.6407 148.863 38.7928 148.649 38.8967 148.411C39.0005 148.174 39.0539 147.918 39.0535 147.66H38.9562ZM71.8914 130.906C71.8882 131.284 72 131.654 72.2126 131.97C72.4251 132.285 72.7289 132.532 73.0851 132.678C73.4413 132.824 73.8339 132.863 74.2129 132.79C74.5919 132.717 74.9401 132.535 75.2132 132.268C75.4864 132.001 75.672 131.66 75.7466 131.289C75.8211 130.919 75.7812 130.535 75.632 130.186C75.4827 129.837 75.2307 129.54 74.9083 129.332C74.5858 129.124 74.2073 129.015 73.8211 129.018C73.3093 129.018 72.8185 129.217 72.4566 129.571C72.0947 129.925 71.8914 130.405 71.8914 130.906ZM63.2157 132.366L62.7941 132.191C63.0049 132.794 63.2157 133.429 63.4265 134.127L63.8157 133.762C64.1887 133.318 63.9292 132.699 63.2157 132.366ZM66.8481 138.363L68.8914 136.142C69.2319 135.682 68.8914 135.079 68.1778 134.793L67.5616 134.571C67.2387 134.425 66.878 134.379 66.5274 134.438C66.1769 134.498 65.8532 134.66 65.5995 134.904L64.0914 136.491C64.2535 137.157 64.4157 137.839 64.5779 138.537L64.9022 138.664C65.2185 138.818 65.5756 138.871 65.9242 138.817C66.2729 138.763 66.5957 138.604 66.8481 138.363ZM70.9995 159.258C70.9995 158.884 70.8863 158.519 70.6743 158.209C70.4622 157.898 70.1608 157.656 69.8082 157.513C69.4556 157.37 69.0676 157.333 68.6933 157.406C68.3189 157.479 67.9751 157.658 67.7052 157.922C67.4353 158.187 67.2515 158.523 67.1771 158.889C67.1026 159.255 67.1408 159.635 67.2869 159.98C67.433 160.325 67.6803 160.62 67.9976 160.827C68.315 161.035 68.6881 161.145 69.0697 161.145C69.5815 161.145 70.0724 160.947 70.4343 160.593C70.7962 160.238 70.9995 159.758 70.9995 159.258ZM73.367 136.903L72.7022 136.681C72.3735 136.557 72.0136 136.534 71.6713 136.616C71.3291 136.699 71.0209 136.882 70.7887 137.141L68.9238 139.489C68.6319 139.981 69.0049 140.568 69.767 140.79L70.4157 140.981C70.7447 141.103 71.1039 141.124 71.4457 141.042C71.7874 140.96 72.0956 140.778 72.3292 140.52L74.2427 138.268C74.4697 137.712 74.0968 137.125 73.3346 136.903H73.367ZM78.7022 138.664L78.0373 138.521C77.7036 138.407 77.3407 138.402 77.004 138.508C76.6674 138.614 76.3753 138.825 76.1724 139.108L74.5508 141.568C74.2914 142.075 74.713 142.631 75.4914 142.805L76.14 142.964C76.4788 143.065 76.8414 143.062 77.1782 142.954C77.5149 142.846 77.8093 142.639 78.0211 142.361L79.6427 139.918C79.8697 139.41 79.4481 138.855 78.6697 138.664H78.7022ZM124.805 133.905C124.802 134.282 124.913 134.653 125.126 134.968C125.339 135.284 125.642 135.53 125.999 135.676C126.355 135.822 126.747 135.861 127.126 135.788C127.505 135.715 127.854 135.534 128.127 135.267C128.4 134.999 128.586 134.659 128.66 134.288C128.735 133.917 128.695 133.533 128.545 133.185C128.396 132.836 128.144 132.539 127.822 132.331C127.499 132.123 127.121 132.014 126.735 132.017C126.473 132.012 126.213 132.06 125.971 132.157C125.729 132.254 125.509 132.398 125.325 132.58C125.142 132.763 124.998 132.98 124.903 133.219C124.808 133.457 124.764 133.712 124.772 133.968L124.805 133.905ZM121.935 141.266L122.178 144.122C122.291 144.661 123.005 144.868 123.799 144.582L124.432 144.344C125.178 144.058 125.697 143.392 125.567 142.853L125.324 139.997C125.21 139.457 124.497 139.251 123.702 139.537L123.07 139.775C122.291 140.124 121.772 140.79 121.902 141.33L121.935 141.266ZM116.162 142.44V145.28C116.162 145.835 116.924 146.137 117.702 145.962L118.367 145.804C119.129 145.629 119.713 145.042 119.632 144.487V141.71C119.632 141.155 118.87 140.854 118.01 141.044L117.362 141.187C116.632 141.441 116.048 141.948 116.129 142.504L116.162 142.44ZM112.27 122.529C112.267 122.907 112.378 123.277 112.591 123.593C112.804 123.908 113.107 124.155 113.463 124.301C113.82 124.447 114.212 124.486 114.591 124.413C114.97 124.34 115.318 124.158 115.592 123.891C115.865 123.624 116.05 123.283 116.125 122.912C116.2 122.542 116.16 122.158 116.01 121.809C115.861 121.461 115.609 121.163 115.287 120.955C114.964 120.747 114.586 120.638 114.199 120.641C113.688 120.641 113.197 120.84 112.835 121.194C112.473 121.548 112.27 122.028 112.27 122.529ZM110.113 145.962C110.113 146.518 110.794 146.851 111.589 146.724L112.254 146.629C113.048 146.502 113.664 145.946 113.648 145.391L113.891 142.567C113.891 142.012 113.21 141.663 112.432 141.79L111.751 141.901C110.972 142.028 110.34 142.583 110.372 143.122L110.113 145.962ZM104.081 146.2C104.081 146.756 104.681 147.136 105.475 147.073H106.156C106.951 147.073 107.616 146.486 107.648 145.931L108.151 143.027C108.151 142.472 107.535 142.091 106.74 142.17H106.059C105.264 142.17 104.599 142.742 104.567 143.297L104.081 146.2ZM103.756 162.589C103.753 162.966 103.864 163.336 104.076 163.651C104.288 163.966 104.591 164.213 104.946 164.359C105.301 164.506 105.693 164.546 106.072 164.474C106.45 164.403 106.799 164.223 107.072 163.957C107.346 163.691 107.533 163.352 107.609 162.982C107.686 162.613 107.648 162.229 107.501 161.88C107.355 161.531 107.105 161.233 106.785 161.023C106.465 160.813 106.088 160.701 105.702 160.701C105.449 160.699 105.197 160.746 104.962 160.839C104.728 160.932 104.514 161.069 104.333 161.243C104.152 161.417 104.008 161.624 103.909 161.852C103.81 162.08 103.758 162.325 103.756 162.573V162.589ZM101.032 142.202H100.351C99.5562 142.202 98.8427 142.694 98.7292 143.249L97.9833 146.01C97.9833 146.565 98.5022 146.994 99.313 146.962H99.9941C100.344 146.982 100.691 146.891 100.983 146.702C101.275 146.513 101.497 146.237 101.616 145.915L102.345 143.154C102.427 142.599 101.81 142.17 101.032 142.202ZM96.8481 135.856C96.8513 136.229 96.9672 136.592 97.1812 136.901C97.3952 137.209 97.6977 137.449 98.0505 137.589C98.4034 137.729 98.7909 137.765 99.1642 137.69C99.5374 137.615 99.8797 137.434 100.148 137.17C100.416 136.905 100.598 136.569 100.672 136.203C100.745 135.837 100.706 135.458 100.559 135.114C100.413 134.77 100.165 134.476 99.8482 134.269C99.5313 134.063 99.1588 133.952 98.7779 133.952C98.5217 133.952 98.2681 134.002 98.0318 134.099C97.7955 134.196 97.5813 134.338 97.4017 134.516C97.2221 134.695 97.0806 134.907 96.9856 135.14C96.8905 135.372 96.8438 135.621 96.8481 135.872V135.856ZM91.9833 145.47C91.8535 146.01 92.4049 146.47 93.2157 146.502H93.8968C94.233 146.53 94.57 146.455 94.8607 146.288C95.1513 146.12 95.3813 145.867 95.5184 145.566L96.4914 142.853C96.6049 142.313 96.0535 141.853 95.2589 141.821H94.5616C94.2254 141.793 93.8884 141.868 93.5977 142.036C93.3071 142.203 93.0771 142.456 92.94 142.758L91.9833 145.47ZM87.2806 120.625C87.2773 121.002 87.3887 121.372 87.6006 121.687C87.8125 122.002 88.1152 122.249 88.4705 122.395C88.8258 122.542 89.2176 122.582 89.5961 122.51C89.9746 122.439 90.3229 122.259 90.5967 121.993C90.8704 121.727 91.0574 121.388 91.1338 121.018C91.2102 120.649 91.1726 120.265 91.0258 119.916C90.879 119.567 90.6296 119.269 90.3093 119.059C89.9889 118.849 89.6121 118.737 89.2265 118.737C88.7175 118.746 88.2325 118.95 87.8772 119.307C87.5218 119.664 87.3249 120.143 87.3292 120.641L87.2806 120.625ZM87.2157 145.661H87.8968C88.2406 145.727 88.5971 145.682 88.9128 145.534C89.2285 145.385 89.4865 145.14 89.6481 144.836L90.8481 142.202C91.0103 141.663 90.5076 141.171 89.6968 141.092H89.0157C88.6646 141.014 88.2972 141.053 87.9713 141.203C87.6455 141.352 87.3796 141.603 87.2157 141.917L86.0806 144.614C85.9022 145.09 86.4211 145.582 87.2157 145.661ZM87.9779 76.8686C87.9779 76.7734 87.9779 76.694 87.9779 76.5989L87.1346 76.2498C87.1875 76.452 87.2148 76.6598 87.2157 76.8686C87.2157 77.8522 86.6319 78.6455 85.9184 78.6455C85.2049 78.6455 84.6049 77.8522 84.6049 76.8686C84.6006 76.4167 84.7363 75.9742 84.9941 75.5993C84.7022 75.52 84.4103 75.4724 84.1346 75.4248C83.9431 75.8831 83.8439 76.3734 83.8427 76.8686C83.8427 78.4551 84.767 79.7085 85.9184 79.7085C87.0697 79.7085 87.9779 78.4392 87.9779 76.8686ZM90.3779 78.1061C89.8192 77.6018 89.1848 77.1845 88.4968 76.8686C88.5276 77.8415 88.2123 78.7948 87.6049 79.5657C89.94 79.1849 90.4589 78.1061 90.4589 78.1061H90.3779ZM82.4481 69.507C82.8211 71.6171 83.3887 73.632 83.5833 74.2666H83.9562C85.6594 74.5162 87.3055 75.053 88.8211 75.8532C89.5057 76.2631 90.128 76.7651 90.6697 77.3445C90.6697 77.3445 91.2373 77.9315 91.3022 77.1541C90.718 75.9188 89.7543 74.8927 88.5454 74.219C87.4624 73.6546 86.2289 73.4276 85.0103 73.5686C85.0103 73.5686 84.7022 72.696 86.4211 72.696C88.3109 73.1372 89.9543 74.2735 91.0103 75.869C91.0103 75.869 91.5778 76.3291 91.7887 76.0594C91.9824 75.1679 91.9601 74.2444 91.7236 73.3628C91.4871 72.4812 91.0428 71.666 90.4265 70.9825C89.6698 70.1797 88.7264 69.5672 87.6763 69.1971C86.6261 68.827 85.5002 68.7102 84.3941 68.8565C83.7229 69.0025 83.0703 69.2207 82.4481 69.507ZM81.6535 140.695L80.2265 143.249C80.0157 143.773 80.486 144.296 81.2643 144.423L81.9454 144.534C82.284 144.621 82.6423 144.599 82.9668 144.47C83.2912 144.342 83.5644 144.114 83.7454 143.82L85.1724 141.266C85.3833 140.743 84.9292 140.219 84.1346 140.092L83.4535 139.981C83.1149 139.894 82.7566 139.917 82.4322 140.045C82.1077 140.174 81.8346 140.402 81.6535 140.695ZM83.9724 53.134C86.1767 50.779 87.836 47.9867 88.8373 44.9474C87.0672 46.7864 85.6745 48.9408 84.7346 51.2936C84.4914 51.6585 84.2319 52.309 83.9724 53.134ZM82.6914 57.4811C87.51 54.0153 90.7564 48.8469 91.74 43.0753C91.2285 43.2674 90.7393 43.5121 90.2806 43.8051C89.1356 48.2732 86.6709 52.3124 83.1941 55.4186C82.9995 56.0215 82.8049 56.7354 82.6427 57.4811H82.6914ZM94.0427 42.5993C93.6619 42.591 93.2813 42.6229 92.9076 42.6945C92.3724 46.0421 90.2481 54.1811 82.3508 58.9407C82.2697 59.4166 82.2049 59.9085 82.14 60.4003C92.9238 55.2282 94.0103 43.5989 94.0751 42.6311L94.0427 42.5993ZM102.508 47.0258V47.1527C103.475 49.17 104.9 50.9445 106.675 52.3407L102.508 47.0258ZM98.2914 43.5037C98.4439 45.6606 98.9932 47.7728 99.913 49.7388C101.003 51.9163 102.596 53.8157 104.566 55.2862C106.536 56.7567 108.83 57.7581 111.264 58.2109L108.767 54.895C106.757 53.8514 104.989 52.4142 103.571 50.6727C102.154 48.9313 101.119 46.923 100.529 44.7729C99.8568 44.2447 99.1082 43.817 98.3076 43.5037H98.2914ZM114.313 62.2883L112.237 59.5118C99.2643 57.0368 97.3995 46.9147 97.1724 43.107C96.5085 42.919 95.8309 42.7811 95.1454 42.6945C95.0743 45.8527 95.7456 48.9847 97.1076 51.8489C100.189 57.9253 105.881 61.4315 114.329 62.2883H114.313ZM102.799 66.0801C98.6157 66.9844 98.9887 68.8407 99.2968 69.2532C99.6049 69.6657 100.156 69.2532 103.837 68.4599C107.518 67.6666 111.459 69.7291 112.318 70.0465C112.873 70.2482 113.483 70.2482 114.037 70.0465C112.367 68.5392 106.967 65.1758 102.799 66.0801ZM100.189 79.3436C99.6117 79.1333 99.0039 79.0154 98.3887 78.9945C97.9508 79.0739 97.6427 79.0739 97.9995 78.8359C98.8929 77.796 99.63 76.6367 100.189 75.3931C99.979 75.3576 99.7728 75.3046 99.5724 75.2344C98.5184 74.8061 98.4373 73.1085 98.4373 73.1085C98.8319 73.3443 99.2438 73.5512 99.6697 73.7272C100.015 73.8174 100.368 73.8759 100.724 73.9017C101.34 73.394 103.529 72.3152 107.21 73.759C109.803 74.8445 112.045 76.5995 113.697 78.8359H113.162C112.206 78.9444 111.278 79.2184 110.421 79.645C107.095 80.822 103.436 80.7142 100.189 79.3436ZM102.264 74.0921C103.59 74.2891 104.901 74.57 106.189 74.933C107.507 75.33 108.779 75.8618 109.983 76.5195H110.113C110.405 76.6623 111.086 76.9955 110.664 76.5195C109.005 74.9911 106.945 73.9422 104.713 73.4892C103.091 73.3465 102.459 73.8224 102.248 74.0921H102.264ZM101.194 76.3926C101.155 76.7196 101.187 77.0509 101.288 77.3649C101.389 77.6789 101.557 77.9684 101.781 78.2143C102.004 78.4603 102.279 78.6571 102.586 78.7919C102.893 78.9267 103.225 78.9964 103.562 78.9964C103.898 78.9964 104.231 78.9267 104.538 78.7919C104.845 78.6571 105.119 78.4603 105.343 78.2143C105.566 77.9684 105.734 77.6789 105.835 77.3649C105.936 77.0509 105.968 76.7196 105.929 76.3926C105.929 76.3133 105.929 76.2498 105.929 76.1705L104.972 76.0118C105.015 76.135 105.043 76.2629 105.054 76.3926C105.085 76.5958 105.071 76.8031 105.013 77.0006C104.954 77.198 104.853 77.3808 104.716 77.5365C104.579 77.6922 104.41 77.8171 104.219 77.9028C104.028 77.9884 103.82 78.0328 103.61 78.0328C103.4 78.0328 103.193 77.9884 103.002 77.9028C102.811 77.8171 102.641 77.6922 102.504 77.5365C102.367 77.3808 102.266 77.198 102.208 77.0006C102.15 76.8031 102.136 76.5958 102.167 76.3926C102.171 76.1514 102.226 75.9136 102.329 75.6945L101.356 75.6152C101.268 75.8664 101.213 76.1277 101.194 76.3926ZM110.259 79.1214C110.989 78.7565 110.956 78.4392 110.875 78.2806C110.114 77.4765 109.117 76.9223 108.021 76.694C107.535 76.5513 107.064 76.4243 106.578 76.3133V76.3926C106.622 77.2241 106.331 78.0393 105.767 78.6626C105.203 79.2859 104.411 79.6672 103.562 79.7243C102.809 79.686 102.096 79.3846 101.551 78.8751C101.006 78.3656 100.667 77.6817 100.594 76.9479L99.9778 78.0109C99.9309 78.0905 99.9062 78.1807 99.9062 78.2727C99.9062 78.3646 99.9309 78.4548 99.9778 78.5344C101.459 79.2768 103.052 79.7804 104.697 80.0258C106.606 80.1683 108.521 79.8296 110.259 79.0421V79.1214ZM126.929 152.118C126.8 152.604 126.873 153.12 127.131 153.554C127.389 153.988 127.812 154.304 128.308 154.434C128.657 154.538 129.029 154.538 129.378 154.434V150.817C129.378 150.817 129.378 150.817 129.281 150.817C128.793 150.69 128.273 150.755 127.833 150.998C127.394 151.241 127.069 151.643 126.929 152.118ZM92.4211 104.268C91.7562 103.983 91.1724 105.553 92.6319 106.267C93.5544 106.698 94.6109 106.766 95.5833 106.458C92.6319 106.267 92.4211 104.268 92.4211 104.268ZM95.3238 108.298C95.5508 108.663 96.5238 108.472 96.1995 107.758C95.8751 107.045 93.1995 107.758 93.1995 107.758C93.5562 107.711 95.0806 107.933 95.3238 108.298ZM101.21 104.062C101.345 104.151 101.499 104.21 101.66 104.234C101.822 104.257 101.986 104.245 102.142 104.198C102.298 104.15 102.441 104.069 102.56 103.961C102.68 103.852 102.772 103.719 102.832 103.57C103.189 102.808 102.183 102.348 102.216 102.348C102.248 102.348 102.005 103.031 101.729 103.126C101.454 103.221 100.708 102.888 99.8643 102.221C99.0211 101.555 97.4319 99.7782 96.6211 99.7464C95.8103 99.7147 94.9995 100.508 93.9941 100.508C92.9887 100.508 92.3724 99.7782 91.6751 100.048C90.9778 100.318 90.7346 102.618 89.9076 102.761C89.0806 102.904 88.9346 102.301 88.9346 102.301C88.2535 102.666 88.6589 104.014 89.486 104.109C90.313 104.205 90.686 103.348 92.0157 103.078C92.4123 103.002 92.8214 103.015 93.212 103.117C93.6026 103.219 93.9643 103.406 94.2697 103.665C96.7833 102.269 100.61 103.697 101.194 104.062H101.21ZM99.913 81.2791C99.913 81.2791 100.059 83.5479 103.156 83.1671C101.986 82.6879 100.889 82.0526 99.8968 81.2791H99.913ZM98.4535 91.5916C97.9925 91.358 97.4809 91.236 96.9616 91.236C96.4424 91.236 95.9308 91.358 95.4697 91.5916C95.1578 91.809 94.9346 92.1274 94.8396 92.4904C94.7446 92.8534 94.784 93.2375 94.9508 93.5748C94.9508 92.4801 96.0535 92.0676 97.1238 92.1787C98.1941 92.2897 99.1022 93.7652 100.254 92.9878C101.097 92.3849 100.626 91.0998 100.254 90.4652C100.464 90.9888 100.545 91.7027 100.043 92.0517C99.54 92.4008 98.8103 91.8138 98.4373 91.5916H98.4535ZM100.075 90.1003C100.152 90.218 100.223 90.3398 100.286 90.4652C100.238 90.3358 100.172 90.2131 100.091 90.1003H100.075Z" fill="#24242E"/>
<path d="M115.675 44.8332C114.151 42.8282 114.654 41.9371 115.059 41.6507C115.464 41.3643 116.518 41.4916 117.086 40.8232C117.346 40.5329 117.489 40.1595 117.489 39.773C117.489 39.3865 117.346 39.0132 117.086 38.7228L122.081 44.5149C121.839 44.2079 121.491 43.998 121.103 43.9247C120.715 43.8515 120.313 43.9199 119.972 44.1171C119.21 44.5627 119.275 45.5651 118.837 45.963C118.399 46.3608 117.491 46.6631 115.708 44.865L115.675 44.8332ZM121.27 51.8187C123.054 53.6168 124.026 53.2508 124.399 52.9008C124.772 52.5507 124.772 51.5164 125.535 51.0708C125.875 50.8736 126.277 50.8052 126.665 50.8784C127.054 50.9517 127.401 51.1616 127.643 51.4687L122.535 45.6765C122.795 45.9669 122.938 46.3402 122.938 46.7267C122.938 47.1133 122.795 47.4866 122.535 47.777C121.967 48.4453 120.913 48.2384 120.508 48.5885C120.102 48.9386 119.583 49.7978 121.124 51.771L121.27 51.8187ZM114.264 125.732C115.121 125.828 115.968 125.998 116.794 126.241L121.043 119.653C121.043 119.653 119.664 119.844 116.745 120.163C117.181 120.64 117.467 121.23 117.57 121.862C117.673 122.494 117.589 123.142 117.328 123.729C117.067 124.316 116.639 124.817 116.096 125.172C115.553 125.527 114.917 125.721 114.264 125.732ZM110.794 122.39C110.8 121.83 110.957 121.281 111.248 120.799L105.41 121.356L108.508 126.734C109.836 126.059 111.309 125.705 112.805 125.7H113.518C112.743 125.545 112.047 125.13 111.55 124.526C111.053 123.922 110.786 123.167 110.794 122.39ZM106.675 137.125L104.064 132.765C103.394 133.086 102.7 133.357 101.989 133.577L101.47 133.72C101.87 134.223 102.113 134.828 102.17 135.463C102.228 136.098 102.097 136.736 101.794 137.3C103.432 137.316 105.054 137.253 106.675 137.125ZM128.129 54.7307C127.578 55.4149 126.508 55.2081 126.118 55.5581C125.729 55.9082 125.194 56.7516 126.735 58.7406C127.983 59.9818 128.843 60.1792 129.378 60.0678V54.1628L128.048 52.6303C128.32 52.9109 128.477 53.2789 128.492 53.6655C128.507 54.0521 128.378 54.4308 128.129 54.7307ZM30.0535 149.76L12.6211 164.956V165.227C12.6258 166.053 12.8428 166.948 13.2672 167.607L29.7454 153.611C29.7454 153.611 37.8535 158.257 44.2427 170H47.6806C44.1616 163.635 38.0806 154.724 30.0535 149.76ZM34.9995 160.182C35.077 160.1 35.12 159.992 35.12 159.88C35.12 159.768 35.077 159.66 34.9995 159.578C34.4319 158.989 33.8643 158.448 33.3779 157.986C33.294 157.91 33.1839 157.868 33.0697 157.868C32.9555 157.868 32.8455 157.91 32.7616 157.986L20.7292 170H25.2373L34.9995 160.182ZM129.378 127.912V126.321L126.702 122.677L123.054 128.628C123.562 129.02 124.154 129.297 124.785 129.437C125.416 129.577 126.071 129.578 126.702 129.44C127.759 129.282 128.716 128.736 129.378 127.912ZM112.205 170H116.502L121.075 151.319C121.174 151.069 121.207 150.799 121.171 150.534C121.135 150.268 121.032 150.016 120.87 149.8C120.708 149.584 120.494 149.412 120.246 149.299C119.999 149.186 119.726 149.137 119.454 149.155C112.399 150.03 100.221 149.887 99.54 149.998C99.3127 150.052 99.1009 150.155 98.921 150.301C98.741 150.448 98.5977 150.633 98.5022 150.842C96.3292 156.172 93.4371 164.606 91.6371 170H95.2858C97.3452 163.635 100.626 153.77 100.789 153.245C100.951 152.719 102.054 152.767 102.054 152.767C104.518 152.879 112.789 152.481 115.367 152.369C115.471 152.368 115.574 152.389 115.669 152.431C115.764 152.473 115.848 152.535 115.916 152.612C115.984 152.689 116.034 152.78 116.063 152.879C116.091 152.977 116.097 153.08 116.081 153.181L112.205 170ZM122.567 107.114C119.821 109.802 116.684 112.075 113.259 113.861C113.191 113.9 113.139 113.96 113.112 114.032C113.084 114.104 113.083 114.183 113.107 114.256C113.132 114.328 113.182 114.391 113.248 114.432C113.314 114.473 113.392 114.491 113.47 114.482C115.594 114.164 118.983 113.591 122.567 112.763C124.913 112.238 127.196 111.47 129.378 110.472V99.5242C127.425 102.312 125.138 104.86 122.567 107.114ZM25.9833 163.508L26.7292 162.728C26.7879 162.678 26.8349 162.615 26.867 162.545C26.8992 162.475 26.9159 162.399 26.9159 162.323C26.9159 162.246 26.8992 162.17 26.867 162.1C26.8349 162.03 26.7879 161.968 26.7292 161.917C26.0643 161.392 24.9779 160.564 24.4427 160.166C24.3435 160.096 24.2244 160.059 24.1022 160.059C23.98 160.059 23.8609 160.096 23.7616 160.166C23.486 160.373 23.1616 160.644 22.9022 160.867C22.8401 160.92 22.7903 160.986 22.7562 161.061C22.7222 161.135 22.7045 161.215 22.7045 161.296C22.7045 161.377 22.7222 161.458 22.7562 161.532C22.7903 161.606 22.8401 161.672 22.9022 161.726L25.2049 163.635C25.3261 163.717 25.4751 163.75 25.6203 163.726C25.7655 163.702 25.8957 163.624 25.9833 163.508ZM30.9778 158.161L31.6103 157.509C31.659 157.466 31.6979 157.413 31.7246 157.354C31.7512 157.295 31.765 157.231 31.765 157.167C31.765 157.102 31.7512 157.039 31.7246 156.98C31.6979 156.921 31.659 156.868 31.6103 156.825C31.0589 156.379 30.1346 155.695 29.6968 155.361C29.6141 155.303 29.5148 155.271 29.413 155.271C29.3112 155.271 29.2119 155.303 29.1292 155.361C28.8756 155.544 28.632 155.741 28.3995 155.95C28.3452 155.993 28.3015 156.047 28.2715 156.109C28.2415 156.171 28.2259 156.239 28.2259 156.308C28.2259 156.376 28.2415 156.444 28.2715 156.506C28.3015 156.568 28.3452 156.622 28.3995 156.666L30.3616 158.257C30.4603 158.311 30.5748 158.332 30.6867 158.314C30.7985 158.297 30.9011 158.243 30.9778 158.161ZM20.0643 169.3L20.9238 168.409C20.9902 168.349 21.0432 168.277 21.0794 168.196C21.1157 168.115 21.1344 168.028 21.1344 167.94C21.1344 167.851 21.1157 167.764 21.0794 167.683C21.0432 167.602 20.9902 167.53 20.9238 167.47C20.1779 166.881 18.9292 165.879 18.3292 165.481C18.2159 165.401 18.0797 165.358 17.94 165.358C17.8003 165.358 17.6641 165.401 17.5508 165.481C17.2265 165.72 16.8535 166.022 16.5616 166.277C16.4899 166.337 16.4322 166.411 16.3927 166.495C16.3531 166.579 16.3327 166.67 16.3327 166.762C16.3327 166.854 16.3531 166.946 16.3927 167.03C16.4322 167.113 16.4899 167.188 16.5616 167.247L19.2373 169.364C19.361 169.45 19.5115 169.49 19.6625 169.479C19.8136 169.467 19.9558 169.404 20.0643 169.3ZM100.708 127.037L97.0589 130.219C97.6518 130.597 98.3189 130.85 99.0172 130.959C99.7155 131.069 100.429 131.034 101.113 130.856C101.614 130.704 102.103 130.512 102.572 130.283L100.708 127.037ZM109.918 129.201L112.237 133.243L115.108 128.803C114.341 128.634 113.558 128.543 112.772 128.533C111.781 128.535 110.804 128.764 109.918 129.201ZM77.6643 125.652L76.967 122.024L74.6643 123.982C74.9943 124.473 75.4382 124.88 75.9597 125.171C76.4811 125.461 77.0653 125.626 77.6643 125.652ZM88.1238 112.27C86.2469 109.603 84.7773 106.682 83.7616 103.598C83.7397 103.534 83.7019 103.477 83.6515 103.432C83.6012 103.387 83.5401 103.355 83.4737 103.339C83.4074 103.323 83.3381 103.324 83.2722 103.341C83.2063 103.359 83.146 103.392 83.0968 103.439L78.8968 107.242C78.6535 107.401 76.0427 109.231 77.486 109.66C78.6697 110.01 84.913 111.968 87.7346 112.843C87.8055 112.847 87.8764 112.833 87.9401 112.802C88.0038 112.771 88.058 112.725 88.0975 112.667C88.1369 112.608 88.1601 112.541 88.1647 112.472C88.1693 112.402 88.1552 112.333 88.1238 112.27ZM114.459 37.1634C114.798 36.9644 115.198 36.8935 115.586 36.9638C115.975 37.0341 116.323 37.2408 116.567 37.5453L114.67 35.3971C112.852 35.1711 111.019 35.0966 109.189 35.1743C109.01 35.6835 109.189 36.5269 110.145 37.8794C111.929 39.6616 112.902 39.3116 113.291 38.9615C113.681 38.6114 113.697 37.6089 114.459 37.1634ZM87.0535 123.09C86.706 122.802 86.421 122.449 86.2158 122.05C86.0106 121.652 85.8892 121.217 85.8589 120.771C85.8287 120.326 85.8901 119.879 86.0396 119.457C86.1892 119.035 86.4237 118.648 86.7292 118.317C85.4157 117.967 84.1346 117.617 83.0319 117.282L84.4427 123.647C85.2892 123.354 86.164 123.146 87.0535 123.027V123.09ZM89.5022 126.528C88.9015 126.113 88.1755 125.911 87.4427 125.955C86.6294 126.069 85.8305 126.266 85.0589 126.543L85.74 129.599L89.5022 126.528ZM123.556 133.306L122.632 132.511C122.324 132.288 121.967 132.017 121.545 131.747L118.399 136.727C119.823 136.656 121.239 136.47 122.632 136.17L124.513 135.773C123.735 135.343 123.491 133.243 123.491 133.243L123.556 133.306ZM76.6589 170C79.1076 163.476 83.9724 150.301 84.0697 149.982C84.167 149.664 84.686 148.773 84.0697 148.534C83.4535 148.296 69.9941 144.636 66.7184 143.458C66.7184 143.458 66.086 143.029 65.4697 144.19C65.4697 144.19 65.5995 147.993 65.4697 148.423C65.4697 148.423 67.4319 145.813 67.6914 146.004C71.9 147.494 76.2073 148.701 80.5833 149.616C80.7155 149.8 80.8142 150.005 80.8751 150.221C80.8751 150.38 75.8319 163.476 73.4319 170L76.6589 170ZM79.286 133.943L78.2643 128.596H78.086C77.4436 128.643 76.7976 128.589 76.1724 128.437C76.5141 128.751 76.7865 129.131 76.9728 129.552C77.159 129.974 77.255 130.428 77.255 130.888C77.255 131.347 77.159 131.801 76.9728 132.223C76.7865 132.645 76.5141 133.024 76.1724 133.338C77.1904 133.612 78.2332 133.788 79.286 133.863V133.943ZM92.5508 119.701C92.6354 119.986 92.679 120.28 92.6806 120.576C92.6826 121.272 92.4655 121.951 92.0591 122.52C91.6527 123.09 91.0768 123.523 90.4103 123.759C90.9204 124.012 91.3992 124.321 91.8373 124.682L96.8481 120.608C96.8481 120.608 95.0157 120.147 92.5508 119.622V119.701ZM73.8211 127.45H74.2427C73.6298 126.996 73.084 126.461 72.6211 125.859L67.7562 129.949C67.7562 129.949 68.8751 130.522 70.513 131.222C70.5044 131.068 70.5044 130.914 70.513 130.76C70.521 129.896 70.8701 129.068 71.487 128.451C72.1039 127.834 72.9405 127.475 73.8211 127.45ZM94.74 132.224L89.8751 136.282C91.7525 136.635 93.6468 136.895 95.5508 137.062C95.3881 136.673 95.3054 136.257 95.3076 135.836C95.3071 135.346 95.4156 134.861 95.6257 134.416C95.8357 133.97 96.1422 133.576 96.5238 133.259C95.8878 132.962 95.2892 132.593 94.74 132.161V132.224ZM68.0481 118.54C67.6682 118.354 67.2646 118.221 66.8481 118.142V121.404L68.9238 119.813C68.7186 119.337 68.4212 118.904 68.0481 118.54ZM71.8914 113.32L69.1995 115.898H69.3779C70.1891 116.358 70.8479 117.037 71.2751 117.855L75.1508 114.752L71.8914 113.32ZM61.2697 119.081L72.4427 109.533C73.5641 98.1676 77.1526 87.1696 82.967 77.2786C82.4943 76.3911 82.0878 75.4711 81.7508 74.5258C81.1279 74.2348 80.5751 73.8171 80.1292 73.3005L81.4103 73.571C80.4509 70.4793 80.0181 67.2535 80.1292 64.0236C80.1292 63.1643 80.1292 62.4323 80.2265 61.7163C67.4598 78.1743 60.7751 98.4027 61.2697 119.081Z" fill="#F4C900"/>
<path d="M109.043 170C109.643 166.97 111.167 159.214 112.286 155.725H103.27C102.556 157.152 100.205 164.099 98.4049 170H96.5563C98.6968 163.084 101.745 154.646 101.891 154.392C101.968 154.246 102.084 154.123 102.227 154.036C102.37 153.95 102.534 153.903 102.702 153.901H113.486C113.634 153.905 113.778 153.943 113.907 154.013C114.037 154.082 114.148 154.18 114.232 154.299C114.315 154.417 114.369 154.554 114.389 154.697C114.409 154.84 114.394 154.986 114.345 155.122C113.373 157.691 111.459 166.796 110.81 170H109.043ZM81.8968 88.4418C82.0175 86.7981 82.2614 85.1653 82.6266 83.5565C78.456 90.8374 75.9238 98.9057 75.1995 107.221L77.1617 105.54C77.8174 99.6337 79.4152 93.8643 81.8968 88.4418ZM72.3941 120.243C72.8968 121.227 73.3671 122.147 73.8698 122.924L78.1833 119.482L79.513 125.446C80.3401 125.208 81.2968 124.875 82.2374 124.542L82.9022 124.304L81.0374 116.786L77.0157 115.517L72.0212 119.482L72.3941 120.243ZM90.459 150.966L86.1941 154.361C86.0527 154.475 85.9494 154.629 85.8974 154.801C85.8454 154.973 85.8471 155.157 85.9022 155.328L87.686 160.483C87.7324 160.618 87.8115 160.741 87.9166 160.84C88.0217 160.939 88.1497 161.012 88.2898 161.053C88.4298 161.093 88.5778 161.1 88.7211 161.073C88.8644 161.045 88.9988 160.984 89.113 160.895L93.1347 157.723C93.2762 157.616 93.3814 157.469 93.4363 157.302C93.4913 157.135 93.4935 156.956 93.4428 156.787L91.8212 151.426C91.7799 151.295 91.7076 151.175 91.61 151.076C91.5124 150.977 91.3924 150.903 91.2596 150.858C91.1268 150.813 90.9851 150.799 90.846 150.818C90.7069 150.837 90.5743 150.888 90.459 150.966ZM99.8968 120.608L93.2157 126.112C93.6622 126.658 94.0737 127.23 94.4482 127.825C94.7411 128.292 95.0895 128.723 95.486 129.11L101.113 124.431L104.194 129.506L105.67 128.539C106.14 128.221 106.627 127.888 107.129 127.587L102.945 120.656L99.8968 120.608ZM116.113 137.357L120.086 130.918C119.002 130.28 117.856 129.748 116.664 129.332C114.783 132.314 113.162 134.756 112.983 135.105C112.351 136.184 111.702 135.105 111.702 135.105L108.621 130.03L107.34 130.87C106.821 131.219 106.27 131.584 105.718 131.933L109.221 137.722C111.329 137.849 116.145 137.405 116.145 137.405L116.113 137.357ZM90.913 127.841L84.9617 132.71L83.5995 127.175L83.2428 127.302C82.1563 127.682 81.1022 128.047 80.1455 128.317L81.5887 134.836C83.4543 135.41 85.3799 135.777 87.3293 135.93L93.232 131.029C92.7466 130.544 92.312 130.012 91.9347 129.443C91.6427 128.923 91.3121 128.424 90.9455 127.952L90.913 127.841ZM39.5076 170L39.832 166.827C39.85 166.65 39.83 166.47 39.7731 166.301C39.7162 166.131 39.6238 165.974 39.5017 165.842C39.3797 165.709 39.2306 165.602 39.0641 165.529C38.8976 165.456 38.7173 165.417 38.5347 165.416H32.6157C32.2864 165.419 31.9703 165.543 31.73 165.763C31.4897 165.984 31.2942 166.284 31.2698 166.605L30.459 170L39.5076 170ZM104.243 42.7776C103.35 41.5718 102.17 40.5972 100.805 39.9384C94.3185 36.8614 89.2752 43.4438 89.2752 43.4438C90.1594 42.7428 91.181 42.2263 92.2771 41.9262C93.3731 41.6262 94.5204 41.5488 95.6482 41.699C96.9767 41.8122 98.2657 42.1984 99.4311 42.8325C100.596 43.4667 101.612 44.3344 102.41 45.3788L129.378 80.5747V75.8163L104.243 42.7776ZM109.805 39.7798C108.486 38.1133 107.835 37.6189 105.864 36.7662C105.459 36.8455 103.854 36.6552 103.432 36.7662C104.972 37.6475 105.956 38.1738 107.227 39.3992C108.102 40.2081 120.394 56.4023 129.378 68.3774V65.8238L109.805 39.7798ZM129.378 124.304V118.61L128.648 117.737L123.783 118.768L122.486 120.354L118.221 126.953C119.378 127.389 120.496 127.919 121.562 128.539L126.621 120.957L129.378 124.304ZM46.5617 163.259C46.5617 163.259 58.8698 149.428 49.3671 133.123L42.7671 138.848C43.0266 139.404 47.113 148.666 40.9185 156.296C40.9185 156.169 45.9617 161.688 46.5617 163.259ZM89.632 169.08L88.0103 163.719C87.9724 163.575 87.8978 163.444 87.7936 163.337C87.6894 163.229 87.559 163.15 87.4146 163.105C87.2703 163.061 87.1167 163.053 86.9685 163.083C86.8202 163.112 86.6821 163.178 86.5671 163.275L82.3509 166.653C82.2094 166.768 82.1061 166.921 82.0541 167.093C82.0022 167.266 82.0038 167.449 82.059 167.621L82.886 170H89.3725C89.5024 169.888 89.5962 169.741 89.6422 169.577C89.6883 169.414 89.6848 169.241 89.632 169.08ZM64.513 119.926L61.9022 122.543V126.651C62.6935 127.523 63.5677 128.32 64.513 129.03C65.0352 129.226 65.6126 129.226 66.1347 129.03L71.4698 124.764C70.814 123.738 70.2132 122.679 69.6698 121.592V121.433L65.113 125.049V119.387L64.513 119.926ZM71.8914 170H66.0374L59.3401 166.827C61.7504 162.96 63.4978 158.732 64.513 154.313C66.1347 150.966 67.7563 148.064 67.7563 148.064C67.8576 147.868 68.0318 147.718 68.243 147.644C68.4542 147.57 68.6863 147.579 68.8914 147.667C69.7185 147.937 77.1455 150.221 78.1833 150.459C79.2212 150.697 79.1076 151.49 78.7995 152.441C78.4914 153.393 73.3833 166.161 71.8914 170ZM60.7995 165.685C63.7979 167.18 66.8722 168.525 70.0103 169.714C72.5563 162.815 76.4968 153.377 76.9347 152.092C74.9887 151.553 70.4482 150.173 68.8266 149.65L60.7995 165.685Z" fill="#C72F2A"/>
</g>
<path d="M25.3846 73.9243C21.2308 79.4627 16.4615 84.6935 11.2308 89.4627C10.9231 89.7704 10.9231 90.232 11.2308 90.5397C16.4615 95.3089 21.2308 100.54 25.3846 106.078C25.6923 106.54 26.3077 106.54 26.6154 106.078C30.7692 100.54 35.5385 95.3089 40.7692 90.5397C41.0769 90.232 41.0769 89.7704 40.7692 89.4627C35.5385 84.6935 30.7692 79.4627 26.6154 73.9243C26.3077 73.4627 25.6923 73.4627 25.3846 73.9243Z" fill="#BF3030"/>
<path d="M39.3166 68.514L35.6906 72.362L27.8466 64.666C27.2546 64.666 26.8846 64.74 25.9966 64.74C22.5186 64.74 16.3026 64.518 14.0086 58.228C13.4166 56.6 12.8246 54.528 12.8246 42.17C12.8246 37.878 12.8246 26.186 13.1946 22.56C13.4906 19.748 14.5266 10.942 26.4406 10.942C28.4386 10.942 33.1746 11.164 36.0606 14.864C38.4286 17.972 38.8726 21.894 38.8726 31.81C38.8726 36.546 38.6506 44.538 38.5026 48.46C38.2806 54.232 37.9846 60.226 32.8786 63.112L39.3166 68.514ZM19.4846 37.138C19.4846 47.942 19.4846 51.494 19.7066 53.418C19.8546 55.12 20.2986 59.412 25.7746 59.412C31.4726 59.412 31.7686 54.454 31.9166 51.05C32.0646 47.35 32.2126 40.838 32.2126 37.138C32.2126 34.4 32.2866 29.812 32.1386 24.854C32.0646 22.042 31.9166 16.418 26.1446 16.418C20.2986 16.418 19.9286 21.302 19.6326 24.78C19.4846 26.704 19.4846 28.628 19.4846 37.138Z" fill="#BF3030"/>
<defs>
<linearGradient id="paint0_linear_324_104491" x1="92" y1="2" x2="92" y2="182" gradientUnits="userSpaceOnUse">
<stop stop-color="white" stop-opacity="0.85"/>
<stop offset="1" stop-color="white" stop-opacity="0.15"/>
</linearGradient>
<clipPath id="clip0_324_104491">
<rect width="116.757" height="165" fill="white" transform="translate(12.6211 5)"/>
</clipPath>
</defs>
</svg>
