<svg width="184" height="184" viewBox="0 0 184 184" fill="none" xmlns="http://www.w3.org/2000/svg">
<rect x="1" y="1" width="182" height="182" rx="13" stroke="black" stroke-opacity="0.25" stroke-width="2"/>
<rect x="2.5" y="2.5" width="179" height="179" rx="11.5" fill="#E9E9E9" stroke="url(#paint0_linear_324_104466)"/>
<rect x="41.0449" y="30.5" width="101.909" height="123" rx="1.5" fill="#D7D5D7" stroke="#CDCFD6"/>
<path d="M83.6154 90.8257C74.2692 103.287 63.5385 115.057 51.7692 125.787C51.0769 126.48 51.0769 127.518 51.7692 128.21C63.5385 138.941 74.2692 150.71 83.6154 163.172C84.3077 164.21 85.6923 164.21 86.3846 163.172C95.7308 150.71 106.462 138.941 118.231 128.21C118.923 127.518 118.923 126.48 118.231 125.787C106.462 115.057 95.7308 103.287 86.3846 90.8257C85.6923 89.7873 84.3077 89.7873 83.6154 90.8257Z" fill="#BF3030"/>
<path d="M25.3846 73.9243C21.2308 79.4627 16.4615 84.6935 11.2308 89.4627C10.9231 89.7704 10.9231 90.232 11.2308 90.5397C16.4615 95.3089 21.2308 100.54 25.3846 106.078C25.6923 106.54 26.3077 106.54 26.6154 106.078C30.7692 100.54 35.5385 95.3089 40.7692 90.5397C41.0769 90.232 41.0769 89.7704 40.7692 89.4627C35.5385 84.6935 30.7692 79.4627 26.6154 73.9243C26.3077 73.4627 25.6923 73.4627 25.3846 73.9243Z" fill="#BF3030"/>
<path d="M14.583 50.236H20.577C20.503 52.826 20.503 54.01 20.577 54.232C20.577 55.49 20.725 58.894 25.461 58.894C30.345 58.894 30.419 55.268 30.567 49.94C30.641 48.756 30.567 42.836 30.567 41.504C29.383 42.688 27.311 44.76 23.019 44.76C14.065 44.76 14.065 35.954 14.065 32.698C14.065 27.962 14.065 21.598 14.731 18.564C15.915 12.792 20.947 11.09 25.461 11.09C27.459 11.09 29.531 11.312 31.307 12.2C32.343 12.718 35.821 14.79 36.561 19.896C36.783 21.154 36.783 22.486 36.783 34.252C36.783 37.582 36.709 52.308 36.561 54.602C35.747 63.704 29.013 64.666 25.387 64.666C20.207 64.666 15.841 62.15 14.879 57.562C14.583 56.304 14.583 55.712 14.583 50.236ZM30.641 28.258C30.641 28.036 30.641 22.264 30.567 21.672C30.123 18.046 27.903 16.788 25.683 16.788C23.833 16.788 20.947 17.676 20.503 21.746C20.355 23.004 20.281 28.332 20.281 30.404L20.355 34.252C20.577 37.212 22.427 39.136 25.609 39.136C28.717 39.136 30.641 37.138 30.641 33.438V28.258Z" fill="#BF3030"/>
<defs>
<linearGradient id="paint0_linear_324_104466" x1="92" y1="2" x2="92" y2="182" gradientUnits="userSpaceOnUse">
<stop stop-color="white" stop-opacity="0.85"/>
<stop offset="1" stop-color="white" stop-opacity="0.15"/>
</linearGradient>
</defs>
</svg>
