<svg width="184" height="184" viewBox="0 0 184 184" fill="none" xmlns="http://www.w3.org/2000/svg">
<rect x="1" y="1" width="182" height="182" rx="13" stroke="black" stroke-opacity="0.25" stroke-width="2"/>
<rect x="2.5" y="2.5" width="179" height="179" rx="11.5" fill="#E9E9E9" stroke="url(#paint0_linear_324_104525)"/>
<rect x="41.0449" y="30.5" width="101.909" height="123" rx="1.5" fill="#D7D5D7" stroke="#CDCFD6"/>
<g clip-path="url(#clip0_324_104525)">
<path d="M129.378 39.8948V165.201C129.378 166.474 128.865 167.694 127.953 168.593C127.041 169.493 125.803 169.998 124.513 169.998H17.486C16.1957 169.998 14.9583 169.493 14.046 168.593C13.1336 167.694 12.6211 166.474 12.6211 165.201V128.89C26.8103 115.108 46.8049 108.392 52.7238 106.697C53.6806 106.41 54.2157 106.282 54.2157 106.282L55.5292 105.914L54.7184 104.939C54.2397 104.287 53.9178 103.537 53.7773 102.744C53.6368 101.952 53.6814 101.138 53.9076 100.366C54.1858 99.2257 54.8303 98.2049 55.7451 97.4557C56.6598 96.7065 57.7957 96.269 58.9833 96.2085C59.8675 96.2013 60.7424 96.3869 61.5454 96.7521L62.0806 97.0079V96.4323C62.0806 95.1851 62.0806 93.7621 62.0806 92.2911V91.8754H61.6589C60.8952 92.0309 60.1032 91.9825 59.3648 91.7351C58.6265 91.4878 57.9685 91.0504 57.4589 90.4684C56.9438 89.8576 56.5971 89.1262 56.4522 88.3448C56.3074 87.5634 56.3692 86.7584 56.6319 86.0074C56.8622 85.3786 57.2671 84.8263 57.8004 84.4136C58.3337 84.0008 58.974 83.7442 59.6481 83.673C60.0904 83.5904 60.5456 83.6034 60.9824 83.7111C61.4191 83.8187 61.827 84.0185 62.1778 84.2966L62.5184 84.5684L62.8103 84.0727C65.4496 80.0965 67.115 75.5696 67.6751 70.8497V62.3435C67.5292 61.688 67.367 61.0324 67.2049 60.4248V60.2489L67.0265 60.169C66.9235 60.1375 66.8298 60.0817 66.7535 60.0065C66.6772 59.9313 66.6206 59.8389 66.5887 59.7373C65.3969 56.5532 63.9939 53.4499 62.3887 50.4476C61.1562 48.0013 59.8751 45.475 58.8211 42.8848V42.8368V42.597C58.3995 41.11 57.767 38.8875 58.7238 37.4325C58.9697 37.0852 59.2907 36.7961 59.6637 36.5859C60.0366 36.3758 60.4523 36.2499 60.8806 36.2173V36.2173C62.8086 36.153 64.7235 36.5537 66.4589 37.3845L66.8319 37.5604L66.9616 37.1767C67.4481 35.4658 69.0211 31.4366 70.8211 30.5572C72.6211 29.6778 75.1184 32.1561 78.4427 37.2886L78.6373 37.5764L78.9292 37.4005C82.4913 35.3136 86.5956 34.3018 90.7346 34.4905C95.233 34.7722 99.5576 36.3081 103.205 38.9195L103.529 39.1593L103.74 38.8075C104.836 36.7263 106.284 34.8446 108.021 33.2433C108.301 32.9779 108.642 32.7815 109.014 32.6704C109.386 32.5592 109.779 32.5364 110.162 32.6038C111.783 32.9395 112.918 35.0341 113.713 36.5691C113.713 36.729 113.859 36.8729 113.94 37.0008C114.426 37.9281 114.897 38.8875 115.367 39.9588L115.497 40.2626L115.821 40.1666C119.753 38.9391 123.933 38.6973 127.983 39.4631V39.4631C128.47 39.639 128.924 39.7669 129.378 39.8948Z" fill="#E7E7E7"/>
<path d="M62.4883 155.438C61.7264 156.299 60.2673 156.411 58.8407 154.912C57.4141 153.413 58.2409 147.465 58.2409 147.465C64.1095 152.217 63.2665 154.593 62.4883 155.438ZM64.4986 164.528C64.0513 166.303 63.7993 168.17 63.7617 169.998H68.3172C67.4711 167.932 66.1709 166.031 64.4986 164.528ZM67.0762 143.334C67.7409 142.393 68.2759 139.937 61.8561 135.935C61.8561 135.935 61.775 141.931 63.3962 143.254C65.0174 144.578 66.4602 144.275 67.1087 143.334H67.0762ZM129.345 140.129V134.148C126.573 137.338 127.205 138.949 127.822 139.618C128.015 139.823 128.252 139.982 128.515 140.084C128.779 140.186 129.063 140.228 129.345 140.209V140.129ZM122.52 165.533C123.688 163.811 121.856 158.086 121.856 158.086C116.879 163.731 118.111 165.948 119.019 166.649C119.926 167.351 121.369 167.255 122.52 165.533ZM73.7068 161.865C74.485 161.004 75.328 158.676 69.4594 153.891C69.4594 153.891 68.6326 159.84 70.0592 161.355C71.4858 162.87 72.9449 162.726 73.7068 161.865ZM56.8629 139.076C57.5275 138.135 58.0625 135.679 51.6427 131.661C51.6427 131.661 51.5616 137.673 53.1828 138.997C54.804 140.32 56.2144 140.017 56.8629 139.076ZM53.1504 125.154C54.885 126.302 56.263 125.872 56.8304 124.867C57.3978 123.863 57.6572 121.375 50.8645 118.026C50.9294 118.074 51.5292 124.006 53.1504 125.154ZM103.796 120.641L103.893 120.402L103.974 120.131L103.796 120.641ZM128.113 39.4532C128.535 39.5488 128.956 39.6924 129.378 39.82V79.8797C129.045 78.5208 128.86 77.1309 128.827 75.7334L127.497 75.3826C127.49 76.3863 127.566 77.389 127.724 78.3807C128.017 80.3539 128.561 82.2828 129.345 84.1217V86.6573C127.397 83.1045 126.372 79.1325 126.362 75.0955L125.082 74.7766C124.948 79.9555 126.437 85.0496 129.345 89.3684V91.3618C125.657 86.5326 123.763 80.6057 123.979 74.5692L122.715 74.2662C122.261 78.7953 123.282 85.9875 129.345 93.4031V95.0935C122.537 87.2155 121.094 79.1461 121.629 73.9473L120.364 73.6602C119.683 78.6677 120.624 87.4228 128.47 95.9865C128.746 96.2576 129.086 96.6262 129.345 96.9133V98.5878C128.84 97.9678 128.234 97.2952 127.659 96.736C119.781 88.1883 118.419 78.9229 119.197 73.3891L117.997 73.134C117.517 77.4091 117.993 81.7358 119.394 85.8104C120.794 89.885 123.084 93.6087 126.103 96.7201C127.331 97.9203 128.419 99.2523 129.345 100.691V102.876C128.284 100.884 126.923 99.0614 125.309 97.4696C117.089 88.5551 115.971 78.5401 116.927 72.8948L115.711 72.6556C115.077 77.1125 115.463 81.6527 116.844 85.9435C118.224 90.2343 120.562 94.1671 123.688 97.4537C126.13 99.7961 128.056 102.608 129.345 105.714V109.382C128.302 105.132 126.053 101.261 122.861 98.2192C119.593 94.8167 117.152 90.7305 115.72 86.2671C114.288 81.8037 113.903 77.0792 114.593 72.4482L113.377 72.209C112.595 76.8398 112.896 81.585 114.259 86.0838C115.621 90.5826 118.009 94.7166 121.24 98.1713C125.214 101.677 127.76 106.482 128.405 111.695C128.538 113.247 128.334 114.809 127.805 116.277C127.277 117.746 126.437 119.086 125.341 120.211L125.876 120.306C127.615 119.124 128.851 117.353 129.345 115.331V118.074C128.856 118.948 128.22 119.735 127.465 120.402H128C128.486 120.119 128.938 119.782 129.345 119.397V122.029H129.086H128.956C128.841 122.029 128.728 121.996 128.632 121.933C128.517 121.997 128.418 122.084 128.34 122.188C128.309 122.276 128.309 122.371 128.34 122.459C128.421 122.698 128.81 122.893 129.345 122.829V124.424C128.6 124.424 127.984 124.532 127.773 124.564C127.497 124.603 127.246 124.746 127.076 124.963C127.057 125.006 127.047 125.052 127.047 125.098C127.047 125.145 127.057 125.191 127.076 125.234C127.118 125.33 127.178 125.416 127.254 125.489C127.919 125.489 128.697 125.489 129.345 125.489V126.861C128.227 126.956 126.735 127.02 126.427 127.068C126.288 127.085 126.153 127.129 126.03 127.197C125.908 127.266 125.8 127.357 125.714 127.467C125.691 127.508 125.679 127.555 125.679 127.602C125.679 127.649 125.691 127.696 125.714 127.738C125.714 127.993 126.265 128.2 126.849 128.104H128.357C128.566 128.087 128.776 128.133 128.958 128.235C129.14 128.338 129.287 128.492 129.378 128.679C129.378 128.982 129.2 129.285 128.794 129.444C127.919 129.556 125.552 129.683 125.147 129.763C124.872 129.807 124.624 129.949 124.45 130.162C124.427 130.251 124.427 130.344 124.45 130.433C124.45 131.007 126.379 130.911 126.914 130.816C127.121 130.799 127.328 130.846 127.507 130.948C127.687 131.051 127.83 131.205 127.919 131.39C127.919 131.693 127.757 131.996 127.351 132.155C126.525 132.283 124.352 132.426 123.915 132.522C123.782 132.541 123.655 132.586 123.541 132.654C123.426 132.723 123.327 132.813 123.25 132.921C123.232 132.964 123.222 133.01 123.222 133.056C123.222 133.103 123.232 133.149 123.25 133.192C123.347 133.495 125.082 133.638 125.552 133.559C125.753 133.541 125.955 133.583 126.131 133.68C126.308 133.776 126.45 133.923 126.541 134.101C126.541 134.42 126.379 134.723 125.99 134.882C125.228 135.01 123.217 135.185 122.747 135.281C122.615 135.3 122.489 135.347 122.377 135.418C122.265 135.49 122.17 135.584 122.099 135.695C122.076 135.737 122.064 135.784 122.064 135.831C122.064 135.878 122.076 135.925 122.099 135.967C122.099 136.222 122.585 136.381 123.007 136.333H124.223C124.419 136.315 124.617 136.358 124.788 136.455C124.96 136.552 125.096 136.699 125.179 136.876C125.276 137.179 125.033 137.497 124.644 137.657C123.963 137.8 122.115 137.992 121.645 138.103C121.52 138.124 121.4 138.17 121.294 138.239C121.188 138.307 121.097 138.397 121.029 138.502C121.009 138.548 120.999 138.596 120.999 138.646C120.999 138.695 121.009 138.744 121.029 138.789C121.116 138.929 121.247 139.038 121.401 139.101C121.555 139.164 121.726 139.178 121.888 139.14H123.007C123.198 139.118 123.391 139.157 123.558 139.252C123.724 139.347 123.855 139.492 123.931 139.666C124.028 139.969 123.801 140.288 123.412 140.464C123.023 140.639 121.094 140.799 120.624 140.91C120.504 140.934 120.39 140.981 120.29 141.05C120.189 141.118 120.104 141.207 120.04 141.309C120.014 141.355 120.001 141.408 120.001 141.46C120.001 141.513 120.014 141.565 120.04 141.612C120.04 141.867 120.494 141.995 120.883 141.963H121.856C122.041 141.95 122.226 141.994 122.386 142.088C122.545 142.182 122.671 142.322 122.747 142.489C122.775 142.661 122.74 142.838 122.648 142.987C122.556 143.136 122.413 143.248 122.245 143.302C121.694 143.414 120.153 143.653 119.667 143.765C119.553 143.791 119.445 143.84 119.35 143.909C119.256 143.977 119.176 144.064 119.116 144.163C119.092 144.21 119.079 144.262 119.079 144.315C119.079 144.368 119.092 144.42 119.116 144.466C119.2 144.602 119.324 144.709 119.472 144.771C119.621 144.834 119.785 144.85 119.943 144.817H120.786C120.964 144.808 121.142 144.851 121.295 144.942C121.448 145.033 121.57 145.168 121.645 145.328C121.676 145.504 121.641 145.686 121.546 145.839C121.45 145.992 121.301 146.105 121.126 146.157C120.688 146.253 119.262 146.508 118.792 146.635C118.679 146.661 118.573 146.71 118.481 146.779C118.389 146.848 118.313 146.934 118.257 147.034C118.235 147.082 118.223 147.133 118.223 147.186C118.223 147.238 118.235 147.289 118.257 147.337C118.347 147.477 118.481 147.585 118.639 147.645C118.796 147.706 118.969 147.715 119.132 147.672H119.781C119.955 147.664 120.127 147.709 120.275 147.8C120.422 147.892 120.538 148.025 120.607 148.182C120.643 148.359 120.609 148.543 120.513 148.697C120.417 148.85 120.265 148.963 120.089 149.011C119.748 149.107 118.467 149.362 117.981 149.506C117.872 149.531 117.77 149.578 117.681 149.644C117.592 149.71 117.517 149.793 117.462 149.889C117.421 149.991 117.421 150.105 117.462 150.208C117.539 150.341 117.659 150.446 117.802 150.507C117.946 150.567 118.105 150.58 118.257 150.542H118.84C119.005 150.539 119.168 150.584 119.306 150.672C119.445 150.76 119.554 150.887 119.618 151.037C119.66 151.216 119.631 151.404 119.538 151.564C119.445 151.723 119.294 151.843 119.116 151.898L118.403 152.089C117.851 152.233 117.657 152.233 117.219 152.376C117.115 152.402 117.017 152.449 116.933 152.515C116.849 152.581 116.781 152.665 116.733 152.759C116.69 152.867 116.69 152.986 116.733 153.094C116.809 153.223 116.927 153.325 117.067 153.382C117.208 153.44 117.364 153.451 117.511 153.413C117.511 153.413 118.646 153.094 118.711 153.844C118.732 154.036 118.685 154.229 118.579 154.391C118.473 154.554 118.313 154.676 118.127 154.737H117.835L116.538 155.103C116.337 155.166 116.168 155.303 116.068 155.486C116.043 155.539 116.031 155.596 116.031 155.654C116.031 155.711 116.043 155.769 116.068 155.821C116.068 156.379 117.138 156.124 117.17 156.092C117.318 156.102 117.46 156.151 117.58 156.236C117.7 156.32 117.794 156.436 117.851 156.571C117.875 156.672 117.877 156.778 117.858 156.88C117.838 156.983 117.797 157.081 117.738 157.167C117.679 157.254 117.602 157.328 117.513 157.384C117.424 157.441 117.324 157.478 117.219 157.495C116.538 157.703 116.279 157.783 115.906 157.926C115.809 157.95 115.719 157.996 115.643 158.059C115.568 158.123 115.508 158.203 115.468 158.293C115.443 158.348 115.43 158.408 115.43 158.468C115.43 158.529 115.443 158.588 115.468 158.644C115.556 158.785 115.693 158.891 115.854 158.941C116.015 158.991 116.189 158.982 116.344 158.915C116.084 159.01 116.214 158.915 116.344 158.915C116.493 158.918 116.638 158.963 116.761 159.045C116.885 159.127 116.982 159.243 117.041 159.377C117.065 159.479 117.067 159.584 117.049 159.687C117.031 159.79 116.992 159.888 116.934 159.975C116.877 160.063 116.802 160.139 116.715 160.198C116.627 160.256 116.529 160.297 116.425 160.318C115.792 160.51 115.663 160.605 115.306 160.733C115.122 160.796 114.971 160.928 114.885 161.1C114.861 161.155 114.848 161.215 114.848 161.275C114.848 161.335 114.861 161.395 114.885 161.45C114.95 161.574 115.057 161.671 115.187 161.726C115.316 161.782 115.462 161.791 115.598 161.753C115.736 161.767 115.868 161.817 115.98 161.898C116.091 161.98 116.178 162.089 116.23 162.216C116.259 162.314 116.267 162.418 116.254 162.519C116.241 162.621 116.207 162.719 116.154 162.807C116.101 162.896 116.03 162.972 115.945 163.032C115.861 163.092 115.765 163.135 115.663 163.157C115.342 163.273 115.029 163.406 114.722 163.555C114.554 163.623 114.416 163.748 114.333 163.906C114.309 163.964 114.296 164.027 114.296 164.09C114.296 164.153 114.309 164.215 114.333 164.273C114.386 164.379 114.47 164.466 114.574 164.523C114.679 164.58 114.798 164.604 114.917 164.592H114.755C114.883 164.604 115.006 164.65 115.109 164.726C115.212 164.802 115.291 164.905 115.339 165.023C115.378 165.217 115.338 165.418 115.23 165.585C115.121 165.751 114.951 165.87 114.755 165.916C114.317 166.038 113.931 166.295 113.652 166.649C113.604 166.772 113.604 166.909 113.652 167.032C113.652 167.399 114.577 167.303 114.722 167.782C114.868 168.26 114.609 168.515 114.22 168.722C113.863 168.886 113.552 169.132 113.312 169.44C113.284 169.5 113.27 169.565 113.27 169.631C113.27 169.697 113.284 169.763 113.312 169.823C113.312 169.823 113.162 169.998 113.972 169.998H102.621L114.755 156.555C114.755 156.555 115.63 155.295 115.03 154.577C114.431 153.859 113.652 154.577 113.652 154.577L100.189 169.998H80.7292C80.6362 169.76 80.1624 169.455 80.1915 169.201C80.1544 169.12 80.0919 169.053 80.0132 169.009C79.7538 168.898 79.3809 168.691 79.3809 168.691C79.2823 168.665 79.19 168.62 79.1097 168.558C79.0295 168.496 78.963 168.419 78.9143 168.331C78.8657 168.242 78.836 168.145 78.827 168.045C78.8181 167.945 78.83 167.845 78.8622 167.75C78.906 167.637 78.978 167.537 79.0715 167.459C79.165 167.381 79.277 167.327 79.3971 167.303C79.5065 167.309 79.6153 167.283 79.7102 167.229C79.8051 167.176 79.8822 167.096 79.9321 167C79.9599 166.94 79.9743 166.875 79.9743 166.809C79.9743 166.743 79.9599 166.677 79.9321 166.617C79.8969 166.537 79.8458 166.465 79.7817 166.405C79.7177 166.345 79.642 166.298 79.5593 166.267C79.3178 166.126 79.0689 165.998 78.8135 165.884C78.714 165.856 78.6211 165.81 78.5402 165.746C78.4592 165.683 78.3919 165.605 78.3421 165.516C78.2923 165.427 78.261 165.329 78.2501 165.228C78.2392 165.127 78.2488 165.024 78.2785 164.927C78.3259 164.809 78.4055 164.707 78.5085 164.631C78.6115 164.555 78.7339 164.508 78.8622 164.496L79.154 164.608C79.2561 164.622 79.3599 164.601 79.4483 164.548C79.5367 164.496 79.6044 164.416 79.6403 164.321C79.6885 164.187 79.6885 164.04 79.6403 163.906C79.5212 163.716 79.3459 163.566 79.1378 163.476C78.8135 163.364 78.3272 163.109 78.1975 163.077C78.0083 163.077 77.8269 163.003 77.6931 162.872C77.5593 162.74 77.4842 162.561 77.4842 162.375C77.4842 162.189 77.5593 162.011 77.6931 161.879C77.8269 161.748 78.0083 161.674 78.1975 161.674H78.2947C78.9432 161.913 79.0243 161.674 79.1215 161.45C79.2188 161.227 78.7649 160.717 78.5866 160.653C78.4082 160.589 78.084 160.43 77.4517 160.238C77.3581 160.233 77.2664 160.21 77.1818 160.17C77.0973 160.13 77.0217 160.074 76.9592 160.005C76.8967 159.936 76.8487 159.856 76.8177 159.768C76.7868 159.681 76.7736 159.589 76.779 159.497C76.7843 159.405 76.808 159.315 76.8488 159.231C76.8895 159.148 76.9465 159.074 77.0165 159.012C77.0865 158.951 77.1682 158.904 77.2567 158.873C77.3453 158.843 77.4391 158.83 77.5328 158.835C78.0191 158.995 77.3383 158.835 77.9543 158.963C78.311 159.09 78.5379 159.138 78.6514 158.851C78.6514 158.851 79.0243 158.341 78.0191 157.846C77.5947 157.666 77.1554 157.522 76.706 157.416C76.5998 157.401 76.498 157.364 76.4068 157.309C76.3157 157.253 76.2372 157.18 76.1763 157.093C76.1154 157.006 76.0734 156.908 76.053 156.804C76.0325 156.7 76.0341 156.594 76.0575 156.491C76.1213 156.352 76.2235 156.233 76.3525 156.149C76.4815 156.064 76.6321 156.017 76.7871 156.012L77.3058 156.172C77.6949 156.299 77.7435 156.028 77.857 155.741C77.8996 155.634 77.8996 155.514 77.857 155.406C77.8108 155.316 77.7468 155.236 77.6689 155.17C77.591 155.105 77.5007 155.055 77.4031 155.024L76.09 154.657H75.8144C75.6156 154.615 75.4415 154.498 75.3294 154.331C75.2173 154.164 75.176 153.96 75.2145 153.764C75.2799 153.618 75.3865 153.494 75.5216 153.406C75.6567 153.319 75.8146 153.271 75.9765 153.269L76.4142 153.397C76.569 153.448 76.7378 153.436 76.8837 153.364C77.0296 153.292 77.1406 153.166 77.1924 153.014C77.2349 152.907 77.2349 152.787 77.1924 152.679C77.1441 152.585 77.0757 152.502 76.9917 152.436C76.9078 152.37 76.8103 152.322 76.706 152.297C76.2683 152.153 76.09 152.153 75.5225 152.01L74.8254 151.818C74.6442 151.766 74.4898 151.648 74.3935 151.488C74.2972 151.328 74.2662 151.139 74.3067 150.957C74.3714 150.808 74.4801 150.681 74.6188 150.593C74.7574 150.505 74.9198 150.459 75.0848 150.463L75.6522 150.59C75.732 150.618 75.8165 150.629 75.9009 150.624C75.9852 150.618 76.0675 150.596 76.1431 150.559C76.2187 150.522 76.2859 150.47 76.3408 150.407C76.3957 150.344 76.4372 150.271 76.4628 150.192C76.5043 150.089 76.5043 149.975 76.4628 149.873C76.4094 149.776 76.3354 149.692 76.2459 149.626C76.1564 149.56 76.0534 149.513 75.944 149.49C75.4901 149.346 74.177 149.091 73.8365 148.996C73.6619 148.944 73.5127 148.831 73.4171 148.678C73.3215 148.525 73.2862 148.343 73.3177 148.166C73.3766 147.98 73.4991 147.819 73.6646 147.712C73.8301 147.604 74.0283 147.556 74.2256 147.576L74.8579 147.752C75.0362 147.796 75.2248 147.775 75.3886 147.693C75.5525 147.61 75.6807 147.473 75.7495 147.305C75.775 147.259 75.7884 147.207 75.7884 147.154C75.7884 147.101 75.775 147.049 75.7495 147.002C75.6936 146.903 75.6171 146.816 75.525 146.747C75.4328 146.678 75.3271 146.629 75.2145 146.603C74.7444 146.476 73.3177 146.221 72.88 146.125C72.7054 146.073 72.5562 145.96 72.4606 145.807C72.365 145.654 72.3297 145.472 72.3613 145.296C72.4358 145.136 72.5577 145.001 72.7109 144.91C72.8642 144.819 73.0417 144.776 73.2205 144.785L73.9986 144.945C74.1769 144.985 74.364 144.963 74.5271 144.881C74.6902 144.8 74.8188 144.664 74.8903 144.498C74.9308 144.401 74.9308 144.292 74.8903 144.195C74.7589 143.997 74.5563 143.855 74.3229 143.797C73.8527 143.685 72.2964 143.446 71.7614 143.334C71.2264 143.223 71.1454 142.84 71.2426 142.521C71.3222 142.357 71.4492 142.219 71.6078 142.125C71.7664 142.032 71.9495 141.986 72.1343 141.995L72.9611 142.154C73.1553 142.201 73.36 142.183 73.5423 142.102C73.7246 142.021 73.8739 141.882 73.9662 141.708C74.0008 141.609 74.0008 141.503 73.9662 141.405C73.8987 141.302 73.8107 141.214 73.7076 141.145C73.6046 141.077 73.4885 141.029 73.3664 141.006C72.8962 140.894 71.2102 140.687 70.578 140.559C70.4114 140.505 70.2689 140.397 70.1744 140.251C70.0799 140.106 70.0392 139.933 70.0592 139.762C70.1389 139.591 70.2706 139.449 70.4361 139.354C70.6016 139.26 70.7928 139.219 70.9833 139.236C71.5507 139.347 71.6966 139.347 71.9398 139.395C72.1399 139.441 72.3499 139.419 72.5354 139.332C72.721 139.245 72.871 139.098 72.9611 138.917C72.9852 138.873 72.9978 138.823 72.9978 138.773C72.9978 138.723 72.9852 138.674 72.9611 138.63C72.8941 138.523 72.8042 138.432 72.6978 138.363C72.5914 138.295 72.471 138.249 72.345 138.231C71.8749 138.119 70.043 137.928 69.3459 137.785C68.9568 137.625 68.7298 137.306 68.8109 137.003C68.8957 136.828 69.0326 136.682 69.2034 136.586C69.3742 136.489 69.5709 136.445 69.7674 136.461C69.8484 136.461 70.6104 136.557 70.8374 136.604C71.0444 136.653 71.2621 136.633 71.4559 136.546C71.6497 136.459 71.8085 136.312 71.9073 136.126C71.9265 136.083 71.9365 136.037 71.9365 135.99C71.9365 135.944 71.9265 135.898 71.9073 135.855C71.8324 135.747 71.7366 135.655 71.6253 135.584C71.514 135.513 71.3894 135.464 71.2589 135.44C70.8049 135.345 68.7947 135.169 68.0165 135.042C67.6274 134.882 67.3843 134.579 67.4815 134.26C67.5788 133.941 67.9679 133.734 68.4542 133.718C68.5677 133.718 69.4107 133.814 69.6539 133.861C69.8691 133.907 70.0935 133.882 70.2927 133.789C70.4918 133.697 70.6547 133.543 70.7563 133.351C70.7755 133.308 70.7854 133.262 70.7854 133.216C70.7854 133.169 70.7755 133.123 70.7563 133.08C70.6755 132.972 70.5737 132.882 70.4568 132.813C70.3398 132.745 70.2102 132.7 70.0754 132.681C69.6539 132.586 67.4653 132.442 66.6547 132.315C66.2494 132.155 66.0063 131.852 66.0873 131.549C66.1718 131.361 66.3145 131.205 66.4951 131.101C66.6756 130.998 66.8848 130.954 67.0925 130.975C67.3518 130.975 67.7085 130.975 68.4867 131.119C68.6991 131.161 68.9198 131.132 69.1136 131.036C69.3074 130.941 69.4634 130.785 69.5566 130.592C69.5793 130.551 69.5912 130.504 69.5912 130.457C69.5912 130.409 69.5793 130.363 69.5566 130.321C69.3849 130.105 69.1353 129.962 68.8595 129.922C68.4542 129.922 66.0873 129.715 65.2281 129.604C64.8066 129.444 64.5634 129.141 64.6445 128.838C64.7338 128.65 64.8799 128.495 65.0627 128.392C65.2455 128.289 65.4562 128.244 65.6658 128.264C65.6658 128.264 68.2759 128.264 68.2921 127.849C68.3162 127.761 68.3162 127.667 68.2921 127.578C68.1082 127.36 67.8479 127.218 67.5626 127.18C67.1735 127.18 64.6283 127.02 63.7204 126.908C63.2989 126.749 63.0233 126.462 63.1044 126.143C63.1631 125.973 63.2846 125.831 63.4448 125.744L62.9423 125.473H62.845C62.2419 125.311 61.6639 125.07 61.1265 124.756C61.0755 124.722 61.0315 124.678 60.9968 124.628C60.2317 124.443 59.5127 124.107 58.883 123.641C58.2533 123.175 57.726 122.589 57.333 121.917C57.3167 121.865 57.3167 121.809 57.333 121.757C56.6865 121.261 56.1604 120.629 55.7929 119.908C55.6146 119.764 55.4524 119.605 55.2903 119.445C54.698 118.798 54.2414 118.042 53.9465 117.221C53.6516 116.4 53.5243 115.53 53.5719 114.661C53.5719 114.661 53.5719 114.533 53.4908 114.47L53.2639 114.581C50.362 115.57 47.5898 116.622 44.9473 117.771C48.3355 120.609 47.8816 122.411 47.3304 123.177C46.7792 123.942 45.2553 124.405 43.6503 123.177C42.7648 121.952 42.2888 120.486 42.2885 118.983C41.4617 119.333 40.6674 119.7 39.8406 120.083C39.8151 120.157 39.7703 120.223 39.7109 120.274C39.3218 120.673 39.1759 121.04 38.187 122.108C38.1483 122.151 38.1196 122.202 38.1029 122.257C38.0861 122.312 38.0816 122.37 38.0897 122.427C38.1095 122.52 38.1504 122.607 38.2094 122.681C38.2684 122.756 38.3439 122.816 38.4301 122.858C38.5931 122.965 38.785 123.023 38.9813 123.023C39.1777 123.023 39.3695 122.965 39.5325 122.858C40.2945 122.029 40.1162 122.124 40.4242 121.821C40.7117 121.793 41.0009 121.854 41.251 121.997C41.7049 122.268 41.8184 122.73 41.5104 123.033C41.2023 123.336 40.9267 123.767 39.8892 124.803C39.8457 124.844 39.8126 124.894 39.7929 124.949C39.7731 125.005 39.7673 125.064 39.7757 125.122C39.7958 125.213 39.835 125.298 39.8909 125.372C39.9468 125.446 40.0181 125.508 40.1 125.553C40.2588 125.663 40.4485 125.723 40.643 125.723C40.8376 125.723 41.0273 125.663 41.1861 125.553C42.0291 124.66 41.8508 124.803 42.0778 124.58C42.3711 124.535 42.671 124.598 42.9208 124.756C43.3585 125.027 43.472 125.489 43.164 125.792C42.8559 126.095 42.5479 126.494 41.5428 127.514C41.5022 127.557 41.4711 127.607 41.4515 127.662C41.432 127.717 41.4244 127.775 41.4293 127.833C41.4512 127.923 41.4912 128.007 41.5469 128.081C41.6026 128.155 41.6729 128.217 41.7535 128.264C41.9054 128.377 42.0903 128.437 42.2804 128.437C42.4705 128.437 42.6555 128.377 42.8073 128.264C43.5206 127.546 43.3423 127.674 43.699 127.323C43.9994 127.285 44.3038 127.353 44.5582 127.514C44.6546 127.556 44.7396 127.619 44.8061 127.7C44.8727 127.78 44.919 127.874 44.9412 127.976C44.9633 128.077 44.9607 128.182 44.9336 128.282C44.9065 128.382 44.8556 128.474 44.7851 128.551C44.3474 128.966 44.1367 129.221 43.164 130.146C43.12 130.19 43.0858 130.242 43.0635 130.3C43.0411 130.357 43.0312 130.419 43.0343 130.481C43.0534 130.569 43.0905 130.653 43.1435 130.727C43.1964 130.801 43.264 130.864 43.3423 130.911C43.4936 131.018 43.675 131.075 43.8611 131.075C44.0471 131.075 44.2285 131.018 44.3798 130.911L45.2715 130.002C45.5774 129.956 45.8899 130.024 46.1469 130.194C46.2339 130.238 46.3103 130.3 46.3713 130.375C46.4323 130.451 46.4765 130.538 46.501 130.631C46.5255 130.724 46.5297 130.822 46.5134 130.917C46.4971 131.012 46.4606 131.102 46.4063 131.182C44.9635 132.554 46.1307 131.422 44.7851 132.873C44.7392 132.911 44.7044 132.961 44.6845 133.017C44.6646 133.073 44.6601 133.133 44.6717 133.192C44.6831 133.279 44.7137 133.362 44.7613 133.437C44.8089 133.511 44.8723 133.574 44.9473 133.622C45.0929 133.735 45.2727 133.796 45.4579 133.796C45.6431 133.796 45.8229 133.735 45.9686 133.622L46.844 132.777C47.0006 132.746 47.162 132.747 47.3181 132.78C47.4743 132.813 47.6219 132.877 47.7519 132.968C47.904 133.056 48.0179 133.195 48.0718 133.36C48.1257 133.525 48.1156 133.703 48.0437 133.861C46.5522 135.265 47.7195 134.117 46.2766 135.584C46.2327 135.628 46.1984 135.68 46.1761 135.738C46.1538 135.796 46.1439 135.857 46.1469 135.919C46.1623 136.007 46.1962 136.09 46.2464 136.164C46.2967 136.239 46.3622 136.302 46.4387 136.349C46.5793 136.459 46.7536 136.519 46.9332 136.519C47.1128 136.519 47.2871 136.459 47.4276 136.349C47.6905 136.06 47.978 135.793 48.2869 135.552C48.4483 135.514 48.6161 135.512 48.7786 135.545C48.941 135.578 49.0942 135.646 49.2271 135.743C49.3692 135.832 49.4759 135.966 49.529 136.123C49.5822 136.28 49.5787 136.45 49.519 136.604C48.0113 138.008 49.1785 136.844 47.7357 138.295C47.6917 138.339 47.6575 138.391 47.6352 138.449C47.6128 138.507 47.6029 138.568 47.606 138.63C47.6174 138.717 47.648 138.801 47.6956 138.875C47.7432 138.949 47.8066 139.013 47.8816 139.06C48.0183 139.172 48.1903 139.233 48.3679 139.233C48.5455 139.233 48.7176 139.172 48.8543 139.06C49.113 138.793 49.3892 138.543 49.6811 138.311C49.8469 138.263 50.0219 138.256 50.1913 138.289C50.3607 138.322 50.5194 138.395 50.6538 138.502C50.7888 138.589 50.8907 138.718 50.9435 138.868C50.9964 139.018 50.9971 139.181 50.9456 139.331C50.285 139.846 49.667 140.411 49.0975 141.022C49.0508 141.064 49.0147 141.116 48.9922 141.174C48.9697 141.232 48.9613 141.295 48.9678 141.357C48.9733 141.442 48.998 141.525 49.04 141.599C49.0821 141.673 49.1405 141.738 49.2109 141.787C49.3464 141.895 49.5152 141.953 49.6892 141.953C49.8632 141.953 50.032 141.895 50.1674 141.787L50.978 141.102C51.1489 141.04 51.3333 141.024 51.5125 141.055C51.6918 141.086 51.8597 141.162 51.9993 141.277C52.1168 141.361 52.2069 141.476 52.2587 141.609C52.3105 141.742 52.3218 141.887 52.2912 142.027C51.5941 142.633 51.5292 142.633 50.3782 143.749C50.2925 143.84 50.246 143.96 50.2485 144.084C50.2571 144.168 50.2831 144.25 50.3249 144.324C50.3667 144.398 50.4235 144.463 50.4917 144.514C50.6191 144.625 50.7835 144.687 50.9537 144.687C51.1239 144.687 51.2883 144.625 51.4157 144.514L51.8534 143.589C52.0283 143.511 52.2225 143.484 52.4126 143.512C52.6026 143.541 52.7801 143.623 52.9234 143.749C52.9905 143.796 53.0472 143.856 53.0902 143.926C53.1332 143.995 53.1616 144.072 53.1737 144.152C53.1858 144.233 53.1813 144.315 53.1606 144.393C53.1399 144.472 53.1033 144.546 53.0531 144.61C51.5454 145.95 51.2698 146.205 51.2698 146.205C51.2231 146.247 51.1871 146.299 51.1646 146.357C51.142 146.415 51.1337 146.478 51.1401 146.54C51.1435 146.626 51.1656 146.71 51.2047 146.787C51.2438 146.864 51.2992 146.932 51.3671 146.986C51.4935 147.093 51.6545 147.151 51.821 147.151C51.9875 147.151 52.1486 147.093 52.2749 146.986C52.2749 146.986 52.7127 146.683 52.9234 146.492C53.1002 146.362 53.3182 146.299 53.5382 146.313C53.7582 146.328 53.9657 146.42 54.1231 146.572C54.1879 146.625 54.24 146.693 54.2758 146.768C54.3115 146.844 54.3301 146.927 54.3301 147.01C54.3301 147.094 54.3115 147.176 54.2758 147.252C54.24 147.328 54.1879 147.395 54.1231 147.449L52.3398 148.948C52.2958 148.992 52.2616 149.044 52.2393 149.102C52.217 149.159 52.207 149.221 52.2101 149.283C52.2128 149.365 52.2329 149.446 52.2692 149.52C52.3055 149.594 52.3571 149.66 52.4208 149.713C52.5446 149.819 52.7029 149.877 52.8667 149.877C53.0304 149.877 53.1887 149.819 53.3125 149.713C53.5588 149.58 53.7922 149.426 54.0096 149.251C54.1831 149.125 54.3969 149.066 54.6114 149.084C54.826 149.101 55.0268 149.194 55.1768 149.346C55.24 149.392 55.293 149.449 55.3324 149.516C55.3718 149.582 55.3969 149.656 55.406 149.732C55.4152 149.809 55.4082 149.886 55.3855 149.959C55.3628 150.033 55.3249 150.101 55.2741 150.16L53.507 151.627C53.4584 151.668 53.42 151.72 53.3947 151.778C53.3694 151.836 53.3579 151.899 53.3611 151.962C53.3696 152.132 53.4452 152.292 53.5719 152.408C53.6904 152.511 53.8432 152.568 54.0015 152.568C54.1598 152.568 54.3126 152.511 54.4311 152.408L55.1606 151.994C55.3335 151.871 55.5457 151.815 55.7576 151.836C55.9694 151.856 56.1664 151.952 56.3117 152.105C56.4093 152.192 56.4828 152.302 56.5254 152.425C56.5679 152.548 56.578 152.679 56.5548 152.807C55.9081 153.373 55.2317 153.905 54.5284 154.402C54.4806 154.444 54.4428 154.495 54.4176 154.553C54.3924 154.611 54.3804 154.674 54.3825 154.737C54.3828 154.82 54.4002 154.903 54.4336 154.979C54.467 155.056 54.5158 155.125 54.577 155.183C54.6912 155.288 54.8419 155.347 54.9985 155.347C55.1551 155.347 55.3058 155.288 55.42 155.183L56.3927 154.753C56.6845 154.497 57.1709 154.529 57.4465 155.087C57.5438 155.311 57.4465 155.63 57.0088 156.092C56.4697 156.456 55.9651 156.867 55.5011 157.32C55.4534 157.362 55.4155 157.414 55.3903 157.472C55.3651 157.529 55.3531 157.592 55.3552 157.655C55.3524 157.737 55.3668 157.82 55.3975 157.896C55.4282 157.973 55.4744 158.043 55.5335 158.101C55.6423 158.205 55.7876 158.262 55.9388 158.262C56.09 158.262 56.2353 158.205 56.3441 158.101C56.5224 157.942 56.8629 157.671 57.2033 157.416C57.2922 157.347 57.3955 157.299 57.5057 157.275C57.6159 157.25 57.7302 157.25 57.8403 157.275C57.9505 157.299 58.0537 157.347 58.1426 157.416C58.2315 157.484 58.3038 157.572 58.3543 157.671C58.433 157.827 58.4565 158.004 58.4213 158.174C58.3861 158.345 58.294 158.499 58.1598 158.612L56.3765 160.031C56.2725 160.135 56.2143 160.276 56.2143 160.422C56.2143 160.568 56.2725 160.708 56.3765 160.813C56.4826 160.915 56.6252 160.972 56.7737 160.972C56.9222 160.972 57.0648 160.915 57.1709 160.813C57.457 160.72 57.7384 160.613 58.0139 160.494C58.1816 160.375 58.3891 160.323 58.5941 160.35C58.799 160.377 58.9858 160.479 59.1163 160.637C59.1683 160.7 59.207 160.772 59.2303 160.849C59.2536 160.926 59.2609 161.008 59.2518 161.088C59.2427 161.168 59.2175 161.246 59.1775 161.316C59.1375 161.387 59.0837 161.449 59.019 161.498C58.5002 161.913 58.1598 162.168 57.2357 163.093C57.1355 163.199 57.0797 163.339 57.0797 163.484C57.0797 163.629 57.1355 163.768 57.2357 163.874C57.3475 163.99 57.4965 164.063 57.6572 164.082C57.7223 164.085 57.7875 164.075 57.8487 164.054C57.91 164.032 57.9662 163.998 58.0139 163.954C58.6137 163.428 58.4516 163.651 58.8893 163.284C59.0486 163.161 59.2498 163.102 59.4517 163.12C59.6537 163.138 59.8411 163.231 59.9755 163.38C60.0121 163.428 60.0396 163.482 60.0566 163.54C60.1139 163.702 60.1165 163.878 60.064 164.042C60.0114 164.205 59.9064 164.348 59.7648 164.449C59.2136 164.879 58.6624 165.31 57.9977 165.9C57.8937 166.004 57.8355 166.144 57.8355 166.29C57.8355 166.437 57.8937 166.577 57.9977 166.681C58.0438 166.745 58.1046 166.797 58.175 166.833C58.2454 166.869 58.3236 166.888 58.403 166.888C58.4645 166.895 58.5267 166.888 58.5854 166.869C58.644 166.849 58.6979 166.818 58.7434 166.777C59.0671 166.615 59.367 166.412 59.6351 166.171C59.797 166.057 59.998 166.009 60.195 166.039C60.392 166.069 60.5693 166.173 60.6888 166.33C60.7686 166.418 60.8127 166.532 60.8127 166.649C60.8127 166.767 60.7686 166.88 60.6888 166.968L58.711 168.722C58.6107 168.829 58.555 168.968 58.555 169.113C58.555 169.258 58.6107 169.398 58.711 169.504C58.7546 169.563 58.8104 169.611 58.8747 169.647C58.939 169.683 59.0103 169.705 59.0839 169.711C59.1479 169.718 59.2126 169.711 59.274 169.692C59.3353 169.673 59.392 169.641 59.4405 169.6C59.7972 169.297 59.7648 169.36 60.5105 168.77C60.6684 168.63 60.8734 168.553 61.086 168.553C61.2986 168.553 61.5037 168.63 61.6615 168.77C61.7253 168.84 61.7606 168.931 61.7606 169.025C61.7606 169.12 61.7253 169.21 61.6615 169.281C61.3049 169.584 61.0779 169.791 60.8672 169.998H17.4846C16.1947 169.998 14.9577 169.494 14.0456 168.597C13.1335 167.7 12.6211 166.483 12.6211 165.214V149.267C13.7883 150.59 14.8583 151.834 14.8583 151.834H14.9394C15.3318 152.191 15.7954 152.463 16.3006 152.633C16.8058 152.803 17.3416 152.868 17.8737 152.823C18.6313 152.737 19.3385 152.406 19.8839 151.882C20.571 151.197 21 150.303 21.1002 149.346C21.2005 148.389 20.9658 147.427 20.4351 146.619L17.1928 141.676C16.5446 140.742 16.2676 139.607 16.4146 138.486C16.5346 138.142 16.7841 137.857 17.1117 137.689C17.1117 137.689 18.4735 136.86 19.7867 138.486L24.2125 144.865C24.5668 145.261 25 145.582 25.4851 145.807C25.9703 146.031 26.4972 146.156 27.0333 146.173C27.7978 146.158 28.537 145.901 29.1408 145.439C29.8938 144.829 30.4144 143.986 30.6176 143.048C30.8208 142.11 30.6945 141.131 30.2594 140.272L27.6331 134.978C27.3383 134.446 27.1561 133.861 27.0976 133.258C27.0391 132.655 27.1054 132.046 27.2927 131.469C27.4224 131.152 27.6642 130.892 27.9736 130.736C27.9736 130.736 29.3354 129.907 30.6323 131.533L35.0581 137.912C35.4087 138.308 35.8389 138.629 36.3215 138.854C36.8041 139.079 37.3289 139.204 37.8627 139.22C38.6276 139.207 39.3675 138.95 39.9703 138.486C40.7284 137.88 41.254 137.038 41.4603 136.099C41.6666 135.16 41.5413 134.179 41.1051 133.319L38.5598 128.073C38.265 127.541 38.0828 126.956 38.0243 126.353C37.9658 125.75 38.0321 125.141 38.2194 124.564C38.2588 124.365 38.2283 124.159 38.1328 123.979C38.0373 123.8 37.8825 123.658 37.6939 123.576C37.5053 123.494 37.2941 123.478 37.095 123.53C36.8959 123.582 36.7207 123.7 36.5982 123.863C36.3033 124.68 36.1855 125.55 36.2525 126.415C36.3195 127.28 36.5698 128.122 36.9873 128.886C38.1221 131.119 39.5001 133.846 39.646 134.117C39.7919 134.388 40.4404 136.11 39.111 137.067C38.7526 137.342 38.2987 137.468 37.8469 137.417C37.3951 137.367 36.9817 137.143 36.6955 136.796L32.3021 130.831C31.9431 129.99 31.2867 129.304 30.454 128.902C29.9751 128.72 29.4637 128.636 28.9508 128.656C28.438 128.675 27.9344 128.797 27.471 129.013C27.0456 129.17 26.6584 129.413 26.3344 129.726C26.0104 130.039 25.757 130.416 25.5905 130.831C25.4268 131.187 25.3123 131.562 25.25 131.948C25.2178 132.073 25.2178 132.205 25.25 132.331C25.1485 133.548 25.3956 134.769 25.9633 135.855C27.0982 138.088 28.4762 140.815 28.6221 141.086C28.768 141.357 29.4326 143.095 28.0871 144.036C27.7271 144.307 27.2742 144.431 26.8237 144.38C26.3731 144.329 25.9601 144.109 25.6715 143.765L21.4403 137.657C21.0493 136.834 20.3702 136.178 19.5273 135.807C19.0477 135.629 18.5366 135.547 18.0243 135.566C17.512 135.585 17.0088 135.705 16.5443 135.919C15.7192 136.236 15.0549 136.86 14.6962 137.657C14.5019 138.503 14.485 139.379 14.6467 140.232C14.8084 141.085 15.1452 141.896 15.6365 142.617C17.0145 144.706 18.6843 147.273 18.8788 147.528C19.0734 147.784 19.9002 149.426 18.6681 150.526C18.3417 150.836 17.9058 151.01 17.4522 151.01C16.9986 151.01 16.5627 150.836 16.2363 150.526L12.6211 146.412V128.439C26.936 114.741 46.9575 108.122 52.5992 106.464L54.1231 106.049L54.8202 105.858L54.3987 105.316C53.7939 104.454 53.4326 103.449 53.3516 102.405C53.2707 101.361 53.473 100.314 53.9379 99.3716C54.4028 98.4294 55.1136 97.6254 55.9978 97.0419C56.882 96.4584 57.9078 96.1162 58.9704 96.0503C59.9106 96.038 60.8415 96.2342 61.694 96.6244C61.694 95.3805 61.694 93.9612 61.694 92.51C61.381 92.5332 61.0667 92.5332 60.7537 92.51C60.0708 92.5256 59.393 92.3904 58.7702 92.1144C58.1474 91.8384 57.5953 91.4287 57.1547 90.9153C56.5964 90.2434 56.2251 89.4404 56.0774 88.585C55.9296 87.7295 56.0103 86.8509 56.3117 86.0354C56.5744 85.3511 57.0234 84.7511 57.6096 84.3011C58.1957 83.851 58.8965 83.5683 59.6351 83.4838C60.1264 83.4005 60.6301 83.4199 61.1134 83.5408C61.5966 83.6617 62.0485 83.8814 62.4397 84.1855L62.5208 84.0739C65.1025 80.1543 66.7281 75.7006 67.2708 71.0608C67.2708 70.1678 67.2708 63.6453 67.2708 62.7682V62.6566C67.1087 62.0027 66.9628 61.3489 66.8006 60.7588C66.6477 60.7003 66.5093 60.6102 66.3946 60.4947C66.28 60.3791 66.1918 60.2408 66.136 60.089C64.9592 56.9331 63.5673 53.8589 61.9696 50.8874C60.7212 48.4315 59.4405 45.8959 58.3868 43.3124C58.3888 43.2752 58.3888 43.238 58.3868 43.2008V42.9616C57.949 41.3668 57.2844 39.1023 58.3868 37.5235C58.6603 37.1325 59.0191 36.8065 59.437 36.5693C59.8549 36.332 60.3213 36.1895 60.8023 36.1521H60.9158C62.8985 36.0929 64.8667 36.5031 66.6547 37.3481C67.3356 35.4025 68.9244 31.4795 70.8049 30.5705C73.0422 29.4542 76.3656 33.5207 78.9108 37.396C82.535 35.2922 86.7037 34.2725 90.9075 34.4616C95.4187 34.7602 99.752 36.3082 103.407 38.9269C104.525 36.8298 106 34.9365 107.768 33.3294C108.092 33.0274 108.484 32.8051 108.912 32.6804C109.341 32.5557 109.793 32.5322 110.232 32.6117C112.064 32.9785 113.134 35.1474 114.009 36.7421L114.236 37.1727C114.722 38.0976 115.209 39.0864 115.679 40.1389C119.667 38.8924 123.909 38.6511 128.016 39.4372L128.113 39.4532ZM40.9267 144.61C40.2977 144.892 39.7595 145.339 39.3707 145.901C38.9819 146.464 38.7575 147.12 38.722 147.799C38.6482 148.292 38.6886 148.795 38.8402 149.27C38.9918 149.745 39.2506 150.18 39.5974 150.542C40.1398 151.034 40.78 151.41 41.4776 151.646C42.1753 151.882 42.9151 151.973 43.6503 151.914C45.385 151.77 47.5411 151.914 48.0923 153.636C48.2173 154.076 48.2071 154.543 48.0628 154.977C47.9185 155.411 47.6468 155.794 47.2817 156.076C46.9657 156.286 46.5931 156.398 46.2118 156.398C45.8305 156.398 45.4579 156.286 45.1418 156.076C44.8461 155.838 44.6072 155.539 44.4419 155.2C44.2766 154.861 44.189 154.491 44.1853 154.115C44.1853 154.115 42.9208 155.311 44.5095 156.842C44.8889 157.169 45.3499 157.392 45.8455 157.488C46.3411 157.583 46.8535 157.547 47.3304 157.384C47.3961 157.778 47.5719 158.146 47.8382 158.447C48.1044 158.749 48.4506 158.971 48.8381 159.09C49.2758 159.09 49.0975 158.931 49.0975 158.931C48.7283 158.676 48.4657 158.297 48.3584 157.866C48.251 157.435 48.3063 156.981 48.5138 156.586C48.9085 156.164 49.1753 155.642 49.2841 155.078C49.393 154.515 49.3395 153.932 49.1299 153.397C48.9922 152.931 48.7604 152.498 48.4484 152.123C48.1364 151.747 47.7507 151.438 47.3142 151.212C47.1857 150.989 47.1063 150.741 47.0812 150.486C47.0561 150.23 47.0857 149.973 47.1683 149.729C47.5249 148.74 46.0496 150.048 45.92 150.75C45.1315 150.631 44.3316 150.605 43.5368 150.67C43.0198 150.714 42.499 150.655 42.0059 150.496C41.5127 150.337 41.0574 150.082 40.6674 149.745C40.2753 149.21 40.1018 148.55 40.181 147.895C40.1999 147.48 40.3338 147.078 40.568 146.732C40.8023 146.387 41.1282 146.11 41.5104 145.934C41.8432 145.791 42.2063 145.732 42.5681 145.759C42.9298 145.787 43.2791 145.902 43.5855 146.093C43.7791 146.211 43.9321 146.384 44.0247 146.589C44.1172 146.793 44.1449 147.021 44.1042 147.241C44.0518 147.453 43.9262 147.641 43.7487 147.772C43.5713 147.903 43.3531 147.969 43.1315 147.959C42.836 148.003 42.5354 148.003 42.2399 147.959C42.3611 148.28 42.5842 148.554 42.8762 148.741C43.1682 148.928 43.5135 149.017 43.8611 148.996C44.2473 149.001 44.6228 148.871 44.92 148.628C45.2172 148.385 45.4166 148.046 45.4822 147.672C45.6082 147.167 45.573 146.635 45.3816 146.15C45.1902 145.666 44.8518 145.25 44.4123 144.961H44.2826L44.0556 144.833C43.8805 144.725 43.7316 144.581 43.6195 144.41C43.5075 144.239 43.435 144.046 43.4071 143.845C43.4071 143.239 42.9856 143.845 42.8884 144.498C42.2364 144.359 41.5581 144.398 40.9267 144.61ZM68.4867 84.9988C68.4867 85.8918 69.9295 85.3178 70.3834 85.1104C69.8934 84.8123 69.4879 84.3973 69.2045 83.9038C68.9211 83.4104 68.769 82.8545 68.7623 82.2878H68.6488C68.5839 83.0692 68.5191 83.9782 68.438 84.9988H68.4867ZM68.8109 79.3853C68.8109 79.5129 68.8109 79.6405 68.8109 79.784C69.9817 78.8862 71.4474 78.4435 72.9287 78.5401C74.9116 78.7074 76.8138 79.3898 78.4406 80.5176C78.6676 80.5176 78.9919 80.6611 79.154 80.4379C79.1965 80.0669 79.1965 79.6925 79.154 79.3215C78.9004 78.5183 78.4303 77.7976 77.7938 77.2361C77.1573 76.6745 76.378 76.293 75.5388 76.1321C73.3539 75.3928 70.9679 75.4781 68.8433 76.3713C68.7785 77.2962 68.7947 78.2052 68.7623 79.3853H68.8109ZM69.4594 82.2878C69.5124 82.9647 69.8232 83.5969 70.3297 84.0582C70.8361 84.5195 71.5009 84.7757 72.191 84.7757C72.8812 84.7757 73.546 84.5195 74.0524 84.0582C74.5588 83.5969 74.8697 82.9647 74.9227 82.2878C74.9308 82.1656 74.9308 82.0431 74.9227 81.921H74.0797C74.0967 82.0533 74.0967 82.1873 74.0797 82.3197C74.0356 82.7909 73.8142 83.2289 73.4588 83.5479C73.1034 83.8668 72.6397 84.0436 72.1586 84.0436C71.6775 84.0436 71.2138 83.8668 70.8584 83.5479C70.503 83.2289 70.2816 82.7909 70.2375 82.3197C70.2296 82.2401 70.2296 82.16 70.2375 82.0804L69.4107 82.1602C69.3897 82.2008 69.3734 82.2436 69.3621 82.2878H69.4594ZM72.1991 80.39C74.2329 80.5051 76.2406 80.8969 78.1651 81.5542C78.2461 81.5542 78.2623 81.4266 78.2623 81.299C76.8159 79.9393 74.8803 79.1994 72.88 79.2418C72.1363 79.1416 71.3789 79.2362 70.6843 79.5163C69.9898 79.7963 69.3827 80.2517 68.9244 80.8365C68.7298 81.1076 68.9244 81.1714 68.9244 81.1874C69.8923 80.605 71.0177 80.3268 72.1505 80.39H72.1991ZM74.3553 84.8712C76.1386 84.3609 78.3434 83.5635 78.2623 83.1808C78.1813 82.7981 77.1761 82.2878 77.1761 82.2878C76.6451 82.1431 76.1029 82.0418 75.555 81.9847C75.555 82.0804 75.555 82.1761 75.555 82.2878C75.5515 82.782 75.4379 83.2694 75.2223 83.7157C75.0066 84.1621 74.694 84.5565 74.3067 84.8712H74.3553ZM67.7409 79.3375C67.7409 78.6039 67.7409 77.9501 67.7409 77.3441C66.6796 81.2339 64.911 84.9024 62.5208 88.1723C62.4451 88.2789 62.332 88.3542 62.2033 88.3836C62.0746 88.4131 61.9393 88.3946 61.8236 88.3318C61.7146 88.2723 61.6286 88.1792 61.5788 88.0667C61.5289 87.9543 61.5181 87.8289 61.548 87.7098C61.649 87.0927 61.5101 86.4607 61.159 85.9397C60.9958 85.797 60.8002 85.695 60.5886 85.6423C60.377 85.5896 60.1556 85.5876 59.9431 85.6367C59.5844 85.6611 59.2405 85.7869 58.9529 85.9991C58.6652 86.2113 58.4461 86.5008 58.3219 86.8327C58.1586 87.2839 58.1161 87.7688 58.1984 88.2408C58.2808 88.7128 58.4852 89.156 58.7921 89.5278C59.1221 89.8911 59.5504 90.1544 60.027 90.2871C60.5035 90.4199 61.0086 90.4165 61.4832 90.2774C64.8877 89.5916 67.0924 82.1921 67.7409 79.3375ZM57.7383 105.316C58.3146 105.163 58.9084 105.082 59.5054 105.077C60.5108 105.078 61.5009 105.319 62.3911 105.778C63.5927 105.07 64.5872 104.067 65.2776 102.868C65.968 101.669 66.3308 100.315 66.3305 98.9368C66.2298 96.5997 66.322 94.2584 66.6061 91.9359C66.979 88.7464 67.2221 86.3065 67.3843 84.2812C66.6721 86.5433 65.428 88.6085 63.7528 90.3093C63.7693 90.372 63.7693 90.4379 63.7528 90.5006C63.7528 90.8993 63.996 100.069 63.7528 101.664C63.6473 102.221 63.4182 102.748 63.082 103.209C62.7458 103.669 62.3106 104.051 61.8074 104.327C61.3104 104.594 60.7524 104.731 60.1863 104.726C59.6259 104.731 59.0716 104.611 58.5651 104.375C58.0362 104.19 57.5872 103.833 57.2924 103.364C56.9976 102.894 56.8747 102.339 56.9439 101.791C57.0216 101.258 57.2637 100.761 57.6377 100.367C58.0117 99.9739 58.4995 99.7027 59.0352 99.5906C59.6004 99.5478 60.1613 99.716 60.606 100.062C61.0507 100.408 61.3465 100.906 61.4346 101.456C61.4889 101.571 61.5008 101.701 61.4682 101.823C61.4357 101.945 61.3607 102.053 61.2562 102.126C61.1147 102.156 60.967 102.131 60.8434 102.057C60.7199 101.983 60.6298 101.865 60.5916 101.728C60.5916 101.616 60.2673 100.579 59.3919 100.691C59.1007 100.781 58.8413 100.95 58.6434 101.178C58.4455 101.407 58.3172 101.686 58.2733 101.983C58.2248 102.287 58.29 102.599 58.4569 102.86C58.6237 103.121 58.881 103.313 59.1811 103.402C59.5215 103.577 59.8997 103.668 60.2835 103.668C60.6674 103.668 61.0456 103.577 61.3859 103.402C61.7402 103.209 62.0472 102.942 62.2853 102.619C62.5234 102.297 62.6868 101.927 62.7639 101.536C62.7852 101.351 62.7852 101.164 62.7639 100.978C62.6681 100.941 62.5834 100.881 62.5181 100.803C62.4528 100.725 62.4091 100.631 62.3911 100.532C62.1921 99.8075 61.7401 99.1756 61.1145 98.7469C60.4889 98.3182 59.7298 98.12 58.9704 98.1873C58.2007 98.2663 57.475 98.5789 56.894 99.0818C56.3131 99.5847 55.9056 100.253 55.728 100.994C55.519 101.832 55.6037 102.715 55.9686 103.499C56.3335 104.283 56.9571 104.924 57.7383 105.316ZM64.9039 108.091C65.1298 108.463 65.3146 108.859 65.4551 109.271C66.3526 108.685 67.0835 107.883 67.5788 106.942C67.4653 106.607 67.3681 106.241 67.2708 105.842C66.6559 106.768 65.8494 107.556 64.9039 108.154V108.091ZM66.9303 104.056C66.8331 103.562 66.752 103.019 66.6709 102.461C66.0186 104.078 64.8894 105.467 63.4286 106.448C63.7365 106.679 64.019 106.941 64.2716 107.229C65.4884 106.517 66.4252 105.421 66.9303 104.12V104.056ZM53.7664 111.806C53.7643 112.627 53.9266 113.441 54.244 114.2C54.5614 114.959 55.0277 115.649 55.6163 116.231C56.2049 116.813 56.9043 117.276 57.6745 117.592C58.4447 117.908 59.2707 118.072 60.1052 118.074C63.8663 118.074 68.0814 114.581 68.357 108.952C68.2524 108.728 68.1604 108.499 68.0814 108.266C67.454 109.133 66.6543 109.865 65.7307 110.419C65.7825 110.714 65.8096 111.013 65.8117 111.312C65.8117 112.826 65.2003 114.278 64.1118 115.349C63.0234 116.42 61.5472 117.021 60.0079 117.021C58.5876 117.021 57.2251 116.467 56.2193 115.481C55.2134 114.494 54.6461 113.156 54.6419 111.758C54.6461 111.118 54.7786 110.484 55.0319 109.893C55.2851 109.303 55.6541 108.767 56.1177 108.317C56.5814 107.867 57.1307 107.511 57.7342 107.27C58.3377 107.028 58.9836 106.906 59.6351 106.91C60.2656 106.91 60.8896 107.035 61.4693 107.279C62.0489 107.523 62.5721 107.881 63.0071 108.33C63.4108 108.738 63.7255 109.223 63.9318 109.755C64.1381 110.287 64.2317 110.855 64.2068 111.424C64.0963 112.443 63.5813 113.378 62.7739 114.026C61.9665 114.674 60.9317 114.982 59.8944 114.884C59.063 114.855 58.2772 114.503 57.7091 113.905C57.1409 113.308 56.8366 112.513 56.8629 111.695C56.8758 111.143 57.0615 110.609 57.3947 110.165C57.7279 109.721 58.1923 109.389 58.7244 109.215C59.2566 109.04 59.8305 109.032 60.3678 109.19C60.9051 109.348 61.3796 109.666 61.7264 110.1C61.8099 110.219 61.8431 110.366 61.8189 110.508C61.7947 110.651 61.715 110.779 61.5967 110.865C61.5364 110.907 61.4682 110.937 61.396 110.953C61.3239 110.968 61.2493 110.969 61.1767 110.956C61.1041 110.942 61.035 110.915 60.9735 110.875C60.912 110.834 60.8593 110.782 60.8185 110.722C60.6205 110.478 60.3465 110.306 60.0388 110.231C59.7311 110.156 59.4069 110.183 59.1163 110.307C58.813 110.386 58.5423 110.556 58.3418 110.793C58.1413 111.03 58.021 111.323 57.9977 111.631C57.9977 112.301 58.3706 113.864 59.9431 113.864C60.6793 113.942 61.4181 113.739 62.0065 113.297C62.595 112.855 62.988 112.207 63.1044 111.487C63.122 111.064 63.0505 110.641 62.8942 110.246C62.738 109.851 62.5005 109.492 62.1965 109.191C61.8746 108.832 61.481 108.542 61.0404 108.339C60.5998 108.136 60.1214 108.024 59.6351 108.011C58.6189 108.015 57.6458 108.415 56.9287 109.123C56.2117 109.832 55.8091 110.791 55.8091 111.79C55.8091 112.339 55.919 112.882 56.1324 113.389C56.3459 113.896 56.6587 114.357 57.0532 114.745C57.4476 115.133 57.9158 115.441 58.4311 115.651C58.9465 115.86 59.4988 115.969 60.0566 115.969C60.674 115.969 61.2853 115.849 61.8557 115.617C62.4261 115.384 62.9444 115.043 63.381 114.614C63.8175 114.185 64.1638 113.675 64.4001 113.114C64.6364 112.553 64.758 111.951 64.758 111.344C64.7537 109.989 64.2035 108.691 63.228 107.734C62.2526 106.778 60.9314 106.241 59.554 106.241C58.1235 106.237 56.7449 106.767 55.6956 107.724C55.4551 107.94 55.2328 108.174 55.0309 108.425C54.2342 109.405 53.7895 110.616 53.7664 111.87V111.806ZM78.084 137.322L81.0832 134.675C81.0832 134.675 80.2888 133.399 76.9005 134.053L78.084 137.322ZM90.4373 134.021C89.8375 133.303 89.0593 134.021 89.0593 134.021L77.7111 146.906C77.5947 147.111 77.5336 147.342 77.5336 147.576C77.5336 147.811 77.5947 148.041 77.7111 148.246C78.1326 148.836 79.1215 148.246 79.1215 148.246L90.2266 136.014C90.2266 136.014 90.9561 134.659 90.4373 134.021ZM109.551 121.598C109.162 118.01 107.346 116.112 104.136 115.985C103.287 115.903 102.43 116.037 101.647 116.371C100.864 116.706 100.181 117.232 99.6618 117.898C99.0459 118.838 98.6813 119.915 98.602 121.03C98.5226 122.146 98.731 123.262 99.2079 124.277C99.2171 124.319 99.2171 124.363 99.2079 124.405C99.8401 125.109 100.669 125.615 101.592 125.859C102.514 126.103 103.49 126.074 104.396 125.776C105.358 125.504 106.187 124.895 106.724 124.064C107.262 123.232 107.471 122.236 107.314 121.263C107.188 120.726 106.951 120.22 106.616 119.778C106.281 119.336 105.856 118.967 105.368 118.696C104.977 118.47 104.54 118.333 104.089 118.294C103.637 118.255 103.183 118.316 102.758 118.472C102.398 118.595 102.068 118.79 101.789 119.046C101.509 119.301 101.288 119.611 101.137 119.955C101.013 120.33 100.968 120.725 101.004 121.117C101.04 121.509 101.157 121.89 101.348 122.236C101.538 122.541 101.809 122.79 102.131 122.956C102.454 123.121 102.816 123.198 103.18 123.177C103.424 123.181 103.664 123.115 103.871 122.988C104.078 122.861 104.244 122.677 104.347 122.459C104.41 122.33 104.443 122.188 104.443 122.045C104.443 121.901 104.41 121.759 104.347 121.63C104.272 121.498 104.17 121.383 104.047 121.293C103.924 121.202 103.783 121.138 103.634 121.104L103.893 120.338L103.99 120.067C104.281 120.15 104.552 120.291 104.786 120.48C105.02 120.669 105.213 120.903 105.352 121.167C105.476 121.433 105.54 121.721 105.54 122.013C105.54 122.304 105.476 122.593 105.352 122.858C105.179 123.278 104.88 123.638 104.495 123.888C104.11 124.139 103.657 124.269 103.196 124.261C102.615 124.291 102.038 124.156 101.532 123.874C101.027 123.591 100.614 123.172 100.343 122.666C100.076 122.182 99.9151 121.648 99.8705 121.099C99.8258 120.549 99.8983 119.997 100.083 119.477C100.296 118.989 100.611 118.551 101.008 118.191C101.405 117.831 101.874 117.558 102.385 117.388C102.96 117.168 103.577 117.078 104.192 117.125C104.807 117.172 105.403 117.354 105.936 117.659C106.57 118.006 107.121 118.484 107.552 119.059C107.983 119.634 108.283 120.293 108.432 120.992C108.581 122.204 108.285 123.428 107.599 124.445C106.912 125.462 105.88 126.205 104.687 126.542C104.084 126.728 103.456 126.825 102.823 126.829C99.143 126.829 96.0141 123.336 93.2744 116.224C93.2263 116.088 93.2332 115.94 93.2936 115.809C93.354 115.678 93.4632 115.576 93.5986 115.522C93.7341 115.47 93.8851 115.472 94.0188 115.529C94.1524 115.586 94.2578 115.692 94.3119 115.825C95.1372 118.068 96.2253 120.209 97.5543 122.204C97.3732 121.104 97.434 119.978 97.7326 118.903C97.6629 118.86 97.6068 118.8 97.5705 118.727C96.8625 117.555 96.229 116.341 95.6737 115.091C95.6356 115.025 95.612 114.952 95.6045 114.876C95.5971 114.801 95.6058 114.724 95.6303 114.652C95.6548 114.58 95.6943 114.514 95.7465 114.458C95.7987 114.402 95.8622 114.357 95.9331 114.327C96.0039 114.296 96.0805 114.281 96.1577 114.282C96.235 114.282 96.3113 114.299 96.3816 114.331C96.4519 114.362 96.5147 114.408 96.5659 114.465C96.6171 114.522 96.6556 114.588 96.6788 114.661C97.1165 115.618 97.6191 116.606 98.3 117.691C98.4413 117.437 98.5983 117.192 98.7701 116.957C98.9635 116.709 99.1748 116.474 99.4024 116.256C98.8674 115.41 98.4297 114.661 98.0568 113.943C98.0238 113.879 98.0039 113.81 97.9983 113.738C97.9927 113.667 98.0014 113.595 98.024 113.527C98.0465 113.459 98.0825 113.396 98.1299 113.341C98.1773 113.287 98.2351 113.242 98.3 113.21C98.3649 113.177 98.4357 113.158 98.5083 113.152C98.581 113.147 98.654 113.155 98.7232 113.177C98.7925 113.2 98.8566 113.235 98.9119 113.282C98.9673 113.328 99.0127 113.385 99.0457 113.449C99.3862 114.119 99.7915 114.804 100.278 115.586C100.781 115.273 101.327 115.031 101.899 114.868C101.121 113.816 100.456 112.843 99.8888 111.902C99.8508 111.84 99.8258 111.772 99.8151 111.701C99.8043 111.629 99.8081 111.557 99.8262 111.487C99.8443 111.417 99.8764 111.352 99.9205 111.294C99.9647 111.237 100.02 111.189 100.083 111.152C100.208 111.082 100.356 111.063 100.496 111.099C100.635 111.134 100.755 111.222 100.829 111.344C101.429 112.317 102.11 113.337 102.953 114.533C103.001 114.588 103.034 114.654 103.05 114.725C103.444 114.692 103.84 114.692 104.233 114.725C104.647 114.751 105.059 114.804 105.466 114.884C104.096 113.293 102.865 111.591 101.786 109.797C101.74 109.736 101.709 109.667 101.692 109.593C101.676 109.52 101.675 109.444 101.691 109.37C101.706 109.297 101.736 109.227 101.78 109.165C101.824 109.104 101.881 109.052 101.946 109.013C102.012 108.974 102.084 108.949 102.16 108.94C102.236 108.93 102.313 108.936 102.386 108.957C102.46 108.978 102.528 109.014 102.586 109.063C102.645 109.111 102.692 109.171 102.726 109.239C103.967 111.297 105.417 113.226 107.054 114.996C106.708 113.967 106.646 112.866 106.876 111.806C106.812 111.778 106.756 111.734 106.714 111.679C105.473 110.21 104.351 108.647 103.358 107.006C103.285 106.881 103.265 106.733 103.303 106.594C103.341 106.455 103.434 106.336 103.561 106.265C103.688 106.193 103.838 106.173 103.98 106.211C104.121 106.248 104.241 106.339 104.315 106.464C105.18 107.888 106.144 109.252 107.2 110.546C107.379 110.036 107.524 109.717 107.541 109.669C107.735 109.334 107.93 109.031 108.124 108.728C106.928 107.325 105.844 105.832 104.882 104.263C104.832 104.203 104.796 104.132 104.776 104.056C104.757 103.981 104.754 103.902 104.768 103.825C104.782 103.748 104.813 103.675 104.859 103.611C104.904 103.547 104.963 103.494 105.032 103.454C105.1 103.415 105.176 103.39 105.255 103.382C105.334 103.375 105.414 103.384 105.489 103.409C105.564 103.434 105.633 103.475 105.69 103.529C105.748 103.583 105.793 103.648 105.822 103.721C106.703 105.157 107.683 106.532 108.757 107.835C109.161 107.371 109.618 106.954 110.118 106.592C108.709 105.084 107.44 103.457 106.325 101.728C106.275 101.668 106.238 101.599 106.217 101.525C106.196 101.45 106.192 101.372 106.204 101.296C106.216 101.22 106.245 101.147 106.288 101.083C106.331 101.018 106.388 100.963 106.454 100.922C106.52 100.881 106.595 100.854 106.673 100.844C106.75 100.833 106.829 100.839 106.905 100.861C106.98 100.883 107.05 100.92 107.109 100.971C107.168 101.021 107.216 101.083 107.249 101.153C108.366 102.856 109.635 104.457 111.042 105.938C111.591 105.678 112.167 105.48 112.761 105.348C110.919 103.397 109.309 101.246 107.962 98.9368C107.927 98.874 107.905 98.8049 107.897 98.7337C107.889 98.6624 107.895 98.5903 107.915 98.5214C107.936 98.4526 107.97 98.3883 108.015 98.3324C108.061 98.2764 108.117 98.2298 108.181 98.1952C108.245 98.1607 108.315 98.1388 108.388 98.131C108.46 98.1231 108.533 98.1293 108.603 98.1493C108.673 98.1693 108.739 98.2027 108.795 98.2475C108.852 98.2923 108.9 98.3477 108.935 98.4105C110.331 100.964 112.059 103.328 114.074 105.443C114.741 105.418 115.41 105.461 116.068 105.571C112.388 101.899 109.455 97.5683 107.427 92.813C104.483 85.8368 103.65 78.1727 105.028 70.7419C93.3554 69.0036 80.7103 68.27 69.4594 70.0402L69.3621 70.9492C69.2536 71.9682 69.0583 72.9764 68.7785 73.9632C70.1752 73.5214 71.6477 73.3586 73.1093 73.4846C74.571 73.6106 75.9922 74.0227 77.2896 74.6968C77.982 75.1071 78.5595 75.6806 78.9699 76.3656C79.3803 77.0505 79.6107 77.8253 79.6403 78.6199C79.6403 78.6199 80.2888 82.6705 77.014 91.601C77.014 91.601 75.3928 94.4715 76.0089 95.7154C76.9005 97.3102 81.1966 97.8205 80.613 100.244C80.5193 99.7868 80.3097 99.3598 80.0037 99.003C79.6976 98.6462 79.305 98.3711 78.8622 98.2032C77.241 97.4696 75.6198 97.4377 75.0686 96.0344C74.5174 94.631 75.7333 92.1273 76.4142 90.8674C77.0005 89.4864 77.4775 88.0628 77.8408 86.6095C76.7439 87.6626 75.4195 88.4585 73.9662 88.9378C72.7503 89.0494 73.1556 88.6986 73.1556 88.6986C75.0883 87.9403 76.8186 86.7565 78.2137 85.238C78.2137 85.0147 78.3272 84.7915 78.3758 84.5682C78.3758 84.0579 77.6301 84.5682 77.6301 84.5682L72.2964 86.0035C71.0134 86.342 69.6779 86.4447 68.357 86.3065C68.2111 87.9012 68.0165 89.8468 67.7409 92.0635C66.525 102.35 69.3621 108.601 69.4594 108.665C69.4764 108.749 69.4764 108.836 69.4594 108.92C69.2162 115.299 64.4175 119.206 60.1052 119.206C59.0821 119.205 58.07 118.997 57.1327 118.593C56.1953 118.19 55.3528 117.6 54.6581 116.862C54.8841 117.51 55.249 118.103 55.728 118.6C56.3985 119.188 57.1905 119.627 58.0496 119.886C58.9087 120.144 59.8146 120.217 60.705 120.099C68.3245 119.732 69.6539 111.95 69.7025 111.631C69.7124 111.559 69.7367 111.49 69.7741 111.428C69.8114 111.366 69.8609 111.312 69.9198 111.269C69.9787 111.226 70.0457 111.195 70.117 111.177C70.1883 111.16 70.2623 111.157 70.3348 111.168C70.4768 111.196 70.6029 111.275 70.6873 111.391C70.7716 111.506 70.8079 111.649 70.7887 111.79C70.7887 111.886 69.281 120.769 60.7537 121.183H60.1376C59.3506 121.197 58.5653 121.106 57.8031 120.912C58.8366 121.537 60.0064 121.911 61.2159 122.002C62.4253 122.094 63.6396 121.901 64.758 121.439C66.4555 120.787 67.9485 119.707 69.0869 118.307C70.2253 116.907 70.9688 115.237 71.2426 113.465C71.2665 113.323 71.3465 113.197 71.465 113.113C71.5835 113.029 71.7309 112.995 71.8749 113.018C71.9478 113.03 72.0176 113.056 72.0802 113.094C72.1427 113.133 72.1968 113.183 72.2391 113.243C72.2815 113.302 72.3112 113.369 72.3266 113.441C72.3421 113.512 72.3428 113.585 72.3288 113.656C72.0319 115.615 71.2165 117.462 69.9645 119.013C68.7125 120.564 67.0679 121.763 65.1957 122.491C64.0305 122.904 62.8026 123.119 61.5643 123.129C60.8744 123.124 60.188 123.033 59.5216 122.858C60.1485 123.261 60.8561 123.528 61.5967 123.639C62.7634 123.85 63.9613 123.829 65.1196 123.577C66.2779 123.325 67.3731 122.847 68.3408 122.172C70.6525 120.519 72.2126 118.04 72.6855 115.267C72.7159 115.132 72.798 115.013 72.9147 114.935C73.0314 114.857 73.1739 114.827 73.313 114.849C73.452 114.871 73.5771 114.945 73.6624 115.056C73.7477 115.166 73.7868 115.304 73.7717 115.442C73.2412 118.517 71.4919 121.258 68.9082 123.065C67.895 123.771 66.757 124.285 65.5523 124.58C67.1284 124.437 68.6464 123.923 69.9781 123.081C71.1639 122.27 72.1712 121.232 72.94 120.029C73.7088 118.826 74.2232 117.483 74.4526 116.08C74.483 115.945 74.565 115.826 74.6817 115.748C74.7984 115.671 74.941 115.64 75.0801 115.662C75.2191 115.685 75.3442 115.759 75.4295 115.869C75.5148 115.979 75.5539 116.118 75.5388 116.256C75.2812 117.804 74.711 119.286 73.8618 120.615C73.0126 121.943 71.9015 123.091 70.5942 123.99C69.5981 124.624 68.5027 125.093 67.3518 125.377L68.3083 125.266C69.372 125.115 70.3959 124.763 71.3237 124.229H71.4534C72.735 123.422 73.83 122.359 74.6678 121.109C75.5055 119.859 76.0674 118.45 76.3169 116.973C76.3474 116.838 76.4294 116.719 76.5461 116.641C76.6628 116.564 76.8053 116.533 76.9444 116.555C77.0835 116.578 77.2085 116.652 77.2938 116.762C77.3791 116.873 77.4182 117.011 77.4031 117.149C77.1299 118.598 76.6033 119.99 75.8468 121.263C76.8457 120.028 77.6793 118.672 78.3272 117.228C78.3559 117.162 78.3976 117.103 78.4498 117.053C78.502 117.002 78.5638 116.963 78.6315 116.936C78.6992 116.91 78.7717 116.896 78.8446 116.897C78.9176 116.898 78.9896 116.913 79.0567 116.941C79.1238 116.97 79.1845 117.011 79.2355 117.062C79.2864 117.113 79.3266 117.174 79.3537 117.241C79.3808 117.307 79.3943 117.379 79.3934 117.45C79.3925 117.522 79.3772 117.593 79.3485 117.659C78.8444 118.778 78.2309 119.846 77.5166 120.848C78.7027 119.875 79.7115 118.71 80.4995 117.404C80.6088 117.268 80.748 117.158 80.9066 117.082C81.0652 117.007 81.2392 116.967 81.4155 116.967C81.5918 116.967 81.7658 117.007 81.9244 117.082C82.083 117.158 82.2222 117.268 82.3315 117.404C82.8597 118.104 83.4394 118.765 84.0661 119.381C83.8655 118.757 83.7191 118.117 83.6284 117.468C83.6133 117.324 83.657 117.18 83.7497 117.068C83.8425 116.956 83.9767 116.884 84.1229 116.87C84.269 116.855 84.4152 116.898 84.5292 116.989C84.6432 117.08 84.7157 117.212 84.7308 117.356C84.7308 117.356 85.2009 121.167 87.4382 122.06C86.7385 120.611 86.1951 119.093 85.817 117.531C85.801 117.461 85.7992 117.389 85.8118 117.318C85.8243 117.247 85.8509 117.179 85.8901 117.119C85.9292 117.058 85.9801 117.005 86.0399 116.964C86.0997 116.923 86.1672 116.893 86.2385 116.878C86.3098 116.862 86.3836 116.86 86.4556 116.872C86.5276 116.885 86.5964 116.911 86.6581 116.949C86.7198 116.988 86.7732 117.038 86.8153 117.097C86.8573 117.156 86.8872 117.222 86.9032 117.292C87.3634 119.096 88.0609 120.833 88.9783 122.459C88.9836 122.507 88.9836 122.555 88.9783 122.603C89.5447 123.639 90.4145 124.483 91.4749 125.027C89.7865 122.699 88.6154 120.047 88.038 117.244C88.0215 117.174 88.0199 117.101 88.0333 117.03C88.0467 116.959 88.0749 116.892 88.1159 116.832C88.157 116.772 88.2101 116.721 88.272 116.682C88.3339 116.644 88.4032 116.618 88.4757 116.606C88.547 116.593 88.6205 116.593 88.6918 116.607C88.7631 116.621 88.8308 116.649 88.8911 116.689C88.9513 116.729 89.003 116.78 89.043 116.84C89.083 116.9 89.1106 116.967 89.1242 117.037C89.1242 117.037 90.4373 123.512 93.858 125.728C94.4921 126.156 95.2309 126.409 95.9979 126.462C93.4721 123.804 91.6562 120.571 90.7129 117.053C90.6937 116.984 90.689 116.912 90.6992 116.84C90.7094 116.769 90.7342 116.701 90.7721 116.64C90.8101 116.579 90.8604 116.526 90.9199 116.484C90.9794 116.443 91.0469 116.414 91.1182 116.399C91.1874 116.38 91.2598 116.375 91.3311 116.384C91.4024 116.393 91.4712 116.416 91.5332 116.452C91.5953 116.487 91.6493 116.535 91.6922 116.592C91.7351 116.648 91.766 116.713 91.7829 116.782C91.7829 116.878 94.3119 126.35 100.634 127.833C101.726 128.16 102.884 128.209 104.001 127.978C105.118 127.747 106.157 127.242 107.022 126.51C107.761 125.892 108.361 125.128 108.783 124.269C109.204 123.409 109.438 122.472 109.47 121.518L109.551 121.598ZM115.274 120.003C116.416 119.936 117.529 119.618 118.53 119.072C119.531 118.525 120.395 117.765 121.058 116.847C121.72 115.929 122.165 114.876 122.36 113.766C122.554 112.657 122.492 111.518 122.18 110.435C121.515 108.032 120.178 105.861 118.321 104.168C117.167 103.011 116.125 101.751 115.209 100.404L114.641 99.6225C111.455 95.6554 109.179 91.0578 107.967 86.1446C106.756 81.2314 106.638 76.1187 107.622 71.1565L106.001 70.9173C104.689 78.1282 105.516 85.5581 108.384 92.3186C110.429 97.1567 113.445 101.539 117.251 105.204C117.65 105.527 118.019 105.885 118.354 106.273C119.193 107.166 119.84 108.217 120.255 109.363C120.67 110.508 120.845 111.725 120.769 112.939C120.691 114.325 120.076 115.629 119.051 116.584C118.026 117.539 116.669 118.072 115.257 118.074H115.16C113.77 118.15 112.403 117.695 111.346 116.803C110.288 115.912 109.622 114.653 109.486 113.289C109.337 112.588 109.347 111.863 109.515 111.165C109.683 110.468 110.005 109.816 110.459 109.255C110.909 108.723 111.471 108.293 112.107 107.996C112.742 107.699 113.435 107.541 114.139 107.532C114.841 107.497 115.542 107.623 116.186 107.9C116.83 108.177 117.4 108.597 117.851 109.127C118.26 109.66 118.533 110.28 118.649 110.938C118.764 111.595 118.719 112.27 118.516 112.907C118.402 113.462 118.146 113.979 117.771 114.409C117.396 114.838 116.916 115.167 116.376 115.363C115.833 115.525 115.261 115.567 114.7 115.484C114.139 115.401 113.604 115.196 113.134 114.884C112.727 114.584 112.418 114.174 112.246 113.703C112.073 113.233 112.043 112.723 112.161 112.237C112.236 111.841 112.431 111.477 112.72 111.192C113.01 110.908 113.38 110.716 113.782 110.642C114.056 110.578 114.34 110.567 114.619 110.611C114.897 110.654 115.164 110.752 115.403 110.897C115.68 111.11 115.866 111.417 115.922 111.758C115.931 111.83 115.925 111.903 115.904 111.972C115.883 112.041 115.848 112.106 115.801 112.161C115.754 112.216 115.696 112.262 115.63 112.294C115.565 112.326 115.493 112.345 115.42 112.349C115.278 112.362 115.137 112.322 115.025 112.236C114.914 112.15 114.84 112.024 114.82 111.886C114.82 111.727 114.479 111.615 113.912 111.711C113.724 111.755 113.555 111.856 113.427 111.999C113.3 112.141 113.22 112.319 113.199 112.508C113.124 112.794 113.132 113.094 113.221 113.375C113.309 113.657 113.476 113.909 113.701 114.103C114.049 114.32 114.441 114.46 114.85 114.513C115.259 114.565 115.675 114.528 116.068 114.406C116.414 114.27 116.721 114.053 116.963 113.776C117.206 113.498 117.377 113.167 117.462 112.811C117.613 112.337 117.648 111.835 117.567 111.345C117.485 110.855 117.288 110.39 116.992 109.988C116.653 109.583 116.224 109.26 115.738 109.044C115.251 108.828 114.721 108.726 114.187 108.744C113.643 108.748 113.105 108.868 112.612 109.096C112.119 109.325 111.683 109.657 111.334 110.068C110.98 110.513 110.73 111.03 110.601 111.581C110.472 112.132 110.468 112.705 110.588 113.258C110.688 114.365 111.227 115.39 112.088 116.109C112.95 116.829 114.066 117.185 115.193 117.101H115.274C116.418 117.128 117.528 116.718 118.372 115.956C119.215 115.195 119.726 114.142 119.797 113.018C119.894 110.904 119.143 108.836 117.705 107.261C116.041 106.489 114.135 106.391 112.398 106.987C110.66 107.584 109.23 108.828 108.416 110.451C107.773 111.841 107.641 113.409 108.043 114.884C109.535 118.361 111.934 120.051 115.193 119.924L115.274 120.003ZM124.741 111.695C124.514 107.931 122.342 104.199 117.916 99.9415C114.461 96.111 111.935 91.558 110.531 86.6266C109.127 81.6952 108.88 76.5143 109.81 71.4754L108.659 71.2681C107.701 76.0893 107.813 81.0569 108.985 85.832C110.157 90.607 112.363 95.077 115.452 98.9368C115.711 99.2717 115.906 99.5587 116.052 99.766C116.935 101.062 117.939 102.274 119.051 103.386C121.03 105.205 122.456 107.529 123.169 110.1C123.542 111.36 123.614 112.687 123.381 113.978C123.147 115.27 122.614 116.491 121.823 117.547C121.641 117.801 121.441 118.04 121.223 118.265L120.494 118.967C119.038 120.236 117.185 120.979 115.241 121.072H114.852C113.179 121.1 111.544 120.584 110.199 119.605C110.311 119.976 110.397 120.354 110.459 120.737C111.795 121.685 113.417 122.162 115.063 122.092C116.646 122.041 118.2 121.655 119.618 120.96C120.626 120.48 121.542 119.833 122.326 119.046C123.199 118.037 123.862 116.868 124.277 115.607C124.691 114.345 124.849 113.016 124.741 111.695ZM112.323 71.9858L110.978 71.7306C110.304 74.8169 110.173 77.9937 110.588 81.1236C111.291 87.8542 114.126 94.1974 118.694 99.2557C123.298 103.689 125.584 107.644 125.827 111.695C126.054 114.528 125.172 117.34 123.363 119.557C123.596 119.665 123.834 119.761 124.077 119.844C125.219 118.837 126.107 117.582 126.67 116.179C127.233 114.775 127.455 113.261 127.319 111.758C126.664 106.837 124.237 102.311 120.478 99.0006C117.097 95.4182 114.603 91.1169 113.189 86.4313C111.774 81.7457 111.478 76.8023 112.323 71.9858ZM90.7453 88.7783C91.0524 88.8677 91.3763 88.8854 91.6915 88.83C92.0067 88.7747 92.3045 88.6478 92.5611 88.4594C90.8317 87.9537 89.1914 87.1899 87.6975 86.1948C87.9948 86.8104 88.4194 87.3582 88.9442 87.803C89.4691 88.2479 90.0825 88.5801 90.7453 88.7783ZM92.0585 77.8544C90.4479 78.0584 88.9645 78.822 87.8759 80.0073C87.195 80.7409 87.1626 81.0598 87.4544 80.9322C87.9768 80.7322 88.4723 80.4698 88.9296 80.1508C89.9353 79.3592 91.1923 78.9414 92.48 78.9707C94.1984 79.0664 99.6294 81.9688 100.797 81.8093C100.797 81.8093 98.5594 80.39 96.9544 79.6086C95.4991 78.6268 93.8148 78.0234 92.0585 77.8544ZM88.4433 104.965C86.6762 104.71 85.5252 102.668 83.8229 102.668C83.1799 102.632 82.5381 102.759 81.9586 103.035C81.8537 103.09 81.7368 103.118 81.6181 103.118C81.4995 103.118 81.3826 103.09 81.2777 103.035C80.7079 102.764 80.078 102.638 79.4458 102.668C77.9543 102.668 76.2034 105.188 74.8254 105.188C74.4607 105.212 74.0948 105.164 73.7494 105.046C73.4041 104.929 73.0863 104.744 72.8152 104.502C72.6855 105.124 73.1556 106.416 75.02 106.48C76.2404 106.478 77.446 106.217 78.5541 105.714C79.5067 105.63 80.4638 105.818 81.3101 106.257C81.4154 106.3 81.5283 106.322 81.6425 106.322C81.7566 106.322 81.8696 106.3 81.9748 106.257C84.131 105.459 86.0926 106.767 88.4595 106.4C89.0958 106.353 89.6979 106.098 90.1706 105.676C90.6433 105.255 90.9596 104.69 91.0696 104.072C90.7732 104.475 90.3556 104.777 89.8757 104.934C89.3958 105.092 88.8777 105.097 88.3946 104.949L88.4433 104.965ZM90.9237 75.7812C93.1781 75.071 95.6166 75.1785 97.7974 76.0842C98.9115 76.4104 100.085 76.492 101.234 76.3234C99.3376 76.3234 97.4894 74.027 94.5551 73.3572C92.5383 72.859 90.4276 72.859 88.4109 73.3572C86.5141 74.0589 86.3195 75.0477 86.6924 75.845C87.0653 76.6424 88.5406 76.8019 90.9237 75.7812ZM93.8904 86.3543C91.203 86.2608 88.5942 85.4384 86.352 83.9782C86.352 83.9782 88.881 80.1508 92.4638 80.1508C95.7061 80.1508 101.429 83.8346 101.429 83.8346C101.429 83.8346 100.164 84.0579 99.4186 84.026C98.9323 84.8872 97.4894 86.5776 93.8904 86.3543ZM96.6788 82.5908C96.6199 83.2965 96.3453 83.9682 95.891 84.5176C95.4367 85.0669 94.824 85.4682 94.1336 85.6686C94.5165 85.7014 94.9017 85.7014 95.2846 85.6686C97.9433 85.3496 98.6404 84.2014 98.2027 83.5476C97.7251 83.1841 97.2151 82.8639 96.6788 82.5908ZM91.2803 85.3337C90.7721 85.0429 90.3448 84.6331 90.0365 84.1406C89.7282 83.6481 89.5485 83.0883 89.5133 82.511C88.9412 82.8425 88.3989 83.2213 87.8921 83.6433C87.8178 83.7178 87.7762 83.818 87.7762 83.9224C87.7762 84.0267 87.8178 84.1269 87.8921 84.2014C88.9445 84.773 90.0917 85.1563 91.2803 85.3337ZM93.096 85.1423C93.8629 85.1423 94.5985 84.8438 95.1423 84.3119C95.686 83.78 95.9937 83.058 95.9979 82.3037C95.6707 82.1706 95.3349 82.0587 94.9928 81.9688C95.0016 82.0749 95.0016 82.1816 94.9928 82.2878C94.9488 82.759 94.7273 83.197 94.3719 83.516C94.0165 83.8349 93.5528 84.0117 93.0717 84.0117C92.5907 84.0117 92.1269 83.8349 91.7715 83.516C91.4161 83.197 91.1947 82.759 91.1506 82.2878C91.126 82.1239 91.126 81.9573 91.1506 81.7934C90.7904 81.8892 90.4382 82.0118 90.0969 82.1602V82.2878C90.0967 82.6708 90.1748 83.05 90.3267 83.4027C90.4786 83.7554 90.7011 84.0745 90.9809 84.3408C91.2608 84.6072 91.5923 84.8154 91.9556 84.9531C92.319 85.0908 92.7069 85.1552 93.096 85.1423ZM81.3912 96.7042C81.524 96.7649 81.6748 96.7757 81.8152 96.7345C81.9555 96.6934 82.0757 96.6032 82.1531 96.4809C82.1531 96.4809 82.5746 95.3327 83.6284 95.556C84.6822 95.7792 85.4603 97.055 86.1736 97.2942C86.4708 97.4065 86.7915 97.4453 87.1075 97.4072C87.4234 97.3691 87.7251 97.2554 87.986 97.0759C88.2468 96.8964 88.459 96.6567 88.6037 96.3778C88.7484 96.0989 88.8214 95.7893 88.8161 95.4762C89.0269 93.1638 85.1037 91.6329 85.1037 91.6329C86.2709 92.1273 88.654 95.237 87.2436 95.8589C85.8332 96.4809 85.2982 94.4875 83.5798 94.3758C83.0612 94.3737 82.5539 94.5245 82.1233 94.8087C81.6928 95.093 81.3587 95.4977 81.1642 95.9706C81.1226 96.0315 81.0952 96.1008 81.0842 96.1734C81.0731 96.2461 81.0787 96.3202 81.1004 96.3904C81.1222 96.4607 81.1595 96.5253 81.2098 96.5796C81.2601 96.6338 81.3221 96.6764 81.3912 96.7042ZM77.857 108.362C78.1348 108.897 78.5607 109.344 79.0856 109.652C79.6105 109.959 80.213 110.115 80.8238 110.1C81.5586 110.187 82.3034 110.065 82.9699 109.748C83.6364 109.432 84.1969 108.934 84.5849 108.314C83.4805 108.844 82.2631 109.106 81.0345 109.079C79.9286 109.13 78.8297 108.882 77.857 108.362Z" fill="#24242E"/>
<path d="M73.4968 50.8813C75.0263 52.8395 75.7237 55.3026 75.4427 57.7542L72.4751 58.0724C71.8369 55.6369 72.2041 53.0527 73.4968 50.8813ZM52.0751 112.069C52.2767 112.014 52.4898 112.014 52.6914 112.069C52.6914 111.99 52.6914 111.926 52.6914 111.863C52.6943 110.823 52.9441 109.799 53.4211 108.872C45.0535 111.178 25.3022 118.783 12.6211 131.909V135.409C21.6697 125.688 34.5941 118.004 52.0751 112.069ZM84.313 57.2769C86.0751 57.2769 87.9562 57.2769 89.9562 57.2769C91.8049 57.2769 93.7833 57.3883 95.9076 57.5156C95.3682 56.4171 94.5334 55.4839 93.4932 54.8167C92.453 54.1494 91.2469 53.7734 90.0049 53.7291C88.8004 53.6794 87.6093 53.9928 86.5917 54.6271C85.5741 55.2613 84.7789 56.1861 84.313 57.2769V57.2769ZM107.616 52.7745C106.109 54.2742 105.224 56.2705 105.135 58.3747C106.27 58.502 107.421 58.6611 108.589 58.8361C109.05 56.7673 108.703 54.604 107.616 52.7745V52.7745ZM100.27 55.0655C101.768 51.4034 104.065 48.1072 106.999 45.4084L106.918 45.313C104.99 42.8372 102.546 40.7922 99.7506 39.3137C96.9548 37.8352 93.8704 36.9572 90.7022 36.7377C87.6956 36.6593 84.707 37.217 81.9396 38.3727C79.1722 39.5285 76.6909 41.2552 74.6643 43.4356C77.5114 46.3194 79.5503 49.8762 80.5833 53.7609C81.4026 51.9091 82.745 50.3259 84.4518 49.1983C86.1586 48.0707 88.1586 47.4457 90.2157 47.3971C95.8103 47.3494 98.8751 51.3904 100.27 55.0496V55.0655ZM60.086 38.8378C59.5833 39.5855 60.086 41.4788 60.4103 42.4811V42.672C61.4319 45.138 62.6806 47.6198 63.8968 50.0063C64.9022 51.995 65.94 54.0473 66.8481 56.1155C67.4929 51.6618 69.0721 47.3876 71.486 43.5629L71.0806 43.2288C67.9833 40.7151 65.0481 38.3446 60.8968 38.456C60.2968 38.456 60.1346 38.7582 60.086 38.8378ZM129.378 42.1629C128.81 41.9879 128.243 41.8288 127.659 41.7015C124.586 41.0804 121.413 41.1111 118.354 41.7916C115.294 42.4721 112.418 43.7867 109.918 45.6471C112.273 48.8934 113.716 52.6902 114.102 56.6565C115.216 55.0941 116.746 53.8615 118.524 53.0929C120.302 52.3242 122.262 52.049 124.189 52.2972C126.169 52.5235 128.005 53.4244 129.378 54.8428V42.1629ZM117.605 60.3793C120.945 61.0475 124.41 61.8642 127.999 62.8294C127.627 61.2384 126.508 58.1838 123.508 57.8815C122.393 57.8157 121.278 58.0075 120.253 58.4413C119.228 58.8751 118.321 59.5389 117.605 60.3793V60.3793ZM33.0373 147.611C32.8713 147.202 32.8367 146.752 32.9381 146.323C33.0395 145.894 33.2722 145.505 33.6049 145.209C36.4888 142.826 39.6647 140.806 43.0589 139.195C43.5042 138.988 44.0071 138.931 44.4886 139.035C44.97 139.139 45.4027 139.396 45.7184 139.768C55.6103 151.509 54.4751 162.9 54.4589 163.012C54.3675 163.643 54.0426 164.218 53.5461 164.629C53.0496 165.04 52.4163 165.257 51.767 165.239H51.4103L51.0049 165.159C38.6481 161.325 33.2481 148.232 33.0373 147.611ZM35.0806 146.816C35.0806 146.816 40.1887 159.543 51.6697 163.075C51.6697 163.075 52.2211 163.075 52.2697 162.709C52.3184 162.343 53.0481 151.875 44.0157 141.152C40.8106 142.671 37.8094 144.574 35.0806 146.816V146.816Z" fill="#F4C900"/>
<path d="M76.4246 57.1249C77.0915 52.9776 73.8545 49.1185 73.6919 48.9904C73.6389 48.927 73.5716 48.8766 73.4953 48.8432C73.4191 48.8099 73.336 48.7945 73.2527 48.7983C73.1682 48.8038 73.0861 48.8283 73.0128 48.8699C72.9395 48.9116 72.8769 48.9692 72.8297 49.0385C71.9439 50.2803 71.3401 51.6954 71.0595 53.1875C70.7788 54.6795 70.8278 56.2136 71.2031 57.6854L68.7795 58.0377C69.0476 53.2482 70.5054 48.5966 73.0249 44.4908C76.2589 47.9541 78.2922 52.3388 78.832 57.0129L76.4246 57.1249ZM82.1991 120.872H78.9458C78.8565 120.871 78.7687 120.895 78.6919 120.94C78.6151 120.984 78.5523 121.049 78.5104 121.127C78.4685 121.205 78.449 121.292 78.454 121.38C78.4591 121.468 78.4886 121.552 78.5392 121.625L80.2634 124.123C80.3072 124.192 80.3682 124.25 80.4408 124.289C80.5134 124.329 80.5951 124.35 80.6782 124.35C80.7612 124.35 80.843 124.329 80.9155 124.289C80.9881 124.25 81.0492 124.192 81.093 124.123L82.5406 121.625C82.589 121.557 82.6187 121.478 82.6267 121.395C82.6348 121.312 82.6209 121.229 82.5865 121.153C82.5521 121.077 82.4983 121.012 82.4304 120.962C82.3625 120.913 82.2828 120.882 82.1991 120.872ZM76.7174 38.0216C74.6516 34.819 72.2604 32.1609 71.3821 31.9688C70.4712 32.5292 69.1211 35.3314 68.259 37.8775C69.6707 38.8037 71.0234 39.8144 72.3092 40.9039L72.8135 41.3042C74.0116 40.0964 75.3182 38.9977 76.7174 38.0216ZM112.015 58.8383C112.066 54.4479 110.743 50.1485 108.225 46.5244C104.679 49.4228 102.19 55.1393 101.312 57.4132L103.914 57.7014C103.964 56.4026 104.293 55.129 104.879 53.9644C105.465 52.7997 106.295 51.7703 107.314 50.944C107.432 50.8645 107.577 50.832 107.719 50.8527C107.86 50.8735 107.989 50.9461 108.079 51.0561C108.836 52.1194 109.362 53.3257 109.622 54.599C109.883 55.8723 109.872 57.1849 109.591 58.454C110.405 58.6141 111.218 58.6942 112.015 58.8383ZM17.4923 165.036C16.7928 165.036 14.9059 165.036 14.3529 163.434C14.2339 163.081 14.2104 162.703 14.2845 162.338C14.3587 161.973 14.528 161.634 14.7758 161.353C18.2242 155.828 27.2032 149.103 27.5773 148.815C27.7932 148.654 28.042 148.543 28.3063 148.487C28.5706 148.432 28.8441 148.434 29.1075 148.493C29.3709 148.553 29.6179 148.668 29.8313 148.832C30.0446 148.995 30.2191 149.202 30.3425 149.439C31.4861 151.251 32.724 153.005 34.0512 154.691C34.2059 154.892 34.3162 155.123 34.375 155.368C34.4338 155.614 34.4399 155.869 34.3928 156.116C34.1488 157.381 33.8398 161.769 33.7422 163.354C33.7133 163.816 33.5075 164.25 33.1663 164.568C32.8251 164.886 32.374 165.064 31.9041 165.068H22.2582C20.1111 165.068 18.2405 165.068 17.4923 165.036ZM17.4923 163.226C19.6394 163.226 31.839 163.226 31.839 163.226C31.839 163.226 32.1969 157.413 32.5059 155.764C32.5059 155.764 29.3666 151.681 28.6346 150.272C28.6346 150.272 19.3954 157.141 16.191 162.457C16.256 162.457 15.3939 163.162 17.5573 163.226H17.4923ZM90.0556 49.0064C84.0209 49.1185 81.9225 54.4348 81.3532 56.7887H82.9798C83.4819 55.3854 84.4233 54.1751 85.6685 53.332C86.9137 52.4889 88.3985 52.0565 89.9092 52.0969C91.4506 52.1651 92.9404 52.6636 94.2048 53.534C95.4693 54.4045 96.4561 55.611 97.0501 57.0129L98.6767 57.141C98.1399 54.755 96.2368 48.9904 90.2671 48.9904L90.0556 49.0064ZM24.991 161.497H26.52C26.8586 161.497 27.186 161.377 27.4426 161.16C27.6993 160.942 27.8683 160.641 27.9189 160.312C28.1149 158.874 28.4304 157.455 28.8623 156.068C28.9134 155.928 28.9253 155.777 28.8967 155.63C28.8681 155.484 28.8 155.347 28.6996 155.236C28.6221 155.155 28.5288 155.091 28.4253 155.047C28.3219 155.004 28.2104 154.981 28.0978 154.981C27.9852 154.981 27.8737 155.004 27.7703 155.047C27.6668 155.091 27.5735 155.155 27.4959 155.236C25.8984 156.728 24.6831 158.572 23.9499 160.616C23.9499 160.616 23.527 161.529 25.0072 161.529L24.991 161.497ZM81.8412 125.868C81.9449 125.97 82.0852 126.027 82.2316 126.027C82.3779 126.027 82.5183 125.97 82.622 125.868L84.3625 124.043L86.0704 126.749C86.125 126.827 86.1978 126.891 86.2827 126.935C86.3676 126.98 86.4622 127.004 86.5584 127.005C86.6491 127.028 86.7442 127.028 86.8349 127.005C86.9599 126.929 87.05 126.808 87.0864 126.667C87.1228 126.527 87.1026 126.378 87.0301 126.252L84.9318 122.938C84.8855 122.866 84.8234 122.806 84.7502 122.762C84.6769 122.717 84.5944 122.69 84.5089 122.682C84.4243 122.675 84.3392 122.687 84.2603 122.717C84.1813 122.748 84.1105 122.796 84.0534 122.858L81.8087 125.196C81.7367 125.295 81.7008 125.415 81.7067 125.537C81.7126 125.659 81.76 125.776 81.8412 125.868ZM112.243 37.7974C112.243 37.6533 112.096 37.5092 111.999 37.3331C111.527 36.4203 110.535 34.4828 109.738 34.3226C109.738 34.3226 109.494 34.3226 109.136 34.5788C107.502 36.1134 106.139 37.9046 105.102 39.8791C106.366 40.9039 107.521 42.052 108.55 43.3058C110.121 42.1648 111.811 41.1931 113.593 40.4075C113.105 39.3987 112.698 38.518 112.243 37.6533V37.7974ZM118.749 127.021C118.831 126.284 118.627 125.545 118.177 124.95C117.728 124.356 117.066 123.952 116.325 123.818C113.43 123.002 112.178 125.42 111.901 127.662C111.787 128.622 112.308 134.691 112.308 134.691C112.308 134.691 118.7 133.875 119.611 133.586C121.775 132.85 123.938 131.152 122.539 128.526C122.239 127.836 121.686 127.282 120.989 126.976C120.292 126.67 119.504 126.635 118.782 126.877L118.749 127.021ZM105.639 136.437C102.743 135.62 101.491 138.038 101.214 140.28C101.1 141.24 101.621 147.309 101.621 147.309C101.621 147.309 107.981 146.589 108.924 146.268C111.088 145.548 113.235 143.851 111.836 141.224C111.533 140.534 110.974 139.983 110.272 139.685C109.571 139.388 108.78 139.365 108.062 139.623C108.185 138.87 108.004 138.1 107.557 137.477C107.11 136.855 106.433 136.429 105.671 136.292L105.639 136.437ZM129.371 65.0193C96.8386 55.6998 71.7887 59.719 67.771 60.4716C67.9336 61.0641 68.08 61.7206 68.2264 62.3291C72.0652 61.7046 96.4482 58.6141 129.371 67.181V65.0193ZM123.906 53.9224C118.635 53.2338 115.772 57.2691 114.683 59.3347L116.309 59.639C117.14 58.5231 118.244 57.6315 119.517 57.0465C120.791 56.4616 122.194 56.2022 123.596 56.2923C127.777 56.7246 128.915 61.1922 129.176 62.6974H129.377V58.0056C128.907 56.9154 128.135 55.9635 127.18 55.2424C126.225 54.5213 125.097 54.0555 123.906 53.8903V53.9224ZM95.212 129.071C93.9841 128.885 92.8463 128.325 91.9588 127.469C91.9588 127.469 91.1129 129.631 91.6172 129.631C92.831 129.559 94.0349 129.371 95.212 129.071ZM90.7876 166.06C90.4821 165.376 89.925 164.831 89.2281 164.534C88.5313 164.237 87.7461 164.21 87.0301 164.459C87.1123 163.723 86.908 162.983 86.4583 162.388C86.0086 161.794 85.3469 161.39 84.6065 161.257C81.6948 160.44 80.4586 162.858 80.1821 165.1C80.1718 166.704 80.149 168.401 80.311 169.998H89.9406C90.5244 169.56 91.0225 168.832 91.1606 168.123C91.2987 167.414 91.1658 166.679 90.7876 166.06ZM73.4641 130.992C77.5727 129.757 82.0109 130.171 85.8102 132.145C86.0064 132.238 86.1775 132.375 86.3098 132.545C86.4421 132.715 86.5316 132.914 86.5713 133.124C86.6109 133.335 86.5995 133.552 86.5379 133.757C86.4763 133.963 86.3663 134.151 86.2168 134.307L78.2789 142.457C78.116 142.623 77.9128 142.746 77.6885 142.813C77.4643 142.881 77.2263 142.891 76.9969 142.843C76.7676 142.795 76.5544 142.69 76.3774 142.539C76.2005 142.387 76.0656 142.194 75.9854 141.977L72.6346 132.722C72.514 132.384 72.5335 132.013 72.6888 131.689C72.8441 131.366 73.1226 131.115 73.4641 130.992ZM74.9118 133.186L77.4981 140.28L83.598 134.003C83.598 134.003 79.2386 131.152 74.9118 133.186ZM77.1077 122.505C77.0222 122.514 76.9397 122.541 76.8664 122.586C76.7932 122.63 76.7311 122.69 76.6848 122.762L74.7004 126.076C74.6278 126.202 74.6076 126.351 74.644 126.491C74.6804 126.632 74.7706 126.753 74.8956 126.829C74.9862 126.852 75.0814 126.852 75.1721 126.829C75.2683 126.828 75.3628 126.804 75.4477 126.759C75.5326 126.715 75.6055 126.651 75.6601 126.573L77.2867 123.867L78.9458 125.772C79.0472 125.878 79.1873 125.94 79.3352 125.945C79.4832 125.949 79.6269 125.896 79.7347 125.796C79.8426 125.696 79.9057 125.558 79.9103 125.413C79.9149 125.267 79.8605 125.126 79.7591 125.019L77.5632 122.666C77.5053 122.606 77.4339 122.56 77.3548 122.532C77.2757 122.504 77.1911 122.495 77.1077 122.505ZM90.9665 159.703C90.9665 159.703 97.3429 158.983 98.27 158.678C100.433 157.942 102.581 156.244 101.182 153.618C100.882 152.929 100.326 152.379 99.627 152.081C98.9281 151.783 98.1397 151.76 97.4242 152.017C97.4981 151.28 97.2886 150.542 96.8369 149.949C96.3852 149.356 95.7242 148.951 94.9843 148.815C92.0889 148.014 90.8527 150.416 90.5761 152.674C90.446 153.65 90.9665 159.703 90.9665 159.703Z" fill="#C72F2A"/>
</g>
<path d="M32.3076 75.5977C29.9999 75.5977 27.846 76.5207 26.1537 78.0592C25.9999 78.213 25.846 78.213 25.6922 78.0592C24.1537 76.5207 21.9999 75.5977 19.5383 75.5977C14.6152 75.5977 10.6152 79.5977 10.6152 84.6746C10.6152 89.1361 12.7691 91.4438 18.4614 96.213C20.7691 98.213 24.1537 102.367 25.3845 104.059C25.6922 104.521 26.3076 104.521 26.6152 104.059C27.9999 102.367 31.2306 98.213 33.5383 96.213C39.0768 91.29 41.3845 89.1361 41.3845 84.6746C41.3845 79.5977 37.3845 75.5977 32.3076 75.5977Z" fill="#BF3030"/>
<path d="M28.7913 31.44L41.0753 64H33.8973L24.5733 37.286L20.4293 43.576V64H13.9913V11.756H20.4293V34.252L33.8973 11.756H41.0753L28.7913 31.44Z" fill="#BF3030"/>
<defs>
<linearGradient id="paint0_linear_324_104525" x1="92" y1="2" x2="92" y2="182" gradientUnits="userSpaceOnUse">
<stop stop-color="white" stop-opacity="0.85"/>
<stop offset="1" stop-color="white" stop-opacity="0.15"/>
</linearGradient>
<clipPath id="clip0_324_104525">
<rect width="116.757" height="165" fill="white" transform="translate(12.6211 5)"/>
</clipPath>
</defs>
</svg>
