<svg width="184" height="184" viewBox="0 0 184 184" fill="none" xmlns="http://www.w3.org/2000/svg">
<rect x="1" y="1" width="182" height="182" rx="13" stroke="black" stroke-opacity="0.25" stroke-width="2"/>
<rect x="2.5" y="2.5" width="179" height="179" rx="11.5" fill="#E9E9E9" stroke="url(#paint0_linear_324_104511)"/>
<rect x="41.0449" y="30.5" width="101.909" height="123" rx="1.5" fill="#D7D5D7" stroke="#CDCFD6"/>
<path d="M99.1925 94.5898C94.0002 94.5898 89.154 96.6668 85.3463 100.128C85.0002 100.474 84.654 100.474 84.3079 100.128C80.8463 96.6668 76.0002 94.5898 70.4617 94.5898C59.3848 94.5898 50.3848 103.59 50.3848 115.013C50.3848 125.051 55.2309 130.244 68.0386 140.974C73.2309 145.474 80.8463 154.821 83.6156 158.628C84.3079 159.667 85.6925 159.667 86.3848 158.628C89.5002 154.821 96.7694 145.474 101.962 140.974C114.423 129.898 119.616 125.051 119.616 115.013C119.616 103.59 110.616 94.5898 99.1925 94.5898Z" fill="#BF3030"/>
<path d="M32.3076 75.5977C29.9999 75.5977 27.846 76.5207 26.1537 78.0592C25.9999 78.213 25.846 78.213 25.6922 78.0592C24.1537 76.5207 21.9999 75.5977 19.5383 75.5977C14.6152 75.5977 10.6152 79.5977 10.6152 84.6746C10.6152 89.1361 12.7691 91.4438 18.4614 96.213C20.7691 98.213 24.1537 102.367 25.3845 104.059C25.6922 104.521 26.3076 104.521 26.6152 104.059C27.9999 102.367 31.2306 98.213 33.5383 96.213C39.0768 91.29 41.3845 89.1361 41.3845 84.6746C41.3845 79.5977 37.3845 75.5977 32.3076 75.5977Z" fill="#BF3030"/>
<path d="M14.583 50.236H20.577C20.503 52.826 20.503 54.01 20.577 54.232C20.577 55.49 20.725 58.894 25.461 58.894C30.345 58.894 30.419 55.268 30.567 49.94C30.641 48.756 30.567 42.836 30.567 41.504C29.383 42.688 27.311 44.76 23.019 44.76C14.065 44.76 14.065 35.954 14.065 32.698C14.065 27.962 14.065 21.598 14.731 18.564C15.915 12.792 20.947 11.09 25.461 11.09C27.459 11.09 29.531 11.312 31.307 12.2C32.343 12.718 35.821 14.79 36.561 19.896C36.783 21.154 36.783 22.486 36.783 34.252C36.783 37.582 36.709 52.308 36.561 54.602C35.747 63.704 29.013 64.666 25.387 64.666C20.207 64.666 15.841 62.15 14.879 57.562C14.583 56.304 14.583 55.712 14.583 50.236ZM30.641 28.258C30.641 28.036 30.641 22.264 30.567 21.672C30.123 18.046 27.903 16.788 25.683 16.788C23.833 16.788 20.947 17.676 20.503 21.746C20.355 23.004 20.281 28.332 20.281 30.404L20.355 34.252C20.577 37.212 22.427 39.136 25.609 39.136C28.717 39.136 30.641 37.138 30.641 33.438V28.258Z" fill="#BF3030"/>
<defs>
<linearGradient id="paint0_linear_324_104511" x1="92" y1="2" x2="92" y2="182" gradientUnits="userSpaceOnUse">
<stop stop-color="white" stop-opacity="0.85"/>
<stop offset="1" stop-color="white" stop-opacity="0.15"/>
</linearGradient>
</defs>
</svg>
