<svg width="184" height="184" viewBox="0 0 184 184" fill="none" xmlns="http://www.w3.org/2000/svg">
<rect x="1" y="1" width="182" height="182" rx="13" stroke="black" stroke-opacity="0.25" stroke-width="2"/>
<rect x="2.5" y="2.5" width="179" height="179" rx="11.5" fill="#E9E9E9" stroke="url(#paint0_linear_324_104584)"/>
<rect x="41.0449" y="30.5" width="101.909" height="123" rx="1.5" fill="#D7D5D7" stroke="#CDCFD6"/>
<path d="M105.039 119.213C102.962 119.213 100.885 119.559 98.8084 120.252C102.616 116.79 105.039 112.29 105.039 107.098C105.039 97.0592 96.3854 89.0977 86.0008 89.0977C75.6161 89.0977 66.9623 97.4054 66.9623 107.098C66.9623 112.29 69.3854 117.136 73.1931 120.252C71.1161 119.559 69.3854 119.213 66.9623 119.213C56.5777 119.213 47.9238 127.175 47.9238 137.213C47.9238 147.252 56.5777 155.213 66.9623 155.213C74.5777 155.213 80.8084 151.059 83.9238 145.175C83.5777 150.367 81.8469 158.328 76.6546 163.521C75.9623 164.213 76.3084 164.905 77.3469 164.905H86.0008H94.6546C95.3469 164.905 95.6931 163.867 95.3469 163.521C90.1546 158.328 88.4238 150.713 88.0777 145.175C91.1931 151.059 97.77 155.213 105.039 155.213C115.424 155.213 124.078 147.252 124.078 137.213C124.078 127.521 115.424 119.213 105.039 119.213Z" fill="#24242E"/>
<path d="M35.4608 86.537C34.5377 86.537 33.6146 86.6908 32.6916 86.9985C34.3839 85.46 35.4608 83.46 35.4608 81.1523C35.4608 76.6908 31.6146 73.1523 26.9992 73.1523C22.3839 73.1523 18.5377 76.8447 18.5377 81.1523C18.5377 83.46 19.6146 85.6139 21.3069 86.9985C20.3839 86.6908 19.6146 86.537 18.5377 86.537C13.9223 86.537 10.0762 90.0754 10.0762 94.537C10.0762 98.9985 13.9223 102.537 18.5377 102.537C21.9223 102.537 24.6916 100.691 26.0762 98.0754C25.9223 100.383 25.1531 103.922 22.8454 106.229C22.5377 106.537 22.6916 106.845 23.1531 106.845H26.9992H30.8454C31.1531 106.845 31.3069 106.383 31.1531 106.229C28.8454 103.922 28.0762 100.537 27.9223 98.0754C29.3069 100.691 32.23 102.537 35.4608 102.537C40.0762 102.537 43.9223 98.9985 43.9223 94.537C43.9223 90.2293 40.0762 86.537 35.4608 86.537Z" fill="#24242E"/>
<path d="M38.227 58.376V64H15.361V57.784L26.165 39.506C30.605 31.884 31.419 29.812 31.419 24.188C31.419 21.82 31.345 17.084 26.609 17.084C21.947 17.084 21.947 21.524 21.947 24.41V30.404H15.953V23.892C15.953 19.452 16.471 16.418 18.617 14.124C20.171 12.496 22.835 11.09 26.461 11.09C30.531 11.09 32.825 12.644 34.231 14.124C36.895 16.936 37.561 20.34 37.561 24.706C37.561 31.366 35.489 35.732 32.677 40.394L21.947 58.376H38.227Z" fill="#24242E"/>
<g clip-path="url(#clip0_324_104584)">
<path d="M64.9267 38L66.5467 30.08C67.0507 27.704 67.4467 25.004 67.8787 22.088H67.9507C68.2747 25.04 68.6347 27.812 69.0307 30.044L70.4707 38H75.3307L79.6147 13.736H75.0067L73.8187 23.348C73.4947 26.156 73.2067 28.748 72.8827 31.916H72.8107C72.5227 28.748 72.0907 26.048 71.6587 23.312L70.0387 13.736H66.2227L64.4947 23.384C63.9907 26.3 63.4507 28.928 63.1267 31.916H63.0187C62.7307 28.964 62.5147 26.192 62.1907 23.42L61.0027 13.736H56.1067L60.2467 38H64.9267ZM82.1603 13.736V38H86.8763V13.736H82.1603ZM91.09 38H102.034V34.004H95.806V13.736H91.09V38ZM104.766 37.928C105.702 38.036 107.178 38.18 108.654 38.18C112.038 38.18 114.45 37.424 116.07 35.84C118.194 33.968 119.454 30.476 119.454 25.58C119.454 20.864 118.374 17.66 116.286 15.788C114.738 14.348 112.614 13.628 109.554 13.628C107.682 13.628 105.954 13.808 104.766 14.096V37.928ZM109.482 17.516C109.77 17.408 110.094 17.408 110.418 17.408C113.262 17.408 114.558 20.432 114.558 25.4C114.558 32.096 112.578 34.328 110.31 34.328C110.058 34.328 109.698 34.328 109.482 34.256V17.516Z" fill="#24242E"/>
<path opacity="0.8" d="M68.7722 63L70.1222 56.4C70.5422 54.42 70.8722 52.17 71.2322 49.74H71.2922C71.5622 52.2 71.8622 54.51 72.1922 56.37L73.3922 63H77.4422L81.0122 42.78H77.1722L76.1822 50.79C75.9122 53.13 75.6722 55.29 75.4022 57.93H75.3422C75.1022 55.29 74.7422 53.04 74.3822 50.76L73.0322 42.78H69.8522L68.4122 50.82C67.9922 53.25 67.5422 55.44 67.2722 57.93H67.1822C66.9422 55.47 66.7622 53.16 66.4922 50.85L65.5022 42.78H61.4222L64.8722 63H68.7722ZM83.1336 42.78V63H87.0636V42.78H83.1336ZM90.575 63H99.695V59.67H94.505V42.78H90.575V63ZM101.971 62.94C102.751 63.03 103.981 63.15 105.211 63.15C108.031 63.15 110.041 62.52 111.391 61.2C113.161 59.64 114.211 56.73 114.211 52.65C114.211 48.72 113.311 46.05 111.571 44.49C110.281 43.29 108.511 42.69 105.961 42.69C104.401 42.69 102.961 42.84 101.971 43.08V62.94ZM105.901 45.93C106.141 45.84 106.411 45.84 106.681 45.84C109.051 45.84 110.131 48.36 110.131 52.5C110.131 58.08 108.481 59.94 106.591 59.94C106.381 59.94 106.081 59.94 105.901 59.88V45.93Z" fill="#24242E"/>
<path opacity="0.5" d="M72.6178 84L73.6978 78.72C74.0338 77.136 74.2978 75.336 74.5858 73.392H74.6338C74.8498 75.36 75.0898 77.208 75.3538 78.696L76.3138 84H79.5538L82.4098 67.824H79.3378L78.5458 74.232C78.3298 76.104 78.1378 77.832 77.9218 79.944H77.8738C77.6818 77.832 77.3938 76.032 77.1058 74.208L76.0258 67.824H73.4818L72.3298 74.256C71.9938 76.2 71.6338 77.952 71.4178 79.944H71.3458C71.1538 77.976 71.0098 76.128 70.7938 74.28L70.0018 67.824H66.7378L69.4978 84H72.6178ZM84.1068 67.824V84H87.2508V67.824H84.1068ZM90.06 84H97.356V81.336H93.204V67.824H90.06V84ZM99.1772 83.952C99.8012 84.024 100.785 84.12 101.769 84.12C104.025 84.12 105.633 83.616 106.713 82.56C108.129 81.312 108.969 78.984 108.969 75.72C108.969 72.576 108.249 70.44 106.857 69.192C105.825 68.232 104.409 67.752 102.369 67.752C101.121 67.752 99.9692 67.872 99.1772 68.064V83.952ZM102.321 70.344C102.513 70.272 102.729 70.272 102.945 70.272C104.841 70.272 105.705 72.288 105.705 75.6C105.705 80.064 104.385 81.552 102.873 81.552C102.705 81.552 102.465 81.552 102.321 81.504V70.344Z" fill="#24242E"/>
</g>
<defs>
<linearGradient id="paint0_linear_324_104584" x1="92" y1="2" x2="92" y2="182" gradientUnits="userSpaceOnUse">
<stop stop-color="white" stop-opacity="0.85"/>
<stop offset="1" stop-color="white" stop-opacity="0.15"/>
</linearGradient>
<clipPath id="clip0_324_104584">
<rect width="74" height="88" fill="white" transform="translate(51 2)"/>
</clipPath>
</defs>
</svg>
