<svg width="184" height="184" viewBox="0 0 184 184" fill="none" xmlns="http://www.w3.org/2000/svg">
<rect x="1" y="1" width="182" height="182" rx="13" stroke="black" stroke-opacity="0.25" stroke-width="2"/>
<rect x="2.5" y="2.5" width="179" height="179" rx="11.5" fill="#E9E9E9" stroke="url(#paint0_linear_324_104571)"/>
<rect x="41.0449" y="30.5" width="101.909" height="123" rx="1.5" fill="#D7D5D7" stroke="#CDCFD6"/>
<path d="M101.962 106.144C96.7694 101.99 89.154 93.3362 86.0386 89.8747C85.3463 89.1824 83.9617 89.1824 83.2694 89.8747C80.154 93.3362 72.8848 101.99 67.3463 106.144C55.2309 116.529 50.3848 121.375 50.3848 130.375C50.3848 140.759 59.3848 149.413 70.4617 149.413C74.6155 149.413 79.4617 148.029 82.5771 145.605L82.9232 145.259C82.2309 150.452 80.5001 158.067 75.3078 163.259C74.6155 163.952 74.9617 164.644 76.0001 164.644H85.0001H94.0001C94.6925 164.644 95.0386 163.605 94.6925 163.259C89.5001 158.067 87.7694 150.798 87.0771 145.259L87.4232 145.605C90.1925 148.029 95.3848 149.413 99.5386 149.413C110.616 149.413 119.616 140.759 119.616 130.375C119.616 121.375 114.769 116.529 101.962 106.144Z" fill="#24242E"/>
<path d="M33.5383 80.7311C31.2306 78.8849 27.846 75.0388 26.4614 73.5003C26.1537 73.1926 25.5383 73.1926 25.2306 73.5003C23.846 75.0388 20.6152 78.8849 18.1537 80.7311C12.7691 85.3465 10.6152 87.5003 10.6152 91.5003C10.6152 96.1157 14.6152 99.9618 19.5383 99.9618C21.3845 99.9618 23.5383 99.3465 24.9229 98.2695L25.0768 98.1157C24.7691 100.423 23.9998 103.808 21.6922 106.116C21.3845 106.423 21.5383 106.731 21.9998 106.731H25.9998H29.9998C30.3075 106.731 30.4614 106.27 30.3075 106.116C27.9998 103.808 27.2306 100.577 26.9229 98.1157L27.0768 98.2695C28.3075 99.3465 30.6152 99.9618 32.4614 99.9618C37.3845 99.9618 41.3845 96.1157 41.3845 91.5003C41.3845 87.5003 39.2306 85.3465 33.5383 80.7311Z" fill="#24242E"/>
<path d="M20.4484 11.756V64H13.8624V23.004H5.20437V18.046C9.49637 18.046 14.8984 18.046 14.8984 11.756H20.4484ZM46.9016 37.804C46.9016 40.764 46.7536 52.234 46.5316 54.676C46.2356 57.044 45.4216 64.666 35.2836 64.666C30.8436 64.666 25.6636 63.26 24.1836 57.784C23.5916 55.638 23.2956 53.418 23.2956 37.73C23.2956 21.45 23.5176 20.192 24.4056 17.602C26.5516 11.534 32.9896 11.09 35.0616 11.09C37.5776 11.09 43.3496 11.756 45.6436 17.454C46.8276 20.34 46.9016 21.524 46.9016 37.804ZM40.3156 38.1V29.368C40.3156 20.784 40.3156 16.936 35.1356 16.936C30.0296 16.936 29.8816 21.302 29.8076 24.262C29.7336 28.258 29.7336 29.368 29.7336 40.69C29.7336 43.354 29.7336 49.274 29.8076 51.494C29.8816 55.12 30.0296 58.894 34.9876 58.894C40.0196 58.894 40.1676 55.416 40.2416 51.198C40.3156 49.718 40.3156 46.388 40.3156 38.1Z" fill="#24242E"/>
<defs>
<linearGradient id="paint0_linear_324_104571" x1="92" y1="2" x2="92" y2="182" gradientUnits="userSpaceOnUse">
<stop stop-color="white" stop-opacity="0.85"/>
<stop offset="1" stop-color="white" stop-opacity="0.15"/>
</linearGradient>
</defs>
</svg>
