<svg width="184" height="184" viewBox="0 0 184 184" fill="none" xmlns="http://www.w3.org/2000/svg">
<rect x="1" y="1" width="182" height="182" rx="13" stroke="black" stroke-opacity="0.25" stroke-width="2"/>
<rect x="2.5" y="2.5" width="179" height="179" rx="11.5" fill="#E9E9E9" stroke="url(#paint0_linear_324_104493)"/>
<rect x="41.0449" y="30.5" width="101.909" height="123" rx="1.5" fill="#D7D5D7" stroke="#CDCFD6"/>
<path d="M101.192 94.5898C96.0002 94.5898 91.154 96.6668 87.3463 100.128C87.0002 100.474 86.654 100.474 86.3079 100.128C82.8463 96.6668 78.0002 94.5898 72.4617 94.5898C61.3848 94.5898 52.3848 103.59 52.3848 115.013C52.3848 125.051 57.2309 130.244 70.0386 140.974C75.2309 145.474 82.8463 154.821 85.6156 158.628C86.3079 159.667 87.6925 159.667 88.3848 158.628C91.5002 154.821 98.7694 145.474 103.962 140.974C116.423 129.898 121.616 125.051 121.616 115.013C121.616 103.59 112.616 94.5898 101.192 94.5898Z" fill="#BF3030"/>
<path d="M34.3076 75.5977C31.9999 75.5977 29.846 76.5207 28.1537 78.0592C27.9999 78.213 27.846 78.213 27.6922 78.0592C26.1537 76.5207 23.9999 75.5977 21.5383 75.5977C16.6152 75.5977 12.6152 79.5977 12.6152 84.6746C12.6152 89.1361 14.7691 91.4438 20.4614 96.213C22.7691 98.213 26.1537 102.367 27.3845 104.059C27.6922 104.521 28.3076 104.521 28.6152 104.059C29.9999 102.367 33.2306 98.213 35.5383 96.213C41.0768 91.29 43.3845 89.1361 43.3845 84.6746C43.3845 79.5977 39.3845 75.5977 34.3076 75.5977Z" fill="#BF3030"/>
<path d="M38.857 23.3C38.857 30.922 38.413 34.548 34.639 35.88C34.195 36.028 33.529 36.102 33.233 36.176C33.455 36.25 34.269 36.472 34.861 36.694C39.227 38.618 39.227 43.428 39.227 48.312C39.227 52.456 39.227 55.786 38.043 58.746C35.675 64.592 28.127 64.666 27.461 64.666C22.873 64.666 19.839 62.742 18.433 60.966C16.657 58.746 16.139 55.49 16.139 52.604C16.139 41.652 16.139 37.952 22.207 36.176C17.471 35.362 16.805 32.254 16.805 23.744C16.805 20.118 16.879 11.09 27.831 11.09C32.567 11.09 35.527 13.014 36.933 14.79C38.857 17.38 38.857 21.08 38.857 23.3ZM32.715 24.41C32.789 20.858 32.937 16.27 27.905 16.27C23.243 16.27 22.799 19.97 22.799 24.78C22.799 29.738 22.799 33.438 27.979 33.438C32.493 33.438 32.567 30.034 32.715 24.41ZM32.863 49.348C32.863 44.168 32.863 39.728 27.683 39.728C26.869 39.728 25.537 39.876 24.427 40.69C22.577 42.17 22.577 44.168 22.577 49.644C22.577 55.046 22.577 58.82 27.683 58.82C32.863 58.82 32.863 54.528 32.863 49.348Z" fill="#BF3030"/>
<defs>
<linearGradient id="paint0_linear_324_104493" x1="92" y1="2" x2="92" y2="182" gradientUnits="userSpaceOnUse">
<stop stop-color="white" stop-opacity="0.85"/>
<stop offset="1" stop-color="white" stop-opacity="0.15"/>
</linearGradient>
</defs>
</svg>
