<svg width="180" height="184" viewBox="0 0 180 184" fill="none" xmlns="http://www.w3.org/2000/svg">
<rect x="1" y="1" width="134" height="182" rx="13" stroke="black" stroke-opacity="0.25" stroke-width="2"/>
<rect x="2.5" y="2.5" width="131" height="179" rx="11.5" fill="#E9E9E9" stroke="url(#paint0_linear_324_104464)"/>
<rect x="30.5" y="30.5" width="75" height="123" rx="1.5" fill="#D7D5D7" stroke="#CDCFD6"/>
<g clip-path="url(#clip0_324_104464)">
<path d="M129.378 49.3117V165.23C129.378 166.495 128.865 167.709 127.953 168.604C127.041 169.498 125.803 170.001 124.513 170.001H17.486C16.1957 170.001 14.9583 169.498 14.046 168.604C13.1336 167.709 12.6211 166.495 12.6211 165.23V144.333C16.4157 141.153 29.5833 131.134 51.54 125.249L52.0589 125.106L51.7508 124.677C51.0975 123.796 50.6642 122.778 50.486 121.703C50.3867 120.985 50.4449 120.254 50.6567 119.56C50.8685 118.866 51.229 118.224 51.7141 117.678C52.1993 117.131 52.7978 116.693 53.4697 116.391C54.1416 116.09 54.8714 115.933 55.6103 115.93H55.7724C56.3759 115.935 56.9694 116.082 57.5028 116.358C58.0363 116.635 58.494 117.034 58.8373 117.52C59.1857 117.992 59.4133 118.538 59.5008 119.114C59.5883 119.69 59.5331 120.278 59.34 120.828V120.828C59.2161 121.39 58.9348 121.906 58.528 122.319C58.1212 122.732 57.6049 123.025 57.0373 123.166C56.7671 123.258 56.4808 123.295 56.1955 123.277C55.9102 123.258 55.6316 123.183 55.3761 123.057C55.1207 122.931 54.8935 122.756 54.7082 122.543C54.5228 122.329 54.3829 122.082 54.2968 121.814C54.2414 121.588 54.2374 121.352 54.285 121.124C54.3327 120.896 54.4308 120.681 54.5724 120.494C54.6882 120.326 54.8422 120.187 55.0224 120.088C55.2025 119.988 55.4038 119.932 55.6103 119.922C55.7974 119.904 55.9862 119.925 56.1648 119.982C56.3434 120.04 56.508 120.133 56.6481 120.256L56.2103 120.383C56.0222 120.301 55.8153 120.268 55.6103 120.288C55.4475 120.279 55.2852 120.313 55.14 120.385C54.9948 120.458 54.8717 120.567 54.7833 120.701C54.6784 120.844 54.6055 121.007 54.5692 121.18C54.5328 121.353 54.534 121.531 54.5724 121.703C54.6416 121.928 54.757 122.136 54.9114 122.315C55.0658 122.494 55.2559 122.64 55.4702 122.745C55.6844 122.849 55.9181 122.909 56.157 122.921C56.3958 122.934 56.6347 122.898 56.8589 122.816C57.4383 122.674 57.9559 122.353 58.3354 121.901C58.7149 121.448 58.9363 120.888 58.967 120.303C58.9752 119.565 58.6903 118.852 58.1724 118.316C57.847 117.979 57.4505 117.717 57.0107 117.546C56.5709 117.376 56.0985 117.302 55.6265 117.33C55.0864 117.329 54.5527 117.444 54.0626 117.666C53.5725 117.889 53.1377 118.214 52.7887 118.618C52.4431 119.018 52.1879 119.486 52.0398 119.991C51.8916 120.495 51.854 121.024 51.9292 121.544C52.0379 122.502 52.4401 123.406 53.0827 124.135C53.7254 124.865 54.5783 125.386 55.5292 125.631H55.6103C56.6171 125.64 57.5964 125.309 58.3833 124.693C59.6789 123.785 60.6313 122.482 61.0914 120.987C61.862 118.871 63.306 117.053 65.2103 115.803C67.6751 114.594 69.2481 113.242 69.5238 112.113C69.6366 110.979 69.3127 109.845 68.6157 108.933L68.5022 108.742C68.2072 108.345 68.035 107.872 68.0063 107.382C67.9775 106.891 68.0934 106.403 68.34 105.975L68.4373 105.736L68.2589 105.561C67.6959 105.011 67.2688 104.342 67.0103 103.605V103.51C66.8051 103.334 66.664 103.098 66.6084 102.837C66.5528 102.576 66.5857 102.304 66.7022 102.063C67.1909 101.074 67.3169 99.9508 67.0589 98.8819V98.8819C66.5096 98.5421 65.8983 98.3098 65.2589 98.1981C64.3979 98.081 63.5733 97.7813 62.8423 97.3199C62.1114 96.8585 61.4918 96.2464 61.0265 95.5263C60.6413 94.7622 60.5199 93.8959 60.6808 93.0583C60.8417 92.2206 61.2761 91.4569 61.9184 90.8826C62.3135 90.2556 62.6397 89.5892 62.8914 88.8947L63.5562 87.5111C64.3359 85.683 65.3087 83.94 66.4589 82.3108C67.3748 81.3101 67.8828 80.0137 67.886 78.669C67.7787 78.126 67.6212 77.5937 67.4157 77.0787C66.9061 75.8478 66.5785 74.5518 66.4427 73.2301C66.3608 72.0444 66.6192 70.8599 67.1887 69.8109C67.3144 69.5949 67.4553 69.3876 67.6103 69.1907L67.7238 69.0635V68.8885C67.5182 67.9387 67.372 66.9774 67.286 66.0101V65.8828H67.2049C66.8157 65.4375 66.2806 63.9585 66.0211 59.4261V59.3466L58.0265 45.2564C58.002 45.141 58.002 45.0219 58.0265 44.9065V44.7475L57.913 44.6362C56.4755 43.4287 55.4645 41.8061 55.0246 40.0007C54.5848 38.1953 54.7387 36.2997 55.4643 34.5854C55.5272 34.4023 55.6614 34.251 55.8376 34.1646C56.0139 34.0782 56.2178 34.0637 56.4049 34.1242C58.838 34.7851 60.9139 36.3476 62.1941 38.4817C62.8755 39.809 63.1727 41.2941 63.0535 42.7755V43.5866L63.7022 43.0777C68.0827 39.4581 73.6563 37.5249 79.3833 37.6388C84.7123 37.9855 89.813 39.8911 94.0265 43.1095L94.7724 43.6661L94.6103 42.7755C94.2652 41.0691 94.4429 39.3007 95.121 37.6932C95.7992 36.0856 96.9475 34.711 98.4211 33.7425C98.5575 33.624 98.7334 33.5586 98.9157 33.5586C99.0979 33.5586 99.2739 33.624 99.4103 33.7425C101.097 35.6421 101.959 38.1138 101.81 40.6286C101.715 41.4838 101.474 42.3171 101.097 43.0936L100.708 43.9205L101.567 43.5707C106.839 41.3044 112.699 40.7041 118.335 41.8531C122.786 43.0078 126.69 45.6445 129.378 49.3117Z" fill="#E7E7E7"/>
<path d="M79.7725 77.9797C78.8882 77.7032 77.9578 77.5955 77.032 77.6624L78.005 77.9321C79.3963 78.7341 80.6909 79.6867 81.8644 80.7721L80.7293 80.4389C79.7077 80.1216 76.2212 78.535 74.8915 77.948C74.8215 77.4213 74.8215 76.8881 74.8915 76.3614C75.0536 75.7585 74.405 76.8215 74.2104 77.6465C73.5149 77.5218 72.8094 77.4581 72.1023 77.4561C72.8646 78.076 73.6971 78.6083 74.5833 79.0427C74.4618 79.975 74.5295 80.9217 74.7828 81.8283C75.036 82.735 75.4697 83.5837 76.059 84.326C76.059 84.326 74.7455 85.1828 74.5509 86.1188C74.5509 86.1188 74.632 86.3568 74.859 86.1188C75.7866 85.5043 76.8573 85.1278 77.9725 85.0241C79.2741 85.0653 80.566 84.7929 81.7347 84.2308C82.2832 83.946 82.777 83.5702 83.1941 83.1202C83.4212 83.1202 85.3671 83.2154 86.7455 83.3582C87.6959 83.4279 88.6443 83.2001 89.4536 82.7077C88.7527 82.6513 88.0613 82.5128 87.3941 82.2952C86.5671 81.9144 80.8914 78.4557 79.7725 77.9797ZM76.7563 83.977C76.7563 83.977 76.7563 83.8183 76.4482 83.3582C76.9116 82.4098 77.171 81.3784 77.2104 80.3278C77.22 80.2914 77.22 80.2532 77.2104 80.2168L78.4104 80.6452C78.4582 81.296 78.3306 81.9477 78.0403 82.5351C77.7501 83.1226 77.3073 83.6252 76.7563 83.9928V83.977ZM81.0374 83.7707C80.0981 84.0648 79.0946 84.1032 78.1347 83.8818C78.6968 82.9558 78.9885 81.8966 78.9779 80.8197C80.1763 81.1068 81.3318 81.5441 82.4158 82.1207C82.5595 82.2779 82.6402 82.4809 82.6428 82.6918C82.2062 83.1786 81.6552 83.5543 81.0374 83.7866V83.7707ZM118.335 41.79C112.669 40.6495 106.782 41.2593 101.486 43.5352C101.879 42.726 102.126 41.8565 102.216 40.965C102.338 38.3799 101.432 35.849 99.686 33.9047C99.5 33.7081 99.246 33.5862 98.9732 33.5627C98.7004 33.5393 98.4285 33.6159 98.2103 33.7778C96.6926 34.7787 95.5076 36.1925 94.8016 37.8447C94.0956 39.4969 93.8994 41.3152 94.2374 43.0751C89.951 39.8021 84.7598 37.8623 79.3347 37.5063C73.5108 37.4049 67.8491 39.3849 63.4104 43.0751C63.5485 41.5416 63.2392 40.0012 62.5185 38.6327C61.1633 36.3981 58.9696 34.7699 56.405 34.0951C56.1408 34.0324 55.8623 34.0674 55.6229 34.1933C55.3834 34.3192 55.2 34.5272 55.1077 34.7774C54.3554 36.5467 54.1855 38.5013 54.6214 40.3695C55.0574 42.2377 56.0776 43.9266 57.5401 45.2011C57.5409 45.3852 57.5912 45.5658 57.6861 45.7247L65.5671 59.5755C65.859 64.478 66.459 65.779 66.8482 66.2232C66.9429 67.2092 67.0945 68.1892 67.3023 69.1584C67.1319 69.371 66.9748 69.5935 66.832 69.8247C66.2478 70.9679 66.0061 72.2495 66.1347 73.5215C66.2786 74.8695 66.6059 76.1928 67.1077 77.4561C67.3194 77.9227 67.4719 78.4129 67.5617 78.9158C67.5467 80.157 67.0746 81.3513 66.232 82.2793C65.0562 83.9112 64.0614 85.661 63.2644 87.4992C63.0536 87.9434 62.8266 88.4194 62.5996 88.8636C62.2768 89.5087 61.8797 90.1156 61.4158 90.6723C60.7286 91.2978 60.2659 92.1234 60.0965 93.0266C59.9271 93.9298 60.0599 94.8624 60.4753 95.6859C60.9508 96.4688 61.5997 97.1375 62.3743 97.6427C63.1488 98.1479 64.0293 98.4768 64.9509 98.6052C65.5172 98.7323 66.0629 98.9352 66.5725 99.2081C66.7759 100.152 66.6503 101.135 66.2158 102C66.0659 102.313 66.0243 102.665 66.0975 103.003C66.1707 103.341 66.3545 103.646 66.6212 103.873C66.8938 104.661 67.3488 105.378 67.9509 105.967C67.6766 106.461 67.5508 107.022 67.5881 107.583C67.6254 108.145 67.8243 108.684 68.1617 109.14C68.2043 109.223 68.2531 109.302 68.3077 109.378C68.9536 110.207 69.2548 111.244 69.1509 112.281C68.9077 113.281 67.3671 114.566 65.032 115.708C63.0471 117.004 61.5405 118.89 60.7347 121.087C60.2967 122.499 59.4036 123.735 58.1888 124.609C57.4622 125.19 56.5484 125.499 55.6104 125.482C54.7468 125.24 53.9767 124.751 53.3989 124.079C52.821 123.406 52.4618 122.58 52.3672 121.706C52.2929 121.236 52.3225 120.757 52.454 120.3C52.5855 119.843 52.8158 119.419 53.1293 119.056C53.4464 118.695 53.8397 118.407 54.2821 118.209C54.7245 118.012 55.2053 117.911 55.6915 117.914C56.1122 117.887 56.5337 117.952 56.9261 118.102C57.3185 118.253 57.6721 118.487 57.9618 118.786C58.4059 119.245 58.6551 119.852 58.659 120.484C58.6308 120.992 58.438 121.478 58.1086 121.872C57.7791 122.265 57.3301 122.546 56.8266 122.673C56.6482 122.74 56.4576 122.771 56.2667 122.763C56.0758 122.755 55.8886 122.708 55.7168 122.626C55.5449 122.545 55.3921 122.429 55.2678 122.287C55.1435 122.145 55.0504 121.98 54.9942 121.801C54.9739 121.685 54.9778 121.566 55.0056 121.451C55.0335 121.337 55.0848 121.229 55.1564 121.134C55.2038 121.057 55.27 120.991 55.3491 120.944C55.4283 120.897 55.518 120.87 55.6104 120.865C56.0482 120.865 56.1455 121.008 56.1618 121.023L57.2158 120.69C57.0712 120.397 56.8381 120.155 56.548 119.996C56.2579 119.837 55.925 119.769 55.5942 119.802C55.3304 119.816 55.0734 119.89 54.843 120.016C54.6126 120.143 54.4147 120.319 54.2645 120.532C54.1022 120.76 53.991 121.019 53.9379 121.293C53.8848 121.566 53.8911 121.847 53.9564 122.118C54.0549 122.436 54.2186 122.731 54.4374 122.984C54.6563 123.238 54.9257 123.445 55.2292 123.594C55.5327 123.742 55.864 123.829 56.2027 123.848C56.5415 123.867 56.8807 123.818 57.1996 123.705C57.8225 123.525 58.3817 123.179 58.8143 122.705C59.247 122.232 59.5358 121.649 59.6482 121.023V121.214C59.6547 121.161 59.6547 121.108 59.6482 121.055C59.854 120.444 59.9102 119.795 59.8125 119.159C59.7148 118.522 59.4659 117.918 59.0857 117.393C58.7055 116.868 58.2047 116.438 57.6237 116.137C57.0426 115.836 56.3974 115.673 55.7401 115.661H55.578C54.7719 115.669 53.9776 115.851 53.2516 116.194C52.5257 116.536 51.8859 117.032 51.378 117.644C50.8639 118.246 50.4855 118.947 50.2675 119.701C50.0496 120.456 49.997 121.247 50.1131 122.023C50.3029 123.166 50.7578 124.252 51.4428 125.196C29.8591 130.781 16.7888 140.459 12.6213 143.918V165.241C12.6119 166.267 12.9418 167.269 13.5618 168.097C13.9626 167.664 14.5013 167.377 15.0901 167.282C15.679 167.187 16.2835 167.29 16.8051 167.573L19.6915 170.001H124.513C125.803 170.001 127.041 169.499 127.953 168.607C128.865 167.714 129.378 166.504 129.378 165.241V131.669L125.713 135.89L122.275 127.846H125.016L126.783 131.923L129.378 128.449V123.038V121.579C128.728 122.243 127.928 122.748 127.043 123.054C127.656 122.602 128.202 122.068 128.664 121.468C128.957 121.084 129.142 120.777 129.378 120.358V117.333C129.067 118.625 128.569 119.754 127.756 120.817C127 121.811 125.963 122.567 124.772 122.991C125.394 122.548 125.941 122.012 126.394 121.404C127.301 120.233 127.939 118.883 128.264 117.449C128.588 116.014 128.592 114.527 128.275 113.091C127.417 109.46 126.256 105.905 124.805 102.461C122.389 96.2729 120.102 90.4184 121.27 83.4217H122.47C121.318 90.5612 123.637 96.5109 126.086 102.794C127.474 106.239 128.574 109.789 129.378 113.408V109.203C128.664 106.919 127.756 104.713 126.978 102.572C124.562 96.3681 122.275 90.4978 123.459 83.5327H124.659C123.475 90.7199 125.794 96.6854 128.259 103L129.378 105.872V102.794C129.378 102.794 129.378 102.635 129.378 102.572C126.945 96.3522 124.659 90.466 125.859 83.5327C125.857 83.5063 125.857 83.4798 125.859 83.4534L127.059 83.3582C126.021 89.403 127.412 94.466 129.374 99.7176V96.3635C127.869 92.2051 127.497 87.8644 128.162 83.501V83.1995L129.378 83.0726V83.3106C128.873 86.1451 128.873 89.0436 129.378 91.8781V49.0406C126.666 45.4843 122.802 42.9336 118.416 41.8059L118.335 41.79ZM24.2807 163.29C23.7691 164.796 23.1233 166.256 22.351 167.653C22.3295 167.738 22.2895 167.818 22.2339 167.887C22.1783 167.956 22.1082 168.013 22.0284 168.054C21.9486 168.094 21.8609 168.118 21.7711 168.122C21.6813 168.127 21.5916 168.113 21.5078 168.081C21.5078 168.081 18.4105 166.495 18.1348 166.352C17.5408 166.043 17.0836 165.531 16.8504 164.914C16.6171 164.296 16.6241 163.617 16.8699 163.004C17.0592 162.443 17.4392 161.962 17.9467 161.642C18.4542 161.321 19.0585 161.181 19.6591 161.243L23.778 162.56C23.9377 162.607 24.0754 162.708 24.1672 162.844C24.2591 162.98 24.2992 163.143 24.2807 163.306V163.29ZM25.1726 159.577C25.1819 159.665 25.1719 159.754 25.1433 159.837C25.1146 159.921 25.068 159.998 25.0066 160.062C24.9452 160.127 24.8703 160.178 24.7871 160.212C24.7038 160.246 24.6141 160.262 24.524 160.259C24.524 160.259 21.0699 159.783 20.7618 159.783C20.0971 159.698 19.4881 159.375 19.0513 158.877C18.6144 158.38 18.3805 157.742 18.3943 157.086C18.3714 156.493 18.5568 155.909 18.9196 155.433C19.2825 154.957 19.8009 154.616 20.3888 154.468L24.7186 154.31C24.8855 154.302 25.05 154.351 25.1834 154.45C25.3167 154.549 25.4105 154.69 25.4483 154.849C25.4984 156.435 25.4061 158.023 25.1726 159.593V159.577ZM24.7186 152.549H20.0159C18.297 152.184 19.1078 151.248 19.1078 151.248L23.8429 147.662C23.8429 147.662 24.3618 147.234 24.6375 147.662C25.1849 149.01 25.5079 150.434 25.5942 151.882C25.5942 152.549 24.7186 152.549 24.7186 152.549ZM114.216 83.501C114.223 83.4059 114.223 83.3105 114.216 83.2154L115.367 83.3741C114.135 90.6088 116.47 96.6061 118.951 102.952C120.389 106.355 121.539 109.868 122.389 113.455C122.675 114.732 122.678 116.054 122.398 117.332C122.118 118.61 121.562 119.815 120.767 120.865C120.015 121.856 118.984 122.612 117.799 123.038C118.413 122.586 118.959 122.052 119.421 121.452C120.31 120.284 120.934 118.944 121.253 117.521C121.572 116.099 121.577 114.626 121.27 113.202C120.406 109.571 119.24 106.016 117.783 102.572C115.318 96.3522 113.016 90.466 114.216 83.501ZM110.243 127.528L113.486 127.608L115.627 130.003L117.054 127.703L120.459 127.798L116.145 134.525C116.145 134.525 116.145 134.525 116.032 134.525C115.918 134.525 115.675 134.525 115.237 133.875C114.378 132.732 111.378 128.956 110.243 127.528ZM114.151 138.269H112.999L111.621 136.683L111.378 138.269H110.356L111.005 134.652L114.151 138.269ZM111.913 83.501C111.95 83.2648 112.004 83.0315 112.075 82.8029L113.194 83.025C113.194 83.1202 113.194 83.2154 113.194 83.3106C111.945 90.5771 114.297 96.5902 116.778 102.952C118.202 106.36 119.351 109.872 120.216 113.455C120.502 114.732 120.505 116.054 120.225 117.332C119.945 118.61 119.389 119.815 118.594 120.865C117.838 121.859 116.8 122.614 115.61 123.038C116.199 122.585 116.718 122.05 117.151 121.452C118.058 120.28 118.696 118.931 119.02 117.496C119.345 116.061 119.349 114.575 119.032 113.138C118.167 109.51 117.006 105.955 115.562 102.508C112.999 96.3522 110.713 90.466 111.913 83.501ZM109.594 83.501C109.66 83.0791 109.769 82.6646 109.918 82.2635C110.259 82.3745 110.616 82.4539 110.972 82.549C110.898 82.7992 110.838 83.0535 110.794 83.3106C109.529 90.5771 111.881 96.5902 114.362 102.952C115.8 106.355 116.95 109.868 117.799 113.455C118.085 114.732 118.089 116.054 117.809 117.332C117.529 118.61 116.973 119.815 116.178 120.865C115.413 121.864 114.364 122.62 113.162 123.038C113.775 122.586 114.321 122.052 114.783 121.452C115.687 120.278 116.322 118.929 116.646 117.495C116.971 116.061 116.977 114.575 116.664 113.138C115.792 109.529 114.621 105.995 113.162 102.572C110.697 96.3522 108.394 90.466 109.594 83.501ZM107.291 83.501C107.403 82.8612 107.611 82.2411 107.908 81.6606L108.881 81.962C108.713 82.3989 108.588 82.8505 108.508 83.3106C107.259 90.5771 109.594 96.5902 112.091 102.952C113.517 106.358 114.661 109.871 115.513 113.455C115.803 114.732 115.809 116.055 115.529 117.333C115.249 118.612 114.69 119.817 113.891 120.865C113.135 121.859 112.098 122.614 110.908 123.038C111.525 122.591 112.072 122.056 112.529 121.452C113.436 120.28 114.074 118.931 114.399 117.496C114.723 116.061 114.727 114.575 114.41 113.138C113.545 109.51 112.384 105.955 110.94 102.508C108.378 96.3522 106.091 90.466 107.291 83.501ZM105.978 80.9942L106.854 81.3115C106.536 81.9423 106.317 82.6162 106.205 83.3106C104.94 90.5771 107.291 96.5902 109.772 102.952C111.194 106.357 112.328 109.869 113.162 113.455C113.44 114.725 113.44 116.038 113.16 117.307C112.881 118.576 112.328 119.773 111.54 120.817C110.784 121.811 109.746 122.567 108.556 122.991C109.173 122.542 109.719 122.008 110.178 121.404C111.081 120.231 111.717 118.881 112.041 117.447C112.366 116.013 112.372 114.527 112.059 113.091C111.196 109.46 110.029 105.905 108.572 102.461C106.14 96.2412 103.854 90.355 105.054 83.4217C105.205 82.5634 105.518 81.7402 105.978 80.9942ZM103.691 142.442C103.335 142.775 102.945 143.108 102.524 143.458L101.81 139.015L105.589 140.602C105.329 140.856 105.037 141.141 104.713 141.427L103.432 140.919L103.691 142.442ZM105.135 136.445C103.902 135.81 99.0698 133.145 97.9509 132.526C98.4698 131.923 98.9725 131.304 99.459 130.654L104.113 132.875L106.156 127.417L108.735 127.497L105.881 136.397C105.872 136.434 105.872 136.472 105.881 136.508C105.886 136.545 105.886 136.583 105.881 136.619C105.619 136.644 105.357 136.582 105.135 136.445ZM95.1293 148.931L93.9293 149.709L93.7022 145.203L97.4806 147.297L96.313 148.106L95.032 147.265L95.1293 148.931ZM91.3671 138.856C92.0157 138.349 92.6644 137.809 93.2968 137.27L95.486 138.269L95.1779 135.509C95.7941 134.906 96.4103 134.271 97.0103 133.605L98.2914 142.585L91.3671 138.856ZM104.924 80.6134C104.416 81.4448 104.065 82.3582 103.886 83.3106C102.637 90.5771 104.972 96.5902 107.454 102.952C108.892 106.355 110.042 109.868 110.891 113.455C111.182 114.732 111.187 116.055 110.907 117.333C110.627 118.612 110.069 119.817 109.27 120.865C108.513 121.859 107.476 122.614 106.286 123.038C106.899 122.586 107.445 122.052 107.908 121.452C108.815 120.28 109.452 118.931 109.777 117.496C110.102 116.061 110.106 114.575 109.789 113.138C108.923 109.51 107.763 105.955 106.318 102.508C103.886 96.2888 101.6 90.4026 102.8 83.4693C103.02 82.3126 103.52 81.2245 104.259 80.2961L104.924 80.6134ZM102.005 79.4552L103.075 79.8995C102.319 80.9107 101.809 82.0773 101.583 83.3106C100.318 90.5771 102.67 96.5902 105.151 102.952C106.582 106.358 107.732 109.87 108.589 113.455C108.875 114.732 108.878 116.054 108.598 117.332C108.318 118.61 107.762 119.815 106.967 120.865C106.413 121.624 105.683 122.245 104.838 122.678C103.993 123.111 103.056 123.343 102.102 123.356C102.012 123.332 101.917 123.332 101.827 123.356C101.413 123.232 101.011 123.073 100.627 122.88C101.664 122.783 102.669 122.475 103.578 121.975C104.619 121.42 105.516 120.64 106.202 119.694C106.887 118.749 107.343 117.662 107.535 116.518C108.086 113.455 106.805 110.33 105.654 107.569C105.443 107.03 105.216 106.49 105.021 105.983C102.951 100.928 101.429 95.6737 100.481 90.3074C99.6629 86.6274 100.203 82.783 102.005 79.4552ZM60.1185 125.164C61.2675 124.363 62.1659 123.264 62.7131 121.991C63.3133 120.216 64.4429 118.658 65.9563 117.517C68.0806 116.486 70.7239 114.804 71.259 112.662C71.5055 111.325 71.2523 109.945 70.5455 108.775C70.9543 108.745 71.3469 108.607 71.6812 108.375C72.0155 108.143 72.2788 107.826 72.4428 107.458C71.8961 107.795 71.2714 107.991 70.6266 108.029C70.5089 108.037 70.391 108.019 70.281 107.978C70.171 107.936 70.0717 107.871 69.9899 107.788C69.908 107.705 69.8457 107.606 69.8072 107.497C69.7688 107.388 69.7551 107.272 69.7671 107.157C69.7864 106.971 69.8447 106.792 69.9384 106.63C70.032 106.467 70.1591 106.326 70.3114 106.214C70.4638 106.102 70.6382 106.023 70.8236 105.98C71.009 105.938 71.2015 105.933 71.3888 105.967C72.4299 106.027 73.4593 106.214 74.4536 106.522C75.6212 106.951 76.8212 106.76 77.032 106.221C76.0669 106.179 75.1313 105.883 74.3239 105.364C72.9646 104.324 71.4705 103.465 69.8806 102.81C69.3464 102.69 68.8047 102.605 68.259 102.556C68.9156 101.147 68.9911 99.5439 68.4698 98.0816C67.9509 97.0979 66.7509 96.7647 65.4698 96.495C64.1888 96.2253 62.8753 95.7969 62.3888 94.7974C61.9023 93.7978 62.2266 93.0997 63.0699 92.0526C63.6339 91.3956 64.1182 90.6768 64.5131 89.9107L65.1942 88.5146C65.9132 86.8468 66.7985 85.2525 67.8374 83.7548C69.0881 82.3659 69.7443 80.5592 69.6698 78.7095C69.555 78.0508 69.3647 77.4068 69.1023 76.7898C68.6604 75.7067 68.3713 74.5698 68.2428 73.4104C68.1857 72.1908 68.5898 70.9934 69.3779 70.0469C73.5731 69.8018 77.7802 70.2633 81.8158 71.4113C88.0428 72.9979 94.4482 76.2662 101.016 79.0903C99.121 82.6337 98.5476 86.7124 99.3941 90.6247C100.353 96.0556 101.892 101.373 103.983 106.49C104.178 107.014 104.405 107.553 104.632 108.077C105.767 110.838 106.951 113.678 106.448 116.438C106.279 117.443 105.875 118.397 105.268 119.224C104.66 120.051 103.865 120.73 102.946 121.208C102.026 121.685 101.006 121.949 99.9653 121.977C98.9245 122.006 97.8911 121.799 96.9455 121.372C95.4661 120.744 94.3004 119.569 93.7022 118.104C93.0589 116.58 93.0589 114.869 93.7022 113.344C94.1322 112.376 94.8022 111.528 95.6517 110.877C96.5011 110.226 97.5032 109.792 98.5671 109.616C99.3937 109.482 100.242 109.567 101.023 109.863C101.805 110.159 102.491 110.654 103.01 111.298C103.625 112.06 104.008 112.976 104.117 113.94C104.226 114.905 104.056 115.88 103.627 116.756C103.261 117.542 102.669 118.207 101.923 118.669C101.177 119.131 100.309 119.37 99.4265 119.358C98.5513 119.348 97.7041 119.054 97.0174 118.523C96.3308 117.992 95.8435 117.253 95.632 116.422C95.3949 115.668 95.4262 114.857 95.7207 114.122C96.0152 113.388 96.5556 112.772 97.2536 112.377C97.7242 112.078 98.2734 111.918 98.8347 111.918C99.3959 111.918 99.9451 112.078 100.416 112.377C100.92 112.661 101.337 113.074 101.623 113.571C101.908 114.068 102.051 114.631 102.037 115.201C101.98 115.631 101.796 116.035 101.508 116.364C101.22 116.694 100.841 116.935 100.416 117.057C100.001 117.208 99.5482 117.231 99.1193 117.123C98.6904 117.015 98.3053 116.782 98.0157 116.454C97.7616 116.191 97.6069 115.851 97.5775 115.49C97.548 115.13 97.6454 114.77 97.8536 114.471C97.9698 114.264 98.1454 114.095 98.3587 113.985C98.572 113.875 98.8136 113.829 99.0536 113.852C99.2738 113.87 99.4855 113.943 99.6676 114.066C99.8497 114.188 99.9958 114.355 100.091 114.55C100.136 114.691 100.136 114.842 100.093 114.983C100.049 115.124 99.9643 115.25 99.8482 115.343C99.7452 115.445 99.6873 115.582 99.6873 115.724C99.6873 115.867 99.7452 116.004 99.8482 116.105C99.8982 116.157 99.9585 116.198 100.025 116.226C100.092 116.255 100.164 116.269 100.237 116.269C100.31 116.269 100.382 116.255 100.449 116.226C100.516 116.198 100.577 116.157 100.627 116.105C100.891 115.867 101.078 115.558 101.165 115.217C101.251 114.875 101.233 114.517 101.113 114.185C100.937 113.796 100.655 113.461 100.298 113.217C99.9413 112.973 99.5229 112.829 99.0884 112.801C98.6539 112.773 98.2199 112.863 97.8336 113.059C97.4472 113.255 97.1233 113.552 96.8968 113.916C96.5818 114.396 96.4294 114.961 96.4614 115.53C96.4935 116.1 96.7082 116.645 97.0752 117.089C97.5097 117.595 98.0948 117.955 98.7489 118.12C99.403 118.285 100.093 118.246 100.724 118.009C101.34 117.82 101.887 117.46 102.299 116.973C102.71 116.486 102.969 115.892 103.043 115.264C103.092 114.505 102.929 113.746 102.572 113.07C102.215 112.394 101.677 111.825 101.016 111.425C100.372 111.02 99.6237 110.805 98.859 110.805C98.0942 110.805 97.3456 111.02 96.7022 111.425C95.7885 111.936 95.0784 112.735 94.6869 113.691C94.2954 114.647 94.2456 115.705 94.5455 116.692C94.8214 117.752 95.4484 118.693 96.3285 119.367C97.2086 120.042 98.2923 120.412 99.4103 120.421C100.497 120.435 101.566 120.144 102.489 119.581C103.412 119.019 104.15 118.209 104.616 117.247C105.124 116.186 105.322 115.007 105.188 113.842C105.053 112.677 104.591 111.571 103.854 110.647C103.226 109.845 102.388 109.225 101.428 108.853C100.468 108.482 99.4233 108.372 98.4049 108.537C97.432 108.682 96.4978 109.014 95.6562 109.513C94.8145 110.012 94.0819 110.669 93.5003 111.446C92.9188 112.223 92.4997 113.104 92.2672 114.04C92.0347 114.976 91.9933 115.947 92.1455 116.898C91.7388 117.695 91.2439 118.445 90.6698 119.135C90.5491 118.013 90.3266 116.903 90.0049 115.819C89.9829 115.752 89.9473 115.689 89.9002 115.634C89.8531 115.58 89.7955 115.535 89.7307 115.503C89.6658 115.47 89.5951 115.451 89.5225 115.445C89.4498 115.44 89.3768 115.448 89.3076 115.47C89.2389 115.49 89.1748 115.523 89.1194 115.568C89.064 115.613 89.0183 115.667 88.985 115.73C88.9517 115.792 88.9315 115.86 88.9257 115.93C88.9198 116 88.9284 116.07 88.9509 116.137C89.3362 117.473 89.5754 118.845 89.6644 120.23C89.2323 120.65 88.7776 121.047 88.3022 121.42C88.3185 120.067 88.1881 118.716 87.9131 117.39C87.8699 117.263 87.7799 117.156 87.6606 117.09C87.5413 117.024 87.4011 117.004 87.2675 117.034C87.1339 117.064 87.0164 117.141 86.9379 117.251C86.8593 117.361 86.8254 117.495 86.8428 117.628C87.1209 119.14 87.2297 120.678 87.1671 122.213C86.7131 122.515 86.2266 122.8 85.6914 123.086C85.8465 121.657 85.8465 120.216 85.6914 118.786C85.6868 118.712 85.6663 118.639 85.6313 118.572C85.5963 118.506 85.5475 118.447 85.4881 118.4C85.4287 118.353 85.36 118.319 85.2862 118.299C85.2125 118.279 85.1353 118.275 85.0597 118.286C84.9841 118.297 84.9117 118.323 84.847 118.363C84.7823 118.403 84.7269 118.455 84.6841 118.517C84.6413 118.579 84.6122 118.65 84.5986 118.723C84.585 118.797 84.5871 118.872 84.6049 118.945C84.7604 120.53 84.7278 122.127 84.5077 123.705C84.0212 123.927 83.5185 124.133 82.886 124.323C83.1711 122.913 83.3016 121.477 83.2752 120.04C83.2752 119.897 83.2171 119.759 83.1137 119.658C83.0103 119.557 82.8701 119.5 82.7239 119.5C82.5776 119.5 82.4374 119.557 82.334 119.658C82.2306 119.759 82.1725 119.897 82.1725 120.04C82.1882 121.598 82.0195 123.152 81.6698 124.673C81.1833 124.831 80.6644 124.974 80.0482 125.117C80.4425 123.771 80.6872 122.388 80.7779 120.992C80.7824 120.847 80.729 120.706 80.629 120.6C80.529 120.493 80.3905 120.429 80.2428 120.421C80.1704 120.418 80.0982 120.43 80.0305 120.455C79.9628 120.481 79.9008 120.519 79.8481 120.567C79.7954 120.616 79.753 120.674 79.7233 120.739C79.6937 120.803 79.6773 120.873 79.6752 120.944C79.5588 122.457 79.2705 123.952 78.8158 125.402L77.1941 125.688C77.6774 124.426 78.0252 123.118 78.232 121.785C78.241 121.714 78.2356 121.642 78.2159 121.573C78.1963 121.504 78.1629 121.44 78.1176 121.384C78.0724 121.328 78.0161 121.281 77.9523 121.246C77.8884 121.212 77.8181 121.19 77.7455 121.182C77.6016 121.164 77.4562 121.202 77.3408 121.288C77.2254 121.374 77.1494 121.502 77.1293 121.642C76.9008 123.089 76.5036 124.505 75.9455 125.862L74.3239 126.021C74.9606 124.869 75.4768 123.657 75.8644 122.404C75.8934 122.265 75.8654 122.121 75.7865 122.002C75.7076 121.883 75.5842 121.8 75.4428 121.769C75.299 121.74 75.1494 121.767 75.0254 121.844C74.9014 121.921 74.8127 122.042 74.7779 122.182C74.4375 123.56 73.937 124.896 73.286 126.164C72.7671 126.164 72.232 126.164 71.6644 126.164C72.3137 125.068 72.8566 123.916 73.286 122.721C73.3263 122.584 73.3097 122.438 73.2398 122.313C73.1699 122.188 73.0525 122.095 72.9131 122.055C72.845 122.033 72.773 122.024 72.7016 122.03C72.6301 122.036 72.5605 122.055 72.497 122.088C72.4334 122.121 72.3772 122.165 72.3317 122.22C72.2862 122.274 72.2523 122.336 72.232 122.404C71.7603 123.72 71.1517 124.985 70.4158 126.18H68.7942C69.5227 125.147 70.1473 124.047 70.659 122.896C70.7149 122.763 70.7147 122.614 70.6585 122.482C70.6022 122.349 70.4945 122.244 70.359 122.19C70.2235 122.135 70.0714 122.135 69.9361 122.19C69.8008 122.245 69.6933 122.351 69.6374 122.483C69.0548 123.767 68.3317 124.985 67.4807 126.116C66.9455 126.116 66.378 126.116 65.859 126.005C66.6982 125.02 67.4368 123.958 68.0644 122.832C68.0974 122.769 68.1173 122.699 68.123 122.628C68.1286 122.557 68.1199 122.486 68.0973 122.418C68.0747 122.35 68.0387 122.287 67.9913 122.233C67.944 122.179 67.8861 122.135 67.8212 122.102C67.7562 122.07 67.6854 122.051 67.6128 122.045C67.5401 122.039 67.4671 122.048 67.3978 122.07C67.3286 122.092 67.2644 122.127 67.2091 122.174C67.1537 122.22 67.1083 122.277 67.0753 122.34C66.3598 123.62 65.5004 124.817 64.5131 125.91L62.7617 125.72C63.7677 124.759 64.6648 123.695 65.4374 122.547C65.476 122.486 65.502 122.419 65.514 122.349C65.5259 122.279 65.5235 122.207 65.5069 122.137C65.4904 122.068 65.4599 122.003 65.4174 121.945C65.3748 121.887 65.321 121.838 65.259 121.801C65.1334 121.729 64.9842 121.706 64.8423 121.739C64.7004 121.771 64.5767 121.856 64.4969 121.975C63.5804 123.304 62.4962 124.514 61.2699 125.577L60.0699 125.402C60.077 125.322 60.0933 125.242 60.1185 125.164ZM83.5347 143.886C84.0698 143.6 84.6212 143.315 85.1563 142.997L87.9455 144.79V141.347C88.5941 140.914 89.2428 140.47 89.8914 140.015V148.201L83.5347 143.886ZM87.9455 153.136L87.0212 153.612L85.9347 152.723V154.183L84.9293 154.675L85.2698 151.184L87.9455 153.136ZM74.0806 147.678L76.1077 147.027L78.8644 149.471L79.5617 145.726C80.4212 145.377 81.2806 144.997 82.1725 144.568L80.5509 153.183L74.0806 147.678ZM78.3131 157.546L76.8536 158.102L75.232 156.848L74.9887 158.752L73.5455 159.26L74.5347 154.183L78.3131 157.546ZM64.6266 144.616C62.3154 138.626 59.3925 132.88 55.9023 127.465L57.2482 127.132C60.8786 132.412 63.7845 138.135 65.8915 144.156L64.6266 144.616ZM66.378 149.534L66.6698 149.28C66.6698 149.28 67.2698 149.28 68.2915 149.058L69.7996 150.423L70.5131 148.63L72.1347 148.233L70.5131 153.294L66.378 149.534ZM119.129 168.414H72.232V167.034H119.486L119.129 168.414ZM122.794 138.269H121.756L120.783 136.255L119.648 138.269H118.416L120.897 134.224L122.794 138.269ZM120.102 123.038C120.724 122.595 121.271 122.06 121.724 121.452C122.631 120.28 123.269 118.931 123.593 117.496C123.918 116.061 123.922 114.575 123.605 113.138C122.74 109.51 121.579 105.955 120.135 102.508C117.702 96.2888 115.416 90.4026 116.616 83.4693H117.799C116.632 90.6247 118.951 96.5743 121.416 102.873C122.84 106.281 123.989 109.793 124.854 113.376C125.139 114.653 125.143 115.975 124.863 117.253C124.583 118.531 124.027 119.735 123.232 120.785C122.448 121.832 121.356 122.618 120.102 123.038ZM123.637 102.952C125.076 106.355 126.226 109.868 127.075 113.455C127.364 114.732 127.369 116.054 127.089 117.333C126.81 118.611 126.252 119.816 125.454 120.865C124.702 121.856 123.67 122.612 122.486 123.038C123.099 122.586 123.645 122.052 124.108 121.452C125.011 120.278 125.646 118.929 125.971 117.495C126.295 116.061 126.301 114.575 125.989 113.138C125.125 109.508 123.959 105.952 122.502 102.508C120.086 96.3046 117.816 90.4502 118.983 83.4693H120.167C118.886 90.6723 121.27 96.6695 123.637 102.952ZM71.7131 93.8454C71.7952 92.8832 71.5438 91.922 70.9996 91.1165C70.7725 90.7516 72.8482 91.7829 72.6212 93.544C72.565 94.0428 72.3888 94.5214 72.1069 94.9406C71.825 95.3599 71.4455 95.7077 70.9996 95.9556C71.4475 95.3377 71.696 94.6028 71.7131 93.8454ZM70.3996 72.6488C70.3023 71.57 71.6482 71.2527 72.0212 71.2527C75.328 71.2948 78.6089 71.8298 81.7509 72.8392C84.4016 74.0109 86.8693 75.544 89.0806 77.3927C88.4184 77.5791 87.7158 77.5791 87.0536 77.3927C86.3563 77.0278 82.8049 74.4099 79.0428 74.2195C75.2806 74.0292 71.486 73.9498 71.486 73.9498C71.1771 73.8874 70.8999 73.7219 70.7018 73.4818C70.5036 73.2416 70.3968 72.9416 70.3996 72.633V72.6488ZM79.5941 105.094C77.2266 104.19 72.1023 99.3191 69.6536 100.335C69.6555 100.009 69.7244 99.687 69.8561 99.388C69.9878 99.0889 70.1796 98.8189 70.4202 98.5939C70.6608 98.3688 70.9451 98.1935 71.2564 98.0782C71.5677 97.963 71.8994 97.9102 72.232 97.9229C74.7455 97.9229 77.0969 100.779 77.8104 101.524C78.5239 102.27 80.7293 104.951 81.8968 104.761C83.0644 104.571 81.9617 105.983 79.5941 105.094ZM69.1996 95.1623C69.0698 95.8445 69.1996 95.5272 68.4212 94.7974C67.6428 94.0676 65.8428 94.3531 65.3401 94.2421C64.8374 94.131 65.9401 93.2267 67.3671 93.3219C68.7942 93.4171 69.1996 95.1623 69.1996 95.1623Z" fill="#24242E"/>
<path d="M48.5517 145.903C48.1624 146.696 47.9603 147.566 47.9603 148.447C47.9603 149.327 48.1624 150.197 48.5517 150.991C48.5517 150.991 51.0459 156.663 52.1401 158.939C53.2343 161.214 54.9721 162.873 58.11 162.352C58.3352 163.205 58.5444 164.074 58.7536 164.959C57.9398 165.391 57.2695 166.044 56.8227 166.839C56.4051 167.839 56.2556 168.927 56.3882 170H54.071C46.7495 148.715 35.2603 136.817 33.3454 134.952L35.9522 133.814C37.8671 136.153 40.2003 138.966 40.2003 138.966C40.2003 138.966 42.3405 142.015 48.6644 141.051C49.0505 141.668 49.5816 142.537 50.2735 143.643C49.4793 144.207 48.8787 144.995 48.5517 145.903ZM57.4502 37.0781C57.0394 38.6125 57.1558 40.2372 57.7813 41.7C58.4069 43.1629 59.5066 44.3821 60.9098 45.1684L61.4087 45.358C61.9716 43.6752 61.8623 41.8451 61.1029 40.2384C60.2743 38.8177 58.9899 37.7064 57.4502 37.0781ZM56.002 146.298C55.5516 145.827 54.9507 145.521 54.2992 145.433C53.6476 145.344 52.9847 145.476 52.4206 145.809C51.8566 146.141 51.4253 146.653 51.1987 147.259C50.972 147.866 50.9635 148.53 51.1746 149.142C52.0918 151.844 54.7469 156.726 55.294 158.038C55.652 158.564 56.1803 158.957 56.7935 159.152C57.4067 159.347 58.0689 159.333 58.6732 159.113C59.047 158.971 59.3873 158.756 59.6732 158.481C59.9591 158.206 60.1844 157.876 60.3352 157.511C60.486 157.147 60.5591 156.756 60.55 156.363C60.5409 155.97 60.4498 155.583 60.2823 155.225C59.1158 152.136 57.6839 149.149 56.002 146.298ZM64.2086 168.672C63.9947 168.066 63.5728 167.551 63.015 167.217C62.4571 166.883 61.7983 166.749 61.1512 166.839C59.7513 167.013 59.6386 168.688 59.6386 168.688L59.7795 170H64.6446C64.5253 169.528 64.4105 169.132 64.2086 168.688V168.672ZM129.378 136.912V133.483L125.999 137.401C125.934 137.47 125.854 137.523 125.765 137.556C125.675 137.589 125.579 137.601 125.484 137.591C125.393 137.572 125.307 137.532 125.235 137.474C125.162 137.416 125.104 137.343 125.066 137.259L121.413 128.647L117.165 135.237C117.047 135.372 116.898 135.479 116.73 135.547C116.563 135.616 116.381 135.645 116.2 135.632C115.867 135.582 115.549 135.46 115.271 135.274C114.992 135.088 114.76 134.843 114.591 134.557C113.77 133.467 111.083 130.069 109.763 128.505L107.124 136.817C107.091 137 107.018 137.174 106.91 137.327C106.801 137.48 106.66 137.608 106.497 137.702C106.233 137.799 105.95 137.834 105.671 137.804C105.391 137.774 105.123 137.679 104.887 137.528C103.825 136.991 100.221 135 98.4509 134.02L99.8187 143.611C99.8343 143.71 99.8215 143.811 99.7817 143.904C99.7419 143.996 99.6767 144.075 99.5934 144.133C99.5053 144.183 99.4054 144.209 99.3038 144.209C99.2021 144.209 99.1022 144.183 99.0141 144.133L91.2581 139.977V149.3C91.2548 149.398 91.2247 149.494 91.171 149.578C91.1172 149.661 91.0417 149.729 90.9523 149.774C90.8673 149.824 90.77 149.85 90.6708 149.85C90.5715 149.85 90.4742 149.824 90.3892 149.774L83.5664 145.033L81.7964 154.325C81.7805 154.419 81.7391 154.508 81.6766 154.582C81.614 154.655 81.5325 154.711 81.4406 154.743C81.3486 154.775 81.2496 154.783 81.1537 154.765C81.0578 154.747 80.9686 154.704 80.8953 154.641L73.7346 148.478L71.8519 154.388C71.8275 154.475 71.7805 154.554 71.7157 154.617C71.6508 154.681 71.5702 154.727 71.4818 154.751H71.337C71.1922 154.751 71.0635 154.751 70.3072 154.214L68.6015 152.634L70.9347 160.187C71.5999 159.997 72.2435 159.792 72.8657 159.571L74.1369 152.966C74.165 152.883 74.2135 152.807 74.278 152.747C74.3425 152.686 74.4211 152.642 74.507 152.618C74.6011 152.587 74.7023 152.582 74.799 152.604C74.8957 152.627 74.9841 152.675 75.0541 152.745L79.8815 157.074C81.3619 156.474 82.778 155.857 84.1296 155.225L84.6124 150.153C84.6255 150.059 84.6617 149.97 84.7177 149.893C84.7738 149.816 84.8481 149.753 84.9342 149.711C85.0174 149.664 85.1117 149.639 85.2077 149.639C85.3038 149.639 85.3981 149.664 85.4813 149.711L89.3271 152.618C90.6788 151.891 91.9339 151.149 93.1247 150.438L92.8994 144.354C92.8906 144.259 92.9103 144.163 92.956 144.079C93.0018 143.995 93.0716 143.926 93.1569 143.88C93.2388 143.829 93.3337 143.803 93.4304 143.803C93.5272 143.803 93.622 143.829 93.704 143.88L98.8049 146.693C99.9152 145.887 100.913 145.112 101.814 144.386L100.816 138.397C100.801 138.3 100.812 138.2 100.849 138.108C100.885 138.016 100.947 137.936 101.026 137.875C101.112 137.828 101.209 137.804 101.307 137.804C101.406 137.804 101.503 137.828 101.589 137.875L106.625 139.977C107.591 138.981 108.057 138.397 108.057 138.397H109.377L110.262 133.483C110.281 133.384 110.328 133.292 110.398 133.218C110.468 133.144 110.557 133.091 110.656 133.065C110.755 133.038 110.86 133.04 110.958 133.069C111.056 133.098 111.144 133.154 111.211 133.23L115.717 138.397H117.197L120.512 132.945C120.564 132.863 120.638 132.796 120.726 132.751C120.814 132.707 120.912 132.686 121.011 132.693C121.111 132.696 121.209 132.725 121.294 132.778C121.379 132.831 121.448 132.905 121.494 132.993L124.052 138.397H128.091L129.378 136.912ZM89.8099 156.9C89.7941 156.607 89.6913 156.325 89.514 156.089C89.3368 155.853 89.0929 155.673 88.8126 155.571C88.5322 155.469 88.2277 155.451 87.9367 155.517C87.6456 155.584 87.3808 155.733 87.175 155.945C86.9692 156.158 86.8314 156.425 86.7786 156.714C86.7259 157.003 86.7605 157.301 86.8782 157.571C86.9959 157.84 87.1915 158.07 87.4409 158.232C87.6902 158.394 87.9824 158.48 88.2812 158.48C88.4889 158.481 88.6945 158.439 88.8854 158.359C89.0763 158.279 89.2485 158.161 89.3916 158.013C89.5347 157.865 89.6455 157.69 89.7174 157.499C89.7893 157.308 89.8208 157.104 89.8099 156.9ZM123.698 141.099C123.72 140.89 123.697 140.679 123.631 140.479C123.564 140.279 123.456 140.095 123.313 139.939C123.169 139.783 122.994 139.659 122.799 139.573C122.603 139.488 122.392 139.444 122.178 139.444C121.964 139.444 121.752 139.488 121.557 139.573C121.361 139.659 121.186 139.783 121.043 139.939C120.899 140.095 120.791 140.279 120.724 140.479C120.658 140.679 120.635 140.89 120.657 141.099C120.696 141.468 120.873 141.811 121.154 142.06C121.434 142.308 121.799 142.446 122.178 142.446C122.556 142.446 122.921 142.308 123.202 142.06C123.483 141.811 123.659 141.468 123.698 141.099ZM99.5612 150.975C99.5224 150.605 99.3455 150.263 99.0646 150.014C98.7838 149.765 98.4189 149.627 98.0406 149.627C97.6623 149.627 97.2974 149.765 97.0165 150.014C96.7356 150.263 96.5587 150.605 96.52 150.975C96.498 151.184 96.521 151.395 96.5875 151.595C96.6539 151.794 96.7623 151.978 96.9056 152.134C97.0489 152.29 97.224 152.415 97.4195 152.5C97.615 152.586 97.8266 152.63 98.0406 152.63C98.2545 152.63 98.4661 152.586 98.6616 152.5C98.8571 152.415 99.0322 152.29 99.1755 152.134C99.3189 151.978 99.4273 151.794 99.4937 151.595C99.5601 151.395 99.5831 151.184 99.5612 150.975ZM36.805 143.627L31.9776 140.467C31.8382 140.372 31.6776 140.313 31.5095 140.293C31.3414 140.273 31.1709 140.293 31.0126 140.352C30.8544 140.412 30.7131 140.507 30.6009 140.632C30.4887 140.756 30.4089 140.906 30.3685 141.067L28.872 146.772C28.8167 146.977 28.8289 147.195 28.9069 147.394C28.9849 147.592 29.1247 147.762 29.3065 147.878L33.9247 150.912C34.0609 151.006 34.2182 151.068 34.3834 151.09C34.5487 151.113 34.7171 151.097 34.8746 151.043C35.0321 150.989 35.1741 150.898 35.2888 150.779C35.4035 150.66 35.4875 150.516 35.5338 150.359L37.2556 144.717C37.3174 144.509 37.3102 144.286 37.2351 144.082C37.1599 143.877 37.0206 143.701 36.8372 143.58L36.805 143.627ZM115.025 140.783C115.028 140.489 114.942 140.2 114.78 139.953C114.617 139.707 114.384 139.512 114.11 139.394C113.835 139.276 113.532 139.24 113.236 139.29C112.941 139.34 112.668 139.474 112.449 139.675C112.231 139.877 112.078 140.137 112.009 140.423C111.94 140.709 111.958 141.009 112.061 141.285C112.164 141.561 112.347 141.802 112.588 141.976C112.829 142.151 113.117 142.253 113.416 142.268C113.629 142.284 113.842 142.255 114.043 142.185C114.244 142.114 114.428 142.003 114.582 141.859C114.737 141.715 114.859 141.54 114.941 141.347C115.023 141.153 115.062 140.945 115.057 140.735L115.025 140.783ZM106.979 144.575C106.982 144.277 106.895 143.985 106.728 143.735C106.562 143.486 106.323 143.291 106.043 143.176C105.763 143.06 105.454 143.029 105.156 143.086C104.858 143.144 104.585 143.287 104.37 143.498C104.155 143.709 104.009 143.978 103.951 144.27C103.892 144.563 103.924 144.866 104.041 145.141C104.159 145.416 104.358 145.65 104.611 145.814C104.865 145.978 105.163 146.064 105.467 146.061C105.669 146.061 105.87 146.021 106.057 145.943C106.244 145.866 106.413 145.752 106.554 145.609C106.695 145.466 106.805 145.296 106.878 145.111C106.951 144.925 106.986 144.727 106.979 144.528V144.575ZM78.4011 161.815C78.4043 161.516 78.3169 161.224 78.1502 160.975C77.9835 160.725 77.7449 160.531 77.4649 160.415C77.1849 160.299 76.8762 160.268 76.5782 160.326C76.2802 160.383 76.0063 160.526 75.7916 160.737C75.5768 160.948 75.4309 161.217 75.3724 161.51C75.314 161.802 75.3456 162.106 75.4633 162.381C75.581 162.655 75.7794 162.89 76.0332 163.053C76.2871 163.217 76.5848 163.303 76.8885 163.3C77.2884 163.296 77.6707 163.138 77.9535 162.86C78.2362 162.583 78.3969 162.207 78.4011 161.815ZM103.15 127.699L102.683 128.837L101.508 128.316L100.511 129.69L103.552 131.002L104.839 127.699H103.15ZM73.1393 142.079C74.2335 141.684 86.3663 137.149 90.6949 130.164C84.4193 131.744 70.098 132.772 66.8154 132.977C67.9098 136.133 69.4306 139.13 71.337 141.889C71.5906 142.08 71.893 142.199 72.211 142.233C72.529 142.266 72.8502 142.213 73.1393 142.079ZM118.195 73.7058C110.358 73.4846 102.892 70.0873 95.6671 66.8006C91.248 64.6105 86.6314 62.8279 81.8768 61.4755C73.6703 59.4687 69.6957 60.0534 68.2958 60.4326C68.3923 61.6335 68.521 62.8818 68.682 63.8141C70.6451 63.4349 74.7484 63.1979 82.1343 64.9992C93.5591 67.7803 105.531 76.8503 118.227 77.1979C121.952 77.3184 125.682 77.144 129.378 76.6765V73.2002C125.67 73.6526 121.931 73.8217 118.195 73.7058ZM50.5309 128.489C51.8327 129.982 52.9657 131.608 53.9101 133.34C54.1602 134.385 54.1565 135.473 53.8994 136.516C53.6422 137.559 53.1388 138.528 52.4297 139.345C53.0734 140.293 53.6848 141.257 54.2641 142.237C55.8071 142.38 57.2517 143.044 58.3513 144.117C59.9605 145.697 64.0798 153.598 63.8385 156.964C63.8172 157.695 63.6434 158.415 63.3279 159.078C63.0124 159.741 62.5618 160.334 62.0041 160.819C62.4063 162.257 62.7121 163.442 62.9052 164.28C63.6771 164.281 64.4333 164.493 65.0896 164.892C65.746 165.291 66.2766 165.861 66.6223 166.539C67.0154 167.67 67.3273 168.826 67.5556 170H69.2612C69.2612 170 63.6776 143.975 52.6067 127.889L50.5309 128.489ZM127.769 63.3717C127.166 64.2135 126.815 65.2042 126.756 66.2317C126.77 67.4123 127.189 68.5536 127.946 69.471C128.574 68.4755 129.378 66.4846 127.769 63.3717ZM102.023 65.2362C103.549 64.2644 105.26 63.6065 107.052 63.3023C108.844 62.9981 110.681 63.054 112.45 63.4665C115.207 64.3599 117.592 66.1132 119.241 68.4597C118.436 65.5049 116.57 61.5071 112.386 60.7644C110.399 60.3439 108.328 60.5497 106.467 61.3526C104.607 62.1556 103.051 63.5146 102.023 65.2362ZM41.9865 135.916C42.7234 136.605 43.619 137.108 44.5969 137.383C45.5747 137.658 46.6059 137.697 47.6023 137.496C50.9815 136.659 49.7907 133.167 49.5172 132.756C48.7834 131.664 47.9939 130.609 47.1518 129.595C44.9794 130.322 42.3244 131.27 39.2992 132.487C40.0702 133.719 40.9709 134.869 41.9865 135.916ZM35.3407 156.3L32.8305 162.099C32.7526 162.278 32.7309 162.476 32.7681 162.668C32.8054 162.859 32.8999 163.035 33.0397 163.173L37.0625 167.345C37.1761 167.451 37.313 167.531 37.4627 167.578C37.6124 167.624 37.7709 167.636 37.9262 167.613C38.0814 167.591 38.2293 167.533 38.3585 167.446C38.4877 167.358 38.5948 167.243 38.6716 167.108L41.4393 161.546C41.5268 161.36 41.5566 161.153 41.5251 160.951C41.4937 160.749 41.4023 160.56 41.2623 160.408L37.0142 156C36.8982 155.879 36.7533 155.788 36.5927 155.737C36.432 155.685 36.2607 155.673 36.0944 155.703C35.9281 155.733 35.772 155.803 35.6404 155.907C35.5087 156.012 35.4057 156.147 35.3407 156.3ZM95.2487 61.1279C96.0366 60.2112 96.513 59.0756 96.6111 57.8799C96.7092 56.6842 96.4241 55.4884 95.7958 54.4597C95.1161 55.426 94.7077 56.5511 94.6116 57.7217C94.5156 58.8924 94.7353 60.0672 95.2487 61.1279ZM69.4061 57.9676H69.5992C70.7256 56.8299 74.7806 53.2272 79.5597 54.0488C82.9193 54.8657 85.8124 56.9566 87.6054 59.8638C87.3496 57.9757 86.4556 56.2267 85.0667 54.8972C83.6778 53.5677 81.8745 52.7348 79.9459 52.5319C77.8195 52.2025 75.6417 52.5607 73.7406 53.5525C71.8396 54.5444 70.3183 56.1161 69.4061 58.0308V57.9676ZM100.237 41.2971C100.335 39.6746 99.8758 38.0668 98.9337 36.7305C97.6898 37.8645 96.8765 39.3809 96.6278 41.0296C96.3792 42.6784 96.7101 44.3611 97.5659 45.8005C99.0159 44.6951 99.9733 43.081 100.237 41.2971Z" fill="#C72F2A"/>
<path d="M78.5076 56.917L76.5454 58.0258C75.2562 57.8297 73.957 57.7027 72.6535 57.6456C73.5069 56.9818 74.4868 56.4901 75.5362 56.1991C76.5857 55.9082 77.6839 55.8237 78.767 55.9507C81.1931 56.5248 83.3278 57.9299 84.7833 59.9108C83.8751 59.6257 82.9508 59.3564 82.0427 59.1346L79.9346 58.6594L78.5076 56.917ZM75.686 161.797C75.686 162.003 75.7697 162.2 75.9187 162.346C76.0677 162.491 76.2698 162.573 76.4806 162.573C76.6956 162.573 76.9018 162.49 77.0539 162.341C77.2059 162.193 77.2914 161.991 77.2914 161.781C77.2914 161.571 77.2059 161.37 77.0539 161.221C76.9018 161.073 76.6956 160.989 76.4806 160.989C76.3734 160.989 76.2674 161.01 76.1688 161.051C76.0702 161.092 75.9811 161.152 75.9069 161.228C75.8327 161.303 75.7748 161.392 75.7369 161.49C75.6989 161.588 75.6816 161.692 75.686 161.797ZM61.6427 47.7453H61.4968H61.2049L66.5887 57.2496C66.9165 56.479 67.0853 55.6527 67.0853 54.8181C67.0853 53.9836 66.9165 53.1572 66.5887 52.3866C65.5598 50.2938 63.8085 48.6223 61.6427 47.6661V47.7453ZM69.3779 53.7014C70.6907 52.2633 72.3607 51.1799 74.2268 50.5556C76.0929 49.9314 78.0922 49.7873 80.0319 50.1372C81.8027 50.3521 83.4901 50.9967 84.9404 52.0121C86.3907 53.0276 87.5576 54.3816 88.3346 55.9507C89.5154 52.2889 91.9486 49.1348 95.2265 47.0167C92.9724 44.8623 86.9076 40.2052 79.2211 39.9201C73.7238 39.7142 68.3887 41.8051 63.3616 46.1137C65.6816 47.2413 67.5566 49.084 68.6968 51.357C69.0436 52.1004 69.2732 52.8908 69.3779 53.7014ZM17.567 146.733L15.1995 144.515C15.0219 144.351 14.7869 144.26 14.5427 144.26C14.2985 144.26 14.0635 144.351 13.886 144.515C13.7643 144.61 13.666 144.731 13.5985 144.868C13.531 145.005 13.496 145.155 13.496 145.307C13.496 145.459 13.531 145.609 13.5985 145.746C13.666 145.884 13.7643 146.004 13.886 146.099L16.2049 148.285C16.2049 148.285 17.0481 148.966 17.6806 148.285C17.79 148.182 17.8749 148.057 17.9293 147.918C17.9837 147.78 18.0063 147.631 17.9955 147.483C17.9846 147.335 17.9407 147.191 17.8666 147.061C17.7926 146.932 17.6903 146.819 17.567 146.733ZM123.848 170.002H124.513C125.803 170.002 127.041 169.502 127.953 168.611C128.865 167.719 129.378 166.511 129.378 165.25V153.655C127.007 158.92 125.155 164.394 123.848 170.002ZM117.881 44.102C109.772 42.0903 101.389 45.987 98.5833 47.476C101.193 51.6968 102.378 56.6118 101.972 61.5266C103.343 60.1572 105.046 59.1486 106.923 58.5947C108.8 58.0408 110.79 57.9595 112.708 58.3585C114.482 58.7259 116.129 59.5341 117.489 60.7052C118.85 61.8762 119.878 63.3703 120.475 65.0432C121.384 61.0255 123.796 57.4838 127.237 55.1112C127.414 54.994 127.623 54.9314 127.837 54.9314C128.051 54.9314 128.26 54.994 128.437 55.1112C128.773 55.319 129.088 55.5577 129.378 55.824V52.9727C128.162 50.8213 126.519 48.9286 124.545 47.4053C122.57 45.8821 120.305 44.7591 117.881 44.102ZM17.1941 153.101C17.0968 152.673 16.5779 152.879 16.5779 152.879L12.6211 156.142V165.25C12.6239 165.691 12.6591 166.135 12.7985 166.568C16.9498 162.719 17.2751 153.512 17.1941 153.101ZM14.2427 150.709C14.3544 150.603 14.4408 150.475 14.4958 150.332C14.5507 150.19 14.5727 150.038 14.5603 149.887C14.5479 149.735 14.5014 149.589 14.424 149.457C14.3467 149.325 14.2405 149.212 14.113 149.125L12.6211 147.826V150.582L12.7184 150.677C12.7184 150.677 13.5454 151.326 14.2427 150.709ZM96.6697 48.5849C94.5628 49.9515 92.8263 51.7967 91.6091 53.9623C90.3918 56.128 89.7301 58.5496 89.6806 61.0197C89.6806 61.3206 89.6806 61.5424 89.6806 61.685C91.0427 62.2394 92.4049 62.8255 93.7995 63.4433C93.6976 63.3608 93.6147 63.2582 93.5562 63.1423C89.6157 55.222 95.1778 51.547 95.1778 51.5154C95.4287 51.3613 95.7296 51.3048 96.0211 51.357C96.1651 51.389 96.301 51.449 96.4207 51.5334C96.5405 51.6177 96.6417 51.7247 96.7184 51.848C101.583 59.2931 95.2265 63.5383 95.1778 63.57C94.9965 63.692 94.7819 63.7583 94.5616 63.7601H94.4481L96.313 64.5996L98.8914 65.756C99.7566 62.8993 100.006 59.8984 99.6235 56.9429C99.2411 53.9874 98.2353 51.1414 96.6697 48.5849ZM122.113 140.206C121.956 140.206 121.802 140.252 121.672 140.337C121.541 140.423 121.439 140.544 121.379 140.686C121.319 140.827 121.303 140.983 121.334 141.134C121.364 141.285 121.44 141.423 121.551 141.531C121.662 141.64 121.804 141.714 121.958 141.744C122.112 141.774 122.272 141.758 122.417 141.7C122.562 141.641 122.686 141.541 122.774 141.414C122.861 141.286 122.908 141.136 122.908 140.983C122.908 140.777 122.824 140.579 122.675 140.434C122.526 140.288 122.324 140.206 122.113 140.206ZM104.486 144.467C104.486 144.678 104.571 144.879 104.723 145.028C104.875 145.176 105.082 145.26 105.297 145.26C105.512 145.26 105.718 145.176 105.87 145.028C106.022 144.879 106.108 144.678 106.108 144.467C106.108 144.257 106.022 144.056 105.87 143.907C105.718 143.759 105.512 143.675 105.297 143.675C105.082 143.675 104.875 143.759 104.723 143.907C104.571 144.056 104.486 144.257 104.486 144.467ZM22.2049 139.715C22.0246 139.551 21.7869 139.459 21.54 139.459C21.2931 139.459 21.0554 139.551 20.8751 139.715C20.7585 139.813 20.665 139.935 20.6008 140.072C20.5367 140.208 20.5035 140.357 20.5035 140.507C20.5035 140.658 20.5367 140.806 20.6008 140.943C20.665 141.08 20.7585 141.201 20.8751 141.299L23.2103 143.39C23.2103 143.39 24.0535 144.056 24.686 143.39C24.8004 143.286 24.8893 143.158 24.946 143.016C25.0026 142.873 25.0256 142.72 25.0131 142.568C25.0006 142.415 24.953 142.268 24.8739 142.136C24.7948 142.004 24.6862 141.891 24.5562 141.806L22.2049 139.715ZM97.0589 150.93C97.0589 151.084 97.1055 151.234 97.1928 151.362C97.2802 151.489 97.4043 151.589 97.5494 151.648C97.6946 151.706 97.8544 151.722 98.0085 151.692C98.1627 151.662 98.3043 151.588 98.4154 151.479C98.5265 151.371 98.6022 151.232 98.6329 151.082C98.6635 150.931 98.6478 150.775 98.5876 150.633C98.5275 150.492 98.4256 150.37 98.295 150.285C98.1643 150.2 98.0107 150.154 97.8535 150.154C97.651 150.154 97.4559 150.229 97.3082 150.365C97.1605 150.5 97.0713 150.685 97.0589 150.883V150.93ZM17.3724 143.628L19.7076 145.798C19.7076 145.798 20.5508 146.479 21.1833 145.798C21.2986 145.695 21.3886 145.568 21.4465 145.426C21.5045 145.284 21.5289 145.132 21.518 144.979C21.5071 144.827 21.4611 144.679 21.3835 144.547C21.3059 144.414 21.1986 144.3 21.0697 144.214L18.7022 141.996C18.5219 141.832 18.2842 141.74 18.0373 141.74C17.7904 141.74 17.5527 141.832 17.3724 141.996C17.2473 142.094 17.1463 142.219 17.0769 142.36C17.0076 142.501 16.9715 142.656 16.9715 142.812C16.9715 142.969 17.0076 143.123 17.0769 143.265C17.1463 143.406 17.2473 143.53 17.3724 143.628ZM127.837 57.3605C121.61 62.1127 121.983 70.5715 122.016 71.2685C123.637 71.2685 125.162 71.1576 126.572 71.0309C125.239 69.6405 124.502 67.8037 124.513 65.8985C124.667 63.8157 125.616 61.8653 127.172 60.4336C127.291 60.3307 127.43 60.2536 127.581 60.2072C127.732 60.1607 127.891 60.1461 128.048 60.1643C128.207 60.185 128.359 60.2398 128.494 60.3247C128.628 60.4096 128.742 60.5225 128.827 60.6553C129.054 60.988 129.199 61.2523 129.378 61.5691V58.9889C128.912 58.3795 128.427 57.8567 127.837 57.3605ZM119.502 163.666H79.967C91.8052 159.625 102.29 152.505 110.291 143.074L127.594 144.483H127.902C128.713 144.483 127.902 145.861 127.902 145.861C125.404 151.361 123.238 157 121.416 162.747C121.27 163.413 119.502 163.666 119.502 163.666ZM117.508 161.369C115.903 160.049 114.139 158.926 112.254 158.027C110.017 157.997 107.781 158.097 105.556 158.328C105.493 158.303 105.439 158.261 105.401 158.206C105.362 158.151 105.342 158.086 105.342 158.019C105.342 157.953 105.362 157.888 105.401 157.833C105.439 157.777 105.493 157.735 105.556 157.71C105.847 157.418 106.204 157.195 106.598 157.061C106.992 156.926 107.412 156.883 107.826 156.934C109.448 156.934 110.437 157.647 111.589 157.473C112.062 157.448 112.526 157.33 112.951 157.124C112.505 156.61 111.952 156.194 111.329 155.904C110.664 155.746 110.389 155.793 110.308 155.746C110.466 155.509 110.682 155.313 110.937 155.178C111.192 155.043 111.477 154.971 111.767 154.97C112.562 154.97 114.427 156.554 116.097 156.855C117.847 156.993 119.608 156.777 121.27 156.221C122.113 155.889 123.199 155.54 123.167 155.366C122.017 154.12 120.467 153.293 118.772 153.021C116.405 152.72 114.086 154.463 113.616 154.447C113.511 154.454 113.406 154.428 113.318 154.372C113.23 154.317 113.162 154.234 113.125 154.138C113.089 154.042 113.085 153.936 113.115 153.838C113.145 153.739 113.207 153.653 113.291 153.592C114.299 152.748 115.53 152.199 116.843 152.008C117.963 151.896 119.095 151.949 120.199 152.166C120.199 152.166 120.199 150.994 119.583 150.582L119.016 150.249C120.158 149.952 121.325 149.75 122.502 149.647C123.542 149.42 124.498 148.919 125.267 148.198C126.036 147.478 126.588 146.566 126.864 145.56C126.864 145.56 121.594 143.137 117.978 149.6C117.9 149.684 117.8 149.746 117.688 149.78C117.577 149.813 117.459 149.817 117.345 149.79C117.431 149.437 117.41 149.068 117.283 148.727C117.156 148.386 116.93 148.09 116.632 147.873C116.632 147.873 115.302 152.293 112.772 152.879C112.772 152.879 112.448 152.768 112.432 152.673C112.416 152.578 117.589 147.16 113.648 144.388C111.963 145.919 110.962 148.035 110.859 150.281C110.859 153.718 110.648 154.336 110.194 154.558C109.893 154.678 109.555 154.678 109.254 154.558C109.254 154.558 110.875 151.897 109.432 150.487C109.432 150.487 107.616 151.2 106.578 155.572C105.793 156.549 104.678 157.223 103.432 157.473C103.442 157.155 103.532 156.845 103.693 156.568C103.854 156.292 104.082 156.059 104.356 155.889C105.345 155.16 108.151 151.263 107.162 148.095C105.783 148.859 104.598 149.917 103.694 151.189C102.79 152.461 102.191 153.916 101.94 155.445C101.91 156.24 101.802 157.031 101.616 157.805C101.253 158.236 100.779 158.565 100.244 158.76C99.7086 158.955 99.1302 159.008 98.567 158.914C98.567 158.914 101.372 156.348 100.351 154.162C100.351 154.162 97.3184 154.035 96.1184 159.421C96.0129 159.785 95.7983 160.111 95.5022 160.356C95.0806 160.593 90.313 161.369 90.313 161.369C90.313 161.369 89.4373 161.781 90.0211 162.431C90.6049 163.08 91.4968 162.557 91.4968 162.557C92.868 161.978 94.3138 161.583 95.7941 161.385C97.1591 162.008 98.5968 162.465 100.075 162.747C101.262 162.77 102.44 162.543 103.529 162.082C102.522 161.469 101.429 161 100.286 160.688L98.1454 160.498C99.633 159.581 101.388 159.169 103.14 159.326C105.019 159.7 106.805 160.432 108.394 161.48C109.369 162.061 110.496 162.353 111.637 162.32C113.634 162.298 115.614 161.972 117.508 161.353V161.369ZM87.2157 156.871C87.2157 157.024 87.2623 157.174 87.3496 157.302C87.4369 157.429 87.561 157.529 87.7062 157.588C87.8514 157.646 88.0112 157.662 88.1653 157.632C88.3194 157.602 88.461 157.528 88.5721 157.419C88.6833 157.311 88.7589 157.173 88.7896 157.022C88.8203 156.871 88.8045 156.715 88.7444 156.574C88.6842 156.432 88.5824 156.311 88.4517 156.225C88.3211 156.14 88.1674 156.094 88.0103 156.094C87.7995 156.094 87.5974 156.176 87.4484 156.322C87.2994 156.467 87.2157 156.665 87.2157 156.871ZM118.221 71.3318H118.643C117.237 68.535 114.788 66.3699 111.799 65.2808C108.07 64.1719 104.194 66.1203 102.378 67.245C103.772 67.8311 105.183 68.3855 106.594 68.829L111.329 66.5322L114.572 70.92C115.764 71.1183 116.966 71.2505 118.172 71.316L118.221 71.3318ZM112.61 140.666C112.61 140.819 112.657 140.969 112.744 141.097C112.832 141.225 112.956 141.324 113.101 141.383C113.246 141.442 113.406 141.457 113.56 141.427C113.714 141.397 113.856 141.323 113.967 141.215C114.078 141.106 114.154 140.968 114.184 140.817C114.215 140.667 114.199 140.511 114.139 140.369C114.079 140.227 113.977 140.106 113.846 140.02C113.716 139.935 113.562 139.89 113.405 139.89C113.194 139.89 112.992 139.971 112.843 140.117C112.694 140.262 112.61 140.46 112.61 140.666Z" fill="#F4C900"/>
</g>
<path d="M25.3846 73.9243C21.2308 79.4627 16.4615 84.6935 11.2308 89.4627C10.9231 89.7704 10.9231 90.232 11.2308 90.5397C16.4615 95.3089 21.2308 100.54 25.3846 106.078C25.6923 106.54 26.3077 106.54 26.6154 106.078C30.7692 100.54 35.5385 95.3089 40.7692 90.5397C41.0769 90.232 41.0769 89.7704 40.7692 89.4627C35.5385 84.6935 30.7692 79.4627 26.6154 73.9243C26.3077 73.4627 25.6923 73.4627 25.3846 73.9243Z" fill="#BF3030"/>
<path d="M28.7913 31.44L41.0753 64H33.8973L24.5733 37.286L20.4293 43.576V64H13.9913V11.756H20.4293V34.252L33.8973 11.756H41.0753L28.7913 31.44Z" fill="#BF3030"/>
<defs>
<linearGradient id="paint0_linear_324_104464" x1="68" y1="2" x2="68" y2="182" gradientUnits="userSpaceOnUse">
<stop stop-color="white" stop-opacity="0.85"/>
<stop offset="1" stop-color="white" stop-opacity="0.15"/>
</linearGradient>
<clipPath id="clip0_324_104464">
<rect width="120" height="165" fill="white" transform="translate(11 5)"/>
</clipPath>
</defs>
</svg>
