<svg width="184" height="184" viewBox="0 0 184 184" fill="none" xmlns="http://www.w3.org/2000/svg">
<rect x="1" y="1" width="182" height="182" rx="13" stroke="black" stroke-opacity="0.25" stroke-width="2"/>
<rect x="2.5" y="2.5" width="179" height="179" rx="11.5" fill="#E9E9E9" stroke="url(#paint0_linear_324_104460)"/>
<rect x="41.0449" y="30.5" width="101.909" height="123" rx="1.5" fill="#D7D5D7" stroke="#CDCFD6"/>
<path d="M83.6154 90.8257C74.2692 103.287 63.5385 115.057 51.7692 125.787C51.0769 126.48 51.0769 127.518 51.7692 128.21C63.5385 138.941 74.2692 150.71 83.6154 163.172C84.3077 164.21 85.6923 164.21 86.3846 163.172C95.7308 150.71 106.462 138.941 118.231 128.21C118.923 127.518 118.923 126.48 118.231 125.787C106.462 115.057 95.7308 103.287 86.3846 90.8257C85.6923 89.7873 84.3077 89.7873 83.6154 90.8257Z" fill="#BF3030"/>
<path d="M25.3846 73.9243C21.2308 79.4627 16.4615 84.6935 11.2308 89.4627C10.9231 89.7704 10.9231 90.232 11.2308 90.5397C16.4615 95.3089 21.2308 100.54 25.3846 106.078C25.6923 106.54 26.3077 106.54 26.6154 106.078C30.7692 100.54 35.5385 95.3089 40.7692 90.5397C41.0769 90.232 41.0769 89.7704 40.7692 89.4627C35.5385 84.6935 30.7692 79.4627 26.6154 73.9243C26.3077 73.4627 25.6923 73.4627 25.3846 73.9243Z" fill="#BF3030"/>
<path d="M36.857 23.3C36.857 30.922 36.413 34.548 32.639 35.88C32.195 36.028 31.529 36.102 31.233 36.176C31.455 36.25 32.269 36.472 32.861 36.694C37.227 38.618 37.227 43.428 37.227 48.312C37.227 52.456 37.227 55.786 36.043 58.746C33.675 64.592 26.127 64.666 25.461 64.666C20.873 64.666 17.839 62.742 16.433 60.966C14.657 58.746 14.139 55.49 14.139 52.604C14.139 41.652 14.139 37.952 20.207 36.176C15.471 35.362 14.805 32.254 14.805 23.744C14.805 20.118 14.879 11.09 25.831 11.09C30.567 11.09 33.527 13.014 34.933 14.79C36.857 17.38 36.857 21.08 36.857 23.3ZM30.715 24.41C30.789 20.858 30.937 16.27 25.905 16.27C21.243 16.27 20.799 19.97 20.799 24.78C20.799 29.738 20.799 33.438 25.979 33.438C30.493 33.438 30.567 30.034 30.715 24.41ZM30.863 49.348C30.863 44.168 30.863 39.728 25.683 39.728C24.869 39.728 23.537 39.876 22.427 40.69C20.577 42.17 20.577 44.168 20.577 49.644C20.577 55.046 20.577 58.82 25.683 58.82C30.863 58.82 30.863 54.528 30.863 49.348Z" fill="#BF3030"/>
<defs>
<linearGradient id="paint0_linear_324_104460" x1="92" y1="2" x2="92" y2="182" gradientUnits="userSpaceOnUse">
<stop stop-color="white" stop-opacity="0.85"/>
<stop offset="1" stop-color="white" stop-opacity="0.15"/>
</linearGradient>
</defs>
</svg>
