<svg width="184" height="184" viewBox="0 0 184 184" fill="none" xmlns="http://www.w3.org/2000/svg">
<rect x="1" y="1" width="182" height="182" rx="13" stroke="black" stroke-opacity="0.25" stroke-width="2"/>
<rect x="2.5" y="2.5" width="179" height="179" rx="11.5" fill="#E9E9E9" stroke="url(#paint0_linear_324_104501)"/>
<rect x="41.0449" y="30.5" width="101.909" height="123" rx="1.5" fill="#D7D5D7" stroke="#CDCFD6"/>
<path d="M100.192 94.5898C95.0002 94.5898 90.154 96.6668 86.3463 100.128C86.0002 100.474 85.654 100.474 85.3079 100.128C81.8463 96.6668 77.0002 94.5898 71.4617 94.5898C60.3848 94.5898 51.3848 103.59 51.3848 115.013C51.3848 125.051 56.2309 130.244 69.0386 140.974C74.2309 145.474 81.8463 154.821 84.6156 158.628C85.3079 159.667 86.6925 159.667 87.3848 158.628C90.5002 154.821 97.7694 145.474 102.962 140.974C115.423 129.898 120.616 125.051 120.616 115.013C120.616 103.59 111.616 94.5898 100.192 94.5898Z" fill="#BF3030"/>
<path d="M33.3076 75.5977C30.9999 75.5977 28.846 76.5207 27.1537 78.0592C26.9999 78.213 26.846 78.213 26.6922 78.0592C25.1537 76.5207 22.9999 75.5977 20.5383 75.5977C15.6152 75.5977 11.6152 79.5977 11.6152 84.6746C11.6152 89.1361 13.7691 91.4438 19.4614 96.213C21.7691 98.213 25.1537 102.367 26.3845 104.059C26.6922 104.521 27.3076 104.521 27.6152 104.059C28.9999 102.367 32.2306 98.213 34.5383 96.213C40.0768 91.29 42.3845 89.1361 42.3845 84.6746C42.3845 79.5977 38.3845 75.5977 33.3076 75.5977Z" fill="#BF3030"/>
<path d="M21.947 26.556H16.027C15.953 21.524 15.953 18.268 17.507 15.456C19.727 11.534 24.463 11.09 26.683 11.09C31.419 11.09 34.009 13.31 35.119 14.864C37.117 17.454 37.413 21.376 37.413 24.78C37.413 31.588 36.673 35.14 31.345 36.176C37.117 37.582 38.227 39.95 38.227 51.494C38.227 55.49 37.635 58.746 34.971 61.484C33.713 62.742 31.345 64.666 26.535 64.666C23.057 64.666 20.467 63.556 19.061 62.668C14.473 59.708 15.065 53.048 15.139 48.386H21.059C20.985 49.792 20.985 51.272 21.059 53.27C21.133 54.898 21.281 58.968 26.165 58.968C31.419 58.968 31.641 54.676 31.641 52.012C31.715 51.05 31.715 48.238 31.715 46.758C31.715 40.986 29.273 39.358 24.981 39.358C24.315 39.358 23.575 39.358 22.983 39.432V33.586C27.497 33.882 31.197 33.586 31.197 26.112C31.197 19.822 30.827 16.788 26.461 16.788C22.095 16.788 21.651 21.006 21.947 26.556Z" fill="#BF3030"/>
<defs>
<linearGradient id="paint0_linear_324_104501" x1="92" y1="2" x2="92" y2="182" gradientUnits="userSpaceOnUse">
<stop stop-color="white" stop-opacity="0.85"/>
<stop offset="1" stop-color="white" stop-opacity="0.15"/>
</linearGradient>
</defs>
</svg>
