<svg width="183" height="183" viewBox="0 0 183 183" fill="none" xmlns="http://www.w3.org/2000/svg">
<rect x="1.64648" y="1" width="176.706" height="178.087" rx="13" stroke="black" stroke-opacity="0.25" stroke-width="2"/>
<rect x="3.14648" y="2.5" width="173.706" height="175.087" rx="11.5" fill="#E9E9E9" stroke="url(#paint0_linear_324_104476)"/>
<rect x="40.5293" y="29.8711" width="98.9412" height="120.348" rx="1.5" fill="#D7D5D7" stroke="#CDCFD6"/>
<rect x="5.64648" y="5" width="168.706" height="170.087" rx="9" fill="#44AA2A"/>
<rect x="5.64648" y="5" width="168.706" height="170.087" rx="9" fill="#AA352A"/>
<rect x="5.64648" y="5" width="168.706" height="170.087" rx="9" stroke="url(#paint1_linear_324_104476)" stroke-width="6"/>
<path d="M163.412 7.87109C166.726 7.87128 169.412 10.5575 169.412 13.8711V166.219C169.412 169.532 166.726 172.219 163.412 172.219H16.5879C13.2743 172.219 10.5879 169.532 10.5879 166.219V13.8711C10.5879 10.5575 13.2743 7.87128 16.5879 7.87109H163.412ZM20.2061 12.7627C18.5492 12.7627 17.2061 14.1058 17.2061 15.7627V164.327C17.2061 165.984 18.5492 167.327 20.2061 167.327H159.794C161.451 167.327 162.794 165.984 162.794 164.327V15.7627C162.794 14.1058 161.451 12.7627 159.794 12.7627H20.2061Z" fill="#B64C3A"/>
<path fill-rule="evenodd" clip-rule="evenodd" d="M25.1465 23.498V26.744L29.5141 31.6131L25.1465 36.4822V39.7282L29.5141 44.5973L25.1465 49.4664V52.7124L29.5141 57.5815L25.1465 62.4505V65.6966L29.5141 70.5657L25.1465 75.4347V78.6808L29.5141 83.5499L25.1465 88.4189V91.665L29.5141 96.534L25.1465 101.403V104.649L29.5141 109.518L25.1465 114.387V117.633L29.5141 122.502L25.1465 127.371V130.618L29.5141 135.487L25.1465 140.356V143.602L29.5141 148.471L25.1465 153.34V156.586L29.5141 161.455H31.698L36.0656 156.586L40.4332 161.455H42.6171L46.9847 156.586L51.3524 161.455H53.5362L57.9038 156.586L62.2715 161.455H64.4553L68.823 156.586L73.1906 161.455H75.3744L79.7421 156.586L84.1097 161.455H86.2935L90.6612 156.586L95.0288 161.455H97.2127L101.58 156.586L105.948 161.455H108.132L112.499 156.586L116.867 161.455H119.051L123.419 156.586L127.786 161.455H129.97L134.338 156.586L138.705 161.455H140.889L145.257 156.586L149.624 161.455H151.808L156.176 156.586V153.34L151.808 148.471L156.176 143.602V140.356L151.808 135.487L156.176 130.618V127.371L151.808 122.502L156.176 117.633V114.387L151.808 109.518L156.176 104.649V101.403L151.808 96.534L156.176 91.665V88.4189L151.808 83.5499L156.176 78.6808V75.4347L151.808 70.5657L156.176 65.6966V62.4505L151.808 57.5815L156.176 52.7124V49.4664L151.808 44.5973L156.176 39.7282V36.4822L151.808 31.6131L156.176 26.744V23.498L151.808 18.6289H149.624L145.257 23.498L140.889 18.6289H138.705L134.338 23.498L129.97 18.6289H127.786L123.419 23.498L119.051 18.6289H116.867L112.499 23.498L108.132 18.6289H105.948L101.58 23.498L97.2127 18.6289H95.0288L90.6612 23.498L86.2935 18.6289H84.1097L79.7421 23.498L75.3744 18.6289H73.1906L68.823 23.498L64.4553 18.6289H62.2715L57.9038 23.498L53.5362 18.6289H51.3524L46.9847 23.498L42.6171 18.6289H40.4332L36.0656 23.498L31.698 18.6289H29.5141L25.1465 23.498ZM26.2384 25.121L30.606 20.2519L34.9737 25.121L30.606 29.9901L26.2384 25.121ZM52.4443 20.2519L48.0766 25.121L52.4443 29.9901L56.8119 25.121L52.4443 20.2519ZM37.1575 25.121L41.5252 20.2519L45.8928 25.121L41.5252 29.9901L37.1575 25.121ZM63.3634 20.2519L58.9957 25.121L63.3634 29.9901L67.731 25.121L63.3634 20.2519ZM80.834 25.121L85.2016 20.2519L89.5693 25.121L85.2016 29.9901L80.834 25.121ZM74.2825 20.2519L69.9149 25.121L74.2825 29.9901L78.6502 25.121L74.2825 20.2519ZM91.7531 25.121L96.1208 20.2519L100.488 25.121L96.1208 29.9901L91.7531 25.121ZM117.959 20.2519L113.591 25.121L117.959 29.9901L122.327 25.121L117.959 20.2519ZM102.672 25.121L107.04 20.2519L111.408 25.121L107.04 29.9901L102.672 25.121ZM128.878 20.2519L124.51 25.121L128.878 29.9901L133.246 25.121L128.878 20.2519ZM146.349 25.121L150.716 20.2519L155.084 25.121L150.716 29.9901L146.349 25.121ZM139.797 20.2519L135.43 25.121L139.797 29.9901L144.165 25.121L139.797 20.2519ZM31.698 31.6131L36.0656 26.744L40.4332 31.6131L36.0656 36.4822L31.698 31.6131ZM53.5362 31.6131L57.9038 26.744L62.2715 31.6131L57.9038 36.4822L53.5362 31.6131ZM46.9847 26.744L42.6171 31.6131L46.9847 36.4822L51.3524 31.6131L46.9847 26.744ZM64.4553 31.6131L68.823 26.744L73.1906 31.6131L68.823 36.4822L64.4553 31.6131ZM90.6612 26.744L86.2935 31.6131L90.6612 36.4822L95.0288 31.6131L90.6612 26.744ZM75.3744 31.6131L79.7421 26.744L84.1097 31.6131L79.7421 36.4822L75.3744 31.6131ZM101.58 26.744L97.2127 31.6131L101.58 36.4822L105.948 31.6131L101.58 26.744ZM119.051 31.6131L123.419 26.744L127.786 31.6131L123.419 36.4822L119.051 31.6131ZM112.499 26.744L108.132 31.6131L112.499 36.4822L116.867 31.6131L112.499 26.744ZM129.97 31.6131L134.338 26.744L138.705 31.6131L134.338 36.4822L129.97 31.6131ZM140.889 31.6131L145.257 26.744L149.624 31.6131L145.257 36.4822L140.889 31.6131ZM30.606 33.2361L26.2384 38.1052L30.606 42.9743L34.9737 38.1052L30.606 33.2361ZM48.0766 38.1052L52.4443 33.2361L56.8119 38.1052L52.4443 42.9743L48.0766 38.1052ZM41.5252 33.2361L37.1575 38.1052L41.5252 42.9743L45.8928 38.1052L41.5252 33.2361ZM58.9957 38.1052L63.3634 33.2361L67.731 38.1052L63.3634 42.9743L58.9957 38.1052ZM85.2016 33.2361L80.834 38.1052L85.2016 42.9743L89.5693 38.1052L85.2016 33.2361ZM69.9149 38.1052L74.2825 33.2361L78.6502 38.1052L74.2825 42.9743L69.9149 38.1052ZM96.1208 33.2361L91.7531 38.1052L96.1208 42.9743L100.488 38.1052L96.1208 33.2361ZM113.591 38.1052L117.959 33.2361L122.327 38.1052L117.959 42.9743L113.591 38.1052ZM107.04 33.2361L102.672 38.1052L107.04 42.9743L111.408 38.1052L107.04 33.2361ZM124.51 38.1052L128.878 33.2361L133.246 38.1052L128.878 42.9743L124.51 38.1052ZM150.716 33.2361L146.349 38.1052L150.716 42.9743L155.084 38.1052L150.716 33.2361ZM135.43 38.1052L139.797 33.2361L144.165 38.1052L139.797 42.9743L135.43 38.1052ZM36.0656 39.7282L31.698 44.5973L36.0656 49.4664L40.4332 44.5973L36.0656 39.7282ZM57.9038 39.7282L53.5362 44.5973L57.9038 49.4664L62.2715 44.5973L57.9038 39.7282ZM42.6171 44.5973L46.9847 39.7282L51.3524 44.5973L46.9847 49.4664L42.6171 44.5973ZM68.823 39.7282L64.4553 44.5973L68.823 49.4664L73.1906 44.5973L68.823 39.7282ZM86.2935 44.5973L90.6612 39.7282L95.0288 44.5973L90.6612 49.4664L86.2935 44.5973ZM79.7421 39.7282L75.3744 44.5973L79.7421 49.4664L84.1097 44.5973L79.7421 39.7282ZM97.2127 44.5973L101.58 39.7282L105.948 44.5973L101.58 49.4664L97.2127 44.5973ZM123.419 39.7282L119.051 44.5973L123.419 49.4664L127.786 44.5973L123.419 39.7282ZM108.132 44.5973L112.499 39.7282L116.867 44.5973L112.499 49.4664L108.132 44.5973ZM134.338 39.7282L129.97 44.5973L134.338 49.4664L138.705 44.5973L134.338 39.7282ZM145.257 39.7282L140.889 44.5973L145.257 49.4664L149.624 44.5973L145.257 39.7282ZM26.2384 51.0894L30.606 46.2203L34.9737 51.0894L30.606 55.9584L26.2384 51.0894ZM52.4443 46.2203L48.0766 51.0894L52.4443 55.9584L56.8119 51.0894L52.4443 46.2203ZM37.1575 51.0894L41.5252 46.2203L45.8928 51.0894L41.5252 55.9584L37.1575 51.0894ZM63.3634 46.2203L58.9957 51.0894L63.3634 55.9584L67.731 51.0894L63.3634 46.2203ZM80.834 51.0894L85.2016 46.2203L89.5693 51.0894L85.2016 55.9584L80.834 51.0894ZM74.2825 46.2203L69.9149 51.0894L74.2825 55.9584L78.6502 51.0894L74.2825 46.2203ZM91.7531 51.0894L96.1208 46.2203L100.488 51.0894L96.1208 55.9584L91.7531 51.0894ZM117.959 46.2203L113.591 51.0894L117.959 55.9584L122.327 51.0894L117.959 46.2203ZM102.672 51.0894L107.04 46.2203L111.408 51.0894L107.04 55.9584L102.672 51.0894ZM128.878 46.2203L124.51 51.0894L128.878 55.9584L133.246 51.0894L128.878 46.2203ZM146.349 51.0894L150.716 46.2203L155.084 51.0894L150.716 55.9584L146.349 51.0894ZM139.797 46.2203L135.43 51.0894L139.797 55.9584L144.165 51.0894L139.797 46.2203ZM31.698 57.5815L36.0656 52.7124L40.4332 57.5815L36.0656 62.4505L31.698 57.5815ZM53.5362 57.5815L57.9038 52.7124L62.2715 57.5815L57.9038 62.4505L53.5362 57.5815ZM46.9847 52.7124L42.6171 57.5815L46.9847 62.4505L51.3524 57.5815L46.9847 52.7124ZM64.4553 57.5815L68.823 52.7124L73.1906 57.5815L68.823 62.4505L64.4553 57.5815ZM90.6612 52.7124L86.2935 57.5815L90.6612 62.4505L95.0288 57.5815L90.6612 52.7124ZM75.3744 57.5815L79.7421 52.7124L84.1097 57.5815L79.7421 62.4505L75.3744 57.5815ZM101.58 52.7124L97.2127 57.5815L101.58 62.4505L105.948 57.5815L101.58 52.7124ZM119.051 57.5815L123.419 52.7124L127.786 57.5815L123.419 62.4505L119.051 57.5815ZM112.499 52.7124L108.132 57.5815L112.499 62.4505L116.867 57.5815L112.499 52.7124ZM129.97 57.5815L134.338 52.7124L138.705 57.5815L134.338 62.4505L129.97 57.5815ZM140.889 57.5815L145.257 52.7124L149.624 57.5815L145.257 62.4505L140.889 57.5815ZM30.606 59.2045L26.2384 64.0736L30.606 68.9426L34.9737 64.0736L30.606 59.2045ZM52.4443 59.2045L48.0766 64.0736L52.4443 68.9426L56.8119 64.0736L52.4443 59.2045ZM37.1575 64.0736L41.5252 59.2045L45.8928 64.0736L41.5252 68.9426L37.1575 64.0736ZM63.3634 59.2045L58.9957 64.0736L63.3634 68.9426L67.731 64.0736L63.3634 59.2045ZM80.834 64.0736L85.2016 59.2045L89.5693 64.0736L85.2016 68.9426L80.834 64.0736ZM74.2825 59.2045L69.9149 64.0736L74.2825 68.9426L78.6502 64.0736L74.2825 59.2045ZM91.7531 64.0736L96.1208 59.2045L100.488 64.0736L96.1208 68.9426L91.7531 64.0736ZM117.959 59.2045L113.591 64.0736L117.959 68.9426L122.327 64.0736L117.959 59.2045ZM102.672 64.0736L107.04 59.2045L111.408 64.0736L107.04 68.9426L102.672 64.0736ZM128.878 59.2045L124.51 64.0736L128.878 68.9426L133.246 64.0736L128.878 59.2045ZM146.349 64.0736L150.716 59.2045L155.084 64.0736L150.716 68.9426L146.349 64.0736ZM139.797 59.2045L135.43 64.0736L139.797 68.9426L144.165 64.0736L139.797 59.2045ZM31.698 70.5657L36.0656 65.6966L40.4332 70.5657L36.0656 75.4347L31.698 70.5657ZM53.5362 70.5657L57.9038 65.6966L62.2715 70.5657L57.9038 75.4347L53.5362 70.5657ZM46.9847 65.6966L42.6171 70.5657L46.9847 75.4347L51.3524 70.5657L46.9847 65.6966ZM64.4553 70.5657L68.823 65.6966L73.1906 70.5657L68.823 75.4347L64.4553 70.5657ZM90.6612 65.6966L86.2935 70.5657L90.6612 75.4347L95.0288 70.5657L90.6612 65.6966ZM75.3744 70.5657L79.7421 65.6966L84.1097 70.5657L79.7421 75.4347L75.3744 70.5657ZM101.58 65.6966L97.2127 70.5657L101.58 75.4347L105.948 70.5657L101.58 65.6966ZM119.051 70.5657L123.419 65.6966L127.786 70.5657L123.419 75.4347L119.051 70.5657ZM112.499 65.6966L108.132 70.5657L112.499 75.4347L116.867 70.5657L112.499 65.6966ZM129.97 70.5657L134.338 65.6966L138.705 70.5657L134.338 75.4347L129.97 70.5657ZM140.889 70.5657L145.257 65.6966L149.624 70.5657L145.257 75.4347L140.889 70.5657ZM30.606 72.1887L26.2384 77.0578L30.606 81.9268L34.9737 77.0578L30.606 72.1887ZM48.0766 77.0578L52.4443 72.1887L56.8119 77.0578L52.4443 81.9268L48.0766 77.0578ZM41.5252 72.1887L37.1575 77.0578L41.5252 81.9268L45.8928 77.0578L41.5252 72.1887ZM58.9957 77.0578L63.3634 72.1887L67.731 77.0578L63.3634 81.9268L58.9957 77.0578ZM85.2016 72.1887L80.834 77.0578L85.2016 81.9268L89.5693 77.0578L85.2016 72.1887ZM69.9149 77.0578L74.2825 72.1887L78.6502 77.0578L74.2825 81.9268L69.9149 77.0578ZM96.1208 72.1887L91.7531 77.0578L96.1208 81.9268L100.488 77.0578L96.1208 72.1887ZM113.591 77.0578L117.959 72.1887L122.327 77.0578L117.959 81.9268L113.591 77.0578ZM107.04 72.1887L102.672 77.0578L107.04 81.9268L111.408 77.0578L107.04 72.1887ZM124.51 77.0578L128.878 72.1887L133.246 77.0578L128.878 81.9268L124.51 77.0578ZM150.716 72.1887L146.349 77.0578L150.716 81.9268L155.084 77.0578L150.716 72.1887ZM135.43 77.0578L139.797 72.1887L144.165 77.0578L139.797 81.9268L135.43 77.0578ZM36.0656 78.6808L31.698 83.5499L36.0656 88.4189L40.4332 83.5499L36.0656 78.6808ZM57.9038 78.6808L53.5362 83.5499L57.9038 88.4189L62.2715 83.5499L57.9038 78.6808ZM42.6171 83.5499L46.9847 78.6808L51.3524 83.5499L46.9847 88.4189L42.6171 83.5499ZM68.823 78.6808L64.4553 83.5499L68.823 88.4189L73.1906 83.5499L68.823 78.6808ZM86.2935 83.5499L90.6612 78.6808L95.0288 83.5499L90.6612 88.4189L86.2935 83.5499ZM79.7421 78.6808L75.3744 83.5499L79.7421 88.4189L84.1097 83.5499L79.7421 78.6808ZM97.2127 83.5499L101.58 78.6808L105.948 83.5499L101.58 88.4189L97.2127 83.5499ZM123.419 78.6808L119.051 83.5499L123.419 88.4189L127.786 83.5499L123.419 78.6808ZM108.132 83.5499L112.499 78.6808L116.867 83.5499L112.499 88.4189L108.132 83.5499ZM134.338 78.6808L129.97 83.5499L134.338 88.4189L138.705 83.5499L134.338 78.6808ZM145.257 78.6808L140.889 83.5499L145.257 88.4189L149.624 83.5499L145.257 78.6808ZM26.2384 90.0419L30.606 85.1729L34.9737 90.0419L30.606 94.911L26.2384 90.0419ZM52.4443 85.1729L48.0766 90.0419L52.4443 94.911L56.8119 90.0419L52.4443 85.1729ZM37.1575 90.0419L41.5252 85.1729L45.8928 90.0419L41.5252 94.911L37.1575 90.0419ZM63.3634 85.1729L58.9957 90.0419L63.3634 94.911L67.731 90.0419L63.3634 85.1729ZM80.834 90.0419L85.2016 85.1729L89.5693 90.0419L85.2016 94.911L80.834 90.0419ZM74.2825 85.1729L69.9149 90.0419L74.2825 94.911L78.6502 90.0419L74.2825 85.1729ZM91.7531 90.0419L96.1208 85.1729L100.488 90.0419L96.1208 94.911L91.7531 90.0419ZM117.959 85.1729L113.591 90.0419L117.959 94.911L122.327 90.0419L117.959 85.1729ZM102.672 90.0419L107.04 85.1729L111.408 90.0419L107.04 94.911L102.672 90.0419ZM128.878 85.1729L124.51 90.0419L128.878 94.911L133.246 90.0419L128.878 85.1729ZM146.349 90.0419L150.716 85.1729L155.084 90.0419L150.716 94.911L146.349 90.0419ZM139.797 85.1729L135.43 90.0419L139.797 94.911L144.165 90.0419L139.797 85.1729ZM31.698 96.534L36.0656 91.665L40.4332 96.534L36.0656 101.403L31.698 96.534ZM53.5362 96.534L57.9038 91.665L62.2715 96.534L57.9038 101.403L53.5362 96.534ZM46.9847 91.665L42.6171 96.534L46.9847 101.403L51.3524 96.534L46.9847 91.665ZM64.4553 96.534L68.823 91.665L73.1906 96.534L68.823 101.403L64.4553 96.534ZM90.6612 91.665L86.2935 96.534L90.6612 101.403L95.0288 96.534L90.6612 91.665ZM75.3744 96.534L79.7421 91.665L84.1097 96.534L79.7421 101.403L75.3744 96.534ZM101.58 91.665L97.2127 96.534L101.58 101.403L105.948 96.534L101.58 91.665ZM119.051 96.534L123.419 91.665L127.786 96.534L123.419 101.403L119.051 96.534ZM112.499 91.665L108.132 96.534L112.499 101.403L116.867 96.534L112.499 91.665ZM129.97 96.534L134.338 91.665L138.705 96.534L134.338 101.403L129.97 96.534ZM140.889 96.534L145.257 91.665L149.624 96.534L145.257 101.403L140.889 96.534ZM30.606 98.1571L26.2384 103.026L30.606 107.895L34.9737 103.026L30.606 98.1571ZM48.0766 103.026L52.4443 98.1571L56.8119 103.026L52.4443 107.895L48.0766 103.026ZM41.5252 98.1571L37.1575 103.026L41.5252 107.895L45.8928 103.026L41.5252 98.1571ZM58.9957 103.026L63.3634 98.1571L67.731 103.026L63.3634 107.895L58.9957 103.026ZM85.2016 98.1571L80.834 103.026L85.2016 107.895L89.5693 103.026L85.2016 98.1571ZM69.9149 103.026L74.2825 98.1571L78.6502 103.026L74.2825 107.895L69.9149 103.026ZM96.1208 98.1571L91.7531 103.026L96.1208 107.895L100.488 103.026L96.1208 98.1571ZM113.591 103.026L117.959 98.1571L122.327 103.026L117.959 107.895L113.591 103.026ZM107.04 98.1571L102.672 103.026L107.04 107.895L111.408 103.026L107.04 98.1571ZM124.51 103.026L128.878 98.1571L133.246 103.026L128.878 107.895L124.51 103.026ZM150.716 98.1571L146.349 103.026L150.716 107.895L155.084 103.026L150.716 98.1571ZM135.43 103.026L139.797 98.1571L144.165 103.026L139.797 107.895L135.43 103.026ZM36.0656 104.649L31.698 109.518L36.0656 114.387L40.4332 109.518L36.0656 104.649ZM57.9038 104.649L53.5362 109.518L57.9038 114.387L62.2715 109.518L57.9038 104.649ZM42.6171 109.518L46.9847 104.649L51.3524 109.518L46.9847 114.387L42.6171 109.518ZM68.823 104.649L64.4553 109.518L68.823 114.387L73.1906 109.518L68.823 104.649ZM86.2935 109.518L90.6612 104.649L95.0288 109.518L90.6612 114.387L86.2935 109.518ZM79.7421 104.649L75.3744 109.518L79.7421 114.387L84.1097 109.518L79.7421 104.649ZM97.2127 109.518L101.58 104.649L105.948 109.518L101.58 114.387L97.2127 109.518ZM123.419 104.649L119.051 109.518L123.419 114.387L127.786 109.518L123.419 104.649ZM108.132 109.518L112.499 104.649L116.867 109.518L112.499 114.387L108.132 109.518ZM134.338 104.649L129.97 109.518L134.338 114.387L138.705 109.518L134.338 104.649ZM145.257 104.649L140.889 109.518L145.257 114.387L149.624 109.518L145.257 104.649ZM26.2384 116.01L30.606 111.141L34.9737 116.01L30.606 120.879L26.2384 116.01ZM48.0766 116.01L52.4443 111.141L56.8119 116.01L52.4443 120.879L48.0766 116.01ZM41.5252 111.141L37.1575 116.01L41.5252 120.879L45.8928 116.01L41.5252 111.141ZM58.9957 116.01L63.3634 111.141L67.731 116.01L63.3634 120.879L58.9957 116.01ZM85.2016 111.141L80.834 116.01L85.2016 120.879L89.5693 116.01L85.2016 111.141ZM69.9149 116.01L74.2825 111.141L78.6502 116.01L74.2825 120.879L69.9149 116.01ZM96.1208 111.141L91.7531 116.01L96.1208 120.879L100.488 116.01L96.1208 111.141ZM113.591 116.01L117.959 111.141L122.327 116.01L117.959 120.879L113.591 116.01ZM107.04 111.141L102.672 116.01L107.04 120.879L111.408 116.01L107.04 111.141ZM124.51 116.01L128.878 111.141L133.246 116.01L128.878 120.879L124.51 116.01ZM150.716 111.141L146.349 116.01L150.716 120.879L155.084 116.01L150.716 111.141ZM135.43 116.01L139.797 111.141L144.165 116.01L139.797 120.879L135.43 116.01ZM36.0656 117.633L31.698 122.502L36.0656 127.371L40.4332 122.502L36.0656 117.633ZM57.9038 117.633L53.5362 122.502L57.9038 127.371L62.2715 122.502L57.9038 117.633ZM42.6171 122.502L46.9847 117.633L51.3524 122.502L46.9847 127.371L42.6171 122.502ZM68.823 117.633L64.4553 122.502L68.823 127.371L73.1906 122.502L68.823 117.633ZM86.2935 122.502L90.6612 117.633L95.0288 122.502L90.6612 127.371L86.2935 122.502ZM79.7421 117.633L75.3744 122.502L79.7421 127.371L84.1097 122.502L79.7421 117.633ZM97.2127 122.502L101.58 117.633L105.948 122.502L101.58 127.371L97.2127 122.502ZM123.419 117.633L119.051 122.502L123.419 127.371L127.786 122.502L123.419 117.633ZM108.132 122.502L112.499 117.633L116.867 122.502L112.499 127.371L108.132 122.502ZM134.338 117.633L129.97 122.502L134.338 127.371L138.705 122.502L134.338 117.633ZM145.257 117.633L140.889 122.502L145.257 127.371L149.624 122.502L145.257 117.633ZM26.2384 128.995L30.606 124.125L34.9737 128.995L30.606 133.864L26.2384 128.995ZM52.4443 124.125L48.0766 128.995L52.4443 133.864L56.8119 128.995L52.4443 124.125ZM37.1575 128.995L41.5252 124.125L45.8928 128.995L41.5252 133.864L37.1575 128.995ZM63.3634 124.125L58.9957 128.995L63.3634 133.864L67.731 128.995L63.3634 124.125ZM80.834 128.995L85.2016 124.125L89.5693 128.995L85.2016 133.864L80.834 128.995ZM74.2825 124.125L69.9149 128.995L74.2825 133.864L78.6502 128.995L74.2825 124.125ZM91.7531 128.995L96.1208 124.125L100.488 128.995L96.1208 133.864L91.7531 128.995ZM117.959 124.125L113.591 128.995L117.959 133.864L122.327 128.995L117.959 124.125ZM102.672 128.995L107.04 124.125L111.408 128.995L107.04 133.864L102.672 128.995ZM128.878 124.125L124.51 128.995L128.878 133.864L133.246 128.995L128.878 124.125ZM146.349 128.995L150.716 124.125L155.084 128.995L150.716 133.864L146.349 128.995ZM139.797 124.125L135.43 128.995L139.797 133.864L144.165 128.995L139.797 124.125ZM31.698 135.487L36.0656 130.618L40.4332 135.487L36.0656 140.356L31.698 135.487ZM53.5362 135.487L57.9038 130.618L62.2715 135.487L57.9038 140.356L53.5362 135.487ZM46.9847 130.618L42.6171 135.487L46.9847 140.356L51.3524 135.487L46.9847 130.618ZM64.4553 135.487L68.823 130.618L73.1906 135.487L68.823 140.356L64.4553 135.487ZM90.6612 130.618L86.2935 135.487L90.6612 140.356L95.0288 135.487L90.6612 130.618ZM75.3744 135.487L79.7421 130.618L84.1097 135.487L79.7421 140.356L75.3744 135.487ZM101.58 130.618L97.2127 135.487L101.58 140.356L105.948 135.487L101.58 130.618ZM119.051 135.487L123.419 130.618L127.786 135.487L123.419 140.356L119.051 135.487ZM112.499 130.618L108.132 135.487L112.499 140.356L116.867 135.487L112.499 130.618ZM129.97 135.487L134.338 130.618L138.705 135.487L134.338 140.356L129.97 135.487ZM140.889 135.487L145.257 130.618L149.624 135.487L145.257 140.356L140.889 135.487ZM30.606 137.11L26.2384 141.979L30.606 146.848L34.9737 141.979L30.606 137.11ZM48.0766 141.979L52.4443 137.11L56.8119 141.979L52.4443 146.848L48.0766 141.979ZM41.5252 137.11L37.1575 141.979L41.5252 146.848L45.8928 141.979L41.5252 137.11ZM58.9957 141.979L63.3634 137.11L67.731 141.979L63.3634 146.848L58.9957 141.979ZM85.2016 137.11L80.834 141.979L85.2016 146.848L89.5693 141.979L85.2016 137.11ZM69.9149 141.979L74.2825 137.11L78.6502 141.979L74.2825 146.848L69.9149 141.979ZM96.1208 137.11L91.7531 141.979L96.1208 146.848L100.488 141.979L96.1208 137.11ZM113.591 141.979L117.959 137.11L122.327 141.979L117.959 146.848L113.591 141.979ZM107.04 137.11L102.672 141.979L107.04 146.848L111.408 141.979L107.04 137.11ZM124.51 141.979L128.878 137.11L133.246 141.979L128.878 146.848L124.51 141.979ZM150.716 137.11L146.349 141.979L150.716 146.848L155.084 141.979L150.716 137.11ZM135.43 141.979L139.797 137.11L144.165 141.979L139.797 146.848L135.43 141.979ZM36.0656 143.602L31.698 148.471L36.0656 153.34L40.4332 148.471L36.0656 143.602ZM57.9038 143.602L53.5362 148.471L57.9038 153.34L62.2715 148.471L57.9038 143.602ZM42.6171 148.471L46.9847 143.602L51.3524 148.471L46.9847 153.34L42.6171 148.471ZM68.823 143.602L64.4553 148.471L68.823 153.34L73.1906 148.471L68.823 143.602ZM86.2935 148.471L90.6612 143.602L95.0288 148.471L90.6612 153.34L86.2935 148.471ZM79.7421 143.602L75.3744 148.471L79.7421 153.34L84.1097 148.471L79.7421 143.602ZM97.2127 148.471L101.58 143.602L105.948 148.471L101.58 153.34L97.2127 148.471ZM123.419 143.602L119.051 148.471L123.419 153.34L127.786 148.471L123.419 143.602ZM108.132 148.471L112.499 143.602L116.867 148.471L112.499 153.34L108.132 148.471ZM134.338 143.602L129.97 148.471L134.338 153.34L138.705 148.471L134.338 143.602ZM145.257 143.602L140.889 148.471L145.257 153.34L149.624 148.471L145.257 143.602ZM26.2384 154.963L30.606 150.094L34.9737 154.963L30.606 159.832L26.2384 154.963ZM52.4443 150.094L48.0766 154.963L52.4443 159.832L56.8119 154.963L52.4443 150.094ZM37.1575 154.963L41.5252 150.094L45.8928 154.963L41.5252 159.832L37.1575 154.963ZM63.3634 150.094L58.9957 154.963L63.3634 159.832L67.731 154.963L63.3634 150.094ZM80.834 154.963L85.2016 150.094L89.5693 154.963L85.2016 159.832L80.834 154.963ZM74.2825 150.094L69.9149 154.963L74.2825 159.832L78.6502 154.963L74.2825 150.094ZM91.7531 154.963L96.1208 150.094L100.488 154.963L96.1208 159.832L91.7531 154.963ZM117.959 150.094L113.591 154.963L117.959 159.832L122.327 154.963L117.959 150.094ZM102.672 154.963L107.04 150.094L111.408 154.963L107.04 159.832L102.672 154.963ZM128.878 150.094L124.51 154.963L128.878 159.832L133.246 154.963L128.878 150.094ZM146.349 154.963L150.716 150.094L155.084 154.963L150.716 159.832L146.349 154.963ZM139.797 150.094L135.43 154.963L139.797 159.832L144.165 154.963L139.797 150.094Z" fill="#C04437"/>
<path d="M86.8906 42.9131C88.63 41.2508 91.37 41.2508 93.1094 42.9131L139.021 86.7881C140.875 88.5604 140.875 91.5216 139.021 93.2939L93.1094 137.169C91.37 138.831 88.63 138.831 86.8906 137.169L40.9795 93.2939C39.1253 91.5216 39.1252 88.5604 40.9795 86.7881L86.8906 42.9131Z" fill="#BF4037" stroke="#AA2F25" stroke-width="3"/>
<g filter="url(#filter0_d_324_104476)">
<path fill-rule="evenodd" clip-rule="evenodd" d="M112.497 91.4908C113.327 90.7023 113.327 89.3796 112.497 88.5911L91.3782 68.5239C90.6063 67.7904 89.3949 67.7904 88.6229 68.5239L67.5043 88.5911C66.6745 89.3796 66.6745 90.7023 67.5043 91.4908L88.6229 111.558C89.3949 112.291 90.6063 112.291 91.3782 111.558L112.497 91.4908Z" fill="#AB3129"/>
</g>
<defs>
<filter id="filter0_d_324_104476" x="66.8828" y="67.9727" width="46.2363" height="45.1367" filterUnits="userSpaceOnUse" color-interpolation-filters="sRGB">
<feFlood flood-opacity="0" result="BackgroundImageFix"/>
<feColorMatrix in="SourceAlpha" type="matrix" values="0 0 0 0 0 0 0 0 0 0 0 0 0 0 0 0 0 0 127 0" result="hardAlpha"/>
<feOffset dy="1"/>
<feColorMatrix type="matrix" values="0 0 0 0 0 0 0 0 0 0 0 0 0 0 0 0 0 0 0.2 0"/>
<feBlend mode="normal" in2="BackgroundImageFix" result="effect1_dropShadow_324_104476"/>
<feBlend mode="normal" in="SourceGraphic" in2="effect1_dropShadow_324_104476" result="shape"/>
</filter>
<linearGradient id="paint0_linear_324_104476" x1="89.9994" y1="2" x2="89.9994" y2="178.087" gradientUnits="userSpaceOnUse">
<stop stop-color="white" stop-opacity="0.85"/>
<stop offset="1" stop-color="white" stop-opacity="0.15"/>
</linearGradient>
<linearGradient id="paint1_linear_324_104476" x1="89.9994" y1="2" x2="89.9994" y2="178.087" gradientUnits="userSpaceOnUse">
<stop stop-color="#F1F1F1"/>
<stop offset="1" stop-color="#E7DEDE"/>
</linearGradient>
</defs>
</svg>
