<svg width="184" height="184" viewBox="0 0 184 184" fill="none" xmlns="http://www.w3.org/2000/svg">
<rect x="1" y="1" width="182" height="182" rx="13" stroke="black" stroke-opacity="0.25" stroke-width="2"/>
<rect x="2.5" y="2.5" width="179" height="179" rx="11.5" fill="#E9E9E9" stroke="url(#paint0_linear_324_104567)"/>
<rect x="41.0449" y="30.5" width="101.909" height="123" rx="1.5" fill="#D7D5D7" stroke="#CDCFD6"/>
<path d="M103.962 106.144C98.7694 101.99 91.154 93.3362 88.0386 89.8747C87.3463 89.1824 85.9617 89.1824 85.2694 89.8747C82.154 93.3362 74.8848 101.99 69.3463 106.144C57.2309 116.529 52.3848 121.375 52.3848 130.375C52.3848 140.759 61.3848 149.413 72.4617 149.413C76.6155 149.413 81.4617 148.029 84.5771 145.605L84.9232 145.259C84.2309 150.452 82.5001 158.067 77.3078 163.259C76.6155 163.952 76.9617 164.644 78.0001 164.644H87.0001H96.0001C96.6925 164.644 97.0386 163.605 96.6925 163.259C91.5001 158.067 89.7694 150.798 89.0771 145.259L89.4232 145.605C92.1925 148.029 97.3848 149.413 101.539 149.413C112.616 149.413 121.616 140.759 121.616 130.375C121.616 121.375 116.769 116.529 103.962 106.144Z" fill="#24242E"/>
<path d="M35.5383 80.7311C33.2306 78.8849 29.846 75.0388 28.4614 73.5003C28.1537 73.1926 27.5383 73.1926 27.2306 73.5003C25.846 75.0388 22.6152 78.8849 20.1537 80.7311C14.7691 85.3465 12.6152 87.5003 12.6152 91.5003C12.6152 96.1157 16.6152 99.9618 21.5383 99.9618C23.3845 99.9618 25.5383 99.3465 26.9229 98.2695L27.0768 98.1157C26.7691 100.423 25.9998 103.808 23.6922 106.116C23.3845 106.423 23.5383 106.731 23.9998 106.731H27.9998H31.9998C32.3075 106.731 32.4614 106.27 32.3075 106.116C29.9998 103.808 29.2306 100.577 28.9229 98.1157L29.0768 98.2695C30.3075 99.3465 32.6152 99.9618 34.4614 99.9618C39.3845 99.9618 43.3845 96.1157 43.3845 91.5003C43.3845 87.5003 41.2306 85.3465 35.5383 80.7311Z" fill="#24242E"/>
<path d="M38.857 23.3C38.857 30.922 38.413 34.548 34.639 35.88C34.195 36.028 33.529 36.102 33.233 36.176C33.455 36.25 34.269 36.472 34.861 36.694C39.227 38.618 39.227 43.428 39.227 48.312C39.227 52.456 39.227 55.786 38.043 58.746C35.675 64.592 28.127 64.666 27.461 64.666C22.873 64.666 19.839 62.742 18.433 60.966C16.657 58.746 16.139 55.49 16.139 52.604C16.139 41.652 16.139 37.952 22.207 36.176C17.471 35.362 16.805 32.254 16.805 23.744C16.805 20.118 16.879 11.09 27.831 11.09C32.567 11.09 35.527 13.014 36.933 14.79C38.857 17.38 38.857 21.08 38.857 23.3ZM32.715 24.41C32.789 20.858 32.937 16.27 27.905 16.27C23.243 16.27 22.799 19.97 22.799 24.78C22.799 29.738 22.799 33.438 27.979 33.438C32.493 33.438 32.567 30.034 32.715 24.41ZM32.863 49.348C32.863 44.168 32.863 39.728 27.683 39.728C26.869 39.728 25.537 39.876 24.427 40.69C22.577 42.17 22.577 44.168 22.577 49.644C22.577 55.046 22.577 58.82 27.683 58.82C32.863 58.82 32.863 54.528 32.863 49.348Z" fill="#24242E"/>
<defs>
<linearGradient id="paint0_linear_324_104567" x1="92" y1="2" x2="92" y2="182" gradientUnits="userSpaceOnUse">
<stop stop-color="white" stop-opacity="0.85"/>
<stop offset="1" stop-color="white" stop-opacity="0.15"/>
</linearGradient>
</defs>
</svg>
