<svg width="184" height="184" viewBox="0 0 184 184" fill="none" xmlns="http://www.w3.org/2000/svg">
<rect x="1" y="1" width="182" height="182" rx="13" stroke="black" stroke-opacity="0.25" stroke-width="2"/>
<rect x="2.5" y="2.5" width="179" height="179" rx="11.5" fill="#E9E9E9" stroke="url(#paint0_linear_324_104474)"/>
<rect x="41.0449" y="30.5" width="101.909" height="123" rx="1.5" fill="#D7D5D7" stroke="#CDCFD6"/>
<g clip-path="url(#clip0_324_104474)">
<path d="M129.378 37.4697V163.657C129.378 164.919 128.789 167.69 127.877 168.582C126.964 169.474 125.803 170.001 124.513 170.001H17.486C16.1957 170.001 14.9967 169.499 14.0844 168.606C13.172 167.714 12.6211 166.453 12.6211 165.192V130.993L55.2535 116.278H55.367V116.183C54.0758 114.049 53.6751 111.51 54.2481 109.095C54.6284 107.541 55.5613 106.169 56.8801 105.225C58.199 104.281 59.818 103.826 61.4481 103.941C62.3802 103.911 63.309 104.065 64.1786 104.395C65.0481 104.724 65.8404 105.223 66.5076 105.86C67.1488 106.617 67.6238 107.494 67.9028 108.438C68.1818 109.382 68.2589 110.372 68.1292 111.347V111.664L68.3076 111.394C69.0888 110.255 69.7208 109.024 70.1887 107.731L70.9995 95.9972C70.9022 93.4125 70.9995 90.9547 71.1292 88.9726C71.1292 87.5297 71.2751 86.277 71.2589 85.2146C71.2589 79.6964 70.1724 71.9266 70.1562 71.8473L69.913 68.3588L69.3779 66.4877C69.2775 66.1549 69.0734 65.8611 68.7941 65.6473C68.5022 65.0923 62.5022 53.168 57.9616 48.5061C57.3262 47.9701 56.8638 47.2651 56.6306 46.4769C56.3974 45.6886 56.4035 44.8511 56.6481 44.0662C57.6211 41.4815 62.713 36.7245 86.0157 34.124C101.81 32.3639 118.626 35.0595 129.378 37.4697Z" fill="#E7E7E7"/>
<path d="M30.1167 158.369C29.4544 157.949 28.9901 157.289 28.8259 156.534C28.6617 155.779 28.8111 154.991 29.2411 154.344C29.6711 153.697 30.3466 153.243 31.119 153.082C31.8914 152.922 32.6974 153.068 33.3596 153.488C34.0219 153.908 34.4862 154.569 34.6504 155.323C34.8146 156.078 34.6652 156.866 34.2352 157.513C33.8052 158.161 33.1297 158.614 32.3573 158.775C31.5849 158.935 30.7789 158.789 30.1167 158.369ZM19.6258 162.315C20.1634 162.878 20.9078 163.21 21.6954 163.236C22.483 163.263 23.2492 162.983 23.8254 162.458C24.4017 161.932 24.7408 161.205 24.7681 160.435C24.7955 159.665 24.5089 158.916 23.9713 158.353C23.4338 157.79 22.6893 157.459 21.9018 157.432C21.1142 157.405 20.348 157.685 19.7717 158.211C19.1955 158.736 18.8564 159.463 18.829 160.233C18.8017 161.003 19.0883 161.752 19.6258 162.315ZM88.3435 56.9465L91.3918 49.1179L88.1489 42.3511C85.7167 42.573 79.3605 43.1752 74.4637 43.9358L72.6152 50.0529L76.977 57.6913C79.2957 57.5011 85.3113 57.0415 88.3435 56.9465ZM50.7255 128.148C49.9949 128.321 49.3583 128.757 48.9445 129.371C48.5307 129.984 48.3703 130.728 48.4959 131.452C48.6215 132.176 49.0236 132.827 49.621 133.273C50.2184 133.718 50.9667 133.926 51.7146 133.853C52.4452 133.681 53.0817 133.244 53.4956 132.631C53.9094 132.018 54.0698 131.274 53.9442 130.55C53.8186 129.825 53.4165 129.175 52.8191 128.729C52.2217 128.283 51.4734 128.076 50.7255 128.148ZM41.2237 146.531C40.4776 146.285 39.6621 146.339 38.9566 146.681C38.2512 147.023 37.7135 147.624 37.4619 148.354C37.2103 149.083 37.2655 149.88 37.6152 150.569C37.9649 151.259 38.5805 151.784 39.3266 152.03C40.0727 152.276 40.8882 152.222 41.5937 151.88C42.2992 151.539 42.8368 150.937 43.0884 150.208C43.34 149.478 43.2848 148.681 42.9351 147.992C42.5855 147.302 41.9698 146.777 41.2237 146.531ZM47.1421 137.91C46.3572 137.849 45.5798 138.095 44.9807 138.595C44.3817 139.094 44.0101 139.805 43.9478 140.573C43.8854 141.34 44.1374 142.099 44.6482 142.685C45.1591 143.27 45.887 143.633 46.6718 143.694C47.4567 143.755 48.2341 143.509 48.8331 143.01C49.4322 142.511 49.8038 141.799 49.8661 141.032C49.9285 140.265 49.6765 139.505 49.1656 138.92C48.6548 138.334 47.9269 137.971 47.1421 137.91ZM87.0625 99.2745C88.1651 99.4964 88.0192 101.477 90.046 101.699C92.0728 101.921 92.543 99.9084 92.2674 98.5297C91.8565 97.4169 91.1781 96.4169 90.2892 95.6138C90.2956 96.1654 90.5091 96.6956 90.8891 97.1034C91.5215 97.8166 92.3971 100.748 90.6459 100.653C88.8947 100.558 89.4136 99.0685 87.6786 98.4505C87.2053 98.2681 86.6815 98.2538 86.1985 98.4102C85.7155 98.5666 85.304 98.8837 85.0357 99.3062C85.7004 99.1481 86.3929 99.1373 87.0625 99.2745ZM97.9749 83.3163C101.485 83.7091 104.866 84.8448 107.882 86.6442H107.055L106.455 86.3907C105.765 86.4944 105.11 86.7549 104.542 87.1514C103.488 87.912 104.963 87.8486 104.963 87.8486C102.54 88.745 99.9373 89.0813 97.3588 88.8312C93.5483 88.3241 93.4348 87.4208 92.1701 87.4049C90.9054 87.3891 90.5486 87.4049 91.0675 86.9136C91.8773 86.0763 92.6353 85.1926 93.3376 84.2672C93.6781 83.6967 94.1969 83.0152 94.6023 83.0152C95.7336 83.0142 96.8626 83.115 97.9749 83.3163ZM100.602 84.6633C100.594 85.3432 100.4 86.0086 100.041 86.5908C99.6817 87.1731 99.17 87.651 98.5587 87.9754C99.8166 88.2021 101.113 88.1038 102.32 87.6902C103.828 87.0087 104.201 86.3273 104.234 86.1054C104.266 85.8836 103.991 85.6776 103.764 85.4874C102.725 85.1582 101.67 84.8831 100.602 84.6633ZM98.8019 84.5207C98.8019 84.941 98.6311 85.3441 98.327 85.6413C98.0229 85.9385 97.6105 86.1054 97.1804 86.1054C96.7504 86.1054 96.338 85.9385 96.0339 85.6413C95.7298 85.3441 95.559 84.941 95.559 84.5207C95.5502 84.3994 95.5502 84.2776 95.559 84.1562H94.6996C94.5968 84.1885 94.5027 84.2426 94.4239 84.3147V84.5207C94.372 84.8991 94.4034 85.284 94.5162 85.6495C94.6289 86.015 94.8202 86.3528 95.0774 86.6401C95.3346 86.9275 95.6517 87.1578 96.0074 87.3155C96.3632 87.4733 96.7493 87.5549 97.1399 87.5549C97.5305 87.5549 97.9166 87.4733 98.2723 87.3155C98.628 87.1578 98.9451 86.9275 99.2023 86.6401C99.4595 86.3528 99.6509 86.015 99.7636 85.6495C99.8763 85.284 99.9078 84.8991 99.8558 84.5207L98.737 84.3622C98.737 84.3622 98.8019 84.4732 98.8019 84.5207ZM113.865 57.8656L118.016 50.5125L116.395 43.6189C114.303 43.302 109.195 42.6047 104.509 42.3828L101.169 49.0387L104.412 57.1683C106.358 57.3268 111.157 57.5962 113.865 57.8656ZM129.378 61.2982V48.6307L126.934 52.5726L129.378 61.2982ZM129.366 37.4543V43.7932C129.304 43.8492 129.412 43.9131 129.366 43.9834L124.113 51.4791C124.001 51.6487 123.926 51.8389 123.893 52.0379C123.859 52.2368 123.868 52.4404 123.918 52.636L126.545 62.6198C126.617 62.8866 126.765 63.128 126.972 63.3159C127.178 63.5039 127.435 63.6307 127.713 63.6815L129.366 63.9668V165.241C129.366 166.502 128.822 167.717 127.909 168.608C126.997 169.5 125.76 170.001 124.47 170.001L126.642 167.117C126.642 167.117 128.588 163.852 125.54 162.679C124.669 162.226 123.663 162.086 122.697 162.283C121.731 162.48 120.867 163.001 120.254 163.757L115.389 170.001H67.005L56.9357 154.233C56.9109 154.193 56.878 154.158 56.8389 154.13C56.7999 154.102 56.7556 154.083 56.7086 154.073C56.6616 154.062 56.613 154.061 56.5657 154.07C56.5183 154.078 56.4732 154.096 56.433 154.122C56.3918 154.146 56.356 154.178 56.3278 154.217C56.2996 154.255 56.2796 154.298 56.269 154.344C56.2584 154.39 56.2574 154.437 56.2661 154.484C56.2748 154.53 56.293 154.574 56.3195 154.613L66.1294 170.001H53.1577C53.8806 168.634 54.2586 167.118 54.2603 165.58C54.2603 165.358 54.2603 165.12 54.2603 164.898C54.2451 164.666 54.1634 164.444 54.0246 164.255C53.8858 164.067 53.6956 163.92 53.4756 163.833C53.2556 163.745 53.0148 163.72 52.7808 163.76C52.5468 163.799 52.329 163.903 52.1524 164.058C52.0035 164.188 51.8879 164.351 51.8147 164.532C51.7415 164.714 51.7128 164.91 51.7308 165.104C51.7308 165.263 51.7308 165.421 51.7308 165.58C51.7218 167.191 51.1497 168.751 50.1093 170.001H44.1099L50.2066 164.724C50.3758 164.578 50.4975 164.387 50.5564 164.174C50.6154 163.961 50.609 163.736 50.5382 163.527C50.4674 163.317 50.3352 163.133 50.158 162.996C49.9809 162.86 49.7666 162.777 49.5418 162.759L40.0076 161.919C39.813 161.332 39.6185 160.762 39.4239 160.239C40.7525 159.05 42.4871 158.389 44.2883 158.385C45.5009 158.375 46.6972 158.659 47.7697 159.213C48.8422 159.766 49.7576 160.57 50.4336 161.554C50.5358 161.712 50.6739 161.843 50.8371 161.94C51.0003 162.036 51.1841 162.094 51.3741 162.109C51.6108 162.131 51.8491 162.088 52.0617 161.984C52.2744 161.88 52.4527 161.72 52.5763 161.521C52.6999 161.322 52.7637 161.094 52.7604 160.862C52.7571 160.629 52.6869 160.402 52.5577 160.207C51.7537 159.028 50.694 158.035 49.4539 157.301C48.2138 156.566 46.8235 156.107 45.3815 155.955C43.9396 155.804 42.4812 155.965 41.1098 156.426C39.7384 156.887 38.4875 157.637 37.4457 158.623C37.4457 158.623 36.9593 158.623 36.8944 159.383C36.8944 159.875 38.5159 164.835 39.7806 170.001H17.4855C16.3572 169.999 15.2648 169.614 14.3951 168.911C13.5255 168.209 12.9327 167.233 12.7184 166.15C13.5206 165.823 14.2073 165.273 14.6942 164.569C15.181 163.865 15.4468 163.038 15.4587 162.188L14.3561 155.58L12.6211 155.691V130.224L54.1792 116.136C53.7587 115.346 53.4166 114.518 53.1577 113.664C52.5253 111.509 52.8172 103.252 60.7137 103.046C67.7509 102.872 68.5778 107.388 68.6102 109.274C68.9533 108.811 69.2518 108.317 69.502 107.8L70.3452 96.1051C70.2479 93.5378 70.3452 91.129 70.4911 89.0847C70.4911 87.6426 70.6371 86.3907 70.6209 85.3289C70.5236 79.8141 69.5183 71.938 69.5183 71.938L69.3723 68.4199C69.252 67.5194 69.0401 66.6328 68.74 65.7734C68.74 65.7734 62.5297 53.4442 57.8599 48.6425C53.1901 43.8408 58.0221 37.2483 85.9599 34.1264C100.342 32.5258 116.281 34.5226 129.366 37.4543ZM74.8529 59.894C74.9795 60.1182 75.1649 60.3053 75.3901 60.4362C75.6152 60.5671 75.8719 60.637 76.1338 60.6389H76.2635C76.3608 60.6389 86.6085 59.799 89.365 59.799C89.6652 59.8006 89.9587 59.7117 90.2053 59.5444C90.452 59.3771 90.6398 59.1395 90.7432 58.864L94.3429 49.6409C94.4726 49.3092 94.4726 48.9424 94.3429 48.6108L90.3541 40.2117C90.2218 39.9496 90.0119 39.7323 89.7516 39.5882C89.4914 39.4441 89.1929 39.3797 88.8947 39.4035C88.5056 39.4035 79.3119 40.1959 72.9882 41.3052C72.7079 41.3555 72.4485 41.484 72.2413 41.6752C72.0342 41.8664 71.8881 42.1122 71.8207 42.3828L69.5993 49.7359C69.5327 49.9282 69.5084 50.1321 69.528 50.3341C69.5475 50.5362 69.6105 50.732 69.7128 50.9086L74.8529 59.894ZM30.5707 128.877L36.1161 132.205C37.1717 131.051 37.8691 129.628 38.1267 128.101L32.4354 126.278L31.9976 126.437L30.5707 128.877ZM24.1659 135.359L27.9277 140.557C29.3646 139.899 30.5796 138.855 31.4301 137.546L26.6954 133.489L24.1659 135.359ZM15.6694 138.877L17.0477 145.089C18.6343 145.047 20.1734 144.551 21.4743 143.663L18.7502 138.148L15.6694 138.877ZM26.063 159.225L23.339 153.06L16.1397 155.437L18.0692 162.426C18.5041 163.273 19.2279 163.946 20.1159 164.328C21.0039 164.71 22.0004 164.777 22.9336 164.518C24.0434 164.186 24.9833 163.455 25.564 162.473C26.1447 161.491 26.323 160.33 26.063 159.225ZM35.5972 153.837L31.4139 148.496L25.0253 152.521L28.6412 158.86C29.2743 159.579 30.1448 160.057 31.1015 160.214C32.0582 160.37 33.0407 160.194 33.8785 159.716C34.8787 159.136 35.614 158.203 35.9335 157.11C36.2531 156.017 36.1328 154.846 35.5972 153.837ZM43.4289 146.325L38.0456 142.157L32.9218 147.656L38.0132 152.933C38.8189 153.461 39.7876 153.697 40.7525 153.602C41.7174 153.507 42.618 153.085 43.2992 152.41C44.1034 151.6 44.5639 150.522 44.5879 149.393C44.612 148.264 44.1979 147.168 43.4289 146.325ZM49.2337 137.165L42.9749 134.408L39.278 140.905L45.5368 144.804C46.4326 145.151 47.4241 145.183 48.3412 144.893C49.2584 144.604 50.044 144.012 50.5633 143.219C51.1867 142.244 51.4031 141.072 51.1677 139.945C50.9324 138.819 50.2633 137.824 49.2986 137.165H49.2337ZM52.5577 126.896L45.7962 125.724L43.8505 132.887L50.8876 135.184C51.849 135.299 52.8209 135.081 53.6352 134.569C54.4495 134.056 55.0549 133.282 55.3467 132.379C55.683 131.298 55.5893 130.133 55.0842 129.116C54.5791 128.099 53.7 127.307 52.6226 126.896H52.5577ZM57.2924 120.811C57.3437 119.763 57.0293 118.729 56.4006 117.879L54.9251 118.402C55.2883 118.724 55.5634 119.129 55.7252 119.581C55.887 120.033 55.9304 120.518 55.8514 120.991C55.7724 121.463 55.5735 121.909 55.2729 122.287C54.9724 122.666 54.5796 122.965 54.1306 123.156C53.6516 123.351 53.1288 123.42 52.6142 123.356C52.0996 123.292 51.6112 123.097 51.1978 122.79C50.7843 122.484 50.4603 122.077 50.2579 121.61C50.0555 121.143 49.9819 120.633 50.0445 120.13L46.3638 121.429V124.076L53.7576 124.614C54.7172 124.49 55.6022 124.042 56.2596 123.347C56.9169 122.653 57.3052 121.756 57.3573 120.811H57.2924ZM60.7299 139.035C58.5409 137.815 57.2924 137.023 57.2924 137.023L59.3192 140.287C59.4258 139.967 59.6195 139.682 59.8794 139.461C60.1393 139.241 60.4558 139.094 60.7948 139.035H60.7299ZM66.1294 141.745C65.0917 141.254 64.1188 140.763 63.2432 140.319C63.3656 140.629 63.408 140.965 63.3666 141.295C63.3252 141.625 63.2014 141.94 63.0059 142.213C62.8105 142.485 62.5494 142.707 62.2458 142.857C61.9422 143.008 61.6054 143.083 61.265 143.076H61.0866C62.319 143.869 63.5837 144.661 64.8484 145.279C64.5706 144.999 64.3783 144.649 64.2932 144.269C64.2081 143.888 64.2336 143.491 64.3668 143.124C64.5 142.756 64.7356 142.432 65.047 142.189C65.3585 141.945 65.7333 141.792 66.1294 141.745ZM71.3019 144.027C70.1668 143.568 69.0967 143.108 68.0589 142.649C68.2601 142.956 68.3741 143.31 68.3894 143.674C68.4046 144.039 68.3205 144.401 68.1457 144.723C67.9709 145.046 67.7116 145.317 67.3944 145.509C67.0772 145.702 66.7134 145.808 66.3402 145.818C66.1947 145.834 66.0478 145.834 65.9024 145.818C67.1023 146.436 68.3022 147.007 69.5183 147.529C69.2315 147.239 69.0374 146.874 68.9596 146.478C68.8818 146.082 68.9237 145.672 69.0802 145.299C69.2367 144.926 69.501 144.606 69.8408 144.377C70.1807 144.148 70.5813 144.021 70.9938 144.011L71.3019 144.027ZM90.3865 149.352C89.2353 149.193 88.1002 149.003 86.9652 148.781C87.2285 148.979 87.4447 149.23 87.5987 149.517C87.7527 149.805 87.8408 150.121 87.857 150.445C87.8545 150.906 87.693 151.352 87.3987 151.711C87.1044 152.071 86.6946 152.323 86.2355 152.426C87.6949 152.696 89.0569 152.886 90.3216 153.044C89.9936 152.853 89.7226 152.581 89.5354 152.256C89.3483 151.93 89.2515 151.562 89.2548 151.189C89.2581 150.816 89.3613 150.45 89.5541 150.127C89.747 149.805 90.0227 149.538 90.3541 149.352H90.3865ZM90.5649 123.505C97.9101 123.283 112.957 115.772 117.514 111.493C114.271 104.964 114.271 96.7548 114.271 89.5918C114.271 88.4667 114.271 87.3732 114.271 86.3115C114.293 81.1876 113.544 76.0884 112.049 71.1773C99.4343 69.3232 84.6627 68.5625 71.6424 71.6527V71.7637C71.6424 72.0331 71.9991 74.5686 72.291 77.7064C72.456 77.5247 72.6539 77.3743 72.8747 77.2627C74.6583 76.296 75.842 76.9616 77.4148 77.0408C78.9876 77.12 81.1766 76.708 80.9982 77.2627C80.9982 77.2627 80.8523 79.2119 78.1282 78.9583C75.4042 78.7048 74.5286 78.4987 73.3936 78.9583C73.0386 79.125 72.7194 79.3562 72.4531 79.6398C72.5828 81.3354 72.6963 83.1103 72.745 84.7109C73.8382 84.297 75.0168 84.1448 76.1825 84.2672C79.4254 84.4098 81.0469 85.8519 81.3387 86.3748C81.3512 86.427 81.3512 86.4812 81.3387 86.5333C81.436 86.9137 81.5009 87.8011 80.1713 88.6727C78.9297 89.3781 77.5024 89.709 76.069 89.6235H75.8582C74.6685 89.7643 73.4675 89.4708 72.4855 88.7995V89.1323C72.1612 95.2176 71.7234 103.537 76.7338 110.399C78.4525 112.745 79.701 114.789 80.7874 116.58C83.7709 121.445 85.1167 123.679 90.5324 123.505H90.5649ZM76.6041 85.5825C76.6041 86.6601 75.9555 87.5475 75.1447 87.5475C74.334 87.5475 73.7178 86.7235 73.6692 85.6934C73.4434 85.7548 73.2214 85.8289 73.0044 85.9153C72.8098 87.1672 73.1017 89.164 75.2582 88.8787C77.4148 88.5935 77.7066 86.4065 77.658 85.3289C77.3021 85.2964 76.9438 85.2964 76.5878 85.3289C76.5987 85.413 76.6041 85.4977 76.6041 85.5825ZM80.8199 86.7552C80.2254 86.2596 79.5443 85.873 78.8092 85.6142C78.89 86.6211 78.6522 87.6279 78.1282 88.4984C80.0578 88.0071 80.7226 87.1355 80.8199 86.7552ZM96.2724 153.567C95.9129 153.41 95.604 153.159 95.3788 152.843C95.1536 152.528 95.0206 152.158 94.994 151.773C94.9673 151.389 95.048 151.005 95.2275 150.662C95.407 150.32 95.6785 150.031 96.013 149.827C94.8617 149.827 93.6943 149.716 92.543 149.605C92.8353 149.853 93.0542 150.172 93.1768 150.53C93.2994 150.889 93.3212 151.273 93.24 151.642C93.1588 152.011 92.9775 152.352 92.7151 152.63C92.4527 152.907 92.1189 153.111 91.7485 153.219C93.5646 153.409 95.105 153.52 96.2724 153.567ZM101.802 149.669C100.553 149.78 99.2883 149.843 98.0398 149.859C98.3724 150.077 98.637 150.38 98.8045 150.735C98.9719 151.091 99.0357 151.484 98.9887 151.873C98.9418 152.261 98.7859 152.629 98.5383 152.937C98.2908 153.244 97.9611 153.479 97.5858 153.615H98.7695L101.802 149.669ZM117.027 161.919C116.597 161.919 116.185 162.086 115.881 162.383C115.577 162.68 115.406 163.083 115.406 163.504C115.406 163.924 115.577 164.327 115.881 164.624C116.185 164.921 116.597 165.088 117.027 165.088C117.457 165.088 117.87 164.921 118.174 164.624C118.478 164.327 118.649 163.924 118.649 163.504C118.649 163.083 118.478 162.68 118.174 162.383C117.87 162.086 117.457 161.919 117.027 161.919ZM98.0398 49.4982L101.931 59.0066C102.036 59.2627 102.215 59.4839 102.444 59.644C102.674 59.8041 102.947 59.8964 103.228 59.9099C103.228 59.9099 111.757 60.4012 114.498 60.7498H114.773C115.04 60.7492 115.301 60.6782 115.529 60.5443C115.758 60.4104 115.945 60.2185 116.07 59.9891L120.935 51.3048C121.111 50.9907 121.163 50.624 121.081 50.2748L118.892 42.0025C118.823 41.7256 118.673 41.4744 118.459 41.2801C118.246 41.0857 117.979 40.9567 117.692 40.909C112.998 40.1797 108.267 39.6983 103.52 39.4669C103.237 39.4575 102.957 39.5271 102.713 39.6674C102.469 39.8077 102.271 40.013 102.142 40.2593L98.0884 48.3414C98.0008 48.521 97.9514 48.7161 97.943 48.9149C97.9347 49.1138 97.9676 49.3122 98.0398 49.4982ZM13.6426 160.841C13.4036 160.401 13.0515 160.03 12.6211 159.764V164.518C13.2489 164.157 13.7073 163.57 13.8982 162.883C14.0891 162.196 13.9973 161.463 13.6426 160.841ZM124.389 164.312C123.918 164.066 123.374 163.991 122.853 164.098C122.331 164.205 121.864 164.488 121.535 164.898L117.595 170.001H122.459L124.989 166.673C124.989 166.673 126.124 164.946 124.389 164.312ZM75.3069 81.589C74.8876 81.6141 74.4785 81.726 74.1067 81.9173C73.7349 82.1085 73.409 82.3747 73.1503 82.6983C75.4604 82.1383 77.9021 82.4614 79.9767 83.6016C79.4655 82.8763 78.7581 82.304 77.9335 81.9486C77.109 81.5933 76.1996 81.4687 75.3069 81.589ZM40.6886 164.185C41.1426 165.77 41.5804 167.354 41.9858 168.939L46.8502 164.645L40.6886 164.185ZM90.6297 84.0611C90.4514 84.2513 90.6297 84.5207 90.6297 84.5207C90.6297 84.5207 92.6565 82.7141 93.3376 82.0327C94.0186 81.3513 100.115 81.7633 105.369 83.7284H105.953C103.487 82.107 100.605 81.1955 97.6344 81.0977C92.0728 80.6223 91.1486 81.3671 91.4567 81.6365C91.7647 81.9059 91.9269 82.001 91.8296 82.2387C91.477 82.8747 91.0759 83.4839 90.6297 84.0611ZM91.8296 78.4512C93.7979 78.3936 95.7544 78.1333 97.6669 77.6747C100.31 77.2407 103.025 77.5654 105.482 78.6097C106.129 78.6814 106.782 78.6814 107.428 78.6097C106.782 77.8247 105.968 77.1866 105.045 76.7397C103.569 76.0583 99.9207 74.4735 98.5587 74.6479C97.1966 74.8222 92.7376 75.6621 92.0728 75.7889C91.408 75.9156 89.1542 75.7889 89.3163 76.7397C89.4785 77.6905 91.3107 78.4037 91.8296 78.4512ZM80.2848 89.9563C79.5162 90.5922 78.6221 91.0669 77.658 91.3509C76.377 91.6203 78.8417 91.8105 79.474 91.3509C79.8944 90.9862 80.1795 90.4959 80.2848 89.9563ZM94.5699 108.751C94.0186 109.005 94.1321 109.765 92.4782 110.067C90.8243 110.368 89.5271 108.815 88.0516 107.816C86.5761 106.818 86.1545 107.816 85.8464 108.212C85.6389 108.481 85.3496 108.677 85.0203 108.774C84.6909 108.871 84.3385 108.863 84.0141 108.751C83.025 108.45 82.3927 107.071 81.7927 108.149C81.2114 108.877 80.5293 109.522 79.7659 110.067C80.2199 110.795 81.0144 110.843 82.49 110.605C82.2608 110.952 82.1794 111.373 82.263 111.778C82.4413 113.093 84.1276 114.092 86.8841 113.822C89.6406 113.553 89.8676 111.984 89.7379 111.841C89.6082 111.699 89.3163 112.555 87.4516 112.951C85.587 113.347 83.6736 112.824 83.5115 111.905C83.3493 110.986 84.6303 110.748 84.6303 110.748C84.9109 110.88 85.1596 111.069 85.36 111.303C86.6409 110.146 89.2839 110.431 90.7594 110.732C92.235 111.033 94.5699 110.97 95.2995 110.114C96.0292 109.258 95.1212 108.513 94.5699 108.751ZM85.0357 104.314C85.0357 102.159 81.436 101.145 80.4793 100.178C80.0612 99.8537 79.7504 99.416 79.586 98.9198C79.4215 98.4235 79.4108 97.8909 79.5551 97.3887C79.7335 96.7548 83.4304 89.8295 83.6574 86.9453C83.7451 86.1398 83.6638 85.3252 83.4185 84.5513C83.1731 83.7775 82.7689 83.0607 82.2305 82.4447C82.9115 83.1578 82.6359 85.4082 82.5873 87.1989C82.1244 89.5534 81.2699 91.8179 80.0578 93.9023C79.0816 95.3047 78.5564 96.9603 78.5498 98.6565C78.9552 100.923 82.1332 101.683 83.2358 102.365C83.98 102.872 84.5956 103.539 85.0357 104.314ZM93.2727 89.7028C92.235 88.7678 91.9269 89.1323 91.9269 89.1323C91.9269 89.1323 91.7972 89.5918 92.689 90.3684C93.4751 90.9414 94.3865 91.3283 95.3516 91.4988C96.3166 91.6693 97.309 91.6187 98.2506 91.3509C98.2506 91.3509 97.1804 90.9389 97.0507 90.8438C96.921 90.7487 94.3104 90.6061 93.2727 89.7028ZM88.311 114.726C86.713 114.804 85.1858 115.394 83.9655 116.405C83.2845 116.897 84.8249 116.516 84.8249 116.516C85.6305 115.831 86.6595 115.449 87.7273 115.439C89.9487 115.169 89.7703 115.835 90.5973 115.914C91.4242 115.993 90.9378 114.631 88.311 114.726Z" fill="#24242E"/>
<path d="M77.9908 115.778C77.2047 116.047 75.7309 116.505 73.8968 116.932C74.6268 115.306 75.1067 113.586 75.3215 111.827C76.3696 113.249 77.2211 114.529 77.9908 115.778ZM66.1346 156.727C66.1346 156.727 64.4971 159.224 64.4971 160.235C64.4971 161.247 65.9873 162.005 65.9873 162.005C65.9873 162.005 67.6249 159.919 67.4775 158.718C67.3043 157.915 66.825 157.204 66.1346 156.727ZM70.5398 169.844C70.5398 169.844 72.1774 167.758 72.03 166.557C71.8444 165.747 71.3469 165.035 70.638 164.565C70.638 164.565 69.0004 167.047 69.0004 168.058C69.0004 169.07 70.5398 169.844 70.5398 169.844ZM68.3945 160.646C68.3945 160.646 66.6751 163.127 66.7569 164.139C66.8388 165.15 68.2308 165.909 68.2308 165.909C68.2308 165.909 69.8684 163.823 69.721 162.637C69.5467 161.843 69.0742 161.14 68.3945 160.662V160.646ZM74.3553 110.436C73.9296 109.772 73.5202 109.093 73.1763 108.413C73.1637 111.636 72.2531 114.797 70.5398 117.564C71.2112 117.469 71.8662 117.342 72.4885 117.216C73.5979 115.114 74.234 112.808 74.3553 110.452V110.436ZM54.7043 142.361C54.7043 142.361 56.3419 140.274 56.1945 139.073C56.0051 138.269 55.508 137.563 54.8025 137.098C54.8025 137.098 53.0831 139.579 53.1649 140.59C53.2468 141.602 54.7534 142.376 54.7534 142.376L54.7043 142.361ZM116.933 89.7958C116.933 88.6737 116.933 87.5832 116.933 86.5243C116.927 81.5871 116.222 76.6739 114.837 71.9212L112.986 71.6367C114.393 76.4825 115.104 81.4918 115.099 86.5243C115.099 87.5832 115.099 88.6737 115.099 89.8116C115.099 97.1605 115.23 105.616 118.865 112.127C121.096 116.169 124.855 119.226 129.362 120.661V120.661C117.195 114.719 117.047 101.001 116.949 89.8116L116.933 89.7958ZM72.161 106.169C71.8199 105.283 71.5247 104.381 71.2767 103.466C71.1129 105.9 70.9164 108.571 70.8182 109.377C70.638 110.958 69.7701 115.699 66.2329 118.038C67.1663 118.038 68.0834 117.927 68.9677 117.832C71.6861 114.672 72.0463 110.357 72.161 106.169ZM129.362 121.42L127.118 120.946C118.601 125.549 109.04 128.057 99.2794 128.247C88.9587 128.375 78.9158 125.021 70.8837 118.765L66.8552 119.65C66.8552 119.65 77.4831 131.914 98.8045 131.914C107.254 132.014 115.616 130.252 123.254 126.762L107.959 144.937C101.048 145.585 77.7452 146.517 56.8986 131.645L55.6705 134.648C55.6705 134.648 80.0705 151.306 105.011 148.445L86.9484 170.002H99.8854L111.627 154.988L129.362 161.657V158.892L113.33 152.76L122.369 141.207L129.362 143.83V140.986L124.105 138.978L129.362 132.262V121.42ZM60.2557 111.937C60.8099 112.102 61.4082 112.056 61.9286 111.81C62.449 111.563 62.8522 111.134 63.056 110.61C63.2037 110.315 63.2531 109.984 63.1974 109.661C63.1417 109.339 62.9835 109.041 62.7448 108.808C62.4719 108.528 62.1328 108.315 61.7564 108.189C61.3801 108.062 60.9776 108.025 60.5832 108.081C59.4938 108.428 58.5736 109.148 57.9958 110.104C57.7835 110.522 57.661 110.976 57.6357 111.441C57.6104 111.905 57.6827 112.37 57.8484 112.807C58.0033 113.362 58.3202 113.863 58.7615 114.25C59.2028 114.636 59.7498 114.892 60.3376 114.988C61.16 115.12 62.0028 115.071 62.8026 114.843C63.6024 114.616 64.3385 114.217 64.9556 113.676C65.7231 112.863 66.1738 111.818 66.2305 110.719C66.2873 109.621 65.9466 108.537 65.2667 107.655C64.4388 106.621 63.2718 105.889 61.957 105.579C60.6421 105.269 59.2571 105.399 58.0286 105.948C57.3385 106.198 56.7123 106.589 56.1924 107.093C55.6725 107.598 55.2711 108.204 55.0154 108.871C54.3289 110.91 54.4934 113.127 55.4739 115.051C56.7349 117.516 60.1083 119.397 64.4971 117.69C65.7147 117.2 66.7566 116.376 67.4938 115.32C68.6347 113.895 69.3026 112.17 69.4098 110.373C68.5411 111.765 67.4336 113.005 66.1346 114.039C66.1315 114.003 66.1315 113.966 66.1346 113.929C66.0345 114.081 65.9193 114.224 65.7908 114.355C65.0551 115.061 64.1564 115.588 63.1685 115.893C62.1806 116.198 61.1318 116.272 60.1083 116.11C59.3351 115.975 58.6171 115.632 58.0375 115.121C57.4579 114.609 57.0403 113.949 56.8331 113.218C56.6142 112.646 56.5186 112.037 56.5524 111.428C56.5862 110.819 56.7486 110.223 57.0297 109.677C57.7566 108.467 58.9239 107.56 60.3048 107.133C60.8948 107.019 61.5052 107.052 62.0784 107.229C62.6515 107.406 63.1683 107.721 63.58 108.144C63.9598 108.525 64.2139 109.007 64.3101 109.527C64.4063 110.048 64.3403 110.584 64.1204 111.068C63.8214 111.849 63.2151 112.485 62.4332 112.837C61.6513 113.189 60.757 113.23 59.9446 112.949C59.8153 112.9 59.7097 112.806 59.6486 112.685C59.5875 112.565 59.5752 112.427 59.6142 112.298C59.6531 112.169 59.7406 112.06 59.8593 111.99C59.978 111.92 60.1194 111.896 60.2557 111.922V111.937ZM129.362 80.5661V74.8924L128.412 74.6553C128.841 76.6072 129.158 78.5805 129.362 80.5661V80.5661ZM122.812 89.8116C122.812 88.6947 122.812 87.6042 122.812 86.5401C122.789 81.9897 122.201 77.4584 121.059 73.0433L119.193 72.6956C120.383 77.2158 120.994 81.8602 121.01 86.5243C121.01 87.5832 121.01 88.6737 121.01 89.8116C121.01 99.4837 121.207 111.116 129.378 117.516V116.378C122.975 109.488 122.812 98.82 122.812 89.8116ZM125.726 89.8116C125.726 88.6895 125.726 87.599 125.726 86.5401C125.675 82.2119 125.126 77.9025 124.089 73.6913L122.222 73.2962C123.285 77.6315 123.834 82.0693 123.86 86.5243C123.86 87.5832 123.86 88.6737 123.86 89.8116C123.86 98.1562 124.023 107.971 129.296 114.608V112.19C125.874 105.6 125.792 97.1447 125.726 89.8116ZM63.8584 152.807C63.8584 152.807 62.2208 155.288 62.2208 156.3C62.2208 157.311 63.6946 158.07 63.6946 158.07C63.6946 158.07 65.3322 156 65.1848 154.798C65.0158 153.998 64.5426 153.288 63.8584 152.807V152.807ZM119.864 89.8116C119.864 88.6895 119.864 87.599 119.864 86.5401C119.836 81.7844 119.175 77.0519 117.899 72.4585L116.048 72.1425C117.341 76.835 118.001 81.6688 118.013 86.5243C118.013 87.5832 118.013 88.6737 118.013 89.8116C118.112 100.511 118.259 113.518 129.313 119.365V118.875C120.11 112.333 119.962 100.021 119.88 89.8116H119.864ZM128.641 89.8116C128.641 88.6895 128.641 87.599 128.641 86.5401C128.61 82.4476 128.138 78.3693 127.233 74.3708L125.366 73.9441C126.308 78.0982 126.802 82.3353 126.84 86.5875C126.84 87.6464 126.84 88.7369 126.84 89.8748C126.84 96.1965 126.971 103.482 129.362 109.519V102.566C128.835 98.3339 128.6 94.0732 128.658 89.8116H128.641ZM59.355 144.952C59.355 144.952 57.7174 147.45 57.7174 148.461C57.7174 149.472 59.1913 150.231 59.1913 150.231C59.1913 150.231 60.8289 148.145 60.6815 146.944C60.5124 146.143 60.0393 145.433 59.355 144.952V144.952ZM72.8979 168.501C72.8979 168.501 72.423 169.196 71.9972 170.002H74.1588C73.8825 169.403 73.4476 168.886 72.8979 168.501V168.501ZM61.6149 148.888C61.6149 148.888 59.9773 151.369 59.9773 152.38C59.9773 153.392 61.4511 154.15 61.4511 154.15C61.4511 154.15 63.0887 152.064 62.9413 150.863C62.7685 150.069 62.2957 149.365 61.6149 148.888ZM57.1115 140.986C57.1115 140.986 55.3921 143.467 55.4739 144.478C55.5558 145.49 56.9642 146.248 56.9642 146.248C56.9642 146.248 58.6017 144.178 58.438 142.977C58.2563 142.195 57.7845 141.503 57.1115 141.033V140.986Z" fill="#F4C900"/>
<path d="M46.1469 153.465C46.6581 152.927 47.1346 152.358 47.5735 151.762C47.6239 151.693 47.6944 151.641 47.7756 151.613C47.8569 151.585 47.9449 151.582 48.0279 151.605C48.1109 151.627 48.1848 151.674 48.2398 151.739C48.2948 151.804 48.3282 151.884 48.3355 151.969C48.3639 152.332 48.5184 152.675 48.7732 152.939C49.6649 153.831 53.6367 157.443 51.5941 156.122C49.9495 155.226 48.1797 154.572 46.3415 154.181C46.2646 154.166 46.1935 154.129 46.1364 154.077C46.0793 154.024 46.0383 153.956 46.0181 153.882C45.9979 153.808 45.9992 153.729 46.022 153.655C46.0447 153.582 46.088 153.516 46.1469 153.465ZM33.8098 164.446C33.6665 164.054 33.3723 163.733 32.9904 163.551C32.6085 163.37 32.1693 163.343 31.7671 163.475C25.7727 165.529 19.5535 166.886 13.2371 167.518C13.6544 168.267 14.2686 168.892 15.0156 169.328C15.7626 169.765 16.6152 169.997 17.4846 170.001H35.5607C35.0722 168.121 34.4878 166.268 33.8098 164.446ZM47.0223 139.173C46.6928 139.254 46.3975 139.434 46.178 139.688C45.9586 139.943 45.826 140.259 45.7992 140.591C45.7723 140.923 45.8524 141.256 46.0283 141.541C46.2041 141.826 46.4668 142.05 46.7792 142.181C47.1702 142.186 47.5486 142.045 47.8377 141.787C48.1268 141.528 48.3048 141.171 48.3358 140.789C48.3667 140.406 48.2482 140.026 48.0043 139.726C47.7604 139.426 47.4093 139.228 47.0223 139.173ZM50.9618 129.353C50.5619 129.427 50.2083 129.654 49.9788 129.984C49.7493 130.313 49.6626 130.719 49.7378 131.112C49.8131 131.504 50.0441 131.852 50.38 132.077C50.716 132.302 51.1293 132.387 51.5292 132.313C51.9291 132.24 52.2827 132.013 52.5122 131.683C52.7418 131.353 52.8284 130.947 52.7532 130.555C52.6779 130.162 52.4469 129.815 52.111 129.59C51.775 129.364 51.3617 129.279 50.9618 129.353ZM12.6211 154.642C18.9923 153.608 28.1519 150.743 34.7825 143.311C43.5044 133.427 44.3636 125.072 44.315 121.905L40.9267 123.099C39.9865 128.605 35.1878 146.223 12.6211 151.046V154.642ZM129.378 57.0347V50.4777L128.113 52.3079L129.378 57.0347ZM75.328 44.3981L73.7068 49.4273L77.4842 56.0639C79.997 55.8729 84.5849 55.5387 87.4706 55.3955L90.1131 48.5997L87.4544 42.9657C84.7632 43.2044 79.6079 43.7296 75.328 44.3981ZM105.028 42.9498L102.207 48.5679L105.028 55.6501C107.071 55.7774 110.686 56.0002 113.134 56.239L116.652 49.8729L115.322 44.1116C113.134 43.7296 108.984 43.1885 105.028 42.9498ZM129.378 39.1141V42.0425C128.938 42.2335 128.529 42.5107 128.259 42.9021L123.185 50.4777C122.997 50.7678 122.872 51.0924 122.816 51.4317C122.76 51.7709 122.775 52.1178 122.861 52.4512L125.471 62.4936C125.601 62.9651 125.866 63.3905 126.233 63.7202C126.601 64.0499 127.056 64.2703 127.546 64.3557L129.378 64.674V66.0745C128.443 65.7908 127.482 65.5989 126.508 65.5016C115.213 63.3296 103.712 62.3532 92.2044 62.5891C85.0789 62.5668 77.9693 63.2493 70.9833 64.6263C69.3621 61.5865 63.5097 50.8278 59.4567 46.6262C59.0386 46.139 58.7988 45.5282 58.7758 44.8915C59.7972 40.658 68.7623 37.6501 86.2061 35.6925C102.337 33.8941 119.764 36.9497 129.378 39.1141ZM95.3008 47.6925L91.329 39.1779C91.1036 38.7202 90.7439 38.3392 90.296 38.0839C89.8482 37.8286 89.3328 37.7108 88.8161 37.7455C88.4271 37.7455 79.1864 38.5413 72.8152 39.6713C72.3187 39.7535 71.8576 39.9767 71.4888 40.3132C71.12 40.6498 70.8597 41.085 70.7401 41.5652L68.5353 48.8862C68.4211 49.2229 68.3794 49.5793 68.4129 49.9327C68.4464 50.2862 68.5543 50.6289 68.7298 50.9392L73.8852 60.0268C74.1087 60.4166 74.4335 60.7413 74.8265 60.9678C75.2195 61.1942 75.6667 61.3143 76.1224 61.3159H76.3331C76.4466 61.3159 86.6276 60.4724 89.3025 60.4724C89.8211 60.4745 90.3284 60.3241 90.7589 60.0404C91.1895 59.7567 91.5236 59.3528 91.718 58.8809L95.3008 49.5069C95.5277 48.9226 95.5277 48.2768 95.3008 47.6925ZM121.92 49.6023L119.943 41.1991C119.813 40.7246 119.546 40.2967 119.176 39.9665C118.805 39.6364 118.345 39.4179 117.851 39.3371C113.11 38.5975 108.331 38.1087 103.536 37.8729C103.042 37.8594 102.555 37.9839 102.13 38.2318C101.705 38.4797 101.361 38.8409 101.137 39.2734L97.0841 47.2946C96.9235 47.6089 96.8332 47.9533 96.8192 48.3046C96.8052 48.656 96.8679 49.0062 97.0031 49.3318L100.894 58.8809C101.079 59.3274 101.389 59.7136 101.787 59.9951C102.186 60.2766 102.657 60.4421 103.147 60.4724C103.488 60.4724 111.675 60.9658 114.333 61.3159H114.755C115.219 61.3169 115.675 61.1946 116.075 60.9621C116.474 60.7296 116.803 60.3954 117.025 59.9949L121.888 51.2575C122.109 50.7322 122.143 50.1491 121.985 49.6023H121.92ZM53.5557 121.634C53.8185 121.477 54.0301 121.249 54.1657 120.977C54.3013 120.705 54.3552 120.401 54.3212 120.101C54.2872 119.8 54.1666 119.515 53.9736 119.28C53.7806 119.044 53.5232 118.867 53.2314 118.77L51.7562 119.295C51.5968 119.566 51.5222 119.877 51.5418 120.189C51.5614 120.501 51.6742 120.8 51.8661 121.05C52.0581 121.3 52.3208 121.488 52.6212 121.592C52.9217 121.696 53.2467 121.711 53.5557 121.634ZM76.2521 134.828L81.1156 140.287C81.265 140.455 81.4606 140.578 81.6791 140.64C81.8976 140.702 82.1297 140.701 82.3477 140.637L88.8324 138.648C89.0117 138.594 89.1751 138.498 89.3082 138.369C89.4413 138.239 89.5401 138.079 89.596 137.904C89.6519 137.728 89.6633 137.542 89.6291 137.361C89.5949 137.18 89.5162 137.009 89.3998 136.865L84.9578 131.279C84.8147 131.093 84.6163 130.954 84.3898 130.883C84.1634 130.812 83.9201 130.811 83.6932 130.881L76.8195 132.982C76.6367 133.042 76.4715 133.144 76.3383 133.281C76.2051 133.418 76.108 133.584 76.0552 133.766C76.0025 133.948 75.9958 134.14 76.0358 134.325C76.0757 134.51 76.1611 134.683 76.2845 134.828H76.2521ZM79.4944 117.067C79.2512 116.653 78.9756 116.223 78.7163 115.778L76.1062 117.369C77.9835 118.82 80.0037 120.084 82.1369 121.141C81.1875 119.83 80.3108 118.47 79.5106 117.067H79.4944ZM83.5473 170.001H85.1685L84.8119 148.674L83.4014 148.372C83.6239 148.916 83.7162 149.504 83.6712 150.088C83.6262 150.673 83.4452 151.24 83.142 151.746C83.0414 151.879 82.9273 152.001 82.8016 152.112C82.6476 152.317 82.5645 152.565 82.5645 152.82C82.5645 153.075 82.6476 153.323 82.8016 153.528C83.288 154.038 81.7478 153.385 81.1804 152.605H80.84C80.4843 152.557 80.1425 152.437 79.8358 152.254C79.529 152.07 79.2639 151.827 79.0567 151.539C78.5217 150.743 79.6403 149.55 79.6403 149.55C79.8371 149.965 80.0591 150.369 80.305 150.759C80.5105 150.997 80.8 151.151 81.1156 151.189C81.2375 151.229 81.3697 151.227 81.4905 151.184C81.6112 151.14 81.7134 151.058 81.7803 150.95C81.9475 150.619 82.0344 150.254 82.0344 149.884C82.0344 149.514 81.9475 149.149 81.7803 148.817C81.5824 148.621 81.3441 148.468 81.0813 148.369C80.8185 148.271 80.5373 148.228 80.2564 148.245C79.8034 148.256 79.3617 148.386 78.9769 148.621C78.5922 148.856 78.2783 149.187 78.0678 149.581C77.0302 151.364 78.9108 153.178 80.8886 154.706L81.1156 154.897C82.8502 156.218 84.4714 157.475 83.9688 159.926C83.8586 160.871 83.4101 161.746 82.7034 162.396C81.9967 163.046 81.0777 163.429 80.1105 163.475C80.0434 163.61 79.9359 163.721 79.8024 163.794C79.2229 164.111 78.7383 164.572 78.397 165.13C78.0556 165.689 77.8694 166.325 77.857 166.977C77.8483 167.334 77.9129 167.689 78.0471 168.021C78.1813 168.353 78.3823 168.655 78.638 168.909C78.8937 169.163 79.199 169.364 79.5355 169.499C79.8721 169.635 80.233 169.703 80.5968 169.698C80.9629 169.716 81.3286 169.657 81.6697 169.526C82.0107 169.394 82.3192 169.192 82.5746 168.934C82.7498 168.711 82.8665 168.45 82.9146 168.172C82.9627 167.895 82.9406 167.61 82.8502 167.343C82.7893 166.96 82.6131 166.604 82.3445 166.32C82.0758 166.037 81.7269 165.839 81.3425 165.751C81.1961 165.708 81.0417 165.697 80.8903 165.719C80.739 165.741 80.5944 165.795 80.4671 165.879C80.3665 166.006 80.2943 166.152 80.2552 166.308C80.2161 166.465 80.211 166.627 80.2401 166.786C80.2579 166.84 80.2896 166.889 80.3321 166.928C80.3747 166.967 80.4268 166.995 80.4833 167.008C80.5751 167.037 80.6602 167.084 80.7337 167.145C80.8071 167.206 80.8674 167.281 80.9111 167.366C80.9548 167.45 80.9811 167.542 80.9884 167.637C80.9956 167.731 80.9838 167.826 80.9535 167.916C80.8906 168.099 80.7564 168.25 80.5803 168.337C80.4041 168.423 80.2002 168.438 80.0132 168.377C79.739 168.293 79.4896 168.144 79.2864 167.945C79.0831 167.745 78.932 167.501 78.8459 167.231C78.7405 166.863 78.7237 166.476 78.7968 166.1C78.87 165.725 79.0311 165.371 79.2675 165.067C79.5489 164.74 79.9197 164.499 80.3362 164.372C80.7527 164.245 81.1976 164.237 81.6181 164.351C82.2818 164.481 82.8903 164.804 83.3645 165.278C83.8386 165.752 84.1565 166.355 84.2769 167.008C84.4275 167.49 84.4545 168.001 84.3555 168.495C84.2565 168.989 84.0346 169.452 83.7095 169.841C83.6603 169.899 83.606 169.952 83.5473 170.001ZM75.2794 170.001H77.6949C77.275 169.62 76.9411 169.157 76.7149 168.641C76.4887 168.126 76.3752 167.57 76.3818 167.008C76.3705 166.292 76.5235 165.583 76.8294 164.933C77.1353 164.283 77.5862 163.708 78.1488 163.253C77.4888 162.954 76.9272 162.48 76.5277 161.884C76.2048 161.442 75.9987 160.929 75.9279 160.39C75.8572 159.851 75.924 159.304 76.1224 158.796C76.2611 158.397 76.4828 158.031 76.7734 157.721C77.064 157.41 77.4173 157.163 77.8106 156.994C78.204 156.824 78.6288 156.738 79.0583 156.738C79.4877 156.739 79.9123 156.827 80.305 156.998C80.7627 157.19 81.143 157.525 81.3864 157.951C81.6298 158.377 81.7227 158.87 81.6506 159.353C81.5815 159.724 81.3807 160.059 81.0838 160.298C80.7869 160.537 80.4133 160.664 80.0294 160.658C80.0294 160.658 79.4944 161.104 79.4296 160.276C79.3963 160.066 79.4297 159.851 79.5255 159.66C79.6212 159.469 79.7745 159.312 79.9646 159.21H80.1753C80.1788 159.048 80.1328 158.889 80.0432 158.753C79.9537 158.616 79.8246 158.51 79.6727 158.446C78.7973 158.064 77.9219 158.446 77.4355 159.544C77.3405 159.828 77.3174 160.129 77.3682 160.423C77.4191 160.717 77.5424 160.995 77.7273 161.231C77.9208 161.539 78.1901 161.793 78.5103 161.971C78.8305 162.149 79.1913 162.245 79.5593 162.25C79.9231 162.289 80.2913 162.256 80.6414 162.151C80.9915 162.046 81.3161 161.871 81.5953 161.639C81.8746 161.407 82.1026 161.121 82.2654 160.799C82.4282 160.477 82.5224 160.126 82.5422 159.767C82.8502 158.176 82.0072 157.523 80.2239 156.138L79.997 155.963C78.619 154.897 75.5712 152.542 76.4466 149.756C76.4466 149.756 74.9227 147.544 75.863 147.942C76.4299 148.166 77.0631 148.166 77.6301 147.942C77.9333 147.676 78.2714 147.452 78.6352 147.274C77.4646 146.926 76.3213 146.495 75.2145 145.985L75.2794 170.001ZM101.218 143.279L106.989 139.921C107.165 139.836 107.316 139.709 107.428 139.551C107.539 139.393 107.608 139.21 107.627 139.019C107.647 138.828 107.616 138.635 107.539 138.459C107.461 138.282 107.339 138.128 107.184 138.011L101.575 133.555C101.39 133.408 101.163 133.32 100.925 133.302C100.688 133.285 100.45 133.34 100.245 133.459L94.1336 137.024C93.9708 137.121 93.8346 137.256 93.737 137.417C93.6395 137.577 93.5834 137.759 93.5738 137.946C93.5642 138.133 93.6014 138.319 93.682 138.489C93.7626 138.658 93.8843 138.806 94.0363 138.918L100.002 143.168C100.18 143.309 100.397 143.395 100.625 143.415C100.853 143.435 101.082 143.388 101.283 143.279H101.218ZM118.176 112.547C113.604 116.573 101.364 122.908 93.3068 124.42C109.243 126.584 123.979 118.913 123.979 118.913C121.561 117.269 119.573 115.088 118.176 112.547ZM30.8917 157.109C31.2293 157.274 31.6169 157.309 31.9797 157.21C32.3426 157.11 32.6549 156.882 32.8564 156.569C33.0579 156.256 33.1344 155.882 33.0709 155.517C33.0075 155.152 32.8087 154.824 32.5129 154.595C32.1753 154.43 31.7877 154.395 31.4248 154.494C31.062 154.594 30.7496 154.822 30.5481 155.135C30.3466 155.447 30.2702 155.822 30.3337 156.187C30.3971 156.551 30.5959 156.88 30.8917 157.109ZM20.727 161.327C21.0249 161.481 21.3643 161.54 21.6979 161.496C22.0316 161.452 22.3431 161.307 22.589 161.081C22.835 160.855 23.0032 160.56 23.0705 160.236C23.1377 159.912 23.1005 159.576 22.9642 159.274C22.6765 159.03 22.3073 158.9 21.9275 158.907C21.5477 158.914 21.1841 159.059 20.9066 159.314C20.6291 159.569 20.4573 159.915 20.4241 160.287C20.3909 160.658 20.4988 161.029 20.727 161.327ZM73.107 130.992L69.7025 124.754C69.5901 124.548 69.417 124.38 69.2059 124.272C68.9948 124.164 68.7554 124.121 68.5191 124.149L61.467 125.088C61.2665 125.109 61.075 125.18 60.9111 125.295C60.7471 125.411 60.6163 125.565 60.5314 125.745C60.4465 125.924 60.4105 126.122 60.4267 126.32C60.4429 126.517 60.5109 126.707 60.624 126.87L64.4986 132.998C64.614 133.191 64.7846 133.347 64.9891 133.446C65.1937 133.545 65.4233 133.583 65.6496 133.555L72.2964 132.664C72.477 132.63 72.6469 132.555 72.7925 132.445C72.9381 132.335 73.0551 132.193 73.1341 132.03C73.2131 131.867 73.2518 131.688 73.2471 131.508C73.2424 131.328 73.1944 131.151 73.107 130.992ZM39.7757 150.616C40.1133 150.615 40.4421 150.51 40.7162 150.317C40.9904 150.124 41.1963 149.851 41.3052 149.538C41.4141 149.224 41.4205 148.885 41.3236 148.567C41.2267 148.25 41.0313 147.97 40.7646 147.767C40.3922 147.681 40.0004 147.734 39.6656 147.916C39.3307 148.098 39.0769 148.395 38.9534 148.751C38.83 149.107 38.8458 149.494 38.9978 149.839C39.1499 150.184 39.4271 150.461 39.7757 150.616ZM64.1743 147.751L65.9738 151.491C68.2661 152.62 70.6882 153.475 73.1881 154.038V151.316C70.0222 150.566 66.9854 149.365 64.1743 147.751ZM73.2367 158.892V156.186C71.2124 155.655 69.2424 154.941 67.3518 154.054L69.4431 157.619C70.6537 158.181 71.9268 158.603 73.2367 158.876V158.892Z" fill="#C72F2A"/>
</g>
<path d="M25.3846 73.9243C21.2308 79.4627 16.4615 84.6935 11.2308 89.4627C10.9231 89.7704 10.9231 90.232 11.2308 90.5397C16.4615 95.3089 21.2308 100.54 25.3846 106.078C25.6923 106.54 26.3077 106.54 26.6154 106.078C30.7692 100.54 35.5385 95.3089 40.7692 90.5397C41.0769 90.232 41.0769 89.7704 40.7692 89.4627C35.5385 84.6935 30.7692 79.4627 26.6154 73.9243C26.3077 73.4627 25.6923 73.4627 25.3846 73.9243Z" fill="#BF3030"/>
<path d="M30.4381 11.756H36.8761V46.906C36.8761 54.528 36.5801 56.008 36.0621 57.562C33.6941 64.74 25.8501 64.74 24.0741 64.74C17.1181 64.74 14.0101 60.892 13.0481 57.34C12.4561 55.194 12.4561 53.566 12.4561 48.312H18.7461C18.7461 53.936 18.8201 54.75 19.3381 56.082C20.1521 58.08 21.9281 59.19 24.0001 59.19C29.2541 59.264 30.2161 55.416 30.3641 53.27C30.4381 52.234 30.4381 48.46 30.4381 47.276V11.756Z" fill="#BF3030"/>
<defs>
<linearGradient id="paint0_linear_324_104474" x1="92" y1="2" x2="92" y2="182" gradientUnits="userSpaceOnUse">
<stop stop-color="white" stop-opacity="0.85"/>
<stop offset="1" stop-color="white" stop-opacity="0.15"/>
</linearGradient>
<clipPath id="clip0_324_104474">
<rect width="116.757" height="165" fill="white" transform="translate(12.6211 5)"/>
</clipPath>
</defs>
</svg>
