<svg width="184" height="184" viewBox="0 0 184 184" fill="none" xmlns="http://www.w3.org/2000/svg">
<rect x="1" y="1" width="182" height="182" rx="13" stroke="black" stroke-opacity="0.25" stroke-width="2"/>
<rect x="2.5" y="2.5" width="179" height="179" rx="11.5" fill="#E9E9E9" stroke="url(#paint0_linear_324_104581)"/>
<rect x="41.0449" y="30.5" width="101.909" height="123" rx="1.5" fill="#D7D5D7" stroke="#CDCFD6"/>
<path d="M101.962 106.144C96.7694 101.99 89.154 93.3362 86.0386 89.8747C85.3463 89.1824 83.9617 89.1824 83.2694 89.8747C80.154 93.3362 72.8848 101.99 67.3463 106.144C55.2309 116.529 50.3848 121.375 50.3848 130.375C50.3848 140.759 59.3848 149.413 70.4617 149.413C74.6155 149.413 79.4617 148.029 82.5771 145.605L82.9232 145.259C82.2309 150.452 80.5001 158.067 75.3078 163.259C74.6155 163.952 74.9617 164.644 76.0001 164.644H85.0001H94.0001C94.6925 164.644 95.0386 163.605 94.6925 163.259C89.5001 158.067 87.7694 150.798 87.0771 145.259L87.4232 145.605C90.1925 148.029 95.3848 149.413 99.5386 149.413C110.616 149.413 119.616 140.759 119.616 130.375C119.616 121.375 114.769 116.529 101.962 106.144Z" fill="#24242E"/>
<path d="M33.5383 80.7311C31.2306 78.8849 27.846 75.0388 26.4614 73.5003C26.1537 73.1926 25.5383 73.1926 25.2306 73.5003C23.846 75.0388 20.6152 78.8849 18.1537 80.7311C12.7691 85.3465 10.6152 87.5003 10.6152 91.5003C10.6152 96.1157 14.6152 99.9618 19.5383 99.9618C21.3845 99.9618 23.5383 99.3465 24.9229 98.2695L25.0768 98.1157C24.7691 100.423 23.9998 103.808 21.6922 106.116C21.3845 106.423 21.5383 106.731 21.9998 106.731H25.9998H29.9998C30.3075 106.731 30.4614 106.27 30.3075 106.116C27.9998 103.808 27.2306 100.577 26.9229 98.1157L27.0768 98.2695C28.3075 99.3465 30.6152 99.9618 32.4614 99.9618C37.3845 99.9618 41.3845 96.1157 41.3845 91.5003C41.3845 87.5003 39.2306 85.3465 33.5383 80.7311Z" fill="#24242E"/>
<path d="M37.227 58.376V64H14.361V57.784L25.165 39.506C29.605 31.884 30.419 29.812 30.419 24.188C30.419 21.82 30.345 17.084 25.609 17.084C20.947 17.084 20.947 21.524 20.947 24.41V30.404H14.953V23.892C14.953 19.452 15.471 16.418 17.617 14.124C19.171 12.496 21.835 11.09 25.461 11.09C29.531 11.09 31.825 12.644 33.231 14.124C35.895 16.936 36.561 20.34 36.561 24.706C36.561 31.366 34.489 35.732 31.677 40.394L20.947 58.376H37.227Z" fill="#24242E"/>
<g clip-path="url(#clip0_324_104581)">
<path d="M80.1025 37.957H75.4225L71.2825 13.693H76.1785L77.3665 23.377C77.6905 26.149 77.9065 28.921 78.1945 31.873H78.3025C78.6265 28.885 79.1665 26.257 79.6705 23.341L81.3985 13.693H85.2145L86.8345 23.269C87.2665 26.005 87.6985 28.705 87.9865 31.873H88.0585C88.3825 28.705 88.6705 26.113 88.9945 23.305L90.1825 13.693H94.7905L90.5065 37.957H85.6465L84.2065 30.001C83.8105 27.769 83.4505 24.997 83.1265 22.045H83.0545C82.6225 24.961 82.2265 27.661 81.7225 30.037L80.1025 37.957ZM97.336 13.693H102.052V37.957H97.336V13.693ZM106.266 37.957V13.693H110.982V33.961H117.174V37.957H106.266ZM119.942 37.849V14.053C121.13 13.765 122.858 13.585 124.73 13.585C127.79 13.585 129.914 14.305 131.462 15.745C133.55 17.617 134.63 20.821 134.63 25.537C134.63 30.433 133.37 33.925 131.246 35.797C129.59 37.345 127.214 38.137 123.866 38.137C122.354 38.137 120.878 37.993 119.942 37.849ZM124.658 17.473V34.213C124.91 34.285 125.234 34.285 125.486 34.285C127.754 34.285 129.734 32.053 129.734 25.357C129.734 20.389 128.438 17.365 125.594 17.365C125.27 17.365 124.946 17.365 124.658 17.473Z" fill="#24242E"/>
<path opacity="0.8" d="M83.948 62.957H80.048L76.598 42.737H80.678L81.668 50.807C81.938 53.117 82.118 55.427 82.358 57.887H82.448C82.718 55.397 83.168 53.207 83.588 50.777L85.028 42.737H88.208L89.558 50.717C89.918 52.997 90.278 55.247 90.518 57.887H90.578C90.848 55.247 91.088 53.087 91.358 50.747L92.348 42.737H96.188L92.618 62.957H88.568L87.368 56.327C87.038 54.467 86.738 52.157 86.468 49.697H86.408C86.048 52.127 85.718 54.377 85.298 56.357L83.948 62.957ZM98.3093 42.737H102.239V62.957H98.3093V42.737ZM105.751 62.957V42.737H109.681V59.627H114.841V62.957H105.751ZM117.147 62.867V43.037C118.137 42.797 119.577 42.647 121.137 42.647C123.687 42.647 125.457 43.247 126.747 44.447C128.487 46.007 129.387 48.677 129.387 52.607C129.387 56.687 128.337 59.597 126.567 61.157C125.187 62.447 123.207 63.107 120.417 63.107C119.157 63.107 117.927 62.987 117.147 62.867ZM121.077 45.887V59.837C121.287 59.897 121.557 59.897 121.767 59.897C123.657 59.897 125.307 58.037 125.307 52.457C125.307 48.317 124.227 45.797 121.857 45.797C121.587 45.797 121.317 45.797 121.077 45.887Z" fill="#24242E"/>
<path opacity="0.5" d="M87.7936 83.957H84.6736L81.9136 67.781H85.1776L85.9696 74.237C86.1856 76.085 86.3296 77.933 86.5216 79.901H86.5936C86.8096 77.909 87.1696 76.157 87.5056 74.213L88.6576 67.781H91.2016L92.2816 74.165C92.5696 75.989 92.8576 77.789 93.0496 79.901H93.0976C93.3136 77.789 93.5056 76.061 93.7216 74.189L94.5136 67.781H97.5856L94.7296 83.957H91.4896L90.5296 78.653C90.2656 77.165 90.0256 75.317 89.8096 73.349H89.7616C89.4736 75.293 89.2096 77.093 88.8736 78.677L87.7936 83.957ZM99.2826 67.781H102.427V83.957H99.2826V67.781ZM105.236 83.957V67.781H108.38V81.293H112.508V83.957H105.236ZM114.353 83.885V68.021C115.145 67.829 116.297 67.709 117.545 67.709C119.585 67.709 121.001 68.189 122.033 69.149C123.425 70.397 124.145 72.533 124.145 75.677C124.145 78.941 123.305 81.269 121.889 82.517C120.785 83.549 119.201 84.077 116.969 84.077C115.961 84.077 114.977 83.981 114.353 83.885ZM117.497 70.301V81.461C117.665 81.509 117.881 81.509 118.049 81.509C119.561 81.509 120.881 80.021 120.881 75.557C120.881 72.245 120.017 70.229 118.121 70.229C117.905 70.229 117.689 70.229 117.497 70.301Z" fill="#24242E"/>
</g>
<defs>
<linearGradient id="paint0_linear_324_104581" x1="92" y1="2" x2="92" y2="182" gradientUnits="userSpaceOnUse">
<stop stop-color="white" stop-opacity="0.85"/>
<stop offset="1" stop-color="white" stop-opacity="0.15"/>
</linearGradient>
<clipPath id="clip0_324_104581">
<rect width="97.9412" height="86.087" fill="white" transform="translate(66.1758 1.95703)"/>
</clipPath>
</defs>
</svg>
