<svg width="184" height="184" viewBox="0 0 184 184" fill="none" xmlns="http://www.w3.org/2000/svg">
<rect x="1" y="1" width="182" height="182" rx="13" stroke="black" stroke-opacity="0.25" stroke-width="2"/>
<rect x="2.5" y="2.5" width="179" height="179" rx="11.5" fill="#E9E9E9" stroke="url(#paint0_linear_324_104567)"/>
<rect x="41.0449" y="30.5" width="101.909" height="123" rx="1.5" fill="#D7D5D7" stroke="#CDCFD6"/>
<path d="M101.962 106.144C96.7694 101.99 89.154 93.3362 86.0386 89.8747C85.3463 89.1824 83.9617 89.1824 83.2694 89.8747C80.154 93.3362 72.8848 101.99 67.3463 106.144C55.2309 116.529 50.3848 121.375 50.3848 130.375C50.3848 140.759 59.3848 149.413 70.4617 149.413C74.6155 149.413 79.4617 148.029 82.5771 145.605L82.9232 145.259C82.2309 150.452 80.5001 158.067 75.3078 163.259C74.6155 163.952 74.9617 164.644 76.0001 164.644H85.0001H94.0001C94.6925 164.644 95.0386 163.605 94.6925 163.259C89.5001 158.067 87.7694 150.798 87.0771 145.259L87.4232 145.605C90.1925 148.029 95.3848 149.413 99.5386 149.413C110.616 149.413 119.616 140.759 119.616 130.375C119.616 121.375 114.769 116.529 101.962 106.144Z" fill="#24242E"/>
<path d="M33.5383 80.7311C31.2306 78.8849 27.846 75.0388 26.4614 73.5003C26.1537 73.1926 25.5383 73.1926 25.2306 73.5003C23.846 75.0388 20.6152 78.8849 18.1537 80.7311C12.7691 85.3465 10.6152 87.5003 10.6152 91.5003C10.6152 96.1157 14.6152 99.9618 19.5383 99.9618C21.3845 99.9618 23.5383 99.3465 24.9229 98.2695L25.0768 98.1157C24.7691 100.423 23.9998 103.808 21.6922 106.116C21.3845 106.423 21.5383 106.731 21.9998 106.731H25.9998H29.9998C30.3075 106.731 30.4614 106.27 30.3075 106.116C27.9998 103.808 27.2306 100.577 26.9229 98.1157L27.0768 98.2695C28.3075 99.3465 30.6152 99.9618 32.4614 99.9618C37.3845 99.9618 41.3845 96.1157 41.3845 91.5003C41.3845 87.5003 39.2306 85.3465 33.5383 80.7311Z" fill="#24242E"/>
<path d="M36.857 23.3C36.857 30.922 36.413 34.548 32.639 35.88C32.195 36.028 31.529 36.102 31.233 36.176C31.455 36.25 32.269 36.472 32.861 36.694C37.227 38.618 37.227 43.428 37.227 48.312C37.227 52.456 37.227 55.786 36.043 58.746C33.675 64.592 26.127 64.666 25.461 64.666C20.873 64.666 17.839 62.742 16.433 60.966C14.657 58.746 14.139 55.49 14.139 52.604C14.139 41.652 14.139 37.952 20.207 36.176C15.471 35.362 14.805 32.254 14.805 23.744C14.805 20.118 14.879 11.09 25.831 11.09C30.567 11.09 33.527 13.014 34.933 14.79C36.857 17.38 36.857 21.08 36.857 23.3ZM30.715 24.41C30.789 20.858 30.937 16.27 25.905 16.27C21.243 16.27 20.799 19.97 20.799 24.78C20.799 29.738 20.799 33.438 25.979 33.438C30.493 33.438 30.567 30.034 30.715 24.41ZM30.863 49.348C30.863 44.168 30.863 39.728 25.683 39.728C24.869 39.728 23.537 39.876 22.427 40.69C20.577 42.17 20.577 44.168 20.577 49.644C20.577 55.046 20.577 58.82 25.683 58.82C30.863 58.82 30.863 54.528 30.863 49.348Z" fill="#24242E"/>
<defs>
<linearGradient id="paint0_linear_324_104567" x1="92" y1="2" x2="92" y2="182" gradientUnits="userSpaceOnUse">
<stop stop-color="white" stop-opacity="0.85"/>
<stop offset="1" stop-color="white" stop-opacity="0.15"/>
</linearGradient>
</defs>
</svg>
