<svg width="184" height="184" viewBox="0 0 184 184" fill="none" xmlns="http://www.w3.org/2000/svg">
<rect x="1" y="1" width="182" height="182" rx="13" stroke="black" stroke-opacity="0.25" stroke-width="2"/>
<rect x="2.5" y="2.5" width="179" height="179" rx="11.5" fill="#E9E9E9" stroke="url(#paint0_linear_324_104575)"/>
<rect x="41.0449" y="30.5" width="101.909" height="123" rx="1.5" fill="#D7D5D7" stroke="#CDCFD6"/>
<path d="M129.378 39.9316V165.247C129.378 167.94 126.945 170 124.513 170H97.7562H70.9995H17.486C14.7292 170 12.6211 167.94 12.6211 165.247V150.168L55.1076 121.521L55.9184 117.719C56.567 113.283 57.2157 106.154 56.567 97.2821C55.4319 81.7563 56.0806 75.1024 61.7562 67.0226C64.3508 63.3788 64.9995 59.4181 65.6481 55.4575C66.2968 51.1799 66.6211 46.5856 70.0265 42.4665C70.0265 42.4665 70.0265 42.308 70.1887 42.1496V41.9912C70.8373 40.8822 77.6481 29.1586 87.54 28.2081C89.9724 27.2575 92.567 26.6238 95.1616 26.3069L95.9724 26.1485L101.81 25.6732C101.81 25.6732 108.783 25.0395 116.729 28.3665C120.621 29.9507 124.837 33.9114 129.378 39.9316Z" fill="#E7E7E7"/>
<path d="M129.378 135.937V165.248C129.378 167.941 127.27 170.001 124.513 170.001H105.54C107.486 165.248 114.135 151.78 129.378 135.937ZM127.27 63.2149C126.783 63.6902 126.783 64.4824 127.108 65.1161C127.432 65.5914 127.756 65.9083 128.243 65.9083C128.729 65.9083 129.054 65.7499 129.216 65.5914C129.216 65.5914 129.216 65.5914 129.378 65.433V62.4227C128.405 62.2643 127.756 62.5812 127.27 63.2149ZM126.945 128.49C125.486 130.075 123.864 131.818 122.243 133.56L124.189 132.927C124.837 132.768 125.486 133.085 125.648 133.719C125.81 134.194 125.486 134.828 124.999 134.986L119.324 136.888C117.864 138.63 116.405 140.373 115.108 142.116L117.216 141.165C117.864 140.848 118.513 141.165 118.837 141.799C118.999 142.274 118.837 142.908 118.189 143.225L112.026 146.077C110.567 147.978 109.27 150.038 107.81 151.939L109.918 150.988C110.567 150.671 111.216 150.988 111.54 151.622C111.702 152.097 111.54 152.731 110.891 153.048L105.54 155.583C104.405 157.326 103.432 159.069 102.459 160.811L104.405 159.702C104.891 159.385 105.54 159.544 105.864 159.861C106.351 160.494 106.189 161.128 105.54 161.445L100.513 164.297C99.7022 165.881 98.8914 167.466 98.2427 169.05L100.675 167.624C101.162 167.307 101.81 167.466 102.135 167.782C102.621 168.258 102.459 169.05 101.81 169.525L100.999 170.001H102.621C108.945 155.741 119.648 142.75 129.378 133.085V128.015L126.945 128.49ZM128.891 121.202C129.054 121.044 129.216 120.886 129.378 120.727V119.618L128.891 121.202ZM95.486 170.001H96.7833C104.567 151.78 118.675 135.145 129.378 124.371V122.153C118.351 133.244 103.108 150.83 95.486 170.001ZM94.8373 60.9968C99.54 59.5709 105.054 62.7396 105.702 63.0565C106.351 63.3733 106.837 63.2149 106.837 63.2149C103.918 60.0462 99.8643 58.6203 95.9724 58.6203C92.0806 58.6203 90.2968 62.4227 94.8373 60.9968ZM93.8643 96.328C93.3778 96.8033 92.7292 97.1201 91.5941 96.328C90.4589 95.5358 88.3508 93.793 88.0265 93.4761C87.7022 93.0008 87.54 93.4761 87.54 93.4761C85.7562 94.902 84.2968 93.4761 83.9724 93.4761C83.8103 93.4761 82.8373 94.902 82.0265 95.6942C81.3778 96.4864 80.0806 96.1695 80.0806 96.1695C80.567 97.5955 81.3779 97.1201 82.9995 96.6448C84.1346 96.328 85.1076 96.8033 85.4319 97.1201C85.5941 97.2786 85.7562 97.2786 85.9184 97.1201C86.567 96.8033 88.0265 96.0111 88.9995 96.1695C90.2968 96.328 91.5941 97.1201 92.4049 97.437C93.2157 97.7539 95.3238 96.8033 95.1616 96.328C94.8373 96.0111 94.1887 95.8527 93.8643 96.328ZM86.0806 99.6551C83.486 99.4967 83.486 97.5955 83.486 97.5955C82.9995 98.5461 83.486 100.447 86.0806 100.606C88.8373 100.764 89.6481 99.1798 89.6481 99.1798C89.6481 99.1798 88.8373 99.972 86.0806 99.6551ZM94.6751 75.256C96.4589 75.8898 98.2427 75.5729 98.2427 75.5729C95.6481 75.0976 92.7292 73.5132 92.7292 73.5132C93.2157 74.6223 93.8643 74.9391 94.6751 75.256ZM98.0806 66.8589C103.27 67.1758 107.972 71.612 107.972 71.612L106.351 71.1367C105.54 71.7704 101.972 73.6717 98.567 73.5132C94.6751 73.3548 93.2157 71.2951 92.8914 70.9782C92.7292 70.8198 92.4049 70.8198 92.2427 70.8198C92.0806 70.8198 92.0806 70.8198 91.9184 70.9782C91.4319 71.1367 91.1076 71.1367 91.1076 71.1367C91.1076 71.1367 91.7562 68.6017 94.513 67.3342C93.8643 67.1758 92.8914 66.542 92.567 66.3836C92.2427 66.0667 92.0806 65.5914 92.0806 65.5914C94.513 66.542 98.0806 66.8589 98.0806 66.8589ZM97.1076 72.5626C95.6481 71.9289 94.6751 70.6614 94.6751 68.9186C94.6751 68.7601 94.6751 68.6017 94.6751 68.2848C93.7022 68.7601 93.3779 69.3939 93.2157 69.8692C93.54 70.6614 94.3508 71.9289 97.1076 72.5626ZM102.621 68.9186C102.621 70.8198 101.324 72.2457 99.54 72.721C103.108 72.721 105.054 71.2951 105.54 70.8198C105.216 70.3445 104.243 69.5523 102.621 68.9186ZM98.567 70.6614C97.5941 70.6614 96.7833 69.8692 96.7833 68.9186C96.7833 68.4433 96.9454 68.1264 97.1076 67.8095C96.4589 67.8095 95.9724 67.968 95.486 67.968C95.3238 68.2848 95.3238 68.6017 95.3238 68.9186C95.3238 70.6614 96.7833 72.0873 98.567 72.0873C100.351 72.0873 101.81 70.6614 101.81 68.9186C101.81 68.7601 101.81 68.7601 101.81 68.6017C101.324 68.4433 100.837 68.2848 100.351 68.1264C100.513 68.2848 100.513 68.6017 100.513 68.9186C100.513 69.8692 99.7022 70.6614 98.567 70.6614ZM115.108 26.4578C118.189 26.4578 123.216 26.1409 129.378 25.1903V61.1552C129.054 61.1552 128.891 60.9968 128.567 60.9968C127.27 60.3631 124.999 58.6203 124.189 57.0359C123.702 56.0853 124.026 54.6594 124.675 53.7088C124.999 53.3919 125.648 52.7581 126.459 53.075C127.432 53.3919 127.918 54.3425 127.756 55.1347C127.756 55.61 127.432 55.9269 127.108 55.9269C126.783 55.9269 126.459 55.7684 126.297 55.61C126.135 55.4515 126.135 55.2931 126.135 55.2931V55.1347H125.972C125.81 55.61 125.81 56.0853 126.135 56.4022C126.459 56.8775 127.108 57.0359 127.756 56.8775C128.243 56.719 128.729 55.9269 128.729 55.1347C128.891 53.8672 128.243 52.7581 126.945 52.2828C125.972 51.966 125.162 51.8075 124.351 52.1244C124.513 51.4907 124.675 50.3816 124.837 48.9557C124.837 48.6388 124.999 48.1635 124.999 47.6882C125.486 45.6285 126.135 42.9351 122.729 41.3508C121.918 41.0339 121.27 41.0339 120.621 41.1923C119.162 40.717 116.891 39.7664 115.918 38.6574C115.432 38.0236 115.27 37.2314 115.594 36.5977C115.918 35.9639 116.567 35.6471 117.378 35.8055C118.513 35.9639 119.162 36.7561 118.999 37.2314C118.999 37.5483 118.837 37.7067 118.513 37.7067C118.027 38.3405 118.026 38.0236 118.026 37.8652C118.026 37.8652 118.027 37.8652 117.864 37.7067H117.702C117.702 38.0236 117.702 38.3405 118.026 38.4989C118.513 38.9742 119.324 38.9742 119.81 38.9742C120.135 38.9742 120.459 38.4989 120.459 37.8652C120.459 37.073 119.81 35.9639 118.189 35.6471C117.216 35.4886 116.405 35.4886 115.756 35.6471C115.756 35.1718 115.756 33.1121 115.432 30.894C115.432 30.2603 114.945 29.4681 114.297 29.1512C113.162 28.8343 111.864 28.6759 110.567 28.359C110.243 28.359 109.918 28.359 109.756 28.5175C109.594 28.5175 108.621 29.1512 108.783 29.1512C108.459 29.4681 108.297 30.1018 108.297 30.5771C108.297 31.0524 108.621 31.5277 109.108 31.8446C110.405 32.6368 111.864 32.4784 112.351 32.0031C112.513 31.8446 112.675 31.5277 112.189 31.0524C112.189 31.0524 112.189 31.0524 112.026 31.0524C112.026 31.0524 112.026 31.0524 112.026 31.2109C112.026 31.2109 112.026 31.3693 111.864 31.5277C111.702 31.6862 111.378 31.8446 110.891 31.6862C110.081 31.6862 109.594 31.0524 109.594 30.7356C109.432 30.4187 109.594 29.9434 109.918 29.785C110.567 29.3096 111.54 28.9928 113.486 30.1018C114.621 30.7356 114.621 33.429 114.621 35.8055C114.621 36.4393 114.621 36.9146 114.621 37.3899C114.621 37.8652 114.621 38.3405 114.783 38.8158V38.9742C115.594 40.8755 118.837 42.1429 119.648 42.6183C118.999 43.252 118.513 44.2026 118.513 44.9948C118.513 45.6285 118.675 46.1038 118.999 46.5791C119.972 47.5298 121.27 47.6882 122.081 47.2129C122.567 46.896 122.729 46.2623 122.567 45.6285C122.567 45.6285 122.567 45.6285 122.405 45.6285C122.405 45.6285 122.405 45.6285 122.405 45.787C122.405 45.787 122.405 46.2623 122.081 46.4207C121.918 46.5791 121.594 46.5791 121.108 46.5791C120.621 46.4207 120.297 46.1038 120.135 45.4701C119.972 44.8364 120.135 44.0442 120.783 43.5689C121.594 42.9351 122.729 42.6183 124.351 44.2026C125.324 45.1532 124.513 49.1141 123.864 52.1244C123.702 52.9166 123.54 53.7088 123.378 54.5009C123.216 54.9762 123.054 55.7684 123.216 56.4022C123.216 56.5606 123.216 56.5606 123.216 56.719C123.378 59.4124 126.135 61.4721 127.108 62.1058C126.297 62.7396 125.81 63.6902 125.81 64.7993C125.81 65.5914 126.135 66.3836 126.621 66.7005C127.594 67.4927 128.729 67.3202 129.378 66.8448V118.509C129.216 118.192 129.054 118.034 128.729 118.034C128.243 117.875 127.594 118.192 127.432 118.826L125.486 125.163C123.702 126.906 121.918 128.966 120.135 131.025L120.621 128.649C120.783 128.015 120.297 127.381 119.648 127.381C118.999 127.381 118.513 127.698 118.513 128.332L117.216 134.511C115.918 136.095 114.459 137.838 113.162 139.581L113.324 137.046C113.324 136.412 112.837 135.778 112.189 135.778C111.54 135.778 111.216 136.254 111.054 136.729L110.567 142.908C109.108 144.809 107.648 146.869 106.189 148.929V146.077C106.189 145.443 105.54 144.968 104.891 144.968C104.243 144.968 103.918 145.443 103.918 146.077L104.081 152.256C102.783 154.474 101.324 156.692 100.189 158.91L99.8643 155.741C99.7022 155.108 99.0535 154.632 98.4049 154.791C97.9184 154.949 97.4319 155.425 97.5941 156.058L98.4049 162.396C97.4319 164.138 96.6211 166.04 95.8103 167.941L94.9995 164.931C94.8373 164.297 94.1887 163.98 93.54 164.138C93.0535 164.297 92.7292 164.931 92.8914 165.406L93.7022 170.001H85.5941L87.0535 166.99C87.2157 166.515 87.0535 165.881 86.567 165.564C85.9184 165.248 85.2697 165.564 84.9454 166.04L83.8103 168.733C83.3238 166.357 82.6751 163.822 82.0265 161.445L83.8103 155.583C83.9724 155.108 83.6481 154.474 83.1616 154.315C82.513 153.999 81.8643 154.315 81.7022 154.949L80.8914 157.484C80.2427 155.425 79.5941 153.365 78.9454 151.305L80.0806 145.126C80.2427 144.651 79.9184 144.017 79.2697 143.859C78.6211 143.7 77.9724 144.017 77.8103 144.651L77.3238 147.027C76.3508 144.492 75.54 141.957 74.567 139.581L75.0535 133.085C75.0535 132.451 74.7292 131.976 74.0806 131.976C73.4319 131.818 72.7833 132.293 72.7833 132.927L72.6211 134.986C71.6481 132.768 70.8373 130.709 69.8643 128.966L69.7022 122.311C69.7022 121.678 69.2157 121.361 68.7292 121.202C68.0806 121.202 67.4319 121.678 67.4319 122.311V123.896C66.1346 121.361 65.3238 119.776 65.3238 119.776C65.1616 119.46 64.8373 119.46 64.513 119.618C64.1887 119.776 64.1887 120.093 64.3508 120.41C64.513 120.727 77.6481 143.542 82.9995 170.001H81.54C76.3508 143.225 63.54 121.044 63.3778 120.727C63.2157 120.41 62.8914 120.41 62.567 120.569C62.2427 120.727 62.2427 121.044 62.4049 121.361C62.4049 121.519 63.54 123.42 65.1616 126.589L63.2157 125.322C62.7292 125.005 61.9184 125.163 61.5941 125.797C61.2697 126.272 61.4319 126.906 61.9184 127.223L66.9454 130.55C68.0806 132.927 69.2157 135.62 70.513 138.789L68.4049 137.363C67.9184 137.046 67.1076 137.204 66.7833 137.838C66.4589 138.313 66.6211 138.947 67.1076 139.264L71.9724 142.433C72.7833 144.492 73.5941 146.552 74.4049 148.929L72.9454 147.661C72.4589 147.186 71.6481 147.344 71.3238 147.82C70.9995 148.295 70.9995 148.929 71.486 149.246L75.8643 153.048C76.513 155.108 77.1616 157.326 77.8103 159.544L76.1887 157.801C75.7022 157.326 74.8914 157.326 74.567 157.801C74.2427 158.276 74.2427 158.91 74.567 159.227L79.1076 163.98C79.5941 166.04 80.0806 167.941 80.567 170.001H79.9184L79.1076 169.208C78.6211 168.733 77.8103 168.733 77.486 169.208C77.3238 169.367 77.1616 169.684 77.1616 170.001H76.3508C71.486 150.671 61.1076 133.243 54.9454 123.896L53.3238 125.005C65.486 143.225 71.3238 159.069 74.0806 170.001H17.486C14.7292 170.001 12.6211 167.941 12.6211 165.248V149.721L53.9724 121.836L54.7833 118.034C55.4319 113.597 56.4049 106.151 55.7562 97.1201C54.6211 81.5934 55.2697 74.3054 60.9454 66.0667C63.54 62.4227 64.3508 59.254 64.6751 55.2931C65.8103 45.9454 69.2157 41.0339 69.2157 41.0339C69.54 40.5586 75.54 30.7356 83.9724 27.0915C92.7292 23.4475 101.81 24.0813 101.81 24.0813C102.135 24.0813 109.108 24.2397 115.108 26.4578ZM91.9184 34.6965C94.513 36.4393 97.2697 37.2314 99.8643 37.8652C98.4049 36.7561 96.4589 35.6471 94.0265 35.1718C93.54 35.0133 93.0535 35.0133 92.567 34.8549C92.4049 34.6965 92.0806 34.6965 91.9184 34.6965ZM88.0265 34.2212C88.6751 35.4886 89.6481 36.7561 91.1076 37.8652C94.1887 40.2417 97.4319 41.0339 100.675 41.6676C101.81 41.9845 102.945 42.1429 104.081 42.4598C103.594 41.5092 102.783 40.2417 101.648 39.1327C101.324 38.9742 100.837 38.9742 100.513 38.8158C97.2697 38.3405 93.7022 37.5483 90.2968 34.8549C90.1346 34.6965 89.8103 34.538 89.6481 34.3796C89.1616 34.3796 88.513 34.2212 88.0265 34.2212ZM86.7292 34.2212C87.3779 36.9146 88.513 39.608 91.1076 41.6676C94.1887 44.0442 97.4319 44.8364 100.675 45.4701C102.459 45.9454 104.405 46.2623 106.026 47.0545C106.026 46.896 105.864 46.7376 105.864 46.5791L105.54 45.6285C105.54 45.4701 105.378 45.4701 105.378 45.3117L105.216 44.9948C105.216 44.9948 105.054 44.5195 104.729 43.7273C103.432 43.252 101.972 42.9351 100.351 42.6183C97.2697 41.9845 93.7022 41.1923 90.4589 38.4989C88.6751 37.3899 87.54 35.9639 86.7292 34.2212ZM86.567 37.7067C87.0535 40.5586 88.3508 43.5689 91.1076 45.6285C94.1887 48.0051 97.4319 48.7972 100.675 49.431C103.108 49.9063 105.54 50.54 107.648 51.8075C107.486 51.0153 107.162 50.3816 106.999 49.7479L106.675 48.9557C106.675 48.9557 106.675 48.7972 106.513 48.7972C104.729 47.8466 102.621 47.3713 100.351 46.7376C97.2697 46.1038 93.7022 45.3117 90.4589 42.6183C88.513 41.1923 87.3778 39.4495 86.567 37.7067ZM73.4319 41.1923C75.8643 40.5586 78.2968 39.7664 80.567 37.8652C81.7022 36.9146 82.6751 35.8055 83.3238 34.6965C81.7022 35.0133 80.8914 35.6471 80.8914 35.6471C78.2968 36.7561 76.1887 38.3405 74.8914 39.608C74.7292 39.7664 74.4049 40.0833 74.2427 40.2417C74.0806 40.4002 73.5941 40.8755 73.4319 41.1923ZM70.9995 45.6285C74.2427 44.8364 77.486 44.2026 80.567 41.6676C82.9995 39.7664 84.2968 37.073 84.9454 34.3796H84.7833C83.9724 35.9639 82.8373 37.3899 81.3779 38.6574C78.4589 40.8755 75.3779 41.8261 72.6211 42.4598C72.2968 43.0936 71.9724 43.5689 71.6481 44.2026L71.1616 45.1532C70.9995 45.4701 70.9995 45.4701 70.9995 45.6285ZM69.7022 49.7479C70.1887 49.5894 70.513 49.5894 70.9995 49.431C74.0806 48.7972 77.3238 48.0051 80.567 45.6285C83.3238 43.5689 84.4589 40.5586 85.1076 37.7067C84.2968 39.4495 83.1616 41.1923 81.3779 42.6183C78.1346 45.1532 74.567 45.9454 71.486 46.7376C71.1616 46.7376 70.9995 46.896 70.6751 46.896C70.6751 47.0545 70.513 47.2129 70.513 47.3713L70.1887 48.3219C70.0265 48.7972 69.8643 49.2726 69.7022 49.7479ZM69.2157 53.7088C69.8643 53.5503 70.3508 53.3919 70.9995 53.2334C74.2427 52.5997 77.486 51.8075 80.567 49.431C83.3238 47.3713 84.4589 44.361 85.1076 41.5092C84.2968 43.252 83.1616 44.9948 81.3779 46.4207C78.1346 48.9557 74.567 49.7479 71.486 50.54C70.8373 50.6985 70.3508 50.8569 69.7022 51.0153V51.4907C69.7022 52.1244 69.54 52.5997 69.54 53.2334C69.54 53.2334 69.54 53.3919 69.54 53.5503L69.2157 53.7088ZM68.7292 96.1695C68.7292 96.0111 67.1076 86.6634 68.7292 80.1675C68.7292 79.8507 68.7292 79.5338 68.7292 79.2169C68.7292 78.9 68.7292 78.5832 68.7292 78.4247C68.7292 78.1079 68.7292 77.9494 68.7292 77.6325C68.7292 77.3157 68.7292 77.1572 68.7292 76.8404C65.486 82.8609 67.5941 96.0111 67.5941 96.0111C67.7562 96.328 68.7292 106.468 68.4049 112.013L69.7022 111.221C69.7022 105.676 68.7292 96.4864 68.7292 96.1695ZM100.351 54.3425C97.2697 53.7088 93.7022 52.9166 90.4589 50.2232C88.0265 48.3219 86.567 45.787 85.9184 43.252C85.2697 45.787 83.8103 48.3219 81.3779 50.2232C78.1346 52.7581 74.567 53.5503 71.486 54.3425C70.6751 54.5009 70.0265 54.6594 69.3779 54.8178C69.3779 55.7684 69.2157 57.0359 69.0535 58.3034V59.254C68.8914 61.4721 68.8914 63.5318 68.8914 64.4824C68.8914 64.9577 69.0535 65.5914 69.2157 66.2252C69.7022 68.2848 70.1887 71.2951 69.7022 74.9391C67.7478 87.8279 76.5805 117.219 94.513 111.379L94.6587 111.332C98.7127 110.065 114.783 102.665 120.135 89.5152L120.297 89.1984L120.621 89.3568C120.621 89.3568 122.081 89.9905 123.378 88.2477C123.054 87.9309 122.891 87.614 122.567 87.2971C121.918 86.3465 121.27 85.5543 120.783 84.6037L119.648 86.505L119.972 83.4947C114.459 74.7807 111.702 66.2252 109.594 58.9371C107.162 55.9269 103.918 55.1347 100.351 54.3425ZM107.972 53.5503C105.864 51.8075 103.27 51.1738 100.351 50.54C97.2697 49.9063 93.7022 49.1141 90.4589 46.4207C88.6751 44.9948 87.54 43.252 86.7292 41.5092C87.2157 44.361 88.513 47.3713 91.2697 49.431C94.3508 51.8075 97.5941 52.5997 100.837 53.2334C103.918 53.8672 106.837 54.5009 109.108 56.719C109.108 56.5606 108.945 56.4022 108.945 56.2437C108.945 56.0853 108.783 55.9269 108.783 55.7684L108.621 54.9762C108.297 54.5009 108.135 54.0256 107.972 53.5503ZM115.108 26.9331C114.621 26.9331 113.162 26.9331 112.999 26.9331C113.486 26.9331 114.135 26.9331 115.108 26.9331ZM92.567 86.9803C92.567 85.5543 91.5941 85.079 91.5941 85.079C92.2427 87.614 90.7833 89.1984 90.7833 89.1984C90.7833 89.1984 92.567 88.2477 92.567 86.9803ZM105.702 67.1758C104.891 66.3836 101.648 64.0071 98.0806 64.0071C95.3238 64.0071 94.6751 65.433 94.6751 65.433C94.6751 65.433 96.6211 64.4824 100.351 65.5914C104.081 66.7005 106.999 68.9186 106.999 68.9186C106.999 68.9186 106.513 67.968 105.702 67.1758ZM88.3508 87.4556C88.9995 87.614 89.3238 86.505 88.0265 85.7128C86.7292 84.9206 84.7833 85.5543 84.7833 85.5543C84.7833 85.5543 85.5941 85.5543 86.7292 86.0296C88.0265 86.6634 87.7022 87.2971 88.3508 87.4556ZM86.567 101.715C85.2697 101.873 85.1076 102.982 84.9454 102.982C84.9454 102.982 85.1076 102.507 86.7292 102.349C88.3508 102.19 88.8373 102.982 88.8373 102.982C88.6751 102.349 87.8643 101.556 86.567 101.715ZM81.3779 87.7724C79.5941 87.4556 77.9724 86.6634 78.1346 84.6037C78.2968 82.5441 81.3778 79.0585 82.513 72.8795C82.1887 73.1963 82.0265 73.5132 81.54 73.8301C79.9184 75.0976 78.6211 74.9391 78.7833 74.9391C78.7833 74.7807 79.9184 74.4638 80.7292 73.8301C81.54 73.1963 82.513 71.7704 81.54 71.7704C80.4049 72.4042 78.1346 73.1963 75.7022 72.8795C72.2968 72.5626 70.6751 70.8198 70.3508 70.5029C70.3508 70.5029 70.3508 70.5029 70.1887 70.3445V70.1861C70.0265 69.3939 71.6481 67.3342 71.6481 67.3342C71.1616 67.1758 70.8373 66.7005 70.6751 66.3836C70.513 66.2252 70.6751 66.0667 70.8373 66.0667C71.486 66.2252 72.9454 66.3836 75.3779 66.7005C80.0806 67.1758 81.8643 70.3445 82.3508 70.6614C82.8373 70.9782 83.1616 70.5029 83.1616 70.5029C83.1616 70.3445 83.1616 70.3445 83.3238 70.1861C83.3238 69.8692 83.3238 69.5523 82.9995 69.2355C82.9995 69.2355 81.3779 66.8589 78.6211 66.0667C75.7022 65.2746 74.0806 65.7499 73.5941 65.433C73.1076 65.2746 73.5941 64.4824 75.2157 64.4824C76.8373 64.4824 79.5941 64.9577 82.1887 67.6511C82.3508 67.8095 82.513 67.968 82.513 68.1264C82.513 68.1264 82.8373 68.2848 83.1616 68.2848C83.486 68.1264 83.8103 68.6017 83.486 68.7601C83.3238 68.9186 83.3238 69.3939 83.486 69.7108C83.486 69.8692 83.486 69.8692 83.486 70.0276C83.486 70.1861 83.486 70.3445 83.486 70.3445C83.486 70.3445 83.6481 71.2951 82.8373 74.6223C82.0265 77.9494 79.1076 83.6531 79.1076 84.1284C78.9454 84.4453 78.7833 85.7128 80.2427 86.505C81.7022 87.4556 83.9724 87.614 84.6211 89.8321C84.6211 89.8321 82.9995 88.0893 81.3779 87.7724ZM72.2968 71.4536C71.8103 70.8198 71.3238 70.0276 71.3238 69.077C71.3238 68.9186 71.3238 68.7601 71.3238 68.6017C70.6751 69.2355 70.3508 70.1861 70.3508 70.1861C70.8373 70.3445 71.3238 70.9782 72.2968 71.4536ZM78.2968 68.9186C77.8103 68.6017 77.3238 68.4433 76.9995 68.2848C76.9995 68.4433 77.1616 68.6017 77.1616 68.9186C77.1616 69.8692 76.3508 70.6614 75.3779 70.6614C74.4049 70.6614 73.5941 69.8692 73.5941 68.9186C73.5941 68.4433 73.7562 68.1264 74.0806 67.8095C73.5941 67.8095 72.9454 67.8095 72.6211 67.968C72.4589 68.2848 72.4589 68.6017 72.4589 68.9186C72.4589 70.5029 73.7562 71.9289 75.54 71.9289C77.3238 71.9289 78.2968 70.6614 78.2968 68.9186ZM80.8914 71.2951C80.8914 70.9782 80.8914 70.6614 80.7292 70.5029C80.4049 70.0276 79.7562 69.7108 78.9454 69.2355C78.7833 70.3445 78.2968 71.2951 77.3238 71.9289C79.4319 71.9289 80.8914 71.4536 80.8914 71.2951ZM72.9454 62.1058C74.4049 61.6305 75.8643 61.4721 75.8643 61.4721C82.513 61.4721 83.3238 67.0174 83.3238 67.0174C83.6481 64.1655 81.54 60.0462 77.9724 59.5709C74.4049 59.0956 71.9724 60.3631 71.1616 61.1552C70.513 61.9474 71.486 62.5812 72.9454 62.1058Z" fill="#24242E"/>
<path fill-rule="evenodd" clip-rule="evenodd" d="M76.3514 125.577C76.3514 125.577 76.6757 126.529 77.3244 128.115C89.4865 131.923 107 130.337 113.487 129.543C114.297 128.591 115.108 127.798 115.919 127.005C115.919 127.005 91.4325 130.813 76.3514 125.577ZM57.0541 149.216L59.8108 139.856C61.9189 143.822 65.8108 152.548 65.8108 152.548L57.0541 149.216ZM62.0811 161.115L59.973 166.986C59.973 166.986 58.5135 162.067 56.7298 158.418L62.0811 161.115ZM106.999 170C108.62 166.668 109.919 164.764 109.919 164.764L110.73 170H106.999ZM51.7027 125.894C52.5135 127.163 54.4595 130.813 55.1081 132.399L46.6758 128.75L51.7027 125.894ZM66.946 170L69.7027 162.226C69.7027 162.226 70.9823 165.558 72.2796 170H66.946ZM46.6758 138.269L52.8379 139.856L50.7298 146.837C50.7298 146.837 48.2974 141.125 46.6758 138.269ZM124.351 143.663V153.817L115.27 155.721C118.838 149.851 124.351 143.663 124.351 143.663ZM129.378 33.7163C128.73 34.0336 127.919 34.1923 126.946 34.0337C126.946 33.399 127.432 32.1298 129.378 31.3365V33.7163ZM113.503 28.0945C114.303 28.3873 115.811 28.9392 117.054 29.75C121.432 32.2885 125.649 37.0406 129.378 42.7522V46.5599C125 39.4204 120.135 33.399 114.946 30.226C113.703 29.4151 112.195 28.8633 111.395 28.5704C110.942 28.4049 110.716 28.3221 110.892 28.3221C107.649 27.0529 104.568 25.7837 101.811 25.625C101.811 25.625 104.243 25.7837 108.297 26.4183C109.461 26.6712 111.008 27.1837 112.13 27.558C112.415 27.6532 112.704 27.7497 113 27.8462C112.824 27.8462 113.051 27.9289 113.503 28.0945ZM119 169.365L118.027 163.654L123.541 161.591C121.27 164.447 119 169.365 119 169.365ZM120.946 29.1154C120.743 28.9567 120.541 28.7981 120.297 28.6394C122.694 28.4831 125.721 28.1726 129.378 27.5563V27.8675C126.986 28.1848 124.29 28.6605 121.595 29.5913C121.351 29.4327 121.149 29.274 120.946 29.1154ZM119.733 52.555C120.15 53.7529 120.574 54.973 120.946 56.2452C122.892 62.5913 125.162 69.5721 129.378 77.0288V80.0433C124.351 71.476 121.757 63.7019 119.487 56.7212C119.115 55.449 118.69 54.2289 118.273 53.031C117.962 52.1374 117.656 51.2562 117.378 50.375C110.081 29.75 99.8649 28.0048 89 28.0048C87.8649 28.0048 86.7298 28.1635 85.5946 28.4808C87.0541 27.8462 89.1622 27.2115 91.5946 26.7356C101.649 27.0529 111.703 30.226 118.838 49.899C119.115 50.7802 119.422 51.6614 119.733 52.555ZM127.025 116.493C127.873 115.71 128.673 114.971 129.378 114.313V112.996C126.499 113.971 121.263 115.364 114.047 116.119C113.65 116.092 113.277 116.125 112.944 116.228C109.869 116.515 106.427 116.692 102.622 116.692C100.945 116.692 99.336 116.651 97.795 116.576C97.1776 116.404 96.5441 116.358 96.0165 116.47C84.3969 115.688 76.9983 113.011 74.2433 111.933L69.7027 114.788L75.3784 124.308C90.946 129.861 117.541 125.736 117.541 125.736C119.362 123.572 123.584 119.672 127.025 116.493ZM96.0165 116.47C95.2632 116.63 94.687 117.108 94.3514 117.962C93.7298 119.33 94.4485 120.261 94.9376 120.895C94.9589 120.923 94.9797 120.95 95 120.976C94.7545 120.88 94.4644 120.769 94.1477 120.648C93.4184 120.37 92.5482 120.039 91.7568 119.707C91.5946 119.548 91.2703 119.707 91.2703 120.024C91.2703 121.135 90.946 122.404 90.7838 123.038C90.7838 123.356 90.946 123.514 91.2703 123.514C92.4054 123.197 93.8649 122.721 95 122.245C94.5135 122.88 93.8649 123.99 94.1892 124.942C95.4865 127.957 98.7298 126.37 99.7027 125.418C99.982 125.145 100.562 124.548 101.222 123.869C102.096 122.97 103.11 121.926 103.757 121.293C104.081 120.976 104.081 120.341 103.595 120.024C103.086 119.669 102.415 119.25 101.756 118.838C100.944 118.331 100.15 117.836 99.7027 117.486C99.0784 117.063 98.4257 116.751 97.795 116.576C97.2046 116.547 96.5869 116.509 96.0165 116.47ZM112.944 116.228C112.259 116.439 111.744 116.94 111.541 117.803C111.054 119.072 111.865 120.024 112.514 120.5C111.703 120.341 110.568 120.024 109.432 119.707C109.27 119.707 108.946 119.865 108.946 120.024C108.946 120.657 108.893 121.289 108.848 121.834C108.814 122.245 108.784 122.607 108.784 122.88C108.784 123.197 108.946 123.356 109.27 123.197C110.243 122.88 111.541 122.245 112.676 121.611C112.189 122.245 111.703 123.356 112.189 124.149C113.649 126.846 116.568 125.101 117.378 124.149C117.703 123.514 119.649 121.135 120.622 120.024C120.946 119.707 120.784 119.072 120.297 118.913C119.753 118.609 119.023 118.232 118.321 117.87C117.558 117.476 116.828 117.099 116.405 116.851C115.607 116.431 114.786 116.169 114.047 116.119C113.685 116.157 113.317 116.193 112.944 116.228ZM85.3922 117.504C86.002 118.028 86.6118 118.553 87.0541 118.913C87.3784 119.231 87.3784 119.707 87.0541 120.024C85.7568 120.976 83.1622 122.88 82.3514 123.514C81.3784 124.308 77.8108 125.418 77 122.245C76.6757 121.293 77.4865 120.341 78.1352 119.707C76.8379 120.024 75.3784 120.341 74.2433 120.5C74.0811 120.5 73.7568 120.341 73.9189 120.024C73.9475 119.954 73.9773 119.882 74.0081 119.807C74.3265 119.035 74.744 118.022 74.8919 117.01C74.8919 116.851 75.2162 116.692 75.3784 116.851C76.0622 117.408 76.8261 117.809 77.5013 118.163C77.7867 118.313 78.0564 118.455 78.2973 118.596C77.8108 117.962 77.3244 116.851 78.1352 115.582C79.2703 113.678 81.7027 114.154 83.4865 115.899C83.9288 116.245 84.6605 116.875 85.3922 117.504ZM116.568 96.8606C118.189 94.7981 119.649 92.5769 120.622 90.1971C121.27 90.3558 122.568 90.5144 123.703 88.7692C124.076 89.2556 124.438 89.7315 124.792 90.1972C125.825 91.5543 126.791 92.8235 127.757 94.0048C125.295 96.1124 119.037 96.6487 116.879 96.8336C116.763 96.8435 116.659 96.8525 116.568 96.8606Z" fill="#F4C900"/>
<path d="M68.3111 53.836C68.3111 53.9945 68.3111 53.9945 68.3111 54.153C68.1487 56.6886 67.6615 62.8692 67.8239 64.6124C67.8239 65.0878 67.9863 65.7217 68.1487 66.5141C68.3111 67.465 68.6359 68.5743 68.6359 70.0006C68.1487 71.5853 67.3367 73.487 65.8749 76.0227C61.9771 82.0447 64.2508 97.0999 64.4132 97.2584C64.5756 97.7338 65.5501 108.193 65.2253 114.374L56.6175 120.237C57.2671 116.434 58.404 108.193 57.5919 97.4169C56.455 81.8863 57.1047 75.2303 62.7891 67.148C65.3877 63.5031 66.0374 59.5412 66.5246 55.7378C67.3367 50.9835 67.9863 46.2292 72.209 41.7919C71.5594 42.7427 70.9097 43.8521 70.4225 44.9614C70.4225 44.9614 70.2601 45.1199 70.2601 45.2784C69.9352 46.0707 69.1232 48.4479 69.1232 48.4479C68.7984 50.0326 68.4735 51.6174 68.3111 53.3606C68.4735 53.2021 68.4735 53.3606 68.3111 53.836ZM40.2139 134.183L30.3067 140.522C32.5805 144.96 38.9146 158.272 43.2997 169.999H55.9678C50.933 155.102 40.2139 134.183 40.2139 134.183ZM26.5712 142.899L23.9727 144.484C25.9216 148.446 30.9564 159.539 35.1791 169.999H39.2394C35.0167 159.064 28.6826 147.02 26.5712 142.899ZM77.8934 129.429C80.9793 137.353 86.6637 153.359 88.775 165.403C89.2623 168.097 89.5871 169.523 89.9119 169.84H90.3992L88.775 139.571L81.3041 138.938L84.8771 131.014L88.775 139.73L96.0836 140.205L101.118 131.806L104.204 140.205H96.246L90.5616 169.999C92.0233 167.939 94.9467 149.714 112.325 130.855C104.854 131.648 89.2623 132.757 77.8934 129.429ZM129.378 108.669C123.369 110.57 115.086 112.472 104.367 112.472C100.631 112.472 97.3829 112.314 94.6219 112.155H94.4595C91.6985 113.106 86.5013 114.691 80.6544 109.62C79.68 109.303 79.0303 108.986 78.5431 108.669L75.7821 110.57C80.1672 112.472 89.0999 114.849 104.204 114.849C114.761 114.849 123.206 113.106 129.378 111.046V108.669ZM104.042 107.559C101.118 109.303 98.3573 110.729 96.5708 111.521C99.8191 111.68 115.248 111.838 129.378 107.401V103.439C124.831 104.865 117.36 106.925 104.042 107.559ZM123.369 31.174C124.343 31.9664 125.155 32.9172 126.13 33.8681C126.292 33.0757 126.779 31.3325 129.378 30.5401V29.9062C127.429 30.2232 125.48 30.5401 123.369 31.174ZM127.592 34.819C127.429 34.819 127.104 34.819 126.779 34.819C127.429 35.4529 127.916 36.2452 128.566 37.0376C128.891 36.7207 129.053 36.4037 129.378 36.2452V34.3435C128.891 34.6605 128.241 34.819 127.592 34.819ZM128.728 95.1982C127.754 95.8321 124.668 97.4169 115.248 98.3677C112.487 101.537 109.077 104.231 105.828 106.292C108.589 106.133 120.933 105.341 129.378 102.171V95.9906C129.216 95.8321 128.891 95.5152 128.728 95.1982ZM118.821 57.0056C118.172 54.7869 117.36 52.7267 116.71 50.825C109.401 30.5401 99.3318 28.7969 88.9374 28.7969C81.7913 28.7969 76.1069 34.9774 73.1835 39.0978C75.9445 36.4037 80.6544 33.2342 86.3389 33.2342C97.058 33.2342 100.469 37.3546 100.469 37.3546C105.341 41.3165 107.29 47.9724 109.564 56.0547C112.162 64.7709 115.248 75.7057 123.206 86.799C123.531 87.2744 123.856 87.5914 124.018 88.0668C125.805 90.444 127.591 92.8211 129.378 94.8813V81.4108C123.856 72.3777 121.095 64.2954 118.821 57.0056Z" fill="#C72F2A"/>
<path d="M33.5383 80.7311C31.2306 78.8849 27.846 75.0388 26.4614 73.5003C26.1537 73.1926 25.5383 73.1926 25.2306 73.5003C23.846 75.0388 20.6152 78.8849 18.1537 80.7311C12.7691 85.3465 10.6152 87.5003 10.6152 91.5003C10.6152 96.1157 14.6152 99.9618 19.5383 99.9618C21.3845 99.9618 23.5383 99.3465 24.9229 98.2695L25.0768 98.1157C24.7691 100.423 23.9998 103.808 21.6922 106.116C21.3845 106.423 21.5383 106.731 21.9998 106.731H25.9998H29.9998C30.3075 106.731 30.4614 106.27 30.3075 106.116C27.9998 103.808 27.2306 100.577 26.9229 98.1157L27.0768 98.2695C28.3075 99.3465 30.6152 99.9618 32.4614 99.9618C37.3845 99.9618 41.3845 96.1157 41.3845 91.5003C41.3845 87.5003 39.2306 85.3465 33.5383 80.7311Z" fill="#24242E"/>
<path d="M39.3166 68.514L35.6906 72.362L27.8466 64.666C27.2546 64.666 26.8846 64.74 25.9966 64.74C22.5186 64.74 16.3026 64.518 14.0086 58.228C13.4166 56.6 12.8246 54.528 12.8246 42.17C12.8246 37.878 12.8246 26.186 13.1946 22.56C13.4906 19.748 14.5266 10.942 26.4406 10.942C28.4386 10.942 33.1746 11.164 36.0606 14.864C38.4286 17.972 38.8726 21.894 38.8726 31.81C38.8726 36.546 38.6506 44.538 38.5026 48.46C38.2806 54.232 37.9846 60.226 32.8786 63.112L39.3166 68.514ZM19.4846 37.138C19.4846 47.942 19.4846 51.494 19.7066 53.418C19.8546 55.12 20.2986 59.412 25.7746 59.412C31.4726 59.412 31.7686 54.454 31.9166 51.05C32.0646 47.35 32.2126 40.838 32.2126 37.138C32.2126 34.4 32.2866 29.812 32.1386 24.854C32.0646 22.042 31.9166 16.418 26.1446 16.418C20.2986 16.418 19.9286 21.302 19.6326 24.78C19.4846 26.704 19.4846 28.628 19.4846 37.138Z" fill="#24242E"/>
<defs>
<linearGradient id="paint0_linear_324_104575" x1="92" y1="2" x2="92" y2="182" gradientUnits="userSpaceOnUse">
<stop stop-color="white" stop-opacity="0.85"/>
<stop offset="1" stop-color="white" stop-opacity="0.15"/>
</linearGradient>
</defs>
</svg>
