<svg width="184" height="184" viewBox="0 0 184 184" fill="none" xmlns="http://www.w3.org/2000/svg">
<rect x="1" y="1" width="182" height="182" rx="13" stroke="black" stroke-opacity="0.25" stroke-width="2"/>
<rect x="2.5" y="2.5" width="179" height="179" rx="11.5" fill="#E9E9E9" stroke="url(#paint0_linear_324_104472)"/>
<rect x="41.0449" y="30.5" width="101.909" height="123" rx="1.5" fill="#D7D5D7" stroke="#CDCFD6"/>
<path d="M85.6154 90.8257C76.2692 103.287 65.5385 115.057 53.7692 125.787C53.0769 126.48 53.0769 127.518 53.7692 128.21C65.5385 138.941 76.2692 150.71 85.6154 163.172C86.3077 164.21 87.6923 164.21 88.3846 163.172C97.7308 150.71 108.462 138.941 120.231 128.21C120.923 127.518 120.923 126.48 120.231 125.787C108.462 115.057 97.7308 103.287 88.3846 90.8257C87.6923 89.7873 86.3077 89.7873 85.6154 90.8257Z" fill="#BF3030"/>
<path d="M27.3846 73.9243C23.2308 79.4627 18.4615 84.6935 13.2308 89.4627C12.9231 89.7704 12.9231 90.232 13.2308 90.5397C18.4615 95.3089 23.2308 100.54 27.3846 106.078C27.6923 106.54 28.3077 106.54 28.6154 106.078C32.7692 100.54 37.5385 95.3089 42.7692 90.5397C43.0769 90.232 43.0769 89.7704 42.7692 89.4627C37.5385 84.6935 32.7692 79.4627 28.6154 73.9243C28.3077 73.4627 27.6923 73.4627 27.3846 73.9243Z" fill="#BF3030"/>
<path d="M22.4484 11.756V64H15.8624V23.004H7.20437V18.046C11.4964 18.046 16.8984 18.046 16.8984 11.756H22.4484ZM48.9016 37.804C48.9016 40.764 48.7536 52.234 48.5316 54.676C48.2356 57.044 47.4216 64.666 37.2836 64.666C32.8436 64.666 27.6636 63.26 26.1836 57.784C25.5916 55.638 25.2956 53.418 25.2956 37.73C25.2956 21.45 25.5176 20.192 26.4056 17.602C28.5516 11.534 34.9896 11.09 37.0616 11.09C39.5776 11.09 45.3496 11.756 47.6436 17.454C48.8276 20.34 48.9016 21.524 48.9016 37.804ZM42.3156 38.1V29.368C42.3156 20.784 42.3156 16.936 37.1356 16.936C32.0296 16.936 31.8816 21.302 31.8076 24.262C31.7336 28.258 31.7336 29.368 31.7336 40.69C31.7336 43.354 31.7336 49.274 31.8076 51.494C31.8816 55.12 32.0296 58.894 36.9876 58.894C42.0196 58.894 42.1676 55.416 42.2416 51.198C42.3156 49.718 42.3156 46.388 42.3156 38.1Z" fill="#BF3030"/>
<defs>
<linearGradient id="paint0_linear_324_104472" x1="92" y1="2" x2="92" y2="182" gradientUnits="userSpaceOnUse">
<stop stop-color="white" stop-opacity="0.85"/>
<stop offset="1" stop-color="white" stop-opacity="0.15"/>
</linearGradient>
</defs>
</svg>
