<svg width="184" height="184" viewBox="0 0 184 184" fill="none" xmlns="http://www.w3.org/2000/svg">
<rect x="1" y="1" width="182" height="182" rx="13" stroke="black" stroke-opacity="0.25" stroke-width="2"/>
<rect x="2.5" y="2.5" width="179" height="179" rx="11.5" fill="#E9E9E9" stroke="url(#paint0_linear_324_104470)"/>
<rect x="41.0449" y="30.5" width="101.909" height="123" rx="1.5" fill="#D7D5D7" stroke="#CDCFD6"/>
<path d="M83.6154 90.8257C74.2692 103.287 63.5385 115.057 51.7692 125.787C51.0769 126.48 51.0769 127.518 51.7692 128.21C63.5385 138.941 74.2692 150.71 83.6154 163.172C84.3077 164.21 85.6923 164.21 86.3846 163.172C95.7308 150.71 106.462 138.941 118.231 128.21C118.923 127.518 118.923 126.48 118.231 125.787C106.462 115.057 95.7308 103.287 86.3846 90.8257C85.6923 89.7873 84.3077 89.7873 83.6154 90.8257Z" fill="#BF3030"/>
<path d="M25.3846 73.9243C21.2308 79.4627 16.4615 84.6935 11.2308 89.4627C10.9231 89.7704 10.9231 90.232 11.2308 90.5397C16.4615 95.3089 21.2308 100.54 25.3846 106.078C25.6923 106.54 26.3077 106.54 26.6154 106.078C30.7692 100.54 35.5385 95.3089 40.7692 90.5397C41.0769 90.232 41.0769 89.7704 40.7692 89.4627C35.5385 84.6935 30.7692 79.4627 26.6154 73.9243C26.3077 73.4627 25.6923 73.4627 25.3846 73.9243Z" fill="#BF3030"/>
<path d="M14.361 47.276V28.406C14.361 21.968 14.361 21.228 14.805 19.23C15.323 16.566 17.025 11.09 25.461 11.09C28.791 11.09 32.121 11.978 34.267 14.568C36.487 17.158 36.487 20.118 36.487 24.188H30.419C30.419 19.896 30.419 16.862 25.609 16.862C21.687 16.862 20.947 19.6 20.725 20.488C20.355 22.042 20.355 24.188 20.355 29.664V33.586C21.539 32.18 23.537 29.886 27.681 29.886C29.975 29.886 32.491 30.626 34.415 32.698C36.783 35.14 37.153 37.804 37.153 46.166C37.153 50.606 37.153 57.192 35.525 60.004C33.453 63.408 29.383 64.666 25.387 64.666C23.611 64.666 16.137 64.666 14.731 56.526C14.361 54.306 14.361 51.124 14.361 47.276ZM30.789 47.498C30.789 46.166 30.715 41.282 30.641 40.246C30.567 39.136 30.197 35.288 25.535 35.288C20.429 35.288 20.429 39.58 20.429 47.572C20.429 49.792 20.429 53.196 20.651 54.824C20.873 55.786 21.391 58.968 25.757 58.968C30.789 58.968 30.789 55.12 30.789 47.498Z" fill="#BF3030"/>
<defs>
<linearGradient id="paint0_linear_324_104470" x1="92" y1="2" x2="92" y2="182" gradientUnits="userSpaceOnUse">
<stop stop-color="white" stop-opacity="0.85"/>
<stop offset="1" stop-color="white" stop-opacity="0.15"/>
</linearGradient>
</defs>
</svg>
