<svg width="184" height="184" viewBox="0 0 184 184" fill="none" xmlns="http://www.w3.org/2000/svg">
<rect x="1" y="1" width="182" height="182" rx="13" stroke="black" stroke-opacity="0.25" stroke-width="2"/>
<rect x="2.5" y="2.5" width="179" height="179" rx="11.5" fill="#E9E9E9" stroke="url(#paint0_linear_324_104515)"/>
<rect x="41.0449" y="30.5" width="101.909" height="123" rx="1.5" fill="#D7D5D7" stroke="#CDCFD6"/>
<path d="M99.1925 94.5898C94.0002 94.5898 89.154 96.6668 85.3463 100.128C85.0002 100.474 84.654 100.474 84.3079 100.128C80.8463 96.6668 76.0002 94.5898 70.4617 94.5898C59.3848 94.5898 50.3848 103.59 50.3848 115.013C50.3848 125.051 55.2309 130.244 68.0386 140.974C73.2309 145.474 80.8463 154.821 83.6156 158.628C84.3079 159.667 85.6925 159.667 86.3848 158.628C89.5002 154.821 96.7694 145.474 101.962 140.974C114.423 129.898 119.616 125.051 119.616 115.013C119.616 103.59 110.616 94.5898 99.1925 94.5898Z" fill="#BF3030"/>
<path d="M32.3076 75.5977C29.9999 75.5977 27.846 76.5207 26.1537 78.0592C25.9999 78.213 25.846 78.213 25.6922 78.0592C24.1537 76.5207 21.9999 75.5977 19.5383 75.5977C14.6152 75.5977 10.6152 79.5977 10.6152 84.6746C10.6152 89.1361 12.7691 91.4438 18.4614 96.213C20.7691 98.213 24.1537 102.367 25.3845 104.059C25.6922 104.521 26.3076 104.521 26.6152 104.059C27.9999 102.367 31.2306 98.213 33.5383 96.213C39.0768 91.29 41.3845 89.1361 41.3845 84.6746C41.3845 79.5977 37.3845 75.5977 32.3076 75.5977Z" fill="#BF3030"/>
<path d="M20.4484 11.756V64H13.8624V23.004H5.20437V18.046C9.49637 18.046 14.8984 18.046 14.8984 11.756H20.4484ZM46.9016 37.804C46.9016 40.764 46.7536 52.234 46.5316 54.676C46.2356 57.044 45.4216 64.666 35.2836 64.666C30.8436 64.666 25.6636 63.26 24.1836 57.784C23.5916 55.638 23.2956 53.418 23.2956 37.73C23.2956 21.45 23.5176 20.192 24.4056 17.602C26.5516 11.534 32.9896 11.09 35.0616 11.09C37.5776 11.09 43.3496 11.756 45.6436 17.454C46.8276 20.34 46.9016 21.524 46.9016 37.804ZM40.3156 38.1V29.368C40.3156 20.784 40.3156 16.936 35.1356 16.936C30.0296 16.936 29.8816 21.302 29.8076 24.262C29.7336 28.258 29.7336 29.368 29.7336 40.69C29.7336 43.354 29.7336 49.274 29.8076 51.494C29.8816 55.12 30.0296 58.894 34.9876 58.894C40.0196 58.894 40.1676 55.416 40.2416 51.198C40.3156 49.718 40.3156 46.388 40.3156 38.1Z" fill="#BF3030"/>
<defs>
<linearGradient id="paint0_linear_324_104515" x1="92" y1="2" x2="92" y2="182" gradientUnits="userSpaceOnUse">
<stop stop-color="white" stop-opacity="0.85"/>
<stop offset="1" stop-color="white" stop-opacity="0.15"/>
</linearGradient>
</defs>
</svg>
