<svg width="184" height="184" viewBox="0 0 184 184" fill="none" xmlns="http://www.w3.org/2000/svg">
<rect x="1" y="1" width="182" height="182" rx="13" stroke="black" stroke-opacity="0.25" stroke-width="2"/>
<rect x="2.5" y="2.5" width="179" height="179" rx="11.5" fill="#E9E9E9" stroke="url(#paint0_linear_324_104543)"/>
<rect x="41.0449" y="30.5" width="101.909" height="123" rx="1.5" fill="#D7D5D7" stroke="#CDCFD6"/>
<g clip-path="url(#clip0_324_104543)">
<path d="M12.6211 165.252V149.475C19.1076 144.726 41.5833 128.74 60.4589 123.199L60.5238 122.883L60.4265 122.234C60.3751 121.197 60.5381 120.161 60.9059 119.187C61.2736 118.213 61.5467 117.905 62.2751 117.149L62.9724 116.566L63.7022 116.059L62.9724 115.758C62.6756 115.414 62.4399 115.023 62.2751 114.603C61.9702 113.825 61.8876 112.981 62.0361 112.161C62.1846 111.341 62.3317 111.135 62.8914 110.506C63.3746 109.933 64.5986 109.144 65.3238 108.92C66.0489 108.695 66.2117 108.723 66.9454 108.92C67.3413 109.014 67.9047 109.211 68.2374 109.441H68.6968L69.0535 108.444C69.3187 107.505 69.5352 106.554 69.7022 105.594C69.7022 105.182 69.8481 104.802 69.913 104.47C70.4903 101.878 71.2655 99.3326 72.2319 96.8541C73.6589 91.8668 72.9778 86.6103 72.4914 82.7788C72.3778 81.813 72.2481 80.7997 72.1833 79.9289C72.0035 77.5352 72.1893 75.1287 72.7346 72.7883C72.9563 71.4908 72.8277 70.1593 72.3616 68.9251L70.9995 65.9803C69.4239 62.7115 67.388 59.6739 64.9508 56.9556C63.3692 55.21 61.6853 53.5554 59.9076 51.9999C59.1011 51.3006 58.5133 50.3931 58.2121 49.3818C57.9108 48.3706 57.9083 47.2969 58.2049 46.2843C58.4905 45.2855 59.059 44.3857 59.845 43.6883C60.631 42.9909 61.6026 42.5243 62.6481 42.3419C68.3472 41.4271 74.192 41.9726 79.6103 43.9252L80.0806 44.0994V43.5136C80.0933 42.7351 80.4178 41.9925 80.9847 41.445C81.5516 40.8975 82.3643 40.7026 83.1616 40.6986H83.567V40.2362C83.8074 38.6104 84.1723 37.4694 84.7833 35.939C84.8478 35.8434 84.9861 35.4807 85.0873 35.423C85.1886 35.3654 85.315 35.1617 85.4319 35.1539C85.5621 35.1346 85.8216 35.297 85.9361 35.423C86.4049 35.939 86.3233 35.838 86.4049 35.939C87.5045 37.3966 88.1182 38.4789 88.7724 40.1729L88.8373 40.4895H89.1499C89.7236 40.2711 90.3806 40.1057 90.9778 40.252C91.3676 40.3371 91.7354 40.4989 92.0589 40.7276C92.3823 40.9563 92.6545 41.247 92.8589 41.582C93.1399 42.0196 93.2966 42.5223 93.313 43.0386V43.5452L93.7022 43.8716C95.1099 43.3207 96.6543 42.3546 98.1292 42.0095C105.177 40.3537 112.423 41.3662 118.837 44.6649L119.599 44.8435V44.2102C119.567 43.9473 119.567 43.6815 119.599 43.4186C119.771 42.6643 120.235 42.0042 120.894 41.5763C121.553 41.1483 122.356 40.9859 123.135 41.1228H123.232L123.572 41.2337L123.686 40.9012C124.24 39.3725 125.255 38.1082 126.135 36.7322C126.018 36.7908 126.204 36.6235 126.135 36.7322C126.003 36.724 126.252 36.6737 126.135 36.7322C126.263 36.7356 126.837 36.6654 126.945 36.7322C126.887 36.6207 127.054 36.7991 126.945 36.7322C127.66 38.1049 128.383 39.4026 128.745 40.9012V41.2495H129.118L129.378 41.4918V165.252C129.378 166.511 128.865 167.719 127.953 168.61C127.041 169.501 125.803 170.001 124.513 170.001H17.486C16.1957 170.001 14.9583 169.501 14.046 168.61C13.1336 167.719 12.6211 166.511 12.6211 165.252Z" fill="#E7E7E7"/>
<path d="M94.0589 98.3552C93.9483 97.6443 93.6647 96.9697 93.2319 96.3883C93.682 96.7618 94.0313 97.2378 94.249 97.7745C94.4667 98.3111 94.5463 98.8919 94.4806 99.4656C94.0265 101.131 92.0157 100.544 91.6427 99.9256C91.2697 99.307 90.0211 97.6732 88.7238 98.1173C88.8584 97.8127 89.0872 97.557 89.3781 97.3863C89.669 97.2155 90.0073 97.1383 90.3454 97.1656C91.6427 97.3083 91.4968 98.7518 92.4211 99.2435C93.3454 99.7353 94.2049 99.2277 94.0589 98.3552ZM99.5887 108.127C100.14 107.682 98.5833 108.269 97.513 107.191C96.4427 106.112 93.7833 102.146 89.9238 102.432C89.9238 102.432 89.6968 104.399 90.5724 104.954C91.4481 105.509 92.3238 104.954 94.6914 106.667C97.0589 108.38 99.0211 108.618 99.5887 108.127ZM112.562 81.0017C110.335 78.6793 107.41 77.1122 104.21 76.5285C101.181 76.2332 98.128 76.7832 95.4049 78.1147C92.8265 79.3203 94.967 80.2562 95.7454 80.3037C96.5238 80.3513 98.9887 78.8127 103.351 78.6065C106.262 78.6287 109.105 79.4713 111.54 81.0334C111.873 81.1327 112.229 81.1327 112.562 81.0334V81.0017ZM104.454 92.1054C105.378 91.693 105.199 91.4233 105.199 91.4233C103.856 91.8371 102.437 91.9648 101.038 91.7979C99.6399 91.6311 98.2941 91.1734 97.0914 90.4557C96.8319 90.2971 96.8806 90.8206 97.3346 91.2489C98.3393 92.1081 99.5798 92.6596 100.902 92.8351C102.119 92.931 103.339 92.6891 104.421 92.1371L104.454 92.1054ZM129.378 76.0843L127.286 75.7036C128.101 78.2717 128.511 80.9461 128.502 83.6349C128.502 86.0935 128.372 89.6943 128.243 93.5013C127.956 98.2551 127.918 103.02 128.129 107.778C128.265 108.831 128.594 109.853 129.102 110.791H129.378V112.774C128.569 112.358 127.665 112.15 126.751 112.171C126.2 112.201 125.664 112.361 125.19 112.637C124.715 112.914 124.316 113.298 124.026 113.758C123.498 114.47 123.213 115.328 123.213 116.208C123.213 117.089 123.498 117.947 124.026 118.659C124.521 118.998 125.08 119.236 125.671 119.359C126.262 119.481 126.872 119.486 127.464 119.373C127.83 119.321 128.177 119.177 128.47 118.957C128.763 118.736 128.993 118.445 129.138 118.112C129.283 117.779 129.338 117.415 129.297 117.055C129.257 116.696 129.123 116.352 128.908 116.058C128.7 115.799 128.437 115.586 128.138 115.436C127.838 115.285 127.509 115.2 127.172 115.185C126.873 115.151 126.57 115.221 126.318 115.383C126.065 115.546 125.88 115.79 125.794 116.074C125.724 116.241 125.72 116.428 125.783 116.598C125.846 116.768 125.971 116.909 126.135 116.994C126.37 117.141 126.655 117.192 126.929 117.136C127.051 117.09 127.15 116.999 127.205 116.883C127.256 116.748 127.361 116.639 127.494 116.579C127.628 116.52 127.781 116.515 127.918 116.565C128.056 116.616 128.168 116.718 128.228 116.849C128.289 116.98 128.294 117.129 128.243 117.263C128.159 117.466 128.034 117.649 127.875 117.802C127.716 117.955 127.527 118.074 127.318 118.152C127.049 118.231 126.764 118.254 126.485 118.219C126.205 118.183 125.937 118.09 125.697 117.945C125.303 117.748 124.995 117.417 124.831 117.014C124.667 116.612 124.658 116.165 124.805 115.756C124.98 115.244 125.331 114.806 125.797 114.517C126.264 114.228 126.819 114.106 127.367 114.17C128.141 114.225 128.794 114.485 129.378 114.986V119.579C128.882 120.014 128.359 120.299 127.708 120.436C127.346 120.518 126.976 120.561 126.605 120.563C125.45 120.546 124.324 120.205 123.362 119.579H123.248C122.602 119.132 122.023 118.598 121.529 117.993C117.686 113.599 118.627 102.876 118.675 102.416C118.724 101.956 120.297 80.5734 116.713 74.2126L114.589 73.9746C118.286 79.2885 117.735 91.9151 117.345 100.544C117.345 101.829 117.232 103.035 117.216 104.05C116.972 111.981 118.351 115.836 118.951 117.089C118.951 117.168 122.324 123.513 128.194 121.848C128.61 121.645 129.006 121.406 129.378 121.134V122.403C129.089 122.538 128.791 122.655 128.486 122.752C127.721 122.959 126.928 123.055 126.135 123.037C121.675 123.037 118.691 119.072 117.897 117.438C117.102 115.804 115.821 111.854 116.064 103.907C116.064 102.892 116.145 101.67 116.194 100.386C116.567 91.9468 117.183 77.972 112.951 73.6891C100.072 72.3286 87.0707 72.531 74.2427 74.2919C73.8603 76.1762 73.7295 78.101 73.8535 80.0182C73.881 79.5548 74.0765 79.1161 74.4049 78.7809C75.2957 78.1186 76.3488 77.6967 77.4587 77.5575C78.5686 77.4183 79.6964 77.5667 80.7292 77.9878C82.3508 78.4637 83.9724 77.8133 84.3616 78.3527C84.7508 78.892 84.5887 79.8437 83.0643 80.2403C81.54 80.6369 80.34 79.4789 78.0535 79.1616C77.2882 79.12 76.5227 79.2401 75.8092 79.5138C75.0956 79.7875 74.4507 80.2085 73.9184 80.7479C73.9184 81.3031 74.0481 81.9217 74.1292 82.5562C74.2157 82.6324 74.2777 82.7316 74.3076 82.8417C75.8416 81.8682 77.7064 81.5262 79.4968 81.89C81.9745 82.1597 84.3466 83.0203 86.4049 84.3963C86.3825 83.9595 86.3283 83.5248 86.2427 83.0955C86.2096 83.0333 86.1896 82.9651 86.1839 82.8952C86.1782 82.8252 86.187 82.7548 86.2097 82.6882C86.2324 82.6216 86.2685 82.5602 86.316 82.5075C86.3634 82.4549 86.4212 82.4121 86.486 82.3817C86.622 82.3202 86.777 82.3123 86.9189 82.3596C87.0608 82.4068 87.1787 82.5056 87.2481 82.6355C87.6482 84.5777 87.6482 86.5784 87.2481 88.5205C86.5465 91.2589 85.5518 93.9173 84.2806 96.4517C83.567 97.6732 83.3724 98.5615 83.6481 99.1484C83.7778 99.4022 84.167 99.4815 84.7833 99.6084C85.3812 99.7324 85.9383 99.9994 86.4049 100.386C87.7508 101.353 87.5562 102.305 87.5562 102.305C87.5562 102.305 87.0535 101.893 86.113 101.21C85.6226 100.902 85.0691 100.701 84.4914 100.624C83.7292 100.465 82.8697 100.306 82.5941 99.5608C82.4034 98.9366 82.3641 98.2775 82.4796 97.6359C82.595 96.9943 82.8619 96.3878 83.2589 95.8648C84.4685 93.4229 85.4194 90.8663 86.0968 88.235V87.9495L85.8049 88.1081C83.5424 89.004 81.1268 89.4723 78.686 89.4881C78.4406 89.4852 78.1962 89.4587 77.9562 89.4088C76.8426 89.5588 75.7131 89.5588 74.5995 89.4088C74.9199 91.9536 74.7605 94.5343 74.1292 97.0228C74.1292 97.0228 73.9995 97.3242 73.8049 97.8318C72.6661 101.151 72.481 104.712 73.2697 108.127C76.513 118.025 74.8914 123.053 72.8481 125.575C72.5542 125.935 72.2345 126.275 71.8914 126.59C72.2294 126.532 72.5503 126.402 72.8319 126.21C75.6049 124.433 76.3346 117.803 76.3508 117.723C76.3568 117.653 76.3773 117.585 76.411 117.522C76.4448 117.46 76.491 117.405 76.5471 117.36C76.6031 117.316 76.6678 117.283 76.7372 117.263C76.8066 117.244 76.8792 117.239 76.9508 117.247C77.0943 117.263 77.2257 117.334 77.3167 117.444C77.4077 117.553 77.451 117.694 77.4373 117.834C77.4373 118.104 76.8049 123.529 74.4697 126.21C74.5917 126.292 74.7323 126.343 74.8793 126.36C75.0263 126.376 75.1751 126.357 75.313 126.305C75.6278 126.154 75.8963 125.924 76.0914 125.639C77.2572 123.381 77.9674 120.926 78.1833 118.405C78.1996 118.265 78.2716 118.137 78.3838 118.048C78.496 117.959 78.6395 117.916 78.7833 117.93C78.9311 117.946 79.0666 118.018 79.1606 118.13C79.2546 118.243 79.2996 118.387 79.286 118.532C79.0232 121.057 78.3384 123.522 77.2589 125.829C77.335 125.864 77.418 125.883 77.5022 125.883C77.5863 125.883 77.6694 125.864 77.7454 125.829C78.9292 125.385 79.967 121.721 80.34 119.262C80.3479 119.191 80.3703 119.123 80.406 119.062C80.4416 119 80.4897 118.946 80.5473 118.903C80.6049 118.86 80.6709 118.829 80.7412 118.811C80.8115 118.794 80.8846 118.791 80.9562 118.802C81.029 118.812 81.099 118.835 81.1622 118.872C81.2254 118.908 81.2805 118.957 81.3243 119.015C81.3682 119.072 81.3998 119.138 81.4173 119.208C81.4348 119.277 81.438 119.35 81.4265 119.421C81.1644 121.379 80.6184 123.291 79.8049 125.099C80.0154 125.135 80.2319 125.101 80.4211 125.004C81.7184 124.338 82.367 121.054 82.4968 119.96C82.5131 119.82 82.5851 119.691 82.6973 119.602C82.8095 119.513 82.953 119.471 83.0968 119.484C83.2446 119.5 83.3801 119.572 83.4741 119.685C83.5681 119.798 83.6131 119.942 83.5995 120.087C83.4328 121.451 83.0726 122.786 82.5292 124.052C82.5885 124.097 82.6563 124.13 82.7287 124.149C82.801 124.168 82.8765 124.173 82.9508 124.163C83.713 123.957 84.5724 121.879 84.8319 120.531C84.8755 120.409 84.961 120.306 85.0738 120.239C85.1867 120.173 85.3197 120.146 85.4502 120.165C85.5806 120.184 85.7004 120.246 85.7888 120.342C85.8772 120.438 85.9287 120.561 85.9346 120.69C85.9175 121.228 86.0927 121.755 86.4301 122.181C86.7675 122.606 87.246 122.904 87.7833 123.021C87.9954 123.085 88.2186 123.104 88.4389 123.08C88.6593 123.055 88.8721 122.987 89.0643 122.879C89.5747 122.48 89.925 121.919 90.0535 121.292C90.0757 121.167 90.1424 121.054 90.2418 120.972C90.3412 120.89 90.4669 120.845 90.5968 120.845C90.7267 120.845 90.8524 120.89 90.9518 120.972C91.0512 121.054 91.1178 121.167 91.14 121.292C91.255 121.947 91.5325 122.564 91.9481 123.09C92.3637 123.615 92.9047 124.033 93.5238 124.306C93.1491 123.598 92.9074 122.83 92.8103 122.038C92.8012 121.967 92.8067 121.895 92.8263 121.826C92.846 121.757 92.8794 121.693 92.9247 121.637C92.9699 121.581 93.0261 121.534 93.09 121.5C93.1539 121.465 93.2242 121.443 93.2968 121.435C93.4424 121.421 93.5878 121.463 93.7026 121.552C93.8174 121.641 93.8928 121.769 93.913 121.911C93.913 122.054 94.286 125.084 96.6373 125.67C96.0104 124.612 95.5666 123.46 95.3238 122.26C95.3001 122.117 95.3355 121.971 95.4222 121.853C95.5089 121.736 95.6397 121.657 95.786 121.633C95.9322 121.61 96.0818 121.645 96.2019 121.73C96.3221 121.814 96.4028 121.942 96.4265 122.085C96.4265 122.085 97.1238 126.115 99.9941 127.13C98.9387 125.681 98.2546 124.005 97.9995 122.244C97.9809 122.171 97.9784 122.094 97.9921 122.02C98.0058 121.945 98.0355 121.874 98.079 121.811C98.1226 121.749 98.1792 121.696 98.2451 121.656C98.3109 121.616 98.3846 121.591 98.4614 121.58C98.5381 121.57 98.6162 121.576 98.6905 121.598C98.7647 121.619 98.8336 121.655 98.8925 121.705C98.9514 121.754 98.9991 121.814 99.0324 121.883C99.0658 121.951 99.084 122.026 99.086 122.101C99.086 122.101 99.6049 125.813 101.745 127.304C102.269 127.67 102.887 127.884 103.529 127.923C102.033 126.157 101.048 124.032 100.675 121.768C100.652 121.627 100.686 121.483 100.771 121.367C100.857 121.251 100.985 121.173 101.129 121.15C101.275 121.131 101.422 121.169 101.54 121.255C101.658 121.341 101.738 121.468 101.762 121.61C101.762 121.61 102.54 126.178 105.151 127.828C105.562 128.095 106.023 128.278 106.508 128.368C106.992 128.458 107.49 128.452 107.972 128.351C104.551 126.019 103.432 120.928 103.432 120.658C103.418 120.588 103.418 120.516 103.432 120.446C103.447 120.377 103.475 120.31 103.516 120.251C103.556 120.192 103.609 120.142 103.669 120.103C103.73 120.064 103.798 120.037 103.87 120.023C103.94 120.007 104.013 120.005 104.084 120.017C104.156 120.029 104.224 120.055 104.284 120.094C104.345 120.133 104.397 120.183 104.437 120.241C104.477 120.3 104.505 120.366 104.518 120.436C104.518 120.515 106.221 128.367 111.832 128.367C112.82 128.413 113.802 128.184 114.663 127.707C115.524 127.23 116.229 126.524 116.697 125.67C117.108 124.975 117.357 124.199 117.427 123.399C117.497 122.598 117.386 121.792 117.102 121.039C117.014 120.916 116.933 120.789 116.859 120.658L116.616 120.325C115.898 119.114 114.74 118.214 113.372 117.803C112.748 117.717 112.112 117.754 111.502 117.912C110.892 118.07 110.321 118.346 109.821 118.723C109.134 119.237 108.642 119.962 108.425 120.781C108.207 121.6 108.276 122.467 108.621 123.243C108.786 123.959 109.199 124.597 109.79 125.048C110.382 125.499 111.115 125.736 111.864 125.718C112.299 125.7 112.723 125.584 113.103 125.377C113.483 125.17 113.809 124.88 114.054 124.528C114.55 123.73 114.745 122.787 114.605 121.863C114.609 121.811 114.609 121.758 114.605 121.705C114.216 120.801 113.697 120.023 112.448 120.388C112.161 120.443 111.9 120.59 111.706 120.805C111.513 121.02 111.397 121.292 111.378 121.578C111.346 121.783 111.368 121.992 111.442 122.186C111.516 122.381 111.639 122.553 111.799 122.688C111.914 122.758 111.998 122.867 112.036 122.994C112.074 123.121 112.063 123.257 112.005 123.377C111.947 123.496 111.846 123.591 111.721 123.642C111.597 123.694 111.457 123.698 111.329 123.656C110.963 123.431 110.669 123.108 110.483 122.727C110.296 122.345 110.224 121.919 110.275 121.499C110.31 120.991 110.509 120.508 110.845 120.12C111.18 119.732 111.634 119.459 112.14 119.341C113.762 118.897 114.881 119.548 115.626 121.277V121.403C115.919 122.568 115.751 123.797 115.156 124.846C114.833 125.415 114.365 125.893 113.796 126.233C113.228 126.572 112.579 126.761 111.913 126.781C110.933 126.808 109.973 126.509 109.189 125.932C108.406 125.356 107.845 124.537 107.599 123.608C107.33 122.871 107.215 122.089 107.259 121.308C107.207 121.263 107.163 121.209 107.129 121.15C106.655 120.079 106.297 118.962 106.059 117.818C106.03 117.678 106.057 117.531 106.136 117.41C106.214 117.289 106.338 117.202 106.481 117.168C106.627 117.14 106.778 117.169 106.903 117.249C107.027 117.329 107.114 117.454 107.145 117.596C107.286 118.268 107.471 118.93 107.697 119.579C108.008 118.942 108.483 118.396 109.075 117.993C108.772 117.175 108.528 116.338 108.345 115.487C108.315 115.346 108.344 115.199 108.424 115.078C108.505 114.958 108.631 114.874 108.775 114.844C108.919 114.815 109.069 114.843 109.193 114.921C109.316 115 109.402 115.124 109.432 115.265C109.587 115.997 109.793 116.717 110.048 117.422C110.627 117.118 111.251 116.903 111.897 116.787C111.332 115.608 110.913 114.367 110.648 113.091C110.619 112.953 110.647 112.808 110.726 112.69C110.805 112.571 110.928 112.487 111.07 112.457C111.141 112.441 111.215 112.439 111.288 112.452C111.36 112.466 111.428 112.493 111.489 112.533C111.55 112.573 111.602 112.625 111.641 112.686C111.681 112.747 111.707 112.814 111.718 112.885C112.002 114.231 112.483 115.529 113.145 116.74H113.616C114.098 116.835 114.559 117.012 114.978 117.263C114.06 114.915 113.513 112.444 113.356 109.935C113.352 109.865 113.362 109.795 113.386 109.728C113.41 109.662 113.447 109.601 113.495 109.55C113.544 109.498 113.602 109.456 113.668 109.427C113.733 109.398 113.803 109.382 113.875 109.38C114.023 109.375 114.167 109.428 114.276 109.525C114.385 109.623 114.451 109.759 114.459 109.903C114.668 113.373 115.719 116.744 117.524 119.738C117.603 119.832 117.674 119.933 117.735 120.039C118.529 121.226 119.582 122.225 120.819 122.966C122.055 123.706 123.444 124.169 124.886 124.322C126.346 124.527 127.964 124.365 129.378 123.952V136.338C129.143 136.511 128.824 136.745 128.697 137.004C128.57 137.264 128.509 137.549 128.518 137.837C128.529 138.099 128.6 138.354 128.727 138.585C128.853 138.816 129.161 139.077 129.378 139.231V146.196V152.658V166.025C129.378 167.287 128.669 168.305 127.756 169.197C126.844 170.09 125.803 169.99 124.513 169.99H95.6485C91.9836 137.52 84.0697 126.448 83.2914 125.369C82.7197 125.826 82.0868 126.205 81.4103 126.495V126.59C81.5076 126.701 89.6927 137.466 93.4062 170H90.9337C90.9337 169.477 90.8806 169.498 90.8157 168.832C90.5879 169.263 89.9537 170 89.9537 170H82.2959C82.2959 170 73.2657 157.721 67.9022 152.272C56.5508 140.454 45.8806 136.282 39.6535 134.823C38.7616 135.331 37.7887 135.902 36.7995 136.52C41.9238 137.377 53.7616 140.708 66.2968 153.795C71.4018 158.986 75.5997 163.994 79.665 170H17.486C16.1957 170 14.9583 170.123 14.046 169.231C13.1336 168.338 12.6211 167.128 12.6211 165.866V149.226C18.9779 144.61 41.34 128.748 60.1184 123.164V122.799C60.0656 121.708 60.2379 120.618 60.6252 119.593C61.0125 118.568 61.6067 117.63 62.3724 116.835L62.7616 116.502C62.4381 116.134 62.1804 115.716 61.9995 115.265C61.6657 114.424 61.5724 113.51 61.7296 112.621C61.8867 111.733 62.2883 110.903 62.8914 110.22C63.4241 109.595 64.1291 109.133 64.9224 108.889C65.7158 108.644 66.5642 108.627 67.367 108.84C67.7957 108.951 68.2017 109.134 68.567 109.38L68.7454 108.856C69.0055 107.926 69.2166 106.984 69.3779 106.033L69.6049 104.891C70.1882 102.291 70.9632 99.7353 71.9238 97.2449C72.943 92.6533 73.0311 87.9107 72.1833 83.2859C72.0535 82.2866 71.9238 81.2872 71.8589 80.4148C71.6783 77.9737 71.8696 75.52 72.4265 73.1339C72.6299 71.9132 72.507 70.6619 72.0697 69.5014L70.6751 66.5351C69.1122 63.296 67.1044 60.2807 64.7076 57.5728C63.1255 55.819 61.4359 54.161 59.6481 52.6079C58.7872 51.8612 58.1598 50.8916 57.8384 49.8109C57.517 48.7302 57.5147 47.5827 57.8319 46.5008C58.1366 45.4368 58.743 44.4788 59.5809 43.7377C60.4189 42.9967 61.4541 42.5027 62.567 42.3131C68.3251 41.397 74.2273 41.9432 79.7076 43.8994C79.7204 43.0242 80.0848 42.1891 80.722 41.5746C81.3593 40.9602 82.2182 40.6157 83.113 40.6158H83.2589C83.4936 38.9859 83.9235 37.3887 84.54 35.8571C84.6054 35.6785 84.7178 35.5199 84.8659 35.3974C85.0139 35.2748 85.1924 35.1927 85.3833 35.1591C85.5767 35.1274 85.7754 35.1476 85.9581 35.2174C86.1408 35.2872 86.3008 35.4041 86.4211 35.5557C87.5401 37.0405 88.4458 38.6684 89.113 40.3938C89.7549 40.1563 90.4536 40.1067 91.1238 40.251C91.5606 40.3508 91.9724 40.5357 92.3346 40.7946C92.6968 41.0535 93.002 41.3812 93.2319 41.7579C93.5405 42.2336 93.714 42.7811 93.7346 43.3442C95.1639 42.7862 96.6326 42.3303 98.1292 41.98C105.247 40.3439 112.731 41.3026 119.178 44.6766C119.129 44.3824 119.129 44.0825 119.178 43.7883C119.255 43.3488 119.423 42.929 119.669 42.5538C119.916 42.1786 120.237 41.8557 120.613 41.6042C120.99 41.3527 121.414 41.1778 121.861 41.0897C122.308 41.0017 122.769 41.0024 123.216 41.0917H123.345C123.906 39.567 124.64 38.1089 125.535 36.7454C125.637 36.5811 125.783 36.4471 125.957 36.3577C126.132 36.2683 126.327 36.2269 126.524 36.2378C126.719 36.2466 126.909 36.3054 127.074 36.4084C127.239 36.5114 127.374 36.6549 127.464 36.8247C128.174 38.2296 128.718 39.709 129.086 41.2345C129.205 41.2267 129.259 41.2267 129.378 41.2345V76.0843ZM122.47 140.946C122.489 141.3 122.616 141.64 122.833 141.923C123.05 142.207 123.349 142.421 123.69 142.539C124.032 142.657 124.401 142.673 124.752 142.585C125.103 142.498 125.42 142.31 125.662 142.047C125.904 141.783 126.061 141.456 126.113 141.105C126.165 140.754 126.109 140.397 125.953 140.077C125.797 139.757 125.548 139.49 125.237 139.308C124.926 139.127 124.567 139.04 124.205 139.058C123.964 139.071 123.728 139.129 123.511 139.231C123.293 139.332 123.098 139.475 122.937 139.65C122.776 139.825 122.651 140.03 122.571 140.252C122.491 140.475 122.457 140.711 122.47 140.946ZM116.291 143.992C116.311 144.345 116.438 144.685 116.655 144.969C116.872 145.253 117.17 145.467 117.512 145.584C117.853 145.702 118.223 145.718 118.574 145.631C118.925 145.543 119.242 145.356 119.484 145.092C119.726 144.829 119.883 144.501 119.935 144.151C119.986 143.8 119.931 143.442 119.775 143.122C119.619 142.803 119.37 142.535 119.059 142.354C118.747 142.173 118.388 142.086 118.026 142.104C117.785 142.114 117.548 142.171 117.329 142.272C117.111 142.373 116.915 142.515 116.753 142.691C116.592 142.867 116.468 143.072 116.388 143.296C116.309 143.519 116.276 143.756 116.291 143.992ZM110.097 146.942C110.097 147.3 110.205 147.649 110.408 147.947C110.611 148.244 110.9 148.476 111.238 148.613C111.576 148.75 111.947 148.785 112.306 148.716C112.665 148.646 112.994 148.474 113.253 148.221C113.511 147.968 113.687 147.646 113.759 147.295C113.83 146.944 113.793 146.58 113.653 146.25C113.513 145.92 113.276 145.637 112.972 145.438C112.668 145.24 112.311 145.134 111.945 145.134C111.455 145.134 110.985 145.324 110.638 145.663C110.292 146.002 110.097 146.462 110.097 146.942ZM103.772 144.198C103.772 144.555 103.881 144.905 104.084 145.202C104.287 145.5 104.576 145.732 104.914 145.868C105.251 146.005 105.623 146.041 105.982 145.971C106.34 145.902 106.67 145.729 106.928 145.476C107.187 145.224 107.363 144.901 107.434 144.551C107.506 144.2 107.469 143.836 107.329 143.506C107.189 143.175 106.952 142.893 106.648 142.694C106.344 142.496 105.987 142.389 105.621 142.389C105.378 142.387 105.136 142.433 104.911 142.523C104.686 142.613 104.481 142.746 104.309 142.914C104.137 143.083 104.001 143.283 103.909 143.503C103.817 143.724 103.77 143.96 103.772 144.198ZM97.4643 141.438C97.4643 141.796 97.5732 142.146 97.7771 142.444C97.9809 142.742 98.2706 142.973 98.6093 143.11C98.9481 143.246 99.3206 143.281 99.6796 143.21C100.039 143.139 100.368 142.965 100.626 142.711C100.884 142.456 101.059 142.133 101.128 141.781C101.198 141.429 101.159 141.065 101.016 140.735C100.874 140.405 100.634 140.123 100.328 139.926C100.022 139.73 99.6631 139.626 99.2968 139.629C99.0548 139.629 98.8151 139.676 98.5918 139.767C98.3684 139.858 98.1656 139.992 97.9953 140.16C97.8249 140.328 97.6903 140.528 97.5991 140.747C97.508 140.966 97.4622 141.201 97.4643 141.438ZM91.14 138.693C91.1368 139.052 91.2429 139.404 91.4448 139.704C91.6467 140.004 91.9352 140.238 92.2737 140.377C92.6121 140.516 92.9852 140.553 93.3453 140.484C93.7054 140.414 94.0363 140.242 94.2958 139.988C94.5553 139.734 94.7317 139.41 94.8025 139.058C94.8733 138.706 94.8353 138.341 94.6934 138.01C94.5515 137.679 94.312 137.397 94.0056 137.199C93.6991 137.002 93.3394 136.898 92.9724 136.901C92.7304 136.901 92.4908 136.948 92.2674 137.039C92.0441 137.13 91.8413 137.264 91.671 137.432C91.5006 137.6 91.3659 137.799 91.2748 138.019C91.1837 138.238 91.1379 138.473 91.14 138.709V138.693ZM81.9779 124.957H82.14H82.0427C82.0206 124.96 81.9989 124.965 81.9779 124.972V124.957ZM63.8157 114.472C64.0268 114.995 64.4088 115.435 64.9022 115.725C65.6721 116.074 66.5512 116.113 67.3508 115.836C70.5941 115.138 71.5346 107.175 71.9238 107.016C71.7868 106.166 71.7164 105.307 71.713 104.446C71.114 107.144 70.3118 109.795 69.313 112.378C69.0422 113.009 68.5627 113.534 67.9512 113.867C67.3398 114.201 66.6316 114.324 65.94 114.218C65.0481 114.027 64.9508 112.631 65.6643 112.631C65.7527 112.615 65.8435 112.617 65.9314 112.635C66.0193 112.654 66.1026 112.689 66.1765 112.739C66.2504 112.789 66.3133 112.853 66.3618 112.927C66.4103 113.001 66.4433 113.084 66.4589 113.171C66.4589 113.171 67.7724 113.171 68.0806 112.457C68.1081 112.293 68.1008 112.125 68.0589 111.964C68.0171 111.803 67.9416 111.652 67.8373 111.521C67.75 111.324 67.6028 111.158 67.4157 111.045C67.0723 110.774 66.6405 110.633 66.1995 110.649C65.9455 110.64 65.6924 110.682 65.4555 110.772C65.2186 110.862 65.0028 110.998 64.8211 111.172L64.4157 111.553C64.0586 111.943 63.8147 112.419 63.7092 112.932C63.6037 113.445 63.6405 113.977 63.8157 114.472ZM70.7562 114.17C70.2282 115.256 69.3106 116.114 68.1778 116.581C69.2882 117.042 70.1999 117.866 70.7562 118.913C70.7562 119.04 70.8697 119.167 70.9184 119.278C71.1473 117.599 71.0926 115.895 70.7562 114.234V114.17ZM46.967 134.442L46.3022 131.381C45.2806 131.873 44.2265 132.396 43.1562 132.967C44.3076 133.332 45.5724 133.824 46.967 134.442ZM63.1833 145.023C62.9545 144.098 62.8401 143.15 62.8427 142.199C62.8106 141.628 62.8269 141.055 62.8914 140.486H62.4049C59.34 140.484 56.386 139.364 54.1193 137.347C51.8526 135.329 50.4358 132.557 50.1454 129.573L48.5238 130.334C48.7702 132.316 49.3625 134.242 50.2751 136.029C54.9062 138.525 59.2222 141.543 63.1346 145.023H63.1833ZM88.6751 162.17C89.2491 162.471 89.7606 162.875 90.1833 163.36C90.0643 162.524 89.9346 161.652 89.7941 160.742C89.4764 161.257 89.1011 161.736 88.6751 162.17ZM85.3022 149.004C86.1538 149.268 86.9541 149.671 87.6697 150.194C87.3616 148.957 87.0211 147.688 86.6643 146.419C86.3083 147.327 85.8516 148.194 85.3022 149.004ZM79.5779 163.962C80.1454 164.771 80.6968 165.549 81.1995 166.485C81.2152 165.811 81.3697 165.147 81.6535 164.533C80.9394 164.431 80.2418 164.239 79.5779 163.962ZM74.713 128.43C74.7107 129.004 74.6674 129.576 74.5833 130.144H75.086C77.2194 130.147 79.3151 130.694 81.167 131.73C80.4373 130.144 79.6427 128.668 78.7833 127.177C77.9507 127.483 77.052 127.576 76.1724 127.447C75.6767 127.563 75.1601 127.563 74.6643 127.447C74.7092 127.773 74.7363 128.101 74.7454 128.43H74.713ZM71.7941 153.81C72.7346 154.889 73.6914 156.031 74.6319 157.237C74.6319 157.031 74.6319 156.808 74.6319 156.602C74.6334 155.8 74.7591 155.004 75.0049 154.239C73.9314 154.239 72.8626 154.101 71.8265 153.826L71.7941 153.81ZM72.4103 109.126L71.3562 112.441C72.4288 115.754 72.4004 119.313 71.2751 122.609C71.2201 122.894 71.1274 123.172 70.9995 123.434C70.7056 124.012 70.2764 124.515 69.7467 124.901C69.217 125.287 68.6017 125.545 67.9508 125.655C67.4233 125.753 66.879 125.722 66.3666 125.565C65.8543 125.407 65.3901 125.127 65.0157 124.75C64.5933 124.346 64.2859 123.84 64.1239 123.284C63.9618 122.728 63.9506 122.14 64.0914 121.578C64.1937 121.096 64.4203 120.648 64.7495 120.276C65.0787 119.904 65.4997 119.62 65.9724 119.452C66.3078 119.319 66.6709 119.265 67.0318 119.295C67.3927 119.325 67.741 119.439 68.0481 119.627C68.3299 119.834 68.5617 120.099 68.7271 120.403C68.8925 120.707 68.9873 121.043 69.0049 121.388C69.038 121.711 68.9686 122.037 68.8062 122.321C68.6438 122.604 68.3961 122.832 68.0968 122.974C68.0308 123.003 67.9595 123.019 67.8871 123.021C67.8147 123.024 67.7425 123.012 67.6748 122.987C67.607 122.962 67.5449 122.924 67.4921 122.875C67.4393 122.827 67.3968 122.769 67.367 122.704C67.3098 122.575 67.3048 122.43 67.353 122.297C67.4011 122.165 67.4989 122.055 67.6265 121.99C67.7237 121.939 67.8023 121.86 67.8517 121.763C67.901 121.667 67.9187 121.558 67.9022 121.451C67.8939 121.272 67.8461 121.098 67.7621 120.939C67.6781 120.78 67.5599 120.641 67.4157 120.531C67.2477 120.446 67.0615 120.402 66.8724 120.402C66.6834 120.402 66.4971 120.446 66.3292 120.531C66.0372 120.639 65.7781 120.818 65.5766 121.051C65.3751 121.284 65.2379 121.564 65.1778 121.863C65.0863 122.244 65.0996 122.641 65.2164 123.014C65.3332 123.388 65.5494 123.724 65.8427 123.989C66.0934 124.24 66.4044 124.425 66.7472 124.527C67.0901 124.63 67.4537 124.647 67.8049 124.576C68.2792 124.503 68.7292 124.321 69.1181 124.045C69.507 123.769 69.8238 123.408 70.0427 122.99C70.2637 122.422 70.3536 121.813 70.3059 121.207C70.2583 120.601 70.0742 120.012 69.767 119.484C69.4705 118.913 69.0366 118.422 68.5027 118.051C67.9688 117.681 67.3509 117.443 66.7022 117.358H66.3941H66.0697C65.6325 117.354 65.1987 117.436 64.7947 117.599C64.3906 117.763 64.0245 118.005 63.7184 118.31C63.0812 118.986 62.6052 119.792 62.3248 120.67C62.0444 121.548 61.9665 122.475 62.0968 123.386C62.4697 126.448 65.9724 127.32 67.286 127.415C68.2006 127.351 69.0901 127.093 69.8935 126.661C70.6968 126.228 71.395 125.63 71.94 124.909C73.74 122.641 75.2319 118.136 72.4427 109.142L72.4103 109.126ZM76.2373 88.5046C76.0099 88.2476 75.814 87.9655 75.6535 87.6639C75.3039 87.7123 74.9491 87.7123 74.5995 87.6639C74.5995 88.0764 74.5995 88.5046 74.5995 88.9329C75.1707 88.8592 75.7312 88.7207 76.2697 88.5205L76.2373 88.5046ZM81.5887 85.7287C81.5887 85.7287 81.5887 85.5859 81.4914 85.459C81.1184 85.459 80.7292 85.3322 80.34 85.3004C80.4638 85.5248 80.5362 85.7728 80.5524 86.0273C80.5685 86.2817 80.528 86.5366 80.4336 86.7742C80.3392 87.0119 80.1932 87.2266 80.0056 87.4036C79.818 87.5806 79.5934 87.7157 79.3472 87.7994C79.101 87.8832 78.8392 87.9137 78.5798 87.8887C78.3204 87.8638 78.0696 87.784 77.8449 87.655C77.6201 87.526 77.4266 87.3507 77.2778 87.1414C77.1291 86.932 77.0286 86.6936 76.9833 86.4425C76.8999 86.1574 76.8999 85.8552 76.9833 85.5701C76.7178 85.6685 76.4805 85.828 76.2914 86.035C76.1022 86.2421 75.9669 86.4907 75.8968 86.7598C76.0365 87.4876 76.4662 88.1313 77.0911 88.5492C77.7161 88.9672 78.4852 89.1252 79.2292 88.9884C79.9732 88.8517 80.6313 88.4315 81.0586 87.8202C81.4858 87.2088 81.6474 86.4565 81.5076 85.7287H81.5887ZM86.3076 86.9818C84.9843 86.3767 83.5978 85.914 82.1724 85.6018C82.1828 85.6435 82.1828 85.687 82.1724 85.7287C82.2514 86.3312 82.1637 86.9434 81.9184 87.5014C81.6731 88.0594 81.2792 88.5428 80.7778 88.9012C82.5444 88.6486 84.2715 88.1796 85.9184 87.5053L86.3076 87.4101C86.3275 87.2735 86.3384 87.1357 86.34 86.9977L86.3076 86.9818ZM74.4049 85.3956V85.9984C74.589 85.9893 74.7652 85.9226 74.9076 85.808C76.0751 85.1101 76.1076 83.9997 78.4103 83.9997C80.4211 83.9997 84.5238 84.8245 86.2914 86.5377C86.2914 86.1094 86.2914 85.697 86.2914 85.3163C84.081 83.5222 81.2406 82.6454 78.3778 82.8735C75.7022 83.1431 74.7292 84.3328 74.4373 85.4115L74.4049 85.3956ZM122.891 113.409C122.162 112.248 121.707 110.941 121.562 109.586C121.327 104.607 121.36 99.6191 121.659 94.6434C121.805 90.7095 121.918 86.9818 121.918 84.4597C121.934 81.0621 121.29 77.6926 120.021 74.5298L118.026 74.2601C121.27 81.6203 119.843 101.496 119.778 102.4C119.778 102.511 118.87 112.679 122.162 116.914C121.962 115.698 122.221 114.452 122.891 113.409ZM125.227 111.394C124.473 109.255 124.169 106.989 124.335 104.732C124.335 101.179 124.481 97.578 124.61 94.0882C124.61 91.9785 124.756 89.8054 124.805 87.7432C125.163 83.4752 124.611 79.1809 123.183 75.1326L121.27 74.7202C122.44 77.8389 123.027 81.1378 123.005 84.4597C123.005 86.9977 122.891 90.8047 122.762 94.6751C122.466 99.5767 122.422 104.49 122.632 109.396C122.765 110.498 123.089 111.571 123.589 112.568C124.03 112.067 124.578 111.666 125.194 111.394H125.227ZM126.07 75.4816L124.448 75.2119C125.738 79.2289 126.233 83.4496 125.908 87.6481C125.908 89.7895 125.778 91.9627 125.713 93.9931C125.583 97.4828 125.454 101.084 125.437 104.621C125.273 106.773 125.571 108.934 126.313 110.966H126.605H126.702C127.107 110.863 127.519 110.788 127.935 110.744C127.527 109.809 127.238 108.829 127.075 107.825C126.832 103.016 126.865 98.1963 127.172 93.3903C127.302 89.5833 127.432 85.9984 127.432 83.5556C127.422 80.8077 126.95 78.0802 126.037 75.4816H126.07ZM96.6049 109.237C96.4589 108.92 96.6049 109.776 94.9833 109.982C93.3616 110.189 92.3562 107.444 90.4589 107.175C88.5616 106.905 88.0103 107.762 88.0103 107.762C84.4265 106.318 83.7778 110.014 82.6265 110.236C82.3531 110.307 82.0675 110.321 81.7882 110.277C81.509 110.233 81.2421 110.133 81.0049 109.982C81.0049 109.982 80.9238 110.458 82.1562 110.902C83.3887 111.347 85.0589 110.411 86.0319 109.697C87.0049 108.983 88.7887 109.982 88.7887 109.982C90.4103 109.094 92.6968 110.633 94.6103 110.633C96.5238 110.633 96.7346 109.554 96.6049 109.237ZM110.356 87.3625C109.807 87.3025 109.265 87.1964 108.735 87.0453C108.735 87.0453 109.399 89.2026 108.589 88.9488C108.364 88.5241 108.092 88.1251 107.778 87.7591C105.52 88.5375 103.132 88.8926 100.74 88.806H100.448C95.0643 88.806 94.3022 87.7274 94.3022 87.7274C94.7874 86.661 95.5682 85.7488 96.5562 85.0942V84.8721L95.5346 84.7452C95.5063 84.1751 95.6843 83.6135 96.0373 83.159C96.0696 83.0287 96.0696 82.8927 96.0373 82.7624C95.9562 82.461 95.1292 81.5886 95.8427 81.7948C96.6117 81.9035 97.3927 81.9035 98.1616 81.7948L98.713 81.6996C100.916 81.4528 103.147 81.7486 105.203 82.5604C107.259 83.3721 109.075 84.6739 110.486 86.3473C110.789 86.5841 111.144 86.7471 111.524 86.8232C111.864 86.728 110.875 87.3784 110.356 87.3625ZM97.8373 87.8384C97.3067 87.3823 96.9094 86.7966 96.686 86.1411C96.3785 86.4455 96.1116 86.7866 95.8914 87.1563C96.5147 87.4476 97.1667 87.6761 97.8373 87.8384ZM103.691 85.0308C103.221 84.8721 102.735 84.7294 102.199 84.6025C102.215 84.7236 102.215 84.8462 102.199 84.9673C102.199 85.4385 102.008 85.8904 101.668 86.2236C101.327 86.5567 100.865 86.7439 100.383 86.7439C99.9016 86.7439 99.4396 86.5567 99.099 86.2236C98.7584 85.8904 98.567 85.4385 98.567 84.9673C98.5424 84.8149 98.5424 84.6597 98.567 84.5073C98.0582 84.8415 97.5757 85.2126 97.1238 85.6177C97.2034 86.4591 97.6214 87.2351 98.2859 87.775C98.6149 88.0424 98.9945 88.2437 99.4031 88.3675C99.8116 88.4913 100.241 88.5352 100.667 88.4967C101.093 88.4582 101.507 88.338 101.885 88.1429C102.264 87.9479 102.599 87.6818 102.872 87.36C103.146 87.0382 103.352 86.6668 103.478 86.2672C103.605 85.8675 103.65 85.4474 103.61 85.0308H103.691ZM106.935 86.9501C106.16 86.2923 105.284 85.7571 104.34 85.3639C104.292 85.9537 104.105 86.5246 103.793 87.0313C103.48 87.5379 103.051 87.9664 102.54 88.2826C104.074 88.0981 105.563 87.6468 106.935 86.9501ZM108.362 85.3639C108.362 85.3639 106.967 82.9845 102.102 82.5245C97.9995 82.1438 97.2373 83.6825 97.7887 83.619C101.033 83.1834 104.328 83.9285 107.048 85.7128C107.048 85.7128 107.989 86.157 108.183 85.8239C108.246 85.694 108.284 85.5544 108.297 85.4115L108.362 85.3639ZM83.7616 91.8992C83.7616 91.8992 83.9724 90.9475 83.5833 91.3282C82.6641 92.3201 81.4078 92.9515 80.0481 93.1048C77.8103 93.3427 77.5184 92.7082 77.5184 92.7082C77.5184 92.7082 78.0535 93.8503 80.2914 93.8186C80.9827 93.7851 81.6564 93.5942 82.2589 93.261C82.8614 92.9277 83.376 92.4614 83.7616 91.8992ZM85.3833 112.124C85.6927 112.72 86.1783 113.211 86.7769 113.534C87.3756 113.856 88.0596 113.995 88.74 113.932C89.3622 113.987 89.9855 113.84 90.5132 113.513C91.041 113.186 91.4437 112.698 91.6589 112.124C90.6709 112.563 89.5982 112.79 88.513 112.79C87.4277 112.79 86.3551 112.563 85.367 112.124H85.3833ZM78.1995 108.364C79.2383 108.281 80.2141 107.843 80.9562 107.127C81.8806 106.096 84.1995 105.541 85.0427 104.922C85.886 104.304 85.0427 102.575 85.0427 102.575C83.8751 102.035 81.2319 104.161 80.4049 105.509C79.7453 106.556 78.8598 107.449 77.8103 108.127C77.2589 108.38 77.486 108.523 78.1833 108.364H78.1995Z" fill="#24242E"/>
<path d="M82.6191 158.193C82.9411 158.193 83.2558 158.099 83.5236 157.925C83.7913 157.75 84 157.501 84.1232 157.211C84.2464 156.92 84.2787 156.6 84.2159 156.292C84.153 155.983 83.998 155.7 83.7703 155.477C83.5426 155.255 83.2525 155.103 82.9367 155.042C82.6209 154.981 82.2935 155.012 81.996 155.132C81.6985 155.253 81.4443 155.457 81.2654 155.718C81.0865 155.98 80.991 156.287 80.991 156.602C80.991 157.024 81.1625 157.429 81.4678 157.727C81.7732 158.025 82.1873 158.193 82.6191 158.193ZM82.6191 155.918C82.7543 155.918 82.8865 155.957 82.999 156.031C83.1114 156.104 83.199 156.208 83.2508 156.33C83.3026 156.453 83.3161 156.587 83.2897 156.716C83.2633 156.846 83.1982 156.965 83.1026 157.059C83.0069 157.152 82.8851 157.216 82.7525 157.241C82.6198 157.267 82.4823 157.254 82.3574 157.203C82.2324 157.153 82.1256 157.067 82.0505 156.957C81.9754 156.847 81.9353 156.718 81.9353 156.586C81.9353 156.409 82.0073 156.239 82.1355 156.114C82.2638 155.988 82.4377 155.918 82.6191 155.918ZM74.9019 146.549C75.7978 146.552 76.6745 146.295 77.4209 145.811C78.1674 145.327 78.75 144.638 79.0951 143.83C79.4401 143.022 79.5321 142.132 79.3593 141.274C79.1865 140.415 78.7567 139.625 78.1244 139.005C77.4921 138.385 76.6856 137.962 75.8072 137.791C74.9288 137.619 74.0179 137.705 73.1899 138.039C72.362 138.374 71.6541 138.94 71.1561 139.668C70.658 140.396 70.3921 141.251 70.3921 142.127C70.3964 143.295 70.8724 144.415 71.7167 145.243C72.5611 146.071 73.7057 146.54 74.9019 146.549ZM74.9019 139.74C75.3849 139.74 75.8571 139.88 76.2587 140.143C76.6603 140.405 76.9733 140.777 77.1582 141.213C77.343 141.649 77.3914 142.129 77.2971 142.592C77.2029 143.055 76.9703 143.48 76.6288 143.814C76.2872 144.147 75.8521 144.375 75.3784 144.467C74.9046 144.559 74.4136 144.512 73.9674 144.331C73.5211 144.15 73.1397 143.845 72.8714 143.452C72.603 143.06 72.4598 142.598 72.4598 142.127C72.4684 141.499 72.7294 140.9 73.1865 140.46C73.6436 140.019 74.2598 139.772 74.9019 139.772V139.74ZM106.096 60.3796C107.016 60.4415 107.909 60.7125 108.703 61.1709C109.498 61.6293 110.171 62.2626 110.671 63.0202L106.943 62.7657L105.77 61.3341L104.533 62.6544L100.951 62.543C101.543 61.7778 102.329 61.176 103.231 60.7967C104.133 60.4175 105.12 60.2738 106.096 60.3796ZM125.633 47.6539C124.949 46.5404 124.005 43.9316 126.366 39.3981C127.115 41.7205 127.912 45.5064 125.568 47.638L125.633 47.6539ZM19.4437 169.996C19.4437 169.996 19.5271 169.654 19.6773 169.503L20.2959 168.819C20.4746 168.644 20.6164 168.437 20.7131 168.209C20.8098 167.982 20.8596 167.737 20.8596 167.491C20.8596 167.244 20.8098 166.999 20.7131 166.772C20.6164 166.544 20.4746 166.337 20.2959 166.162L19.6121 165.494C19.5191 165.389 19.4522 165.263 19.4168 165.128C19.2967 165.096 19.1891 165.029 19.1074 164.937L20.2959 163.633C20.6503 163.286 20.8543 162.819 20.8658 162.329C20.8493 161.849 20.6454 161.393 20.2959 161.056L19.6447 160.452C19.5677 160.374 19.5078 160.281 19.4686 160.18C19.4294 160.079 19.4118 159.971 19.4168 159.863C19.414 159.758 19.4327 159.653 19.4718 159.554C19.511 159.456 19.5697 159.366 19.6447 159.29L20.2959 158.559C20.6584 158.221 20.8741 157.759 20.8983 157.27C20.8922 157.022 20.8358 156.778 20.7324 156.551C20.629 156.324 20.4807 156.12 20.2959 155.95V155.791L19.7261 155.234C19.5769 155.085 19.4934 154.885 19.4934 154.677C19.4934 154.469 19.5769 154.269 19.7261 154.121L20.2959 153.452C20.4746 153.278 20.6164 153.071 20.7131 152.843C20.8098 152.615 20.8596 152.371 20.8596 152.124C20.8596 151.877 20.8098 151.633 20.7131 151.405C20.6164 151.177 20.4746 150.97 20.2959 150.796L19.6121 150.128C19.463 149.979 19.3794 149.779 19.3794 149.571C19.3794 149.363 19.463 149.163 19.6121 149.014L20.2959 148.346C20.4801 148.168 20.6244 147.954 20.7196 147.719C20.8149 147.484 20.8591 147.231 20.8495 146.978L23.2102 145.292V169.996H19.4437ZM95.8554 157.811C95.8554 157.811 96.9625 164.063 97.337 169.121H127.832C128.723 168.312 129.378 167.125 129.378 166.181V157.27L95.8554 157.811ZM110.818 165.224L107.561 163.633C107.912 163.883 108.191 164.217 108.372 164.603C108.553 164.989 108.63 165.413 108.595 165.836C108.56 166.259 108.415 166.666 108.173 167.019C107.931 167.371 107.601 167.657 107.214 167.849C106.827 168.042 106.396 168.134 105.962 168.117C105.528 168.1 105.105 167.974 104.735 167.752C104.365 167.53 104.059 167.219 103.847 166.849C103.635 166.479 103.524 166.062 103.524 165.637C103.532 165.412 103.565 165.188 103.621 164.969C103.387 165.239 103.095 165.456 102.766 165.604C102.437 165.753 102.079 165.829 101.717 165.828C101.076 165.778 100.478 165.494 100.042 165.033C99.6063 164.571 99.3642 163.967 99.3642 163.339C99.3642 162.711 99.6063 162.106 100.042 161.645C100.478 161.183 101.076 160.899 101.717 160.849C102.079 160.848 102.437 160.925 102.766 161.073C103.095 161.222 103.387 161.438 103.621 161.708C103.565 161.49 103.532 161.266 103.524 161.04C103.518 160.611 103.626 160.187 103.838 159.81C104.049 159.433 104.356 159.116 104.729 158.889C105.103 158.662 105.53 158.533 105.969 158.514C106.409 158.496 106.845 158.588 107.237 158.783C107.629 158.978 107.963 159.268 108.207 159.625C108.451 159.983 108.596 160.396 108.629 160.824C108.661 161.253 108.58 161.682 108.393 162.071C108.206 162.46 107.92 162.795 107.561 163.044L110.818 161.454V165.224ZM126.838 165.224L123.582 163.633C123.913 163.858 124.183 164.158 124.37 164.507C124.557 164.856 124.655 165.243 124.656 165.637C124.605 166.263 124.314 166.847 123.842 167.273C123.37 167.699 122.751 167.936 122.108 167.936C121.466 167.936 120.847 167.699 120.374 167.273C119.902 166.847 119.612 166.263 119.56 165.637C119.569 165.412 119.601 165.188 119.658 164.969C119.424 165.239 119.132 165.456 118.803 165.604C118.474 165.753 118.115 165.829 117.753 165.828C117.113 165.778 116.515 165.494 116.079 165.033C115.643 164.571 115.401 163.967 115.401 163.339C115.401 162.711 115.643 162.106 116.079 161.645C116.515 161.183 117.113 160.899 117.753 160.849C118.115 160.848 118.474 160.925 118.803 161.073C119.132 161.222 119.424 161.438 119.658 161.708C119.609 161.451 119.593 161.19 119.609 160.929C119.66 160.303 119.951 159.719 120.423 159.293C120.895 158.867 121.514 158.631 122.157 158.631C122.8 158.631 123.419 158.867 123.891 159.293C124.363 159.719 124.654 160.303 124.705 160.929C124.704 161.323 124.606 161.711 124.419 162.059C124.232 162.408 123.961 162.708 123.631 162.933L126.887 161.342L126.838 165.224ZM89.1965 62.7339C90.1571 61.35 91.7201 57.8822 87.7801 53.5873C87.7262 53.5252 87.6587 53.4758 87.5826 53.4427C87.5065 53.4097 87.4238 53.3939 87.3405 53.3964C87.1755 53.4152 87.0241 53.4948 86.9172 53.6191C85.969 55.0017 85.5027 56.6464 85.5878 58.3087C85.6729 59.9709 86.3047 61.5619 87.3893 62.8452C85.7613 62.9566 84.0192 63.0839 82.2934 63.2429C82.0111 58.2972 83.6117 53.4243 86.787 49.5628C90.8136 52.8623 93.4847 57.4719 94.3087 62.543C92.6318 62.5748 90.9223 62.6385 89.1965 62.7339ZM125.145 51.3285C126.04 52.9192 127.912 57.2618 127.961 65.295C126.577 65.0404 125.128 64.7859 123.598 64.5473C124.884 63.4656 127.391 60.5228 124.689 55.3212C124.657 55.2462 124.605 55.1806 124.54 55.1305C124.474 55.0804 124.397 55.0474 124.314 55.0348C124.236 55.0184 124.155 55.0185 124.076 55.0349C123.997 55.0514 123.923 55.0839 123.858 55.1303C122.557 56.2424 121.664 57.7394 121.314 59.3935C120.964 61.0476 121.178 62.768 121.921 64.2928C120.293 64.0542 118.665 63.8315 116.907 63.6247C117.541 61.35 119.919 54.2713 125.145 51.3285ZM123.712 49.6423C119.398 52.2829 116.907 57.055 115.653 60.3796C114.889 58.6476 113.659 57.1502 112.094 56.0466C110.529 54.943 108.687 54.2745 106.764 54.1122C104.618 53.8717 102.448 54.2533 100.522 55.2093C98.5973 56.1654 97.0025 57.6537 95.9368 59.4888C94.6337 55.0793 92.0491 51.1339 88.4964 48.1311C91.5732 46.1001 94.9974 44.624 98.6069 43.7726C107.285 41.7524 115.734 43.7407 123.712 49.6423ZM86.152 165.765C86.3259 165.765 86.4959 165.815 86.6404 165.909C86.785 166.004 86.8977 166.138 86.9642 166.295C87.0308 166.452 87.0482 166.625 87.0143 166.791C86.9804 166.958 86.8966 167.111 86.7737 167.231C86.6507 167.351 86.4941 167.433 86.3235 167.466C86.153 167.499 85.9762 167.482 85.8156 167.417C85.6549 167.352 85.5176 167.242 85.421 167.101C85.3244 166.96 85.2728 166.793 85.2728 166.624C85.2639 166.506 85.28 166.387 85.3201 166.275C85.3602 166.164 85.4236 166.061 85.5061 165.975C85.5887 165.888 85.6887 165.819 85.7998 165.772C85.911 165.725 86.0309 165.701 86.152 165.701V165.765ZM52.7437 169.996H40.4842V162.042C44.4835 160.876 48.7444 160.876 52.7437 162.042V169.996ZM38.8235 169.996H36.8861V163.458C37.5211 163.14 38.1723 162.869 38.8235 162.615V169.996ZM86.5753 46.5563C85.6799 45.5701 84.3285 43.184 85.6961 38.3164C86.9335 40.4957 88.4476 44.0748 86.5753 46.5881V46.5563ZM65.6056 55.3212C64.0916 53.6997 62.494 52.1547 60.819 50.6922C60.265 50.2148 59.8609 49.5939 59.6534 48.9013C59.446 48.2087 59.4436 47.4728 59.6468 46.779C59.8321 46.1014 60.2105 45.4891 60.7379 45.0132C61.2653 44.5373 61.9201 44.2174 62.6262 44.0907C72.7203 42.325 81.8213 46.6359 84.9147 48.3379C81.9587 51.8688 80.246 56.2364 80.0304 60.7932C78.3428 58.7085 76.1158 57.102 73.5798 56.14C71.0438 55.178 68.2909 54.8953 65.6056 55.3212ZM126.74 49.69C127.556 49.0161 128.44 48.4246 129.378 47.9243V56.9278C128.947 54.381 128.053 51.93 126.74 49.69ZM56.3417 169.996H54.4857V162.631C55.1472 162.876 55.794 163.158 56.4232 163.474L56.3417 169.996ZM72.9971 127.333C72.2476 127.855 71.4177 128.258 70.5387 128.526C70.5172 130.243 69.9481 131.912 68.9106 133.298C68.2189 134.074 67.4314 134.763 66.5661 135.35C66.4661 135.427 66.3567 135.491 66.2405 135.541C64.9599 136.221 63.5204 136.565 62.063 136.539C60.6055 136.512 59.1801 136.117 57.9262 135.39C56.6723 134.664 55.633 133.632 54.9101 132.395C54.1871 131.158 53.8053 129.759 53.8019 128.335C53.8019 128.128 53.8019 127.937 53.8019 127.746L51.2296 128.812C51.2922 130.373 51.7077 131.901 52.4463 133.286C53.1849 134.671 54.2283 135.879 55.5015 136.823C56.7747 137.768 58.2461 138.425 59.8101 138.748C61.3742 139.071 62.9919 139.051 64.5473 138.691C63.9953 140.293 63.8409 142.002 64.0971 143.674C64.3532 145.347 65.0124 146.936 66.0205 148.311C67.0285 149.686 68.3565 150.807 69.895 151.582C71.4335 152.357 73.1384 152.763 74.8694 152.768C75.7075 152.77 76.543 152.679 77.3603 152.498C76.4126 153.663 75.8977 155.108 75.8999 156.596C75.9021 158.084 76.4213 159.527 77.3725 160.689C78.3237 161.851 79.6505 162.664 81.1358 162.993C82.621 163.322 84.1767 163.149 85.5482 162.502C86.9196 161.855 88.0256 160.772 88.685 159.431C89.3444 158.089 89.5182 156.569 89.1779 155.118C88.8376 153.668 88.0034 152.373 86.8119 151.446C85.6204 150.52 84.1421 150.015 82.6191 150.017H82.1632C83.8083 148.58 84.9671 146.688 85.4857 144.592C86.0044 142.496 85.8582 140.296 85.0668 138.284C84.2754 136.271 82.876 134.541 81.0547 133.324C79.2333 132.107 77.076 131.46 74.8694 131.469C74.0335 131.493 73.2033 131.611 72.3947 131.819C72.7816 130.713 72.9796 129.552 72.9808 128.383C73.0459 127.985 73.0296 127.667 72.9971 127.333ZM82.6191 152.18C83.511 152.18 84.3829 152.438 85.1246 152.922C85.8662 153.407 86.4442 154.095 86.7856 154.9C87.1269 155.705 87.2162 156.591 87.0422 157.446C86.8682 158.301 86.4387 159.086 85.808 159.702C85.1773 160.318 84.3737 160.738 83.4989 160.908C82.6241 161.078 81.7173 160.991 80.8932 160.657C80.0692 160.324 79.3648 159.759 78.8693 159.034C78.3738 158.31 78.1093 157.458 78.1093 156.586C78.1093 155.418 78.5844 154.297 79.4301 153.47C80.2759 152.644 81.423 152.18 82.6191 152.18ZM74.9019 133.918C76.7978 133.929 78.6342 134.567 80.1124 135.727C81.5906 136.887 82.6238 138.501 83.044 140.307C83.4641 142.114 83.2466 144.006 82.4266 145.676C81.6067 147.346 80.2326 148.696 78.5278 149.507C76.823 150.318 74.8877 150.541 73.0366 150.141C71.1855 149.74 69.5273 148.74 68.3318 147.302C67.1362 145.865 66.4736 144.074 66.4516 142.222C66.4295 140.369 67.0495 138.564 68.2105 137.1C68.9026 136.33 69.6839 135.642 70.5387 135.048C71.8584 134.285 73.3687 133.894 74.9019 133.918ZM129.378 67.7765V69.9239C105.087 64.9927 80.5351 67.4901 73.8111 68.3332L73.0133 66.5993C91.721 63.6764 110.815 64.0751 129.378 67.7765ZM41.6727 151.878C44.5707 151.878 44.9289 155.314 44.9289 155.314C43.0566 154.677 39.9469 156.188 38.8724 156.268C38.0749 156.296 37.2837 156.121 36.5768 155.759C38.0583 155.457 38.7747 151.941 41.6727 151.878ZM46.6384 154.439C44.9704 152.547 43.9263 150.207 43.6427 147.726C43.5633 147.299 43.5808 146.861 43.6939 146.442C43.807 146.023 44.0129 145.634 44.2971 145.301C44.5813 144.968 44.9369 144.7 45.3386 144.517C45.7404 144.333 46.1785 144.238 46.6221 144.238C47.0656 144.238 47.5038 144.333 47.9055 144.517C48.3073 144.7 48.6628 144.968 48.947 145.301C49.2312 145.634 49.4371 146.023 49.5502 146.442C49.6633 146.861 49.6808 147.299 49.6015 147.726C49.3272 150.204 48.2945 152.543 46.6384 154.439ZM82.4562 166.56C82.4562 167.258 82.6682 167.941 83.0654 168.522C83.4625 169.103 84.027 169.555 84.6874 169.823C84.8719 169.897 85.2277 169.999 85.2277 169.999L86.9283 169.99C86.9283 169.99 88.1578 169.515 88.6263 169.057C89.1318 168.563 89.476 167.934 89.6155 167.249C89.755 166.564 89.6834 165.854 89.4098 165.209C89.1363 164.563 88.673 164.012 88.0786 163.624C87.4842 163.236 86.7855 163.029 86.0706 163.029C85.1248 163.045 84.2239 163.425 83.5627 164.086C82.9014 164.747 82.5332 165.636 82.5376 166.56H82.4562ZM88.4964 166.56C88.4964 167.029 88.3542 167.487 88.0876 167.877C87.8211 168.267 87.4422 168.57 86.9989 168.75C86.5557 168.929 86.0679 168.976 85.5973 168.885C85.1268 168.793 84.6945 168.567 84.3553 168.236C84.016 167.904 83.785 167.482 83.6914 167.022C83.5978 166.563 83.6458 166.086 83.8294 165.653C84.013 165.22 84.3239 164.85 84.7229 164.589C85.1218 164.329 85.5908 164.19 86.0706 164.19C86.396 164.179 86.7202 164.233 87.0239 164.347C87.3277 164.461 87.6048 164.634 87.8388 164.855C88.0728 165.076 88.2588 165.341 88.3857 165.634C88.5127 165.927 88.578 166.242 88.5778 166.56H88.4964ZM59.6956 128.319C59.6762 128.952 59.9148 129.566 60.3591 130.027C60.8033 130.488 61.4168 130.758 62.0645 130.777C62.7122 130.796 63.341 130.563 63.8128 130.129C64.2845 129.694 64.5604 129.095 64.5799 128.462C65.2477 128.667 65.935 128.806 66.6312 128.876C66.4663 129.974 65.8849 130.971 65.0023 131.67C64.1198 132.368 63.0008 132.717 61.8673 132.647C60.7338 132.577 59.6687 132.093 58.8833 131.291C58.098 130.49 57.6499 129.429 57.6279 128.319C57.6239 127.441 57.8905 126.582 58.3931 125.854L60.3306 125.138C60.5134 125.517 60.7314 125.879 60.9818 126.219C60.5945 126.425 60.2708 126.728 60.0445 127.097C59.8182 127.467 59.6977 127.889 59.6956 128.319ZM75.5043 64.0542C74.3647 64.2133 73.2087 64.3882 72.0365 64.595C71.6946 63.911 71.1248 62.8293 70.4084 61.5727C72.3432 61.8199 74.1374 62.6936 75.5043 64.0542ZM44.7986 157.906C44.7986 157.551 44.9065 157.203 45.1087 156.908C45.3108 156.612 45.5982 156.382 45.9343 156.246C46.2705 156.11 46.6404 156.074 46.9973 156.143C47.3541 156.213 47.682 156.384 47.9392 156.635C48.1965 156.887 48.3718 157.207 48.4427 157.556C48.5137 157.904 48.4773 158.266 48.3381 158.594C48.1988 158.923 47.963 159.204 47.6605 159.401C47.3579 159.599 47.0022 159.704 46.6384 159.704C46.3948 159.706 46.1532 159.661 45.9279 159.57C45.7026 159.479 45.4982 159.346 45.3267 159.177C45.1552 159.008 45.0202 158.807 44.9295 158.586C44.8387 158.365 44.7943 158.129 44.7986 157.891V157.906ZM48.299 155.329C48.299 155.329 48.6572 151.83 51.5552 151.894C54.4532 151.957 55.1695 155.473 56.586 155.775C55.9038 156.125 55.142 156.3 54.3718 156.284C53.2809 156.188 50.1713 154.677 48.299 155.314V155.329Z" fill="#F4C900"/>
<path d="M106.676 55.8182C108.579 56.0285 110.362 56.8405 111.757 58.1323C113.152 59.4242 114.083 61.1262 114.411 62.9831L113.373 62.8873C112.8 61.4922 111.845 60.2808 110.614 59.3878C109.383 58.4948 107.924 57.9551 106.4 57.8288C104.789 57.6723 103.166 58.0003 101.748 58.7695C100.329 59.5387 99.181 60.7129 98.4544 62.1373H96.9463C97.584 60.1447 98.8993 58.4288 100.671 57.278C102.443 56.1272 104.563 55.6118 106.676 55.8182ZM88.4166 61.7384C89.1625 60.7012 90.5085 57.9884 87.6058 54.4139C86.9733 55.5725 86.7123 56.8924 86.857 58.1999C87.0017 59.5073 87.5455 60.741 88.4166 61.7384ZM90.6706 43.9298C90.752 43.8286 90.8508 43.7421 90.9625 43.6745C91.0969 43.5934 91.2135 43.4867 91.3053 43.3606C91.3972 43.2346 91.4626 43.0917 91.4977 42.9405C91.538 42.7897 91.5459 42.6324 91.5208 42.4785C91.4956 42.3246 91.4381 42.1775 91.3517 42.0469C91.2718 41.9157 91.1661 41.8016 91.0408 41.7112C90.9155 41.6207 90.7731 41.5558 90.622 41.5203C90.3117 41.4543 89.9875 41.5056 89.7139 41.6639C89.8596 42.5731 89.8596 43.4993 89.7139 44.4086L90.6706 43.9298ZM124.044 56.0097C123.126 56.9689 122.525 58.1789 122.32 59.4804C122.114 60.782 122.314 62.1143 122.892 63.3022C123.914 62.4884 125.908 60.2065 124.044 56.0097ZM90.2166 124.627C88.723 125.099 87.1208 125.127 85.6112 124.707C86.8262 126.638 87.8732 128.666 88.7409 130.771L111.33 141.781C111.752 141.911 112.205 141.911 112.627 141.781C112.936 141.638 122.357 136.276 129.379 132.302V124.675L111.038 134.792C111.038 134.792 90.4598 124.595 90.2166 124.675V124.627ZM122.795 42.366C122.642 42.3341 122.484 42.3332 122.331 42.3634C122.177 42.3936 122.032 42.4542 121.903 42.5415C121.77 42.6247 121.657 42.7346 121.57 42.8638C121.484 42.993 121.426 43.1388 121.4 43.2915C121.338 43.5983 121.402 43.9169 121.579 44.1771C121.755 44.4374 122.029 44.6182 122.341 44.6798C122.449 44.7002 122.553 44.7379 122.649 44.7915C122.606 43.9802 122.654 43.1666 122.795 42.366ZM16.8598 169.971C16.8598 170.068 16.8563 169.835 16.8598 169.785C16.8776 169.534 16.9848 169.297 17.1625 169.116L18.4274 167.888C18.577 167.736 18.6606 167.533 18.6606 167.321C18.6606 167.11 18.577 166.907 18.4274 166.755L17.3247 165.67C17.3247 165.67 17.2436 165.67 17.2112 165.574C17.075 165.441 16.9777 165.275 16.9292 165.092C16.8807 164.91 16.8829 164.718 16.9355 164.537C16.9955 164.371 17.0893 164.219 17.2112 164.09L18.476 162.861C18.6231 162.705 18.7047 162.5 18.7047 162.287C18.7047 162.074 18.6231 161.868 18.476 161.712L17.3733 160.627C17.3733 160.627 17.2922 160.627 17.2598 160.531C17.0553 160.333 16.9387 160.064 16.9355 159.781C16.938 159.494 17.0543 159.219 17.2598 159.015L18.5247 157.787C18.6717 157.63 18.7534 157.425 18.7534 157.212C18.7534 156.999 18.6717 156.794 18.5247 156.638L17.7787 155.904L17.4382 155.568H17.3247C17.2168 155.464 17.1311 155.34 17.0726 155.203C17.0141 155.066 16.984 154.919 16.984 154.771C16.984 154.622 17.0141 154.475 17.0726 154.338C17.1311 154.201 17.2168 154.077 17.3247 153.973L18.5895 152.744C18.7391 152.592 18.8228 152.389 18.8228 152.178C18.8228 151.966 18.7391 151.763 18.5895 151.611L17.4868 150.526C17.4868 150.526 17.4058 150.526 17.3733 150.43C17.3142 150.365 17.26 150.296 17.2112 150.223C16.449 150.765 16.5463 150.925 15.8652 151.436V169.971C16.9231 169.971 15.9096 169.971 16.8598 169.971ZM59.9733 163.515V150.127C46.1409 138.765 34.4328 138.43 34.1733 138.43V163.388C37.2057 161.372 40.6884 160.107 44.3247 159.701C43.8911 159.142 43.6574 158.458 43.6598 157.755C43.6614 157.311 43.7495 156.873 43.9193 156.462C42.9751 156.597 42.0464 156.821 41.1463 157.132C40.5621 157.337 39.9594 157.487 39.3463 157.579C38.2918 157.617 37.2458 157.38 36.3139 156.893C36.0493 156.75 35.8348 156.532 35.6987 156.267C35.5626 156.002 35.5114 155.703 35.5517 155.409C35.5918 155.133 35.7128 154.874 35.9 154.664C36.0872 154.454 36.3325 154.303 36.6058 154.228C36.8736 153.951 37.1177 153.652 37.3355 153.334C37.7905 152.483 38.4546 151.756 39.2674 151.221C40.0801 150.686 41.0159 150.359 41.9895 150.271C42.3292 150.237 42.6715 150.237 43.0112 150.271C42.7002 149.398 42.5305 148.482 42.5085 147.558C42.4623 146.948 42.5411 146.335 42.7402 145.756C42.9394 145.177 43.2548 144.643 43.6677 144.186C44.0807 143.729 44.5827 143.358 45.1441 143.096C45.7054 142.834 46.3146 142.685 46.9355 142.659C47.5605 142.679 48.175 142.823 48.742 143.082C49.3091 143.342 49.8169 143.712 50.235 144.169C50.6531 144.627 50.9728 145.163 51.1749 145.745C51.3771 146.328 51.4574 146.944 51.4112 147.558C51.4012 148.52 51.2314 149.474 50.9085 150.382C51.2373 150.349 51.5688 150.349 51.8977 150.382C52.873 150.473 53.8102 150.8 54.6253 151.335C55.4404 151.87 56.1079 152.595 56.5679 153.446C56.7756 153.766 57.0146 154.066 57.2814 154.34C57.5607 154.421 57.8092 154.582 57.9957 154.802C58.1822 155.022 58.2984 155.292 58.3296 155.577C58.3608 155.861 58.3057 156.149 58.1711 156.403C58.0365 156.657 57.8285 156.867 57.5733 157.005C56.6425 157.495 55.5957 157.732 54.5409 157.691C53.9239 157.563 53.3211 157.375 52.7409 157.132C51.8543 156.817 50.9353 156.598 50.0004 156.478C50.1716 156.883 50.2598 157.316 50.2598 157.755C50.2622 158.458 50.0285 159.142 49.595 159.701C53.3234 160.101 56.8911 161.412 59.9733 163.515ZM129.379 142.467C124.125 145.148 115.838 149.457 111.93 152.042C111.93 152.042 98.5841 144.733 92.8112 142.547C93.2004 143.999 93.6058 145.531 93.9787 147.159L111.298 155.728C111.298 155.728 112.108 156.271 112.676 155.728C113.244 155.186 122.99 149.712 129.379 146.409V142.467ZM129.379 44.983V42.4617C129.379 42.4617 129.373 44.2069 129.2 45.0628L129.379 44.983ZM28.0922 169.356V142.005L25.9841 143.473C25.9841 143.473 25.9841 159.575 25.9841 169.893C26.5672 169.893 27.1742 169.893 27.7573 169.893C27.8637 169.711 27.9754 169.532 28.0922 169.356ZM81.8814 43.1C81.8814 43.4132 82.0079 43.7136 82.2329 43.935C82.458 44.1565 82.7632 44.2809 83.0814 44.2809C83.1889 44.2642 83.2983 44.2642 83.4058 44.2809C83.2122 43.4911 83.1035 42.6835 83.0814 41.8713C82.9197 41.8712 82.7596 41.9032 82.6107 41.9656C82.4618 42.0279 82.3273 42.1192 82.2152 42.2339C82.1031 42.3487 82.0158 42.4846 81.9584 42.6334C81.9011 42.7823 81.8749 42.941 81.8814 43.1ZM32.1787 164.888V139.228L30.0706 140.648V166.882C30.7288 166.173 31.433 165.507 32.1787 164.888ZM67.5625 56.8075C68.1463 57.5256 68.6814 58.2437 69.1841 58.9618C70.9604 58.8675 72.7324 59.2124 74.3385 59.965C75.9445 60.7176 77.3335 61.8539 78.3787 63.2703L79.7085 63.1108C75.2652 57.1426 70.1896 56.6001 67.5625 56.8075ZM63.6382 166.707V153.35C62.9247 152.68 62.2274 152.042 61.5301 151.436V164.728C62.276 165.342 62.9802 166.003 63.6382 166.707Z" fill="#C72F2A"/>
</g>
<path d="M34.4608 86.537C33.5377 86.537 32.6146 86.6908 31.6916 86.9985C33.3839 85.46 34.4608 83.46 34.4608 81.1523C34.4608 76.6908 30.6146 73.1523 25.9992 73.1523C21.3839 73.1523 17.5377 76.8447 17.5377 81.1523C17.5377 83.46 18.6146 85.6139 20.3069 86.9985C19.3839 86.6908 18.6146 86.537 17.5377 86.537C12.9223 86.537 9.07617 90.0754 9.07617 94.537C9.07617 98.9985 12.9223 102.537 17.5377 102.537C20.9223 102.537 23.6916 100.691 25.0762 98.0754C24.9223 100.383 24.1531 103.922 21.8454 106.229C21.5377 106.537 21.6916 106.845 22.1531 106.845H25.9992H29.8454C30.1531 106.845 30.3069 106.383 30.1531 106.229C27.8454 103.922 27.0762 100.537 26.9223 98.0754C28.3069 100.691 31.23 102.537 34.4608 102.537C39.0762 102.537 42.9223 98.9985 42.9223 94.537C42.9223 90.2293 39.0762 86.537 34.4608 86.537Z" fill="#24242E"/>
<path d="M28.7913 31.44L41.0753 64H33.8973L24.5733 37.286L20.4293 43.576V64H13.9913V11.756H20.4293V34.252L33.8973 11.756H41.0753L28.7913 31.44Z" fill="#24242E"/>
<defs>
<linearGradient id="paint0_linear_324_104543" x1="92" y1="2" x2="92" y2="182" gradientUnits="userSpaceOnUse">
<stop stop-color="white" stop-opacity="0.85"/>
<stop offset="1" stop-color="white" stop-opacity="0.15"/>
</linearGradient>
<clipPath id="clip0_324_104543">
<rect width="120" height="165" fill="white" transform="translate(11 5)"/>
</clipPath>
</defs>
</svg>
