<svg width="184" height="184" viewBox="0 0 184 184" fill="none" xmlns="http://www.w3.org/2000/svg">
<rect x="1" y="1" width="182" height="182" rx="13" stroke="black" stroke-opacity="0.25" stroke-width="2"/>
<rect x="2.5" y="2.5" width="179" height="179" rx="11.5" fill="#E9E9E9" stroke="url(#paint0_linear_324_104468)"/>
<rect x="41.0449" y="30.5" width="101.909" height="123" rx="1.5" fill="#D7D5D7" stroke="#CDCFD6"/>
<path d="M83.6154 90.8257C74.2692 103.287 63.5385 115.057 51.7692 125.787C51.0769 126.48 51.0769 127.518 51.7692 128.21C63.5385 138.941 74.2692 150.71 83.6154 163.172C84.3077 164.21 85.6923 164.21 86.3846 163.172C95.7308 150.71 106.462 138.941 118.231 128.21C118.923 127.518 118.923 126.48 118.231 125.787C106.462 115.057 95.7308 103.287 86.3846 90.8257C85.6923 89.7873 84.3077 89.7873 83.6154 90.8257Z" fill="#BF3030"/>
<path d="M25.3846 73.9243C21.2308 79.4627 16.4615 84.6935 11.2308 89.4627C10.9231 89.7704 10.9231 90.232 11.2308 90.5397C16.4615 95.3089 21.2308 100.54 25.3846 106.078C25.6923 106.54 26.3077 106.54 26.6154 106.078C30.7692 100.54 35.5385 95.3089 40.7692 90.5397C41.0769 90.232 41.0769 89.7704 40.7692 89.4627C35.5385 84.6935 30.7692 79.4627 26.6154 73.9243C26.3077 73.4627 25.6923 73.4627 25.3846 73.9243Z" fill="#BF3030"/>
<path d="M16.285 11.756H36.561V17.454H22.205L21.761 30.404C23.759 28.406 26.571 28.11 28.125 28.11C32.565 28.11 34.711 30.774 35.451 31.958C36.043 32.92 37.079 34.622 37.079 42.17C37.079 44.908 37.079 52.53 36.857 54.75C36.191 60.522 32.195 64.666 25.165 64.666C13.917 64.666 13.917 54.972 13.917 51.642C13.917 50.458 13.991 49.644 13.991 48.682H20.133C19.985 54.306 19.911 58.82 25.387 58.82C29.901 58.82 30.419 55.194 30.493 54.084C30.641 52.678 30.715 42.836 30.715 42.54C30.715 38.544 30.715 33.882 25.757 33.882C21.391 33.882 21.391 37.73 21.317 40.024H15.471L16.285 11.756Z" fill="#BF3030"/>
<defs>
<linearGradient id="paint0_linear_324_104468" x1="92" y1="2" x2="92" y2="182" gradientUnits="userSpaceOnUse">
<stop stop-color="white" stop-opacity="0.85"/>
<stop offset="1" stop-color="white" stop-opacity="0.15"/>
</linearGradient>
</defs>
</svg>
