<svg width="184" height="184" viewBox="0 0 184 184" fill="none" xmlns="http://www.w3.org/2000/svg">
<rect x="1" y="1" width="182" height="182" rx="13" stroke="black" stroke-opacity="0.25" stroke-width="2"/>
<rect x="2.5" y="2.5" width="179" height="179" rx="11.5" fill="#E9E9E9" stroke="url(#paint0_linear_324_104579)"/>
<rect x="41.0469" y="30.5" width="101.909" height="123" rx="1.5" fill="#D7D5D7" stroke="#CDCFD6"/>
<path d="M101.96 106.144C96.7674 101.99 89.152 93.3362 86.0367 89.8747C85.3443 89.1824 83.9597 89.1824 83.2674 89.8747C80.152 93.3362 72.8828 101.99 67.3443 106.144C55.229 116.529 50.3828 121.375 50.3828 130.375C50.3828 140.759 59.3828 149.413 70.4597 149.413C74.6136 149.413 79.4597 148.029 82.5751 145.605L82.9213 145.259C82.229 150.452 80.4982 158.067 75.3059 163.259C74.6136 163.952 74.9597 164.644 75.9982 164.644H84.9982H93.9982C94.6905 164.644 95.0367 163.605 94.6905 163.259C89.4982 158.067 87.7674 150.798 87.0751 145.259L87.4213 145.605C90.1905 148.029 95.3828 149.413 99.5367 149.413C110.614 149.413 119.614 140.759 119.614 130.375C119.614 121.375 114.767 116.529 101.96 106.144Z" fill="#24242E"/>
<path d="M33.5383 80.7311C31.2306 78.8849 27.846 75.0388 26.4614 73.5003C26.1537 73.1926 25.5383 73.1926 25.2306 73.5003C23.846 75.0388 20.6152 78.8849 18.1537 80.7311C12.7691 85.3465 10.6152 87.5003 10.6152 91.5003C10.6152 96.1157 14.6152 99.9618 19.5383 99.9618C21.3845 99.9618 23.5383 99.3465 24.9229 98.2695L25.0768 98.1157C24.7691 100.423 23.9998 103.808 21.6922 106.116C21.3845 106.423 21.5383 106.731 21.9998 106.731H25.9998H29.9998C30.3075 106.731 30.4614 106.27 30.3075 106.116C27.9998 103.808 27.2306 100.577 26.9229 98.1157L27.0768 98.2695C28.3075 99.3465 30.6152 99.9618 32.4614 99.9618C37.3845 99.9618 41.3845 96.1157 41.3845 91.5003C41.3845 87.5003 39.2306 85.3465 33.5383 80.7311Z" fill="#24242E"/>
<path d="M28.8101 11.756L40.3541 64H33.5461L31.6961 53.936H19.5601L17.7841 64H11.0501L22.2981 11.756H28.8101ZM20.6701 48.312H30.5861L25.4801 21.45L20.6701 48.312Z" fill="#24242E"/>
<defs>
<linearGradient id="paint0_linear_324_104579" x1="92" y1="2" x2="92" y2="182" gradientUnits="userSpaceOnUse">
<stop stop-color="white" stop-opacity="0.85"/>
<stop offset="1" stop-color="white" stop-opacity="0.15"/>
</linearGradient>
</defs>
</svg>
