<svg width="184" height="184" viewBox="0 0 184 184" fill="none" xmlns="http://www.w3.org/2000/svg">
<rect x="1" y="1" width="182" height="182" rx="13" stroke="black" stroke-opacity="0.25" stroke-width="2"/>
<rect x="2.5" y="2.5" width="179" height="179" rx="11.5" fill="#E9E9E9" stroke="url(#paint0_linear_324_104501)"/>
<rect x="41.0449" y="30.5" width="101.909" height="123" rx="1.5" fill="#D7D5D7" stroke="#CDCFD6"/>
<path d="M99.1925 94.5898C94.0002 94.5898 89.154 96.6668 85.3463 100.128C85.0002 100.474 84.654 100.474 84.3079 100.128C80.8463 96.6668 76.0002 94.5898 70.4617 94.5898C59.3848 94.5898 50.3848 103.59 50.3848 115.013C50.3848 125.051 55.2309 130.244 68.0386 140.974C73.2309 145.474 80.8463 154.821 83.6156 158.628C84.3079 159.667 85.6925 159.667 86.3848 158.628C89.5002 154.821 96.7694 145.474 101.962 140.974C114.423 129.898 119.616 125.051 119.616 115.013C119.616 103.59 110.616 94.5898 99.1925 94.5898Z" fill="#BF3030"/>
<path d="M32.3076 75.5977C29.9999 75.5977 27.846 76.5207 26.1537 78.0592C25.9999 78.213 25.846 78.213 25.6922 78.0592C24.1537 76.5207 21.9999 75.5977 19.5383 75.5977C14.6152 75.5977 10.6152 79.5977 10.6152 84.6746C10.6152 89.1361 12.7691 91.4438 18.4614 96.213C20.7691 98.213 24.1537 102.367 25.3845 104.059C25.6922 104.521 26.3076 104.521 26.6152 104.059C27.9999 102.367 31.2306 98.213 33.5383 96.213C39.0768 91.29 41.3845 89.1361 41.3845 84.6746C41.3845 79.5977 37.3845 75.5977 32.3076 75.5977Z" fill="#BF3030"/>
<path d="M20.947 26.556H15.027C14.953 21.524 14.953 18.268 16.507 15.456C18.727 11.534 23.463 11.09 25.683 11.09C30.419 11.09 33.009 13.31 34.119 14.864C36.117 17.454 36.413 21.376 36.413 24.78C36.413 31.588 35.673 35.14 30.345 36.176C36.117 37.582 37.227 39.95 37.227 51.494C37.227 55.49 36.635 58.746 33.971 61.484C32.713 62.742 30.345 64.666 25.535 64.666C22.057 64.666 19.467 63.556 18.061 62.668C13.473 59.708 14.065 53.048 14.139 48.386H20.059C19.985 49.792 19.985 51.272 20.059 53.27C20.133 54.898 20.281 58.968 25.165 58.968C30.419 58.968 30.641 54.676 30.641 52.012C30.715 51.05 30.715 48.238 30.715 46.758C30.715 40.986 28.273 39.358 23.981 39.358C23.315 39.358 22.575 39.358 21.983 39.432V33.586C26.497 33.882 30.197 33.586 30.197 26.112C30.197 19.822 29.827 16.788 25.461 16.788C21.095 16.788 20.651 21.006 20.947 26.556Z" fill="#BF3030"/>
<defs>
<linearGradient id="paint0_linear_324_104501" x1="92" y1="2" x2="92" y2="182" gradientUnits="userSpaceOnUse">
<stop stop-color="white" stop-opacity="0.85"/>
<stop offset="1" stop-color="white" stop-opacity="0.15"/>
</linearGradient>
</defs>
</svg>
