<svg width="184" height="184" viewBox="0 0 184 184" fill="none" xmlns="http://www.w3.org/2000/svg">
<rect x="1" y="1" width="182" height="182" rx="13" stroke="black" stroke-opacity="0.25" stroke-width="2"/>
<rect x="2.5" y="2.5" width="179" height="179" rx="11.5" fill="#E9E9E9" stroke="url(#paint0_linear_324_104493)"/>
<rect x="41.0449" y="30.5" width="101.909" height="123" rx="1.5" fill="#D7D5D7" stroke="#CDCFD6"/>
<path d="M99.1925 94.5898C94.0002 94.5898 89.154 96.6668 85.3463 100.128C85.0002 100.474 84.654 100.474 84.3079 100.128C80.8463 96.6668 76.0002 94.5898 70.4617 94.5898C59.3848 94.5898 50.3848 103.59 50.3848 115.013C50.3848 125.051 55.2309 130.244 68.0386 140.974C73.2309 145.474 80.8463 154.821 83.6156 158.628C84.3079 159.667 85.6925 159.667 86.3848 158.628C89.5002 154.821 96.7694 145.474 101.962 140.974C114.423 129.898 119.616 125.051 119.616 115.013C119.616 103.59 110.616 94.5898 99.1925 94.5898Z" fill="#BF3030"/>
<path d="M32.3076 75.5977C29.9999 75.5977 27.846 76.5207 26.1537 78.0592C25.9999 78.213 25.846 78.213 25.6922 78.0592C24.1537 76.5207 21.9999 75.5977 19.5383 75.5977C14.6152 75.5977 10.6152 79.5977 10.6152 84.6746C10.6152 89.1361 12.7691 91.4438 18.4614 96.213C20.7691 98.213 24.1537 102.367 25.3845 104.059C25.6922 104.521 26.3076 104.521 26.6152 104.059C27.9999 102.367 31.2306 98.213 33.5383 96.213C39.0768 91.29 41.3845 89.1361 41.3845 84.6746C41.3845 79.5977 37.3845 75.5977 32.3076 75.5977Z" fill="#BF3030"/>
<path d="M36.857 23.3C36.857 30.922 36.413 34.548 32.639 35.88C32.195 36.028 31.529 36.102 31.233 36.176C31.455 36.25 32.269 36.472 32.861 36.694C37.227 38.618 37.227 43.428 37.227 48.312C37.227 52.456 37.227 55.786 36.043 58.746C33.675 64.592 26.127 64.666 25.461 64.666C20.873 64.666 17.839 62.742 16.433 60.966C14.657 58.746 14.139 55.49 14.139 52.604C14.139 41.652 14.139 37.952 20.207 36.176C15.471 35.362 14.805 32.254 14.805 23.744C14.805 20.118 14.879 11.09 25.831 11.09C30.567 11.09 33.527 13.014 34.933 14.79C36.857 17.38 36.857 21.08 36.857 23.3ZM30.715 24.41C30.789 20.858 30.937 16.27 25.905 16.27C21.243 16.27 20.799 19.97 20.799 24.78C20.799 29.738 20.799 33.438 25.979 33.438C30.493 33.438 30.567 30.034 30.715 24.41ZM30.863 49.348C30.863 44.168 30.863 39.728 25.683 39.728C24.869 39.728 23.537 39.876 22.427 40.69C20.577 42.17 20.577 44.168 20.577 49.644C20.577 55.046 20.577 58.82 25.683 58.82C30.863 58.82 30.863 54.528 30.863 49.348Z" fill="#BF3030"/>
<defs>
<linearGradient id="paint0_linear_324_104493" x1="92" y1="2" x2="92" y2="182" gradientUnits="userSpaceOnUse">
<stop stop-color="white" stop-opacity="0.85"/>
<stop offset="1" stop-color="white" stop-opacity="0.15"/>
</linearGradient>
</defs>
</svg>
