<svg width="184" height="184" viewBox="0 0 184 184" fill="none" xmlns="http://www.w3.org/2000/svg">
<rect x="1" y="1" width="182" height="182" rx="13" stroke="black" stroke-opacity="0.25" stroke-width="2"/>
<rect x="2.5" y="2.5" width="179" height="179" rx="11.5" fill="#E9E9E9" stroke="url(#paint0_linear_324_104587)"/>
<rect x="41.0449" y="30.5" width="101.909" height="123" rx="1.5" fill="#D7D5D7" stroke="#CDCFD6"/>
<path d="M83.6154 90.8257C74.2692 103.287 63.5385 115.057 51.7692 125.787C51.0769 126.48 51.0769 127.518 51.7692 128.21C63.5385 138.941 74.2692 150.71 83.6154 163.172C84.3077 164.21 85.6923 164.21 86.3846 163.172C95.7308 150.71 106.462 138.941 118.231 128.21C118.923 127.518 118.923 126.48 118.231 125.787C106.462 115.057 95.7308 103.287 86.3846 90.8257C85.6923 89.7873 84.3077 89.7873 83.6154 90.8257Z" fill="#BF3030"/>
<path d="M25.3846 73.9243C21.2308 79.4627 16.4615 84.6935 11.2308 89.4627C10.9231 89.7704 10.9231 90.232 11.2308 90.5397C16.4615 95.3089 21.2308 100.54 25.3846 106.078C25.6923 106.54 26.3077 106.54 26.6154 106.078C30.7692 100.54 35.5385 95.3089 40.7692 90.5397C41.0769 90.232 41.0769 89.7704 40.7692 89.4627C35.5385 84.6935 30.7692 79.4627 26.6154 73.9243C26.3077 73.4627 25.6923 73.4627 25.3846 73.9243Z" fill="#BF3030"/>
<path d="M37.227 58.376V64H14.361V57.784L25.165 39.506C29.605 31.884 30.419 29.812 30.419 24.188C30.419 21.82 30.345 17.084 25.609 17.084C20.947 17.084 20.947 21.524 20.947 24.41V30.404H14.953V23.892C14.953 19.452 15.471 16.418 17.617 14.124C19.171 12.496 21.835 11.09 25.461 11.09C29.531 11.09 31.825 12.644 33.231 14.124C35.895 16.936 36.561 20.34 36.561 24.706C36.561 31.366 34.489 35.732 31.677 40.394L20.947 58.376H37.227Z" fill="#BF3030"/>
<g clip-path="url(#clip0_324_104587)">
<path d="M63.9267 38L65.5467 30.08C66.0507 27.704 66.4467 25.004 66.8787 22.088H66.9507C67.2747 25.04 67.6347 27.812 68.0307 30.044L69.4707 38H74.3307L78.6147 13.736H74.0067L72.8187 23.348C72.4947 26.156 72.2067 28.748 71.8827 31.916H71.8107C71.5227 28.748 71.0907 26.048 70.6587 23.312L69.0387 13.736H65.2227L63.4947 23.384C62.9907 26.3 62.4507 28.928 62.1267 31.916H62.0187C61.7307 28.964 61.5147 26.192 61.1907 23.42L60.0027 13.736H55.1067L59.2467 38H63.9267ZM81.1603 13.736V38H85.8763V13.736H81.1603ZM90.09 38H100.998V34.004H94.806V13.736H90.09V38ZM103.766 37.892C104.702 38.036 106.178 38.18 107.69 38.18C111.038 38.18 113.414 37.388 115.07 35.84C117.194 33.968 118.454 30.476 118.454 25.58C118.454 20.864 117.374 17.66 115.286 15.788C113.738 14.348 111.614 13.628 108.554 13.628C106.682 13.628 104.954 13.808 103.766 14.096V37.892ZM108.482 17.516C108.77 17.408 109.094 17.408 109.418 17.408C112.262 17.408 113.558 20.432 113.558 25.4C113.558 32.096 111.578 34.328 109.31 34.328C109.058 34.328 108.734 34.328 108.482 34.256V17.516Z" fill="#BF3030"/>
<path opacity="0.8" d="M67.7722 63L69.1222 56.4C69.5422 54.42 69.8722 52.17 70.2322 49.74H70.2922C70.5622 52.2 70.8622 54.51 71.1922 56.37L72.3922 63H76.4422L80.0122 42.78H76.1722L75.1822 50.79C74.9122 53.13 74.6722 55.29 74.4022 57.93H74.3422C74.1022 55.29 73.7422 53.04 73.3822 50.76L72.0322 42.78H68.8522L67.4122 50.82C66.9922 53.25 66.5422 55.44 66.2722 57.93H66.1822C65.9422 55.47 65.7622 53.16 65.4922 50.85L64.5022 42.78H60.4222L63.8722 63H67.7722ZM82.1336 42.78V63H86.0636V42.78H82.1336ZM89.575 63H98.665V59.67H93.505V42.78H89.575V63ZM100.971 62.91C101.751 63.03 102.981 63.15 104.241 63.15C107.031 63.15 109.011 62.49 110.391 61.2C112.161 59.64 113.211 56.73 113.211 52.65C113.211 48.72 112.311 46.05 110.571 44.49C109.281 43.29 107.511 42.69 104.961 42.69C103.401 42.69 101.961 42.84 100.971 43.08V62.91ZM104.901 45.93C105.141 45.84 105.411 45.84 105.681 45.84C108.051 45.84 109.131 48.36 109.131 52.5C109.131 58.08 107.481 59.94 105.591 59.94C105.381 59.94 105.111 59.94 104.901 59.88V45.93Z" fill="#BF3030"/>
<path opacity="0.5" d="M71.6178 84L72.6978 78.72C73.0338 77.136 73.2978 75.336 73.5858 73.392H73.6338C73.8498 75.36 74.0898 77.208 74.3538 78.696L75.3138 84H78.5538L81.4098 67.824H78.3378L77.5458 74.232C77.3298 76.104 77.1378 77.832 76.9218 79.944H76.8738C76.6818 77.832 76.3938 76.032 76.1058 74.208L75.0258 67.824H72.4818L71.3298 74.256C70.9938 76.2 70.6338 77.952 70.4178 79.944H70.3458C70.1538 77.976 70.0098 76.128 69.7938 74.28L69.0018 67.824H65.7378L68.4978 84H71.6178ZM83.1068 67.824V84H86.2508V67.824H83.1068ZM89.06 84H96.332V81.336H92.204V67.824H89.06V84ZM98.1772 83.928C98.8012 84.024 99.7852 84.12 100.793 84.12C103.025 84.12 104.609 83.592 105.713 82.56C107.129 81.312 107.969 78.984 107.969 75.72C107.969 72.576 107.249 70.44 105.857 69.192C104.825 68.232 103.409 67.752 101.369 67.752C100.121 67.752 98.9692 67.872 98.1772 68.064V83.928ZM101.321 70.344C101.513 70.272 101.729 70.272 101.945 70.272C103.841 70.272 104.705 72.288 104.705 75.6C104.705 80.064 103.385 81.552 101.873 81.552C101.705 81.552 101.489 81.552 101.321 81.504V70.344Z" fill="#BF3030"/>
</g>
<defs>
<linearGradient id="paint0_linear_324_104587" x1="92" y1="2" x2="92" y2="182" gradientUnits="userSpaceOnUse">
<stop stop-color="white" stop-opacity="0.85"/>
<stop offset="1" stop-color="white" stop-opacity="0.15"/>
</linearGradient>
<clipPath id="clip0_324_104587">
<rect width="74" height="88" fill="white" transform="translate(50 2)"/>
</clipPath>
</defs>
</svg>
