<svg width="184" height="184" viewBox="0 0 184 184" fill="none" xmlns="http://www.w3.org/2000/svg">
<rect x="1" y="1" width="182" height="182" rx="13" stroke="black" stroke-opacity="0.25" stroke-width="2"/>
<rect x="2.5" y="2.5" width="179" height="179" rx="11.5" fill="#E9E9E9" stroke="url(#paint0_linear_324_104553)"/>
<rect x="41.0469" y="30.5" width="101.909" height="123" rx="1.5" fill="#D7D5D7" stroke="#CDCFD6"/>
<path d="M44.458 95.707C46.4303 95.707 48.4023 96.0189 48.4023 99.7559C48.4023 100.872 48.2466 101.806 48.0391 102.351C47.6238 103.57 46.7676 103.778 46.4043 103.882L49.1035 110.604H47.1309L44.5879 104.09H43.0566V110.604H41.2139V95.707H44.458ZM43.0566 102.584C45.1583 102.584 45.4438 102.584 45.833 102.299C46.5596 101.806 46.5596 100.664 46.5596 99.9375C46.5596 99.0292 46.5337 98.0691 45.833 97.6279C45.3919 97.3426 44.9768 97.3418 43.0566 97.3418V102.584ZM48.1953 79.2021H43.498V83.6396H47.624V85.3271H43.498V90.7764H48.3506V92.4375H41.6553V77.541H48.1953V79.2021ZM43.2646 65.8115L47.1055 59.4014H49.1553L45.6514 64.9805L49.1553 74.2715H47.1055L44.458 66.668L43.2646 68.458V74.2969H41.4219V59.4014H43.2646V65.8115ZM44.9248 41.001C48.0386 41.001 48.2731 43.3105 48.377 44.1152C48.5067 45.3869 48.4541 48.0604 48.4541 48.4756C48.4541 49.6175 48.403 51.3304 48.3252 52.4463C48.2214 54.3146 47.7538 56.3387 44.666 56.3389C44.121 56.3389 43.3677 56.2871 42.667 55.9238C41.6032 55.3529 41.3441 54.3147 41.2402 53.7178C41.0586 52.7057 41.084 50.5257 41.084 49.2021C41.084 48.2419 41.1366 45.1278 41.1885 44.3232C41.2404 43.5707 41.5514 41.0011 44.9248 41.001ZM44.8213 42.5586C43.1345 42.5586 43.0562 44.1937 43.0303 44.9463C42.9784 45.6727 42.9785 45.9069 42.9785 49.5137C43.0045 50.4995 43.0049 50.5257 43.0049 51.4854C43.0568 52.9127 42.7972 54.8076 44.7695 54.8076C46.3523 54.8075 46.4046 53.4065 46.4824 52.4463C46.5603 51.2007 46.6119 49.6693 46.5859 48.4756C46.56 47.3078 46.5601 46.1395 46.5342 44.9717C46.5082 44.0374 46.482 42.5586 44.8213 42.5586ZM47.9619 33.0859C47.9619 35.2653 47.8832 35.681 47.7275 36.1221C47.053 38.1716 44.8226 38.1729 44.3027 38.1729C42.3304 38.1729 41.4216 37.0824 41.1621 36.0703C40.9805 35.4476 40.9805 35.0059 40.9805 33.501H42.7715C42.7715 35.1098 42.7975 35.3438 42.9531 35.707C43.1867 36.278 43.6795 36.5898 44.2764 36.5898C45.7815 36.6158 46.0409 35.5252 46.0928 34.9023C46.1187 34.6163 46.1191 33.5281 46.1191 33.1904V23.043H47.9619V33.0859Z" fill="#24242E"/>
<path d="M139.571 150.853C141.544 150.853 142.452 151.943 142.712 152.955C142.893 153.578 142.894 154.019 142.894 155.524H141.103C141.103 153.916 141.077 153.682 140.921 153.318C140.687 152.747 140.195 152.436 139.598 152.436C138.092 152.41 137.833 153.5 137.781 154.123C137.755 154.409 137.755 155.497 137.755 155.835V165.982H135.912V155.939C135.912 153.76 135.991 153.344 136.146 152.903C136.821 150.854 139.052 150.853 139.571 150.853ZM139.183 132.661C139.728 132.661 140.48 132.713 141.181 133.076C142.245 133.647 142.505 134.685 142.608 135.282C142.79 136.294 142.764 138.474 142.764 139.797C142.764 140.757 142.712 143.871 142.66 144.676C142.608 145.428 142.297 147.998 138.923 147.998C135.809 147.998 135.575 145.688 135.472 144.884C135.342 143.613 135.394 140.941 135.394 140.524C135.42 139.383 135.472 137.696 135.523 136.554C135.627 134.685 136.094 132.661 139.183 132.661ZM139.104 134.218C137.522 134.218 137.469 135.619 137.392 136.579C137.314 137.825 137.262 139.356 137.288 140.55C137.314 141.718 137.314 142.886 137.34 144.054C137.366 144.988 137.392 146.467 139.053 146.467C140.74 146.467 140.818 144.832 140.844 144.079C140.896 143.353 140.896 143.119 140.896 139.512C140.87 138.5 140.869 138.473 140.869 137.539C140.817 136.112 141.077 134.218 139.104 134.218ZM139.442 122.357L140.636 120.567V114.729H142.479V129.624H140.636V123.214L136.795 129.624H134.745L138.248 124.019L134.719 114.729H136.769L139.442 122.357ZM142.219 111.458H135.679V109.797H140.376V105.359H136.25V103.673H140.376V98.2227H135.523V96.5615H142.219V111.458ZM139.286 84.9355H140.817V78.4219H142.66V93.3184H139.416C137.444 93.3184 135.472 93.0066 135.472 89.2695C135.472 88.1538 135.627 87.2198 135.835 86.6748C136.25 85.4551 137.106 85.2474 137.47 85.1436L134.771 78.4219H136.743L139.286 84.9355ZM140.817 86.415C138.716 86.415 138.43 86.415 138.041 86.7002C137.314 87.1933 137.313 88.3359 137.313 89.0625C137.313 89.9707 137.34 90.931 138.041 91.3721C138.482 91.6572 138.898 91.6572 140.817 91.6572V86.415Z" fill="#24242E"/>
<path fill-rule="evenodd" clip-rule="evenodd" d="M97.2944 150.359C96.8013 150.255 96.4639 149.814 96.2303 149.399C96.1525 149.243 95.893 149.139 95.5815 149.087C94.9068 148.854 94.0764 148.957 93.4535 149.217C93.3497 149.269 93.22 149.321 93.1421 149.425C93.0123 149.476 92.8826 149.58 92.7528 149.658C92.5971 149.788 92.5193 149.944 92.4674 150.099C92.2078 150.229 91.9743 150.385 91.7667 150.592C91.1179 151.215 93.0642 151.475 93.9466 151.189C94.3878 151.397 95.1404 151.423 95.7373 151.293C95.7892 151.293 95.8411 151.319 95.893 151.319C96.4379 151.423 97.3982 151.449 97.8393 151.033C98.3065 150.644 97.6577 150.411 97.2944 150.359Z" fill="#98AED2"/>
<path fill-rule="evenodd" clip-rule="evenodd" d="M68.8274 148.986C68.8274 149.012 68.8274 149.012 68.8274 149.038C68.7236 149.064 68.6198 149.116 68.542 149.142C68.516 149.142 68.4641 149.168 68.4382 149.168C67.8413 149.168 67.1665 149.298 66.8811 149.583C66.362 149.505 65.6873 149.557 65.2461 149.713C65.1423 149.713 65.0126 149.713 64.8828 149.713C64.8049 149.713 64.7271 149.713 64.6752 149.739C63.9485 149.687 63.0921 149.817 62.9364 150.206C62.7807 150.595 62.7807 150.855 63.1181 151.14C63.5074 151.451 64.6492 151.633 65.3759 151.374C65.4537 151.374 65.5316 151.374 65.6094 151.374C66.1285 151.503 66.8292 151.451 67.4001 151.218C67.478 151.218 67.5558 151.218 67.6337 151.192C67.8413 151.166 68.0489 151.14 68.2306 151.088C68.4122 151.088 68.5939 151.088 68.7755 151.062C69.4762 151.426 71.215 151.27 71.3447 150.595C71.4745 149.998 71.5783 149.427 71.7081 148.83C71.8119 148.259 69.0091 148.104 68.8274 148.986Z" fill="#98AED2"/>
<path fill-rule="evenodd" clip-rule="evenodd" d="M144.917 58.8299C144.684 57.7919 143.438 56.8057 142.737 56.0272C141.699 54.8853 140.687 53.7434 139.649 52.6015C139.571 52.5237 139.416 52.4718 139.234 52.4458C139.623 51.3559 139.987 50.2918 140.324 49.1759C140.35 49.124 140.194 49.0462 140.168 49.0462C136.821 47.8783 133.473 46.6846 130.125 45.5168C130.177 45.2313 129.217 45.2053 129.113 45.4389L129.087 45.5427C129.009 45.5687 128.983 45.6206 129.035 45.6725C127.452 50.0323 125.869 54.3663 124.286 58.7261C124.052 59.3749 123.689 60.1275 124.234 60.6984C124.701 61.2175 125.713 61.3991 126.31 61.6327C127.011 61.9182 127.712 62.2036 128.412 62.4891C128.36 62.6708 128.334 62.8784 128.334 63.06C128.282 64.3576 129.295 65.2659 130.203 66.0704C130.229 66.0964 130.281 66.1223 130.333 66.1223C130.981 66.8749 131.656 67.6535 132.409 68.1985C132.409 68.1985 132.409 68.2244 132.435 68.2244C132.642 68.4061 132.85 68.6137 133.083 68.7953C133.317 69.0029 133.862 69.0029 134.096 68.7953C134.381 68.5099 134.692 68.2244 134.978 67.9389C135.549 67.5237 136.094 66.9528 136.587 66.5635C137.833 65.6033 139.078 64.6171 140.298 63.6569C141.44 62.7486 142.634 61.8663 143.75 60.932C144.424 60.413 145.125 59.7382 144.917 58.8299Z" fill="white"/>
<path fill-rule="evenodd" clip-rule="evenodd" d="M103.447 126.252C103.213 124.747 101.37 123.528 100.358 122.541C98.931 121.166 97.5036 119.765 96.1022 118.389C95.8946 118.182 94.9344 118.337 95.0901 118.493C95.1161 118.519 95.142 118.545 95.168 118.571C95.0642 118.597 94.9604 118.649 94.8825 118.701C91.0157 122.386 87.1749 126.045 83.3081 129.73C83.2303 129.808 83.4638 129.886 83.7493 129.912C84.7095 131.365 85.7735 132.74 86.9932 134.012C88.0313 135.102 89.277 136.555 90.5746 137.334C91.3272 137.775 92.1316 137.593 92.8323 137.152C94.4154 136.166 95.8168 134.609 97.1922 133.363C98.4898 132.195 99.7614 131.002 101.007 129.808C101.941 128.951 103.68 127.732 103.447 126.252Z" fill="white"/>
<path fill-rule="evenodd" clip-rule="evenodd" d="M129.449 81.3019C129.32 81.1462 126.88 81.0683 126.776 81.0943L125.142 81.3538C125.142 81.3797 125.142 81.4316 125.116 81.4316C124.622 81.6393 124.103 81.795 123.584 81.9507C123.169 82.0804 122.754 82.3919 122.339 82.4697C121.949 82.5476 121.69 82.4437 121.353 82.2621C120.73 81.8988 120.263 81.25 119.692 80.7829C118.991 80.2119 118.238 79.7188 117.434 79.3296C116.889 79.1219 116.344 78.9922 115.773 78.9922C114.657 79.0181 114.372 79.8226 114.449 80.7569C114.579 80.9905 114.709 81.224 114.813 81.4576C115.565 82.859 116.214 84.5718 117.564 85.506C119.588 86.8815 122.365 86.8555 124.752 86.8555C124.986 86.8036 125.219 86.7517 125.479 86.6998C125.764 86.5701 126.18 86.2067 126.699 85.5579C126.776 85.4282 127.062 84.3642 127.114 84.2344C127.737 83.5337 128.385 83.1964 129.034 82.4957C129.32 82.4438 129.579 82.0285 129.865 81.9766C130.072 81.9247 130.072 81.7171 130.15 81.6912C130.488 81.6133 129.761 81.3278 129.449 81.3019Z" fill="#FEBB1D"/>
<path fill-rule="evenodd" clip-rule="evenodd" d="M132.176 58.0763C132.072 57.2978 131.293 57.3497 130.229 58.1801C129.71 58.5953 129.139 58.9587 128.854 59.5555C128.439 60.1524 128.101 60.7753 127.816 61.45C127.53 61.9431 127.712 62.2286 127.375 62.7216C127.349 62.7216 127.349 62.7216 127.323 62.7216C126.804 62.2286 126.129 61.8912 125.402 61.6836C125.35 61.6576 125.74 61.5019 125.714 61.476L125.298 61.6317C125.402 61.2943 124.598 61.0348 124.39 60.9829C124.027 60.905 123.689 60.8272 123.326 60.7234C123.144 60.6715 122.106 60.4639 122.236 60.9569C122.262 61.0348 122.288 61.1386 122.288 61.2164C122.314 61.2943 122.158 61.5798 122.236 61.6317C122.21 61.8912 123.352 62.1247 123.612 62.1507C123.975 62.2026 124.312 62.2286 124.65 62.3324C124.883 62.4881 125.039 62.7476 125.117 63.0331C124.39 63.2666 123.715 63.6559 123.093 64.2268C122.989 64.3306 122.599 64.5123 122.677 64.6161C123.118 65.0313 124.312 65.3168 125.091 65.3946C124.001 66.6403 122.885 67.8341 121.717 69.0278C121.665 69.1317 121.587 69.2355 121.535 69.3652V69.3912C121.509 69.4171 121.484 69.4431 121.484 69.4431C121.146 70.014 120.809 70.559 120.497 71.1299C120.497 71.1559 120.497 71.1559 120.497 71.1818C120.212 72.2458 119.952 73.3099 119.719 74.3739C119.797 74.4517 119.875 74.5296 119.849 74.6074C119.667 75.4898 119.485 76.3462 119.356 77.2285C119.356 77.2545 119.356 77.2804 119.33 77.3064C119.33 78.2406 119.356 79.1489 119.381 79.9534C119.381 80.0313 119.33 80.0313 119.278 80.0313C119.304 80.0832 119.304 80.1092 119.304 80.1351C119.2 80.0832 119.096 80.0573 118.992 80.0053C119.2 80.1611 119.407 80.2908 119.615 80.4465C120.394 81.0434 121.25 82.3669 122.366 82.0296C122.989 81.8479 123.689 81.5884 124.312 81.3289C124.312 79.9794 124.468 77.1247 124.546 76.8133C125.999 75.5676 127.141 74.4258 128.335 72.9465C128.932 72.2199 129.606 71.5971 130.125 70.8185C130.722 69.9621 131.812 69.0019 131.76 67.9379C131.76 67.7043 129.762 65.6801 129.529 66.251C130.463 63.9414 131.138 62.2805 132.072 59.9967C132.15 59.841 132.202 58.258 132.176 58.0763Z" fill="#EFEDED"/>
<path fill-rule="evenodd" clip-rule="evenodd" d="M109.751 75.4895C109.751 74.5034 108.869 73.102 107.831 72.8944C106.637 72.6608 106.118 73.7508 105.262 73.7248C103.99 73.6989 102.251 72.3754 101.005 71.8823C99.8117 71.4151 98.6179 70.974 97.3463 70.7145C94.829 70.1954 92.4934 70.5068 90.002 70.7664C88.8083 70.8961 87.5107 70.9999 86.3948 70.429C85.7719 70.1176 85.5903 69.365 84.7598 69.1833C85.3307 68.6902 85.8498 65.0051 85.9276 64.3823C86.3169 61.2681 85.72 58.102 84.8896 55.0916C83.6698 50.7317 81.2044 43.4912 82.2685 38.9757C82.9692 36.0691 83.2546 35.1348 84.2667 32.358C84.7339 31.1123 85.3826 29.9705 86.0574 28.8286C87.3809 26.5968 91.5332 22.5743 91.3515 22.9117C91.3515 22.9117 85.4865 22.1071 84.7079 22.185C82.7875 22.4445 80.8152 23.9757 79.3878 25.1694C77.5193 26.7525 76.6889 26.986 76.6889 26.986C76.6889 26.986 66.957 25.9999 65.0107 30.8269C64.1283 33.0068 63.6352 34.7456 62.9865 37.1331C61.4553 42.9722 60.7027 49.512 61.7408 55.7663C62.0522 57.6089 62.3377 58.4134 61.8446 59.9445C61.5072 60.9826 60.6768 61.7093 61.5072 62.8252C62.1301 63.6816 63.1681 63.7854 64.0764 63.5518C64.9588 63.3183 66.0228 62.6176 66.0228 61.5535C66.0228 59.7629 64.7252 58.5951 63.7391 58.9584C63.246 59.14 63.765 56.6747 63.8688 56.1556C64.3878 53.5345 64.7252 50.057 66.0228 47.4099C67.2166 44.9964 68.4103 42.6089 69.6041 40.1954C69.6041 40.1435 70.9536 42.1937 70.72 41.8044C71.1871 42.6089 71.4986 43.5691 71.9138 44.4255C72.7442 46.1643 73.6006 47.8771 74.5089 49.5639C75.4951 51.3805 76.8965 53.1712 77.675 55.0397C78.4536 56.8823 77.4934 58.5691 76.7148 60.4636C75.0799 64.3823 73.3152 67.0812 69.9415 69.6245C66.7494 72.038 64.1024 74.9965 61.0141 77.5138C60.5211 77.929 59.0937 78.8633 59.0937 78.8633C59.0937 78.8633 58.393 78.3961 57.9259 78.3702C57.1474 78.3442 56.291 77.9031 55.5124 78.448C53.073 80.1868 55.5124 83.4567 58.0297 82.3927C59.3792 81.8217 59.4311 80.6799 59.4311 80.6799C59.4311 80.6799 60.3394 80.1608 61.1699 79.8235C62.7788 79.1747 64.2581 78.6556 65.9709 78.2404C66.3602 80.8615 67.1647 83.4048 67.6837 85.8961C67.8913 86.8304 67.9692 87.8166 67.9951 88.7768C67.9951 89.8667 67.2166 91.8131 67.6318 92.7733C64.9069 92.0986 63.0124 96.0432 66.1006 97.1072C70.2529 97.9896 68.5141 93.7335 68.6958 93.5259C68.8775 93.3183 70.8498 91.2941 71.3688 90.4896C72.7702 88.3356 74.0937 86.1556 75.2615 83.8719C76.1958 82.0553 78.1681 77.9549 80.5038 77.4619C81.464 77.2543 82.3982 78.0328 83.2806 78.2923C84.5003 78.6556 85.8757 78.7854 87.1214 78.9152C92.8567 79.4861 98.592 78.474 103.912 76.32C106.507 75.256 105.106 76.0345 107.13 76.865C107.883 77.2024 109.803 76.9688 109.751 75.4895Z" fill="#FEBB1D"/>
<path fill-rule="evenodd" clip-rule="evenodd" d="M47.2089 144.677C47.1829 143.665 46.9753 142.757 46.4822 141.901C46.8975 141.07 45.7037 140.344 44.8732 140.292C44.4061 140.24 43.913 140.318 43.6276 140.707C43.5757 140.785 43.5497 140.837 43.5238 140.915C41.6812 140.915 39.8386 142.134 40.6431 144.314C40.6691 144.418 40.721 144.522 40.7989 144.626C40.9027 145.067 41.1881 145.482 41.5514 145.767C41.785 146.286 42.4078 146.676 42.9269 146.857C44.6916 147.454 46.612 146.442 47.0272 144.833C47.157 144.807 47.2089 144.755 47.2089 144.677Z" fill="#FEBB1D"/>
<path fill-rule="evenodd" clip-rule="evenodd" d="M69.4741 160.35C69.4222 160.324 69.3963 160.298 69.3444 160.272C69.2925 160.246 69.1627 160.22 68.9551 160.168C68.488 160.038 67.9949 160.012 67.5277 160.064C66.6454 159.96 65.7371 160.194 65.1143 160.843C64.7769 160.895 64.4655 160.998 64.3098 161.284C64.154 161.569 64.18 161.829 64.3098 162.036C61.7405 166.007 68.5139 169.095 71.161 165.981C73.1073 163.775 71.5502 161.232 69.4741 160.35Z" fill="#FEBB1D"/>
<path fill-rule="evenodd" clip-rule="evenodd" d="M131.033 145.352C130.565 144.833 129.865 144.521 129.138 144.418C127.685 143.899 125.894 144.132 125.194 145.533C124.155 146.753 124.519 148.622 125.868 149.53C127.036 150.335 128.801 150.62 130.02 149.841C130.358 149.919 130.695 149.919 130.851 149.712C131.344 149.011 131.552 148.232 131.526 147.48C131.629 147.454 131.707 147.402 131.733 147.298C131.889 146.546 131.604 145.871 131.033 145.352Z" fill="#FEBB1D"/>
<path fill-rule="evenodd" clip-rule="evenodd" d="M66.9329 28.3105C66.4917 28.2327 66.1024 28.2846 66.0246 28.5441L65.9727 28.6998C66.31 28.5441 66.6214 28.4403 66.9329 28.3105Z" fill="#FEBB1D"/>
<path fill-rule="evenodd" clip-rule="evenodd" d="M136.483 53.5074C136.483 53.4555 136.509 53.4296 136.509 53.3777C136.535 53.222 136.379 53.0922 136.172 52.9625C135.341 51.8725 133.629 51.8725 132.772 52.9105C132.227 51.7687 130.93 50.8344 129.658 51.5611C129.58 51.5611 129.528 51.5611 129.476 51.587C129.295 51.6649 129.139 51.7946 129.035 51.9244C128.931 51.9244 128.827 51.9503 128.802 52.0022C128.283 53.4036 128.205 56.3881 129.736 57.3223C129.606 57.4261 130.203 57.6857 130.385 57.6337C130.462 57.6078 130.54 57.5818 130.618 57.5559C130.644 57.5559 130.67 57.5299 130.67 57.5299C130.93 57.5559 131.163 57.5299 131.293 57.4261C131.423 57.3223 131.526 57.1926 131.63 57.0888C131.76 57.1926 131.89 57.2704 132.045 57.3223C132.045 57.3483 132.071 57.3742 132.071 57.3742C132.097 57.4261 132.149 57.504 132.227 57.5559C132.253 57.7376 132.279 57.9192 132.305 58.0749C132.331 58.2825 132.876 58.3604 133.032 58.2566C133.213 58.1528 133.447 58.023 133.654 57.8673C133.68 57.8414 133.732 57.8414 133.758 57.8154C133.81 57.7895 133.836 57.7376 133.888 57.7116C134.148 57.7376 134.407 57.7116 134.563 57.6337C135.341 57.2445 135.808 56.5438 136.016 55.7652C136.561 55.0905 136.795 54.3119 136.483 53.5074Z" fill="#BE3131"/>
<path fill-rule="evenodd" clip-rule="evenodd" d="M97.9953 128.196C97.4244 127.314 95.0368 127.34 95.1147 126.12C95.1147 125.913 94.4918 125.731 94.388 125.887C93.4538 127.21 92.2341 128.093 90.7029 128.56C90.6251 128.586 90.6251 128.638 90.7029 128.689C90.7548 129.546 90.8067 130.376 90.8586 131.233C90.8586 131.414 91.1701 131.492 91.2998 131.492C93.2462 131.752 96.3604 131.985 97.7877 130.272C98.2289 129.702 98.4105 128.845 97.9953 128.196Z" fill="#BE3131"/>
<path fill-rule="evenodd" clip-rule="evenodd" d="M79.0006 134.346C77.1062 133.568 75.5491 132.374 74.2774 130.765C74.1996 130.661 73.8363 130.583 73.6806 130.609C73.4989 130.583 73.3432 130.583 73.3172 130.661C72.9539 134.943 72.5906 139.225 72.2273 143.507C72.2013 143.715 72.902 143.922 72.9799 143.715C74.3553 140.211 76.4574 137.123 79.2082 134.58C79.312 134.476 79.0525 134.372 79.0006 134.346Z" fill="#464E98"/>
<path fill-rule="evenodd" clip-rule="evenodd" d="M91.2735 149.969C91.2994 149.891 91.3254 149.84 91.3514 149.762C91.4811 149.372 91.533 148.957 91.4552 148.516C91.4552 148.438 91.4292 148.36 91.4033 148.282C91.3773 148.205 91.2475 148.127 91.1178 148.101C90.9361 147.478 90.6507 146.881 90.443 146.31C90.1316 145.35 89.7943 144.39 89.4569 143.43C88.7043 141.198 87.9517 138.966 87.1732 136.708C86.8358 135.696 87.1472 133.931 85.9794 133.516C85.3046 133.283 84.0849 133.698 83.6697 134.191C83.488 134.113 83.2804 134.087 83.2026 134.165C78.6091 137.902 75.495 142.988 73.2631 148.412C72.0434 151.397 70.9794 154.511 70.1489 157.651C69.9154 158.533 69.7337 159.52 70.668 160.039C70.8237 160.116 70.9794 160.194 71.1351 160.22C71.161 160.246 71.187 160.246 71.187 160.246C71.3427 160.35 71.5763 160.402 71.7579 160.35C75.495 159.156 79.1022 157.625 82.5278 155.757C84.2925 154.796 86.0313 153.732 87.6922 152.59C88.341 152.149 89.4828 151.552 90.2873 150.826C90.4171 150.852 90.5469 150.852 90.5988 150.8C90.8064 150.618 90.9621 150.385 91.0918 150.151C91.1178 150.151 91.1178 150.125 91.1178 150.099C91.2216 150.073 91.2475 150.021 91.2735 149.969Z" fill="#464E98"/>
<path fill-rule="evenodd" clip-rule="evenodd" d="M96.801 136.423C96.7232 136.397 96.308 136.267 96.282 136.423C96.1003 137.409 95.8668 138.603 95.3218 139.459C94.699 140.445 94.2059 139.485 93.5052 139.2C93.4533 139.174 93.3754 139.148 93.3235 139.148C93.2976 139.096 93.2197 139.07 93.1938 139.044C93.1159 138.992 93.0121 138.966 92.9083 138.94C92.8045 138.914 92.5709 138.888 92.5969 139.044C92.5969 139.07 92.5969 139.122 92.5969 139.148C92.2336 139.304 92.0779 139.719 92.0519 140.186C91.8962 140.16 91.7664 140.212 91.7924 140.29C92.4412 142.314 93.09 144.338 93.7388 146.362C93.7907 146.518 94.4135 146.726 94.4913 146.518C95.3737 144.286 96.256 142.054 97.1124 139.823C97.6315 138.629 98.41 137.02 96.801 136.423Z" fill="#464E98"/>
<path fill-rule="evenodd" clip-rule="evenodd" d="M125.425 150.54C124.491 150.228 123.582 150.125 122.596 150.203C121.895 150.254 121.221 150.436 120.494 150.436C119.404 150.436 118.6 149.891 117.925 149.139C116.134 147.14 115.589 144.182 114.447 141.794C112.293 137.382 109.153 133.542 105.364 130.453C105.312 130.402 105.209 130.376 105.105 130.324L105.131 130.246C105.209 130.09 104.482 129.831 104.378 130.038L104.3 130.22C104.067 130.246 103.963 130.324 104.17 130.531L96.3072 148.438C95.9179 148.438 95.6584 148.568 96.1255 148.853L96.0736 148.983C95.9957 149.139 96.5926 149.346 96.7743 149.242C101.472 151.967 106.662 154.017 112.034 154.926C116.939 155.782 122.648 155.263 125.892 151.007C126.048 150.799 125.581 150.592 125.425 150.54Z" fill="#464E98"/>
<path fill-rule="evenodd" clip-rule="evenodd" d="M113.358 133.752C112.164 128.77 111.1 123.761 110.14 118.726C110.114 118.649 110.062 118.597 109.984 118.519C110.062 118.311 110.114 118.104 110.192 117.922C110.244 117.74 109.517 117.507 109.439 117.714C109.387 117.896 109.309 118.078 109.257 118.259C108.92 118.207 108.609 118.259 108.661 118.467C108.712 118.804 108.79 119.116 108.868 119.453C108.012 121.944 107.181 124.436 106.299 126.901C106.299 126.927 106.299 126.953 106.299 126.979C106.117 127.005 106.091 127.109 106.325 127.264C108.712 128.847 110.607 130.95 111.879 133.493C112.034 133.856 113.462 134.245 113.358 133.752Z" fill="#464E98"/>
<path fill-rule="evenodd" clip-rule="evenodd" d="M127.216 101.677C127.216 101.625 127.139 101.573 127.061 101.521L124.933 87.7925C125.244 87.7147 124.829 87.4033 124.725 87.3254C124.44 87.1437 123.998 87.0919 123.661 87.1438C122.078 87.4552 120.547 87.3254 119.042 86.6766C118.938 86.6247 118.808 86.5988 118.678 86.5988C118.575 86.4431 118.004 86.2873 117.926 86.469C117.199 88.3116 116.654 90.1801 116.265 92.1264C116.083 92.1524 115.979 92.2303 116.083 92.386C116.109 92.4379 116.161 92.4898 116.187 92.5417C116.161 92.6455 116.161 92.7234 116.135 92.8272C116.109 92.9569 116.343 93.0607 116.55 93.0867C117.692 94.8254 118.756 96.5901 119.742 98.4067C119.561 98.1213 119.379 97.8099 119.197 97.5244C117.666 95.1628 115.902 93.0088 113.877 91.0624C113.825 91.0105 113.774 90.9846 113.67 90.9586C113.67 90.8808 113.67 90.8289 113.644 90.751C113.592 90.3358 112.113 90.0503 112.165 90.5175C112.19 90.8548 112.216 91.1662 112.242 91.5036C110.971 86.2614 108.531 81.4085 105.054 77.2562C105.08 77.2562 105.08 77.2562 105.106 77.2303C105.625 77.0226 104.275 76.4517 103.886 76.5815C100.071 78.0867 96.1005 79.1507 92.0521 79.7476C91.8964 79.6957 91.7407 79.6697 91.6628 79.7476C89.2753 81.5901 87.5106 84.0036 86.4466 86.8323C86.2908 86.8583 86.213 86.9361 86.3168 87.0659L86.3427 87.0919C86.3427 87.1178 86.3947 87.1697 86.4206 87.1956C89.8203 91.27 93.9725 93.995 98.514 96.642C101.005 98.0953 103.263 99.7562 105.261 101.858C107.156 103.857 108.817 106.062 110.478 108.242C110.556 108.32 110.711 108.398 110.893 108.476C113.799 111.85 117.77 114.185 122.156 115.146C122.208 115.146 122.234 115.171 122.286 115.171C122.338 115.327 122.934 115.535 123.038 115.327C125.452 111.123 127.813 106.685 127.216 101.677Z" fill="#464E98"/>
<path fill-rule="evenodd" clip-rule="evenodd" d="M87.4583 79.199C87.4323 79.225 87.4323 79.225 87.4064 79.2509C87.2766 79.199 87.1728 79.1731 87.069 79.1731C85.1745 79.1212 83.3839 78.7319 81.6711 77.9274C81.5932 77.9015 81.4635 77.8755 81.3337 77.8495C81.2818 77.6938 80.7368 77.5122 80.6071 77.6419C80.3994 77.8236 80.2178 78.0312 80.0102 78.2129C79.8545 78.2388 79.7766 78.2648 79.8285 78.3426C80.9185 80.1073 81.9825 81.8721 83.0725 83.6627C83.1763 83.8184 83.6434 84.078 83.6174 84.1039C83.4877 84.2856 84.1884 84.5451 84.3181 84.3634C85.486 82.8582 86.6797 81.353 87.8475 79.8478C88.133 79.8219 88.133 79.7181 88.0292 79.6143L88.159 79.4585C88.2887 79.2769 87.588 79.0174 87.4583 79.199Z" fill="#464E98"/>
<path fill-rule="evenodd" clip-rule="evenodd" d="M81.3076 86.0264C80.0879 84.5991 78.5568 80.862 78.2972 80.7842C78.3491 80.7063 77.8042 80.1094 77.7004 80.317C77.6225 80.4468 77.5446 80.5766 77.4668 80.7063C77.363 80.7323 77.3111 80.8101 77.337 80.888C77.337 80.9139 76.9218 80.888 76.9218 80.888C74.8976 84.4434 73.1848 87.9468 70.953 91.3724C70.8751 91.3724 70.7972 91.3724 70.7713 91.4243C69.9149 92.2548 69.2142 93.215 68.7211 94.305C68.6952 94.3309 68.7211 94.3828 68.773 94.4088C68.7471 94.4866 68.8249 94.5645 69.0585 94.6942C71.9391 96.3811 74.8197 98.0939 77.7004 99.7808C77.8301 99.8586 78.972 101.753 78.8941 99.8327C78.6606 93.6562 80.2436 91.5281 82.0862 88.8551C83.0204 87.5316 82.2938 87.2202 81.3076 86.0264Z" fill="#464E98"/>
<path fill-rule="evenodd" clip-rule="evenodd" d="M77.2606 102.326C77.7277 102.819 76.1447 101.703 76.1447 101.755L73.809 100.172C73.7052 100.094 73.4716 100.042 73.2381 100.016C72.2519 99.419 71.2917 98.8221 70.3056 98.2252C69.0599 97.4727 69.1118 97.3948 68.6187 97.0834C68.4111 96.9796 66.0235 97.5246 65.9716 97.6543L65.8938 97.9138C65.8678 97.9657 65.9197 97.9917 65.9457 98.0436C65.8419 100.587 66.854 102.948 68.8263 104.609C70.0201 105.595 71.3955 106.322 72.6152 107.308C74.0166 108.45 75.1585 109.852 76.1187 111.383C76.1966 111.486 76.8194 111.772 76.8713 111.538C77.4682 108.917 77.1568 102.196 77.2606 102.326Z" fill="#464E98"/>
<path fill-rule="evenodd" clip-rule="evenodd" d="M84.0596 123.137C84.0077 122.747 83.4627 122.228 83.2811 121.917C82.8918 121.346 82.5025 120.775 82.1392 120.204C81.3606 119.062 80.608 117.92 79.8295 116.753C79.7516 116.623 79.4662 116.519 79.1548 116.441C79.1548 116.389 79.1548 116.337 79.1288 116.285C79.1029 116.078 78.3503 115.922 78.3762 116.156C78.3762 116.26 78.4022 116.389 78.4022 116.493C78.3762 116.545 78.3762 116.597 78.4281 116.649C78.6357 119.218 78.506 121.735 77.9869 124.253C77.935 124.46 78.6876 124.642 78.7395 124.46C78.7395 124.434 78.7395 124.434 78.7395 124.408C79.025 124.538 79.3624 124.642 79.544 124.616C80.7378 124.408 82.0094 124.279 83.1773 123.967C83.7222 123.863 84.1375 123.76 84.0596 123.137Z" fill="#464E98"/>
<path fill-rule="evenodd" clip-rule="evenodd" d="M89.17 111.927C89.17 111.901 89.1441 111.875 89.1181 111.823C87.7167 109.851 86.0039 108.112 84.0316 106.711C83.2271 106.14 80.9174 104.272 79.9572 105.413C79.8794 105.413 79.8534 105.439 79.8534 105.491C79.8534 105.517 79.8534 105.543 79.8534 105.595C79.8534 105.595 79.8534 105.621 79.8275 105.621C79.8015 105.647 79.8015 105.699 79.8275 105.751C79.7236 108.164 79.5939 110.578 79.4901 113.017C79.3603 113.069 79.3603 113.173 79.542 113.329C82.1631 115.56 84.2392 118.285 85.7704 121.374C85.6666 121.4 85.6147 121.451 85.6406 121.581C85.6406 121.633 85.6666 121.685 85.6666 121.763C85.6925 121.867 85.8742 121.97 85.978 122.022C86.1337 122.1 86.2894 122.152 86.4711 122.178C86.4711 122.412 86.4451 122.645 86.4451 122.853C86.4451 123.086 87.1977 123.216 87.1977 123.06C87.1977 122.619 87.2237 122.178 87.2496 121.711C87.2756 121.685 87.3015 121.659 87.2756 121.607C87.2756 121.581 87.2496 121.581 87.2496 121.581C87.4313 118.311 88.0801 115.145 89.196 112.057C89.196 111.979 89.196 111.953 89.17 111.927Z" fill="#464E98"/>
<path fill-rule="evenodd" clip-rule="evenodd" d="M94.7506 118.103C93.8682 117.039 92.9859 115.975 92.1035 114.911C92.0516 114.86 91.9219 114.808 91.7662 114.782C91.8181 114.626 91.844 114.47 91.8959 114.34C91.9478 114.133 91.1952 113.925 91.1433 114.133C90.2869 116.91 89.9495 119.764 90.0534 122.671C90.0534 122.904 90.8059 123.034 90.8059 122.878C90.8059 122.775 90.8059 122.645 90.8059 122.541C90.9098 122.541 90.9876 122.515 91.0395 122.463C91.9997 120.802 93.2454 119.427 94.7506 118.233C94.8025 118.181 94.7765 118.129 94.7506 118.103Z" fill="#464E98"/>
<path fill-rule="evenodd" clip-rule="evenodd" d="M68.3851 120.282C66.7761 118.855 65.1671 117.428 63.5581 116C63.091 115.585 61.5079 114.651 61.6377 113.976C61.6636 113.794 62.4162 113.353 62.5979 113.171C62.9612 112.834 63.2986 112.497 63.61 112.133C65.8937 109.486 66.8539 106.087 66.5166 102.635C66.5944 102.609 66.6723 102.557 66.6204 102.454C66.5685 102.376 66.5425 102.272 66.4906 102.194C66.4387 102.064 66.309 101.986 66.1792 101.935C65.9975 101.857 65.7899 101.779 65.6083 101.753H65.5823C62.2865 98.7425 63.1429 92.7736 63.1429 92.7736C63.1429 92.7736 61.3003 89.9709 59.6134 87.8688C59.5096 87.739 58.8349 86.3895 58.9128 86.2338C58.9906 86.0522 58.4197 86.7269 58.3418 86.9345C56.8626 90.5937 57.2778 94.5124 57.0702 98.3791C56.655 98.1196 55.7467 98.0158 55.7986 98.3791C55.7986 98.457 55.8245 98.5608 55.8505 98.6386C52.8141 104.633 51.1013 111.199 50.7899 117.921C50.6342 118.102 50.5564 118.31 50.5044 118.492C50.4525 118.518 50.4266 118.518 50.4266 118.569C50.3228 119.244 50.4785 120.36 51.3608 120.386C51.3868 120.386 51.3868 120.386 51.4128 120.386C52.8401 121.71 54.3972 122.903 55.9024 124.149C58.3937 126.199 60.9629 127.756 64.155 128.353C64.2847 128.535 64.8816 128.639 64.8816 128.483C64.9595 125.395 66.309 122.566 68.6965 120.568C68.7743 120.49 68.5927 120.36 68.3851 120.282Z" fill="#464E98"/>
<path fill-rule="evenodd" clip-rule="evenodd" d="M65.7387 79.4333C65.8425 79.3814 65.7906 79.3295 65.7128 79.2775C65.6349 79.0699 64.9602 78.9661 64.9602 79.1218C64.9602 79.1478 64.9602 79.1737 64.9602 79.1997C64.8564 79.2516 64.7266 79.3035 64.6228 79.3814C62.5986 79.9004 60.9377 81.2758 60.1072 83.1703C59.9256 83.1443 59.7699 83.1703 59.7958 83.2741C59.8218 83.4038 59.8737 83.5076 59.9256 83.6374C59.8996 83.7412 59.8477 83.8191 59.8218 83.9229C59.7958 84.0267 59.9256 84.1045 60.1072 84.1564C60.8858 86.1806 62.0796 87.9713 63.6366 89.5024C63.7405 89.6062 64.2595 89.8398 64.3633 89.6062L65.7906 86.7516C66.2059 85.9471 66.7768 85.0907 66.8546 84.1564C67.0363 82.4955 65.8685 81.0423 65.7387 79.4333Z" fill="#464E98"/>
<path d="M114.42 139.824C114.031 133.596 106.505 127.653 106.453 127.549C106.453 127.523 106.453 127.497 106.427 127.471L106.401 127.445C106.271 127.186 106.531 126.096 106.661 125.706C107.569 122.93 108.815 119.322 109.463 116.649C109.489 116.545 108.503 112.367 108.425 112.679C107.984 114.755 107.232 116.753 106.427 118.699C106.064 119.582 104.766 122.41 104.533 122.8C104.455 122.93 103.754 123.526 103.702 123.423C103.598 123.267 92.9582 111.225 92.9582 111.225C92.9582 111.225 94.2557 109.253 95.0083 108.215C95.7609 107.203 96.4876 106.191 97.1104 105.075C98.3561 102.895 99.2125 100.533 99.7575 98.0939C99.7834 98.016 99.6277 97.9641 99.6018 97.9641C99.2903 97.8343 98.9789 97.7046 98.6675 97.6008C98.4599 97.5229 98.0187 96.7444 97.863 96.952C95.5533 100.507 93.1398 104.815 90.8301 108.397C82.6294 102.661 81.9028 101 81.9028 101C81.9028 101 81.5914 97.5229 82.4478 95.3949C82.4737 95.317 82.4478 95.2651 82.3699 95.2392C82.7073 93.6821 83.2263 92.2288 83.927 90.8534C84.2903 90.3603 84.2644 89.8672 84.7575 89.971C84.8613 89.997 85.0948 90.1267 85.1986 90.1786C88.3907 93.2669 93.2955 97.1077 96.773 96.7444C96.8768 96.7444 97.318 96.433 97.318 96.433C97.344 96.433 97.344 96.433 97.3699 96.433C98.0187 96.3291 96.773 95.8101 96.773 95.8101C93.6848 93.9157 90.8042 91.9953 88.1831 89.5039C87.5862 88.933 86.6 88.1544 86.3924 87.324C86.107 86.2859 86.8595 85.7409 87.3526 84.8586C88.2869 83.2236 89.5585 81.5627 90.908 80.2392C90.9858 80.1613 91.2973 79.798 91.2713 79.7721L90.9339 79.5645C90.882 79.4866 90.3111 79.4606 90.1813 79.4606C90.0775 79.4606 89.3768 79.3569 89.1952 79.3569C89.1173 79.3569 88.5983 79.4347 88.4685 79.4866C88.4166 79.5126 88.2609 79.9537 88.209 80.0316C88.1312 80.1354 85.5101 83.8465 85.3544 84.0541C84.9132 84.5731 84.2903 85.0662 84.2903 85.0662C84.2903 85.0662 81.3319 82.4191 80.2938 79.3309C80.2679 79.253 80.1121 79.0195 80.2159 78.9157C80.5014 78.6821 79.5153 78.5523 79.3076 78.734C78.1139 79.7202 77.4391 78.9157 77.9582 80.2392C79.3595 83.8724 82.3959 87.4797 82.3959 87.4797C82.3959 87.4797 79.9824 92.6959 79.1779 94.9797C78.581 96.7184 78.5031 99.7807 78.9443 101.571C79.3855 103.414 80.3457 103.881 81.7211 105.179C83.2782 106.684 89.0395 111.874 89.0395 111.874C89.0395 111.874 86.9374 120.127 86.9114 123.293C86.9114 123.474 89.818 123.63 89.818 123.449C89.7142 120.231 90.2332 116.909 91.427 113.924C92.0758 114.573 94.2817 117.635 94.2817 117.635C94.3855 117.817 94.9564 117.817 95.19 117.687C97.6554 120.153 100.121 122.644 102.612 125.109C102.716 125.213 102.975 125.499 103.027 125.525C103.443 125.94 103.858 126.355 104.273 126.77C104.273 126.77 104.299 126.796 104.325 126.796C104.247 126.978 103.962 127.082 103.884 127.263C102.456 127.964 100.821 129.807 100.121 131.234C99.1087 133.31 98.8751 135.127 97.9928 137.255C97.0585 139.513 96.5135 141.641 95.6052 143.898C94.9824 145.404 93.7367 147.532 95.3717 148.803C95.5274 148.933 96.2281 148.985 96.3319 148.751C98.7973 142.341 101.211 136.009 104.351 129.885C104.559 130.04 105.207 130.274 105.415 130.429C105.519 130.507 105.597 130.585 105.7 130.663C106.79 131.701 107.854 132.713 108.944 133.751C108.97 133.751 108.97 133.777 108.996 133.777C109.152 133.959 109.308 134.141 109.463 134.322C110.891 136.061 112.162 137.93 113.356 139.824C113.538 140.058 114.446 140.058 114.42 139.824Z" fill="#FEBB1D"/>
<path d="M82.2941 134.114C82.1903 134.192 82.1125 134.295 82.0087 134.373C81.6453 134.321 81.282 134.321 80.9447 134.373C80.6851 134.347 80.3997 134.321 80.1402 134.321C79.9845 134.321 79.5433 134.295 79.4914 134.529C79.4654 134.633 78.0381 135.411 78.0121 135.515C77.9343 135.956 76.8443 137.28 75.8841 138.603C73.5485 141.77 71.8616 145.688 71.9914 149.685C71.9914 149.996 72.9516 149.944 73.0294 149.685C74.9239 143.949 78.2717 138.811 82.7353 134.763C82.8132 134.737 82.8391 134.711 82.8391 134.659C82.9689 134.555 83.0986 134.425 83.2284 134.321C83.4879 134.036 82.5018 133.932 82.2941 134.114Z" fill="#FEBB1D"/>
<path d="M73.2609 130.976C73.2609 130.846 73.0274 130.769 72.7679 130.769C72.69 130.613 71.8336 130.535 71.7298 130.82C70.1208 136.166 69.5239 141.72 69.9651 147.274C69.991 147.507 70.5101 147.455 70.6139 147.455C71.4443 147.403 71.8596 146.988 72.0412 146.132C72.3526 144.549 72.3267 142.81 72.4564 141.175C72.716 137.801 73.0014 134.376 73.2609 130.976Z" fill="#FEBB1D"/>
<path d="M66.385 85.6113L65.1913 88.3622C65.0356 88.7255 64.8539 89.4262 64.5944 89.7376C64.2311 90.1788 64.3349 90.1529 63.8937 89.8414C63.2189 89.3743 62.5961 88.1286 62.0771 87.4539C61.4802 86.6494 61.1428 85.9487 60.5459 85.1702C60.52 85.1183 60.3124 84.5214 60.1826 84.2878C60.0269 84.0283 59.3262 84.0802 59.2224 84.3397C58.1065 87.0906 61.4802 90.3864 62.9075 92.2809C63.2708 92.774 63.0892 94.0196 63.4006 95.5248C63.4266 95.8881 63.4525 96.6667 63.4525 96.7446C63.5563 97.6269 63.6861 98.5352 63.7899 99.4176C63.8158 99.5473 65.1134 101.208 65.2172 101.701C65.2691 101.987 65.8141 101.494 65.892 101.234C66.1515 100.326 65.9439 100.17 65.6584 99.3138C65.8401 99.2878 65.6843 98.3536 65.6843 98.2757C65.6324 97.9902 65.6065 97.7307 65.5546 97.4452C65.5286 97.2895 65.0615 96.8224 64.776 96.8484C64.3349 95.6546 64.1532 94.8501 64.9058 93.6304C65.1394 93.2411 65.321 93.2411 65.5546 92.9037C65.7362 92.9037 66.0736 93.0335 66.1774 92.9297C66.2812 92.8259 66.385 91.9435 66.3591 91.9176C66.2812 91.8657 67.1376 89.8674 67.3712 89.1667C67.8124 87.7913 67.5529 87.1425 67.3452 85.7151C67.3712 85.3778 66.4888 85.3778 66.385 85.6113Z" fill="#FEBB1D"/>
<path d="M80.0628 113.926C79.44 112.939 79.0767 111.927 79.2064 110.682C79.3621 109.228 80.0109 107.853 80.0369 106.374C80.0888 104.687 79.44 103.208 78.4279 101.936C78.2722 101.702 78.0646 101.469 77.831 101.261C77.7272 101.132 77.5974 101.028 77.4936 100.924C77.7272 100.898 77.8829 100.82 77.805 100.742C77.5974 100.561 77.3898 100.353 77.1822 100.171C77.1043 100.093 77.0005 99.8858 76.7929 99.8858C76.4815 99.6782 76.1701 99.5485 75.8587 99.3409C75.0282 98.718 74.0161 98.0692 73.1338 97.5761C72.0697 96.9014 71.0057 96.4862 69.9677 95.7855L69.9417 95.7595C69.9158 95.7336 69.8898 95.7336 69.8639 95.7076C69.7601 95.6557 69.3189 95.2924 69.0853 95.3703C68.8518 95.3962 68.6701 95.8634 68.6701 95.9931C68.6182 97.1869 69.5265 97.8097 70.4607 98.3287C71.7324 99.0294 73.03 99.7301 74.3016 100.431C75.5473 101.106 77.3379 102.507 77.3379 102.507C77.3379 102.507 77.4417 106.4 77.312 107.801C76.8708 112.68 76.6372 112.81 78.2981 115.327C81.3864 118.363 82.5023 121.036 84.2929 123.657C84.4746 123.891 85.0974 123.813 85.331 123.683L85.9798 123.398C86.2652 123.502 86.6545 123.138 86.5507 122.879C85.2531 119.298 83.0213 116.235 80.0628 113.926Z" fill="#FEBB1D"/>
<path d="M92.8799 144.286C92.5425 143.481 92.4387 142.391 91.9716 141.665C92.0235 141.405 92.0754 141.172 92.1273 140.912C92.1532 140.756 90.8557 140.134 90.6999 139.796C90.7519 139.77 90.7778 139.718 90.7778 139.667C90.7 138.135 89.9993 136.89 88.7536 135.981C88.7276 135.955 88.6757 135.955 88.6238 135.929C88.6238 135.904 88.5979 135.878 88.5979 135.878C88.4681 135.644 87.482 135.696 87.5858 135.981C87.7934 136.5 89.8176 143.481 89.8176 143.481C89.8695 143.663 91.5045 148.153 91.9716 148.594C92.5425 149.165 93.7363 149.269 94.2294 148.542C94.6446 147.945 94.3072 147.504 94.0737 146.907C93.9179 146.518 93.2173 145.116 92.8799 144.286Z" fill="#FEBB1D"/>
<path fill-rule="evenodd" clip-rule="evenodd" d="M112.813 25.6905C110.685 23.5625 108.739 21.5123 104.976 20.033C101.213 18.5538 94.3877 20.6818 90.8324 23.6403C90.7286 23.7441 84.8635 27.8964 82.5019 38.6922C81.1005 45.0503 85.2009 55.4569 85.4863 56.7285C85.7459 58.0002 86.4985 62.36 86.213 65.3185C86.0832 66.5901 85.3566 69.4188 85.3566 69.4188L88.7043 70.8202C88.7043 70.8202 88.5227 64.2545 94.5434 66.6939C94.5953 66.7199 94.1542 65.9932 94.0504 65.8375C91.1178 61.1662 87.822 55.6126 89.7164 49.9292C90.6248 47.1784 92.7787 45.3618 95.3739 44.1939C98.4621 42.7666 102.562 41.8843 105.054 44.8427C105.106 44.8946 105.235 44.9725 105.365 44.9984C105.443 45.232 106.403 45.4915 106.351 45.1541C105.962 41.495 104.431 38.0953 101.914 35.3964C101.888 35.3704 101.836 35.3445 101.81 35.3185C101.888 34.4621 102.017 33.5798 102.407 32.8012C103.263 30.9846 104.82 30.5694 106.715 30.8029C110.011 31.2182 113.073 32.7234 115.538 34.9292C115.72 35.0849 116.706 36.1749 116.966 36.2787C117.199 36.3047 118.004 35.9932 118.004 35.9932C118.263 36.0192 118.808 35.9673 118.808 35.9673C118.808 35.9673 115.59 28.4673 112.813 25.6905Z" fill="#464E98"/>
<path fill-rule="evenodd" clip-rule="evenodd" d="M103.367 62.9288C102.484 62.2022 100.979 62.0205 99.9153 61.7091C99.8374 61.6832 99.7077 61.6832 99.552 61.6832C99.3443 61.4236 99.1367 61.1641 98.9291 60.9046C98.6956 60.5932 97.2163 60.4115 97.5537 60.8527C98.3582 61.8908 99.2665 62.825 100.305 63.6036C101.031 64.1486 102.017 64.7455 102.978 64.5119C103.912 64.3303 104.042 63.4998 103.367 62.9288Z" fill="#BE3131"/>
<path fill-rule="evenodd" clip-rule="evenodd" d="M69.994 144.704C70.2276 140.812 70.4352 136.893 70.6687 133C70.6947 132.533 69.1895 132.248 69.1636 132.585C69.1376 132.87 69.1376 133.156 69.1117 133.415C69.0598 133.415 69.0078 133.441 68.9559 133.467C65.4784 136.166 62.0009 138.865 58.5234 141.538C55.2795 144.056 51.5424 147.248 47.1047 146.547C46.8971 146.521 46.3002 146.495 46.5338 146.858C48.039 149.09 51.1532 149.427 53.5926 149.687C57.0442 150.05 60.5476 149.947 63.9473 149.324C65.4784 149.038 67.1393 148.753 68.5667 148.156C70.1238 147.559 69.9162 146.132 69.994 144.704Z" fill="#464E98"/>
<path fill-rule="evenodd" clip-rule="evenodd" d="M137.182 57.7893C136.299 57.7634 136.04 59.7616 135.495 60.4364C135.391 60.5921 135.495 60.7478 135.728 60.8775C135.625 61.0592 135.547 61.2668 135.443 61.4485C135.313 61.7339 135.106 62.0713 135.002 62.4087C134.924 62.4865 134.846 62.5903 134.742 62.6682C134.613 62.7979 134.742 62.9537 135.002 63.0834C135.183 63.5505 135.703 63.7841 136.196 63.9139C137.571 64.2253 137.934 63.3948 137.986 62.3568C138.116 62.3308 138.22 62.2789 138.246 62.1751C138.427 61.1111 138.713 59.554 138.921 58.49C139.024 57.9969 137.441 57.7893 137.182 57.7893Z" fill="#464E98"/>
<path fill-rule="evenodd" clip-rule="evenodd" d="M94.4934 96.5374C91.6128 96.0443 89.0955 93.7606 85.9294 90.854C85.8775 90.8021 85.7737 90.7502 85.6699 90.7243C85.7218 90.6205 84.8135 89.764 84.554 90.1793C83.2564 92.2294 82.7893 93.5789 82.3481 95.4734C81.9848 97.0045 81.31 99.2364 81.881 100.793C82.3481 102.091 83.8014 102.947 84.8394 103.752C86.5003 105.05 88.1872 106.347 89.8481 107.619C90.1076 107.8 90.964 108.138 91.1976 107.749C93.1958 104.297 95.3498 100.326 97.6336 97.0305C97.8412 96.745 95.1163 96.6412 94.4934 96.5374Z" fill="#464E98"/>
<path fill-rule="evenodd" clip-rule="evenodd" d="M120.392 39.26C120.521 39.0005 120.573 38.7151 120.573 38.4296C120.599 38.196 120.547 37.9625 120.418 37.7029C120.288 37.3915 120.054 37.132 119.743 36.9244C119.691 36.8725 119.613 36.8465 119.535 36.8206C119.561 36.7946 119.535 36.7687 119.509 36.7427C118.835 36.1199 117.563 35.9642 117.07 36.8206C117.044 36.8725 116.732 36.9244 116.758 36.9503C116.629 37.0542 116.525 37.3396 116.421 37.4694C114.968 39.6753 117.667 40.869 118.627 40.7393C118.679 40.7393 118.757 40.895 118.809 40.869C119.146 40.8171 119.431 40.5576 119.639 40.3241C119.847 40.1683 120.028 39.9607 120.158 39.7272C120.236 39.6234 120.288 39.5196 120.34 39.4157C120.34 39.3898 120.366 39.3379 120.392 39.26Z" fill="#FEBB1D"/>
<path fill-rule="evenodd" clip-rule="evenodd" d="M99.4238 132.039C99.294 132.039 99.1642 132.039 99.0345 132.065C98.9566 132.091 98.8269 132.117 98.8009 132.195C98.749 132.325 98.6712 132.454 98.6193 132.584C98.5674 132.61 98.5414 132.636 98.5155 132.662C98.3597 132.973 98.1781 133.285 98.0224 133.596C97.9964 133.674 98.0483 133.726 98.1262 133.778C98.1521 133.804 98.1781 133.83 98.204 133.83C98.1781 133.882 98.1521 133.934 98.1262 133.985C98.0483 134.167 98.3857 134.219 98.4895 134.219C98.6193 134.219 98.749 134.219 98.8788 134.193C98.9566 134.167 99.0864 134.141 99.1123 134.063C99.1902 133.882 99.2421 133.726 99.32 133.544C99.3459 133.466 99.294 133.414 99.2162 133.363C99.294 133.155 99.3719 132.973 99.4497 132.766C99.5016 132.74 99.5276 132.714 99.5276 132.688C99.6054 132.532 99.6573 132.402 99.7352 132.247C99.8649 132.091 99.5276 132.039 99.4238 132.039Z" fill="#464E98"/>
<path d="M99.3694 136.085C99.3435 135.462 98.6687 134.969 98.1238 134.683C98.1757 134.683 98.2276 134.657 98.2535 134.631C98.4092 134.502 98.3054 134.424 98.1497 134.32C98.0199 134.242 97.8383 133.827 97.7085 133.749C97.5528 133.671 97.1635 133.853 97.0078 134.009L96.6445 134.346C96.5667 134.424 96.6445 134.502 96.6964 134.554C96.4888 134.605 96.359 134.761 96.4369 135.073C96.4888 135.28 96.6445 135.488 96.8262 135.644C96.9559 135.851 97.1376 136.007 97.3452 136.111C97.6307 136.396 97.9161 136.682 98.2276 136.941C98.3314 137.045 99.058 137.33 99.1618 137.123C99.3175 137.123 99.4213 137.097 99.3954 136.967C99.2397 136.734 99.4992 136.318 99.3694 136.085Z" fill="#EFEDED"/>
<path d="M70.7208 126.405C71.1879 126.249 72.0962 126.379 72.4595 126.12C73.1083 125.704 72.4595 124.718 72.3038 124.225C71.9664 123.057 72.4336 122.097 72.9007 121.059C73.0045 120.774 73.1343 120.488 73.2381 120.203C73.1862 120.177 73.2381 120.021 73.3159 119.995C73.4197 119.736 73.5235 119.502 73.6273 119.243C73.6273 119.217 73.7571 118.464 73.7571 118.438C73.3678 118.23 72.719 118.827 72.3298 118.931C66.7761 120.462 63.7917 126.327 65.9197 131.699C65.9976 131.907 65.245 132.893 65.764 132.997C66.0754 132.685 67.7104 131.673 68.0218 131.362C68.1256 130.635 68.2813 129.909 68.463 129.208C68.5668 129.26 68.6706 129.312 68.7744 129.338C68.6965 128.066 69.1118 126.924 70.7208 126.405Z" fill="#FEBB1D"/>
<path d="M93.9205 124.668C94.1021 124.642 94.2838 124.616 94.4654 124.59C94.9845 124.538 94.0762 124.097 93.8166 124.123C92.3374 124.253 90.9879 124.746 89.7942 125.576C89.1973 125.628 88.6004 125.551 88.0035 125.369C87.8737 125.317 87.5623 125.213 87.2769 125.187C87.8478 124.954 88.4187 124.72 88.9897 124.487C89.6384 124.227 88.2111 123.656 87.5623 123.63C87.4066 123.604 87.2509 123.578 87.1211 123.604C86.7838 123.682 86.4205 123.76 86.0831 123.838C85.4862 123.864 84.9153 123.967 84.3703 124.201C83.8253 124.357 83.3063 124.512 82.7613 124.668C82.398 124.772 82.0606 124.85 81.6973 124.954C81.1523 125.031 80.6073 125.109 80.0883 125.187C79.8547 125.161 79.6211 125.135 79.3876 125.109C79.2838 125.057 79.18 125.032 79.1021 125.032L77.0519 124.746C77.2336 124.59 77.1558 124.357 76.5329 124.175C75.8063 123.942 75.1056 123.708 74.3789 123.474C74.2751 123.397 74.1454 123.293 73.9378 123.215C73.7301 123.137 73.5485 123.033 73.3409 122.955C73.1852 122.903 72.9516 122.852 72.744 122.852C72.6142 123.371 72.5883 123.916 72.7959 124.538C73.0035 125.161 73.2371 125.706 73.2371 126.381C73.2371 126.407 73.1852 126.459 73.1592 126.459C71.7838 126.563 69.9931 126.64 69.3703 128.094C69.1886 128.535 69.1367 129.002 69.1367 129.469C69.4222 129.521 69.7077 129.573 69.7855 129.547H69.9672C70.4343 129.651 70.9014 129.755 71.3945 129.884C71.8097 130.092 72.2769 130.196 72.718 130.196C73.3409 130.352 73.9897 130.481 74.6125 130.637C74.6384 130.637 74.6644 130.637 74.6644 130.663C74.8201 130.923 75.0277 131.13 75.2872 131.312C75.391 131.364 75.7544 131.493 76.1177 131.545C76.1436 131.623 76.1696 131.675 76.1955 131.753C76.1696 131.779 76.1436 131.831 76.1436 131.857C76.0658 132.012 76.2734 132.194 76.5848 132.324C76.8443 132.635 77.1557 132.895 77.4672 133.128C78.5312 133.829 79.8288 134.037 81.0744 134.037C82.2163 134.037 84.0329 134.089 84.8893 133.18C85.8495 132.142 84.8634 131.623 84.3184 130.845C83.1765 129.236 87.173 128.613 88.1073 128.457C90.5468 128.068 93.3236 127.653 94.5692 125.213C94.725 124.98 94.3616 124.772 93.9205 124.668Z" fill="#EFEDED"/>
<path d="M91.56 138.55C91.3524 138.498 91.1188 138.472 90.9372 138.524C90.7815 138.55 90.6517 138.628 90.5479 138.758C90.47 138.862 90.47 138.992 90.496 139.095C90.496 139.147 90.5219 139.173 90.5479 139.225C90.5738 139.303 90.6257 139.355 90.7036 139.381C90.7815 139.562 91.015 139.666 91.1967 139.718C91.4043 139.77 91.6638 139.822 91.8974 139.718C92.1569 139.64 92.3386 139.381 92.2866 139.095C92.2347 138.81 91.8714 138.628 91.56 138.55Z" fill="#EFEDED"/>
<path d="M95.7914 136.188C95.8174 136.162 95.8693 136.136 95.8952 136.11C96.0769 135.981 95.2205 135.591 94.961 135.747C94.1565 136.266 92.7551 138.161 93.9748 138.965C94.3641 139.225 95.0129 139.328 95.3762 138.965C95.6357 138.706 95.6357 138.316 95.6876 137.953C95.7655 137.434 95.8174 136.889 95.8952 136.37C95.9212 136.292 95.8693 136.24 95.7914 136.188Z" fill="#EFEDED"/>
<path fill-rule="evenodd" clip-rule="evenodd" d="M107.001 104.632C107.157 104.606 107.209 104.528 107.105 104.424C107.001 104.321 106.898 104.191 106.768 104.087C106.56 103.594 106.301 103.127 106.015 102.66C105.885 102.452 105.185 102.4 105.263 102.53C105.289 102.582 105.314 102.634 105.366 102.712C103.939 101.336 102.434 100.064 100.825 98.8966C100.747 98.8447 100.565 98.7928 100.358 98.7409C100.41 98.5593 100.462 98.3776 100.513 98.196C100.565 97.9883 99.8127 97.7807 99.7608 97.9883C99.683 98.2479 99.6311 98.4814 99.5532 98.7409C99.5013 98.7669 99.4754 98.8188 99.5273 98.8707C98.2297 103.256 96.1276 107.331 93.247 110.938C93.1951 111.016 93.2729 111.094 93.3767 111.146C95.8162 114.416 98.3854 117.556 101.11 120.592C101.448 121.007 101.785 121.423 102.122 121.812C102.096 121.838 102.096 121.864 102.148 121.89C102.226 121.968 102.304 122.019 102.356 122.097C102.434 122.201 102.512 122.279 102.59 122.383C102.641 122.435 102.719 122.487 102.849 122.538C102.875 122.564 102.927 122.59 102.953 122.616C102.953 122.616 102.979 122.642 103.005 122.642C103.083 122.746 103.135 122.824 103.212 122.928C103.238 122.954 103.29 122.98 103.342 123.006C103.316 123.057 103.29 123.083 103.264 123.135C103.186 123.291 103.913 123.551 104.017 123.343C106.872 117.66 109.441 110.808 107.001 104.632Z" fill="#464E98"/>
<path fill-rule="evenodd" clip-rule="evenodd" d="M106.69 55.1443C106.3 54.1582 105.418 52.9904 105.262 51.9004C105.133 50.9402 105.963 49.5648 106.145 48.6305C106.456 46.9956 106.119 46.1391 104.795 44.8935C102.46 42.6876 98.8265 43.2585 96.2573 43.9592C92.4424 44.9713 90.1327 47.7481 90.0289 48.0596C89.9251 48.0855 89.4579 49.7724 89.4579 49.7724C89.1725 50.6028 89.1206 54.3139 89.1465 54.3918C89.2503 55.5596 89.5358 56.3122 89.951 57.5319C89.977 57.6098 90.2365 58.544 90.3403 58.57C91.9233 62.4108 93.7659 67.679 98.4372 68.6392C98.4372 68.717 100.41 69.4696 101.707 68.717C102.979 67.4195 101.681 66.2776 101.837 64.9541C101.837 64.9541 97.5808 62.281 96.8022 59.8156C98.6188 60.8018 100.176 61.788 102.2 62.3329C102.278 62.3589 103.238 62.4886 103.108 62.0215C102.797 60.6461 105.133 60.5163 105.133 58.9073C105.574 59.0111 106.871 59.0371 107.287 58.8295C108.74 58.1028 107.131 56.2862 106.69 55.1443Z" fill="#EFEDED"/>
<path fill-rule="evenodd" clip-rule="evenodd" d="M66.9306 89.8169C66.6971 90.5695 66.4894 91.3221 66.2559 92.0488C66.204 92.2564 67.1901 92.3602 67.2939 92.0488C67.5275 91.2962 67.7351 90.5436 67.9687 89.8169C68.0206 89.6352 67.0344 89.5055 66.9306 89.8169Z" fill="#464E98"/>
<path fill-rule="evenodd" clip-rule="evenodd" d="M124.726 149.4C122.078 149.685 119.25 149.296 117.485 147.713C115.746 146.13 115.539 141.822 114.786 139.201C113.982 136.346 113.982 133.076 113.229 129.936C112.035 125.057 110.634 120.049 109.803 115.222C109.466 113.223 108.532 106.917 108.532 106.917C108.532 106.917 113.514 114.858 123.428 115.715C124.44 115.326 124.44 113.535 124.959 112.601C125.816 111.095 126.802 109.564 127.373 107.618C128.592 103.466 126.957 95.8878 126.179 92.6698C125.893 91.4241 125.348 88.3099 125.426 87.2459C127.632 86.7269 127.71 83.0418 129.708 82.6525C129.89 82.9639 130.461 83.6386 130.928 83.8203C131.447 84.002 132.226 83.7684 132.381 82.912C132.537 82.1335 131.603 79.6681 124.674 80.8878L124.803 77.2546C125.089 76.5279 125.997 75.9829 126.464 75.412C127.84 73.6992 131.421 70.6888 131.94 68.6386C132.511 69.2355 133.471 69.9622 133.471 69.9622C133.471 69.9622 143.722 61.3722 145.902 59.4777C144.916 57.5833 139.985 52.2891 139.985 52.2891L140.893 48.8376C140.893 48.8376 129.293 44.2701 128.852 44.4258C128.411 44.5815 127.295 47.8514 126.776 49.2528C125.167 53.6905 123.039 60.0487 123.039 60.0487C123.039 60.0487 121.43 60.9051 120.625 61.2165C120.963 61.9431 122.364 62.4881 123.739 62.7476C123.168 63.3705 121.741 63.9155 120.989 64.2269C122.001 65.5504 123.61 65.4726 124.44 65.4726C121.923 68.0677 120.651 69.3134 119.587 72.1162C118.99 73.6732 119.25 78.2407 118.523 79.3826C116.681 78.63 113.359 78.1888 112.035 79.3047C111.698 79.5902 110.945 80.8878 112.269 81.3809C112.918 81.3549 113.307 81.2511 113.566 80.784C115.149 81.1733 115.149 85.1957 117.018 85.9743C116.732 88.0504 115.591 89.4777 115.383 91.6317C114.527 91.2943 111.828 88.1023 111.724 87.5314C111.62 86.9605 109.284 79.72 105.106 76.2684C105.21 76.1646 105.418 76.1386 105.418 76.0348C106.118 77.0988 107.26 77.4362 108.662 77.2546C109.544 77.1508 110.296 76.1906 110.4 75.5937C110.816 73.258 109.388 72.7909 108.454 72.5054C106.949 72.4016 106.326 72.6352 105.729 73.5175C100.772 71.3895 99.6304 70.7667 97.7619 70.3774C94.1546 69.5988 91.3519 69.8065 89.1979 70.3774C89.0422 68.8463 89.7688 67.912 90.2619 67.0815C90.755 66.277 92.7532 66.3289 96.7238 68.431C97.4505 68.8203 98.5923 69.4431 100.02 69.3393C100.798 69.2874 101.758 69.1058 102.277 68.4829C102.952 67.6784 102.174 65.784 101.914 65.4466C102.122 64.9016 102.485 64.9535 102.9 64.8497C103.238 64.7719 103.835 64.8238 104.042 63.9414C104.016 63.0331 103.835 62.4362 103.316 62.021C103.419 61.6836 103.731 60.7234 103.835 60.7753C104.328 60.6975 104.847 60.5677 105.106 60.3601C105.288 59.9449 105.262 59.6853 105.314 59.0885C106.196 59.1144 106.819 59.2182 107.52 59.1663C107.753 58.9847 107.987 58.829 108.013 58.5435C107.857 55.9483 105.755 54.2355 105.573 51.7961C105.547 51.277 106.637 48.3705 106.845 47.566C108.013 43.0504 104.302 36.5625 102.07 35.0314C102.355 33.3964 102.433 31.8393 103.809 31.1386C105.184 30.4379 111.075 32.1767 113.852 34.0452C114.786 34.668 115.513 35.6023 116.473 36.1992C115.617 36.7182 114.734 38.431 115.539 40.1438C116.888 42.7909 121.767 41.7528 121.014 37.9639C120.444 36.2511 118.886 35.8099 118.886 35.8099C118.886 35.8099 118.056 32.6438 117.303 31.3203C114.734 26.7788 111.802 23.6646 107.234 20.9656C104.847 19.5642 102.044 18.3186 98.255 19.3566C95.6079 20.1092 93.5837 21.1473 91.4816 22.4448C88.7826 22.0037 86.6287 21.7182 84.838 21.8739C82.191 22.1334 78.7394 25.1179 76.8709 26.3635C76.1702 26.4154 75.4695 26.4674 74.7688 26.5452C74.7688 26.5452 69.5785 26.8566 69.0076 26.9604C65.2446 27.3237 64.6996 29.7113 63.9989 31.2684C61.8709 35.9916 59.4833 49.4864 61.8449 58.9328C61.1961 59.4258 60.8069 59.893 60.5733 60.6456C60.21 62.4881 60.755 63.1888 61.4038 63.8376C62.3121 64.4864 63.4539 64.694 64.9851 64.1231C66.5162 63.5521 67.9176 59.2961 63.973 58.6992C64.7515 47.1248 69.864 40.8445 69.864 40.8445C69.864 40.8445 70.9799 43.3099 73.6788 49.2269C74.665 51.3808 76.6892 53.6646 77.1044 54.9103C77.883 57.1421 75.7031 61.5279 74.8986 62.9033C72.6148 66.8999 69.4228 70.0141 65.8155 72.5573C63.7394 74.0106 59.2498 78.656 59.2498 78.656C59.2498 78.656 58.5231 78.0331 57.6927 77.7996C55.6425 77.2546 54.4487 78.8895 54.1373 79.4085C53.5923 80.3428 53.9557 81.8739 54.6564 82.6006C55.357 83.3272 57.1217 83.8463 58.2896 83.0418C59.3017 82.367 59.691 81.329 59.9505 80.7321C60.2878 80.5504 60.6771 80.5504 61.0664 80.4466C55.3311 88.4397 56.0318 93.9933 56.1615 96.9258C55.9539 97.4708 55.3051 98.0158 54.9937 98.457C53.9038 100.118 51.1269 105.127 50.7377 110.836C50.7636 117.064 49.1027 116.805 49.7775 119.841C50.1148 121.372 52.0093 121.943 53.1512 122.826C56.3173 125.239 59.691 128.457 64.6477 129.132C65.1927 130.637 65.9453 131.39 65.1148 132.038C64.5958 131.623 63.973 131.415 63.428 131.935C62.6754 132.687 63.0387 133.933 63.8173 134.166C64.1546 134.27 65.1927 134.374 65.582 133.518C67.0093 133.05 68.1771 132.376 69.1892 130.248C69.7083 130.326 69.9937 130.429 70.928 130.637C60.4955 138.526 51.9833 147.765 47.2083 146.078C48.947 142.549 46.274 140.55 45.21 139.979C44.2238 139.46 38.6442 139.72 39.7861 145.17C40.4608 146.364 41.2653 147.324 43.0301 147.817C44.0681 148.128 45.5733 147.428 45.5733 147.428C46.793 148.751 50.7896 150.075 54.5525 150.542C58.601 151.061 62.1304 150.412 62.1304 150.412L61.9487 152.021L70.7723 152.073C70.7723 152.073 70.1235 157.756 68.774 159.08C65.9193 159.236 64.7256 159.599 63.7653 161.286C62.2861 163.881 64.3103 167.41 66.2048 168.033C67.0352 168.267 67.9695 168.422 69.5266 168.007C71.0837 167.592 72.9003 166.139 72.3034 161.441C80.9453 158.509 90.0283 152.125 90.0283 152.125H99.1892C99.1892 152.125 106.819 156.251 116.421 156.251C122.208 156.614 126.101 152.514 126.75 151.398C128.125 151.424 133.004 152.151 132.018 146.052C131.162 141.173 121.611 143.483 124.726 149.4ZM107.961 73.2321C109.051 73.2321 109.57 74.1404 109.57 75.0746C109.544 75.8272 108.843 76.6317 107.935 76.6058C106.559 76.5539 106.118 75.6456 106.092 75.1006C106.222 73.9587 106.663 73.2321 107.961 73.2321ZM58.601 81.2771C58.4972 81.6144 58.2377 81.8739 57.9262 82.0816C56.8103 82.7563 55.3311 82.0816 55.0975 80.8099C55.0456 80.4985 55.0456 80.1871 55.1754 79.8757C55.2273 79.2269 57.0179 78.1629 58.2117 79.0712C58.4193 79.2269 58.575 79.4604 58.6529 79.694C58.8086 80.3169 58.8346 80.9397 58.601 81.2771ZM112.476 133.543C111.594 132.116 108.947 129.08 106.534 126.978C106.611 124.928 109.077 121.32 109.57 117.895C111.023 124.071 111.698 128.665 112.476 133.543ZM108.48 113.275C108.869 113.976 109.077 116.96 108.765 118.05C107.987 120.957 106.43 123.993 105.729 127.133C107.909 129.313 111.205 132.635 112.71 135.334C113.437 136.632 113.8 139.979 113.8 139.979C113.8 139.979 109.388 132.22 104.224 129.158C103.29 130.845 95.8934 148.518 95.8934 148.518C95.8934 148.518 95.1408 147.999 94.8034 147.687C95.1927 146.338 97.1391 140.966 98.1771 137.67C98.3069 137.722 101.291 137.722 99.3709 135.178C99.6304 134.011 100.201 132.142 100.461 131.26C101.265 130.326 102.771 128.742 104.587 126.822C103.835 125.447 95.4262 116.96 95.4262 116.96C95.4262 116.96 95.1927 117.116 94.7775 117.402C93.9989 116.39 91.7152 113.794 91.3 113.146C88.7567 116.675 89.5093 123.241 89.5093 123.241C89.5093 123.241 88.1079 123.189 87.3034 123.163C87.2515 120.101 88.2117 115.507 89.4574 111.822C86.3432 108.37 83.8519 106.191 81.646 104.4C80.6339 103.569 79.7775 102.09 79.2325 101.286C79.1806 98.5868 79.1546 95.5504 80.1667 93.085C80.9193 91.1906 82.3467 89.3999 82.9176 87.4795C80.0629 84.6508 78.6875 80.8878 78.428 80.1871C78.7134 79.72 79.3882 79.1231 79.5958 78.8117C79.8294 78.9674 81.3346 83.0677 84.1114 85.3255C85.0456 85.1698 88.082 80.7061 88.601 79.7719C88.9643 79.7719 90.3138 79.8238 90.8069 79.8497C86.2654 84.6767 85.6166 87.2719 85.6166 87.2719C85.6166 87.2719 92.364 94.8238 97.165 96.2771C96.5422 96.5885 94.1287 96.1733 93.5318 95.8359C87.0439 92.047 84.7342 89.322 84.7342 89.322C84.7342 89.322 80.7896 93.7857 81.4384 101.104C82.4764 103.388 90.8069 109.227 90.8069 109.227C90.8069 109.227 97.7359 98.0158 98.0733 97.4449C98.0993 97.4189 98.0993 97.4189 98.0733 97.4449C98.5923 97.7822 99.0076 98.0418 99.319 98.2753C98.1512 103.855 92.338 111.173 92.338 111.173C92.338 111.173 101.784 122.8 103.912 124.123C105.002 122.929 107.182 118.492 108.48 113.275ZM98.3069 130.481C99.6304 127.834 97.684 126.64 95.6079 126.563C95.2446 125.395 95.4003 125.109 95.037 124.798C95.0889 124.46 94.9851 123.967 94.9072 123.838C93.2982 123.708 91.6892 123.812 90.755 124.642C90.4176 124.746 89.7429 125.083 89.4833 125.057C90.4176 122.826 93.8432 120.542 95.4522 118.31C97.3986 119.4 102.459 125.421 103.393 126.381C100.487 130.559 91.7152 137.851 91.7152 137.851C91.7152 137.851 89.8986 136.554 89.2498 135.853C87.8224 134.322 85.4089 132.168 84.5525 130.274C86.1875 129.365 87.537 128.457 90.1581 128.587C90.184 130.222 90.3916 130.637 90.6771 131.935C93.3242 132.35 97.2948 132.531 98.3069 130.481ZM90.9366 128.639C92.7792 128.483 93.8692 127.367 94.6737 126.069C94.8034 126.303 94.9851 126.718 95.1148 127.185C96.101 127.315 97.3207 127.653 97.7619 128.405C98.0733 128.924 98.0214 129.521 97.5543 129.988C96.1788 132.168 91.1702 131.182 91.1702 131.182C91.1702 131.182 90.9366 129.729 90.9366 128.639ZM91.4557 114.365C92.2602 115.819 93.9989 117.635 94.3363 118.128C93.1685 119.192 90.21 122.566 90.21 122.566C90.21 122.566 90.0543 116.883 91.4557 114.365ZM98.8259 133.985C98.8259 133.985 98.4366 133.44 98.2031 133.336C98.5664 132.921 98.9297 132.661 99.3709 132.116C99.1892 133.206 98.8259 133.985 98.8259 133.985ZM98.5664 136.684C97.165 135.646 96.5681 135.023 96.5681 135.023C96.5681 135.023 97.2169 134.4 97.5543 133.959C98.0474 134.452 98.5923 134.971 99.0595 136.087C99.2411 136.45 98.9038 136.865 98.5664 136.684ZM95.582 135.931C95.3743 136.969 95.1927 138.033 94.9851 139.071C94.1287 138.89 94.1806 138.474 93.7653 137.903C93.947 136.839 94.8813 136.632 95.4262 135.905L95.582 135.931ZM91.9747 138.656C91.7671 140.317 90.184 139.694 91.0404 138.474C91.2221 138.864 91.7671 138.89 91.9747 138.656ZM90.1062 138.111C89.8986 138.552 89.7429 139.435 90.3397 140.187C90.7031 140.628 91.4297 140.706 91.4297 140.706C91.4297 140.706 92.6754 145.559 94.0249 147.609C93.4799 147.999 92.8311 148.466 92.3899 148.673C91.274 146.753 89.6391 143.094 87.7965 135.827C88.2117 136.087 90.2878 137.722 90.1062 138.111ZM92.0785 140.239C92.0785 140.239 92.6754 139.616 92.9089 138.993C94.1027 140.031 94.6996 140.732 95.4262 139.876C96.0231 139.227 96.3605 137.488 96.5162 136.424C96.8795 136.658 97.2429 136.865 97.6062 137.099C96.5941 140.187 95.2705 143.197 94.4141 146.493C93.1685 145.767 92.0785 140.239 92.0785 140.239ZM78.5577 116.286C80.4522 117.973 82.7359 120.905 83.6702 123.448C82.7878 123.63 79.8034 124.668 79.3622 124.409C78.7134 124.357 78.6356 124.279 78.2723 124.045C78.4799 121.45 78.9211 118.595 78.5577 116.286ZM82.5283 119.763C81.5941 118.284 79.492 116.338 78.428 115.17C78.1944 114.573 77.7532 113.094 77.2602 112.419C77.1304 112.263 77.9089 106.969 77.4937 102.116C77.4159 101.934 75.2359 100.533 74.4055 100.092C72.5889 99.1577 70.7204 97.9899 68.9816 96.7182C69.0854 96.4328 69.1114 96.1992 69.1892 95.6283C72.0698 97.0296 74.2757 98.5867 77.0006 100.144C77.8051 101.649 79.3882 104.218 79.6477 104.426C79.9072 104.633 79.0249 110.862 78.9989 113.12C78.9989 113.639 83.6702 117.038 85.928 122.903C85.4609 122.877 84.5006 123.163 84.5006 123.163C84.5006 123.163 83.229 120.879 82.5283 119.763ZM73.8605 117.298C74.3795 116.675 74.1979 115.974 73.8346 115.637C73.3415 115.17 72.1217 115.3 71.966 116.156C71.8363 116.831 72.0698 117.35 72.8224 117.635C73.4972 117.895 70.8242 119.659 69.2671 119.711C66.2567 119.063 65.4522 114.936 62.1823 114.21C62.7273 112.938 64.2584 112.133 65.011 110.992C66.1788 109.201 67.1131 106.606 67.3467 103.933C71.6027 108.63 72.4332 106.32 77.1304 113.665C78.6096 117.194 77.5197 122.851 77.3899 123.993C76.0923 123.293 74.691 122.332 73.1858 121.943C73.4453 120.983 74.0162 120.178 74.2238 119.296C74.3536 118.414 74.12 117.765 73.8605 117.298ZM67.5802 93.3186C67.8916 93.4743 68.1252 93.7338 68.2809 94.0193C68.4626 94.3307 68.6442 94.6681 68.6442 95.0314C68.6183 96.5625 68.0474 97.1075 67.165 97.1854C66.2567 97.2632 65.6598 97.0296 65.1927 96.4328C64.7256 95.8359 64.3363 93.8376 65.9453 93.2926C66.6979 93.0591 67.191 93.1369 67.5802 93.3186ZM67.3207 89.9968C67.9176 91.5798 67.0352 92.3324 66.5941 92.2027C66.5422 91.2684 66.9574 90.0746 67.3207 89.9968ZM68.4626 97.3411C68.4626 97.3411 70.6166 98.4829 71.7325 99.2096C73.3934 100.3 75.3397 101.39 77.0006 102.428C77.2602 104.737 76.6633 111.303 76.6633 111.303C76.6633 111.303 76.5595 111.303 76.5076 111.303C71.8882 104.218 65.8934 105.178 66.075 97.7563C67.4505 98.0937 68.4626 97.3411 68.4626 97.3411ZM78.5058 100.092C76.274 97.393 75.7809 94.2009 75.3397 91.0867C75.2878 97.2113 76.4816 99.0539 76.4816 99.0539C76.4816 99.0539 73.601 96.7961 69.1892 94.8238C69.1892 94.6162 69.1633 94.3826 69.0595 94.175C69.5785 92.9034 71.1096 91.9172 71.8882 90.8013C73.7567 88.0504 74.9245 84.9362 76.819 82.1075C77.1564 81.5885 77.6494 80.9137 77.9868 80.5764C79.1546 83.9241 80.2965 85.5591 82.165 87.5573C79.5698 91.9172 78.0906 95.4207 78.5058 100.092ZM79.6217 112.678C79.6217 112.678 80.0889 107.306 80.2186 105.412C85.4868 112.03 85.5387 115.922 85.5387 115.922C85.5387 115.922 86.2913 114.443 85.383 111.485C84.7861 109.538 82.3986 106.139 82.3986 106.139C82.3986 106.139 85.7982 108.967 88.6788 112.082C87.4851 115.533 86.9141 117.843 86.7065 122.462C84.9418 117.324 79.6217 112.678 79.6217 112.678ZM80.2705 78.2667C80.4782 78.1629 80.6079 78.111 80.7636 77.9553C81.5941 78.4743 85.1754 79.3826 87.6667 79.6421C87.0439 81.0694 84.8121 83.5089 84.1633 84.2615C82.2688 82.7563 80.8155 79.6681 80.2705 78.2667ZM84.9159 90.1784C86.2913 91.6577 88.6269 94.0712 92.7792 96.1732C90.9107 96.3549 89.2757 96.848 89.2757 96.848C89.2757 96.848 93.9211 96.6404 97.191 97.2892C93.1944 104.218 90.7809 107.825 90.7809 107.825C90.7809 107.825 83.1771 102.194 82.3207 101.026C82.3207 100.87 81.7757 94.4604 84.9159 90.1784ZM100.123 98.6906C101.707 99.7027 106.274 103.388 106.871 104.971C109.674 112.315 104.431 122.981 103.653 123.085C100.279 119.945 93.4799 111.121 93.4799 111.121C93.4799 111.121 98.0474 105.723 100.123 98.6906ZM144.578 59.2701C144.449 60.0487 133.601 68.8463 133.601 68.8463L130.383 65.5504C130.383 65.5504 130.513 64.72 130.591 64.2788C131.525 64.5642 133.731 65.3428 133.731 65.3428C133.731 65.3428 134.25 64.3307 134.587 63.7857C135.106 64.3047 136.17 64.8757 137.572 64.2269C138.973 63.5521 139.31 60.6196 139.544 57.7909C139.025 57.713 138.324 57.6352 137.805 57.5573C138.272 56.104 139.57 52.8601 139.57 52.8601C139.57 52.8601 143.696 57.7649 144.578 59.2701ZM135.08 62.8774C135.859 61.4501 136.689 59.867 137.468 58.5175C137.727 58.4916 138.194 58.4397 138.558 58.4916C137.987 61.0089 138.402 63.0591 136.793 63.5521C135.599 63.8117 135.34 63.2148 135.08 62.8774ZM129.371 45.5417C129.371 45.5417 136.248 47.6698 139.855 49.4085C139.7 51.0435 138.947 52.2632 138.428 53.4829C136.3 58.4397 133.264 64.2269 133.264 64.2269C133.264 64.2269 131.732 63.7078 131.058 63.5002C131.499 61.995 132.563 61.1386 132.459 59.322C137.001 58.8809 139.829 49.72 132.9 52.3151C132.641 50.7321 129.708 49.6161 128.644 51.5106C127.58 53.4051 127.892 56.5712 129.527 57.8947C128.696 58.7771 127.736 60.1265 127.321 61.7874C126.283 61.3982 125.348 60.7494 124.025 60.5677C125.426 56.3636 129.371 45.5417 129.371 45.5417ZM131.655 56.8826C131.447 56.6231 130.591 57.4276 130.201 57.6092C128.203 53.3013 129.319 51.8739 130.253 51.7442C131.81 51.5106 132.563 53.5867 132.563 53.5867C132.563 53.5867 135.833 51.303 136.014 54.3393C135.703 56.2078 134.146 57.5573 132.693 58.1802C132.485 57.4535 132.433 57.1421 131.655 56.8826ZM122.753 61.4501H122.598V61.2943C122.805 61.2165 123.091 61.1127 123.246 61.0089C124.077 61.1646 125.893 61.8134 126.361 62.3843C125.193 61.9431 123.558 62.2027 122.753 61.4501ZM123.454 64.5123C123.194 64.4085 123.298 64.4864 123.143 64.3307C123.817 64.0193 124.648 63.5262 125.089 62.9812C125.452 63.0331 126.516 63.1888 126.516 63.1888C126.309 63.7338 126.023 63.8895 125.841 64.4345C124.829 64.4604 123.947 64.8238 123.454 64.5123ZM120.444 72.4795C121.248 70.2995 122.753 68.3272 124.31 66.9258C125.011 66.329 125.738 65.7061 126.438 65.1092C127.71 63.5002 128.099 61.1905 129.345 59.5037C129.89 58.7511 131.032 58.4137 131.629 57.6871C131.966 57.9726 131.94 60.1006 131.499 60.8532C127.995 66.7442 128.826 69.002 128.826 69.002C128.826 69.002 129.864 68.4829 130.046 66.3549C130.668 66.822 130.954 67.5227 131.577 67.9898C130.046 71.2597 124.129 76.6058 124.129 76.6058L123.947 81.1992C123.947 81.1992 122.572 81.5106 122.001 82.0816C121.274 80.7321 119.95 80.3428 119.535 79.9276C119.405 79.5383 120.132 73.3878 120.444 72.4795ZM116.836 84.2355C115.98 82.9639 116.084 81.329 114.916 80.3687C115.072 80.0314 115.072 80.1352 115.253 79.9016C118.549 80.0054 120.106 81.1214 121.482 82.9899C122.935 82.938 123.817 82.1854 125.011 81.848C126.257 81.4847 128.099 81.7182 129.475 81.5366C129.63 81.6663 129.501 81.5885 129.786 81.7182V81.8739C126.386 82.5746 127.269 84.9362 125.348 86.1559C123.324 87.4016 117.745 85.585 116.836 84.2355ZM112.502 94.0712C112.892 92.54 112.788 90.5937 112.788 90.5937C112.788 90.5937 114.111 91.8653 116.447 94.2269C118.523 96.303 119.198 99.0279 120.781 101.519C121.585 102.817 123.532 104.166 123.532 104.166C123.532 104.166 121.352 101.286 120.677 99.7805C119.899 98.0677 119.717 96.7961 116.343 92.4881C116.447 90.7753 117.822 87.3238 118.134 86.675C119.094 87.1421 122.053 87.9466 124.44 87.5314C124.648 89.3739 125.245 92.1767 125.608 93.9674C126.231 96.8999 127.425 103.959 126.386 107.592C125.634 110.213 124.103 111.822 122.961 114.755C113.904 114.91 109.181 104.478 102.771 99.2615C100.072 97.1075 96.3086 95.213 93.1685 93.0331C90.729 91.3463 88.2636 89.1663 86.5768 87.0902C87.3034 84.8324 89.4314 82.4189 91.6114 79.9795C95.7377 79.4864 101.655 78.3445 104.094 76.7874C107.883 79.694 112.087 88.9847 112.502 94.0712ZM102.2 64.3566C100.643 63.7078 98.8519 61.9691 98.2031 61.0348C100.383 62.566 102.2 62.6957 103.212 62.7995C103.497 63.3964 103.653 64.3307 102.2 64.3566ZM100.409 61.2684L102.952 60.8791C102.952 60.8791 102.667 61.3463 102.589 61.9691C101.732 61.8653 100.409 61.2684 100.409 61.2684ZM107.182 58.3359C106.741 58.6732 105.184 57.8947 104.509 57.9206C103.809 57.9466 103.082 58.5694 102.589 58.1542C102.096 57.739 102.044 57.1421 102.822 56.4155C101.992 56.5971 101.369 57.5054 101.81 58.284C102.07 58.7251 102.2 58.9328 104.639 59.0106C104.561 59.5815 104.613 59.5296 104.302 59.7892C103.938 59.9708 102.796 60.2303 101.732 60.3341C98.9557 60.6196 96.3865 59.0366 96.3865 59.0366L96.075 58.6992C96.075 58.6992 100.279 59.6075 101.058 56.8307C98.9297 59.4777 94.4401 58.1802 94.1806 58.1542C93.3242 58.1283 93.0128 59.0106 93.4799 59.867C93.402 58.8809 94.1806 58.5954 94.7775 58.9587C97.1131 61.6577 100.331 64.2788 101.525 64.9276C101.058 66.7442 102.719 67.0815 101.577 68.0937C99.1373 69.8324 96.101 66.7961 94.5439 64.9795C92.0006 61.9691 89.691 57.0902 89.4314 52.886C89.146 47.7736 93.1425 45.5158 96.2567 44.4258C97.3726 44.0366 100.357 43.284 101.681 43.6732C103.938 44.322 103.731 44.6854 104.146 45.3601C103.809 45.931 103.445 46.6577 103.134 47.2286C102.226 47.0469 101.551 46.5539 100.617 46.3462C99.5006 46.1127 95.1667 47.7217 95.1667 47.7217C96.5162 48.1369 97.8138 47.3324 98.9816 47.54C100.227 47.7736 101.11 48.3186 101.784 49.0712C99.3449 48.8895 98.0993 49.5642 96.8276 50.0054C97.7359 52.0037 101.655 51.4587 101.187 56.1819C101.784 55.6109 102.252 54.8065 102.226 53.5348C102.693 53.3013 103.497 51.8999 103.316 50.0833C104.561 50.6801 105.392 49.8497 105.392 49.8497C105.106 50.4206 104.457 51.5106 104.665 52.2113C106.482 55.8445 107.701 57.6611 107.182 58.3359ZM101.758 50.3687C101.758 50.3687 102.018 50.3687 102.381 50.3947C102.303 50.8618 102.226 51.5106 102.174 51.9777C101.992 52.4968 101.421 52.5227 101.058 52.4189C101.784 52.0037 101.758 50.3687 101.758 50.3687ZM100.02 50.784C99.7861 51.0175 99.5525 50.8878 99.3968 50.758L99.4228 50.1352L100.227 50.1611C100.175 50.2649 100.227 50.5504 100.02 50.784ZM105.625 49.0971C105.495 49.0193 104.873 48.4224 104.405 48.111C104.665 47.7217 104.873 47.0729 104.95 46.2165C105.314 46.5539 105.755 46.9431 105.859 47.6698C105.833 48.4743 105.807 49.2009 105.625 49.0971ZM119.535 40.2995C118.938 41.0781 116.992 40.5331 116.603 39.8324C115.902 38.6905 116.473 37.0556 117.667 36.6923C118.861 36.3289 121.767 37.7044 119.535 40.2995ZM95.2446 21.4327C96.9574 20.6023 101.187 18.8895 104.016 20.0054C106.43 20.9656 108.298 22.4968 110.374 24.0538C112.762 25.8445 115.046 28.6992 116.447 31.4241C117.096 32.6957 118.186 35.758 118.186 35.758L117.07 35.8878C117.07 35.8878 116.058 34.8497 115.227 34.2269C110.867 31.0608 106.222 30.0227 104.276 30.3341C102.589 30.5936 101.525 32.7736 101.421 34.3566C100.487 34.0452 99.2671 33.1629 98.6442 32.5141H98.3328C99.1114 34.3826 101.758 35.1871 102.926 36.9777C105.859 41.0002 105.781 43.3099 105.781 45.1784C104.976 43.9587 103.575 42.7909 101.914 42.5054C99.1892 42.0383 96.3865 43.0504 94.7256 43.8289C92.2861 44.9708 89.9764 46.3462 88.8346 48.8376C87.537 51.6663 88.8605 57.5054 89.8726 59.6594C91.1961 62.5141 93.9211 65.8359 93.9211 65.8359C93.9211 65.8359 88.8346 63.0591 86.7584 57.2719C88.0041 62.5141 91.0923 65.0833 93.0906 65.9137C92.5716 65.7321 92.2861 65.4206 90.729 65.6542C89.1719 65.9137 88.2117 68.5867 88.1858 70.3255C87.0439 70.0141 86.6027 69.521 85.8501 68.976C85.902 67.7303 86.2653 66.6404 86.447 65.6802C86.966 62.9553 85.8242 56.8307 85.1235 54.3653C83.6183 49.149 81.8276 44.7372 82.684 38.8981C82.9955 37.8601 85.6166 24.8064 95.2446 21.4327ZM84.7342 22.4708C87.2256 22.5746 90.729 23.0158 90.729 23.0158C90.729 23.0158 88.3415 25.04 85.6166 28.2061C83.9297 27.713 77.9089 26.649 77.9089 26.649C77.9089 26.649 81.7757 23.5348 84.7342 22.4708ZM65.5041 62.021C65.1927 63.2926 63.973 63.4224 63.0128 63.3445C62.1044 63.3705 61.4816 61.6577 61.7152 60.8013C61.9747 59.9449 62.5716 59.4777 63.3242 59.3999C64.9072 59.2442 66.075 60.2044 65.5041 62.021ZM59.8986 80.0573C60.0283 79.4085 59.9245 79.2528 59.9245 79.2528C59.9245 79.2528 65.1148 73.5435 72.0439 68.7684C71.7584 70.611 71.8882 72.739 71.8882 72.739C71.8882 72.739 72.2515 70.3774 74.0162 66.4847C75.3397 63.604 78.2204 60.3601 78.3501 56.649C79.2844 57.3238 81.4384 60.0227 82.0352 61.0348C82.0352 61.0348 80.3743 57.5314 79.6217 56.4933C75.3657 50.6542 72.9003 44.7632 71.3173 41.649C70.1235 39.3134 67.8657 37.6784 67.8657 37.6784C67.8657 37.6784 69.1892 39.4691 69.2152 39.9881C68.6702 41.3635 67.5802 42.9985 66.9314 44.348C65.1408 48.085 63.402 54.0279 63.3761 58.6473C63.0387 58.6992 62.7273 58.777 62.7273 58.777C61.6892 52.912 61.0404 47.1767 62.4159 40.4293C63.0128 37.5487 64.3882 33.4743 65.4782 30.9829C66.2826 28.9846 68.5404 28.1801 70.5647 28.0763C70.8242 28.0504 71.0837 28.0504 71.3173 28.0504C78.3761 27.4276 84.7602 29.1404 84.7602 29.1404C84.7602 29.1404 82.3207 35.6802 81.6719 39.6507C81.075 43.2321 82.5802 48.3964 83.3069 50.9656C84.8121 56.1819 86.5508 63.1888 84.7342 67.9898C82.4764 66.9518 81.1788 65.6283 81.1788 65.6283C81.1788 65.6283 82.2688 68.6646 86.8622 70.9224C88.8605 71.9085 93.1425 70.0141 96.6979 70.9743C99.9937 71.8566 102.433 73.1283 105.288 74.2961C105.262 74.6594 105.262 75.0227 105.21 75.412C102.667 76.3463 95.8155 79.3047 89.8986 78.9414C84.6045 78.63 82.6062 77.6957 80.6079 77.021C76.8449 79.1231 75.2359 82.2632 74.4833 84.0798C72.0439 89.0625 70.2013 91.5279 68.5923 93.3705C68.255 93.111 67.8916 92.8255 67.7359 92.7217C69.5006 89.1144 67.71 83.7684 66.8536 80.4726C65.8934 76.7615 66.9314 74.2961 66.9314 74.2961C66.9314 74.2961 65.4262 75.3342 65.1927 78.1888C63.2204 78.5521 60.8588 79.8757 59.8986 80.0573ZM65.3224 79.3047C65.3224 79.3047 66.4124 82.6265 66.7238 84.4431C66.101 85.0919 64.1546 89.5816 64.1546 89.5816C64.1546 89.5816 61.5854 86.8566 60.2619 83.7165C60.4955 80.8359 65.3224 79.3047 65.3224 79.3047ZM59.7688 84.1836C59.7688 84.1836 62.0006 88.7771 64.2844 90.5418C65.3484 88.1023 66.8536 85.5591 66.8536 85.5591C66.8536 85.5591 67.139 87.7909 67.2169 88.7511C66.9314 89.4258 66.0491 89.8151 65.9712 92.2027C63.7394 93.0072 63.3242 96.6144 65.4522 97.5746C65.2186 98.8203 65.6339 101.078 65.6339 101.078C65.6339 101.078 62.883 98.6127 63.7394 92.5919C62.2861 91.1646 59.7688 88.0245 59.2238 85.9224C59.4574 85.2217 59.7688 84.1836 59.7688 84.1836ZM64.6217 128.275C61.4038 127.419 58.3155 126.147 56.3172 124.045C54.4747 122.125 52.5543 121.346 50.8155 119.841C50.582 118.44 51.4124 116.415 51.4903 114.158C51.7757 106.268 56.1875 98.4829 56.1875 98.4829C56.1875 98.4829 56.8103 99.8843 56.7325 100.559C57.3294 99.5729 57.2515 97.8082 57.1996 96.7701C56.8103 90.412 58.6788 86.8307 58.6788 86.8307C58.6788 86.8307 60.1581 89.9968 62.883 92.8515C63.0647 93.3705 62.883 96.822 62.883 96.822L60.9366 93.7338C60.9366 93.7338 60.4695 97.6785 66.1529 102.817C65.3484 112.341 62.3121 111.744 59.1979 115.092C57.5889 117.012 57.1737 118.44 57.1477 119.14C58.4193 117.064 59.9245 115.689 61.1183 114.858C63.8692 115.403 65.8155 119.192 68.2031 120.516C66.6979 122.618 64.6737 124.616 64.6217 128.275ZM68.5923 127.808C68.229 131.909 66.2048 132.324 66.2048 132.324C66.2048 132.324 66.8536 130.637 65.556 128.327C64.6477 126.692 67.2948 123.033 68.0214 122.073C69.0076 120.749 72.6927 119.997 73.2117 118.777C73.3155 119.478 72.4332 120.697 71.992 122.073C71.5508 123.5 72.1217 125.031 72.4591 125.862C72.4851 125.888 69.9418 125.732 68.5923 127.808ZM69.3449 129.106C69.1892 128.301 70.1754 126.77 72.2775 126.64C72.1737 127.445 74.0162 128.068 74.7169 126.874C75.4176 125.654 74.0422 124.486 72.9781 124.954C72.9003 124.305 72.8224 123.682 72.7446 123.033C74.8467 123.396 77.8311 126.121 80.1148 125.524C83.9297 124.512 85.8761 123.319 88.7307 124.097C88.5231 124.253 88.1339 124.616 88.056 124.876C87.537 124.876 86.7325 124.746 86.473 124.824C86.5249 124.979 86.5768 125.135 86.6027 125.317C87.6667 125.628 89.0941 126.147 90.5474 125.784C92.364 124.227 94.2325 124.642 94.2325 124.642C94.2325 124.642 93.5577 127.808 90.1321 127.99C89.3795 128.068 88.082 127.756 87.1217 128.042C85.7723 128.431 84.7342 129.495 83.255 129.962C82.2169 130.274 79.8553 130.585 78.973 129.962L78.0128 129.936C78.5577 130.793 81.7498 131.338 82.8916 130.585C84.1633 130.741 84.4228 132.064 85.2013 132.739C84.1892 133.336 78.6096 134.659 75.5993 131.104C75.0543 130.455 74.8207 130.377 74.1979 130.092C72.0958 129.547 70.4349 129.625 69.3449 129.106ZM73.5491 131L74.1719 131.026C75.1581 132.194 77.0006 134.114 78.8173 134.374C74.9245 137.047 72.5889 143.82 72.5889 143.82C72.8224 140.473 73.3674 137.696 73.5491 131ZM77.6235 136.528C78.2204 135.749 79.7775 134.4 79.7775 134.4C79.7775 134.4 81.4903 134.478 82.4764 134.348C75.8328 139.954 72.2515 149.504 72.2515 149.504C72.2515 149.504 71.8363 144.002 77.6235 136.528ZM72.1477 130.793C72.3553 130.793 72.4332 130.767 72.9522 130.819C72.4851 136.139 72.0179 141.459 71.5768 146.779C71.1356 146.857 70.1235 147.194 70.1235 147.194C70.1235 147.194 70.0456 133.803 72.1477 130.793ZM45.5733 146.13C44.7688 146.701 43.6269 146.727 42.8743 146.338C42.1217 145.974 40.2532 144.599 41.2653 142.471C41.5768 141.511 42.7446 140.836 43.3934 140.654C45.9107 140.317 46.6114 142.627 46.7671 143.483C46.6892 144.936 46.3519 145.559 45.5733 146.13ZM61.7671 149.27C56.8103 150.308 48.3501 148.959 46.793 146.805C53.3328 148.673 63.0647 137.384 70.1494 132.921C69.0076 142.341 69.4487 147.48 69.4487 147.48C69.4487 147.48 64.0249 148.829 61.7671 149.27ZM63.4539 150.178C64.7256 150.153 70.1235 149.14 70.8242 148.647H70.9799L70.8761 150.775L63.428 151.087C63.428 151.113 63.4539 150.282 63.4539 150.178ZM70.357 165.931C69.5266 166.813 66.9314 167.177 65.6079 165.905C64.492 165.127 64.4141 163.855 64.6477 162.22C64.8294 161.597 65.1408 161.312 65.4782 160.974C65.9712 160.533 66.7757 160.066 67.4245 160.092C71.6546 160.118 72.6667 164.4 70.357 165.931ZM71.6806 160.274C71.6806 160.274 70.5387 159.781 70.1235 159.417C72.9522 152.203 73.0041 146.078 80.1148 137.903C80.7377 137.099 83.4107 134.53 83.4107 134.53L85.5128 133.647L86.6027 134.478C86.6027 134.478 88.7048 144.573 91.4557 148.933C84.5266 155.966 71.6806 160.274 71.6806 160.274ZM91.8709 150.827L94.2844 149.037L97.2688 150.827H91.8709ZM120.106 154.305C108.765 156.355 103.731 152.436 96.5162 148.829C96.8795 148.076 104.509 130.248 104.509 130.248C105.729 130.611 111.724 137.229 113.618 141.044C114.812 143.405 115.02 147.09 116.81 148.933C119.224 151.424 125.634 150.698 125.634 150.698C125.634 150.698 124.025 153.578 120.106 154.305ZM131.136 148.05C130.824 149.582 129.656 149.945 128.826 150.178C125.997 150.801 125.271 147.895 125.478 146.26C125.686 145.455 126.464 144.781 126.957 144.573C127.476 144.365 128.696 144.106 129.812 144.677C130.954 145.222 131.265 146.338 131.136 148.05Z" fill="#25252F"/>
<defs>
<linearGradient id="paint0_linear_324_104553" x1="92" y1="2" x2="92" y2="182" gradientUnits="userSpaceOnUse">
<stop stop-color="white" stop-opacity="0.85"/>
<stop offset="1" stop-color="white" stop-opacity="0.15"/>
</linearGradient>
</defs>
</svg>
