<svg width="184" height="184" viewBox="0 0 184 184" fill="none" xmlns="http://www.w3.org/2000/svg">
<rect x="1" y="1" width="182" height="182" rx="13" stroke="black" stroke-opacity="0.25" stroke-width="2"/>
<rect x="2.5" y="2.5" width="179" height="179" rx="11.5" fill="#E9E9E9" stroke="url(#paint0_linear_324_104553)"/>
<rect x="41.0469" y="30.5" width="101.909" height="123" rx="1.5" fill="#D7D5D7" stroke="#CDCFD6"/>
<path d="M42.458 95.707C44.4303 95.707 46.4023 96.0189 46.4023 99.7559C46.4023 100.872 46.2466 101.806 46.0391 102.351C45.6238 103.57 44.7676 103.778 44.4043 103.882L47.1035 110.604H45.1309L42.5879 104.09H41.0566V110.604H39.2139V95.707H42.458ZM41.0566 102.584C43.1583 102.584 43.4438 102.584 43.833 102.299C44.5596 101.806 44.5596 100.664 44.5596 99.9375C44.5596 99.0292 44.5337 98.0691 43.833 97.6279C43.3919 97.3426 42.9768 97.3418 41.0566 97.3418V102.584ZM46.1953 79.2021H41.498V83.6396H45.624V85.3271H41.498V90.7764H46.3506V92.4375H39.6553V77.541H46.1953V79.2021ZM41.2646 65.8115L45.1055 59.4014H47.1553L43.6514 64.9805L47.1553 74.2715H45.1055L42.458 66.668L41.2646 68.458V74.2969H39.4219V59.4014H41.2646V65.8115ZM42.9248 41.001C46.0386 41.001 46.2731 43.3105 46.377 44.1152C46.5067 45.3869 46.4541 48.0604 46.4541 48.4756C46.4541 49.6175 46.403 51.3304 46.3252 52.4463C46.2214 54.3146 45.7538 56.3387 42.666 56.3389C42.121 56.3389 41.3677 56.2871 40.667 55.9238C39.6032 55.3529 39.3441 54.3147 39.2402 53.7178C39.0586 52.7057 39.084 50.5257 39.084 49.2021C39.084 48.2419 39.1366 45.1278 39.1885 44.3232C39.2404 43.5707 39.5514 41.0011 42.9248 41.001ZM42.8213 42.5586C41.1345 42.5586 41.0562 44.1937 41.0303 44.9463C40.9784 45.6727 40.9785 45.9069 40.9785 49.5137C41.0045 50.4995 41.0049 50.5257 41.0049 51.4854C41.0568 52.9127 40.7972 54.8076 42.7695 54.8076C44.3523 54.8075 44.4046 53.4065 44.4824 52.4463C44.5603 51.2007 44.6119 49.6693 44.5859 48.4756C44.56 47.3078 44.5601 46.1395 44.5342 44.9717C44.5082 44.0374 44.482 42.5586 42.8213 42.5586ZM45.9619 33.0859C45.9619 35.2653 45.8832 35.681 45.7275 36.1221C45.053 38.1716 42.8226 38.1729 42.3027 38.1729C40.3304 38.1729 39.4216 37.0824 39.1621 36.0703C38.9805 35.4476 38.9805 35.0059 38.9805 33.501H40.7715C40.7715 35.1098 40.7975 35.3438 40.9531 35.707C41.1867 36.278 41.6795 36.5898 42.2764 36.5898C43.7815 36.6158 44.0409 35.5252 44.0928 34.9023C44.1187 34.6163 44.1191 33.5281 44.1191 33.1904V23.043H45.9619V33.0859Z" fill="#24242E"/>
<path d="M137.571 150.853C139.544 150.853 140.452 151.943 140.712 152.955C140.893 153.578 140.894 154.019 140.894 155.524H139.103C139.103 153.916 139.077 153.682 138.921 153.318C138.687 152.747 138.195 152.436 137.598 152.436C136.092 152.41 135.833 153.5 135.781 154.123C135.755 154.409 135.755 155.497 135.755 155.835V165.982H133.912V155.939C133.912 153.76 133.991 153.344 134.146 152.903C134.821 150.854 137.052 150.853 137.571 150.853ZM137.183 132.661C137.728 132.661 138.48 132.713 139.181 133.076C140.245 133.647 140.505 134.685 140.608 135.282C140.79 136.294 140.764 138.474 140.764 139.797C140.764 140.757 140.712 143.871 140.66 144.676C140.608 145.428 140.297 147.998 136.923 147.998C133.809 147.998 133.575 145.688 133.472 144.884C133.342 143.613 133.394 140.941 133.394 140.524C133.42 139.383 133.472 137.696 133.523 136.554C133.627 134.685 134.094 132.661 137.183 132.661ZM137.104 134.218C135.522 134.218 135.469 135.619 135.392 136.579C135.314 137.825 135.262 139.356 135.288 140.55C135.314 141.718 135.314 142.886 135.34 144.054C135.366 144.988 135.392 146.467 137.053 146.467C138.74 146.467 138.818 144.832 138.844 144.079C138.896 143.353 138.896 143.119 138.896 139.512C138.87 138.5 138.869 138.473 138.869 137.539C138.817 136.112 139.077 134.218 137.104 134.218ZM137.442 122.357L138.636 120.567V114.729H140.479V129.624H138.636V123.214L134.795 129.624H132.745L136.248 124.019L132.719 114.729H134.769L137.442 122.357ZM140.219 111.458H133.679V109.797H138.376V105.359H134.25V103.673H138.376V98.2227H133.523V96.5615H140.219V111.458ZM137.286 84.9355H138.817V78.4219H140.66V93.3184H137.416C135.444 93.3184 133.472 93.0066 133.472 89.2695C133.472 88.1538 133.627 87.2198 133.835 86.6748C134.25 85.4551 135.106 85.2474 135.47 85.1436L132.771 78.4219H134.743L137.286 84.9355ZM138.817 86.415C136.716 86.415 136.43 86.415 136.041 86.7002C135.314 87.1933 135.313 88.3359 135.313 89.0625C135.313 89.9707 135.34 90.931 136.041 91.3721C136.482 91.6572 136.898 91.6572 138.817 91.6572V86.415Z" fill="#24242E"/>
<path fill-rule="evenodd" clip-rule="evenodd" d="M95.2944 150.359C94.8013 150.255 94.4639 149.814 94.2303 149.399C94.1525 149.243 93.893 149.139 93.5815 149.087C92.9068 148.854 92.0764 148.957 91.4535 149.217C91.3497 149.269 91.22 149.321 91.1421 149.425C91.0123 149.476 90.8826 149.58 90.7528 149.658C90.5971 149.788 90.5193 149.944 90.4674 150.099C90.2078 150.229 89.9743 150.385 89.7667 150.592C89.1179 151.215 91.0642 151.475 91.9466 151.189C92.3878 151.397 93.1404 151.423 93.7373 151.293C93.7892 151.293 93.8411 151.319 93.893 151.319C94.4379 151.423 95.3982 151.449 95.8393 151.033C96.3065 150.644 95.6577 150.411 95.2944 150.359Z" fill="#98AED2"/>
<path fill-rule="evenodd" clip-rule="evenodd" d="M66.8274 148.986C66.8274 149.012 66.8274 149.012 66.8274 149.038C66.7236 149.064 66.6198 149.116 66.542 149.142C66.516 149.142 66.4641 149.168 66.4382 149.168C65.8413 149.168 65.1665 149.298 64.8811 149.583C64.362 149.505 63.6873 149.557 63.2461 149.713C63.1423 149.713 63.0126 149.713 62.8828 149.713C62.8049 149.713 62.7271 149.713 62.6752 149.739C61.9485 149.687 61.0921 149.817 60.9364 150.206C60.7807 150.595 60.7807 150.855 61.1181 151.14C61.5074 151.451 62.6492 151.633 63.3759 151.374C63.4537 151.374 63.5316 151.374 63.6094 151.374C64.1285 151.503 64.8292 151.451 65.4001 151.218C65.478 151.218 65.5558 151.218 65.6337 151.192C65.8413 151.166 66.0489 151.14 66.2306 151.088C66.4122 151.088 66.5939 151.088 66.7755 151.062C67.4762 151.426 69.215 151.27 69.3447 150.595C69.4745 149.998 69.5783 149.427 69.7081 148.83C69.8119 148.259 67.0091 148.104 66.8274 148.986Z" fill="#98AED2"/>
<path fill-rule="evenodd" clip-rule="evenodd" d="M142.917 58.8299C142.684 57.7919 141.438 56.8057 140.737 56.0272C139.699 54.8853 138.687 53.7434 137.649 52.6015C137.571 52.5237 137.416 52.4718 137.234 52.4458C137.623 51.3559 137.987 50.2918 138.324 49.1759C138.35 49.124 138.194 49.0462 138.168 49.0462C134.821 47.8783 131.473 46.6846 128.125 45.5168C128.177 45.2313 127.217 45.2053 127.113 45.4389L127.087 45.5427C127.009 45.5687 126.983 45.6206 127.035 45.6725C125.452 50.0323 123.869 54.3663 122.286 58.7261C122.052 59.3749 121.689 60.1275 122.234 60.6984C122.701 61.2175 123.713 61.3991 124.31 61.6327C125.011 61.9182 125.712 62.2036 126.412 62.4891C126.36 62.6708 126.334 62.8784 126.334 63.06C126.282 64.3576 127.295 65.2659 128.203 66.0704C128.229 66.0964 128.281 66.1223 128.333 66.1223C128.981 66.8749 129.656 67.6535 130.409 68.1985C130.409 68.1985 130.409 68.2244 130.435 68.2244C130.642 68.4061 130.85 68.6137 131.083 68.7953C131.317 69.0029 131.862 69.0029 132.096 68.7953C132.381 68.5099 132.692 68.2244 132.978 67.9389C133.549 67.5237 134.094 66.9528 134.587 66.5635C135.833 65.6033 137.078 64.6171 138.298 63.6569C139.44 62.7486 140.634 61.8663 141.75 60.932C142.424 60.413 143.125 59.7382 142.917 58.8299Z" fill="white"/>
<path fill-rule="evenodd" clip-rule="evenodd" d="M101.447 126.252C101.213 124.747 99.3704 123.528 98.3583 122.541C96.931 121.166 95.5036 119.765 94.1022 118.389C93.8946 118.182 92.9344 118.337 93.0901 118.493C93.1161 118.519 93.142 118.545 93.168 118.571C93.0642 118.597 92.9604 118.649 92.8825 118.701C89.0157 122.386 85.1749 126.045 81.3081 129.73C81.2303 129.808 81.4638 129.886 81.7493 129.912C82.7095 131.365 83.7735 132.74 84.9932 134.012C86.0313 135.102 87.277 136.555 88.5746 137.334C89.3272 137.775 90.1316 137.593 90.8323 137.152C92.4154 136.166 93.8168 134.609 95.1922 133.363C96.4898 132.195 97.7614 131.002 99.0071 129.808C99.9413 128.951 101.68 127.732 101.447 126.252Z" fill="white"/>
<path fill-rule="evenodd" clip-rule="evenodd" d="M127.449 81.3019C127.32 81.1462 124.88 81.0683 124.776 81.0943L123.142 81.3538C123.142 81.3797 123.142 81.4316 123.116 81.4316C122.622 81.6393 122.103 81.795 121.584 81.9507C121.169 82.0804 120.754 82.3919 120.339 82.4697C119.949 82.5476 119.69 82.4437 119.353 82.2621C118.73 81.8988 118.263 81.25 117.692 80.7829C116.991 80.2119 116.238 79.7188 115.434 79.3296C114.889 79.1219 114.344 78.9922 113.773 78.9922C112.657 79.0181 112.372 79.8226 112.449 80.7569C112.579 80.9905 112.709 81.224 112.813 81.4576C113.565 82.859 114.214 84.5718 115.564 85.506C117.588 86.8815 120.365 86.8555 122.752 86.8555C122.986 86.8036 123.219 86.7517 123.479 86.6998C123.764 86.5701 124.18 86.2067 124.699 85.5579C124.776 85.4282 125.062 84.3642 125.114 84.2344C125.737 83.5337 126.385 83.1964 127.034 82.4957C127.32 82.4438 127.579 82.0285 127.865 81.9766C128.072 81.9247 128.072 81.7171 128.15 81.6912C128.488 81.6133 127.761 81.3278 127.449 81.3019Z" fill="#FEBB1D"/>
<path fill-rule="evenodd" clip-rule="evenodd" d="M130.176 58.0763C130.072 57.2978 129.293 57.3497 128.229 58.1801C127.71 58.5953 127.139 58.9587 126.854 59.5555C126.439 60.1524 126.101 60.7753 125.816 61.45C125.53 61.9431 125.712 62.2286 125.375 62.7216C125.349 62.7216 125.349 62.7216 125.323 62.7216C124.804 62.2286 124.129 61.8912 123.402 61.6836C123.35 61.6576 123.74 61.5019 123.714 61.476L123.298 61.6317C123.402 61.2943 122.598 61.0348 122.39 60.9829C122.027 60.905 121.689 60.8272 121.326 60.7234C121.144 60.6715 120.106 60.4639 120.236 60.9569C120.262 61.0348 120.288 61.1386 120.288 61.2164C120.314 61.2943 120.158 61.5798 120.236 61.6317C120.21 61.8912 121.352 62.1247 121.612 62.1507C121.975 62.2026 122.312 62.2286 122.65 62.3324C122.883 62.4881 123.039 62.7476 123.117 63.0331C122.39 63.2666 121.715 63.6559 121.093 64.2268C120.989 64.3306 120.599 64.5123 120.677 64.6161C121.118 65.0313 122.312 65.3168 123.091 65.3946C122.001 66.6403 120.885 67.8341 119.717 69.0278C119.665 69.1317 119.587 69.2355 119.535 69.3652V69.3912C119.509 69.4171 119.484 69.4431 119.484 69.4431C119.146 70.014 118.809 70.559 118.497 71.1299C118.497 71.1559 118.497 71.1559 118.497 71.1818C118.212 72.2458 117.952 73.3099 117.719 74.3739C117.797 74.4517 117.875 74.5296 117.849 74.6074C117.667 75.4898 117.485 76.3462 117.356 77.2285C117.356 77.2545 117.356 77.2804 117.33 77.3064C117.33 78.2406 117.356 79.1489 117.381 79.9534C117.381 80.0313 117.33 80.0313 117.278 80.0313C117.304 80.0832 117.304 80.1092 117.304 80.1351C117.2 80.0832 117.096 80.0573 116.992 80.0053C117.2 80.1611 117.407 80.2908 117.615 80.4465C118.394 81.0434 119.25 82.3669 120.366 82.0296C120.989 81.8479 121.689 81.5884 122.312 81.3289C122.312 79.9794 122.468 77.1247 122.546 76.8133C123.999 75.5676 125.141 74.4258 126.335 72.9465C126.932 72.2199 127.606 71.5971 128.125 70.8185C128.722 69.9621 129.812 69.0019 129.76 67.9379C129.76 67.7043 127.762 65.6801 127.529 66.251C128.463 63.9414 129.138 62.2805 130.072 59.9967C130.15 59.841 130.202 58.258 130.176 58.0763Z" fill="#EFEDED"/>
<path fill-rule="evenodd" clip-rule="evenodd" d="M107.751 75.4895C107.751 74.5034 106.869 73.102 105.831 72.8944C104.637 72.6608 104.118 73.7508 103.262 73.7248C101.99 73.6989 100.251 72.3754 99.0055 71.8823C97.8117 71.4151 96.6179 70.974 95.3463 70.7145C92.829 70.1954 90.4934 70.5068 88.002 70.7664C86.8083 70.8961 85.5107 70.9999 84.3948 70.429C83.7719 70.1176 83.5903 69.365 82.7598 69.1833C83.3307 68.6902 83.8498 65.0051 83.9276 64.3823C84.3169 61.2681 83.72 58.102 82.8896 55.0916C81.6698 50.7317 79.2044 43.4912 80.2685 38.9757C80.9692 36.0691 81.2546 35.1348 82.2667 32.358C82.7339 31.1123 83.3826 29.9705 84.0574 28.8286C85.3809 26.5968 89.5332 22.5743 89.3515 22.9117C89.3515 22.9117 83.4865 22.1071 82.7079 22.185C80.7875 22.4445 78.8152 23.9757 77.3878 25.1694C75.5193 26.7525 74.6889 26.986 74.6889 26.986C74.6889 26.986 64.957 25.9999 63.0107 30.8269C62.1283 33.0068 61.6352 34.7456 60.9865 37.1331C59.4553 42.9722 58.7027 49.512 59.7408 55.7663C60.0522 57.6089 60.3377 58.4134 59.8446 59.9445C59.5072 60.9826 58.6768 61.7093 59.5072 62.8252C60.1301 63.6816 61.1681 63.7854 62.0764 63.5518C62.9588 63.3183 64.0228 62.6176 64.0228 61.5535C64.0228 59.7629 62.7252 58.5951 61.7391 58.9584C61.246 59.14 61.765 56.6747 61.8688 56.1556C62.3878 53.5345 62.7252 50.057 64.0228 47.4099C65.2166 44.9964 66.4103 42.6089 67.6041 40.1954C67.6041 40.1435 68.9536 42.1937 68.72 41.8044C69.1871 42.6089 69.4986 43.5691 69.9138 44.4255C70.7442 46.1643 71.6006 47.8771 72.5089 49.5639C73.4951 51.3805 74.8965 53.1712 75.675 55.0397C76.4536 56.8823 75.4934 58.5691 74.7148 60.4636C73.0799 64.3823 71.3152 67.0812 67.9415 69.6245C64.7494 72.038 62.1024 74.9965 59.0141 77.5138C58.5211 77.929 57.0937 78.8633 57.0937 78.8633C57.0937 78.8633 56.393 78.3961 55.9259 78.3702C55.1474 78.3442 54.291 77.9031 53.5124 78.448C51.073 80.1868 53.5124 83.4567 56.0297 82.3927C57.3792 81.8217 57.4311 80.6799 57.4311 80.6799C57.4311 80.6799 58.3394 80.1608 59.1699 79.8235C60.7788 79.1747 62.2581 78.6556 63.9709 78.2404C64.3602 80.8615 65.1647 83.4048 65.6837 85.8961C65.8913 86.8304 65.9692 87.8166 65.9951 88.7768C65.9951 89.8667 65.2166 91.8131 65.6318 92.7733C62.9069 92.0986 61.0124 96.0432 64.1006 97.1072C68.2529 97.9896 66.5141 93.7335 66.6958 93.5259C66.8775 93.3183 68.8498 91.2941 69.3688 90.4896C70.7702 88.3356 72.0937 86.1556 73.2615 83.8719C74.1958 82.0553 76.1681 77.9549 78.5038 77.4619C79.464 77.2543 80.3982 78.0328 81.2806 78.2923C82.5003 78.6556 83.8757 78.7854 85.1214 78.9152C90.8567 79.4861 96.592 78.474 101.912 76.32C104.507 75.256 103.106 76.0345 105.13 76.865C105.883 77.2024 107.803 76.9688 107.751 75.4895Z" fill="#FEBB1D"/>
<path fill-rule="evenodd" clip-rule="evenodd" d="M45.2089 144.677C45.1829 143.665 44.9753 142.757 44.4822 141.901C44.8975 141.07 43.7037 140.344 42.8732 140.292C42.4061 140.24 41.913 140.318 41.6276 140.707C41.5757 140.785 41.5497 140.837 41.5238 140.915C39.6812 140.915 37.8386 142.134 38.6431 144.314C38.6691 144.418 38.721 144.522 38.7989 144.626C38.9027 145.067 39.1881 145.482 39.5514 145.767C39.785 146.286 40.4078 146.676 40.9269 146.857C42.6916 147.454 44.612 146.442 45.0272 144.833C45.157 144.807 45.2089 144.755 45.2089 144.677Z" fill="#FEBB1D"/>
<path fill-rule="evenodd" clip-rule="evenodd" d="M67.4741 160.35C67.4222 160.324 67.3963 160.298 67.3444 160.272C67.2925 160.246 67.1627 160.22 66.9551 160.168C66.488 160.038 65.9949 160.012 65.5277 160.064C64.6454 159.96 63.7371 160.194 63.1143 160.843C62.7769 160.895 62.4655 160.998 62.3098 161.284C62.154 161.569 62.18 161.829 62.3098 162.036C59.7405 166.007 66.5139 169.095 69.161 165.981C71.1073 163.775 69.5502 161.232 67.4741 160.35Z" fill="#FEBB1D"/>
<path fill-rule="evenodd" clip-rule="evenodd" d="M129.033 145.352C128.565 144.833 127.865 144.521 127.138 144.418C125.685 143.899 123.894 144.132 123.194 145.533C122.155 146.753 122.519 148.622 123.868 149.53C125.036 150.335 126.801 150.62 128.02 149.841C128.358 149.919 128.695 149.919 128.851 149.712C129.344 149.011 129.552 148.232 129.526 147.48C129.629 147.454 129.707 147.402 129.733 147.298C129.889 146.546 129.604 145.871 129.033 145.352Z" fill="#FEBB1D"/>
<path fill-rule="evenodd" clip-rule="evenodd" d="M64.9329 28.3105C64.4917 28.2327 64.1024 28.2846 64.0246 28.5441L63.9727 28.6998C64.31 28.5441 64.6214 28.4403 64.9329 28.3105Z" fill="#FEBB1D"/>
<path fill-rule="evenodd" clip-rule="evenodd" d="M134.483 53.5074C134.483 53.4555 134.509 53.4296 134.509 53.3777C134.535 53.222 134.379 53.0922 134.172 52.9625C133.341 51.8725 131.629 51.8725 130.772 52.9105C130.227 51.7687 128.93 50.8344 127.658 51.5611C127.58 51.5611 127.528 51.5611 127.476 51.587C127.295 51.6649 127.139 51.7946 127.035 51.9244C126.931 51.9244 126.827 51.9503 126.802 52.0022C126.283 53.4036 126.205 56.3881 127.736 57.3223C127.606 57.4261 128.203 57.6857 128.385 57.6337C128.462 57.6078 128.54 57.5818 128.618 57.5559C128.644 57.5559 128.67 57.5299 128.67 57.5299C128.93 57.5559 129.163 57.5299 129.293 57.4261C129.423 57.3223 129.526 57.1926 129.63 57.0888C129.76 57.1926 129.89 57.2704 130.045 57.3223C130.045 57.3483 130.071 57.3742 130.071 57.3742C130.097 57.4261 130.149 57.504 130.227 57.5559C130.253 57.7376 130.279 57.9192 130.305 58.0749C130.331 58.2825 130.876 58.3604 131.032 58.2566C131.213 58.1528 131.447 58.023 131.654 57.8673C131.68 57.8414 131.732 57.8414 131.758 57.8154C131.81 57.7895 131.836 57.7376 131.888 57.7116C132.148 57.7376 132.407 57.7116 132.563 57.6337C133.341 57.2445 133.808 56.5438 134.016 55.7652C134.561 55.0905 134.795 54.3119 134.483 53.5074Z" fill="#BE3131"/>
<path fill-rule="evenodd" clip-rule="evenodd" d="M95.9953 128.196C95.4244 127.314 93.0368 127.34 93.1147 126.12C93.1147 125.913 92.4918 125.731 92.388 125.887C91.4538 127.21 90.2341 128.093 88.7029 128.56C88.6251 128.586 88.6251 128.638 88.7029 128.689C88.7548 129.546 88.8067 130.376 88.8586 131.233C88.8586 131.414 89.1701 131.492 89.2998 131.492C91.2462 131.752 94.3604 131.985 95.7877 130.272C96.2289 129.702 96.4105 128.845 95.9953 128.196Z" fill="#BE3131"/>
<path fill-rule="evenodd" clip-rule="evenodd" d="M77.0006 134.346C75.1062 133.568 73.5491 132.374 72.2774 130.765C72.1996 130.661 71.8363 130.583 71.6806 130.609C71.4989 130.583 71.3432 130.583 71.3172 130.661C70.9539 134.943 70.5906 139.225 70.2273 143.507C70.2013 143.715 70.902 143.922 70.9799 143.715C72.3553 140.211 74.4574 137.123 77.2082 134.58C77.312 134.476 77.0525 134.372 77.0006 134.346Z" fill="#464E98"/>
<path fill-rule="evenodd" clip-rule="evenodd" d="M89.2735 149.969C89.2994 149.891 89.3254 149.84 89.3514 149.762C89.4811 149.372 89.533 148.957 89.4552 148.516C89.4552 148.438 89.4292 148.36 89.4033 148.282C89.3773 148.205 89.2475 148.127 89.1178 148.101C88.9361 147.478 88.6507 146.881 88.443 146.31C88.1316 145.35 87.7943 144.39 87.4569 143.43C86.7043 141.198 85.9517 138.966 85.1732 136.708C84.8358 135.696 85.1472 133.931 83.9794 133.516C83.3046 133.283 82.0849 133.698 81.6697 134.191C81.488 134.113 81.2804 134.087 81.2026 134.165C76.6091 137.902 73.495 142.988 71.2631 148.412C70.0434 151.397 68.9794 154.511 68.1489 157.651C67.9154 158.533 67.7337 159.52 68.668 160.039C68.8237 160.116 68.9794 160.194 69.1351 160.22C69.161 160.246 69.187 160.246 69.187 160.246C69.3427 160.35 69.5763 160.402 69.7579 160.35C73.495 159.156 77.1022 157.625 80.5278 155.757C82.2925 154.796 84.0313 153.732 85.6922 152.59C86.341 152.149 87.4828 151.552 88.2873 150.826C88.4171 150.852 88.5469 150.852 88.5988 150.8C88.8064 150.618 88.9621 150.385 89.0918 150.151C89.1178 150.151 89.1178 150.125 89.1178 150.099C89.2216 150.073 89.2475 150.021 89.2735 149.969Z" fill="#464E98"/>
<path fill-rule="evenodd" clip-rule="evenodd" d="M94.801 136.423C94.7232 136.397 94.308 136.267 94.282 136.423C94.1003 137.409 93.8668 138.603 93.3218 139.459C92.699 140.445 92.2059 139.485 91.5052 139.2C91.4533 139.174 91.3754 139.148 91.3235 139.148C91.2976 139.096 91.2197 139.07 91.1938 139.044C91.1159 138.992 91.0121 138.966 90.9083 138.94C90.8045 138.914 90.5709 138.888 90.5969 139.044C90.5969 139.07 90.5969 139.122 90.5969 139.148C90.2336 139.304 90.0779 139.719 90.0519 140.186C89.8962 140.16 89.7664 140.212 89.7924 140.29C90.4412 142.314 91.09 144.338 91.7388 146.362C91.7907 146.518 92.4135 146.726 92.4913 146.518C93.3737 144.286 94.256 142.054 95.1124 139.823C95.6315 138.629 96.41 137.02 94.801 136.423Z" fill="#464E98"/>
<path fill-rule="evenodd" clip-rule="evenodd" d="M123.425 150.54C122.491 150.228 121.582 150.125 120.596 150.203C119.895 150.254 119.221 150.436 118.494 150.436C117.404 150.436 116.6 149.891 115.925 149.139C114.134 147.14 113.589 144.182 112.447 141.794C110.293 137.382 107.153 133.542 103.364 130.453C103.312 130.402 103.209 130.376 103.105 130.324L103.131 130.246C103.209 130.09 102.482 129.831 102.378 130.038L102.3 130.22C102.067 130.246 101.963 130.324 102.17 130.531L94.3072 148.438C93.9179 148.438 93.6584 148.568 94.1255 148.853L94.0736 148.983C93.9957 149.139 94.5926 149.346 94.7743 149.242C99.4715 151.967 104.662 154.017 110.034 154.926C114.939 155.782 120.648 155.263 123.892 151.007C124.048 150.799 123.581 150.592 123.425 150.54Z" fill="#464E98"/>
<path fill-rule="evenodd" clip-rule="evenodd" d="M111.358 133.752C110.164 128.77 109.1 123.761 108.14 118.726C108.114 118.649 108.062 118.597 107.984 118.519C108.062 118.311 108.114 118.104 108.192 117.922C108.244 117.74 107.517 117.507 107.439 117.714C107.387 117.896 107.309 118.078 107.257 118.259C106.92 118.207 106.609 118.259 106.661 118.467C106.712 118.804 106.79 119.116 106.868 119.453C106.012 121.944 105.181 124.436 104.299 126.901C104.299 126.927 104.299 126.953 104.299 126.979C104.117 127.005 104.091 127.109 104.325 127.264C106.712 128.847 108.607 130.95 109.879 133.493C110.034 133.856 111.462 134.245 111.358 133.752Z" fill="#464E98"/>
<path fill-rule="evenodd" clip-rule="evenodd" d="M125.216 101.677C125.216 101.625 125.139 101.573 125.061 101.521L122.933 87.7925C123.244 87.7147 122.829 87.4033 122.725 87.3254C122.44 87.1437 121.998 87.0919 121.661 87.1438C120.078 87.4552 118.547 87.3254 117.042 86.6766C116.938 86.6247 116.808 86.5988 116.678 86.5988C116.575 86.4431 116.004 86.2873 115.926 86.469C115.199 88.3116 114.654 90.1801 114.265 92.1264C114.083 92.1524 113.979 92.2303 114.083 92.386C114.109 92.4379 114.161 92.4898 114.187 92.5417C114.161 92.6455 114.161 92.7234 114.135 92.8272C114.109 92.9569 114.343 93.0607 114.55 93.0867C115.692 94.8254 116.756 96.5901 117.742 98.4067C117.561 98.1213 117.379 97.8099 117.197 97.5244C115.666 95.1628 113.902 93.0088 111.877 91.0624C111.825 91.0105 111.774 90.9846 111.67 90.9586C111.67 90.8808 111.67 90.8289 111.644 90.751C111.592 90.3358 110.113 90.0503 110.165 90.5175C110.19 90.8548 110.216 91.1662 110.242 91.5036C108.971 86.2614 106.531 81.4085 103.054 77.2562C103.08 77.2562 103.08 77.2562 103.106 77.2303C103.625 77.0226 102.275 76.4517 101.886 76.5815C98.0711 78.0867 94.1005 79.1507 90.0521 79.7476C89.8964 79.6957 89.7407 79.6697 89.6628 79.7476C87.2753 81.5901 85.5106 84.0036 84.4466 86.8323C84.2908 86.8583 84.213 86.9361 84.3168 87.0659L84.3427 87.0919C84.3427 87.1178 84.3947 87.1697 84.4206 87.1956C87.8203 91.27 91.9725 93.995 96.514 96.642C99.0054 98.0953 101.263 99.7562 103.261 101.858C105.156 103.857 106.817 106.062 108.478 108.242C108.556 108.32 108.711 108.398 108.893 108.476C111.799 111.85 115.77 114.185 120.156 115.146C120.208 115.146 120.234 115.171 120.286 115.171C120.338 115.327 120.934 115.535 121.038 115.327C123.452 111.123 125.813 106.685 125.216 101.677Z" fill="#464E98"/>
<path fill-rule="evenodd" clip-rule="evenodd" d="M85.4583 79.199C85.4323 79.225 85.4323 79.225 85.4064 79.2509C85.2766 79.199 85.1728 79.1731 85.069 79.1731C83.1745 79.1212 81.3839 78.7319 79.6711 77.9274C79.5932 77.9015 79.4635 77.8755 79.3337 77.8495C79.2818 77.6938 78.7368 77.5122 78.6071 77.6419C78.3994 77.8236 78.2178 78.0312 78.0102 78.2129C77.8545 78.2388 77.7766 78.2648 77.8285 78.3426C78.9185 80.1073 79.9825 81.8721 81.0725 83.6627C81.1763 83.8184 81.6434 84.078 81.6174 84.1039C81.4877 84.2856 82.1884 84.5451 82.3181 84.3634C83.486 82.8582 84.6797 81.353 85.8475 79.8478C86.133 79.8219 86.133 79.7181 86.0292 79.6143L86.159 79.4585C86.2887 79.2769 85.588 79.0174 85.4583 79.199Z" fill="#464E98"/>
<path fill-rule="evenodd" clip-rule="evenodd" d="M79.3076 86.0264C78.0879 84.5991 76.5568 80.862 76.2972 80.7842C76.3491 80.7063 75.8042 80.1094 75.7004 80.317C75.6225 80.4468 75.5446 80.5766 75.4668 80.7063C75.363 80.7323 75.3111 80.8101 75.337 80.888C75.337 80.9139 74.9218 80.888 74.9218 80.888C72.8976 84.4434 71.1848 87.9468 68.953 91.3724C68.8751 91.3724 68.7972 91.3724 68.7713 91.4243C67.9149 92.2548 67.2142 93.215 66.7211 94.305C66.6952 94.3309 66.7211 94.3828 66.773 94.4088C66.7471 94.4866 66.8249 94.5645 67.0585 94.6942C69.9391 96.3811 72.8197 98.0939 75.7004 99.7808C75.8301 99.8586 76.972 101.753 76.8941 99.8327C76.6606 93.6562 78.2436 91.5281 80.0862 88.8551C81.0204 87.5316 80.2938 87.2202 79.3076 86.0264Z" fill="#464E98"/>
<path fill-rule="evenodd" clip-rule="evenodd" d="M75.2606 102.326C75.7277 102.819 74.1447 101.703 74.1447 101.755L71.809 100.172C71.7052 100.094 71.4716 100.042 71.2381 100.016C70.2519 99.419 69.2917 98.8221 68.3056 98.2252C67.0599 97.4727 67.1118 97.3948 66.6187 97.0834C66.4111 96.9796 64.0235 97.5246 63.9716 97.6543L63.8938 97.9138C63.8678 97.9657 63.9197 97.9917 63.9457 98.0436C63.8419 100.587 64.854 102.948 66.8263 104.609C68.0201 105.595 69.3955 106.322 70.6152 107.308C72.0166 108.45 73.1585 109.852 74.1187 111.383C74.1966 111.486 74.8194 111.772 74.8713 111.538C75.4682 108.917 75.1568 102.196 75.2606 102.326Z" fill="#464E98"/>
<path fill-rule="evenodd" clip-rule="evenodd" d="M82.0596 123.137C82.0077 122.747 81.4627 122.228 81.2811 121.917C80.8918 121.346 80.5025 120.775 80.1392 120.204C79.3606 119.062 78.608 117.92 77.8295 116.753C77.7516 116.623 77.4662 116.519 77.1548 116.441C77.1548 116.389 77.1548 116.337 77.1288 116.285C77.1029 116.078 76.3503 115.922 76.3762 116.156C76.3762 116.26 76.4022 116.389 76.4022 116.493C76.3762 116.545 76.3762 116.597 76.4281 116.649C76.6357 119.218 76.506 121.735 75.9869 124.253C75.935 124.46 76.6876 124.642 76.7395 124.46C76.7395 124.434 76.7395 124.434 76.7395 124.408C77.025 124.538 77.3624 124.642 77.544 124.616C78.7378 124.408 80.0094 124.279 81.1773 123.967C81.7222 123.863 82.1375 123.76 82.0596 123.137Z" fill="#464E98"/>
<path fill-rule="evenodd" clip-rule="evenodd" d="M87.17 111.927C87.17 111.901 87.1441 111.875 87.1181 111.823C85.7167 109.851 84.0039 108.112 82.0316 106.711C81.2271 106.14 78.9174 104.272 77.9572 105.413C77.8794 105.413 77.8534 105.439 77.8534 105.491C77.8534 105.517 77.8534 105.543 77.8534 105.595C77.8534 105.595 77.8534 105.621 77.8275 105.621C77.8015 105.647 77.8015 105.699 77.8275 105.751C77.7236 108.164 77.5939 110.578 77.4901 113.017C77.3603 113.069 77.3603 113.173 77.542 113.329C80.1631 115.56 82.2392 118.285 83.7704 121.374C83.6666 121.4 83.6147 121.451 83.6406 121.581C83.6406 121.633 83.6666 121.685 83.6666 121.763C83.6925 121.867 83.8742 121.97 83.978 122.022C84.1337 122.1 84.2894 122.152 84.4711 122.178C84.4711 122.412 84.4451 122.645 84.4451 122.853C84.4451 123.086 85.1977 123.216 85.1977 123.06C85.1977 122.619 85.2237 122.178 85.2496 121.711C85.2756 121.685 85.3015 121.659 85.2756 121.607C85.2756 121.581 85.2496 121.581 85.2496 121.581C85.4313 118.311 86.0801 115.145 87.196 112.057C87.196 111.979 87.196 111.953 87.17 111.927Z" fill="#464E98"/>
<path fill-rule="evenodd" clip-rule="evenodd" d="M92.7506 118.103C91.8682 117.039 90.9859 115.975 90.1035 114.911C90.0516 114.86 89.9219 114.808 89.7662 114.782C89.8181 114.626 89.844 114.47 89.8959 114.34C89.9478 114.133 89.1952 113.925 89.1433 114.133C88.2869 116.91 87.9495 119.764 88.0534 122.671C88.0534 122.904 88.8059 123.034 88.8059 122.878C88.8059 122.775 88.8059 122.645 88.8059 122.541C88.9098 122.541 88.9876 122.515 89.0395 122.463C89.9997 120.802 91.2454 119.427 92.7506 118.233C92.8025 118.181 92.7765 118.129 92.7506 118.103Z" fill="#464E98"/>
<path fill-rule="evenodd" clip-rule="evenodd" d="M66.3851 120.282C64.7761 118.855 63.1671 117.428 61.5581 116C61.091 115.585 59.5079 114.651 59.6377 113.976C59.6636 113.794 60.4162 113.353 60.5979 113.171C60.9612 112.834 61.2986 112.497 61.61 112.133C63.8937 109.486 64.8539 106.087 64.5166 102.635C64.5944 102.609 64.6723 102.557 64.6204 102.454C64.5685 102.376 64.5425 102.272 64.4906 102.194C64.4387 102.064 64.309 101.986 64.1792 101.935C63.9975 101.857 63.7899 101.779 63.6083 101.753H63.5823C60.2865 98.7425 61.1429 92.7736 61.1429 92.7736C61.1429 92.7736 59.3003 89.9709 57.6134 87.8688C57.5096 87.739 56.8349 86.3895 56.9128 86.2338C56.9906 86.0522 56.4197 86.7269 56.3418 86.9345C54.8626 90.5937 55.2778 94.5124 55.0702 98.3791C54.655 98.1196 53.7467 98.0158 53.7986 98.3791C53.7986 98.457 53.8245 98.5608 53.8505 98.6386C50.8141 104.633 49.1013 111.199 48.7899 117.921C48.6342 118.102 48.5564 118.31 48.5044 118.492C48.4525 118.518 48.4266 118.518 48.4266 118.569C48.3228 119.244 48.4785 120.36 49.3608 120.386C49.3868 120.386 49.3868 120.386 49.4128 120.386C50.8401 121.71 52.3972 122.903 53.9024 124.149C56.3937 126.199 58.9629 127.756 62.155 128.353C62.2847 128.535 62.8816 128.639 62.8816 128.483C62.9595 125.395 64.309 122.566 66.6965 120.568C66.7743 120.49 66.5927 120.36 66.3851 120.282Z" fill="#464E98"/>
<path fill-rule="evenodd" clip-rule="evenodd" d="M63.7387 79.4333C63.8425 79.3814 63.7906 79.3295 63.7128 79.2775C63.6349 79.0699 62.9602 78.9661 62.9602 79.1218C62.9602 79.1478 62.9602 79.1737 62.9602 79.1997C62.8564 79.2516 62.7266 79.3035 62.6228 79.3814C60.5986 79.9004 58.9377 81.2758 58.1072 83.1703C57.9256 83.1443 57.7699 83.1703 57.7958 83.2741C57.8218 83.4038 57.8737 83.5076 57.9256 83.6374C57.8996 83.7412 57.8477 83.8191 57.8218 83.9229C57.7958 84.0267 57.9256 84.1045 58.1072 84.1564C58.8858 86.1806 60.0796 87.9713 61.6366 89.5024C61.7405 89.6062 62.2595 89.8398 62.3633 89.6062L63.7906 86.7516C64.2059 85.9471 64.7768 85.0907 64.8546 84.1564C65.0363 82.4955 63.8685 81.0423 63.7387 79.4333Z" fill="#464E98"/>
<path d="M112.42 139.824C112.031 133.596 104.505 127.653 104.453 127.549C104.453 127.523 104.453 127.497 104.427 127.471L104.401 127.445C104.271 127.186 104.531 126.096 104.661 125.706C105.569 122.93 106.815 119.322 107.463 116.649C107.489 116.545 106.503 112.367 106.425 112.679C105.984 114.755 105.232 116.753 104.427 118.699C104.064 119.582 102.766 122.41 102.533 122.8C102.455 122.93 101.754 123.526 101.702 123.423C101.598 123.267 90.9582 111.225 90.9582 111.225C90.9582 111.225 92.2557 109.253 93.0083 108.215C93.7609 107.203 94.4876 106.191 95.1104 105.075C96.3561 102.895 97.2125 100.533 97.7575 98.0939C97.7834 98.016 97.6277 97.9641 97.6018 97.9641C97.2903 97.8343 96.9789 97.7046 96.6675 97.6008C96.4599 97.5229 96.0187 96.7444 95.863 96.952C93.5533 100.507 91.1398 104.815 88.8301 108.397C80.6294 102.661 79.9028 101 79.9028 101C79.9028 101 79.5914 97.5229 80.4478 95.3949C80.4737 95.317 80.4478 95.2651 80.3699 95.2392C80.7073 93.6821 81.2263 92.2288 81.927 90.8534C82.2903 90.3603 82.2644 89.8672 82.7575 89.971C82.8613 89.997 83.0948 90.1267 83.1986 90.1786C86.3907 93.2669 91.2955 97.1077 94.773 96.7444C94.8768 96.7444 95.318 96.433 95.318 96.433C95.344 96.433 95.344 96.433 95.3699 96.433C96.0187 96.3291 94.773 95.8101 94.773 95.8101C91.6848 93.9157 88.8042 91.9953 86.1831 89.5039C85.5862 88.933 84.6 88.1544 84.3924 87.324C84.107 86.2859 84.8595 85.7409 85.3526 84.8586C86.2869 83.2236 87.5585 81.5627 88.908 80.2392C88.9858 80.1613 89.2973 79.798 89.2713 79.7721L88.9339 79.5645C88.882 79.4866 88.3111 79.4606 88.1813 79.4606C88.0775 79.4606 87.3768 79.3569 87.1952 79.3569C87.1173 79.3569 86.5983 79.4347 86.4685 79.4866C86.4166 79.5126 86.2609 79.9537 86.209 80.0316C86.1312 80.1354 83.5101 83.8465 83.3544 84.0541C82.9132 84.5731 82.2903 85.0662 82.2903 85.0662C82.2903 85.0662 79.3319 82.4191 78.2938 79.3309C78.2679 79.253 78.1121 79.0195 78.2159 78.9157C78.5014 78.6821 77.5153 78.5523 77.3076 78.734C76.1139 79.7202 75.4391 78.9157 75.9582 80.2392C77.3595 83.8724 80.3959 87.4797 80.3959 87.4797C80.3959 87.4797 77.9824 92.6959 77.1779 94.9797C76.581 96.7184 76.5031 99.7807 76.9443 101.571C77.3855 103.414 78.3457 103.881 79.7211 105.179C81.2782 106.684 87.0395 111.874 87.0395 111.874C87.0395 111.874 84.9374 120.127 84.9114 123.293C84.9114 123.474 87.818 123.63 87.818 123.449C87.7142 120.231 88.2332 116.909 89.427 113.924C90.0758 114.573 92.2817 117.635 92.2817 117.635C92.3855 117.817 92.9564 117.817 93.19 117.687C95.6554 120.153 98.1208 122.644 100.612 125.109C100.716 125.213 100.975 125.499 101.027 125.525C101.443 125.94 101.858 126.355 102.273 126.77C102.273 126.77 102.299 126.796 102.325 126.796C102.247 126.978 101.962 127.082 101.884 127.263C100.456 127.964 98.8215 129.807 98.1208 131.234C97.1087 133.31 96.8751 135.127 95.9928 137.255C95.0585 139.513 94.5135 141.641 93.6052 143.898C92.9824 145.404 91.7367 147.532 93.3717 148.803C93.5274 148.933 94.2281 148.985 94.3319 148.751C96.7973 142.341 99.2108 136.009 102.351 129.885C102.559 130.04 103.207 130.274 103.415 130.429C103.519 130.507 103.597 130.585 103.7 130.663C104.79 131.701 105.854 132.713 106.944 133.751C106.97 133.751 106.97 133.777 106.996 133.777C107.152 133.959 107.308 134.141 107.463 134.322C108.891 136.061 110.162 137.93 111.356 139.824C111.538 140.058 112.446 140.058 112.42 139.824Z" fill="#FEBB1D"/>
<path d="M80.2941 134.114C80.1903 134.192 80.1125 134.295 80.0087 134.373C79.6453 134.321 79.282 134.321 78.9447 134.373C78.6851 134.347 78.3997 134.321 78.1402 134.321C77.9845 134.321 77.5433 134.295 77.4914 134.529C77.4654 134.633 76.0381 135.411 76.0121 135.515C75.9343 135.956 74.8443 137.28 73.8841 138.603C71.5485 141.77 69.8616 145.688 69.9914 149.685C69.9914 149.996 70.9516 149.944 71.0294 149.685C72.9239 143.949 76.2717 138.811 80.7353 134.763C80.8132 134.737 80.8391 134.711 80.8391 134.659C80.9689 134.555 81.0986 134.425 81.2284 134.321C81.4879 134.036 80.5018 133.932 80.2941 134.114Z" fill="#FEBB1D"/>
<path d="M71.2609 130.976C71.2609 130.846 71.0274 130.769 70.7679 130.769C70.69 130.613 69.8336 130.535 69.7298 130.82C68.1208 136.166 67.5239 141.72 67.9651 147.274C67.991 147.507 68.5101 147.455 68.6139 147.455C69.4443 147.403 69.8596 146.988 70.0412 146.132C70.3526 144.549 70.3267 142.81 70.4564 141.175C70.716 137.801 71.0014 134.376 71.2609 130.976Z" fill="#FEBB1D"/>
<path d="M64.385 85.6113L63.1913 88.3622C63.0356 88.7255 62.8539 89.4262 62.5944 89.7376C62.2311 90.1788 62.3349 90.1529 61.8937 89.8414C61.2189 89.3743 60.5961 88.1286 60.0771 87.4539C59.4802 86.6494 59.1428 85.9487 58.5459 85.1702C58.52 85.1183 58.3124 84.5214 58.1826 84.2878C58.0269 84.0283 57.3262 84.0802 57.2224 84.3397C56.1065 87.0906 59.4802 90.3864 60.9075 92.2809C61.2708 92.774 61.0892 94.0196 61.4006 95.5248C61.4266 95.8881 61.4525 96.6667 61.4525 96.7446C61.5563 97.6269 61.6861 98.5352 61.7899 99.4176C61.8158 99.5473 63.1134 101.208 63.2172 101.701C63.2691 101.987 63.8141 101.494 63.892 101.234C64.1515 100.326 63.9439 100.17 63.6584 99.3138C63.8401 99.2878 63.6843 98.3536 63.6843 98.2757C63.6324 97.9902 63.6065 97.7307 63.5546 97.4452C63.5286 97.2895 63.0615 96.8224 62.776 96.8484C62.3349 95.6546 62.1532 94.8501 62.9058 93.6304C63.1394 93.2411 63.321 93.2411 63.5546 92.9037C63.7362 92.9037 64.0736 93.0335 64.1774 92.9297C64.2812 92.8259 64.385 91.9435 64.3591 91.9176C64.2812 91.8657 65.1376 89.8674 65.3712 89.1667C65.8124 87.7913 65.5529 87.1425 65.3452 85.7151C65.3712 85.3778 64.4888 85.3778 64.385 85.6113Z" fill="#FEBB1D"/>
<path d="M78.0628 113.926C77.44 112.939 77.0767 111.927 77.2064 110.682C77.3621 109.228 78.0109 107.853 78.0369 106.374C78.0888 104.687 77.44 103.208 76.4279 101.936C76.2722 101.702 76.0646 101.469 75.831 101.261C75.7272 101.132 75.5974 101.028 75.4936 100.924C75.7272 100.898 75.8829 100.82 75.805 100.742C75.5974 100.561 75.3898 100.353 75.1822 100.171C75.1043 100.093 75.0005 99.8858 74.7929 99.8858C74.4815 99.6782 74.1701 99.5485 73.8587 99.3409C73.0282 98.718 72.0161 98.0692 71.1338 97.5761C70.0697 96.9014 69.0057 96.4862 67.9677 95.7855L67.9417 95.7595C67.9158 95.7336 67.8898 95.7336 67.8639 95.7076C67.7601 95.6557 67.3189 95.2924 67.0853 95.3703C66.8518 95.3962 66.6701 95.8634 66.6701 95.9931C66.6182 97.1869 67.5265 97.8097 68.4607 98.3287C69.7324 99.0294 71.03 99.7301 72.3016 100.431C73.5473 101.106 75.3379 102.507 75.3379 102.507C75.3379 102.507 75.4417 106.4 75.312 107.801C74.8708 112.68 74.6372 112.81 76.2981 115.327C79.3864 118.363 80.5023 121.036 82.2929 123.657C82.4746 123.891 83.0974 123.813 83.331 123.683L83.9798 123.398C84.2652 123.502 84.6545 123.138 84.5507 122.879C83.2531 119.298 81.0213 116.235 78.0628 113.926Z" fill="#FEBB1D"/>
<path d="M90.8799 144.286C90.5425 143.481 90.4387 142.391 89.9716 141.665C90.0235 141.405 90.0754 141.172 90.1273 140.912C90.1532 140.756 88.8557 140.134 88.6999 139.796C88.7519 139.77 88.7778 139.718 88.7778 139.667C88.7 138.135 87.9993 136.89 86.7536 135.981C86.7276 135.955 86.6757 135.955 86.6238 135.929C86.6238 135.904 86.5979 135.878 86.5979 135.878C86.4681 135.644 85.482 135.696 85.5858 135.981C85.7934 136.5 87.8176 143.481 87.8176 143.481C87.8695 143.663 89.5045 148.153 89.9716 148.594C90.5425 149.165 91.7363 149.269 92.2294 148.542C92.6446 147.945 92.3072 147.504 92.0737 146.907C91.9179 146.518 91.2173 145.116 90.8799 144.286Z" fill="#FEBB1D"/>
<path fill-rule="evenodd" clip-rule="evenodd" d="M110.813 25.6905C108.685 23.5625 106.739 21.5123 102.976 20.033C99.213 18.5538 92.3877 20.6818 88.8324 23.6403C88.7286 23.7441 82.8635 27.8964 80.5019 38.6922C79.1005 45.0503 83.2009 55.4569 83.4863 56.7285C83.7459 58.0002 84.4985 62.36 84.213 65.3185C84.0832 66.5901 83.3566 69.4188 83.3566 69.4188L86.7043 70.8202C86.7043 70.8202 86.5227 64.2545 92.5434 66.6939C92.5953 66.7199 92.1542 65.9932 92.0504 65.8375C89.1178 61.1662 85.822 55.6126 87.7164 49.9292C88.6248 47.1784 90.7787 45.3618 93.3739 44.1939C96.4621 42.7666 100.562 41.8843 103.054 44.8427C103.106 44.8946 103.235 44.9725 103.365 44.9984C103.443 45.232 104.403 45.4915 104.351 45.1541C103.962 41.495 102.431 38.0953 99.9137 35.3964C99.8877 35.3704 99.8358 35.3445 99.8099 35.3185C99.8877 34.4621 100.017 33.5798 100.407 32.8012C101.263 30.9846 102.82 30.5694 104.715 30.8029C108.011 31.2182 111.073 32.7234 113.538 34.9292C113.72 35.0849 114.706 36.1749 114.966 36.2787C115.199 36.3047 116.004 35.9932 116.004 35.9932C116.263 36.0192 116.808 35.9673 116.808 35.9673C116.808 35.9673 113.59 28.4673 110.813 25.6905Z" fill="#464E98"/>
<path fill-rule="evenodd" clip-rule="evenodd" d="M101.367 62.9288C100.484 62.2022 98.9793 62.0205 97.9153 61.7091C97.8374 61.6832 97.7077 61.6832 97.552 61.6832C97.3443 61.4236 97.1367 61.1641 96.9291 60.9046C96.6956 60.5932 95.2163 60.4115 95.5537 60.8527C96.3582 61.8908 97.2665 62.825 98.3046 63.6036C99.0312 64.1486 100.017 64.7455 100.978 64.5119C101.912 64.3303 102.042 63.4998 101.367 62.9288Z" fill="#BE3131"/>
<path fill-rule="evenodd" clip-rule="evenodd" d="M67.994 144.704C68.2276 140.812 68.4352 136.893 68.6687 133C68.6947 132.533 67.1895 132.248 67.1636 132.585C67.1376 132.87 67.1376 133.156 67.1117 133.415C67.0598 133.415 67.0078 133.441 66.9559 133.467C63.4784 136.166 60.0009 138.865 56.5234 141.538C53.2795 144.056 49.5424 147.248 45.1047 146.547C44.8971 146.521 44.3002 146.495 44.5338 146.858C46.039 149.09 49.1532 149.427 51.5926 149.687C55.0442 150.05 58.5476 149.947 61.9473 149.324C63.4784 149.038 65.1393 148.753 66.5667 148.156C68.1238 147.559 67.9162 146.132 67.994 144.704Z" fill="#464E98"/>
<path fill-rule="evenodd" clip-rule="evenodd" d="M135.182 57.7893C134.299 57.7634 134.04 59.7616 133.495 60.4364C133.391 60.5921 133.495 60.7478 133.728 60.8775C133.625 61.0592 133.547 61.2668 133.443 61.4485C133.313 61.7339 133.106 62.0713 133.002 62.4087C132.924 62.4865 132.846 62.5903 132.742 62.6682C132.613 62.7979 132.742 62.9537 133.002 63.0834C133.183 63.5505 133.703 63.7841 134.196 63.9139C135.571 64.2253 135.934 63.3948 135.986 62.3568C136.116 62.3308 136.22 62.2789 136.246 62.1751C136.427 61.1111 136.713 59.554 136.921 58.49C137.024 57.9969 135.441 57.7893 135.182 57.7893Z" fill="#464E98"/>
<path fill-rule="evenodd" clip-rule="evenodd" d="M92.4934 96.5374C89.6128 96.0443 87.0955 93.7606 83.9294 90.854C83.8775 90.8021 83.7737 90.7502 83.6699 90.7243C83.7218 90.6205 82.8135 89.764 82.554 90.1793C81.2564 92.2294 80.7893 93.5789 80.3481 95.4734C79.9848 97.0045 79.31 99.2364 79.881 100.793C80.3481 102.091 81.8014 102.947 82.8394 103.752C84.5003 105.05 86.1872 106.347 87.8481 107.619C88.1076 107.8 88.964 108.138 89.1976 107.749C91.1958 104.297 93.3498 100.326 95.6336 97.0305C95.8412 96.745 93.1163 96.6412 92.4934 96.5374Z" fill="#464E98"/>
<path fill-rule="evenodd" clip-rule="evenodd" d="M118.392 39.26C118.521 39.0005 118.573 38.7151 118.573 38.4296C118.599 38.196 118.547 37.9625 118.418 37.7029C118.288 37.3915 118.054 37.132 117.743 36.9244C117.691 36.8725 117.613 36.8465 117.535 36.8206C117.561 36.7946 117.535 36.7687 117.509 36.7427C116.835 36.1199 115.563 35.9642 115.07 36.8206C115.044 36.8725 114.732 36.9244 114.758 36.9503C114.629 37.0542 114.525 37.3396 114.421 37.4694C112.968 39.6753 115.667 40.869 116.627 40.7393C116.679 40.7393 116.757 40.895 116.809 40.869C117.146 40.8171 117.431 40.5576 117.639 40.3241C117.847 40.1683 118.028 39.9607 118.158 39.7272C118.236 39.6234 118.288 39.5196 118.34 39.4157C118.34 39.3898 118.366 39.3379 118.392 39.26Z" fill="#FEBB1D"/>
<path fill-rule="evenodd" clip-rule="evenodd" d="M97.4238 132.039C97.294 132.039 97.1642 132.039 97.0345 132.065C96.9566 132.091 96.8269 132.117 96.8009 132.195C96.749 132.325 96.6712 132.454 96.6193 132.584C96.5674 132.61 96.5414 132.636 96.5155 132.662C96.3597 132.973 96.1781 133.285 96.0224 133.596C95.9964 133.674 96.0483 133.726 96.1262 133.778C96.1521 133.804 96.1781 133.83 96.204 133.83C96.1781 133.882 96.1521 133.934 96.1262 133.985C96.0483 134.167 96.3857 134.219 96.4895 134.219C96.6193 134.219 96.749 134.219 96.8788 134.193C96.9566 134.167 97.0864 134.141 97.1123 134.063C97.1902 133.882 97.2421 133.726 97.32 133.544C97.3459 133.466 97.294 133.414 97.2162 133.363C97.294 133.155 97.3719 132.973 97.4497 132.766C97.5016 132.74 97.5276 132.714 97.5276 132.688C97.6054 132.532 97.6573 132.402 97.7352 132.247C97.8649 132.091 97.5276 132.039 97.4238 132.039Z" fill="#464E98"/>
<path d="M97.3694 136.085C97.3435 135.462 96.6687 134.969 96.1238 134.683C96.1757 134.683 96.2276 134.657 96.2535 134.631C96.4092 134.502 96.3054 134.424 96.1497 134.32C96.0199 134.242 95.8383 133.827 95.7085 133.749C95.5528 133.671 95.1635 133.853 95.0078 134.009L94.6445 134.346C94.5667 134.424 94.6445 134.502 94.6964 134.554C94.4888 134.605 94.359 134.761 94.4369 135.073C94.4888 135.28 94.6445 135.488 94.8262 135.644C94.9559 135.851 95.1376 136.007 95.3452 136.111C95.6307 136.396 95.9161 136.682 96.2276 136.941C96.3314 137.045 97.058 137.33 97.1618 137.123C97.3175 137.123 97.4213 137.097 97.3954 136.967C97.2397 136.734 97.4992 136.318 97.3694 136.085Z" fill="#EFEDED"/>
<path d="M68.7208 126.405C69.1879 126.249 70.0962 126.379 70.4595 126.12C71.1083 125.704 70.4595 124.718 70.3038 124.225C69.9664 123.057 70.4336 122.097 70.9007 121.059C71.0045 120.774 71.1343 120.488 71.2381 120.203C71.1862 120.177 71.2381 120.021 71.3159 119.995C71.4197 119.736 71.5235 119.502 71.6273 119.243C71.6273 119.217 71.7571 118.464 71.7571 118.438C71.3678 118.23 70.719 118.827 70.3298 118.931C64.7761 120.462 61.7917 126.327 63.9197 131.699C63.9976 131.907 63.245 132.893 63.764 132.997C64.0754 132.685 65.7104 131.673 66.0218 131.362C66.1256 130.635 66.2813 129.909 66.463 129.208C66.5668 129.26 66.6706 129.312 66.7744 129.338C66.6965 128.066 67.1118 126.924 68.7208 126.405Z" fill="#FEBB1D"/>
<path d="M91.9205 124.668C92.1021 124.642 92.2838 124.616 92.4654 124.59C92.9845 124.538 92.0762 124.097 91.8166 124.123C90.3374 124.253 88.9879 124.746 87.7942 125.576C87.1973 125.628 86.6004 125.551 86.0035 125.369C85.8737 125.317 85.5623 125.213 85.2769 125.187C85.8478 124.954 86.4187 124.72 86.9897 124.487C87.6384 124.227 86.2111 123.656 85.5623 123.63C85.4066 123.604 85.2509 123.578 85.1211 123.604C84.7838 123.682 84.4205 123.76 84.0831 123.838C83.4862 123.864 82.9153 123.967 82.3703 124.201C81.8253 124.357 81.3063 124.512 80.7613 124.668C80.398 124.772 80.0606 124.85 79.6973 124.954C79.1523 125.031 78.6073 125.109 78.0883 125.187C77.8547 125.161 77.6211 125.135 77.3876 125.109C77.2838 125.057 77.18 125.032 77.1021 125.032L75.0519 124.746C75.2336 124.59 75.1558 124.357 74.5329 124.175C73.8063 123.942 73.1056 123.708 72.3789 123.474C72.2751 123.397 72.1454 123.293 71.9378 123.215C71.7301 123.137 71.5485 123.033 71.3409 122.955C71.1852 122.903 70.9516 122.852 70.744 122.852C70.6142 123.371 70.5883 123.916 70.7959 124.538C71.0035 125.161 71.2371 125.706 71.2371 126.381C71.2371 126.407 71.1852 126.459 71.1592 126.459C69.7838 126.563 67.9931 126.64 67.3703 128.094C67.1886 128.535 67.1367 129.002 67.1367 129.469C67.4222 129.521 67.7077 129.573 67.7855 129.547H67.9672C68.4343 129.651 68.9014 129.755 69.3945 129.884C69.8097 130.092 70.2769 130.196 70.718 130.196C71.3409 130.352 71.9897 130.481 72.6125 130.637C72.6384 130.637 72.6644 130.637 72.6644 130.663C72.8201 130.923 73.0277 131.13 73.2872 131.312C73.391 131.364 73.7544 131.493 74.1177 131.545C74.1436 131.623 74.1696 131.675 74.1955 131.753C74.1696 131.779 74.1436 131.831 74.1436 131.857C74.0658 132.012 74.2734 132.194 74.5848 132.324C74.8443 132.635 75.1557 132.895 75.4672 133.128C76.5312 133.829 77.8288 134.037 79.0744 134.037C80.2163 134.037 82.0329 134.089 82.8893 133.18C83.8495 132.142 82.8634 131.623 82.3184 130.845C81.1765 129.236 85.173 128.613 86.1073 128.457C88.5468 128.068 91.3236 127.653 92.5692 125.213C92.725 124.98 92.3616 124.772 91.9205 124.668Z" fill="#EFEDED"/>
<path d="M89.56 138.55C89.3524 138.498 89.1188 138.472 88.9372 138.524C88.7815 138.55 88.6517 138.628 88.5479 138.758C88.47 138.862 88.47 138.992 88.496 139.095C88.496 139.147 88.5219 139.173 88.5479 139.225C88.5738 139.303 88.6257 139.355 88.7036 139.381C88.7815 139.562 89.015 139.666 89.1967 139.718C89.4043 139.77 89.6638 139.822 89.8974 139.718C90.1569 139.64 90.3386 139.381 90.2866 139.095C90.2347 138.81 89.8714 138.628 89.56 138.55Z" fill="#EFEDED"/>
<path d="M93.7914 136.188C93.8174 136.162 93.8693 136.136 93.8952 136.11C94.0769 135.981 93.2205 135.591 92.961 135.747C92.1565 136.266 90.7551 138.161 91.9748 138.965C92.3641 139.225 93.0129 139.328 93.3762 138.965C93.6357 138.706 93.6357 138.316 93.6876 137.953C93.7655 137.434 93.8174 136.889 93.8952 136.37C93.9212 136.292 93.8693 136.24 93.7914 136.188Z" fill="#EFEDED"/>
<path fill-rule="evenodd" clip-rule="evenodd" d="M105.001 104.632C105.157 104.606 105.209 104.528 105.105 104.424C105.001 104.321 104.898 104.191 104.768 104.087C104.56 103.594 104.301 103.127 104.015 102.66C103.885 102.452 103.185 102.4 103.263 102.53C103.289 102.582 103.314 102.634 103.366 102.712C101.939 101.336 100.434 100.064 98.8248 98.8966C98.747 98.8447 98.5653 98.7928 98.3577 98.7409C98.4096 98.5593 98.4615 98.3776 98.5134 98.196C98.5653 97.9883 97.8127 97.7807 97.7608 97.9883C97.683 98.2479 97.6311 98.4814 97.5532 98.7409C97.5013 98.7669 97.4754 98.8188 97.5273 98.8707C96.2297 103.256 94.1276 107.331 91.247 110.938C91.1951 111.016 91.2729 111.094 91.3767 111.146C93.8162 114.416 96.3854 117.556 99.1103 120.592C99.4477 121.007 99.7851 121.423 100.122 121.812C100.096 121.838 100.096 121.864 100.148 121.89C100.226 121.968 100.304 122.019 100.356 122.097C100.434 122.201 100.512 122.279 100.59 122.383C100.641 122.435 100.719 122.487 100.849 122.538C100.875 122.564 100.927 122.59 100.953 122.616C100.953 122.616 100.979 122.642 101.005 122.642C101.083 122.746 101.135 122.824 101.212 122.928C101.238 122.954 101.29 122.98 101.342 123.006C101.316 123.057 101.29 123.083 101.264 123.135C101.186 123.291 101.913 123.551 102.017 123.343C104.872 117.66 107.441 110.808 105.001 104.632Z" fill="#464E98"/>
<path fill-rule="evenodd" clip-rule="evenodd" d="M104.69 55.1443C104.3 54.1582 103.418 52.9904 103.262 51.9004C103.133 50.9402 103.963 49.5648 104.145 48.6305C104.456 46.9956 104.119 46.1391 102.795 44.8935C100.46 42.6876 96.8265 43.2585 94.2573 43.9592C90.4424 44.9713 88.1327 47.7481 88.0289 48.0596C87.9251 48.0855 87.4579 49.7724 87.4579 49.7724C87.1725 50.6028 87.1206 54.3139 87.1465 54.3918C87.2503 55.5596 87.5358 56.3122 87.951 57.5319C87.977 57.6098 88.2365 58.544 88.3403 58.57C89.9233 62.4108 91.7659 67.679 96.4372 68.6392C96.4372 68.717 98.4095 69.4696 99.7071 68.717C100.979 67.4195 99.6811 66.2776 99.8368 64.9541C99.8368 64.9541 95.5808 62.281 94.8022 59.8156C96.6188 60.8018 98.1759 61.788 100.2 62.3329C100.278 62.3589 101.238 62.4886 101.108 62.0215C100.797 60.6461 103.133 60.5163 103.133 58.9073C103.574 59.0111 104.871 59.0371 105.287 58.8295C106.74 58.1028 105.131 56.2862 104.69 55.1443Z" fill="#EFEDED"/>
<path fill-rule="evenodd" clip-rule="evenodd" d="M64.9306 89.8169C64.6971 90.5695 64.4894 91.3221 64.2559 92.0488C64.204 92.2564 65.1901 92.3602 65.2939 92.0488C65.5275 91.2962 65.7351 90.5436 65.9687 89.8169C66.0206 89.6352 65.0344 89.5055 64.9306 89.8169Z" fill="#464E98"/>
<path fill-rule="evenodd" clip-rule="evenodd" d="M122.726 149.4C120.078 149.685 117.25 149.296 115.485 147.713C113.746 146.13 113.539 141.822 112.786 139.201C111.982 136.346 111.982 133.076 111.229 129.936C110.035 125.057 108.634 120.049 107.803 115.222C107.466 113.223 106.532 106.917 106.532 106.917C106.532 106.917 111.514 114.858 121.428 115.715C122.44 115.326 122.44 113.535 122.959 112.601C123.816 111.095 124.802 109.564 125.373 107.618C126.592 103.466 124.957 95.8878 124.179 92.6698C123.893 91.4241 123.348 88.3099 123.426 87.2459C125.632 86.7269 125.71 83.0418 127.708 82.6525C127.89 82.9639 128.461 83.6386 128.928 83.8203C129.447 84.002 130.226 83.7684 130.381 82.912C130.537 82.1335 129.603 79.6681 122.674 80.8878L122.803 77.2546C123.089 76.5279 123.997 75.9829 124.464 75.412C125.84 73.6992 129.421 70.6888 129.94 68.6386C130.511 69.2355 131.471 69.9622 131.471 69.9622C131.471 69.9622 141.722 61.3722 143.902 59.4777C142.916 57.5833 137.985 52.2891 137.985 52.2891L138.893 48.8376C138.893 48.8376 127.293 44.2701 126.852 44.4258C126.411 44.5815 125.295 47.8514 124.776 49.2528C123.167 53.6905 121.039 60.0487 121.039 60.0487C121.039 60.0487 119.43 60.9051 118.625 61.2165C118.963 61.9431 120.364 62.4881 121.739 62.7476C121.168 63.3705 119.741 63.9155 118.989 64.2269C120.001 65.5504 121.61 65.4726 122.44 65.4726C119.923 68.0677 118.651 69.3134 117.587 72.1162C116.99 73.6732 117.25 78.2407 116.523 79.3826C114.681 78.63 111.359 78.1888 110.035 79.3047C109.698 79.5902 108.945 80.8878 110.269 81.3809C110.918 81.3549 111.307 81.2511 111.566 80.784C113.149 81.1733 113.149 85.1957 115.018 85.9743C114.732 88.0504 113.591 89.4777 113.383 91.6317C112.527 91.2943 109.828 88.1023 109.724 87.5314C109.62 86.9605 107.284 79.72 103.106 76.2684C103.21 76.1646 103.418 76.1386 103.418 76.0348C104.118 77.0988 105.26 77.4362 106.662 77.2546C107.544 77.1508 108.296 76.1906 108.4 75.5937C108.816 73.258 107.388 72.7909 106.454 72.5054C104.949 72.4016 104.326 72.6352 103.729 73.5175C98.7723 71.3895 97.6304 70.7667 95.7619 70.3774C92.1546 69.5988 89.3519 69.8065 87.1979 70.3774C87.0422 68.8463 87.7688 67.912 88.2619 67.0815C88.755 66.277 90.7532 66.3289 94.7238 68.431C95.4505 68.8203 96.5923 69.4431 98.0197 69.3393C98.7982 69.2874 99.7584 69.1058 100.277 68.4829C100.952 67.6784 100.174 65.784 99.9141 65.4466C100.122 64.9016 100.485 64.9535 100.9 64.8497C101.238 64.7719 101.835 64.8238 102.042 63.9414C102.016 63.0331 101.835 62.4362 101.316 62.021C101.419 61.6836 101.731 60.7234 101.835 60.7753C102.328 60.6975 102.847 60.5677 103.106 60.3601C103.288 59.9449 103.262 59.6853 103.314 59.0885C104.196 59.1144 104.819 59.2182 105.52 59.1663C105.753 58.9847 105.987 58.829 106.013 58.5435C105.857 55.9483 103.755 54.2355 103.573 51.7961C103.547 51.277 104.637 48.3705 104.845 47.566C106.013 43.0504 102.302 36.5625 100.07 35.0314C100.355 33.3964 100.433 31.8393 101.809 31.1386C103.184 30.4379 109.075 32.1767 111.852 34.0452C112.786 34.668 113.513 35.6023 114.473 36.1992C113.617 36.7182 112.734 38.431 113.539 40.1438C114.888 42.7909 119.767 41.7528 119.014 37.9639C118.444 36.2511 116.886 35.8099 116.886 35.8099C116.886 35.8099 116.056 32.6438 115.303 31.3203C112.734 26.7788 109.802 23.6646 105.234 20.9656C102.847 19.5642 100.044 18.3186 96.255 19.3566C93.6079 20.1092 91.5837 21.1473 89.4816 22.4448C86.7826 22.0037 84.6287 21.7182 82.838 21.8739C80.191 22.1334 76.7394 25.1179 74.8709 26.3635C74.1702 26.4154 73.4695 26.4674 72.7688 26.5452C72.7688 26.5452 67.5785 26.8566 67.0076 26.9604C63.2446 27.3237 62.6996 29.7113 61.9989 31.2684C59.8709 35.9916 57.4833 49.4864 59.8449 58.9328C59.1961 59.4258 58.8069 59.893 58.5733 60.6456C58.21 62.4881 58.755 63.1888 59.4038 63.8376C60.3121 64.4864 61.4539 64.694 62.9851 64.1231C64.5162 63.5521 65.9176 59.2961 61.973 58.6992C62.7515 47.1248 67.864 40.8445 67.864 40.8445C67.864 40.8445 68.9799 43.3099 71.6788 49.2269C72.665 51.3808 74.6892 53.6646 75.1044 54.9103C75.883 57.1421 73.7031 61.5279 72.8986 62.9033C70.6148 66.8999 67.4228 70.0141 63.8155 72.5573C61.7394 74.0106 57.2498 78.656 57.2498 78.656C57.2498 78.656 56.5231 78.0331 55.6927 77.7996C53.6425 77.2546 52.4487 78.8895 52.1373 79.4085C51.5923 80.3428 51.9557 81.8739 52.6564 82.6006C53.357 83.3272 55.1217 83.8463 56.2896 83.0418C57.3017 82.367 57.691 81.329 57.9505 80.7321C58.2878 80.5504 58.6771 80.5504 59.0664 80.4466C53.3311 88.4397 54.0318 93.9933 54.1615 96.9258C53.9539 97.4708 53.3051 98.0158 52.9937 98.457C51.9038 100.118 49.1269 105.127 48.7377 110.836C48.7636 117.064 47.1027 116.805 47.7775 119.841C48.1148 121.372 50.0093 121.943 51.1512 122.826C54.3173 125.239 57.691 128.457 62.6477 129.132C63.1927 130.637 63.9453 131.39 63.1148 132.038C62.5958 131.623 61.973 131.415 61.428 131.935C60.6754 132.687 61.0387 133.933 61.8173 134.166C62.1546 134.27 63.1927 134.374 63.582 133.518C65.0093 133.05 66.1771 132.376 67.1892 130.248C67.7083 130.326 67.9937 130.429 68.928 130.637C58.4955 138.526 49.9833 147.765 45.2083 146.078C46.947 142.549 44.274 140.55 43.21 139.979C42.2238 139.46 36.6442 139.72 37.7861 145.17C38.4608 146.364 39.2653 147.324 41.0301 147.817C42.0681 148.128 43.5733 147.428 43.5733 147.428C44.793 148.751 48.7896 150.075 52.5525 150.542C56.601 151.061 60.1304 150.412 60.1304 150.412L59.9487 152.021L68.7723 152.073C68.7723 152.073 68.1235 157.756 66.774 159.08C63.9193 159.236 62.7256 159.599 61.7653 161.286C60.2861 163.881 62.3103 167.41 64.2048 168.033C65.0352 168.267 65.9695 168.422 67.5266 168.007C69.0837 167.592 70.9003 166.139 70.3034 161.441C78.9453 158.509 88.0283 152.125 88.0283 152.125H97.1892C97.1892 152.125 104.819 156.251 114.421 156.251C120.208 156.614 124.101 152.514 124.75 151.398C126.125 151.424 131.004 152.151 130.018 146.052C129.162 141.173 119.611 143.483 122.726 149.4ZM105.961 73.2321C107.051 73.2321 107.57 74.1404 107.57 75.0746C107.544 75.8272 106.843 76.6317 105.935 76.6058C104.559 76.5539 104.118 75.6456 104.092 75.1006C104.222 73.9587 104.663 73.2321 105.961 73.2321ZM56.601 81.2771C56.4972 81.6144 56.2377 81.8739 55.9262 82.0816C54.8103 82.7563 53.3311 82.0816 53.0975 80.8099C53.0456 80.4985 53.0456 80.1871 53.1754 79.8757C53.2273 79.2269 55.0179 78.1629 56.2117 79.0712C56.4193 79.2269 56.575 79.4604 56.6529 79.694C56.8086 80.3169 56.8346 80.9397 56.601 81.2771ZM110.476 133.543C109.594 132.116 106.947 129.08 104.534 126.978C104.611 124.928 107.077 121.32 107.57 117.895C109.023 124.071 109.698 128.665 110.476 133.543ZM106.48 113.275C106.869 113.976 107.077 116.96 106.765 118.05C105.987 120.957 104.43 123.993 103.729 127.133C105.909 129.313 109.205 132.635 110.71 135.334C111.437 136.632 111.8 139.979 111.8 139.979C111.8 139.979 107.388 132.22 102.224 129.158C101.29 130.845 93.8934 148.518 93.8934 148.518C93.8934 148.518 93.1408 147.999 92.8034 147.687C93.1927 146.338 95.1391 140.966 96.1771 137.67C96.3069 137.722 99.2913 137.722 97.3709 135.178C97.6304 134.011 98.2013 132.142 98.4608 131.26C99.2653 130.326 100.771 128.742 102.587 126.822C101.835 125.447 93.4262 116.96 93.4262 116.96C93.4262 116.96 93.1927 117.116 92.7775 117.402C91.9989 116.39 89.7152 113.794 89.3 113.146C86.7567 116.675 87.5093 123.241 87.5093 123.241C87.5093 123.241 86.1079 123.189 85.3034 123.163C85.2515 120.101 86.2117 115.507 87.4574 111.822C84.3432 108.37 81.8519 106.191 79.646 104.4C78.6339 103.569 77.7775 102.09 77.2325 101.286C77.1806 98.5868 77.1546 95.5504 78.1667 93.085C78.9193 91.1906 80.3467 89.3999 80.9176 87.4795C78.0629 84.6508 76.6875 80.8878 76.428 80.1871C76.7134 79.72 77.3882 79.1231 77.5958 78.8117C77.8294 78.9674 79.3346 83.0677 82.1114 85.3255C83.0456 85.1698 86.082 80.7061 86.601 79.7719C86.9643 79.7719 88.3138 79.8238 88.8069 79.8497C84.2654 84.6767 83.6166 87.2719 83.6166 87.2719C83.6166 87.2719 90.364 94.8238 95.165 96.2771C94.5422 96.5885 92.1287 96.1733 91.5318 95.8359C85.0439 92.047 82.7342 89.322 82.7342 89.322C82.7342 89.322 78.7896 93.7857 79.4384 101.104C80.4764 103.388 88.8069 109.227 88.8069 109.227C88.8069 109.227 95.7359 98.0158 96.0733 97.4449C96.0993 97.4189 96.0993 97.4189 96.0733 97.4449C96.5923 97.7822 97.0076 98.0418 97.319 98.2753C96.1512 103.855 90.338 111.173 90.338 111.173C90.338 111.173 99.7844 122.8 101.912 124.123C103.002 122.929 105.182 118.492 106.48 113.275ZM96.3069 130.481C97.6304 127.834 95.684 126.64 93.6079 126.563C93.2446 125.395 93.4003 125.109 93.037 124.798C93.0889 124.46 92.9851 123.967 92.9072 123.838C91.2982 123.708 89.6892 123.812 88.755 124.642C88.4176 124.746 87.7429 125.083 87.4833 125.057C88.4176 122.826 91.8432 120.542 93.4522 118.31C95.3986 119.4 100.459 125.421 101.393 126.381C98.4868 130.559 89.7152 137.851 89.7152 137.851C89.7152 137.851 87.8986 136.554 87.2498 135.853C85.8224 134.322 83.4089 132.168 82.5525 130.274C84.1875 129.365 85.537 128.457 88.1581 128.587C88.184 130.222 88.3916 130.637 88.6771 131.935C91.3242 132.35 95.2948 132.531 96.3069 130.481ZM88.9366 128.639C90.7792 128.483 91.8692 127.367 92.6737 126.069C92.8034 126.303 92.9851 126.718 93.1148 127.185C94.101 127.315 95.3207 127.653 95.7619 128.405C96.0733 128.924 96.0214 129.521 95.5543 129.988C94.1788 132.168 89.1702 131.182 89.1702 131.182C89.1702 131.182 88.9366 129.729 88.9366 128.639ZM89.4557 114.365C90.2602 115.819 91.9989 117.635 92.3363 118.128C91.1685 119.192 88.21 122.566 88.21 122.566C88.21 122.566 88.0543 116.883 89.4557 114.365ZM96.8259 133.985C96.8259 133.985 96.4366 133.44 96.2031 133.336C96.5664 132.921 96.9297 132.661 97.3709 132.116C97.1892 133.206 96.8259 133.985 96.8259 133.985ZM96.5664 136.684C95.165 135.646 94.5681 135.023 94.5681 135.023C94.5681 135.023 95.2169 134.4 95.5543 133.959C96.0474 134.452 96.5923 134.971 97.0595 136.087C97.2411 136.45 96.9038 136.865 96.5664 136.684ZM93.582 135.931C93.3743 136.969 93.1927 138.033 92.9851 139.071C92.1287 138.89 92.1806 138.474 91.7653 137.903C91.947 136.839 92.8813 136.632 93.4262 135.905L93.582 135.931ZM89.9747 138.656C89.7671 140.317 88.184 139.694 89.0404 138.474C89.2221 138.864 89.7671 138.89 89.9747 138.656ZM88.1062 138.111C87.8986 138.552 87.7429 139.435 88.3397 140.187C88.7031 140.628 89.4297 140.706 89.4297 140.706C89.4297 140.706 90.6754 145.559 92.0249 147.609C91.4799 147.999 90.8311 148.466 90.3899 148.673C89.274 146.753 87.6391 143.094 85.7965 135.827C86.2117 136.087 88.2878 137.722 88.1062 138.111ZM90.0785 140.239C90.0785 140.239 90.6754 139.616 90.9089 138.993C92.1027 140.031 92.6996 140.732 93.4262 139.876C94.0231 139.227 94.3605 137.488 94.5162 136.424C94.8795 136.658 95.2429 136.865 95.6062 137.099C94.5941 140.187 93.2705 143.197 92.4141 146.493C91.1685 145.767 90.0785 140.239 90.0785 140.239ZM76.5577 116.286C78.4522 117.973 80.7359 120.905 81.6702 123.448C80.7878 123.63 77.8034 124.668 77.3622 124.409C76.7134 124.357 76.6356 124.279 76.2723 124.045C76.4799 121.45 76.9211 118.595 76.5577 116.286ZM80.5283 119.763C79.5941 118.284 77.492 116.338 76.428 115.17C76.1944 114.573 75.7532 113.094 75.2602 112.419C75.1304 112.263 75.9089 106.969 75.4937 102.116C75.4159 101.934 73.2359 100.533 72.4055 100.092C70.5889 99.1577 68.7204 97.9899 66.9816 96.7182C67.0854 96.4328 67.1114 96.1992 67.1892 95.6283C70.0698 97.0296 72.2757 98.5867 75.0006 100.144C75.8051 101.649 77.3882 104.218 77.6477 104.426C77.9072 104.633 77.0249 110.862 76.9989 113.12C76.9989 113.639 81.6702 117.038 83.928 122.903C83.4609 122.877 82.5006 123.163 82.5006 123.163C82.5006 123.163 81.229 120.879 80.5283 119.763ZM71.8605 117.298C72.3795 116.675 72.1979 115.974 71.8346 115.637C71.3415 115.17 70.1217 115.3 69.966 116.156C69.8363 116.831 70.0698 117.35 70.8224 117.635C71.4972 117.895 68.8242 119.659 67.2671 119.711C64.2567 119.063 63.4522 114.936 60.1823 114.21C60.7273 112.938 62.2584 112.133 63.011 110.992C64.1788 109.201 65.1131 106.606 65.3467 103.933C69.6027 108.63 70.4332 106.32 75.1304 113.665C76.6096 117.194 75.5197 122.851 75.3899 123.993C74.0923 123.293 72.691 122.332 71.1858 121.943C71.4453 120.983 72.0162 120.178 72.2238 119.296C72.3536 118.414 72.12 117.765 71.8605 117.298ZM65.5802 93.3186C65.8916 93.4743 66.1252 93.7338 66.2809 94.0193C66.4626 94.3307 66.6442 94.6681 66.6442 95.0314C66.6183 96.5625 66.0474 97.1075 65.165 97.1854C64.2567 97.2632 63.6598 97.0296 63.1927 96.4328C62.7256 95.8359 62.3363 93.8376 63.9453 93.2926C64.6979 93.0591 65.191 93.1369 65.5802 93.3186ZM65.3207 89.9968C65.9176 91.5798 65.0352 92.3324 64.5941 92.2027C64.5422 91.2684 64.9574 90.0746 65.3207 89.9968ZM66.4626 97.3411C66.4626 97.3411 68.6166 98.4829 69.7325 99.2096C71.3934 100.3 73.3397 101.39 75.0006 102.428C75.2602 104.737 74.6633 111.303 74.6633 111.303C74.6633 111.303 74.5595 111.303 74.5076 111.303C69.8882 104.218 63.8934 105.178 64.075 97.7563C65.4505 98.0937 66.4626 97.3411 66.4626 97.3411ZM76.5058 100.092C74.274 97.393 73.7809 94.2009 73.3397 91.0867C73.2878 97.2113 74.4816 99.0539 74.4816 99.0539C74.4816 99.0539 71.601 96.7961 67.1892 94.8238C67.1892 94.6162 67.1633 94.3826 67.0595 94.175C67.5785 92.9034 69.1096 91.9172 69.8882 90.8013C71.7567 88.0504 72.9245 84.9362 74.819 82.1075C75.1564 81.5885 75.6494 80.9137 75.9868 80.5764C77.1546 83.9241 78.2965 85.5591 80.165 87.5573C77.5698 91.9172 76.0906 95.4207 76.5058 100.092ZM77.6217 112.678C77.6217 112.678 78.0889 107.306 78.2186 105.412C83.4868 112.03 83.5387 115.922 83.5387 115.922C83.5387 115.922 84.2913 114.443 83.383 111.485C82.7861 109.538 80.3986 106.139 80.3986 106.139C80.3986 106.139 83.7982 108.967 86.6788 112.082C85.4851 115.533 84.9141 117.843 84.7065 122.462C82.9418 117.324 77.6217 112.678 77.6217 112.678ZM78.2705 78.2667C78.4782 78.1629 78.6079 78.111 78.7636 77.9553C79.5941 78.4743 83.1754 79.3826 85.6667 79.6421C85.0439 81.0694 82.8121 83.5089 82.1633 84.2615C80.2688 82.7563 78.8155 79.6681 78.2705 78.2667ZM82.9159 90.1784C84.2913 91.6577 86.6269 94.0712 90.7792 96.1732C88.9107 96.3549 87.2757 96.848 87.2757 96.848C87.2757 96.848 91.9211 96.6404 95.191 97.2892C91.1944 104.218 88.7809 107.825 88.7809 107.825C88.7809 107.825 81.1771 102.194 80.3207 101.026C80.3207 100.87 79.7757 94.4604 82.9159 90.1784ZM98.1235 98.6906C99.7065 99.7027 104.274 103.388 104.871 104.971C107.674 112.315 102.431 122.981 101.653 123.085C98.2792 119.945 91.4799 111.121 91.4799 111.121C91.4799 111.121 96.0474 105.723 98.1235 98.6906ZM142.578 59.2701C142.449 60.0487 131.601 68.8463 131.601 68.8463L128.383 65.5504C128.383 65.5504 128.513 64.72 128.591 64.2788C129.525 64.5642 131.731 65.3428 131.731 65.3428C131.731 65.3428 132.25 64.3307 132.587 63.7857C133.106 64.3047 134.17 64.8757 135.572 64.2269C136.973 63.5521 137.31 60.6196 137.544 57.7909C137.025 57.713 136.324 57.6352 135.805 57.5573C136.272 56.104 137.57 52.8601 137.57 52.8601C137.57 52.8601 141.696 57.7649 142.578 59.2701ZM133.08 62.8774C133.859 61.4501 134.689 59.867 135.468 58.5175C135.727 58.4916 136.194 58.4397 136.558 58.4916C135.987 61.0089 136.402 63.0591 134.793 63.5521C133.599 63.8117 133.34 63.2148 133.08 62.8774ZM127.371 45.5417C127.371 45.5417 134.248 47.6698 137.855 49.4085C137.7 51.0435 136.947 52.2632 136.428 53.4829C134.3 58.4397 131.264 64.2269 131.264 64.2269C131.264 64.2269 129.732 63.7078 129.058 63.5002C129.499 61.995 130.563 61.1386 130.459 59.322C135.001 58.8809 137.829 49.72 130.9 52.3151C130.641 50.7321 127.708 49.6161 126.644 51.5106C125.58 53.4051 125.892 56.5712 127.527 57.8947C126.696 58.7771 125.736 60.1265 125.321 61.7874C124.283 61.3982 123.348 60.7494 122.025 60.5677C123.426 56.3636 127.371 45.5417 127.371 45.5417ZM129.655 56.8826C129.447 56.6231 128.591 57.4276 128.201 57.6092C126.203 53.3013 127.319 51.8739 128.253 51.7442C129.81 51.5106 130.563 53.5867 130.563 53.5867C130.563 53.5867 133.833 51.303 134.014 54.3393C133.703 56.2078 132.146 57.5573 130.693 58.1802C130.485 57.4535 130.433 57.1421 129.655 56.8826ZM120.753 61.4501H120.598V61.2943C120.805 61.2165 121.091 61.1127 121.246 61.0089C122.077 61.1646 123.893 61.8134 124.361 62.3843C123.193 61.9431 121.558 62.2027 120.753 61.4501ZM121.454 64.5123C121.194 64.4085 121.298 64.4864 121.143 64.3307C121.817 64.0193 122.648 63.5262 123.089 62.9812C123.452 63.0331 124.516 63.1888 124.516 63.1888C124.309 63.7338 124.023 63.8895 123.841 64.4345C122.829 64.4604 121.947 64.8238 121.454 64.5123ZM118.444 72.4795C119.248 70.2995 120.753 68.3272 122.31 66.9258C123.011 66.329 123.738 65.7061 124.438 65.1092C125.71 63.5002 126.099 61.1905 127.345 59.5037C127.89 58.7511 129.032 58.4137 129.629 57.6871C129.966 57.9726 129.94 60.1006 129.499 60.8532C125.995 66.7442 126.826 69.002 126.826 69.002C126.826 69.002 127.864 68.4829 128.046 66.3549C128.668 66.822 128.954 67.5227 129.577 67.9898C128.046 71.2597 122.129 76.6058 122.129 76.6058L121.947 81.1992C121.947 81.1992 120.572 81.5106 120.001 82.0816C119.274 80.7321 117.95 80.3428 117.535 79.9276C117.405 79.5383 118.132 73.3878 118.444 72.4795ZM114.836 84.2355C113.98 82.9639 114.084 81.329 112.916 80.3687C113.072 80.0314 113.072 80.1352 113.253 79.9016C116.549 80.0054 118.106 81.1214 119.482 82.9899C120.935 82.938 121.817 82.1854 123.011 81.848C124.257 81.4847 126.099 81.7182 127.475 81.5366C127.63 81.6663 127.501 81.5885 127.786 81.7182V81.8739C124.386 82.5746 125.269 84.9362 123.348 86.1559C121.324 87.4016 115.745 85.585 114.836 84.2355ZM110.502 94.0712C110.892 92.54 110.788 90.5937 110.788 90.5937C110.788 90.5937 112.111 91.8653 114.447 94.2269C116.523 96.303 117.198 99.0279 118.781 101.519C119.585 102.817 121.532 104.166 121.532 104.166C121.532 104.166 119.352 101.286 118.677 99.7805C117.899 98.0677 117.717 96.7961 114.343 92.4881C114.447 90.7753 115.822 87.3238 116.134 86.675C117.094 87.1421 120.053 87.9466 122.44 87.5314C122.648 89.3739 123.245 92.1767 123.608 93.9674C124.231 96.8999 125.425 103.959 124.386 107.592C123.634 110.213 122.103 111.822 120.961 114.755C111.904 114.91 107.181 104.478 100.771 99.2615C98.0716 97.1075 94.3086 95.213 91.1685 93.0331C88.729 91.3463 86.2636 89.1663 84.5768 87.0902C85.3034 84.8324 87.4314 82.4189 89.6114 79.9795C93.7377 79.4864 99.6546 78.3445 102.094 76.7874C105.883 79.694 110.087 88.9847 110.502 94.0712ZM100.2 64.3566C98.6425 63.7078 96.8519 61.9691 96.2031 61.0348C98.383 62.566 100.2 62.6957 101.212 62.7995C101.497 63.3964 101.653 64.3307 100.2 64.3566ZM98.4089 61.2684L100.952 60.8791C100.952 60.8791 100.667 61.3463 100.589 61.9691C99.7325 61.8653 98.4089 61.2684 98.4089 61.2684ZM105.182 58.3359C104.741 58.6732 103.184 57.8947 102.509 57.9206C101.809 57.9466 101.082 58.5694 100.589 58.1542C100.096 57.739 100.044 57.1421 100.822 56.4155C99.992 56.5971 99.3692 57.5054 99.8103 58.284C100.07 58.7251 100.2 58.9328 102.639 59.0106C102.561 59.5815 102.613 59.5296 102.302 59.7892C101.938 59.9708 100.796 60.2303 99.7325 60.3341C96.9557 60.6196 94.3865 59.0366 94.3865 59.0366L94.075 58.6992C94.075 58.6992 98.2792 59.6075 99.0577 56.8307C96.9297 59.4777 92.4401 58.1802 92.1806 58.1542C91.3242 58.1283 91.0128 59.0106 91.4799 59.867C91.402 58.8809 92.1806 58.5954 92.7775 58.9587C95.1131 61.6577 98.3311 64.2788 99.5249 64.9276C99.0577 66.7442 100.719 67.0815 99.5768 68.0937C97.1373 69.8324 94.101 66.7961 92.5439 64.9795C90.0006 61.9691 87.691 57.0902 87.4314 52.886C87.146 47.7736 91.1425 45.5158 94.2567 44.4258C95.3726 44.0366 98.357 43.284 99.6806 43.6732C101.938 44.322 101.731 44.6854 102.146 45.3601C101.809 45.931 101.445 46.6577 101.134 47.2286C100.226 47.0469 99.5508 46.5539 98.6166 46.3462C97.5006 46.1127 93.1667 47.7217 93.1667 47.7217C94.5162 48.1369 95.8138 47.3324 96.9816 47.54C98.2273 47.7736 99.1096 48.3186 99.7844 49.0712C97.3449 48.8895 96.0993 49.5642 94.8276 50.0054C95.7359 52.0037 99.6546 51.4587 99.1875 56.1819C99.7844 55.6109 100.252 54.8065 100.226 53.5348C100.693 53.3013 101.497 51.8999 101.316 50.0833C102.561 50.6801 103.392 49.8497 103.392 49.8497C103.106 50.4206 102.457 51.5106 102.665 52.2113C104.482 55.8445 105.701 57.6611 105.182 58.3359ZM99.7584 50.3687C99.7584 50.3687 100.018 50.3687 100.381 50.3947C100.303 50.8618 100.226 51.5106 100.174 51.9777C99.992 52.4968 99.4211 52.5227 99.0577 52.4189C99.7844 52.0037 99.7584 50.3687 99.7584 50.3687ZM98.0197 50.784C97.7861 51.0175 97.5525 50.8878 97.3968 50.758L97.4228 50.1352L98.2273 50.1611C98.1754 50.2649 98.2273 50.5504 98.0197 50.784ZM103.625 49.0971C103.495 49.0193 102.873 48.4224 102.405 48.111C102.665 47.7217 102.873 47.0729 102.95 46.2165C103.314 46.5539 103.755 46.9431 103.859 47.6698C103.833 48.4743 103.807 49.2009 103.625 49.0971ZM117.535 40.2995C116.938 41.0781 114.992 40.5331 114.603 39.8324C113.902 38.6905 114.473 37.0556 115.667 36.6923C116.861 36.3289 119.767 37.7044 117.535 40.2995ZM93.2446 21.4327C94.9574 20.6023 99.1875 18.8895 102.016 20.0054C104.43 20.9656 106.298 22.4968 108.374 24.0538C110.762 25.8445 113.046 28.6992 114.447 31.4241C115.096 32.6957 116.186 35.758 116.186 35.758L115.07 35.8878C115.07 35.8878 114.058 34.8497 113.227 34.2269C108.867 31.0608 104.222 30.0227 102.276 30.3341C100.589 30.5936 99.5249 32.7736 99.4211 34.3566C98.4868 34.0452 97.2671 33.1629 96.6442 32.5141H96.3328C97.1114 34.3826 99.7584 35.1871 100.926 36.9777C103.859 41.0002 103.781 43.3099 103.781 45.1784C102.976 43.9587 101.575 42.7909 99.9141 42.5054C97.1892 42.0383 94.3865 43.0504 92.7256 43.8289C90.2861 44.9708 87.9764 46.3462 86.8346 48.8376C85.537 51.6663 86.8605 57.5054 87.8726 59.6594C89.1961 62.5141 91.9211 65.8359 91.9211 65.8359C91.9211 65.8359 86.8346 63.0591 84.7584 57.2719C86.0041 62.5141 89.0923 65.0833 91.0906 65.9137C90.5716 65.7321 90.2861 65.4206 88.729 65.6542C87.1719 65.9137 86.2117 68.5867 86.1858 70.3255C85.0439 70.0141 84.6027 69.521 83.8501 68.976C83.902 67.7303 84.2653 66.6404 84.447 65.6802C84.966 62.9553 83.8242 56.8307 83.1235 54.3653C81.6183 49.149 79.8276 44.7372 80.684 38.8981C80.9955 37.8601 83.6166 24.8064 93.2446 21.4327ZM82.7342 22.4708C85.2256 22.5746 88.729 23.0158 88.729 23.0158C88.729 23.0158 86.3415 25.04 83.6166 28.2061C81.9297 27.713 75.9089 26.649 75.9089 26.649C75.9089 26.649 79.7757 23.5348 82.7342 22.4708ZM63.5041 62.021C63.1927 63.2926 61.973 63.4224 61.0128 63.3445C60.1044 63.3705 59.4816 61.6577 59.7152 60.8013C59.9747 59.9449 60.5716 59.4777 61.3242 59.3999C62.9072 59.2442 64.075 60.2044 63.5041 62.021ZM57.8986 80.0573C58.0283 79.4085 57.9245 79.2528 57.9245 79.2528C57.9245 79.2528 63.1148 73.5435 70.0439 68.7684C69.7584 70.611 69.8882 72.739 69.8882 72.739C69.8882 72.739 70.2515 70.3774 72.0162 66.4847C73.3397 63.604 76.2204 60.3601 76.3501 56.649C77.2844 57.3238 79.4384 60.0227 80.0352 61.0348C80.0352 61.0348 78.3743 57.5314 77.6217 56.4933C73.3657 50.6542 70.9003 44.7632 69.3173 41.649C68.1235 39.3134 65.8657 37.6784 65.8657 37.6784C65.8657 37.6784 67.1892 39.4691 67.2152 39.9881C66.6702 41.3635 65.5802 42.9985 64.9314 44.348C63.1408 48.085 61.402 54.0279 61.3761 58.6473C61.0387 58.6992 60.7273 58.777 60.7273 58.777C59.6892 52.912 59.0404 47.1767 60.4159 40.4293C61.0128 37.5487 62.3882 33.4743 63.4782 30.9829C64.2826 28.9846 66.5404 28.1801 68.5647 28.0763C68.8242 28.0504 69.0837 28.0504 69.3173 28.0504C76.3761 27.4276 82.7602 29.1404 82.7602 29.1404C82.7602 29.1404 80.3207 35.6802 79.6719 39.6507C79.075 43.2321 80.5802 48.3964 81.3069 50.9656C82.8121 56.1819 84.5508 63.1888 82.7342 67.9898C80.4764 66.9518 79.1788 65.6283 79.1788 65.6283C79.1788 65.6283 80.2688 68.6646 84.8622 70.9224C86.8605 71.9085 91.1425 70.0141 94.6979 70.9743C97.9937 71.8566 100.433 73.1283 103.288 74.2961C103.262 74.6594 103.262 75.0227 103.21 75.412C100.667 76.3463 93.8155 79.3047 87.8986 78.9414C82.6045 78.63 80.6062 77.6957 78.6079 77.021C74.8449 79.1231 73.2359 82.2632 72.4833 84.0798C70.0439 89.0625 68.2013 91.5279 66.5923 93.3705C66.255 93.111 65.8916 92.8255 65.7359 92.7217C67.5006 89.1144 65.71 83.7684 64.8536 80.4726C63.8934 76.7615 64.9314 74.2961 64.9314 74.2961C64.9314 74.2961 63.4262 75.3342 63.1927 78.1888C61.2204 78.5521 58.8588 79.8757 57.8986 80.0573ZM63.3224 79.3047C63.3224 79.3047 64.4124 82.6265 64.7238 84.4431C64.101 85.0919 62.1546 89.5816 62.1546 89.5816C62.1546 89.5816 59.5854 86.8566 58.2619 83.7165C58.4955 80.8359 63.3224 79.3047 63.3224 79.3047ZM57.7688 84.1836C57.7688 84.1836 60.0006 88.7771 62.2844 90.5418C63.3484 88.1023 64.8536 85.5591 64.8536 85.5591C64.8536 85.5591 65.139 87.7909 65.2169 88.7511C64.9314 89.4258 64.0491 89.8151 63.9712 92.2027C61.7394 93.0072 61.3242 96.6144 63.4522 97.5746C63.2186 98.8203 63.6339 101.078 63.6339 101.078C63.6339 101.078 60.883 98.6127 61.7394 92.5919C60.2861 91.1646 57.7688 88.0245 57.2238 85.9224C57.4574 85.2217 57.7688 84.1836 57.7688 84.1836ZM62.6217 128.275C59.4038 127.419 56.3155 126.147 54.3172 124.045C52.4747 122.125 50.5543 121.346 48.8155 119.841C48.582 118.44 49.4124 116.415 49.4903 114.158C49.7757 106.268 54.1875 98.4829 54.1875 98.4829C54.1875 98.4829 54.8103 99.8843 54.7325 100.559C55.3294 99.5729 55.2515 97.8082 55.1996 96.7701C54.8103 90.412 56.6788 86.8307 56.6788 86.8307C56.6788 86.8307 58.1581 89.9968 60.883 92.8515C61.0647 93.3705 60.883 96.822 60.883 96.822L58.9366 93.7338C58.9366 93.7338 58.4695 97.6785 64.1529 102.817C63.3484 112.341 60.3121 111.744 57.1979 115.092C55.5889 117.012 55.1737 118.44 55.1477 119.14C56.4193 117.064 57.9245 115.689 59.1183 114.858C61.8692 115.403 63.8155 119.192 66.2031 120.516C64.6979 122.618 62.6737 124.616 62.6217 128.275ZM66.5923 127.808C66.229 131.909 64.2048 132.324 64.2048 132.324C64.2048 132.324 64.8536 130.637 63.556 128.327C62.6477 126.692 65.2948 123.033 66.0214 122.073C67.0076 120.749 70.6927 119.997 71.2117 118.777C71.3155 119.478 70.4332 120.697 69.992 122.073C69.5508 123.5 70.1217 125.031 70.4591 125.862C70.4851 125.888 67.9418 125.732 66.5923 127.808ZM67.3449 129.106C67.1892 128.301 68.1754 126.77 70.2775 126.64C70.1737 127.445 72.0162 128.068 72.7169 126.874C73.4176 125.654 72.0422 124.486 70.9781 124.954C70.9003 124.305 70.8224 123.682 70.7446 123.033C72.8467 123.396 75.8311 126.121 78.1148 125.524C81.9297 124.512 83.8761 123.319 86.7307 124.097C86.5231 124.253 86.1339 124.616 86.056 124.876C85.537 124.876 84.7325 124.746 84.473 124.824C84.5249 124.979 84.5768 125.135 84.6027 125.317C85.6667 125.628 87.0941 126.147 88.5474 125.784C90.364 124.227 92.2325 124.642 92.2325 124.642C92.2325 124.642 91.5577 127.808 88.1321 127.99C87.3795 128.068 86.082 127.756 85.1217 128.042C83.7723 128.431 82.7342 129.495 81.255 129.962C80.2169 130.274 77.8553 130.585 76.973 129.962L76.0128 129.936C76.5577 130.793 79.7498 131.338 80.8916 130.585C82.1633 130.741 82.4228 132.064 83.2013 132.739C82.1892 133.336 76.6096 134.659 73.5993 131.104C73.0543 130.455 72.8207 130.377 72.1979 130.092C70.0958 129.547 68.4349 129.625 67.3449 129.106ZM71.5491 131L72.1719 131.026C73.1581 132.194 75.0006 134.114 76.8173 134.374C72.9245 137.047 70.5889 143.82 70.5889 143.82C70.8224 140.473 71.3674 137.696 71.5491 131ZM75.6235 136.528C76.2204 135.749 77.7775 134.4 77.7775 134.4C77.7775 134.4 79.4903 134.478 80.4764 134.348C73.8328 139.954 70.2515 149.504 70.2515 149.504C70.2515 149.504 69.8363 144.002 75.6235 136.528ZM70.1477 130.793C70.3553 130.793 70.4332 130.767 70.9522 130.819C70.4851 136.139 70.0179 141.459 69.5768 146.779C69.1356 146.857 68.1235 147.194 68.1235 147.194C68.1235 147.194 68.0456 133.803 70.1477 130.793ZM43.5733 146.13C42.7688 146.701 41.6269 146.727 40.8743 146.338C40.1217 145.974 38.2532 144.599 39.2653 142.471C39.5768 141.511 40.7446 140.836 41.3934 140.654C43.9107 140.317 44.6114 142.627 44.7671 143.483C44.6892 144.936 44.3519 145.559 43.5733 146.13ZM59.7671 149.27C54.8103 150.308 46.3501 148.959 44.793 146.805C51.3328 148.673 61.0647 137.384 68.1494 132.921C67.0076 142.341 67.4487 147.48 67.4487 147.48C67.4487 147.48 62.0249 148.829 59.7671 149.27ZM61.4539 150.178C62.7256 150.153 68.1235 149.14 68.8242 148.647H68.9799L68.8761 150.775L61.428 151.087C61.428 151.113 61.4539 150.282 61.4539 150.178ZM68.357 165.931C67.5266 166.813 64.9314 167.177 63.6079 165.905C62.492 165.127 62.4141 163.855 62.6477 162.22C62.8294 161.597 63.1408 161.312 63.4782 160.974C63.9712 160.533 64.7757 160.066 65.4245 160.092C69.6546 160.118 70.6667 164.4 68.357 165.931ZM69.6806 160.274C69.6806 160.274 68.5387 159.781 68.1235 159.417C70.9522 152.203 71.0041 146.078 78.1148 137.903C78.7377 137.099 81.4107 134.53 81.4107 134.53L83.5128 133.647L84.6027 134.478C84.6027 134.478 86.7048 144.573 89.4557 148.933C82.5266 155.966 69.6806 160.274 69.6806 160.274ZM89.8709 150.827L92.2844 149.037L95.2688 150.827H89.8709ZM118.106 154.305C106.765 156.355 101.731 152.436 94.5162 148.829C94.8795 148.076 102.509 130.248 102.509 130.248C103.729 130.611 109.724 137.229 111.618 141.044C112.812 143.405 113.02 147.09 114.81 148.933C117.224 151.424 123.634 150.698 123.634 150.698C123.634 150.698 122.025 153.578 118.106 154.305ZM129.136 148.05C128.824 149.582 127.656 149.945 126.826 150.178C123.997 150.801 123.271 147.895 123.478 146.26C123.686 145.455 124.464 144.781 124.957 144.573C125.476 144.365 126.696 144.106 127.812 144.677C128.954 145.222 129.265 146.338 129.136 148.05Z" fill="#25252F"/>
<defs>
<linearGradient id="paint0_linear_324_104553" x1="92" y1="2" x2="92" y2="182" gradientUnits="userSpaceOnUse">
<stop stop-color="white" stop-opacity="0.85"/>
<stop offset="1" stop-color="white" stop-opacity="0.15"/>
</linearGradient>
</defs>
</svg>
