<svg width="7" height="6" viewBox="0 0 7 6" fill="none" xmlns="http://www.w3.org/2000/svg">
<path d="M3.12695 5.91391C2.92583 5.91391 2.73429 5.81335 2.62415 5.64096C2.42303 5.36322 1.86755 4.68804 1.51798 4.38635C0.579419 3.60102 0 3.0647 0 2.03994C0 0.914623 0.905044 0 2.016 0C2.42303 0 2.80612 0.114926 3.12695 0.325625C3.46215 0.110138 3.83566 0 4.21875 0C5.36322 0 6.25869 0.895468 6.25869 2.03994C6.25869 3.04076 5.68885 3.54835 4.7455 4.38635C4.43424 4.6593 3.97453 5.22915 3.72553 5.53083L3.60581 5.67927C3.51962 5.81335 3.32807 5.91391 3.12695 5.91391Z" fill="#400B00"/>
<path d="M4.21557 0.472656C3.81812 0.472656 3.4494 0.630679 3.15729 0.894051C3.12856 0.922783 3.10462 0.922783 3.07589 0.894051C2.81251 0.630679 2.439 0.472656 2.01761 0.472656C1.17003 0.472656 0.480469 1.16221 0.480469 2.03374C0.480469 2.79991 0.84919 3.19736 1.83085 4.021C2.22831 4.36578 2.81251 5.07928 3.02321 5.37139C3.07589 5.45279 3.18124 5.45279 3.23391 5.37139C3.47334 5.07928 4.02882 4.36578 4.42627 4.021C5.3792 3.17342 5.77665 2.8047 5.77665 2.03374C5.77665 1.16221 5.0871 0.472656 4.21557 0.472656Z" fill="url(#paint0_linear_426_282176)"/>
<defs>
<linearGradient id="paint0_linear_426_282176" x1="3.12856" y1="5.43364" x2="3.12856" y2="0.472656" gradientUnits="userSpaceOnUse">
<stop stop-color="#AE7300"/>
<stop offset="0.44" stop-color="#F3D000"/>
<stop offset="0.51" stop-color="#FFE100"/>
<stop offset="0.55" stop-color="#FFE20B"/>
<stop offset="0.63" stop-color="#FFE62A"/>
<stop offset="0.73" stop-color="#FFEB5C"/>
<stop offset="0.85" stop-color="#FFF4A2"/>
<stop offset="0.99" stop-color="#FFFEFA"/>
<stop offset="1" stop-color="white"/>
</linearGradient>
</defs>
</svg>
