<svg width="7" height="7" viewBox="0 0 7 7" fill="none" xmlns="http://www.w3.org/2000/svg">
<path d="M2.59063 6.39756C2.35599 6.39756 2.15966 6.27306 2.07346 6.06715C2.02079 5.94264 2.02079 5.80856 2.06388 5.68885C1.99205 5.69843 1.91543 5.70321 1.8436 5.70321C0.828422 5.70321 0 4.90831 0 3.93144C0 3.09343 0.608149 2.38951 1.427 2.20754C1.38869 2.06388 1.36954 1.92022 1.36954 1.77178C1.36954 0.81406 2.21233 0 3.21314 0C4.21396 0 5.05675 0.794905 5.05675 1.77178C5.05675 1.92022 5.0376 2.06867 4.9945 2.21233C5.79898 2.39908 6.42151 3.11258 6.42151 3.93622C6.42151 4.91309 5.59308 5.708 4.57789 5.708C4.50128 5.708 4.42466 5.70322 4.34804 5.69364C4.38635 5.81335 4.38156 5.94264 4.32889 6.06715C4.24269 6.27306 4.05115 6.40235 3.83088 6.40235H2.59063V6.39756Z" fill="#400B00"/>
<path d="M4.57862 2.63817C4.43018 2.63817 4.28173 2.66211 4.13328 2.71479C4.40623 2.46578 4.57862 2.14494 4.57862 1.77143C4.57862 1.05315 3.9561 0.478516 3.21387 0.478516C2.47164 0.478516 1.84913 1.07709 1.84913 1.77143C1.84913 2.14494 2.02151 2.48972 2.29446 2.71479C2.14602 2.6669 2.02152 2.63817 1.84913 2.63817C1.10211 2.63817 0.484375 3.20801 0.484375 3.93109C0.484375 4.65417 1.1069 5.22401 1.84913 5.22401C2.39503 5.22401 2.84515 4.92712 3.06543 4.50572C3.04148 4.87923 2.91698 5.44907 2.54347 5.82258C2.49559 5.87047 2.51953 5.92314 2.59136 5.92314H3.8316C3.87949 5.92314 3.90822 5.84653 3.87949 5.82258C3.50598 5.44907 3.38147 4.90317 3.35753 4.50572C3.5826 4.92712 4.05188 5.22401 4.57384 5.22401C5.32086 5.22401 5.93858 4.65417 5.93858 3.93109C5.93858 3.20801 5.31607 2.63817 4.57384 2.63817H4.57862Z" fill="url(#paint0_linear_426_282170)"/>
<defs>
<linearGradient id="paint0_linear_426_282170" x1="3.21387" y1="5.91836" x2="3.21387" y2="0.478516" gradientUnits="userSpaceOnUse">
<stop stop-color="#AE7300"/>
<stop offset="0.44" stop-color="#F3D000"/>
<stop offset="0.51" stop-color="#FFE100"/>
<stop offset="0.55" stop-color="#FFE20B"/>
<stop offset="0.63" stop-color="#FFE62A"/>
<stop offset="0.73" stop-color="#FFEB5C"/>
<stop offset="0.85" stop-color="#FFF4A2"/>
<stop offset="0.99" stop-color="#FFFEFA"/>
<stop offset="1" stop-color="white"/>
</linearGradient>
</defs>
</svg>
