<svg width="6" height="7" viewBox="0 0 6 7" fill="none" xmlns="http://www.w3.org/2000/svg">
<path d="M2.25135 6.3832C2.01671 6.37362 1.82517 6.24433 1.74376 6.03842C1.66714 5.8373 1.71982 5.61223 1.88742 5.45421C1.94488 5.40153 1.99277 5.33928 2.04066 5.26745C2.00235 5.26745 1.87785 5.26745 1.87785 5.26745C0.814777 5.23872 -0.0280182 4.38157 0.000713338 3.35681C0.0246563 2.48049 0.541824 2.02079 1.45166 1.28334C1.78207 1.0487 2.20347 0.598574 2.45726 0.325625L2.59134 0.181969C2.72064 0.0574655 2.87387 0 3.03668 0C3.20907 0 3.37667 0.0670411 3.48681 0.191545L3.56822 0.287319C3.79328 0.550691 4.26256 1.10617 4.56424 1.36475C5.47408 2.14529 5.98646 2.62894 5.95773 3.5292C5.92899 4.52043 5.06705 5.32971 4.03271 5.32971H3.97525C3.92257 5.32971 3.8699 5.32492 3.81243 5.31534C3.85553 5.38717 3.90342 5.45421 3.96088 5.51167C4.10454 5.66012 4.14285 5.88997 4.05665 6.0863C3.97046 6.28742 3.77413 6.41672 3.56343 6.41672L2.24657 6.37841L2.25135 6.3832Z" fill="#400B00"/>
<path d="M4.25821 1.73318C3.88949 1.42192 3.35796 0.78025 3.14247 0.526455C3.09458 0.47378 2.99402 0.473779 2.94135 0.521665C2.71149 0.765883 2.1656 1.37403 1.75857 1.66614C0.8631 2.394 0.503953 2.734 0.484799 3.38046C0.465645 4.13227 1.09774 4.77394 1.89743 4.79788C2.19911 4.80746 2.54868 4.71647 2.77854 4.54887L2.80248 4.52493C2.74023 4.89844 2.60136 5.44434 2.21348 5.80827C2.16081 5.85616 2.18475 5.90883 2.26137 5.90883L2.91262 5.92799L3.56387 5.94714C3.61175 5.94714 3.64048 5.87531 3.61654 5.84658C3.25261 5.4587 3.14247 4.93196 3.10416 4.52972L3.1281 4.55366C3.32443 4.73563 3.69316 4.84576 3.99484 4.85534C4.79453 4.87928 5.46494 4.27113 5.48409 3.51933C5.50325 2.86808 5.16325 2.50893 4.25821 1.73318Z" fill="url(#paint0_linear_426_282173)"/>
<defs>
<linearGradient id="paint0_linear_426_282173" x1="2.98445" y1="5.94235" x2="2.98445" y2="0.483357" gradientUnits="userSpaceOnUse">
<stop stop-color="#AE7300"/>
<stop offset="0.44" stop-color="#F3D000"/>
<stop offset="0.51" stop-color="#FFE100"/>
<stop offset="0.55" stop-color="#FFE20B"/>
<stop offset="0.63" stop-color="#FFE62A"/>
<stop offset="0.73" stop-color="#FFEB5C"/>
<stop offset="0.85" stop-color="#FFF4A2"/>
<stop offset="0.99" stop-color="#FFFEFA"/>
<stop offset="1" stop-color="white"/>
</linearGradient>
</defs>
</svg>
