<svg width="6" height="7" viewBox="0 0 6 7" fill="none" xmlns="http://www.w3.org/2000/svg">
<path d="M2.96541 6.39756C2.77865 6.39756 2.60626 6.31616 2.49134 6.1725C1.7922 5.24351 1.04518 4.42466 0.19281 3.64891C-0.0609858 3.39511 -0.0609826 3.00724 0.173659 2.76781C1.04039 1.97769 1.78741 1.15405 2.47697 0.23943C2.60147 0.0814061 2.77386 0 2.96062 0C3.14737 0 3.31976 0.081403 3.43469 0.225061C4.13383 1.14926 4.88085 1.9729 5.73322 2.74865C5.98701 3.00245 5.98701 3.39032 5.75237 3.62975C4.88563 4.42466 4.13382 5.24351 3.44906 6.15813C3.32455 6.31615 3.15217 6.39756 2.96541 6.39756Z" fill="#400B00"/>
<path d="M2.86248 0.525204C2.15855 1.45419 1.3828 2.31135 0.516068 3.10147C0.463394 3.15414 0.463394 3.24034 0.516068 3.29301C1.3828 4.08313 2.16334 4.94029 2.86248 5.86927C2.91515 5.93153 3.01571 5.93153 3.06838 5.86927C3.77231 4.94029 4.54806 4.08313 5.4148 3.29301C5.46747 3.24034 5.46747 3.15414 5.4148 3.10147C4.54806 2.31135 3.76752 1.45419 3.06838 0.525204C3.01571 0.462953 2.91515 0.462953 2.86248 0.525204Z" fill="url(#paint0_linear_426_282167)"/>
<defs>
<linearGradient id="paint0_linear_426_282167" x1="2.96304" y1="5.91716" x2="2.96304" y2="0.477319" gradientUnits="userSpaceOnUse">
<stop stop-color="#AE7300"/>
<stop offset="0.44" stop-color="#F3D000"/>
<stop offset="0.51" stop-color="#FFE100"/>
<stop offset="0.55" stop-color="#FFE20B"/>
<stop offset="0.63" stop-color="#FFE62A"/>
<stop offset="0.73" stop-color="#FFEB5C"/>
<stop offset="0.85" stop-color="#FFF4A2"/>
<stop offset="0.99" stop-color="#FFFEFA"/>
<stop offset="1" stop-color="white"/>
</linearGradient>
</defs>
</svg>
